<svg width="1899" height="990" xmlns="http://www.w3.org/2000/svg" xmlns:xlink="http://www.w3.org/1999/xlink" xml:space="preserve" overflow="hidden"><defs><clipPath id="clip0"><rect x="1144" y="1268" width="1899" height="990"/></clipPath></defs><g clip-path="url(#clip0)" transform="translate(-1144 -1268)"><g><path d="M1614.05 2096.07 1892.06 2096.07 1892.06 1974.06 1614.05 1974.06ZM2784.09 1750.06 1892.06 1750.06 1892.06 1628.05 2784.09 1628.05Z" fill="#C04F15"/></g><g><path d="M0 0 0.000360892 693" stroke="#D9D9D9" stroke-width="3.4375" stroke-linejoin="round" stroke-miterlimit="10" fill="none" fill-rule="evenodd" transform="matrix(1 0 0 -1 1892.5 2208.5)"/></g><g><text font-family="Arial,Arial_MSFontService,sans-serif" font-weight="400" font-size="55" transform="matrix(1 0 0 1 1442.4 2055)">-</text></g><g><text font-family="Arial,Arial_MSFontService,sans-serif" font-weight="400" font-size="55" transform="matrix(1 0 0 1 1460.71 2055)">0.2%</text></g><g><text font-family="Arial,Arial_MSFontService,sans-serif" font-weight="400" font-size="55" transform="matrix(1 0 0 1 2811.59 1709)">0.6%</text></g><g><text font-family="Arial,Arial_MSFontService,sans-serif" font-weight="400" font-size="55" transform="matrix(1 0 0 1 1192.48 2053)">Finland</text></g><g><text font-family="Arial,Arial_MSFontService,sans-serif" font-weight="400" font-size="55" transform="matrix(1 0 0 1 1174.1 1707)">Sweden</text></g><g><g><text font-family="Arial,Arial_MSFontService,sans-serif" font-weight="700" font-size="64" transform="matrix(1 0 0 1 1487.76 1388)">ANNUAL WORKING</text></g></g><g><g><text font-family="Arial,Arial_MSFontService,sans-serif" font-weight="700" font-size="64" transform="matrix(1 0 0 1 2093.9 1388)">-</text></g></g><g><g><text font-family="Arial,Arial_MSFontService,sans-serif" font-weight="700" font-size="64" transform="matrix(1 0 0 1 2115.1 1388)">AGE POPULATION GROWTH</text></g></g><g><g><text font-family="Arial,Arial_MSFontService,sans-serif" font-weight="400" font-size="60" transform="matrix(1 0 0 1 2102.22 1461)">2010</text></g></g><g><g><text font-family="Arial,Arial_MSFontService,sans-serif" font-weight="400" font-size="60" transform="matrix(1 0 0 1 2235.14 1461)">-</text></g></g><g><g><text font-family="Arial,Arial_MSFontService,sans-serif" font-weight="400" font-size="60" transform="matrix(1 0 0 1 2255.19 1461)">2025</text></g></g></g></svg>