<svg width="2281" height="2759" xmlns="http://www.w3.org/2000/svg" xmlns:xlink="http://www.w3.org/1999/xlink" xml:space="preserve" overflow="hidden"><g transform="translate(-77 -486)"><path d="M94.9999 1406 2347 1406 2347 1994.05 1626.75 1994.05 1626.75 2629 870.44 2629 870.44 2403.89 94.9999 2403.89Z" fill="#F9D7AD" fill-rule="evenodd" fill-opacity="0.32549"/><path d="M1238 1467 1685.07 1467 1724 1548 1685.07 1629 1238 1629 1276.93 1548Z" fill="#0D0953" fill-rule="evenodd"/><text fill="#FFFFFF" font-family="Arial,Arial_MSFontService,sans-serif" font-weight="700" font-size="64" transform="matrix(1 0 0 1 1333.59 1564)">Initiatives</text><path d="M801 1467 1216.07 1467 1255 1548 1216.07 1629 801 1629Z" fill="#0D0953" fill-rule="evenodd"/><text fill="#FFFFFF" font-family="Arial,Arial_MSFontService,sans-serif" font-weight="700" font-size="64" transform="matrix(1 0 0 1 915.268 1564)">Market</text><path d="M316 1494C316 1479.09 328.088 1467 343 1467L749 1467C763.911 1467 776 1479.09 776 1494L776 1602C776 1616.91 763.911 1629 749 1629L343 1629C328.088 1629 316 1616.91 316 1602Z" fill="#0D0953" fill-rule="evenodd"/><text fill="#FFFFFF" font-family="Arial,Arial_MSFontService,sans-serif" font-weight="700" font-size="64" transform="matrix(1 0 0 1 350.354 1571)">Environment</text><path d="M1706 1467 2154.07 1467 2193 1548 2154.07 1629 1706 1629 1744.93 1548Z" fill="#0D0953" fill-rule="evenodd"/><text fill="#FFFFFF" font-family="Arial,Arial_MSFontService,sans-serif" font-weight="700" font-size="64" transform="matrix(1 0 0 1 1793.33 1571)">Outcomes</text><path d="M582.5 958.834C582.5 939.32 598.32 923.5 617.834 923.5L923.166 923.5C942.68 923.5 958.5 939.32 958.5 958.834L958.5 1100.17C958.5 1119.68 942.68 1135.5 923.166 1135.5L617.834 1135.5C598.32 1135.5 582.5 1119.68 582.5 1100.17Z" stroke="#000000" stroke-width="6.875" stroke-miterlimit="8" fill="#F2F2F2" fill-rule="evenodd"/><text font-family="Arial,Arial_MSFontService,sans-serif" font-weight="400" font-size="46" transform="matrix(1 0 0 1 621.328 1046)">Industry rivalry</text><path d="M997.5 958.834C997.5 939.32 1013.32 923.5 1032.83 923.5L1324.17 923.5C1343.68 923.5 1359.5 939.32 1359.5 958.834L1359.5 1100.17C1359.5 1119.68 1343.68 1135.5 1324.17 1135.5L1032.83 1135.5C1013.32 1135.5 997.5 1119.68 997.5 1100.17Z" stroke="#000000" stroke-width="6.875" stroke-miterlimit="8" fill="#F2F2F2" fill-rule="evenodd"/><text font-family="Arial,Arial_MSFontService,sans-serif" font-weight="400" font-size="46" transform="matrix(1 0 0 1 1086.8 1019)">Threat of </text><text font-family="Arial,Arial_MSFontService,sans-serif" font-weight="400" font-size="46" transform="matrix(1 0 0 1 1069.04 1074)">substitutes</text><path d="M590.5 1213.67C590.5 1194.24 606.245 1178.5 625.668 1178.5L916.333 1178.5C935.755 1178.5 951.5 1194.24 951.5 1213.67L951.5 1354.33C951.5 1373.75 935.755 1389.5 916.333 1389.5L625.668 1389.5C606.245 1389.5 590.5 1373.75 590.5 1354.33Z" stroke="#000000" stroke-width="6.875" stroke-miterlimit="8" fill="#F2F2F2" fill-rule="evenodd"/><text font-family="Arial,Arial_MSFontService,sans-serif" font-weight="400" font-size="46" transform="matrix(1 0 0 1 661.468 1274)">Bargaining </text><text font-family="Arial,Arial_MSFontService,sans-serif" font-weight="400" font-size="46" transform="matrix(1 0 0 1 608.187 1329)">power of buyers</text><path d="M590.5 704.667C590.5 685.245 606.245 669.5 625.667 669.5L916.333 669.5C935.755 669.5 951.5 685.245 951.5 704.667L951.5 845.333C951.5 864.755 935.755 880.5 916.333 880.5L625.667 880.5C606.245 880.5 590.5 864.755 590.5 845.333Z" stroke="#000000" stroke-width="6.875" stroke-miterlimit="8" fill="#F2F2F2" fill-rule="evenodd"/><text font-family="Arial,Arial_MSFontService,sans-serif" font-weight="400" font-size="46" transform="matrix(1 0 0 1 661.468 737)">Bargaining </text><text font-family="Arial,Arial_MSFontService,sans-serif" font-weight="400" font-size="46" transform="matrix(1 0 0 1 682.941 792)">power of </text><text font-family="Arial,Arial_MSFontService,sans-serif" font-weight="400" font-size="46" transform="matrix(1 0 0 1 678.93 847)">suppliers</text><path d="M182.5 958.834C182.5 939.32 198.32 923.5 217.834 923.5L508.166 923.5C527.68 923.5 543.5 939.32 543.5 958.834L543.5 1100.17C543.5 1119.68 527.68 1135.5 508.166 1135.5L217.834 1135.5C198.32 1135.5 182.5 1119.68 182.5 1100.17Z" stroke="#000000" stroke-width="6.875" stroke-miterlimit="8" fill="#F2F2F2" fill-rule="evenodd"/><text font-family="Arial,Arial_MSFontService,sans-serif" font-weight="400" font-size="46" transform="matrix(1 0 0 1 222.889 1019)">Threat of new </text><text font-family="Arial,Arial_MSFontService,sans-serif" font-weight="400" font-size="46" transform="matrix(1 0 0 1 279.883 1074)">entrants</text><path d="M543 1027.85 559.751 1027.85 559.751 1030.15 543 1030.15ZM555.168 1015.25 582.668 1029 555.167 1042.75Z"/><path d="M769.176 1178.09 769.026 1157.92 771.317 1157.91 771.468 1178.07ZM756.456 1162.6 770 1135 783.955 1162.4Z"/><path d="M1.04247e-05-1.14583 16.7508-1.14568 16.7508 1.14599-1.04247e-05 1.14583ZM12.1676-13.7499 39.6675 0.000360892 12.1674 13.7501Z" transform="matrix(-1 0 0 1 997.668 1029)"/><path d="M1.1458-0.00862325 1.29561 19.8974-0.995989 19.9147-1.1458 0.00862325ZM13.8649 15.2193 0.322277 42.822-13.6343 15.4263Z" transform="matrix(-1 0 0 1 770.322 880)"/><path d="M843.222 910.25 870.722 924 843.222 937.75Z"/><path d="M-3.34057-13.75 24.1592 0.000360892-3.34099 13.75Z" fill="#203864" transform="matrix(-1 0 0 1 687.159 1135)"/><path d="M971.75 1059.48 958 1086.98 944.25 1059.48Z"/><path d="M568.251 995.5 582 968 595.751 995.5Z" fill="#203864"/><rect x="114" y="2501" width="241" height="211" fill="#595959"/><text fill="#FFFFFF" font-family="Arial,Arial_MSFontService,sans-serif" font-weight="400" font-size="46" transform="matrix(1 0 0 1 151.929 2597)">Winning </text><text fill="#FFFFFF" font-family="Arial,Arial_MSFontService,sans-serif" font-weight="400" font-size="46" transform="matrix(1 0 0 1 135.613 2652)">aspiration</text><rect x="364" y="2624" width="242" height="211" fill="#595959"/><text fill="#FFFFFF" font-family="Arial,Arial_MSFontService,sans-serif" font-weight="400" font-size="46" transform="matrix(1 0 0 1 392.736 2719)">Where to </text><text fill="#FFFFFF" font-family="Arial,Arial_MSFontService,sans-serif" font-weight="400" font-size="46" transform="matrix(1 0 0 1 443.427 2774)">play</text><rect x="615" y="2747" width="242" height="211" fill="#595959"/><text fill="#FFFFFF" font-family="Arial,Arial_MSFontService,sans-serif" font-weight="400" font-size="46" transform="matrix(1 0 0 1 665.041 2842)">How to</text><text fill="#FFFFFF" font-family="Arial,Arial_MSFontService,sans-serif" font-weight="400" font-size="46" transform="matrix(1 0 0 1 701.707 2897)">win</text><rect x="866" y="2870" width="242" height="211" fill="#595959"/><text fill="#FFFFFF" font-family="Arial,Arial_MSFontService,sans-serif" font-weight="400" font-size="46" transform="matrix(1 0 0 1 894.389 2965)">Required</text><text fill="#FFFFFF" font-family="Arial,Arial_MSFontService,sans-serif" font-weight="400" font-size="46" transform="matrix(1 0 0 1 874.039 3020)">capabilities</text><rect x="1117" y="2993" width="242" height="211" fill="#595959"/><text fill="#FFFFFF" font-family="Arial,Arial_MSFontService,sans-serif" font-weight="400" font-size="46" transform="matrix(1 0 0 1 1145.2 3088)">Required</text><text fill="#FFFFFF" font-family="Arial,Arial_MSFontService,sans-serif" font-weight="400" font-size="46" transform="matrix(1 0 0 1 1133.74 3143)">processes</text><path d="M377.036 2539.85 387.804 2540.2 398.433 2541.21 408.85 2542.88 419.02 2545.18 428.905 2548.09 438.47 2551.59 447.677 2555.66 456.491 2560.28 464.875 2565.43 472.791 2571.08 480.203 2577.23 487.076 2583.84 493.4 2590.94 496.058 2595.08 494.128 2596.32 491.52 2592.25 491.629 2592.39 485.394 2585.4 485.455 2585.46 478.645 2578.91 478.708 2578.97 471.36 2572.88 471.425 2572.93 463.575 2567.32 463.641 2567.36 455.325 2562.25 455.393 2562.29 446.647 2557.71 446.716 2557.74 437.578 2553.7 437.647 2553.73 428.153 2550.26 428.223 2550.28 418.408 2547.39 418.479 2547.41 408.38 2545.12 408.452 2545.14 398.106 2543.48 398.178 2543.49 387.622 2542.48 387.694 2542.49 376.964 2542.15ZM504.245 2584.46 507.375 2615.05 481.028 2599.2Z" fill="#385723"/><path d="M640.537 2655.85 651.291 2656.2 661.907 2657.22 672.31 2658.91 682.465 2661.23 692.335 2664.16 701.883 2667.69 711.073 2671.8 719.868 2676.46 728.231 2681.65 736.126 2687.35 743.515 2693.55 750.363 2700.22 756.66 2707.37 759.357 2711.62 757.422 2712.85 754.773 2708.67 754.881 2708.81 748.672 2701.76 748.733 2701.83 741.947 2695.22 742.01 2695.28 734.685 2689.14 734.75 2689.19 726.921 2683.53 726.988 2683.58 718.692 2678.43 718.76 2678.46 710.034 2673.84 710.103 2673.88 700.983 2669.8 701.053 2669.83 691.575 2666.33 691.646 2666.35 681.847 2663.43 681.919 2663.45 671.836 2661.15 671.908 2661.16 661.577 2659.49 661.65 2659.5 651.107 2658.48 651.181 2658.49 640.463 2658.15ZM767.614 2701.05 770.545 2731.66 744.302 2715.64Z" fill="#385723"/><path d="M899.037 2772.85 909.818 2773.2 920.46 2774.22 930.891 2775.9 941.072 2778.22 950.968 2781.15 960.542 2784.67 969.758 2788.77 978.578 2793.42 986.967 2798.6 994.887 2804.29 1002.3 2810.48 1009.17 2817.13 1015.49 2824.27 1018.21 2828.52 1016.27 2829.75 1013.61 2825.58 1013.72 2825.72 1007.49 2818.68 1007.55 2818.75 1000.74 2812.15 1000.8 2812.21 993.451 2806.08 993.516 2806.13 985.662 2800.48 985.728 2800.53 977.407 2795.39 977.475 2795.43 968.723 2790.81 968.792 2790.85 959.646 2786.78 959.715 2786.81 950.211 2783.31 950.282 2783.33 940.457 2780.42 940.528 2780.44 930.418 2778.14 930.49 2778.16 920.132 2776.49 920.205 2776.5 909.635 2775.48 909.708 2775.49 898.964 2775.15ZM1026.43 2817.93 1029.45 2848.53 1003.16 2832.58Z" fill="#385723"/><path d="M1137.04 2899.85 1147.8 2900.2 1158.43 2901.21 1168.85 2902.88 1179.02 2905.18 1188.91 2908.09 1198.47 2911.59 1207.68 2915.66 1216.49 2920.28 1224.87 2925.43 1232.79 2931.08 1240.2 2937.23 1247.08 2943.84 1253.4 2950.94 1256.06 2955.08 1254.13 2956.32 1251.52 2952.25 1251.63 2952.39 1245.39 2945.4 1245.45 2945.46 1238.65 2938.91 1238.71 2938.97 1231.36 2932.88 1231.43 2932.93 1223.57 2927.32 1223.64 2927.36 1215.33 2922.25 1215.39 2922.29 1206.65 2917.71 1206.72 2917.74 1197.58 2913.7 1197.65 2913.73 1188.15 2910.26 1188.22 2910.28 1178.41 2907.39 1178.48 2907.41 1168.38 2905.12 1168.45 2905.14 1158.11 2903.48 1158.18 2903.49 1147.62 2902.48 1147.69 2902.49 1136.96 2902.15ZM1264.24 2944.46 1267.38 2975.05 1241.03 2959.2Z" fill="#385723"/><path d="M352.463 2803.15 343.301 2802.85 343.375 2800.56 352.537 2800.85ZM336.378 2802.29 331.093 2801.77 327.213 2801.15 327.579 2798.89 331.423 2799.51 331.35 2799.5 336.599 2800ZM320.358 2800.02 311.422 2797.97 311.932 2795.74 320.868 2797.78ZM304.746 2796.05 300.665 2794.84 295.991 2793.11 296.786 2790.96 301.425 2792.67 301.354 2792.65 305.399 2793.85ZM289.515 2790.59 281.927 2787.2 281.103 2786.76 282.176 2784.74 282.966 2785.16 282.897 2785.12 290.45 2788.5ZM275.028 2783.55 273.132 2782.54 267.1 2778.8 268.309 2776.85 274.308 2780.57 274.24 2780.54 276.101 2781.52ZM261.355 2774.88 256.874 2771.65 254.023 2769.26 255.495 2767.5 258.315 2769.86 258.25 2769.81 262.697 2773.03ZM248.741 2764.73 242.637 2758.78 242.151 2758.23 243.871 2756.72 244.328 2757.24 244.267 2757.17 250.34 2763.08ZM237.607 2753.07 236.34 2751.63 233.643 2747.38 235.579 2746.15 238.227 2750.33 238.119 2750.19 239.327 2751.56ZM225.386 2757.95 222.455 2727.34 248.698 2743.36Z" fill="#385723"/><path d="M601.964 2925.15 592.802 2924.85 592.874 2922.56 602.036 2922.85ZM585.879 2924.29 580.567 2923.79 576.713 2923.17 577.075 2920.91 580.894 2921.52 580.822 2921.51 586.097 2922.01ZM569.856 2922.05 560.915 2920.03 561.42 2917.8 570.361 2919.82ZM554.234 2918.13 550.095 2916.91 545.469 2915.22 546.257 2913.06 550.847 2914.74 550.777 2914.72 554.881 2915.93ZM538.984 2912.73 531.323 2909.34 530.555 2908.94 531.619 2906.91 532.353 2907.29 532.284 2907.26 539.91 2910.63ZM524.466 2905.75 522.509 2904.72 516.514 2901.04 517.713 2899.09 523.675 2902.75 523.607 2902.71 525.529 2903.72ZM510.747 2897.16 506.209 2893.92 503.382 2891.57 504.845 2889.81 507.64 2892.12 507.575 2892.07 512.079 2895.29ZM498.074 2887.08 491.924 2881.16 491.445 2880.62 493.156 2879.09 493.606 2879.6 493.545 2879.54 499.663 2885.42ZM486.87 2875.49 485.6 2874.06 482.942 2869.92 484.872 2868.68 487.48 2872.75 487.371 2872.61 488.58 2873.96ZM474.755 2880.54 471.625 2849.95 497.972 2865.8Z" fill="#385723"/><path d="M853.463 3043.15 844.301 3042.85 844.375 3040.56 853.537 3040.85ZM837.378 3042.29 832.093 3041.77 828.213 3041.15 828.579 3038.88 832.423 3039.51 832.35 3039.5 837.599 3040ZM821.358 3040.02 812.422 3037.97 812.932 3035.74 821.868 3037.78ZM805.746 3036.05 801.665 3034.84 796.991 3033.11 797.786 3030.96 802.425 3032.67 802.354 3032.65 806.399 3033.85ZM790.515 3030.59 782.927 3027.2 782.103 3026.76 783.176 3024.74 783.966 3025.16 783.897 3025.12 791.45 3028.5ZM776.028 3023.55 774.132 3022.54 768.1 3018.8 769.309 3016.85 775.308 3020.57 775.24 3020.53 777.101 3021.52ZM762.355 3014.88 757.874 3011.65 755.023 3009.25 756.495 3007.5 759.315 3009.86 759.25 3009.81 763.697 3013.03ZM749.741 3004.73 743.637 2998.78 743.151 2998.23 744.871 2996.72 745.328 2997.24 745.267 2997.17 751.34 3003.08ZM738.607 2993.07 737.34 2991.63 734.643 2987.38 736.578 2986.15 739.227 2990.33 739.119 2990.19 740.327 2991.56ZM726.386 2997.95 723.455 2967.34 749.698 2983.36Z" fill="#385723"/><path d="M1096.96 3170.15 1087.8 3169.85 1087.87 3167.56 1097.04 3167.85ZM1080.88 3169.29 1075.57 3168.79 1071.71 3168.17 1072.08 3165.91 1075.89 3166.52 1075.82 3166.51 1081.1 3167.01ZM1064.86 3167.05 1055.91 3165.03 1056.42 3162.8 1065.36 3164.82ZM1049.23 3163.13 1045.09 3161.91 1040.47 3160.22 1041.26 3158.06 1045.85 3159.74 1045.78 3159.72 1049.88 3160.93ZM1033.98 3157.73 1026.32 3154.34 1025.55 3153.94 1026.62 3151.91 1027.35 3152.29 1027.28 3152.26 1034.91 3155.63ZM1019.47 3150.75 1017.51 3149.72 1011.51 3146.04 1012.71 3144.09 1018.67 3147.75 1018.61 3147.71 1020.53 3148.72ZM1005.75 3142.16 1001.21 3138.92 998.382 3136.57 999.845 3134.81 1002.64 3137.12 1002.57 3137.07 1007.08 3140.29ZM993.074 3132.08 986.924 3126.16 986.445 3125.62 988.155 3124.09 988.606 3124.6 988.545 3124.54 994.663 3130.42ZM981.87 3120.49 980.6 3119.06 977.942 3114.92 979.872 3113.68 982.48 3117.75 982.371 3117.61 983.58 3118.96ZM969.755 3125.54 966.625 3094.95 992.972 3110.8Z" fill="#385723"/><text font-family="Arial,Arial_MSFontService,sans-serif" font-weight="700" font-size="50" transform="matrix(1 0 0 1 331.253 1722)">Socioeconomic </text><text font-family="Arial,Arial_MSFontService,sans-serif" font-weight="700" font-size="50" transform="matrix(1 0 0 1 331.253 1783)">conditions</text><text font-family="Arial,Arial_MSFontService,sans-serif" font-weight="400" font-size="50" transform="matrix(1 0 0 1 331.253 1843)">•</text><text font-family="Arial,Arial_MSFontService,sans-serif" font-weight="400" font-size="50" transform="matrix(1 0 0 1 372.045 1843)">4 sub</text><text font-family="Arial,Arial_MSFontService,sans-serif" font-weight="400" font-size="50" transform="matrix(1 0 0 1 495.222 1843)">-</text><text font-family="Arial,Arial_MSFontService,sans-serif" font-weight="400" font-size="50" transform="matrix(1 0 0 1 511.836 1843)">topics</text><text font-family="Arial,Arial_MSFontService,sans-serif" font-weight="700" font-size="50" transform="matrix(1 0 0 1 331.253 1937)">Government </text><text font-family="Arial,Arial_MSFontService,sans-serif" font-weight="700" font-size="50" transform="matrix(1 0 0 1 331.253 1997)">policies</text><text font-family="Arial,Arial_MSFontService,sans-serif" font-weight="400" font-size="50" transform="matrix(1 0 0 1 331.253 2058)">•</text><text font-family="Arial,Arial_MSFontService,sans-serif" font-weight="400" font-size="50" transform="matrix(1 0 0 1 372.045 2058)">8 sub</text><text font-family="Arial,Arial_MSFontService,sans-serif" font-weight="400" font-size="50" transform="matrix(1 0 0 1 495.222 2058)">-</text><text font-family="Arial,Arial_MSFontService,sans-serif" font-weight="400" font-size="50" transform="matrix(1 0 0 1 511.836 2058)">topics</text><text font-family="Arial,Arial_MSFontService,sans-serif" font-weight="700" font-size="50" transform="matrix(1 0 0 1 331.253 2151)">Infrastructure</text><text font-family="Arial,Arial_MSFontService,sans-serif" font-weight="400" font-size="50" transform="matrix(1 0 0 1 331.253 2212)">•</text><text font-family="Arial,Arial_MSFontService,sans-serif" font-weight="400" font-size="50" transform="matrix(1 0 0 1 372.045 2212)">3 sub</text><text font-family="Arial,Arial_MSFontService,sans-serif" font-weight="400" font-size="50" transform="matrix(1 0 0 1 495.222 2212)">-</text><text font-family="Arial,Arial_MSFontService,sans-serif" font-weight="400" font-size="50" transform="matrix(1 0 0 1 511.836 2212)">topics</text><text font-family="Arial,Arial_MSFontService,sans-serif" font-weight="700" font-size="50" transform="matrix(1 0 0 1 331.253 2305)">Risk</text><text font-family="Arial,Arial_MSFontService,sans-serif" font-weight="400" font-size="50" transform="matrix(1 0 0 1 331.253 2366)">•</text><text font-family="Arial,Arial_MSFontService,sans-serif" font-weight="400" font-size="50" transform="matrix(1 0 0 1 372.045 2366)">3 sub</text><text font-family="Arial,Arial_MSFontService,sans-serif" font-weight="400" font-size="50" transform="matrix(1 0 0 1 495.222 2366)">-</text><text font-family="Arial,Arial_MSFontService,sans-serif" font-weight="400" font-size="50" transform="matrix(1 0 0 1 511.836 2366)">topics</text><text font-family="Arial,Arial_MSFontService,sans-serif" font-weight="700" font-size="50" transform="matrix(1 0 0 1 801.034 1722)">Market demand</text><text font-family="Arial,Arial_MSFontService,sans-serif" font-weight="400" font-size="50" transform="matrix(1 0 0 1 801.034 1783)">•</text><text font-family="Arial,Arial_MSFontService,sans-serif" font-weight="400" font-size="50" transform="matrix(1 0 0 1 841.826 1783)">4 sub</text><text font-family="Arial,Arial_MSFontService,sans-serif" font-weight="400" font-size="50" transform="matrix(1 0 0 1 965.003 1783)">-</text><text font-family="Arial,Arial_MSFontService,sans-serif" font-weight="400" font-size="50" transform="matrix(1 0 0 1 981.617 1783)">topics</text><text font-family="Arial,Arial_MSFontService,sans-serif" font-weight="700" font-size="50" transform="matrix(1 0 0 1 801.034 1876)">Industry supply</text><text font-family="Arial,Arial_MSFontService,sans-serif" font-weight="400" font-size="50" transform="matrix(1 0 0 1 801.034 1937)">•</text><text font-family="Arial,Arial_MSFontService,sans-serif" font-weight="400" font-size="50" transform="matrix(1 0 0 1 841.826 1937)">6 sub</text><text font-family="Arial,Arial_MSFontService,sans-serif" font-weight="400" font-size="50" transform="matrix(1 0 0 1 965.003 1937)">-</text><text font-family="Arial,Arial_MSFontService,sans-serif" font-weight="400" font-size="50" transform="matrix(1 0 0 1 981.617 1937)">topics</text><text font-family="Arial,Arial_MSFontService,sans-serif" font-weight="700" font-size="50" transform="matrix(1 0 0 1 801.034 2030)">Value chain </text><text font-family="Arial,Arial_MSFontService,sans-serif" font-weight="700" font-size="50" transform="matrix(1 0 0 1 801.034 2091)">economics</text><text font-family="Arial,Arial_MSFontService,sans-serif" font-weight="400" font-size="50" transform="matrix(1 0 0 1 801.034 2151)">•</text><text font-family="Arial,Arial_MSFontService,sans-serif" font-weight="400" font-size="50" transform="matrix(1 0 0 1 841.826 2151)">4 sub</text><text font-family="Arial,Arial_MSFontService,sans-serif" font-weight="400" font-size="50" transform="matrix(1 0 0 1 965.003 2151)">-</text><text font-family="Arial,Arial_MSFontService,sans-serif" font-weight="400" font-size="50" transform="matrix(1 0 0 1 981.617 2151)">topics</text><text font-family="Arial,Arial_MSFontService,sans-serif" font-weight="700" font-size="50" transform="matrix(1 0 0 1 801.034 2245)">Company position</text><text font-family="Arial,Arial_MSFontService,sans-serif" font-weight="400" font-size="50" transform="matrix(1 0 0 1 801.034 2305)">•</text><text font-family="Arial,Arial_MSFontService,sans-serif" font-weight="400" font-size="50" transform="matrix(1 0 0 1 841.826 2305)">2 sub</text><text font-family="Arial,Arial_MSFontService,sans-serif" font-weight="400" font-size="50" transform="matrix(1 0 0 1 965.003 2305)">-</text><text font-family="Arial,Arial_MSFontService,sans-serif" font-weight="400" font-size="50" transform="matrix(1 0 0 1 981.617 2305)">topics</text><text font-family="Arial,Arial_MSFontService,sans-serif" font-weight="700" font-size="50" transform="matrix(1 0 0 1 1237.5 1722)">Strategic priorities</text><text font-family="Arial,Arial_MSFontService,sans-serif" font-weight="400" font-size="50" transform="matrix(1 0 0 1 1237.5 1783)">•</text><text font-family="Arial,Arial_MSFontService,sans-serif" font-weight="400" font-size="50" transform="matrix(1 0 0 1 1278.29 1783)">3 sub</text><text font-family="Arial,Arial_MSFontService,sans-serif" font-weight="400" font-size="50" transform="matrix(1 0 0 1 1401.47 1783)">-</text><text font-family="Arial,Arial_MSFontService,sans-serif" font-weight="400" font-size="50" transform="matrix(1 0 0 1 1418.08 1783)">topics</text><text font-family="Arial,Arial_MSFontService,sans-serif" font-weight="700" font-size="50" transform="matrix(1 0 0 1 1237.5 1876)">Commercial </text><text font-family="Arial,Arial_MSFontService,sans-serif" font-weight="700" font-size="50" transform="matrix(1 0 0 1 1237.5 1937)">activities</text><text font-family="Arial,Arial_MSFontService,sans-serif" font-weight="400" font-size="50" transform="matrix(1 0 0 1 1237.5 1997)">•</text><text font-family="Arial,Arial_MSFontService,sans-serif" font-weight="400" font-size="50" transform="matrix(1 0 0 1 1278.29 1997)">5 sub</text><text font-family="Arial,Arial_MSFontService,sans-serif" font-weight="400" font-size="50" transform="matrix(1 0 0 1 1401.47 1997)">-</text><text font-family="Arial,Arial_MSFontService,sans-serif" font-weight="400" font-size="50" transform="matrix(1 0 0 1 1418.08 1997)">topics</text><text font-family="Arial,Arial_MSFontService,sans-serif" font-weight="700" font-size="50" transform="matrix(1 0 0 1 1237.5 2091)">Supply chain </text><text font-family="Arial,Arial_MSFontService,sans-serif" font-weight="700" font-size="50" transform="matrix(1 0 0 1 1237.5 2151)">activities</text><text font-family="Arial,Arial_MSFontService,sans-serif" font-weight="400" font-size="50" transform="matrix(1 0 0 1 1237.5 2212)">•</text><text font-family="Arial,Arial_MSFontService,sans-serif" font-weight="400" font-size="50" transform="matrix(1 0 0 1 1278.29 2212)">3 sub</text><text font-family="Arial,Arial_MSFontService,sans-serif" font-weight="400" font-size="50" transform="matrix(1 0 0 1 1401.47 2212)">-</text><text font-family="Arial,Arial_MSFontService,sans-serif" font-weight="400" font-size="50" transform="matrix(1 0 0 1 1418.08 2212)">topics</text><text font-family="Arial,Arial_MSFontService,sans-serif" font-weight="700" font-size="50" transform="matrix(1 0 0 1 1237.5 2305)">Finance</text><text font-family="Arial,Arial_MSFontService,sans-serif" font-weight="400" font-size="50" transform="matrix(1 0 0 1 1237.5 2366)">•</text><text font-family="Arial,Arial_MSFontService,sans-serif" font-weight="400" font-size="50" transform="matrix(1 0 0 1 1278.29 2366)">1 sub</text><text font-family="Arial,Arial_MSFontService,sans-serif" font-weight="400" font-size="50" transform="matrix(1 0 0 1 1401.47 2366)">-</text><text font-family="Arial,Arial_MSFontService,sans-serif" font-weight="400" font-size="50" transform="matrix(1 0 0 1 1418.08 2366)">topic</text><text font-family="Arial,Arial_MSFontService,sans-serif" font-weight="700" font-size="50" transform="matrix(1 0 0 1 1237.5 2459)">Competencies</text><text font-family="Arial,Arial_MSFontService,sans-serif" font-weight="400" font-size="50" transform="matrix(1 0 0 1 1237.5 2520)">•</text><text font-family="Arial,Arial_MSFontService,sans-serif" font-weight="400" font-size="50" transform="matrix(1 0 0 1 1278.29 2520)">2 sub</text><text font-family="Arial,Arial_MSFontService,sans-serif" font-weight="400" font-size="50" transform="matrix(1 0 0 1 1401.47 2520)">-</text><text font-family="Arial,Arial_MSFontService,sans-serif" font-weight="400" font-size="50" transform="matrix(1 0 0 1 1418.08 2520)">topics</text><text font-family="Arial,Arial_MSFontService,sans-serif" font-weight="700" font-size="50" transform="matrix(1 0 0 1 1706.41 1722)">Market performance</text><text font-family="Arial,Arial_MSFontService,sans-serif" font-weight="400" font-size="50" transform="matrix(1 0 0 1 1706.41 1783)">•</text><text font-family="Arial,Arial_MSFontService,sans-serif" font-weight="400" font-size="50" transform="matrix(1 0 0 1 1747.2 1783)">4 sub</text><text font-family="Arial,Arial_MSFontService,sans-serif" font-weight="400" font-size="50" transform="matrix(1 0 0 1 1870.38 1783)">-</text><text font-family="Arial,Arial_MSFontService,sans-serif" font-weight="400" font-size="50" transform="matrix(1 0 0 1 1886.99 1783)">topics</text><text font-family="Arial,Arial_MSFontService,sans-serif" font-weight="700" font-size="50" transform="matrix(1 0 0 1 1706.41 1876)">Player performance</text><text font-family="Arial,Arial_MSFontService,sans-serif" font-weight="400" font-size="50" transform="matrix(1 0 0 1 1706.41 1937)">•</text><text font-family="Arial,Arial_MSFontService,sans-serif" font-weight="400" font-size="50" transform="matrix(1 0 0 1 1747.2 1937)">6 sub</text><text font-family="Arial,Arial_MSFontService,sans-serif" font-weight="400" font-size="50" transform="matrix(1 0 0 1 1870.38 1937)">-</text><text font-family="Arial,Arial_MSFontService,sans-serif" font-weight="400" font-size="50" transform="matrix(1 0 0 1 1886.99 1937)">topics</text><text font-family="Arial,Arial_MSFontService,sans-serif" font-weight="700" font-size="55" transform="matrix(1 0 0 1 110.039 2980)">MARTIN’S</text><text font-family="Arial,Arial_MSFontService,sans-serif" font-weight="700" font-size="55" transform="matrix(1 0 0 1 110.039 3046)">CASCADE OF CHOICES</text><text font-family="Arial,Arial_MSFontService,sans-serif" font-weight="700" font-size="55" transform="matrix(-1.83697e-16 -1 1 -1.83697e-16 223.974 2268)">TELLUSANT’S EMIO</text><text font-family="Arial,Arial_MSFontService,sans-serif" font-weight="700" font-size="55" transform="matrix(1 0 0 1 1088.35 748)">PORTER’S 5 FORCES / VALUE CHAIN</text><text font-family="Arial,Arial_MSFontService,sans-serif" font-weight="700" font-size="55" transform="matrix(1 0 0 1 1841.96 2443)">BAIN’S SCP</text><text font-family="Arial,Arial_MSFontService,sans-serif" font-weight="700" font-size="55" transform="matrix(1 0 0 1 1803.85 2509)">(</text><text font-family="Arial,Arial_MSFontService,sans-serif" font-weight="400" font-size="55" transform="matrix(1 0 0 1 1822.18 2509)">not Bain &amp; Co.)</text><text font-family="Arial,Arial_MSFontService,sans-serif" font-weight="700" font-size="55" transform="matrix(1 0 0 1 1652.01 2628)">WERNERFELT’S RBV</text><text font-family="Arial,Arial_MSFontService,sans-serif" font-weight="700" font-size="37" transform="matrix(1 0 0 1 2213.4 2611)">*</text><path d="M1830.5 2060.55 2004 2040.5 2177.5 2060.55 2177.5 2060.55 2177.5 2147.5 1830.5 2147.5 1830.5 2060.55Z" stroke="#7F7F7F" stroke-width="9.16667" stroke-miterlimit="8" fill="#D9D9D9" fill-rule="evenodd"/><text font-family="Arial,Arial_MSFontService,sans-serif" font-weight="400" font-size="46" transform="matrix(1 0 0 1 1872.56 2121)">Performance</text><path d="M1830.5 2169.55 2004 2149.5 2177.5 2169.55 2177.5 2169.55 2177.5 2256.5 1830.5 2256.5 1830.5 2169.55Z" stroke="#7F7F7F" stroke-width="9.16667" stroke-miterlimit="8" fill="#D9D9D9" fill-rule="evenodd"/><text font-family="Arial,Arial_MSFontService,sans-serif" font-weight="400" font-size="46" transform="matrix(1 0 0 1 1918.39 2230)">Conduct</text><path d="M1830.5 2279.55 2004 2259.5 2177.5 2279.55 2177.5 2279.55 2177.5 2366.5 1830.5 2366.5 1830.5 2279.55Z" stroke="#7F7F7F" stroke-width="9.16667" stroke-miterlimit="8" fill="#D9D9D9" fill-rule="evenodd"/><text font-family="Arial,Arial_MSFontService,sans-serif" font-weight="400" font-size="46" transform="matrix(1 0 0 1 1910.66 2340)">Structure</text><text font-family="Arial,Arial_MSFontService,sans-serif" font-weight="400" font-size="28" transform="matrix(1 0 0 1 117.328 3149)">*</text><text font-family="Arial,Arial_MSFontService,sans-serif" font-weight="400" font-size="41" transform="matrix(1 0 0 1 128.214 3161)">Resource</text><text font-family="Arial,Arial_MSFontService,sans-serif" font-weight="400" font-size="41" transform="matrix(1 0 0 1 304.672 3161)">-</text><text font-family="Arial,Arial_MSFontService,sans-serif" font-weight="400" font-size="41" transform="matrix(1 0 0 1 318.422 3161)">based View</text><text font-family="Arial,Arial_MSFontService,sans-serif" font-weight="400" font-size="41" transform="matrix(1 0 0 1 117.328 3211)">Source: Tellusant synthesis</text><rect x="1524" y="2765" width="231" height="99" fill="#7F7F7F"/><text fill="#FFFFFF" font-family="Arial,Arial_MSFontService,sans-serif" font-weight="400" font-size="46" transform="matrix(1 0 0 1 1551.73 2827)">Tangible</text><rect x="2116" y="2765" width="231" height="99" fill="#7F7F7F"/><text fill="#FFFFFF" font-family="Arial,Arial_MSFontService,sans-serif" font-weight="400" font-size="46" transform="matrix(1 0 0 1 2133.31 2827)">Intangible</text><path d="M0.684975-1.57636 111.43 46.5458 110.06 49.6986-0.684975 1.57636ZM112.022 33.6847 131.764 57.2552 101.062 58.9065Z" transform="matrix(-1 0 0 1 1771.26 2708.5)"/><path d="M2102.19 2706.93 2212.18 2755 2210.8 2758.15 2100.81 2710.07ZM2212.8 2742.14 2232.49 2765.76 2201.78 2767.34Z"/><path d="M1751 2932 2119.93 2938" fill="#FBE5D6" fill-rule="evenodd"/><rect x="1524" y="2883" width="231" height="99" fill="#7F7F7F"/><text fill="#FFFFFF" font-family="Arial,Arial_MSFontService,sans-serif" font-weight="400" font-size="46" transform="matrix(1 0 0 1 1562.9 2922)">Hetero</text><text fill="#FFFFFF" font-family="Arial,Arial_MSFontService,sans-serif" font-weight="400" font-size="46" transform="matrix(1 0 0 1 1699.83 2922)">-</text><text fill="#FFFFFF" font-family="Arial,Arial_MSFontService,sans-serif" font-weight="400" font-size="46" transform="matrix(1 0 0 1 1552.02 2966)">geneous</text><rect x="2116" y="2889" width="231" height="99" fill="#7F7F7F"/><text fill="#FFFFFF" font-family="Arial,Arial_MSFontService,sans-serif" font-weight="400" font-size="46" transform="matrix(1 0 0 1 2139.04 2950)">Immobile</text><rect x="1771" y="2988" width="330" height="99" fill="#7F7F7F"/><text fill="#FFFFFF" font-family="Arial,Arial_MSFontService,sans-serif" font-weight="400" font-size="46" transform="matrix(1 0 0 1 1790.06 3049)">Competencies</text><rect x="1672" y="3127" width="528" height="99" fill="#7F7F7F"/><text fill="#FFFFFF" font-family="Arial,Arial_MSFontService,sans-serif" font-weight="400" font-size="46" transform="matrix(1 0 0 1 1702.97 3188)">Competitive advantage</text><path d="M1937.22 3087.5 1937.22 3104.77 1933.78 3104.77 1933.78 3087.5ZM1949.25 3100.19 1935.5 3127.69 1921.75 3100.19Z"/><rect x="1771" y="2658" width="330" height="99" fill="#7F7F7F"/><text fill="#FFFFFF" font-family="Arial,Arial_MSFontService,sans-serif" font-weight="400" font-size="46" transform="matrix(1 0 0 1 1820.42 2725)">Companies</text><rect x="1762" y="2771" width="347" height="90" fill="#FFFFFF"/><text font-family="Arial,Arial_MSFontService,sans-serif" font-style="italic" font-weight="400" font-size="46" transform="matrix(1 0 0 1 1856.23 2805)">build on </text><text font-family="Arial,Arial_MSFontService,sans-serif" font-style="italic" font-weight="400" font-size="46" transform="matrix(1 0 0 1 1835.6 2849)">resources</text><rect x="1794" y="2905" width="284" height="55" fill="#FFFFFF"/><text font-family="Arial,Arial_MSFontService,sans-serif" font-style="italic" font-weight="400" font-size="46" transform="matrix(1 0 0 1 1810.68 2950)">that must be</text><path d="M1640.17 2980.92 1750.82 3027.59 1749.48 3030.76 1638.83 2984.08ZM1751.27 3014.73 1771.26 3038.08 1740.58 3040.06Z"/><path d="M0.608509-1.60743 110.163 39.8657 108.946 43.0806-0.608509 1.60743ZM110.136 26.9911 130.987 49.5866 100.4 52.7099Z" transform="matrix(-1 0 0 1 2232.49 2988.5)"/><path d="M970 1188.5C970 1172.21 982.536 1159 998 1159 1013.46 1159 1026 1172.21 1026 1188.5 1026 1204.79 1013.46 1218 998 1218 982.536 1218 970 1204.79 970 1188.5Z" fill="#C00000" fill-rule="evenodd"/><text fill="#FFFFFF" font-family="Arial,Arial_MSFontService,sans-serif" font-weight="700" font-size="46" transform="matrix(1 0 0 1 981.325 1206)">A</text><path d="M816 1621.5C816 1605.21 828.312 1592 843.5 1592 858.688 1592 871 1605.21 871 1621.5 871 1637.79 858.688 1651 843.5 1651 828.312 1651 816 1637.79 816 1621.5Z" fill="#C00000" fill-rule="evenodd"/><text fill="#FFFFFF" font-family="Arial,Arial_MSFontService,sans-serif" font-weight="700" font-size="46" transform="matrix(1 0 0 1 826.596 1639)">A</text><path d="M1692 1353.5C1692 1337.21 1704.31 1324 1719.5 1324 1734.69 1324 1747 1337.21 1747 1353.5 1747 1369.79 1734.69 1383 1719.5 1383 1704.31 1383 1692 1369.79 1692 1353.5Z" fill="#C00000" fill-rule="evenodd"/><text fill="#FFFFFF" font-family="Arial,Arial_MSFontService,sans-serif" font-weight="700" font-size="46" transform="matrix(1 0 0 1 1702.96 1371)">B</text><path d="M887 1621.5C887 1605.21 899.536 1592 915 1592 930.464 1592 943 1605.21 943 1621.5 943 1637.79 930.464 1651 915 1651 899.536 1651 887 1637.79 887 1621.5Z" fill="#C00000" fill-rule="evenodd"/><text fill="#FFFFFF" font-family="Arial,Arial_MSFontService,sans-serif" font-weight="700" font-size="46" transform="matrix(1 0 0 1 898.449 1639)">B</text><path d="M2023 1355.5C2023 1339.21 2035.31 1326 2050.5 1326 2065.69 1326 2078 1339.21 2078 1355.5 2078 1371.79 2065.69 1385 2050.5 1385 2035.31 1385 2023 1371.79 2023 1355.5Z" fill="#C00000" fill-rule="evenodd"/><text fill="#FFFFFF" font-family="Arial,Arial_MSFontService,sans-serif" font-weight="700" font-size="46" transform="matrix(1 0 0 1 2033.54 1373)">C</text><path d="M2050 1923C2050 1906.43 2062.31 1893 2077.5 1893 2092.69 1893 2105 1906.43 2105 1923 2105 1939.57 2092.69 1953 2077.5 1953 2062.31 1953 2050 1939.57 2050 1923Z" fill="#C00000" fill-rule="evenodd"/><text fill="#FFFFFF" font-family="Arial,Arial_MSFontService,sans-serif" font-weight="700" font-size="46" transform="matrix(1 0 0 1 2060.63 1941)">C</text><path d="M203 2448.5C203 2432.21 215.312 2419 230.5 2419 245.688 2419 258 2432.21 258 2448.5 258 2464.79 245.688 2478 230.5 2478 215.312 2478 203 2464.79 203 2448.5Z" fill="#C00000" fill-rule="evenodd"/><text fill="#FFFFFF" font-family="Arial,Arial_MSFontService,sans-serif" font-weight="700" font-size="46" transform="matrix(1 0 0 1 213.964 2466)">D</text><path d="M470 2523.5C470 2507.21 482.312 2494 497.5 2494 512.688 2494 525 2507.21 525 2523.5 525 2539.79 512.688 2553 497.5 2553 482.312 2553 470 2539.79 470 2523.5Z" fill="#C00000" fill-rule="evenodd"/><text fill="#FFFFFF" font-family="Arial,Arial_MSFontService,sans-serif" font-weight="700" font-size="46" transform="matrix(1 0 0 1 482.258 2541)">E</text><path d="M959 1621.5C959 1605.21 971.312 1592 986.5 1592 1001.69 1592 1014 1605.21 1014 1621.5 1014 1637.79 1001.69 1651 986.5 1651 971.312 1651 959 1637.79 959 1621.5Z" fill="#C00000" fill-rule="evenodd"/><text fill="#FFFFFF" font-family="Arial,Arial_MSFontService,sans-serif" font-weight="700" font-size="46" transform="matrix(1 0 0 1 971.734 1639)">E</text><path d="M702 2614.5C702 2598.21 714.536 2585 730 2585 745.464 2585 758 2598.21 758 2614.5 758 2630.79 745.464 2644 730 2644 714.536 2644 702 2630.79 702 2614.5Z" fill="#C00000" fill-rule="evenodd"/><text fill="#FFFFFF" font-family="Arial,Arial_MSFontService,sans-serif" font-weight="700" font-size="46" transform="matrix(1 0 0 1 716.024 2632)">F</text><path d="M1281 1621.5C1281 1605.21 1293.31 1592 1308.5 1592 1323.69 1592 1336 1605.21 1336 1621.5 1336 1637.79 1323.69 1651 1308.5 1651 1293.31 1651 1281 1637.79 1281 1621.5Z" fill="#C00000" fill-rule="evenodd"/><text fill="#FFFFFF" font-family="Arial,Arial_MSFontService,sans-serif" font-weight="700" font-size="46" transform="matrix(1 0 0 1 1294.06 1639)">F</text><path d="M966 2739.5C966 2723.21 978.312 2710 993.5 2710 1008.69 2710 1021 2723.21 1021 2739.5 1021 2755.79 1008.69 2769 993.5 2769 978.312 2769 966 2755.79 966 2739.5Z" fill="#C00000" fill-rule="evenodd"/><text fill="#FFFFFF" font-family="Arial,Arial_MSFontService,sans-serif" font-weight="400" font-size="46" transform="matrix(1 0 0 1 975.322 2757)">G</text><path d="M1270 2561C1270 2544.43 1282.31 2531 1297.5 2531 1312.69 2531 1325 2544.43 1325 2561 1325 2577.57 1312.69 2591 1297.5 2591 1282.31 2591 1270 2577.57 1270 2561Z" fill="#C00000" fill-rule="evenodd"/><text fill="#FFFFFF" font-family="Arial,Arial_MSFontService,sans-serif" font-weight="700" font-size="46" transform="matrix(1 0 0 1 1279.46 2578)">G</text><path d="M1229 2882.5C1229 2866.21 1241.31 2853 1256.5 2853 1271.69 2853 1284 2866.21 1284 2882.5 1284 2898.79 1271.69 2912 1256.5 2912 1241.31 2912 1229 2898.79 1229 2882.5Z" fill="#C00000" fill-rule="evenodd"/><text fill="#FFFFFF" font-family="Arial,Arial_MSFontService,sans-serif" font-weight="400" font-size="46" transform="matrix(1 0 0 1 1240.05 2900)">H</text><path d="M1467 2134.5C1467 2118.21 1479.31 2105 1494.5 2105 1509.69 2105 1522 2118.21 1522 2134.5 1522 2150.79 1509.69 2164 1494.5 2164 1479.31 2164 1467 2150.79 1467 2134.5Z" fill="#C00000" fill-rule="evenodd"/><text fill="#FFFFFF" font-family="Arial,Arial_MSFontService,sans-serif" font-weight="400" font-size="46" transform="matrix(1 0 0 1 1478.05 2152)">H</text><path d="M1463 1918.5C1463 1902.21 1475.31 1889 1490.5 1889 1505.69 1889 1518 1902.21 1518 1918.5 1518 1934.79 1505.69 1948 1490.5 1948 1475.31 1948 1463 1934.79 1463 1918.5Z" fill="#C00000" fill-rule="evenodd"/><text fill="#FFFFFF" font-family="Arial,Arial_MSFontService,sans-serif" font-weight="400" font-size="46" transform="matrix(1 0 0 1 1473.8 1936)">H</text><path d="M1031 1621.5C1031 1605.21 1043.31 1592 1058.5 1592 1073.69 1592 1086 1605.21 1086 1621.5 1086 1637.79 1073.69 1651 1058.5 1651 1043.31 1651 1031 1637.79 1031 1621.5Z" fill="#C00000" fill-rule="evenodd"/><text fill="#FFFFFF" font-family="Arial,Arial_MSFontService,sans-serif" font-weight="400" font-size="46" transform="matrix(1 0 0 1 1052.47 1639)">I</text><path d="M367 1621.5C367 1605.21 379.312 1592 394.5 1592 409.688 1592 422 1605.21 422 1621.5 422 1637.79 409.688 1651 394.5 1651 379.312 1651 367 1637.79 367 1621.5Z" fill="#C00000" fill-rule="evenodd"/><text fill="#FFFFFF" font-family="Arial,Arial_MSFontService,sans-serif" font-weight="400" font-size="46" transform="matrix(1 0 0 1 387.989 1639)">I</text><path d="M2194 2319.5C2194 2303.21 2206.54 2290 2222 2290 2237.46 2290 2250 2303.21 2250 2319.5 2250 2335.79 2237.46 2349 2222 2349 2206.54 2349 2194 2335.79 2194 2319.5Z" fill="#C00000" fill-rule="evenodd"/><text fill="#FFFFFF" font-family="Arial,Arial_MSFontService,sans-serif" font-weight="400" font-size="46" transform="matrix(1 0 0 1 2215.65 2337)">I</text><path d="M1103 1621.5C1103 1605.21 1115.31 1592 1130.5 1592 1145.69 1592 1158 1605.21 1158 1621.5 1158 1637.79 1145.69 1651 1130.5 1651 1115.31 1651 1103 1637.79 1103 1621.5Z" fill="#C00000" fill-rule="evenodd"/><text fill="#FFFFFF" font-family="Arial,Arial_MSFontService,sans-serif" font-weight="400" font-size="46" transform="matrix(1 0 0 1 1119.16 1639)">J</text><path d="M2194 2213.5C2194 2197.21 2206.54 2184 2222 2184 2237.46 2184 2250 2197.21 2250 2213.5 2250 2229.79 2237.46 2243 2222 2243 2206.54 2243 2194 2229.79 2194 2213.5Z" fill="#C00000" fill-rule="evenodd"/><text fill="#FFFFFF" font-family="Arial,Arial_MSFontService,sans-serif" font-weight="400" font-size="46" transform="matrix(1 0 0 1 2210.49 2231)">J</text><path d="M2194 2103C2194 2086.43 2206.54 2073 2222 2073 2237.46 2073 2250 2086.43 2250 2103 2250 2119.57 2237.46 2133 2222 2133 2206.54 2133 2194 2119.57 2194 2103Z" fill="#C00000" fill-rule="evenodd"/><text fill="#FFFFFF" font-family="Arial,Arial_MSFontService,sans-serif" font-weight="400" font-size="46" transform="matrix(1 0 0 1 2206.77 2120)">K</text><path d="M1754 1621.5C1754 1605.21 1766.31 1592 1781.5 1592 1796.69 1592 1809 1605.21 1809 1621.5 1809 1637.79 1796.69 1651 1781.5 1651 1766.31 1651 1754 1637.79 1754 1621.5Z" fill="#C00000" fill-rule="evenodd"/><text fill="#FFFFFF" font-family="Arial,Arial_MSFontService,sans-serif" font-weight="400" font-size="46" transform="matrix(1 0 0 1 1766.66 1639)">K</text><path d="M2054 2812.5C2054 2796.21 2066.31 2783 2081.5 2783 2096.69 2783 2109 2796.21 2109 2812.5 2109 2828.79 2096.69 2842 2081.5 2842 2066.31 2842 2054 2828.79 2054 2812.5Z" fill="#C00000" fill-rule="evenodd"/><text fill="#FFFFFF" font-family="Arial,Arial_MSFontService,sans-serif" font-weight="400" font-size="46" transform="matrix(1 0 0 1 2068.49 2830)">L</text><path d="M1344 2561.5C1344 2545.21 1356.31 2532 1371.5 2532 1386.69 2532 1399 2545.21 1399 2561.5 1399 2577.79 1386.69 2591 1371.5 2591 1356.31 2591 1344 2577.79 1344 2561.5Z" fill="#C00000" fill-rule="evenodd"/><text fill="#FFFFFF" font-family="Arial,Arial_MSFontService,sans-serif" font-weight="400" font-size="46" transform="matrix(1 0 0 1 1354.62 2579)">N</text><path d="M2194 3173.5C2194 3157.21 2206.31 3144 2221.5 3144 2236.69 3144 2249 3157.21 2249 3173.5 2249 3189.79 2236.69 3203 2221.5 3203 2206.31 3203 2194 3189.79 2194 3173.5Z" fill="#C00000" fill-rule="evenodd"/><text fill="#FFFFFF" font-family="Arial,Arial_MSFontService,sans-serif" font-weight="400" font-size="46" transform="matrix(1 0 0 1 2202.29 3191)">M</text><path d="M1821 1621.5C1821 1605.21 1833.31 1592 1848.5 1592 1863.69 1592 1876 1605.21 1876 1621.5 1876 1637.79 1863.69 1651 1848.5 1651 1833.31 1651 1821 1637.79 1821 1621.5Z" fill="#C00000" fill-rule="evenodd"/><text fill="#FFFFFF" font-family="Arial,Arial_MSFontService,sans-serif" font-weight="400" font-size="46" transform="matrix(1 0 0 1 1829.68 1639)">M</text><path d="M1069 2071.5C1069 2055.21 1081.54 2042 1097 2042 1112.46 2042 1125 2055.21 1125 2071.5 1125 2087.79 1112.46 2101 1097 2101 1081.54 2101 1069 2087.79 1069 2071.5Z" fill="#C00000" fill-rule="evenodd"/><text fill="#FFFFFF" font-family="Arial,Arial_MSFontService,sans-serif" font-weight="400" font-size="46" transform="matrix(1 0 0 1 1084.36 2089)">L</text><path d="M2072 3086C2072 3069.43 2084.31 3056 2099.5 3056 2114.69 3056 2127 3069.43 2127 3086 2127 3102.57 2114.69 3116 2099.5 3116 2084.31 3116 2072 3102.57 2072 3086Z" fill="#C00000" fill-rule="evenodd"/><text fill="#FFFFFF" font-family="Arial,Arial_MSFontService,sans-serif" font-weight="400" font-size="46" transform="matrix(1 0 0 1 2082.95 3103)">N</text><path d="M1445.5 816.5 2106 816.5 2106 816.5 2349.5 1060 2106 1303.5 2106 1303.5 1445.5 1303.5Z" stroke="#000000" stroke-width="6.875" stroke-miterlimit="8" fill="#F2F2F2" fill-rule="evenodd"/><path d="M1445.5 816.5 1993 816.5 1993 816.5 2236.5 1060 1993 1303.5 1993 1303.5 1445.5 1303.5Z" stroke="#000000" stroke-width="4.58333" stroke-miterlimit="8" stroke-dasharray="4.58333 4.58333" fill="#F2F2F2" fill-rule="evenodd"/><text font-family="Arial,Arial_MSFontService,sans-serif" font-weight="400" font-size="55" transform="matrix(0.700537 -0.713616 0.713616 0.700537 2133.62 1246)">Margin</text><path d="M1445.5 1060.5 2236.7 1060.5" stroke="#000000" stroke-width="4.58333" stroke-miterlimit="8" stroke-dasharray="4.58333 4.58333" fill="#F2F2F2" fill-rule="evenodd"/><path d="M0 0 0.000360892 240.512" stroke="#000000" stroke-width="4.58333" stroke-miterlimit="8" stroke-dasharray="4.58333 4.58333" fill="#F2F2F2" fill-rule="evenodd" transform="matrix(1 0 0 -1 1565.5 1304.01)"/><path d="M0 0 0.000360892 240.512" stroke="#000000" stroke-width="4.58333" stroke-miterlimit="8" stroke-dasharray="4.58333 4.58333" fill="#F2F2F2" fill-rule="evenodd" transform="matrix(1 0 0 -1 1692.5 1304.01)"/><path d="M0 0 0.000360892 240.512" stroke="#000000" stroke-width="4.58333" stroke-miterlimit="8" stroke-dasharray="4.58333 4.58333" fill="#F2F2F2" fill-rule="evenodd" transform="matrix(1 0 0 -1 1816.5 1304.01)"/><path d="M0 0 0.000360892 240.512" stroke="#000000" stroke-width="4.58333" stroke-miterlimit="8" stroke-dasharray="4.58333 4.58333" fill="#F2F2F2" fill-rule="evenodd" transform="matrix(1 0 0 -1 1940.5 1304.01)"/><text font-family="Arial,Arial_MSFontService,sans-serif" font-weight="400" font-size="46" transform="matrix(-1.83697e-16 -1 1 -1.83697e-16 1524.55 1269)">Logistics</text><text font-family="Arial,Arial_MSFontService,sans-serif" font-weight="400" font-size="46" transform="matrix(-1.83697e-16 -1 1 -1.83697e-16 1649.8 1291)">Operations</text><text font-family="Arial,Arial_MSFontService,sans-serif" font-weight="400" font-size="46" transform="matrix(-1.83697e-16 -1 1 -1.83697e-16 1744.76 1285)">Route to</text><text font-family="Arial,Arial_MSFontService,sans-serif" font-weight="400" font-size="46" transform="matrix(-1.83697e-16 -1 1 -1.83697e-16 1794.76 1269)">market</text><rect x="1826" y="1063" width="102" height="236" fill="#F2F2F2"/><text font-family="Arial,Arial_MSFontService,sans-serif" font-weight="400" font-size="46" transform="matrix(-1.83697e-16 -1 1 -1.83697e-16 1865.75 1259)">Sales &amp;</text><text font-family="Arial,Arial_MSFontService,sans-serif" font-weight="400" font-size="46" transform="matrix(-1.83697e-16 -1 1 -1.83697e-16 1915.75 1281)">marketing</text><text font-family="Arial,Arial_MSFontService,sans-serif" font-weight="400" font-size="46" transform="matrix(-1.83697e-16 -1 1 -1.83697e-16 2003.39 1256)">Service</text><path d="M1450.5 999.5 2175.9 999.5" stroke="#000000" stroke-width="4.58333" stroke-miterlimit="8" stroke-dasharray="4.58333 4.58333" fill="#F2F2F2" fill-rule="evenodd"/><path d="M1445.5 938.5 2110.43 938.5" stroke="#000000" stroke-width="4.58333" stroke-miterlimit="8" stroke-dasharray="4.58333 4.58333" fill="#F2F2F2" fill-rule="evenodd"/><text font-family="Arial,Arial_MSFontService,sans-serif" font-weight="400" font-size="46" transform="matrix(1 0 0 1 1631.88 863)">Infrastructure</text><text font-family="Arial,Arial_MSFontService,sans-serif" font-weight="400" font-size="46" transform="matrix(1 0 0 1 1586.04 924)">Human resources</text><text font-family="Arial,Arial_MSFontService,sans-serif" font-weight="400" font-size="46" transform="matrix(1 0 0 1 1717.81 984)">R&amp;D</text><text font-family="Arial,Arial_MSFontService,sans-serif" font-weight="400" font-size="46" transform="matrix(1 0 0 1 1635.6 1042)">Procurement</text><text font-family="Arial,Arial_MSFontService,sans-serif" font-weight="400" font-size="55" transform="matrix(0.687768 0.725931 -0.725931 0.687768 2106.45 888)">Margin</text><path d="M1445.5 877.5 2049.93 878.898" stroke="#000000" stroke-width="4.58333" stroke-miterlimit="8" stroke-dasharray="4.58333 4.58333" fill="#F2F2F2" fill-rule="evenodd"/><path d="M1444.5 817.5 2104 817.5 2104 817.5 2347.5 1061 2104 1304.5 2104 1304.5 1444.5 1304.5Z" stroke="#000000" stroke-width="6.875" stroke-miterlimit="8" fill="none" fill-rule="evenodd"/><text font-family="Arial,Arial_MSFontService,sans-serif" font-weight="700" font-size="64" transform="matrix(1 0 0 1 321.184 568)">RECONCILIATION OF EMIO WITH LEADING AUTHORITIES</text></g></svg>