<svg width="1597" height="877" xmlns="http://www.w3.org/2000/svg" xmlns:xlink="http://www.w3.org/1999/xlink" xml:space="preserve" overflow="hidden"><g transform="translate(-441 -2756)"><text font-family="Arial,Arial_MSFontService,sans-serif" font-weight="700" font-size="64" transform="matrix(1 0 0 1 579.505 2838)">ROGER MARTIN’S CASCADE OF CHOICES</text><rect x="454" y="2929" width="304" height="212" fill="#0D0953"/><text fill="#FFFFFF" font-family="Arial,Arial_MSFontService,sans-serif" font-weight="700" font-size="55" transform="matrix(1 0 0 1 496.766 3022)">Winning </text><text fill="#FFFFFF" font-family="Arial,Arial_MSFontService,sans-serif" font-weight="700" font-size="55" transform="matrix(1 0 0 1 474.193 3088)">aspiration</text><rect x="769" y="3052" width="305" height="212" fill="#0D0953"/><text fill="#FFFFFF" font-family="Arial,Arial_MSFontService,sans-serif" font-weight="700" font-size="55" transform="matrix(1 0 0 1 803.854 3145)">Where to </text><text fill="#FFFFFF" font-family="Arial,Arial_MSFontService,sans-serif" font-weight="700" font-size="55" transform="matrix(1 0 0 1 866.577 3211)">play</text><rect x="1085" y="3175" width="305" height="212" fill="#0D0953"/><text fill="#FFFFFF" font-family="Arial,Arial_MSFontService,sans-serif" font-weight="700" font-size="55" transform="matrix(1 0 0 1 1145.55 3268)">How to</text><text fill="#FFFFFF" font-family="Arial,Arial_MSFontService,sans-serif" font-weight="700" font-size="55" transform="matrix(1 0 0 1 1191.38 3334)">win</text><rect x="1401" y="3298" width="305" height="212" fill="#0D0953"/><text fill="#FFFFFF" font-family="Arial,Arial_MSFontService,sans-serif" font-weight="700" font-size="55" transform="matrix(1 0 0 1 1434.23 3391)">Required</text><text fill="#FFFFFF" font-family="Arial,Arial_MSFontService,sans-serif" font-weight="700" font-size="55" transform="matrix(1 0 0 1 1403.59 3457)">capabilities</text><rect x="1717" y="3421" width="304" height="212" fill="#0D0953"/><text fill="#FFFFFF" font-family="Arial,Arial_MSFontService,sans-serif" font-weight="700" font-size="55" transform="matrix(1 0 0 1 1750.14 3514)">Required</text><text fill="#FFFFFF" font-family="Arial,Arial_MSFontService,sans-serif" font-weight="700" font-size="55" transform="matrix(1 0 0 1 1733.83 3580)">processes</text><path d="M785.027 2967.85 797.576 2968.15 809.977 2969.03 822.165 2970.48 834.102 2972.47 845.749 2975.01 857.071 2978.06 868.028 2981.62 878.582 2985.67 888.697 2990.19 898.334 2995.17 907.455 3000.6 916.023 3006.45 924.026 3012.74 928.198 3017.03 926.556 3018.63 922.437 3014.39 922.55 3014.5 914.637 3008.28 914.698 3008.32 906.192 3002.51 906.253 3002.55 897.192 2997.16 897.252 2997.19 887.674 2992.24 887.732 2992.27 877.675 2987.77 877.733 2987.8 867.235 2983.77 867.291 2983.79 856.39 2980.25 856.446 2980.27 845.18 2977.23 845.235 2977.24 833.642 2974.72 833.696 2974.73 821.814 2972.74 821.868 2972.75 809.734 2971.31 809.788 2971.31 797.441 2970.44 797.495 2970.44 784.973 2970.15ZM934.266 3005.08 943.061 3034.54 914.215 3023.9Z" fill="#01675F"/><path d="M1117.03 3084.85 1129.58 3085.15 1141.98 3086.03 1154.16 3087.48 1166.1 3089.47 1177.75 3092.01 1189.07 3095.06 1200.03 3098.62 1210.58 3102.67 1220.7 3107.19 1230.33 3112.17 1239.46 3117.6 1248.02 3123.45 1256.03 3129.74 1260.2 3134.03 1258.56 3135.63 1254.44 3131.39 1254.55 3131.5 1246.64 3125.28 1246.7 3125.32 1238.19 3119.51 1238.25 3119.55 1229.19 3114.16 1229.25 3114.19 1219.67 3109.24 1219.73 3109.27 1209.68 3104.77 1209.73 3104.8 1199.23 3100.77 1199.29 3100.79 1188.39 3097.25 1188.45 3097.27 1177.18 3094.23 1177.23 3094.24 1165.64 3091.72 1165.7 3091.73 1153.81 3089.74 1153.87 3089.75 1141.73 3088.31 1141.79 3088.31 1129.44 3087.44 1129.49 3087.44 1116.97 3087.15ZM1266.27 3122.08 1275.06 3151.54 1246.21 3140.9Z" fill="#01675F"/><path d="M1443.03 3201.85 1455.56 3202.15 1467.94 3203.02 1480.11 3204.46 1492.03 3206.44 1503.66 3208.96 1514.97 3211.99 1525.91 3215.52 1536.45 3219.54 1546.56 3224.03 1556.19 3228.98 1565.31 3234.36 1573.87 3240.18 1581.87 3246.42 1586 3250.63 1584.36 3252.24 1580.29 3248.08 1580.4 3248.18 1572.49 3242.01 1572.55 3242.05 1564.05 3236.28 1564.11 3236.32 1555.05 3230.97 1555.11 3231 1545.54 3226.08 1545.6 3226.11 1535.55 3221.65 1535.61 3221.67 1525.12 3217.67 1525.18 3217.69 1514.29 3214.18 1514.34 3214.19 1503.09 3211.18 1503.15 3211.19 1491.57 3208.69 1491.62 3208.7 1479.76 3206.72 1479.81 3206.73 1467.7 3205.3 1467.75 3205.31 1455.42 3204.44 1455.48 3204.44 1442.97 3204.15ZM1592.01 3238.66 1600.93 3268.08 1572.04 3257.56Z" fill="#01675F"/><path d="M1743.03 3327.85 1755.58 3328.15 1767.98 3329.03 1780.17 3330.48 1792.1 3332.47 1803.75 3335.01 1815.07 3338.06 1826.03 3341.62 1836.58 3345.67 1846.7 3350.19 1856.33 3355.17 1865.46 3360.6 1874.02 3366.45 1882.03 3372.74 1886.2 3377.03 1884.56 3378.63 1880.44 3374.39 1880.55 3374.5 1872.64 3368.28 1872.7 3368.32 1864.19 3362.51 1864.25 3362.55 1855.19 3357.16 1855.25 3357.19 1845.67 3352.24 1845.73 3352.27 1835.68 3347.77 1835.73 3347.8 1825.23 3343.77 1825.29 3343.79 1814.39 3340.25 1814.45 3340.27 1803.18 3337.23 1803.23 3337.24 1791.64 3334.72 1791.7 3334.73 1779.81 3332.74 1779.87 3332.75 1767.73 3331.31 1767.79 3331.31 1755.44 3330.44 1755.5 3330.44 1742.97 3330.15ZM1892.27 3365.08 1901.06 3394.54 1872.21 3383.9Z" fill="#01675F"/><path d="M753.973 3231.15 744.809 3230.93 744.863 3228.64 754.027 3228.85ZM737.889 3230.6 729.023 3229.97 728.693 3229.93 728.963 3227.66 729.266 3227.69 729.212 3227.69 738.052 3228.31ZM721.866 3229.12 716.835 3228.52 712.737 3227.84 713.115 3225.58 717.186 3226.26 717.132 3226.25 722.136 3226.84ZM705.956 3226.7 704.898 3226.53 696.935 3224.79 697.422 3222.55 705.358 3224.28 705.304 3224.27 706.335 3224.44ZM690.199 3223.17 681.929 3220.94 681.302 3220.73 682.01 3218.55 682.61 3218.75 682.554 3218.73 690.796 3220.96ZM674.763 3218.61 670.972 3217.38 666.079 3215.5 666.9 3213.36 671.765 3215.23 671.709 3215.21 675.471 3216.43ZM659.62 3212.97 651.252 3209.23 652.187 3207.14 660.556 3210.88ZM645.061 3206.1 640.666 3203.83 636.982 3201.64 638.153 3199.67 641.808 3201.84 641.748 3201.81 646.114 3204.06ZM631.032 3198.05 623.463 3192.88 624.756 3190.99 632.325 3196.16ZM617.975 3188.62 614.974 3186.26 611.136 3182.31 612.779 3180.72 616.563 3184.61 616.45 3184.5 619.391 3186.81ZM604.734 3193.92 595.939 3164.46 624.785 3175.1Z" fill="#01675F"/><path d="M1068.97 3354.15 1059.81 3353.93 1059.86 3351.64 1069.03 3351.85ZM1052.89 3353.6 1044.02 3352.97 1043.69 3352.93 1043.96 3350.66 1044.27 3350.69 1044.21 3350.69 1053.05 3351.31ZM1036.87 3352.12 1031.84 3351.52 1027.74 3350.84 1028.12 3348.58 1032.19 3349.26 1032.13 3349.25 1037.14 3349.84ZM1020.96 3349.7 1019.9 3349.53 1011.94 3347.79 1012.42 3345.55 1020.36 3347.28 1020.3 3347.27 1021.33 3347.44ZM1005.2 3346.17 996.93 3343.94 996.302 3343.73 997.01 3341.55 997.61 3341.75 997.554 3341.73 1005.8 3343.96ZM989.764 3341.61 985.973 3340.38 981.08 3338.5 981.9 3336.36 986.765 3338.23 986.709 3338.21 990.472 3339.43ZM974.621 3335.97 966.252 3332.23 967.188 3330.14 975.556 3333.88ZM960.062 3329.1 955.666 3326.83 951.982 3324.64 953.153 3322.67 956.808 3324.84 956.749 3324.81 961.114 3327.06ZM946.032 3321.05 938.464 3315.88 939.756 3313.99 947.325 3319.16ZM932.975 3311.62 929.974 3309.26 926.137 3305.31 927.779 3303.72 931.564 3307.61 931.45 3307.5 934.391 3309.82ZM919.735 3316.92 910.94 3287.46 939.786 3298.1Z" fill="#01675F"/><path d="M1384.97 3471.15 1375.81 3470.93 1375.86 3468.64 1385.03 3468.85ZM1368.89 3470.6 1360.06 3469.98 1359.69 3469.94 1359.96 3467.66 1360.3 3467.7 1360.25 3467.7 1369.05 3468.32ZM1352.87 3469.13 1347.89 3468.54 1343.74 3467.85 1344.11 3465.59 1348.24 3466.28 1348.19 3466.27 1353.13 3466.85ZM1336.95 3466.72 1335.97 3466.56 1327.93 3464.82 1328.42 3462.58 1336.43 3464.31 1336.38 3464.3 1337.33 3464.46ZM1321.2 3463.2 1313.03 3461.01 1312.3 3460.77 1313 3458.59 1313.71 3458.82 1313.66 3458.81 1321.79 3460.99ZM1305.75 3458.66 1302.09 3457.48 1297.07 3455.56 1297.88 3453.42 1302.88 3455.33 1302.82 3455.31 1306.46 3456.48ZM1290.61 3453.04 1282.23 3449.32 1283.16 3447.23 1291.54 3450.95ZM1276.04 3446.19 1271.81 3444.02 1267.95 3441.74 1269.12 3439.77 1272.95 3442.03 1272.89 3442 1277.08 3444.16ZM1262 3438.16 1254.41 3433.02 1255.7 3431.12 1263.28 3436.27ZM1248.92 3428.76 1246.13 3426.58 1242.09 3422.45 1243.72 3420.85 1247.71 3424.92 1247.6 3424.82 1250.33 3426.95ZM1235.99 3434.34 1227.07 3404.92 1255.96 3415.44Z" fill="#01675F"/><path d="M1691.97 3599.15 1682.81 3598.93 1682.86 3596.64 1692.03 3596.85ZM1675.89 3598.6 1667.02 3597.97 1666.69 3597.93 1666.96 3595.66 1667.27 3595.69 1667.21 3595.69 1676.05 3596.31ZM1659.87 3597.12 1654.83 3596.52 1650.74 3595.84 1651.12 3593.58 1655.19 3594.26 1655.13 3594.25 1660.14 3594.84ZM1643.96 3594.7 1642.9 3594.53 1634.94 3592.79 1635.42 3590.55 1643.36 3592.28 1643.3 3592.27 1644.33 3592.44ZM1628.2 3591.17 1619.93 3588.94 1619.3 3588.73 1620.01 3586.55 1620.61 3586.75 1620.55 3586.73 1628.8 3588.96ZM1612.76 3586.61 1608.97 3585.38 1604.08 3583.5 1604.9 3581.36 1609.77 3583.23 1609.71 3583.21 1613.47 3584.43ZM1597.62 3580.97 1589.25 3577.23 1590.19 3575.14 1598.56 3578.88ZM1583.06 3574.1 1578.67 3571.83 1574.98 3569.64 1576.15 3567.67 1579.81 3569.84 1579.75 3569.81 1584.11 3572.06ZM1569.03 3566.05 1561.46 3560.88 1562.76 3558.99 1570.32 3564.16ZM1555.97 3556.62 1552.97 3554.26 1549.14 3550.31 1550.78 3548.72 1554.56 3552.61 1554.45 3552.5 1557.39 3554.82ZM1542.73 3561.92 1533.94 3532.46 1562.79 3543.1Z" fill="#01675F"/></g></svg>