<svg width="1877" height="1537" xmlns="http://www.w3.org/2000/svg" xmlns:xlink="http://www.w3.org/1999/xlink" xml:space="preserve" overflow="hidden"><g transform="translate(-207 -2165)"><path d="M659.5 2441.17C659.5 2426.99 670.992 2415.5 685.167 2415.5L1048.83 2415.5C1063.01 2415.5 1074.5 2426.99 1074.5 2441.17L1074.5 2543.83C1074.5 2558.01 1063.01 2569.5 1048.83 2569.5L685.167 2569.5C670.992 2569.5 659.5 2558.01 659.5 2543.83Z" stroke="#001E1C" stroke-width="4.58333" stroke-miterlimit="8" fill="#01675F" fill-rule="evenodd"/><text fill="#FFFFFF" font-family="Arial,Arial_MSFontService,sans-serif" font-weight="700" font-size="55" transform="matrix(1 0 0 1 744.43 2512)">Structure</text><path d="M1653.5 2441.17C1653.5 2426.99 1664.99 2415.5 1679.17 2415.5L2042.83 2415.5C2057.01 2415.5 2068.5 2426.99 2068.5 2441.17L2068.5 2543.83C2068.5 2558.01 2057.01 2569.5 2042.83 2569.5L1679.17 2569.5C1664.99 2569.5 1653.5 2558.01 1653.5 2543.83Z" stroke="#001E1C" stroke-width="4.58333" stroke-miterlimit="8" fill="#01675F" fill-rule="evenodd"/><text fill="#FFFFFF" font-family="Arial,Arial_MSFontService,sans-serif" font-weight="400" font-size="55" transform="matrix(1 0 0 1 1703.64 2512)">Performance</text><path d="M1156.5 2441.17C1156.5 2426.99 1167.99 2415.5 1182.17 2415.5L1545.83 2415.5C1560.01 2415.5 1571.5 2426.99 1571.5 2441.17L1571.5 2543.83C1571.5 2558.01 1560.01 2569.5 1545.83 2569.5L1182.17 2569.5C1167.99 2569.5 1156.5 2558.01 1156.5 2543.83Z" stroke="#001E1C" stroke-width="4.58333" stroke-miterlimit="8" fill="#01675F" fill-rule="evenodd"/><text fill="#FFFFFF" font-family="Arial,Arial_MSFontService,sans-serif" font-weight="400" font-size="55" transform="matrix(1 0 0 1 1261.56 2512)">Conduct</text><path d="M426.5 2429.18 488.878 2350.5 482.727 2422.73 553.535 2410.96 525.413 2449.73 599.07 2460.88 540.58 2492.59 607.5 2530.78 527.676 2526.06 549.597 2595.96 480.465 2546.61 467.51 2618.23 422.008 2553.09 387.702 2643.5 374.798 2562.48 325.308 2589.47 340.475 2539.55 247.762 2548.37 307.878 2510.23 245.5 2467.36 323.045 2453.82 251.701 2381.63 368.044 2436.23 385.473 2381.63Z" stroke="#843C0C" stroke-width="4.58333" stroke-miterlimit="8" fill="#ED901F" fill-rule="evenodd"/><text font-family="Arial,Arial_MSFontService,sans-serif" font-weight="700" font-size="55" transform="matrix(1 0 0 1 341.281 2513)">Shock</text><path d="M1074.5 2490.21 1133.77 2490.21 1133.77 2494.79 1074.5 2494.79ZM1129.18 2478.75 1156.68 2492.5 1129.18 2506.25Z"/><path d="M1571.5 2490.21 1630.77 2490.21 1630.77 2494.79 1571.5 2494.79ZM1626.18 2478.75 1653.68 2492.5 1626.18 2506.25Z"/><path d="M577.5 2490.21 637.083 2490.21 637.083 2494.79 577.5 2494.79ZM632.5 2478.75 660 2492.5 632.5 2506.25Z"/><path d="M1850.53 2571.94 1843.82 2580.66 1836.5 2589.08 1828.64 2597.17 1820.28 2604.9 1811.42 2612.28 1802.11 2619.3 1792.35 2625.96 1782.18 2632.24 1771.62 2638.16 1760.69 2643.69 1749.41 2648.84 1737.81 2653.6 1725.92 2657.97 1713.75 2661.94 1701.33 2665.5 1688.68 2668.65 1675.83 2671.39 1662.79 2673.71 1649.6 2675.61 1636.28 2677.07 1622.84 2678.1 1609.31 2678.69 1595.72 2678.83 1582.09 2678.51 1568.44 2677.74 1554.8 2676.51 1541.18 2674.81 1527.62 2672.63 1514.13 2669.98 1500.74 2666.84 1487.48 2663.2 1474.34 2659.07 1453.76 2651.41 1434.26 2642.65 1415.95 2632.84 1398.91 2622.05 1383.24 2610.34 1375.91 2604.13 1368.95 2597.7 1359.94 2588.02 1363.3 2584.9 1372.24 2594.51 1372.12 2594.39 1378.99 2600.73 1378.91 2600.66 1386.15 2606.8 1386.04 2606.71 1401.58 2618.32 1401.43 2618.22 1418.33 2628.92 1418.19 2628.84 1436.35 2638.57 1436.21 2638.5 1455.57 2647.2 1455.43 2647.14 1475.89 2654.75 1475.77 2654.71 1488.81 2658.82 1488.73 2658.79 1501.91 2662.4 1501.83 2662.38 1515.14 2665.51 1515.06 2665.49 1528.46 2668.13 1528.38 2668.11 1541.87 2670.28 1541.79 2670.27 1555.33 2671.96 1555.25 2671.95 1568.82 2673.18 1568.74 2673.17 1582.31 2673.94 1582.23 2673.93 1595.79 2674.24 1595.71 2674.24 1609.23 2674.1 1609.15 2674.11 1622.6 2673.52 1622.53 2673.53 1635.89 2672.5 1635.81 2672.51 1649.06 2671.06 1648.99 2671.07 1662.11 2669.18 1662.03 2669.19 1674.99 2666.89 1674.91 2666.9 1687.69 2664.18 1687.61 2664.2 1700.18 2661.06 1700.1 2661.08 1712.45 2657.54 1712.37 2657.57 1724.46 2653.62 1724.38 2653.65 1736.19 2649.31 1736.11 2649.34 1747.63 2644.62 1747.55 2644.65 1758.74 2639.54 1758.66 2639.58 1769.51 2634.09 1769.42 2634.13 1779.9 2628.27 1779.81 2628.32 1789.9 2622.09 1789.81 2622.14 1799.48 2615.55 1799.39 2615.61 1808.62 2608.65 1808.53 2608.72 1817.3 2601.42 1817.21 2601.5 1825.49 2593.84 1825.4 2593.93 1833.17 2585.94 1833.08 2586.03 1840.31 2577.7 1840.23 2577.81 1846.91 2569.15ZM1353.94 2598.75 1347.03 2568.79 1375.14 2581.24Z"/><path d="M1332.52 2573.26 1326.56 2582.09 1320.04 2590.65 1312.99 2598.88 1305.46 2606.77 1297.46 2614.31 1289.02 2621.5 1280.15 2628.34 1270.88 2634.81 1261.22 2640.92 1251.21 2646.66 1240.87 2652.02 1230.21 2656.99 1219.26 2661.57 1208.03 2665.77 1196.56 2669.56 1184.86 2672.94 1172.95 2675.92 1160.86 2678.48 1148.61 2680.61 1136.21 2682.32 1123.69 2683.59 1111.08 2684.42 1098.39 2684.81 1085.65 2684.74 1072.87 2684.22 1060.08 2683.24 1047.3 2681.78 1034.55 2679.85 1021.85 2677.44 1009.23 2674.54 996.71 2671.15 984.287 2667.25 963.25 2659.32 943.371 2650.1 924.766 2639.64 907.555 2628.05 899.468 2621.82 891.78 2615.34 884.486 2608.61 877.599 2601.64 871.096 2594.39 867.976 2590.16 871.664 2587.44 874.719 2591.58 874.581 2591.41 880.974 2598.54 880.899 2598.46 887.71 2605.36 887.633 2605.28 894.85 2611.94 894.773 2611.87 902.382 2618.28 902.304 2618.22 910.294 2624.37 910.176 2624.29 927.25 2635.79 927.092 2635.69 945.539 2646.06 945.381 2645.98 965.102 2655.13 964.945 2655.06 985.842 2662.94 985.721 2662.89 998.039 2666.76 997.952 2666.73 1010.39 2670.1 1010.3 2670.08 1022.84 2672.96 1022.75 2672.94 1035.36 2675.34 1035.28 2675.32 1047.94 2677.24 1047.86 2677.23 1060.55 2678.68 1060.47 2678.67 1073.18 2679.65 1073.1 2679.64 1085.79 2680.16 1085.71 2680.16 1098.37 2680.23 1098.29 2680.23 1110.9 2679.84 1110.82 2679.85 1123.35 2679.02 1123.27 2679.03 1135.71 2677.76 1135.63 2677.77 1147.94 2676.08 1147.86 2676.09 1160.03 2673.97 1159.95 2673.98 1171.96 2671.44 1171.88 2671.46 1183.71 2668.51 1183.63 2668.53 1195.24 2665.17 1195.16 2665.19 1206.55 2661.43 1206.47 2661.46 1217.61 2657.3 1217.53 2657.33 1228.4 2652.78 1228.31 2652.82 1238.89 2647.88 1238.8 2647.92 1249.06 2642.61 1248.98 2642.66 1258.9 2636.97 1258.82 2637.02 1268.38 2630.97 1268.29 2631.03 1277.48 2624.61 1277.39 2624.68 1286.18 2617.91 1286.09 2617.98 1294.45 2610.86 1294.36 2610.94 1302.28 2603.47 1302.19 2603.56 1309.64 2595.76 1309.55 2595.85 1316.51 2587.72 1316.43 2587.82 1322.88 2579.36 1322.8 2579.47 1328.71 2570.7ZM861.406 2600.6 856.326 2570.28 883.632 2584.41Z"/><path d="M1908.04 2568.83 1902.81 2579.83 1896.12 2590.71 1888.07 2601.31 1878.71 2611.63 1868.08 2621.67 1856.23 2631.41 1843.2 2640.86 1829.03 2649.99 1813.76 2658.81 1797.44 2667.31 1780.09 2675.47 1761.77 2683.28 1742.51 2690.74 1722.36 2697.83 1701.34 2704.55 1679.52 2710.88 1656.91 2716.81 1633.58 2722.33 1609.55 2727.42 1584.86 2732.09 1559.57 2736.32 1533.7 2740.09 1507.3 2743.39 1480.42 2746.22 1453.08 2748.56 1425.34 2750.4 1397.23 2751.73 1368.79 2752.54 1340.07 2752.82 1311.1 2752.55 1281.93 2751.73 1252.59 2750.34 1206.96 2747.03 1184.64 2744.88 1162.69 2742.41 1141.12 2739.62 1119.95 2736.54 1099.2 2733.15 1078.89 2729.46 1059.03 2725.5 1039.65 2721.25 1020.76 2716.73 1002.38 2711.95 984.526 2706.91 967.224 2701.61 950.49 2696.07 934.34 2690.3 918.795 2684.29 903.871 2678.06 889.587 2671.6 875.963 2664.94 863.015 2658.07 850.763 2651 839.225 2643.73 828.419 2636.28 818.364 2628.64 809.079 2620.83 800.582 2612.84 792.895 2604.69 785.992 2596.32 782.406 2590.56 786.296 2588.14 789.801 2593.76 789.624 2593.52 796.382 2601.71 796.282 2601.6 803.87 2609.65 803.772 2609.55 812.172 2617.45 812.078 2617.36 821.271 2625.1 821.182 2625.03 831.149 2632.6 831.064 2632.54 841.788 2639.93 841.708 2639.88 853.168 2647.09 853.092 2647.05 865.271 2654.08 865.2 2654.04 878.078 2660.87 878.011 2660.84 891.57 2667.47 891.506 2667.44 905.728 2673.87 905.668 2673.84 920.533 2680.05 920.476 2680.03 935.966 2686.01 935.911 2685.99 952.008 2691.75 951.956 2691.73 968.64 2697.25 968.59 2697.24 985.843 2702.52 985.796 2702.5 1003.6 2707.53 1003.55 2707.52 1021.89 2712.29 1021.84 2712.28 1040.69 2716.79 1040.65 2716.78 1059.99 2721.02 1059.95 2721.01 1079.77 2724.97 1079.72 2724.96 1100 2728.63 1099.96 2728.63 1120.67 2732.01 1120.63 2732 1141.76 2735.09 1141.73 2735.08 1163.26 2737.86 1163.22 2737.86 1185.14 2740.32 1185.1 2740.32 1207.38 2742.47 1207.32 2742.46 1252.89 2745.77 1252.84 2745.76 1282.12 2747.15 1282.08 2747.15 1311.21 2747.97 1311.16 2747.97 1340.09 2748.24 1340.04 2748.24 1368.72 2747.96 1368.68 2747.96 1397.07 2747.15 1397.03 2747.16 1425.1 2745.83 1425.06 2745.83 1452.76 2743.99 1452.71 2743.99 1480 2741.66 1479.96 2741.66 1506.8 2738.84 1506.76 2738.84 1533.11 2735.54 1533.06 2735.55 1558.88 2731.78 1558.84 2731.79 1584.08 2727.58 1584.04 2727.58 1608.67 2722.93 1608.62 2722.94 1632.6 2717.85 1632.55 2717.86 1655.83 2712.35 1655.78 2712.37 1678.33 2706.45 1678.27 2706.47 1700.04 2700.16 1699.98 2700.17 1720.93 2693.48 1720.87 2693.5 1740.96 2686.43 1740.89 2686.45 1760.08 2679.02 1760.01 2679.05 1778.26 2671.27 1778.18 2671.3 1795.45 2663.18 1795.36 2663.22 1811.6 2654.77 1811.52 2654.82 1826.69 2646.05 1826.6 2646.11 1840.66 2637.04 1840.56 2637.11 1853.48 2627.74 1853.37 2627.83 1865.11 2618.18 1864.99 2618.28 1875.49 2608.36 1875.37 2608.48 1884.6 2598.3 1884.48 2598.45 1892.4 2588.02 1892.27 2588.21 1898.84 2577.54 1898.73 2577.76 1903.9 2566.86ZM774.812 2600.26 772.752 2569.58 798.529 2586.34Z"/><text font-family="Arial,Arial_MSFontService,sans-serif" font-weight="700" font-size="64" transform="matrix(1 0 0 1 272.173 2246)">JOSEPH BAIN’S STRUCTURE CONDUCT PERFORMANCE</text><text font-family="Arial,Arial_MSFontService,sans-serif" font-weight="400" font-size="60" transform="matrix(1 0 0 1 505.075 2319)">With John Stuckey (McKinsey) dynamic additions</text><text font-family="Arial,Arial_MSFontService,sans-serif" font-weight="400" font-size="55" transform="matrix(1 0 0 1 675.339 2797)">•</text><text font-family="Arial,Arial_MSFontService,sans-serif" font-weight="400" font-size="55" transform="matrix(1 0 0 1 716.589 2797)">Seller </text><text font-family="Arial,Arial_MSFontService,sans-serif" font-weight="400" font-size="55" transform="matrix(1 0 0 1 716.589 2863)">concentration</text><text font-family="Arial,Arial_MSFontService,sans-serif" font-weight="400" font-size="55" transform="matrix(1 0 0 1 675.339 2929)">•</text><text font-family="Arial,Arial_MSFontService,sans-serif" font-weight="400" font-size="55" transform="matrix(1 0 0 1 716.589 2929)">Product </text><text font-family="Arial,Arial_MSFontService,sans-serif" font-weight="400" font-size="55" transform="matrix(1 0 0 1 716.589 2995)">differentiation</text><text font-family="Arial,Arial_MSFontService,sans-serif" font-weight="400" font-size="55" transform="matrix(1 0 0 1 675.339 3061)">•</text><text font-family="Arial,Arial_MSFontService,sans-serif" font-weight="400" font-size="55" transform="matrix(1 0 0 1 716.589 3061)">Barriers to </text><text font-family="Arial,Arial_MSFontService,sans-serif" font-weight="400" font-size="55" transform="matrix(1 0 0 1 716.589 3127)">entry</text><text font-family="Arial,Arial_MSFontService,sans-serif" font-weight="400" font-size="55" transform="matrix(1 0 0 1 675.339 3193)">•</text><text font-family="Arial,Arial_MSFontService,sans-serif" font-weight="400" font-size="55" transform="matrix(1 0 0 1 716.589 3193)">Buyer </text><text font-family="Arial,Arial_MSFontService,sans-serif" font-weight="400" font-size="55" transform="matrix(1 0 0 1 716.589 3259)">concentration</text><text font-family="Arial,Arial_MSFontService,sans-serif" font-weight="400" font-size="55" transform="matrix(1 0 0 1 675.339 3325)">•</text><text font-family="Arial,Arial_MSFontService,sans-serif" font-weight="400" font-size="55" transform="matrix(1 0 0 1 716.589 3325)">Barriers to </text><text font-family="Arial,Arial_MSFontService,sans-serif" font-weight="400" font-size="55" transform="matrix(1 0 0 1 716.589 3391)">exit / sunk </text><text font-family="Arial,Arial_MSFontService,sans-serif" font-weight="400" font-size="55" transform="matrix(1 0 0 1 716.589 3457)">costs</text><text font-family="Arial,Arial_MSFontService,sans-serif" font-weight="400" font-size="55" transform="matrix(1 0 0 1 675.339 3523)">•</text><text font-family="Arial,Arial_MSFontService,sans-serif" font-weight="400" font-size="55" transform="matrix(1 0 0 1 716.589 3523)">Market </text><text font-family="Arial,Arial_MSFontService,sans-serif" font-weight="400" font-size="55" transform="matrix(1 0 0 1 716.589 3589)">demand </text><text font-family="Arial,Arial_MSFontService,sans-serif" font-weight="400" font-size="55" transform="matrix(1 0 0 1 716.589 3655)">growth</text><text font-family="Arial,Arial_MSFontService,sans-serif" font-weight="400" font-size="55" transform="matrix(1 0 0 1 1174.94 2797)">•</text><text font-family="Arial,Arial_MSFontService,sans-serif" font-weight="400" font-size="55" transform="matrix(1 0 0 1 1216.19 2797)">Seller </text><text font-family="Arial,Arial_MSFontService,sans-serif" font-weight="400" font-size="55" transform="matrix(1 0 0 1 1216.19 2863)">concentration</text><text font-family="Arial,Arial_MSFontService,sans-serif" font-weight="400" font-size="55" transform="matrix(1 0 0 1 1174.94 2929)">•</text><text font-family="Arial,Arial_MSFontService,sans-serif" font-weight="400" font-size="55" transform="matrix(1 0 0 1 1216.19 2929)">Product </text><text font-family="Arial,Arial_MSFontService,sans-serif" font-weight="400" font-size="55" transform="matrix(1 0 0 1 1216.19 2995)">differentiation</text><text font-family="Arial,Arial_MSFontService,sans-serif" font-weight="400" font-size="55" transform="matrix(1 0 0 1 1174.94 3061)">•</text><text font-family="Arial,Arial_MSFontService,sans-serif" font-weight="400" font-size="55" transform="matrix(1 0 0 1 1216.19 3061)">Barriers to </text><text font-family="Arial,Arial_MSFontService,sans-serif" font-weight="400" font-size="55" transform="matrix(1 0 0 1 1216.19 3127)">entry</text><text font-family="Arial,Arial_MSFontService,sans-serif" font-weight="400" font-size="55" transform="matrix(1 0 0 1 1174.94 3193)">•</text><text font-family="Arial,Arial_MSFontService,sans-serif" font-weight="400" font-size="55" transform="matrix(1 0 0 1 1216.19 3193)">Buyer </text><text font-family="Arial,Arial_MSFontService,sans-serif" font-weight="400" font-size="55" transform="matrix(1 0 0 1 1216.19 3259)">concentration</text><text font-family="Arial,Arial_MSFontService,sans-serif" font-weight="400" font-size="55" transform="matrix(1 0 0 1 1174.94 3325)">•</text><text font-family="Arial,Arial_MSFontService,sans-serif" font-weight="400" font-size="55" transform="matrix(1 0 0 1 1216.19 3325)">Barriers to </text><text font-family="Arial,Arial_MSFontService,sans-serif" font-weight="400" font-size="55" transform="matrix(1 0 0 1 1216.19 3391)">exit / sunk </text><text font-family="Arial,Arial_MSFontService,sans-serif" font-weight="400" font-size="55" transform="matrix(1 0 0 1 1216.19 3457)">costs</text><text font-family="Arial,Arial_MSFontService,sans-serif" font-weight="400" font-size="55" transform="matrix(1 0 0 1 1174.94 3523)">•</text><text font-family="Arial,Arial_MSFontService,sans-serif" font-weight="400" font-size="55" transform="matrix(1 0 0 1 1216.19 3523)">Market </text><text font-family="Arial,Arial_MSFontService,sans-serif" font-weight="400" font-size="55" transform="matrix(1 0 0 1 1216.19 3589)">demand </text><text font-family="Arial,Arial_MSFontService,sans-serif" font-weight="400" font-size="55" transform="matrix(1 0 0 1 1216.19 3655)">growth</text><text font-family="Arial,Arial_MSFontService,sans-serif" font-weight="400" font-size="55" transform="matrix(1 0 0 1 1673.7 2840)">•</text><text font-family="Arial,Arial_MSFontService,sans-serif" font-weight="400" font-size="55" transform="matrix(1 0 0 1 1714.95 2840)">Profitability</text><text font-family="Arial,Arial_MSFontService,sans-serif" font-weight="400" font-size="55" transform="matrix(1 0 0 1 1673.7 2906)">•</text><text font-family="Arial,Arial_MSFontService,sans-serif" font-weight="400" font-size="55" transform="matrix(1 0 0 1 1714.95 2906)">Production </text><text font-family="Arial,Arial_MSFontService,sans-serif" font-weight="400" font-size="55" transform="matrix(1 0 0 1 1714.95 2972)">scale </text><text font-family="Arial,Arial_MSFontService,sans-serif" font-weight="400" font-size="55" transform="matrix(1 0 0 1 1714.95 3038)">efficiencies</text><text font-family="Arial,Arial_MSFontService,sans-serif" font-weight="400" font-size="55" transform="matrix(1 0 0 1 1673.7 3104)">•</text><text font-family="Arial,Arial_MSFontService,sans-serif" font-weight="400" font-size="55" transform="matrix(1 0 0 1 1714.95 3104)">Innovation </text><text font-family="Arial,Arial_MSFontService,sans-serif" font-weight="400" font-size="55" transform="matrix(1 0 0 1 1714.95 3170)">and research </text><text font-family="Arial,Arial_MSFontService,sans-serif" font-weight="400" font-size="55" transform="matrix(1 0 0 1 1714.95 3236)">efficiency</text><text font-family="Arial,Arial_MSFontService,sans-serif" font-weight="400" font-size="55" transform="matrix(1 0 0 1 1673.7 3302)">•</text><text font-family="Arial,Arial_MSFontService,sans-serif" font-weight="400" font-size="55" transform="matrix(1 0 0 1 1714.95 3302)">Social </text><text font-family="Arial,Arial_MSFontService,sans-serif" font-weight="400" font-size="55" transform="matrix(1 0 0 1 1714.95 3368)">dimensions</text><text font-family="Arial,Arial_MSFontService,sans-serif" font-weight="400" font-size="55" transform="matrix(1 0 0 1 238.444 2807)">•</text><text font-family="Arial,Arial_MSFontService,sans-serif" font-weight="400" font-size="55" transform="matrix(1 0 0 1 279.694 2807)">Regulations</text><text font-family="Arial,Arial_MSFontService,sans-serif" font-weight="400" font-size="55" transform="matrix(1 0 0 1 238.444 2873)">•</text><text font-family="Arial,Arial_MSFontService,sans-serif" font-weight="400" font-size="55" transform="matrix(1 0 0 1 279.694 2873)">Commodity </text><text font-family="Arial,Arial_MSFontService,sans-serif" font-weight="400" font-size="55" transform="matrix(1 0 0 1 279.694 2939)">prices</text><text font-family="Arial,Arial_MSFontService,sans-serif" font-weight="400" font-size="55" transform="matrix(1 0 0 1 238.444 3005)">•</text><text font-family="Arial,Arial_MSFontService,sans-serif" font-weight="400" font-size="55" transform="matrix(1 0 0 1 279.694 3005)">Credit </text><text font-family="Arial,Arial_MSFontService,sans-serif" font-weight="400" font-size="55" transform="matrix(1 0 0 1 279.694 3071)">availability</text><text font-family="Arial,Arial_MSFontService,sans-serif" font-weight="400" font-size="55" transform="matrix(1 0 0 1 238.444 3137)">•</text><text font-family="Arial,Arial_MSFontService,sans-serif" font-weight="400" font-size="55" transform="matrix(1 0 0 1 279.694 3137)">Exchange </text><text font-family="Arial,Arial_MSFontService,sans-serif" font-weight="400" font-size="55" transform="matrix(1 0 0 1 279.694 3203)">rates</text><text font-family="Arial,Arial_MSFontService,sans-serif" font-weight="400" font-size="55" transform="matrix(1 0 0 1 238.444 3269)">•</text><text font-family="Arial,Arial_MSFontService,sans-serif" font-weight="400" font-size="55" transform="matrix(1 0 0 1 279.694 3269)">Inflation and </text><text font-family="Arial,Arial_MSFontService,sans-serif" font-weight="400" font-size="55" transform="matrix(1 0 0 1 279.694 3335)">cost of </text><text font-family="Arial,Arial_MSFontService,sans-serif" font-weight="400" font-size="55" transform="matrix(1 0 0 1 279.694 3401)">capital</text></g></svg>