<svg width="3206" height="2294" xmlns="http://www.w3.org/2000/svg" xmlns:xlink="http://www.w3.org/1999/xlink" xml:space="preserve" overflow="hidden"><g transform="translate(-126 -66)"><text font-family="Arial,Arial_MSFontService,sans-serif" font-weight="700" font-size="64" transform="matrix(1 0 0 1 796.055 148)">EMIO INTEGRATED STRATEGY </text><text font-family="Arial,Arial_MSFontService,sans-serif" font-weight="700" font-size="64" transform="matrix(1 0 0 1 1769.05 148)">DEV</text><text font-family="Arial,Arial_MSFontService,sans-serif" font-weight="700" font-size="64" transform="matrix(1 0 0 1 1901.39 148)">E</text><text font-family="Arial,Arial_MSFontService,sans-serif" font-weight="700" font-size="64" transform="matrix(1 0 0 1 1944.36 148)">LOPMENT </text><text font-family="Arial,Arial_MSFontService,sans-serif" font-weight="700" font-size="64" transform="matrix(1 0 0 1 2275.51 148)">FRAMEWORK</text><path d="M1695.5 219.5 2472.2 219.5 2520.5 320 2472.2 420.5 1695.5 420.5 1743.8 320Z" fill="#0D0953" fill-rule="evenodd"/><path d="M1690.03 216.063 2474.37 216.063 2524.31 320 2474.37 423.937 1690.03 423.937 1740.7 318.511 1740.7 321.489ZM1747.61 320 1698.6 421.989 1695.5 417.062 2472.2 417.062 2469.11 419.011 2517.4 318.511 2517.4 321.489 2469.11 220.989 2472.2 222.938 1695.5 222.938 1698.6 218.011Z" fill="#FFFFFF"/><text fill="#FFFFFF" font-family="Arial,Arial_MSFontService,sans-serif" font-weight="700" font-size="60" transform="matrix(1 0 0 1 1969.67 342)">I</text><text fill="#FFFFFF" font-family="Arial,Arial_MSFontService,sans-serif" font-weight="700" font-size="60" transform="matrix(1 0 0 1 1986.28 342)">nitiatives</text><path d="M950.5 219.5 1672.2 219.5 1720.5 320 1672.2 420.5 950.5 420.5Z" fill="#0D0953" fill-rule="evenodd"/><path d="M947.062 219.5C947.062 217.602 948.601 216.063 950.5 216.063L1672.2 216.063C1673.52 216.063 1674.73 216.82 1675.3 218.011L1723.6 318.511C1724.05 319.453 1724.05 320.548 1723.6 321.489L1675.3 421.989C1674.73 423.18 1673.52 423.937 1672.2 423.937L950.5 423.937C948.601 423.937 947.062 422.398 947.062 420.5ZM953.937 420.5 950.5 417.062 1672.2 417.062 1669.1 419.011 1717.4 318.511 1717.4 321.489 1669.1 220.989 1672.2 222.938 950.5 222.938 953.937 219.5Z" fill="#FFFFFF"/><text fill="#FFFFFF" font-family="Arial,Arial_MSFontService,sans-serif" font-weight="700" font-size="60" transform="matrix(1 0 0 1 1227.11 342)">M</text><text fill="#FFFFFF" font-family="Arial,Arial_MSFontService,sans-serif" font-weight="700" font-size="60" transform="matrix(1 0 0 1 1276.96 342)">arket</text><path d="M129.5 253.001C129.5 234.499 144.499 219.5 163.001 219.5L873.999 219.5C892.501 219.5 907.5 234.499 907.5 253.001L907.5 386.999C907.5 405.501 892.501 420.5 873.999 420.5L163.001 420.5C144.499 420.5 129.5 405.501 129.5 386.999Z" fill="#01675F" fill-rule="evenodd"/><path d="M126.063 253.001 126.761 245.904C126.784 245.676 126.83 245.45 126.898 245.23L128.85 238.942C128.917 238.727 129.004 238.519 129.112 238.321L132.2 232.63C132.306 232.436 132.429 232.253 132.57 232.083L136.661 227.125C136.8 226.956 136.956 226.8 137.125 226.661L142.083 222.57C142.253 222.43 142.436 222.306 142.63 222.2L148.321 219.112C148.519 219.004 148.727 218.917 148.942 218.85L155.23 216.898C155.45 216.83 155.676 216.784 155.904 216.761L162.656 216.08 873.999 216.063 881.096 216.761C881.325 216.784 881.55 216.83 881.77 216.898L888.058 218.85C888.273 218.917 888.481 219.004 888.679 219.112L894.37 222.2C894.564 222.306 894.747 222.43 894.918 222.57L899.876 226.661C900.045 226.8 900.2 226.956 900.339 227.125L904.43 232.083C904.571 232.253 904.694 232.436 904.8 232.63L907.889 238.321C907.996 238.519 908.084 238.727 908.15 238.942L910.102 245.23C910.17 245.45 910.216 245.676 910.24 245.904L910.92 252.656 910.938 386.999 910.24 394.096C910.216 394.324 910.17 394.55 910.102 394.77L908.15 401.058C908.084 401.273 907.996 401.481 907.889 401.679L904.8 407.37C904.694 407.564 904.571 407.747 904.43 407.917L900.339 412.875C900.2 413.044 900.045 413.2 899.876 413.339L894.918 417.43C894.747 417.571 894.564 417.694 894.37 417.8L888.679 420.888C888.481 420.996 888.274 421.083 888.058 421.15L881.77 423.102C881.55 423.17 881.325 423.216 881.096 423.239L874.344 423.92 163.001 423.937 155.904 423.239C155.675 423.216 155.45 423.17 155.23 423.102L148.942 421.15C148.727 421.083 148.519 420.996 148.321 420.888L142.63 417.8C142.436 417.694 142.253 417.571 142.083 417.43L137.125 413.339C136.955 413.2 136.8 413.045 136.661 412.875L132.57 407.917C132.429 407.747 132.306 407.564 132.2 407.37L129.112 401.679C129.004 401.481 128.917 401.273 128.85 401.058L126.898 394.77C126.83 394.55 126.784 394.324 126.761 394.096L126.08 387.344ZM132.92 386.654 133.601 393.406 133.464 392.732 135.416 399.02 135.154 398.399 138.243 404.09 137.873 403.542 141.964 408.5 141.5 408.036 146.458 412.127 145.91 411.757 151.601 414.846 150.98 414.584 157.268 416.536 156.594 416.399 163.001 417.062 873.655 417.08 880.406 416.399 879.732 416.536 886.02 414.584 885.4 414.846 891.09 411.757 890.542 412.127 895.5 408.036 895.036 408.5 899.127 403.542 898.757 404.09 901.846 398.399 901.584 399.02 903.536 392.732 903.399 393.406 904.062 386.999 904.08 253.346 903.399 246.594 903.536 247.268 901.584 240.98 901.846 241.601 898.757 235.91 899.127 236.458 895.036 231.5 895.5 231.964 890.542 227.873 891.09 228.243 885.4 225.154 886.02 225.416 879.732 223.464 880.406 223.601 873.999 222.938 163.345 222.92 156.594 223.601 157.268 223.464 150.98 225.416 151.601 225.154 145.91 228.243 146.458 227.873 141.5 231.964 141.964 231.5 137.873 236.458 138.243 235.91 135.154 241.601 135.416 240.98 133.464 247.268 133.601 246.594 132.938 253.001Z" fill="#FFFFFF"/><text fill="#FFFFFF" font-family="Arial,Arial_MSFontService,sans-serif" font-weight="700" font-size="60" transform="matrix(1 0 0 1 335.636 342)">Environment</text><path d="M2485.5 219.5 3262.2 219.5 3310.5 320 3262.2 420.5 2485.5 420.5 2533.8 320Z" fill="#0D0953" fill-rule="evenodd"/><path d="M2480.03 216.063 3264.37 216.063 3314.31 320 3264.37 423.937 2480.03 423.937 2530.7 318.511 2530.7 321.489ZM2537.61 320 2488.6 421.989 2485.5 417.062 3262.2 417.062 3259.11 419.011 3307.4 318.511 3307.4 321.489 3259.11 220.989 3262.2 222.938 2485.5 222.938 2488.6 218.011Z" fill="#FFFFFF"/><text fill="#FFFFFF" font-family="Arial,Arial_MSFontService,sans-serif" font-weight="700" font-size="60" transform="matrix(1 0 0 1 2751.7 342)">O</text><text fill="#FFFFFF" font-family="Arial,Arial_MSFontService,sans-serif" font-weight="700" font-size="60" transform="matrix(1 0 0 1 2798.11 342)">utcomes</text><text font-family="Arial,Arial_MSFontService,sans-serif" font-weight="700" font-size="60" transform="matrix(1 0 0 1 173.919 495)">Socioeconomic </text><text font-family="Arial,Arial_MSFontService,sans-serif" font-weight="700" font-size="60" transform="matrix(1 0 0 1 173.919 566)">conditions</text><text font-family="Arial,Arial_MSFontService,sans-serif" font-weight="400" font-size="60" transform="matrix(1 0 0 1 173.919 638)">•</text><text font-family="Arial,Arial_MSFontService,sans-serif" font-weight="400" font-size="60" transform="matrix(1 0 0 1 214.711 638)">Economic growth</text><text font-family="Arial,Arial_MSFontService,sans-serif" font-weight="400" font-size="60" transform="matrix(1 0 0 1 173.919 709)">•</text><text font-family="Arial,Arial_MSFontService,sans-serif" font-weight="400" font-size="60" transform="matrix(1 0 0 1 214.711 709)">Demographic trends</text><text font-family="Arial,Arial_MSFontService,sans-serif" font-weight="400" font-size="60" transform="matrix(1 0 0 1 173.919 781)">•</text><text font-family="Arial,Arial_MSFontService,sans-serif" font-weight="400" font-size="60" transform="matrix(1 0 0 1 214.711 781)">Socioeconomic class </text><text font-family="Arial,Arial_MSFontService,sans-serif" font-weight="400" font-size="60" transform="matrix(1 0 0 1 214.711 852)">composition</text><text font-family="Arial,Arial_MSFontService,sans-serif" font-weight="400" font-size="60" transform="matrix(1 0 0 1 173.919 924)">•</text><text font-family="Arial,Arial_MSFontService,sans-serif" font-weight="400" font-size="60" transform="matrix(1 0 0 1 214.711 924)">Urbanization</text><text font-family="Arial,Arial_MSFontService,sans-serif" font-weight="700" font-size="60" transform="matrix(1 0 0 1 173.919 1028)">Government policies</text><text font-family="Arial,Arial_MSFontService,sans-serif" font-weight="400" font-size="60" transform="matrix(1 0 0 1 173.919 1100)">•</text><text font-family="Arial,Arial_MSFontService,sans-serif" font-weight="400" font-size="60" transform="matrix(1 0 0 1 214.711 1100)">Fiscal / monetary policy</text><text font-family="Arial,Arial_MSFontService,sans-serif" font-weight="400" font-size="60" transform="matrix(1 0 0 1 173.919 1171)">•</text><text font-family="Arial,Arial_MSFontService,sans-serif" font-weight="400" font-size="60" transform="matrix(1 0 0 1 214.711 1171)">Taxes &amp; subsidies</text><text font-family="Arial,Arial_MSFontService,sans-serif" font-weight="400" font-size="60" transform="matrix(1 0 0 1 173.919 1243)">•</text><text font-family="Arial,Arial_MSFontService,sans-serif" font-weight="400" font-size="60" transform="matrix(1 0 0 1 214.711 1243)">Regulations</text><text font-family="Arial,Arial_MSFontService,sans-serif" font-weight="400" font-size="60" transform="matrix(1 0 0 1 173.919 1314)">•</text><text font-family="Arial,Arial_MSFontService,sans-serif" font-weight="400" font-size="60" transform="matrix(1 0 0 1 214.711 1314)">Investment incentives</text><text font-family="Arial,Arial_MSFontService,sans-serif" font-weight="400" font-size="60" transform="matrix(1 0 0 1 173.919 1386)">•</text><text font-family="Arial,Arial_MSFontService,sans-serif" font-weight="400" font-size="60" transform="matrix(1 0 0 1 214.711 1386)">Trade rules</text><text font-family="Arial,Arial_MSFontService,sans-serif" font-weight="400" font-size="60" transform="matrix(1 0 0 1 173.919 1457)">•</text><text font-family="Arial,Arial_MSFontService,sans-serif" font-weight="400" font-size="60" transform="matrix(1 0 0 1 214.711 1457)">Antitrust policy</text><text font-family="Arial,Arial_MSFontService,sans-serif" font-weight="400" font-size="60" transform="matrix(1 0 0 1 173.919 1529)">•</text><text font-family="Arial,Arial_MSFontService,sans-serif" font-weight="400" font-size="60" transform="matrix(1 0 0 1 214.711 1529)">Corruption</text><text font-family="Arial,Arial_MSFontService,sans-serif" font-weight="700" font-size="60" transform="matrix(1 0 0 1 173.919 1633)">Infrastructure</text><text font-family="Arial,Arial_MSFontService,sans-serif" font-weight="400" font-size="60" transform="matrix(1 0 0 1 173.919 1705)">•</text><text font-family="Arial,Arial_MSFontService,sans-serif" font-weight="400" font-size="60" transform="matrix(1 0 0 1 214.711 1705)">Information &amp; </text><text font-family="Arial,Arial_MSFontService,sans-serif" font-weight="400" font-size="60" transform="matrix(1 0 0 1 214.711 1776)">communications </text><text font-family="Arial,Arial_MSFontService,sans-serif" font-weight="400" font-size="60" transform="matrix(1 0 0 1 214.711 1848)">technology (ICT)</text><text font-family="Arial,Arial_MSFontService,sans-serif" font-weight="400" font-size="60" transform="matrix(1 0 0 1 173.919 1919)">•</text><text font-family="Arial,Arial_MSFontService,sans-serif" font-weight="400" font-size="60" transform="matrix(1 0 0 1 214.711 1919)">Transport and logistics</text><text font-family="Arial,Arial_MSFontService,sans-serif" font-weight="400" font-size="60" transform="matrix(1 0 0 1 173.919 1991)">•</text><text font-family="Arial,Arial_MSFontService,sans-serif" font-weight="400" font-size="60" transform="matrix(1 0 0 1 214.711 1991)">Education</text><text font-family="Arial,Arial_MSFontService,sans-serif" font-weight="700" font-size="60" transform="matrix(1 0 0 1 173.919 2095)">Risk</text><text font-family="Arial,Arial_MSFontService,sans-serif" font-weight="400" font-size="60" transform="matrix(1 0 0 1 173.919 2167)">•</text><text font-family="Arial,Arial_MSFontService,sans-serif" font-weight="400" font-size="60" transform="matrix(1 0 0 1 214.711 2167)">Economic</text><text font-family="Arial,Arial_MSFontService,sans-serif" font-weight="400" font-size="60" transform="matrix(1 0 0 1 173.919 2238)">•</text><text font-family="Arial,Arial_MSFontService,sans-serif" font-weight="400" font-size="60" transform="matrix(1 0 0 1 214.711 2238)">Political</text><text font-family="Arial,Arial_MSFontService,sans-serif" font-weight="400" font-size="60" transform="matrix(1 0 0 1 173.919 2310)">•</text><text font-family="Arial,Arial_MSFontService,sans-serif" font-weight="400" font-size="60" transform="matrix(1 0 0 1 214.711 2310)">Technological</text><text font-family="Arial,Arial_MSFontService,sans-serif" font-weight="700" font-size="60" transform="matrix(1 0 0 1 973.711 495)">Market demand</text><text font-family="Arial,Arial_MSFontService,sans-serif" font-weight="400" font-size="60" transform="matrix(1 0 0 1 973.711 566)">•</text><text font-family="Arial,Arial_MSFontService,sans-serif" font-weight="400" font-size="60" transform="matrix(1 0 0 1 1014.5 566)">Category dynamics</text><text font-family="Arial,Arial_MSFontService,sans-serif" font-weight="400" font-size="60" transform="matrix(1 0 0 1 973.711 638)">•</text><text font-family="Arial,Arial_MSFontService,sans-serif" font-weight="400" font-size="60" transform="matrix(1 0 0 1 1014.5 638)">Growth drivers</text><text font-family="Arial,Arial_MSFontService,sans-serif" font-weight="400" font-size="60" transform="matrix(1 0 0 1 973.711 709)">•</text><text font-family="Arial,Arial_MSFontService,sans-serif" font-weight="400" font-size="60" transform="matrix(1 0 0 1 1014.5 709)">Substitutes</text><text font-family="Arial,Arial_MSFontService,sans-serif" font-weight="400" font-size="60" transform="matrix(1 0 0 1 973.711 781)">•</text><text font-family="Arial,Arial_MSFontService,sans-serif" font-weight="400" font-size="60" transform="matrix(1 0 0 1 1014.5 781)">Price &amp; income </text><text font-family="Arial,Arial_MSFontService,sans-serif" font-weight="400" font-size="60" transform="matrix(1 0 0 1 1014.5 852)">elasticity</text><text font-family="Arial,Arial_MSFontService,sans-serif" font-weight="700" font-size="60" transform="matrix(1 0 0 1 973.711 957)">Industry supply</text><text font-family="Arial,Arial_MSFontService,sans-serif" font-weight="400" font-size="60" transform="matrix(1 0 0 1 973.711 1028)">•</text><text font-family="Arial,Arial_MSFontService,sans-serif" font-weight="400" font-size="60" transform="matrix(1 0 0 1 1014.5 1028)">Level of competition</text><text font-family="Arial,Arial_MSFontService,sans-serif" font-weight="400" font-size="60" transform="matrix(1 0 0 1 973.711 1100)">•</text><text font-family="Arial,Arial_MSFontService,sans-serif" font-weight="400" font-size="60" transform="matrix(1 0 0 1 1014.5 1100)">Product differentiation</text><text font-family="Arial,Arial_MSFontService,sans-serif" font-weight="400" font-size="60" transform="matrix(1 0 0 1 973.711 1171)">•</text><text font-family="Arial,Arial_MSFontService,sans-serif" font-weight="400" font-size="60" transform="matrix(1 0 0 1 1014.5 1171)">Brand power</text><text font-family="Arial,Arial_MSFontService,sans-serif" font-weight="400" font-size="60" transform="matrix(1 0 0 1 973.711 1243)">•</text><text font-family="Arial,Arial_MSFontService,sans-serif" font-weight="400" font-size="60" transform="matrix(1 0 0 1 1014.5 1243)">Barriers to entry</text><text font-family="Arial,Arial_MSFontService,sans-serif" font-weight="400" font-size="60" transform="matrix(1 0 0 1 973.711 1314)">•</text><text font-family="Arial,Arial_MSFontService,sans-serif" font-weight="400" font-size="60" transform="matrix(1 0 0 1 1014.5 1314)">Efficiency</text><text font-family="Arial,Arial_MSFontService,sans-serif" font-weight="400" font-size="60" transform="matrix(1 0 0 1 973.711 1386)">•</text><text font-family="Arial,Arial_MSFontService,sans-serif" font-weight="400" font-size="60" transform="matrix(1 0 0 1 1014.5 1386)">Capacity utilization</text><text font-family="Arial,Arial_MSFontService,sans-serif" font-weight="700" font-size="60" transform="matrix(1 0 0 1 973.711 1490)">Value chain economics</text><text font-family="Arial,Arial_MSFontService,sans-serif" font-weight="400" font-size="60" transform="matrix(1 0 0 1 973.711 1562)">•</text><text font-family="Arial,Arial_MSFontService,sans-serif" font-weight="400" font-size="60" transform="matrix(1 0 0 1 1014.5 1562)">Economies of scale / </text><text font-family="Arial,Arial_MSFontService,sans-serif" font-weight="400" font-size="60" transform="matrix(1 0 0 1 1014.5 1633)">scope</text><text font-family="Arial,Arial_MSFontService,sans-serif" font-weight="400" font-size="60" transform="matrix(1 0 0 1 973.711 1705)">•</text><text font-family="Arial,Arial_MSFontService,sans-serif" font-weight="400" font-size="60" transform="matrix(1 0 0 1 1014.5 1705)">Supplier economics</text><text font-family="Arial,Arial_MSFontService,sans-serif" font-weight="400" font-size="60" transform="matrix(1 0 0 1 973.711 1776)">•</text><text font-family="Arial,Arial_MSFontService,sans-serif" font-weight="400" font-size="60" transform="matrix(1 0 0 1 1014.5 1776)">Marketing effectiveness</text><text font-family="Arial,Arial_MSFontService,sans-serif" font-weight="400" font-size="60" transform="matrix(1 0 0 1 973.711 1848)">•</text><text font-family="Arial,Arial_MSFontService,sans-serif" font-weight="400" font-size="60" transform="matrix(1 0 0 1 1014.5 1848)">Distribution economics</text><text font-family="Arial,Arial_MSFontService,sans-serif" font-weight="700" font-size="60" transform="matrix(1 0 0 1 973.711 1952)">Company position</text><text font-family="Arial,Arial_MSFontService,sans-serif" font-weight="400" font-size="60" transform="matrix(1 0 0 1 973.711 2024)">•</text><text font-family="Arial,Arial_MSFontService,sans-serif" font-weight="400" font-size="60" transform="matrix(1 0 0 1 1014.5 2024)">Competitive advantage</text><text font-family="Arial,Arial_MSFontService,sans-serif" font-weight="400" font-size="60" transform="matrix(1 0 0 1 973.711 2095)">•</text><text font-family="Arial,Arial_MSFontService,sans-serif" font-weight="400" font-size="60" transform="matrix(1 0 0 1 1014.5 2095)">Resource base</text><text font-family="Arial,Arial_MSFontService,sans-serif" font-weight="400" font-size="60" transform="matrix(1 0 0 1 973.711 2167)">•</text><text font-family="Arial,Arial_MSFontService,sans-serif" font-weight="400" font-size="60" transform="matrix(1 0 0 1 1014.5 2167)">Societal standing</text><text font-family="Arial,Arial_MSFontService,sans-serif" font-weight="700" font-size="60" transform="matrix(1 0 0 1 2528.61 495)">Market performance</text><text font-family="Arial,Arial_MSFontService,sans-serif" font-weight="400" font-size="60" transform="matrix(1 0 0 1 2528.61 566)">•</text><text font-family="Arial,Arial_MSFontService,sans-serif" font-weight="400" font-size="60" transform="matrix(1 0 0 1 2569.4 566)">Market growth</text><text font-family="Arial,Arial_MSFontService,sans-serif" font-weight="400" font-size="60" transform="matrix(1 0 0 1 2528.61 638)">•</text><text font-family="Arial,Arial_MSFontService,sans-serif" font-weight="400" font-size="60" transform="matrix(1 0 0 1 2569.4 638)">Price trends</text><text font-family="Arial,Arial_MSFontService,sans-serif" font-weight="400" font-size="60" transform="matrix(1 0 0 1 2528.61 709)">•</text><text font-family="Arial,Arial_MSFontService,sans-serif" font-weight="400" font-size="60" transform="matrix(1 0 0 1 2569.4 709)">Share relative to </text><text font-family="Arial,Arial_MSFontService,sans-serif" font-weight="400" font-size="60" transform="matrix(1 0 0 1 2569.4 781)">substitutes</text><text font-family="Arial,Arial_MSFontService,sans-serif" font-weight="400" font-size="60" transform="matrix(1 0 0 1 2528.61 852)">•</text><text font-family="Arial,Arial_MSFontService,sans-serif" font-weight="400" font-size="60" transform="matrix(1 0 0 1 2569.4 852)">Industry value &amp; profit </text><text font-family="Arial,Arial_MSFontService,sans-serif" font-weight="400" font-size="60" transform="matrix(1 0 0 1 2569.4 924)">pools</text><text font-family="Arial,Arial_MSFontService,sans-serif" font-weight="700" font-size="60" transform="matrix(1 0 0 1 2528.61 1028)">Player performance</text><text font-family="Arial,Arial_MSFontService,sans-serif" font-weight="400" font-size="60" transform="matrix(1 0 0 1 2528.61 1100)">•</text><text font-family="Arial,Arial_MSFontService,sans-serif" font-weight="400" font-size="60" transform="matrix(1 0 0 1 2569.4 1100)">Productivity</text><text font-family="Arial,Arial_MSFontService,sans-serif" font-weight="400" font-size="60" transform="matrix(1 0 0 1 2528.61 1171)">•</text><text font-family="Arial,Arial_MSFontService,sans-serif" font-weight="400" font-size="60" transform="matrix(1 0 0 1 2569.4 1171)">Organizational </text><text font-family="Arial,Arial_MSFontService,sans-serif" font-weight="400" font-size="60" transform="matrix(1 0 0 1 2569.4 1243)">effectiveness</text><text font-family="Arial,Arial_MSFontService,sans-serif" font-weight="400" font-size="60" transform="matrix(1 0 0 1 2528.61 1314)">•</text><text font-family="Arial,Arial_MSFontService,sans-serif" font-weight="400" font-size="60" transform="matrix(1 0 0 1 2569.4 1314)">Growth</text><text font-family="Arial,Arial_MSFontService,sans-serif" font-weight="400" font-size="60" transform="matrix(1 0 0 1 2528.61 1386)">•</text><text font-family="Arial,Arial_MSFontService,sans-serif" font-weight="400" font-size="60" transform="matrix(1 0 0 1 2569.4 1386)">Relative market shares</text><text font-family="Arial,Arial_MSFontService,sans-serif" font-weight="400" font-size="60" transform="matrix(1 0 0 1 2528.61 1457)">•</text><text font-family="Arial,Arial_MSFontService,sans-serif" font-weight="400" font-size="60" transform="matrix(1 0 0 1 2569.4 1457)">Profitability</text><text font-family="Arial,Arial_MSFontService,sans-serif" font-weight="400" font-size="60" transform="matrix(1 0 0 1 2528.61 1529)">•</text><text font-family="Arial,Arial_MSFontService,sans-serif" font-weight="400" font-size="60" transform="matrix(1 0 0 1 2569.4 1529)">Cost of capital</text><text font-family="Arial,Arial_MSFontService,sans-serif" font-weight="400" font-size="60" transform="matrix(1 0 0 1 2528.61 1600)">•</text><text font-family="Arial,Arial_MSFontService,sans-serif" font-weight="400" font-size="60" transform="matrix(1 0 0 1 2569.4 1600)">Share of profit pool</text><text font-family="Arial,Arial_MSFontService,sans-serif" font-weight="700" font-size="60" transform="matrix(1 0 0 1 1728.24 495)">Strategic priorities</text><text font-family="Arial,Arial_MSFontService,sans-serif" font-weight="400" font-size="60" transform="matrix(1 0 0 1 1728.24 566)">•</text><text font-family="Arial,Arial_MSFontService,sans-serif" font-weight="400" font-size="60" transform="matrix(1 0 0 1 1769.03 566)">Market breadth</text><text font-family="Arial,Arial_MSFontService,sans-serif" font-weight="400" font-size="60" transform="matrix(1 0 0 1 1728.24 638)">•</text><text font-family="Arial,Arial_MSFontService,sans-serif" font-weight="400" font-size="60" transform="matrix(1 0 0 1 1769.03 638)">Geographic reach</text><text font-family="Arial,Arial_MSFontService,sans-serif" font-weight="400" font-size="60" transform="matrix(1 0 0 1 1728.24 709)">•</text><text font-family="Arial,Arial_MSFontService,sans-serif" font-weight="400" font-size="60" transform="matrix(1 0 0 1 1769.03 709)">Vertical depth</text><text font-family="Arial,Arial_MSFontService,sans-serif" font-weight="700" font-size="60" transform="matrix(1 0 0 1 1728.24 814)">Commercial activities</text><text font-family="Arial,Arial_MSFontService,sans-serif" font-weight="400" font-size="60" transform="matrix(1 0 0 1 1728.24 885)">•</text><text font-family="Arial,Arial_MSFontService,sans-serif" font-weight="400" font-size="60" transform="matrix(1 0 0 1 1769.03 885)">Product portfolio</text><text font-family="Arial,Arial_MSFontService,sans-serif" font-weight="400" font-size="60" transform="matrix(1 0 0 1 1728.24 957)">•</text><text font-family="Arial,Arial_MSFontService,sans-serif" font-weight="400" font-size="60" transform="matrix(1 0 0 1 1769.03 957)">Pricing</text><text font-family="Arial,Arial_MSFontService,sans-serif" font-weight="400" font-size="60" transform="matrix(1 0 0 1 1728.24 1028)">•</text><text font-family="Arial,Arial_MSFontService,sans-serif" font-weight="400" font-size="60" transform="matrix(1 0 0 1 1769.03 1028)">Marketing spending</text><text font-family="Arial,Arial_MSFontService,sans-serif" font-weight="400" font-size="60" transform="matrix(1 0 0 1 1728.24 1100)">•</text><text font-family="Arial,Arial_MSFontService,sans-serif" font-weight="400" font-size="60" transform="matrix(1 0 0 1 1769.03 1100)">Route</text><text font-family="Arial,Arial_MSFontService,sans-serif" font-weight="400" font-size="60" transform="matrix(1 0 0 1 1928.3 1100)">-</text><text font-family="Arial,Arial_MSFontService,sans-serif" font-weight="400" font-size="60" transform="matrix(1 0 0 1 1948.36 1100)">to</text><text font-family="Arial,Arial_MSFontService,sans-serif" font-weight="400" font-size="60" transform="matrix(1 0 0 1 1998.2 1100)">-</text><text font-family="Arial,Arial_MSFontService,sans-serif" font-weight="400" font-size="60" transform="matrix(1 0 0 1 2018.25 1100)">market / </text><text font-family="Arial,Arial_MSFontService,sans-serif" font-weight="400" font-size="60" transform="matrix(1 0 0 1 1769.03 1171)">channels</text><text font-family="Arial,Arial_MSFontService,sans-serif" font-weight="400" font-size="60" transform="matrix(1 0 0 1 1728.24 1243)">•</text><text font-family="Arial,Arial_MSFontService,sans-serif" font-weight="400" font-size="60" transform="matrix(1 0 0 1 1769.03 1243)">New product </text><text font-family="Arial,Arial_MSFontService,sans-serif" font-weight="400" font-size="60" transform="matrix(1 0 0 1 1769.03 1314)">development / innovation</text><text font-family="Arial,Arial_MSFontService,sans-serif" font-weight="700" font-size="60" transform="matrix(1 0 0 1 1728.24 1419)">Supply chain activities</text><text font-family="Arial,Arial_MSFontService,sans-serif" font-weight="400" font-size="60" transform="matrix(1 0 0 1 1728.24 1490)">•</text><text font-family="Arial,Arial_MSFontService,sans-serif" font-weight="400" font-size="60" transform="matrix(1 0 0 1 1769.03 1490)">Production processes</text><text font-family="Arial,Arial_MSFontService,sans-serif" font-weight="400" font-size="60" transform="matrix(1 0 0 1 1728.24 1562)">•</text><text font-family="Arial,Arial_MSFontService,sans-serif" font-weight="400" font-size="60" transform="matrix(1 0 0 1 1769.03 1562)">Procurement</text><text font-family="Arial,Arial_MSFontService,sans-serif" font-weight="400" font-size="60" transform="matrix(1 0 0 1 1728.24 1633)">•</text><text font-family="Arial,Arial_MSFontService,sans-serif" font-weight="400" font-size="60" transform="matrix(1 0 0 1 1769.03 1633)">R&amp;D priorities</text><text font-family="Arial,Arial_MSFontService,sans-serif" font-weight="700" font-size="60" transform="matrix(1 0 0 1 1728.24 1738)">Finance</text><text font-family="Arial,Arial_MSFontService,sans-serif" font-weight="400" font-size="60" transform="matrix(1 0 0 1 1728.24 1809)">•</text><text font-family="Arial,Arial_MSFontService,sans-serif" font-weight="400" font-size="60" transform="matrix(1 0 0 1 1769.03 1809)">Funding gaps</text><text font-family="Arial,Arial_MSFontService,sans-serif" font-weight="400" font-size="60" transform="matrix(1 0 0 1 1728.24 1881)">•</text><text font-family="Arial,Arial_MSFontService,sans-serif" font-weight="400" font-size="60" transform="matrix(1 0 0 1 1769.03 1881)">Capital spending </text><text font-family="Arial,Arial_MSFontService,sans-serif" font-weight="400" font-size="60" transform="matrix(1 0 0 1 1769.03 1952)">priorities</text><text font-family="Arial,Arial_MSFontService,sans-serif" font-weight="700" font-size="60" transform="matrix(1 0 0 1 1728.24 2057)">Resources</text><text font-family="Arial,Arial_MSFontService,sans-serif" font-weight="400" font-size="60" transform="matrix(1 0 0 1 1728.24 2128)">•</text><text font-family="Arial,Arial_MSFontService,sans-serif" font-weight="400" font-size="60" transform="matrix(1 0 0 1 1769.03 2128)">Resource acquisition</text><text font-family="Arial,Arial_MSFontService,sans-serif" font-weight="400" font-size="60" transform="matrix(1 0 0 1 1728.24 2200)">•</text><text font-family="Arial,Arial_MSFontService,sans-serif" font-weight="400" font-size="60" transform="matrix(1 0 0 1 1769.03 2200)">Competence building</text></g></svg>