<svg width="1662" height="984" xmlns="http://www.w3.org/2000/svg" xmlns:xlink="http://www.w3.org/1999/xlink" xml:space="preserve" overflow="hidden"><g transform="translate(-355 -1172)"><text font-family="Arial,Arial_MSFontService,sans-serif" font-weight="700" font-size="64" transform="matrix(1 0 0 1 395.615 1254)">BIRGER WERNERFELT’S RESOURCE</text><text font-family="Arial,Arial_MSFontService,sans-serif" font-weight="700" font-size="64" transform="matrix(1 0 0 1 1546.99 1254)">-</text><text font-family="Arial,Arial_MSFontService,sans-serif" font-weight="700" font-size="64" transform="matrix(1 0 0 1 1568.19 1254)">BASED VIEW</text><rect x="927" y="1526" width="517" height="52.9999" fill="#FFFFFF"/><text font-family="Arial,Arial_MSFontService,sans-serif" font-style="italic" font-weight="400" font-size="55" transform="matrix(1 0 0 1 961.851 1566)">build on resources</text><rect x="974" y="1696" width="424" height="67" fill="#FFFFFF"/><text font-family="Arial,Arial_MSFontService,sans-serif" font-style="italic" font-weight="400" font-size="55" transform="matrix(1 0 0 1 1034.33 1749)">that must be</text><rect x="571" y="1480" width="345" height="145" fill="#01675F"/><text fill="#FFFFFF" font-family="Arial,Arial_MSFontService,sans-serif" font-weight="700" font-size="55" transform="matrix(1 0 0 1 631.97 1566)">Tangible</text><rect x="1455" y="1480" width="345" height="145" fill="#01675F"/><text fill="#FFFFFF" font-family="Arial,Arial_MSFontService,sans-serif" font-weight="700" font-size="55" transform="matrix(1 0 0 1 1497.44 1566)">Intangible</text><path d="M0.675886-1.58028 176.203 73.493 174.852 76.6535-0.675886 1.58028ZM176.721 60.6286 196.598 84.085 165.906 85.9131Z" transform="matrix(-1 0 0 1 940.098 1396.5)"/><path d="M1433.18 1394.92 1607.57 1469.95 1606.21 1473.11 1431.82 1398.08ZM1608.11 1457.09 1627.94 1480.59 1597.24 1482.35Z"/><rect x="571" y="1657" width="345" height="145" fill="#01675F"/><text fill="#FFFFFF" font-family="Arial,Arial_MSFontService,sans-serif" font-weight="700" font-size="55" transform="matrix(1 0 0 1 647.404 1717)">Hetero</text><text fill="#FFFFFF" font-family="Arial,Arial_MSFontService,sans-serif" font-weight="700" font-size="55" transform="matrix(1 0 0 1 820.998 1717)">-</text><text fill="#FFFFFF" font-family="Arial,Arial_MSFontService,sans-serif" font-weight="700" font-size="55" transform="matrix(1 0 0 1 630.217 1770)">geneous</text><rect x="1455" y="1657" width="345" height="145" fill="#01675F"/><text fill="#FFFFFF" font-family="Arial,Arial_MSFontService,sans-serif" font-weight="700" font-size="55" transform="matrix(1 0 0 1 1506.9 1743)">Immobile</text><rect x="940" y="1807" width="492" height="145" fill="#8D510B"/><text fill="#FFFFFF" font-family="Arial,Arial_MSFontService,sans-serif" font-weight="700" font-size="55" transform="matrix(1 0 0 1 1118.84 1867)">VRIO</text><text fill="#FFFFFF" font-family="Arial,Arial_MSFontService,sans-serif" font-weight="700" font-size="55" transform="matrix(1 0 0 1 1055.24 1920)">resources</text><rect x="792" y="2011" width="788" height="145" fill="#A10949"/><text fill="#FFFFFF" font-family="Arial,Arial_MSFontService,sans-serif" font-weight="700" font-size="55" transform="matrix(1 0 0 1 885.373 2097)">Competitive advantage</text><path d="M1187.22 1952.5 1187.22 1988.61 1183.78 1988.61 1183.78 1952.5ZM1199.25 1984.02 1185.5 2011.52 1171.75 1984.02Z"/><rect x="940" y="1323" width="492" height="145" fill="#0D0953"/><text fill="#FFFFFF" font-family="Arial,Arial_MSFontService,sans-serif" font-weight="700" font-size="55" transform="matrix(1 0 0 1 1038.06 1416)">Companies</text><path d="M744.128 1800.9 919.397 1869.75 918.14 1872.95 742.872 1804.1ZM919.529 1856.88 940.098 1879.73 909.475 1882.47Z"/><path d="M0.631638-1.59848 174.758 67.2074 173.495 70.4044-0.631638 1.59848ZM174.917 54.3337 195.439 77.2277 164.811 79.9094Z" transform="matrix(-1 0 0 1 1627.94 1802.5)"/></g></svg>