<svg width="2637" height="1273" xmlns="http://www.w3.org/2000/svg" xmlns:xlink="http://www.w3.org/1999/xlink" xml:space="preserve" overflow="hidden"><defs><clipPath id="clip0"><rect x="679" y="489" width="2637" height="1273"/></clipPath><clipPath id="clip1"><rect x="1184" y="844" width="868" height="663"/></clipPath><clipPath id="clip2"><rect x="1184" y="844" width="868" height="663"/></clipPath><clipPath id="clip3"><rect x="1184" y="844" width="868" height="663"/></clipPath><clipPath id="clip4"><rect x="1184" y="844" width="868" height="663"/></clipPath></defs><g clip-path="url(#clip0)" transform="translate(-679 -489)"><g><path d="M1357.54 844.5 1357.54 1504.5M1530.55 844.5 1530.55 1504.5M1702.56 844.5 1702.56 1504.5M1875.56 844.5 1875.56 1504.5M2048.5 844.5 2048.5 1504.5" stroke="#E3E3E3" stroke-width="3.4375" stroke-linejoin="round" stroke-miterlimit="10" fill="none"/></g><g clip-path="url(#clip1)"><rect x="1184" y="1381" width="128" height="82.0001"/></g><g clip-path="url(#clip2)"><rect x="1184" y="1216" width="128" height="82.0001"/></g><g clip-path="url(#clip3)"><rect x="1184" y="1051" width="641" height="82.0001"/></g><g clip-path="url(#clip4)"><rect x="1184" y="886" width="833" height="82.0002"/></g><g><path d="M0 0 0.000360892 660" stroke="#E3E3E3" stroke-width="3.4375" stroke-linejoin="round" stroke-miterlimit="10" fill="none" fill-rule="evenodd" transform="matrix(1 0 0 -1 1184.5 1504.5)"/></g><g><text fill="#424242" font-family="Arial,Arial_MSFontService,sans-serif" font-weight="400" font-size="55" transform="matrix(1 0 0 1 1144.62 1588)">0%</text></g><g><text fill="#424242" font-family="Arial,Arial_MSFontService,sans-serif" font-weight="400" font-size="55" transform="matrix(1 0 0 1 1302.21 1588)">10%</text></g><g><text fill="#424242" font-family="Arial,Arial_MSFontService,sans-serif" font-weight="400" font-size="55" transform="matrix(1 0 0 1 1475.1 1588)">20%</text></g><g><text fill="#424242" font-family="Arial,Arial_MSFontService,sans-serif" font-weight="400" font-size="55" transform="matrix(1 0 0 1 1647.99 1588)">30%</text></g><g><text fill="#424242" font-family="Arial,Arial_MSFontService,sans-serif" font-weight="400" font-size="55" transform="matrix(1 0 0 1 1820.87 1588)">40%</text></g><g><text fill="#424242" font-family="Arial,Arial_MSFontService,sans-serif" font-weight="400" font-size="55" transform="matrix(1 0 0 1 1993.76 1588)">50%</text></g><g><text fill="#424242" font-family="Arial,Arial_MSFontService,sans-serif" font-weight="400" font-size="55" transform="matrix(1 0 0 1 708.978 1440)">Strongly disagree</text></g><g><text fill="#424242" font-family="Arial,Arial_MSFontService,sans-serif" font-weight="400" font-size="55" transform="matrix(1 0 0 1 916.925 1275)">Disagree</text></g><g><text fill="#424242" font-family="Arial,Arial_MSFontService,sans-serif" font-weight="400" font-size="55" transform="matrix(1 0 0 1 990.259 1110)">Agree</text></g><g><text fill="#424242" font-family="Arial,Arial_MSFontService,sans-serif" font-weight="400" font-size="55" transform="matrix(1 0 0 1 779.286 945)">Strongly agree</text></g><g><text fill="#424242" font-family="Arial,Arial_MSFontService,sans-serif" font-weight="700" font-size="60" transform="matrix(1 0 0 1 1041.03 706)">Strategic planning content </text></g><g><text fill="#424242" font-family="Arial,Arial_MSFontService,sans-serif" font-weight="700" font-size="60" transform="matrix(1 0 0 1 1246.2 774)">is valuable?</text></g><g><path d="M2335.5 844.5 2335.5 1504.5M2510.58 844.5 2510.58 1504.5M2685.59 844.5 2685.59 1504.5M2860.59 844.5 2860.59 1504.5M3035.6 844.5 3035.6 1504.5M3210.5 844.5 3210.5 1504.5" stroke="#E3E3E3" stroke-width="3.4375" stroke-linejoin="round" stroke-miterlimit="10" fill="none"/></g><g><rect x="2336" y="1381" width="609" height="82.0001"/></g><g><rect x="2336" y="1216" width="456" height="82.0001"/></g><g><rect x="2336" y="1051" width="380" height="82.0001"/></g><g><rect x="2336" y="886" width="304" height="82.0002"/></g><g><text fill="#424242" font-family="Arial,Arial_MSFontService,sans-serif" font-weight="400" font-size="55" transform="matrix(1 0 0 1 2296.15 1588)">0%</text></g><g><text fill="#424242" font-family="Arial,Arial_MSFontService,sans-serif" font-weight="400" font-size="55" transform="matrix(1 0 0 1 2455.83 1588)">10%</text></g><g><text fill="#424242" font-family="Arial,Arial_MSFontService,sans-serif" font-weight="400" font-size="55" transform="matrix(1 0 0 1 2630.8 1588)">20%</text></g><g><text fill="#424242" font-family="Arial,Arial_MSFontService,sans-serif" font-weight="400" font-size="55" transform="matrix(1 0 0 1 2805.78 1588)">30%</text></g><g><text fill="#424242" font-family="Arial,Arial_MSFontService,sans-serif" font-weight="400" font-size="55" transform="matrix(1 0 0 1 2980.75 1588)">40%</text></g><g><text fill="#424242" font-family="Arial,Arial_MSFontService,sans-serif" font-weight="400" font-size="55" transform="matrix(1 0 0 1 3155.73 1588)">50%</text></g><g><text fill="#424242" font-family="Arial,Arial_MSFontService,sans-serif" font-weight="700" font-size="60" transform="matrix(1 0 0 1 2398.6 706)">Strategic planning process </text></g><g><text fill="#424242" font-family="Arial,Arial_MSFontService,sans-serif" font-weight="700" font-size="60" transform="matrix(1 0 0 1 2612.13 774)">works well? </text></g><text font-family="Arial,Arial_MSFontService,sans-serif" font-weight="400" font-size="50" transform="matrix(1 0 0 1 1145.6 1720)">Source: Tellusant </text><text font-family="Arial,Arial_MSFontService,sans-serif" font-weight="400" font-size="50" transform="matrix(1 0 0 1 1551.8 1720)">survey </text><text font-family="Arial,Arial_MSFontService,sans-serif" font-weight="400" font-size="50" transform="matrix(1 0 0 1 1713.94 1720)">and interviews</text><text font-family="Arial,Arial_MSFontService,sans-serif" font-weight="700" font-size="64" transform="matrix(1 0 0 1 1446.7 570)">STRATEGIC PLANNING </text><text font-family="Arial,Arial_MSFontService,sans-serif" font-weight="700" font-size="64" transform="matrix(1 0 0 1 2183.29 570)">SURVEY RESULTS</text></g></svg>