<svg width="2295" height="1894" xmlns="http://www.w3.org/2000/svg" xmlns:xlink="http://www.w3.org/1999/xlink" xml:space="preserve" overflow="hidden"><g transform="translate(-84 -475)"><text font-family="Arial,Arial_MSFontService,sans-serif" font-weight="700" font-size="69" transform="matrix(1 0 0 1 495.816 563)">CORPORATE DECISION</text><text font-family="Arial,Arial_MSFontService,sans-serif" font-weight="700" font-size="69" transform="matrix(1 0 0 1 1281.33 563)">-</text><text font-family="Arial,Arial_MSFontService,sans-serif" font-weight="700" font-size="69" transform="matrix(1 0 0 1 1304.25 563)">MAKING FRAMEWORK</text><path d="M86.5001 694.548C86.5001 668.012 108.012 646.5 134.548 646.5L566.452 646.5C592.988 646.5 614.5 668.012 614.5 694.548L614.5 2294.45C614.5 2320.99 592.988 2342.5 566.452 2342.5L134.548 2342.5C108.012 2342.5 86.5001 2320.99 86.5001 2294.45Z" stroke="#000000" stroke-width="4.58333" stroke-miterlimit="8" fill="#0D0953" fill-rule="evenodd"/><path d="M136 1215.5C136 1194.24 153.237 1177 174.501 1177L526.499 1177C547.763 1177 565 1194.24 565 1215.5L565 1369.5C565 1390.76 547.763 1408 526.499 1408L174.501 1408C153.237 1408 136 1390.76 136 1369.5Z" fill="#DAE3F3" fill-rule="evenodd"/><text font-family="Arial,Arial_MSFontService,sans-serif" font-weight="700" font-size="55" transform="matrix(1 0 0 1 226.596 1247)">Real</text><text font-family="Arial,Arial_MSFontService,sans-serif" font-weight="700" font-size="55" transform="matrix(1 0 0 1 342.325 1247)">-</text><text font-family="Arial,Arial_MSFontService,sans-serif" font-weight="700" font-size="55" transform="matrix(1 0 0 1 360.658 1247)">time </text><text font-family="Arial,Arial_MSFontService,sans-serif" font-weight="700" font-size="55" transform="matrix(1 0 0 1 237.206 1313)">scenario</text><text font-family="Arial,Arial_MSFontService,sans-serif" font-weight="700" font-size="55" transform="matrix(1 0 0 1 223.158 1379)">capability</text><path d="M136 925.501C136 904.237 153.237 887 174.501 887L526.499 887C547.763 887 565 904.237 565 925.501L565 1079.5C565 1100.76 547.763 1118 526.499 1118L174.501 1118C153.237 1118 136 1100.76 136 1079.5Z" fill="#DAE3F3" fill-rule="evenodd"/><text font-family="Arial,Arial_MSFontService,sans-serif" font-weight="700" font-size="55" transform="matrix(1 0 0 1 192.221 957)">High quality</text><text font-family="Arial,Arial_MSFontService,sans-serif" font-weight="700" font-size="55" transform="matrix(1 0 0 1 205.971 1023)">supporting</text><text font-family="Arial,Arial_MSFontService,sans-serif" font-weight="700" font-size="55" transform="matrix(1 0 0 1 229.758 1089)">materials</text><path d="M136 1502.5C136 1481.24 153.237 1464 174.501 1464L526.499 1464C547.763 1464 565 1481.24 565 1502.5L565 1656.5C565 1677.76 547.763 1695 526.499 1695L174.501 1695C153.237 1695 136 1677.76 136 1656.5Z" fill="#DAE3F3" fill-rule="evenodd"/><text font-family="Arial,Arial_MSFontService,sans-serif" font-weight="700" font-size="55" transform="matrix(1 0 0 1 208.469 1600)">Timeliness</text><path d="M136 1794.5C136 1773.24 153.237 1756 174.501 1756L526.499 1756C547.763 1756 565 1773.24 565 1794.5L565 1948.5C565 1969.76 547.763 1987 526.499 1987L174.501 1987C153.237 1987 136 1969.76 136 1948.5Z" fill="#DAE3F3" fill-rule="evenodd"/><text font-family="Arial,Arial_MSFontService,sans-serif" font-weight="700" font-size="55" transform="matrix(1 0 0 1 183.054 1892)">Right people</text><path d="M136 2084.5C136 2063.24 153.237 2046 174.501 2046L526.499 2046C547.763 2046 565 2063.24 565 2084.5L565 2238.5C565 2259.76 547.763 2277 526.499 2277L174.501 2277C153.237 2277 136 2259.76 136 2238.5Z" fill="#DAE3F3" fill-rule="evenodd"/><text font-family="Arial,Arial_MSFontService,sans-serif" font-weight="700" font-size="55" transform="matrix(1 0 0 1 191.063 2115)">Collaborativ</text><text font-family="Arial,Arial_MSFontService,sans-serif" font-weight="700" font-size="55" transform="matrix(1 0 0 1 334.866 2181)">e</text><text font-family="Arial,Arial_MSFontService,sans-serif" font-weight="700" font-size="55" transform="matrix(1 0 0 1 185.059 2247)">environment</text><text fill="#FFFFFF" font-family="Arial,Arial_MSFontService,sans-serif" font-weight="700" font-size="60" transform="matrix(1 0 0 1 217.144 755)">Decision </text><text fill="#FFFFFF" font-family="Arial,Arial_MSFontService,sans-serif" font-weight="700" font-size="60" transform="matrix(1 0 0 1 224.019 826)">Enablers</text><path d="M602.5 1570.19 707.445 1570.19 707.445 1590.81 602.5 1590.81ZM697.133 1549.56 759.008 1580.5 697.133 1611.44Z" fill="#0D0953"/><path d="M1848.5 1503C1848.5 1481.74 1865.74 1464.5 1887 1464.5L2338 1464.5C2359.26 1464.5 2376.5 1481.74 2376.5 1503L2376.5 1657C2376.5 1678.26 2359.26 1695.5 2338 1695.5L1887 1695.5C1865.74 1695.5 1848.5 1678.26 1848.5 1657Z" stroke="#000000" stroke-width="4.58333" stroke-miterlimit="8" fill="#0D0953" fill-rule="evenodd"/><text fill="#FFFFFF" font-family="Arial,Arial_MSFontService,sans-serif" font-weight="400" font-size="64" transform="matrix(1 0 0 1 1969.54 1565)">Corporate</text><text fill="#FFFFFF" font-family="Arial,Arial_MSFontService,sans-serif" font-weight="400" font-size="64" transform="matrix(1 0 0 1 1928.59 1642)">Performance</text><path d="M1304.5 1503C1304.5 1481.74 1321.74 1464.5 1343 1464.5L1695 1464.5C1716.26 1464.5 1733.5 1481.74 1733.5 1503L1733.5 1657C1733.5 1678.26 1716.26 1695.5 1695 1695.5L1343 1695.5C1321.74 1695.5 1304.5 1678.26 1304.5 1657Z" stroke="#000000" stroke-width="4.58333" stroke-miterlimit="8" fill="#0D0953" fill-rule="evenodd"/><text fill="#FFFFFF" font-family="Arial,Arial_MSFontService,sans-serif" font-weight="400" font-size="64" transform="matrix(1 0 0 1 1395.87 1565)">Decision</text><text fill="#FFFFFF" font-family="Arial,Arial_MSFontService,sans-serif" font-weight="400" font-size="64" transform="matrix(1 0 0 1 1415.64 1642)">Making</text><path d="M1304.5 1899C1304.5 1877.74 1321.74 1860.5 1343 1860.5L1695 1860.5C1716.26 1860.5 1733.5 1877.74 1733.5 1899L1733.5 2053C1733.5 2074.26 1716.26 2091.5 1695 2091.5L1343 2091.5C1321.74 2091.5 1304.5 2074.26 1304.5 2053Z" stroke="#0D0953" stroke-width="4.58333" stroke-miterlimit="8" fill="#DAE3F3" fill-rule="evenodd"/><text font-family="Arial,Arial_MSFontService,sans-serif" font-weight="700" font-size="55" transform="matrix(1 0 0 1 1413.05 1963)">Intuitive</text><text font-family="Arial,Arial_MSFontService,sans-serif" font-weight="700" font-size="55" transform="matrix(1 0 0 1 1456.32 2029)">style</text><path d="M1304.5 1108C1304.5 1086.74 1321.74 1069.5 1343 1069.5L1695 1069.5C1716.26 1069.5 1733.5 1086.74 1733.5 1108L1733.5 1262C1733.5 1283.26 1716.26 1300.5 1695 1300.5L1343 1300.5C1321.74 1300.5 1304.5 1283.26 1304.5 1262Z" stroke="#0D0953" stroke-width="4.58333" stroke-miterlimit="8" fill="#DAE3F3" fill-rule="evenodd"/><text font-family="Arial,Arial_MSFontService,sans-serif" font-weight="700" font-size="55" transform="matrix(1 0 0 1 1410.19 1172)">Rational</text><text font-family="Arial,Arial_MSFontService,sans-serif" font-weight="700" font-size="55" transform="matrix(1 0 0 1 1456.32 1238)">style</text><path d="M758.5 1503C758.5 1481.74 775.738 1464.5 797.001 1464.5L1149 1464.5C1170.26 1464.5 1187.5 1481.74 1187.5 1503L1187.5 1657C1187.5 1678.26 1170.26 1695.5 1149 1695.5L797.001 1695.5C775.738 1695.5 758.5 1678.26 758.5 1657Z" stroke="#000000" stroke-width="4.58333" stroke-miterlimit="8" fill="#0D0953" fill-rule="evenodd"/><text fill="#FFFFFF" font-family="Arial,Arial_MSFontService,sans-serif" font-weight="700" font-size="64" transform="matrix(1 0 0 1 839.667 1565)">Decision</text><text fill="#FFFFFF" font-family="Arial,Arial_MSFontService,sans-serif" font-weight="700" font-size="64" transform="matrix(1 0 0 1 853.99 1642)">Context</text><path d="M758.5 1108C758.5 1086.74 775.738 1069.5 797.001 1069.5L1149 1069.5C1170.26 1069.5 1187.5 1086.74 1187.5 1108L1187.5 1262C1187.5 1283.26 1170.26 1300.5 1149 1300.5L797.001 1300.5C775.738 1300.5 758.5 1283.26 758.5 1262Z" stroke="#0D0953" stroke-width="4.58333" stroke-miterlimit="8" fill="#DAE3F3" fill-rule="evenodd"/><text font-family="Arial,Arial_MSFontService,sans-serif" font-weight="700" font-size="55" transform="matrix(1 0 0 1 852.558 1139)">Correctly</text><text font-family="Arial,Arial_MSFontService,sans-serif" font-weight="700" font-size="55" transform="matrix(1 0 0 1 881.479 1205)">framed </text><text font-family="Arial,Arial_MSFontService,sans-serif" font-weight="700" font-size="55" transform="matrix(1 0 0 1 887.506 1271)">issues</text><path d="M758.5 1899C758.5 1877.74 775.738 1860.5 797.001 1860.5L1149 1860.5C1170.26 1860.5 1187.5 1877.74 1187.5 1899L1187.5 2053C1187.5 2074.26 1170.26 2091.5 1149 2091.5L797.001 2091.5C775.738 2091.5 758.5 2074.26 758.5 2053Z" stroke="#0D0953" stroke-width="4.58333" stroke-miterlimit="8" fill="#DAE3F3" fill-rule="evenodd"/><text font-family="Arial,Arial_MSFontService,sans-serif" font-weight="700" font-size="55" transform="matrix(1 0 0 1 864.303 1963)">Efficient</text><text font-family="Arial,Arial_MSFontService,sans-serif" font-weight="700" font-size="55" transform="matrix(1 0 0 1 837.376 2029)">processes</text><path d="M983.812 1300.5 983.813 1412.56 963.188 1412.56 963.188 1300.5ZM1004.44 1402.25 973.5 1464.12 942.563 1402.25Z" fill="#0D0953"/><path d="M10.3125-2.25398e-05 10.3127 113.554-10.3123 113.554-10.3125 2.25398e-05ZM30.9377 103.242 0.000360892 165.117-30.9373 103.242Z" fill="#0D0953" transform="matrix(1 0 0 -1 973.5 1860.62)"/><path d="M10.3125-2.25398e-05 10.3127 113.554-10.3123 113.554-10.3125 2.25398e-05ZM30.9377 103.242 0.000360892 165.117-30.9373 103.242Z" fill="#0D0953" transform="matrix(1 0 0 -1 1519.5 1860.62)"/><path d="M1529.81 1300.5 1529.81 1412.56 1509.19 1412.56 1509.19 1300.5ZM1550.44 1402.25 1519.5 1464.12 1488.56 1402.25Z" fill="#0D0953"/><path d="M1187.5 1570.19 1252.82 1570.19 1252.82 1590.81 1187.5 1590.81ZM1242.51 1549.56 1304.39 1580.5 1242.51 1611.44Z" fill="#0D0953"/><path d="M1733.5 1570.19 1796.32 1570.19 1796.32 1590.81 1733.5 1590.81ZM1786.01 1549.56 1847.88 1580.5 1786.01 1611.44Z" fill="#0D0953"/><text font-family="Arial,Arial_MSFontService,sans-serif" font-weight="400" font-size="46" transform="matrix(1 0 0 1 754.704 2331)">Source: Adapted from Abubakar et al (2017); Tellusant synthesis</text></g></svg>