<svg width="2315" height="915" xmlns="http://www.w3.org/2000/svg" xmlns:xlink="http://www.w3.org/1999/xlink" xml:space="preserve" overflow="hidden"><g transform="translate(-88 -705)"><path d="M695.531 1382.59 695.38 1362.43 699.963 1362.4 700.114 1382.56ZM683.956 1367.1 697.5 1339.5 711.455 1366.9Z" fill="#FF0000"/><path d="M2.2916-0.0172465 2.44141 19.8888-2.14179 19.9233-2.2916 0.0172465ZM13.8649 15.2193 0.322277 42.822-13.6343 15.4263Z" fill="#FF0000" transform="matrix(-1 0 0 1 697.822 1084.5)"/><path d="M470.5 1231.21 487.251 1231.21 487.251 1235.79 470.5 1235.79ZM482.668 1219.75 510.168 1233.5 482.667 1247.25Z" fill="#FF0000"/><path d="M2.08494e-05-2.29167 16.7508-2.29151 16.7508 2.29182-2.08494e-05 2.29167ZM12.1676-13.7499 39.6675 0.000360892 12.1674 13.7501Z" fill="#FF0000" transform="matrix(-1 0 0 1 925.167 1233.5)"/><path d="M510.5 1162.83C510.5 1143.32 526.32 1127.5 545.834 1127.5L850.166 1127.5C869.68 1127.5 885.5 1143.32 885.5 1162.83L885.5 1304.17C885.5 1323.68 869.68 1339.5 850.166 1339.5L545.834 1339.5C526.32 1339.5 510.5 1323.68 510.5 1304.17Z" stroke="#FF0000" stroke-width="4.58333" stroke-miterlimit="8" fill="#0D0953" fill-rule="evenodd"/><text fill="#FFFFFF" font-family="Arial,Arial_MSFontService,sans-serif" font-weight="400" font-size="55" transform="matrix(1 0 0 1 599.749 1220)">Industry </text><text fill="#FFFFFF" font-family="Arial,Arial_MSFontService,sans-serif" font-weight="400" font-size="55" transform="matrix(1 0 0 1 624.384 1286)">rivalry</text><path d="M925.5 1162.83C925.5 1143.32 941.32 1127.5 960.834 1127.5L1251.17 1127.5C1270.68 1127.5 1286.5 1143.32 1286.5 1162.83L1286.5 1304.17C1286.5 1323.68 1270.68 1339.5 1251.17 1339.5L960.834 1339.5C941.32 1339.5 925.5 1323.68 925.5 1304.17Z" stroke="#0D0953" stroke-width="6.875" stroke-miterlimit="8" fill="#0D0953" fill-rule="evenodd"/><text fill="#FFFFFF" font-family="Arial,Arial_MSFontService,sans-serif" font-weight="400" font-size="55" transform="matrix(1 0 0 1 995.323 1220)">Threat of </text><text fill="#FFFFFF" font-family="Arial,Arial_MSFontService,sans-serif" font-weight="400" font-size="55" transform="matrix(1 0 0 1 974.125 1286)">substitutes</text><path d="M517.5 1417.67C517.5 1398.25 533.245 1382.5 552.667 1382.5L843.333 1382.5C862.755 1382.5 878.5 1398.25 878.5 1417.67L878.5 1558.33C878.5 1577.76 862.755 1593.5 843.333 1593.5L552.667 1593.5C533.245 1593.5 517.5 1577.76 517.5 1558.33Z" stroke="#0D0953" stroke-width="6.875" stroke-miterlimit="8" fill="#0D0953" fill-rule="evenodd"/><text fill="#FFFFFF" font-family="Arial,Arial_MSFontService,sans-serif" font-weight="400" font-size="55" transform="matrix(1 0 0 1 567.128 1442)">Bargaining </text><text fill="#FFFFFF" font-family="Arial,Arial_MSFontService,sans-serif" font-weight="400" font-size="55" transform="matrix(1 0 0 1 592.612 1508)">power of </text><text fill="#FFFFFF" font-family="Arial,Arial_MSFontService,sans-serif" font-weight="400" font-size="55" transform="matrix(1 0 0 1 615.528 1574)">buyers</text><path d="M517.5 908.667C517.5 889.245 533.245 873.5 552.667 873.5L843.333 873.5C862.755 873.5 878.5 889.245 878.5 908.667L878.5 1049.33C878.5 1068.76 862.755 1084.5 843.333 1084.5L552.667 1084.5C533.245 1084.5 517.5 1068.76 517.5 1049.33Z" stroke="#0D0953" stroke-width="6.875" stroke-miterlimit="8" fill="#0D0953" fill-rule="evenodd"/><text fill="#FFFFFF" font-family="Arial,Arial_MSFontService,sans-serif" font-weight="400" font-size="55" transform="matrix(1 0 0 1 567.128 932)">Bargaining </text><text fill="#FFFFFF" font-family="Arial,Arial_MSFontService,sans-serif" font-weight="400" font-size="55" transform="matrix(1 0 0 1 592.612 998)">power of </text><text fill="#FFFFFF" font-family="Arial,Arial_MSFontService,sans-serif" font-weight="400" font-size="55" transform="matrix(1 0 0 1 588.326 1064)">suppliers</text><path d="M109.5 1162.83C109.5 1143.32 125.32 1127.5 144.834 1127.5L435.166 1127.5C454.68 1127.5 470.5 1143.32 470.5 1162.83L470.5 1304.17C470.5 1323.68 454.68 1339.5 435.166 1339.5L144.834 1339.5C125.32 1339.5 109.5 1323.68 109.5 1304.17Z" stroke="#0D0953" stroke-width="6.875" stroke-miterlimit="8" fill="#0D0953" fill-rule="evenodd"/><text fill="#FFFFFF" font-family="Arial,Arial_MSFontService,sans-serif" font-weight="400" font-size="55" transform="matrix(1 0 0 1 121.675 1220)">Threat of new </text><text fill="#FFFFFF" font-family="Arial,Arial_MSFontService,sans-serif" font-weight="400" font-size="55" transform="matrix(1 0 0 1 190.425 1286)">entrants</text><path d="M770.222 1114.25 797.722 1128 770.221 1141.75Z" fill="#FF0000"/><path d="M-3.34057-13.75 24.1592 0.000360892-3.34099 13.75Z" fill="#FF0000" transform="matrix(-1 0 0 1 614.159 1339)"/><path d="M898.75 1263.48 885.001 1290.98 871.25 1263.48Z" fill="#FF0000"/><path d="M496.251 1199.5 510 1172 523.751 1199.5Z" fill="#FF0000"/><path d="M1339.5 994.5 2112.5 994.5 2112.5 994.5 2397.5 1279.5 2112.5 1564.5 2112.5 1564.5 1339.5 1564.5Z" stroke="#000000" stroke-width="6.875" stroke-miterlimit="8" fill="#D9D9D9" fill-rule="evenodd"/><path d="M1339.5 994.5 1980.5 994.5 1980.5 994.5 2265.5 1279.5 1980.5 1564.5 1980.5 1564.5 1339.5 1564.5Z" stroke="#000000" stroke-width="4.58333" stroke-miterlimit="8" stroke-dasharray="4.58333 4.58333" fill="#01675F" fill-rule="evenodd"/><text font-family="Arial,Arial_MSFontService,sans-serif" font-weight="400" font-size="55" transform="matrix(0.700537 -0.713616 0.713616 0.700537 2151.35 1486)">Margin</text><path d="M1339.5 1279.5 2265.57 1279.5" stroke="#000000" stroke-width="4.58333" stroke-miterlimit="8" stroke-dasharray="4.58333 4.58333" fill="#F2F2F2" fill-rule="evenodd"/><path d="M0 0 0.000360892 281.512" stroke="#000000" stroke-width="4.58333" stroke-miterlimit="8" stroke-dasharray="4.58333 4.58333" fill="#F2F2F2" fill-rule="evenodd" transform="matrix(1 0 0 -1 1480.5 1564.01)"/><path d="M0 0 0.000360892 281.512" stroke="#000000" stroke-width="4.58333" stroke-miterlimit="8" stroke-dasharray="4.58333 4.58333" fill="#F2F2F2" fill-rule="evenodd" transform="matrix(1 0 0 -1 1629.5 1564.01)"/><path d="M0 0 0.000360892 281.512" stroke="#000000" stroke-width="4.58333" stroke-miterlimit="8" stroke-dasharray="4.58333 4.58333" fill="#F2F2F2" fill-rule="evenodd" transform="matrix(1 0 0 -1 1773.5 1564.01)"/><path d="M0 0 0.000360892 281.512" stroke="#000000" stroke-width="4.58333" stroke-miterlimit="8" stroke-dasharray="4.58333 4.58333" fill="#F2F2F2" fill-rule="evenodd" transform="matrix(1 0 0 -1 1918.5 1564.01)"/><text fill="#FFFFFF" font-family="Arial,Arial_MSFontService,sans-serif" font-weight="400" font-size="55" transform="matrix(-1.83697e-16 -1 1 -1.83697e-16 1402.46 1519)">Inbound</text><text fill="#FFFFFF" font-family="Arial,Arial_MSFontService,sans-serif" font-weight="400" font-size="55" transform="matrix(-1.83697e-16 -1 1 -1.83697e-16 1452.46 1518)">logistics</text><text fill="#FFFFFF" font-family="Arial,Arial_MSFontService,sans-serif" font-weight="400" font-size="55" transform="matrix(-1.83697e-16 -1 1 -1.83697e-16 1573.84 1553)">Operations</text><text fill="#FFFFFF" font-family="Arial,Arial_MSFontService,sans-serif" font-weight="400" font-size="55" transform="matrix(-1.83697e-16 -1 1 -1.83697e-16 1695.43 1543)">Route to</text><text fill="#FFFFFF" font-family="Arial,Arial_MSFontService,sans-serif" font-weight="400" font-size="55" transform="matrix(-1.83697e-16 -1 1 -1.83697e-16 1745.43 1523)">market</text><rect x="1799" y="1282" width="103" height="278" fill="#F2F2F2" fill-opacity="0"/><text fill="#FFFFFF" font-family="Arial,Arial_MSFontService,sans-serif" font-weight="400" font-size="55" transform="matrix(-1.83697e-16 -1 1 -1.83697e-16 1837.05 1516)">Sales &amp;</text><text fill="#FFFFFF" font-family="Arial,Arial_MSFontService,sans-serif" font-weight="400" font-size="55" transform="matrix(-1.83697e-16 -1 1 -1.83697e-16 1887.05 1541)">marketing</text><text fill="#FFFFFF" font-family="Arial,Arial_MSFontService,sans-serif" font-weight="400" font-size="55" transform="matrix(-1.83697e-16 -1 1 -1.83697e-16 1987.71 1511)">Service</text><path d="M1345.5 1208.5 2194.56 1208.5" stroke="#000000" stroke-width="4.58333" stroke-miterlimit="8" stroke-dasharray="4.58333 4.58333" fill="#F2F2F2" fill-rule="evenodd"/><path d="M1339.5 1137.5 2117.78 1137.5" stroke="#000000" stroke-width="4.58333" stroke-miterlimit="8" stroke-dasharray="4.58333 4.58333" fill="#F2F2F2" fill-rule="evenodd"/><text fill="#FFFFFF" font-family="Arial,Arial_MSFontService,sans-serif" font-weight="400" font-size="55" transform="matrix(1 0 0 1 1553.21 1050)">Infrastructure</text><text fill="#FFFFFF" font-family="Arial,Arial_MSFontService,sans-serif" font-weight="400" font-size="55" transform="matrix(1 0 0 1 1498.78 1118)">Human resources</text><text fill="#FFFFFF" font-family="Arial,Arial_MSFontService,sans-serif" font-weight="400" font-size="55" transform="matrix(1 0 0 1 1657.19 1193)">R&amp;D</text><text fill="#FFFFFF" font-family="Arial,Arial_MSFontService,sans-serif" font-weight="400" font-size="55" transform="matrix(1 0 0 1 1558.08 1261)">Procurement</text><text font-family="Arial,Arial_MSFontService,sans-serif" font-weight="400" font-size="55" transform="matrix(0.687768 0.725931 -0.725931 0.687768 2118.07 1091)">Margin</text><path d="M1339.5 1065.5 2046.96 1067.14" stroke="#000000" stroke-width="4.58333" stroke-miterlimit="8" stroke-dasharray="4.58333 4.58333" fill="#F2F2F2" fill-rule="evenodd"/><path d="M1338.5 995.5 2110.5 995.5 2110.5 995.5 2395.5 1280.5 2110.5 1565.5 2110.5 1565.5 1338.5 1565.5Z" stroke="#000000" stroke-width="6.875" stroke-miterlimit="8" fill="none" fill-rule="evenodd"/><text font-family="Arial,Arial_MSFontService,sans-serif" font-weight="700" font-size="64" transform="matrix(1 0 0 1 515.821 787)">MICHAEL PORTER’S FIVE FORCES / VALUE CHAIN</text></g></svg>