<svg width="1978" height="1708" xmlns="http://www.w3.org/2000/svg" xmlns:xlink="http://www.w3.org/1999/xlink" xml:space="preserve" overflow="hidden"><g transform="translate(-253 -700)"><text font-family="Arial,Arial_MSFontService,sans-serif" font-weight="700" font-size="64" transform="matrix(1 0 0 1 1051.53 782)">CORP</text><text font-family="Arial,Arial_MSFontService,sans-serif" font-weight="700" font-size="64" transform="matrix(1 0 0 1 1237.15 782)">OR</text><text font-family="Arial,Arial_MSFontService,sans-serif" font-weight="700" font-size="64" transform="matrix(1 0 0 1 1333.4 782)">ATE</text><text font-family="Arial,Arial_MSFontService,sans-serif" font-weight="700" font-size="64" transform="matrix(1 0 0 1 960.731 859)">COGNITIVE STACK</text><rect x="356" y="1680" width="833" height="566" fill="#F2F2F2"/><text font-family="Arial,Arial_MSFontService,sans-serif" font-weight="700" font-size="55" transform="matrix(1 0 0 1 607.594 1749)">Higher order </text><text font-family="Arial,Arial_MSFontService,sans-serif" font-weight="700" font-size="55" transform="matrix(1 0 0 1 513.911 1815)">corporate cognition</text><text font-family="Arial,Arial_MSFontService,sans-serif" font-weight="400" font-size="55" transform="matrix(1 0 0 1 389.313 1881)">•</text><text font-family="Arial,Arial_MSFontService,sans-serif" font-weight="400" font-size="55" transform="matrix(1 0 0 1 451.188 1881)">Systematic decision</text><text font-family="Arial,Arial_MSFontService,sans-serif" font-weight="400" font-size="55" transform="matrix(1 0 0 1 935.875 1881)">-</text><text font-family="Arial,Arial_MSFontService,sans-serif" font-weight="400" font-size="55" transform="matrix(1 0 0 1 954.208 1881)">making </text><text font-family="Arial,Arial_MSFontService,sans-serif" font-weight="400" font-size="55" transform="matrix(1 0 0 1 389.313 1947)">•</text><text font-family="Arial,Arial_MSFontService,sans-serif" font-weight="400" font-size="55" transform="matrix(1 0 0 1 451.188 1947)">Evaluative thinking</text><text font-family="Arial,Arial_MSFontService,sans-serif" font-weight="400" font-size="55" transform="matrix(1 0 0 1 389.313 2013)">•</text><text font-family="Arial,Arial_MSFontService,sans-serif" font-weight="400" font-size="55" transform="matrix(1 0 0 1 451.188 2013)">Concept evaluation</text><text font-family="Arial,Arial_MSFontService,sans-serif" font-weight="400" font-size="55" transform="matrix(1 0 0 1 389.313 2079)">•</text><text font-family="Arial,Arial_MSFontService,sans-serif" font-weight="400" font-size="55" transform="matrix(1 0 0 1 451.188 2079)">Brainstorming &amp; creativity</text><text font-family="Arial,Arial_MSFontService,sans-serif" font-weight="400" font-size="55" transform="matrix(1 0 0 1 389.313 2145)">•</text><text font-family="Arial,Arial_MSFontService,sans-serif" font-weight="400" font-size="55" transform="matrix(1 0 0 1 451.188 2145)">Cross</text><text font-family="Arial,Arial_MSFontService,sans-serif" font-weight="400" font-size="55" transform="matrix(1 0 0 1 594.417 2145)">-</text><text font-family="Arial,Arial_MSFontService,sans-serif" font-weight="400" font-size="55" transform="matrix(1 0 0 1 612.75 2145)">function collaboration</text><text font-family="Arial,Arial_MSFontService,sans-serif" font-weight="400" font-size="55" transform="matrix(1 0 0 1 389.313 2211)">•</text><text font-family="Arial,Arial_MSFontService,sans-serif" font-weight="400" font-size="55" transform="matrix(1 0 0 1 451.188 2211)">Integrative analytics</text><rect x="1319" y="1680" width="833" height="566" fill="#F2F2F2"/><text font-family="Arial,Arial_MSFontService,sans-serif" font-weight="700" font-size="55" transform="matrix(1 0 0 1 1576.6 1749)">Lower order </text><text font-family="Arial,Arial_MSFontService,sans-serif" font-weight="700" font-size="55" transform="matrix(1 0 0 1 1476.91 1815)">corporate cognition</text><text font-family="Arial,Arial_MSFontService,sans-serif" font-weight="400" font-size="55" transform="matrix(1 0 0 1 1352.31 1881)">•</text><text font-family="Arial,Arial_MSFontService,sans-serif" font-weight="400" font-size="55" transform="matrix(1 0 0 1 1414.19 1881)">Applying process steps</text><text font-family="Arial,Arial_MSFontService,sans-serif" font-weight="400" font-size="55" transform="matrix(1 0 0 1 1352.31 1947)">•</text><text font-family="Arial,Arial_MSFontService,sans-serif" font-weight="400" font-size="55" transform="matrix(1 0 0 1 1414.19 1947)">Understanding information</text><text font-family="Arial,Arial_MSFontService,sans-serif" font-weight="400" font-size="55" transform="matrix(1 0 0 1 1352.31 2013)">•</text><text font-family="Arial,Arial_MSFontService,sans-serif" font-weight="400" font-size="55" transform="matrix(1 0 0 1 1414.19 2013)">Knowledge of vocabulary / </text><text font-family="Arial,Arial_MSFontService,sans-serif" font-weight="400" font-size="55" transform="matrix(1 0 0 1 1414.19 2079)">definitions </text><text font-family="Arial,Arial_MSFontService,sans-serif" font-weight="400" font-size="55" transform="matrix(1 0 0 1 1352.31 2145)">•</text><text font-family="Arial,Arial_MSFontService,sans-serif" font-weight="400" font-size="55" transform="matrix(1 0 0 1 1414.19 2145)">Recalling facts and </text><text font-family="Arial,Arial_MSFontService,sans-serif" font-weight="400" font-size="55" transform="matrix(1 0 0 1 1414.19 2211)">routines</text><text font-family="Arial,Arial_MSFontService,sans-serif" font-weight="700" font-size="64" transform="matrix(1 0 0 1 292.377 1478)">Lower </text><text font-family="Arial,Arial_MSFontService,sans-serif" font-weight="700" font-size="64" transform="matrix(1 0 0 1 292.377 1555)">order</text><text font-family="Arial,Arial_MSFontService,sans-serif" font-weight="700" font-size="64" transform="matrix(1 0 0 1 292.377 1029)">Higher </text><text font-family="Arial,Arial_MSFontService,sans-serif" font-weight="700" font-size="64" transform="matrix(1 0 0 1 292.377 1106)">order</text><text font-family="Arial,Arial_MSFontService,sans-serif" font-style="italic" font-weight="700" font-size="64" transform="matrix(1 0 0 1 1836.49 880)">Automation</text><text font-family="Arial,Arial_MSFontService,sans-serif" font-style="italic" font-weight="700" font-size="64" transform="matrix(1 0 0 1 1978.57 957)">started</text><text font-family="Arial,Arial_MSFontService,sans-serif" font-style="italic" font-weight="400" font-size="55" transform="matrix(1 0 0 1 2063.62 1551)">1965</text><text font-family="Arial,Arial_MSFontService,sans-serif" font-style="italic" font-weight="400" font-size="55" transform="matrix(1 0 0 1 2063.05 1029)">2020</text><path d="M617 978.667C617 971.119 623.119 965 630.667 965L1184.33 965C1191.88 965 1198 971.119 1198 978.667L1198 1033.33C1198 1040.88 1191.88 1047 1184.33 1047L630.667 1047C623.119 1047 617 1040.88 617 1033.33Z" fill="#0D0953" fill-rule="evenodd"/><text fill="#FFFFFF" font-family="Arial,Arial_MSFontService,sans-serif" font-weight="400" font-size="60" transform="matrix(1 0 0 1 668.845 1029)">Strategic planning</text><path d="M662 1107.67C662 1100.12 668.119 1094 675.667 1094L1003.33 1094C1010.88 1094 1017 1100.12 1017 1107.67L1017 1162.33C1017 1169.88 1010.88 1176 1003.33 1176L675.667 1176C668.119 1176 662 1169.88 662 1162.33Z" fill="#0D0953" fill-rule="evenodd"/><text fill="#FFFFFF" font-family="Arial,Arial_MSFontService,sans-serif" font-weight="400" font-size="60" transform="matrix(1 0 0 1 705.078 1158)">Budgeting</text><path d="M1064 1107.67C1064 1100.12 1070.12 1094 1077.67 1094L1802.33 1094C1809.88 1094 1816 1100.12 1816 1107.67L1816 1162.33C1816 1169.88 1809.88 1176 1802.33 1176L1077.67 1176C1070.12 1176 1064 1169.88 1064 1162.33Z" fill="#0D0953" fill-rule="evenodd"/><text fill="#FFFFFF" font-family="Arial,Arial_MSFontService,sans-serif" font-weight="400" font-size="60" transform="matrix(1 0 0 1 1109.5 1158)">Knowledge management</text><path d="M602 1238.67C602 1231.12 608.119 1225 615.667 1225L1201.33 1225C1208.88 1225 1215 1231.12 1215 1238.67L1215 1293.33C1215 1300.88 1208.88 1307 1201.33 1307L615.667 1307C608.119 1307 602 1300.88 602 1293.33Z" fill="#0D0953" fill-rule="evenodd"/><text fill="#FFFFFF" font-family="Arial,Arial_MSFontService,sans-serif" font-weight="400" font-size="60" transform="matrix(1 0 0 1 649.515 1288)">Brand development</text><path d="M1265 1238.67C1265 1231.12 1271.12 1225 1278.67 1225L1864.33 1225C1871.88 1225 1878 1231.12 1878 1238.67L1878 1293.33C1878 1300.88 1871.88 1307 1864.33 1307L1278.67 1307C1271.12 1307 1265 1300.88 1265 1293.33Z" fill="#0D0953" fill-rule="evenodd"/><text fill="#FFFFFF" font-family="Arial,Arial_MSFontService,sans-serif" font-weight="400" font-size="60" transform="matrix(1 0 0 1 1340.89 1288)">Incentives design</text><path d="M556 1369.67C556 1362.12 562.119 1356 569.667 1356L1251.33 1356C1258.88 1356 1265 1362.12 1265 1369.67L1265 1424.33C1265 1431.88 1258.88 1438 1251.33 1438L569.667 1438C562.119 1438 556 1431.88 556 1424.33Z" fill="#0D0953" fill-rule="evenodd"/><text fill="#FFFFFF" font-family="Arial,Arial_MSFontService,sans-serif" font-weight="400" font-size="60" transform="matrix(1 0 0 1 605.058 1419)">Inventory management</text><path d="M1311 1369.67C1311 1362.12 1317.12 1356 1324.67 1356L1701.33 1356C1708.88 1356 1715 1362.12 1715 1369.67L1715 1424.33C1715 1431.88 1708.88 1438 1701.33 1438L1324.67 1438C1317.12 1438 1311 1431.88 1311 1424.33Z" fill="#0D0953" fill-rule="evenodd"/><text fill="#FFFFFF" font-family="Arial,Arial_MSFontService,sans-serif" font-weight="400" font-size="60" transform="matrix(1 0 0 1 1365.28 1419)">Advertising</text><path d="M616 1504.67C616 1497.12 622.119 1491 629.667 1491L1187.33 1491C1194.88 1491 1201 1497.12 1201 1504.67L1201 1559.33C1201 1566.88 1194.88 1573 1187.33 1573L629.667 1573C622.119 1573 616 1566.88 616 1559.33Z" fill="#0D0953" fill-rule="evenodd"/><text fill="#FFFFFF" font-family="Arial,Arial_MSFontService,sans-serif" font-weight="400" font-size="60" transform="matrix(1 0 0 1 664.698 1554)">Payroll processing</text><path d="M1256 1504.67C1256 1497.12 1262.12 1491 1269.67 1491L1895.33 1491C1902.88 1491 1909 1497.12 1909 1504.67L1909 1559.33C1909 1566.88 1902.88 1573 1895.33 1573L1269.67 1573C1262.12 1573 1256 1566.88 1256 1559.33Z" fill="#0D0953" fill-rule="evenodd"/><text fill="#FFFFFF" font-family="Arial,Arial_MSFontService,sans-serif" font-weight="400" font-size="60" transform="matrix(1 0 0 1 1303.39 1554)">Routine procurement</text><path d="M1246 978.667C1246 971.119 1252.12 965 1259.67 965L1905.33 965C1912.88 965 1919 971.119 1919 978.667L1919 1033.33C1919 1040.88 1912.88 1047 1905.33 1047L1259.67 1047C1252.12 1047 1246 1040.88 1246 1033.33Z" fill="#0D0953" fill-rule="evenodd"/><text fill="#FFFFFF" font-family="Arial,Arial_MSFontService,sans-serif" font-weight="400" font-size="60" transform="matrix(1 0 0 1 1300.24 1029)">Product development</text><path d="M523.5 1043.17C523.5 978.734 575.735 926.5 640.169 926.5L1868.83 926.5C1933.27 926.5 1985.5 978.734 1985.5 1043.17L1985.5 1509.83C1985.5 1574.27 1933.27 1626.5 1868.83 1626.5L640.169 1626.5C575.735 1626.5 523.5 1574.27 523.5 1509.83Z" stroke="#0D0953" stroke-width="4.58333" stroke-miterlimit="8" fill="none" fill-rule="evenodd"/><text font-family="Arial,Arial_MSFontService,sans-serif" font-weight="400" font-size="50" transform="matrix(1 0 0 1 361.195 2366)">Source: Tellusant synthesis</text></g></svg>