<svg width="1887" height="5386" xmlns="http://www.w3.org/2000/svg" xmlns:xlink="http://www.w3.org/1999/xlink" xml:space="preserve" overflow="hidden"><defs><clipPath id="clip0"><rect x="4306" y="789" width="1887" height="5386"/></clipPath></defs><g clip-path="url(#clip0)" transform="translate(-4306 -789)"><rect x="4306" y="789" width="1887" height="5386" fill="#FFFFFF"/><g><path d="M4529.5 1061.5 4529.5 5691.5M4930.66 1061.5 4930.66 5691.5M5734.69 1061.5 5734.69 5691.5M6135.5 1061.5 6135.5 5691.5" stroke="#D9D9D9" stroke-width="3.4375" stroke-linejoin="round" stroke-miterlimit="10" fill="none"/></g><g><path d="M5558.18 5561.18 5332.17 5561.18 5332.17 5520.18 5558.18 5520.18ZM5789.19 5501.18 5332.17 5501.18 5332.17 5460.18 5789.19 5460.18ZM5405.18 5321.17 5332.17 5321.17 5332.17 5279.17 5405.18 5279.17ZM5564.18 5261.17 5332.17 5261.17 5332.17 5219.17 5564.18 5219.17ZM5462.18 5201.17 5332.17 5201.17 5332.17 5159.17 5462.18 5159.17ZM5640.19 5080.17 5332.17 5080.17 5332.17 5039.17 5640.19 5039.17ZM6079.2 5020.16 5332.17 5020.16 5332.17 4979.16 6079.2 4979.16ZM5414.18 4960.16 5332.17 4960.16 5332.17 4919.16 5414.18 4919.16ZM5475.18 4720.15 5332.17 4720.15 5332.17 4678.15 5475.18 4678.15ZM5542.18 4659.15 5332.17 4659.15 5332.17 4618.15 5542.18 4618.15ZM5359.18 4539.15 5332.17 4539.15 5332.17 4498.15 5359.18 4498.15ZM5461.18 4479.15 5332.17 4479.15 5332.17 4438.15 5461.18 4438.15ZM5381.18 4419.15 5332.17 4419.15 5332.17 4377.14 5381.18 4377.14ZM5467.18 4359.14 5332.17 4359.14 5332.17 4317.14 5467.18 4317.14ZM5395.18 4299.14 5332.17 4299.14 5332.17 4257.14 5395.18 4257.14ZM5612.18 4239.14 5332.17 4239.14 5332.17 4197.14 5612.18 4197.14ZM5597.18 3998.13 5332.17 3998.13 5332.17 3957.13 5597.18 3957.13ZM5924.19 3938.13 5332.17 3938.13 5332.17 3896.13 5924.19 3896.13ZM5421.18 3818.12 5332.17 3818.12 5332.17 3776.12 5421.18 3776.12ZM5469.18 3758.12 5332.17 3758.12 5332.17 3716.12 5469.18 3716.12ZM5430.18 3697.12 5332.17 3697.12 5332.17 3656.12 5430.18 3656.12ZM5650.19 3637.12 5332.17 3637.12 5332.17 3596.12 5650.19 3596.12ZM5580.18 3577.12 5332.17 3577.12 5332.17 3536.12 5580.18 3536.12ZM5387.18 3397.11 5332.17 3397.11 5332.17 3355.11 5387.18 3355.11ZM5948.2 3337.11 5332.17 3337.11 5332.17 3295.11 5948.2 3295.11ZM5493.18 3277.11 5332.17 3277.11 5332.17 3235.11 5493.18 3235.11ZM5682.19 3096.1 5332.17 3096.1 5332.17 3055.1 5682.19 3055.1ZM5782.19 3036.1 5332.17 3036.1 5332.17 2995.1 5782.19 2995.1ZM5356.18 2916.1 5332.17 2916.1 5332.17 2874.09 5356.18 2874.09ZM5379.18 2856.09 5332.17 2856.09 5332.17 2814.09 5379.18 2814.09ZM5360.18 2796.09 5332.17 2796.09 5332.17 2754.09 5360.18 2754.09ZM5503.18 2735.09 5332.17 2735.09 5332.17 2694.09 5503.18 2694.09ZM5459.18 2675.09 5332.17 2675.09 5332.17 2634.09 5459.18 2634.09ZM5478.18 2495.08 5332.17 2495.08 5332.17 2453.08 5478.18 2453.08ZM5803.19 2435.08 5332.17 2435.08 5332.17 2393.08 5803.19 2393.08ZM5353.18 2314.08 5332.17 2314.08 5332.17 2273.07 5353.18 2273.07ZM5660.19 2254.07 5332.17 2254.07 5332.17 2213.07 5660.19 2213.07ZM5468.18 2194.07 5332.17 2194.07 5332.17 2153.07 5468.18 2153.07ZM5500.18 2074.07 5332.17 2074.07 5332.17 2033.07 5500.18 2033.07ZM5779.19 2014.07 5332.17 2014.07 5332.17 1972.06 5779.19 1972.06ZM5400.18 1954.06 5332.17 1954.06 5332.17 1912.06 5400.18 1912.06ZM5642.19 1894.06 5332.17 1894.06 5332.17 1852.06 5642.19 1852.06ZM5403.18 1653.05 5332.17 1653.05 5332.17 1612.05 5403.18 1612.05ZM5683.19 1593.05 5332.17 1593.05 5332.17 1552.05 5683.19 1552.05ZM5787.19 1533.05 5332.17 1533.05 5332.17 1491.05 5787.19 1491.05ZM5363.18 1352.04 5332.17 1352.04 5332.17 1311.04 5363.18 1311.04ZM5660.19 1292.04 5332.17 1292.04 5332.17 1251.04 5660.19 1251.04ZM5354.18 1232.04 5332.17 1232.04 5332.17 1191.04 5354.18 1191.04ZM5580.18 1172.04 5332.17 1172.04 5332.17 1131.04 5580.18 1131.04Z" fill="#C00000"/></g><g><path d="M5268.17 5621.18 5332.17 5621.18 5332.17 5580.18 5268.17 5580.18ZM5311.17 5501.18 5332.17 5501.18 5332.17 5460.18 5311.17 5460.18ZM4923.16 5441.18 5332.17 5441.18 5332.17 5400.18 4923.16 5400.18ZM5086.17 5381.18 5332.17 5381.18 5332.17 5340.17 5086.17 5340.17ZM5140.17 5321.17 5332.17 5321.17 5332.17 5279.17 5140.17 5279.17ZM5250.17 5201.17 5332.17 5201.17 5332.17 5159.17 5250.17 5159.17ZM5243.17 5140.17 5332.17 5140.17 5332.17 5099.17 5243.17 5099.17ZM5239.17 5080.17 5332.17 5080.17 5332.17 5039.17 5239.17 5039.17ZM5281.17 4840.16 5332.17 4840.16 5332.17 4798.16 5281.17 4798.16ZM5010.16 4780.16 5332.17 4780.16 5332.17 4738.16 5010.16 4738.16ZM4953.16 4720.15 5332.17 4720.15 5332.17 4678.15 4953.16 4678.15ZM5242.17 4659.15 5332.17 4659.15 5332.17 4618.15 5242.17 4618.15ZM5004.16 4599.15 5332.17 4599.15 5332.17 4558.15 5004.16 4558.15ZM5056.17 4539.15 5332.17 4539.15 5332.17 4498.15 5056.17 4498.15ZM5244.17 4479.15 5332.17 4479.15 5332.17 4438.15 5244.17 4438.15ZM5276.17 4419.15 5332.17 4419.15 5332.17 4377.14 5276.17 4377.14ZM5284.17 4178.14 5332.17 4178.14 5332.17 4137.14 5284.17 4137.14ZM4930.16 4118.14 5332.17 4118.14 5332.17 4077.13 4930.16 4077.13ZM4742.16 4058.13 5332.17 4058.13 5332.17 4017.13 4742.16 4017.13ZM5027.17 3998.13 5332.17 3998.13 5332.17 3957.13 5027.17 3957.13ZM5312.17 3938.13 5332.17 3938.13 5332.17 3896.13 5312.17 3896.13ZM5242.17 3878.13 5332.17 3878.13 5332.17 3836.13 5242.17 3836.13ZM5160.17 3818.12 5332.17 3818.12 5332.17 3776.12 5160.17 3776.12ZM5107.17 3457.11 5332.17 3457.11 5332.17 3415.11 5107.17 3415.11ZM4894.16 3397.11 5332.17 3397.11 5332.17 3355.11 4894.16 3355.11ZM5138.17 3216.11 5332.17 3216.11 5332.17 3175.1 5138.17 3175.1ZM5183.17 3156.1 5332.17 3156.1 5332.17 3115.1 5183.17 3115.1ZM5223.17 3096.1 5332.17 3096.1 5332.17 3055.1 5223.17 3055.1ZM5312.17 2976.1 5332.17 2976.1 5332.17 2934.1 5312.17 2934.1ZM5193.17 2675.09 5332.17 2675.09 5332.17 2634.09 5193.17 2634.09ZM4825.16 2615.09 5332.17 2615.09 5332.17 2574.08 4825.16 2574.08ZM4936.16 2555.08 5332.17 2555.08 5332.17 2514.08 4936.16 2514.08ZM4893.16 2495.08 5332.17 2495.08 5332.17 2453.08 4893.16 2453.08ZM5304.17 2435.08 5332.17 2435.08 5332.17 2393.08 5304.17 2393.08ZM4879.16 2375.08 5332.17 2375.08 5332.17 2333.08 4879.16 2333.08ZM5135.17 2314.08 5332.17 2314.08 5332.17 2273.07 5135.17 2273.07ZM5252.17 2194.07 5332.17 2194.07 5332.17 2153.07 5252.17 2153.07ZM5311.17 2134.07 5332.17 2134.07 5332.17 2093.07 5311.17 2093.07ZM5309.17 2014.07 5332.17 2014.07 5332.17 1972.06 5309.17 1972.06ZM5108.17 1954.06 5332.17 1954.06 5332.17 1912.06 5108.17 1912.06ZM5124.17 1473.05 5332.17 1473.05 5332.17 1431.05 5124.17 1431.05ZM4875.16 1413.05 5332.17 1413.05 5332.17 1371.04 4875.16 1371.04ZM5108.17 1352.04 5332.17 1352.04 5332.17 1311.04 5108.17 1311.04ZM5278.17 1172.04 5332.17 1172.04 5332.17 1131.04 5278.17 1131.04ZM4968.16 1112.04 5332.17 1112.04 5332.17 1070.04 4968.16 1070.04Z" fill="#4472C4"/></g><g><path d="M0 0 0.000360892 4630" stroke="#D9D9D9" stroke-width="3.4375" stroke-linejoin="round" stroke-miterlimit="10" fill="none" fill-rule="evenodd" transform="matrix(1 0 0 -1 5332.5 5691.5)"/></g><g><text font-family="Arial,Arial_MSFontService,sans-serif" font-weight="400" font-size="50" transform="matrix(1 0 0 1 4492.95 5768)">-20</text></g><g><text font-family="Arial,Arial_MSFontService,sans-serif" font-weight="400" font-size="50" transform="matrix(1 0 0 1 4894.56 5768)">-10</text></g><g><text font-family="Arial,Arial_MSFontService,sans-serif" font-weight="400" font-size="50" transform="matrix(1 0 0 1 5318.59 5768)">0</text></g><g><text font-family="Arial,Arial_MSFontService,sans-serif" font-weight="400" font-size="50" transform="matrix(1 0 0 1 5706.18 5768)">10</text></g><g><text font-family="Arial,Arial_MSFontService,sans-serif" font-weight="400" font-size="50" transform="matrix(1 0 0 1 6107.79 5768)">20</text></g><g><text font-family="Arial,Arial_MSFontService,sans-serif" font-weight="400" font-size="50" transform="matrix(1 0 0 1 4373.82 5677)">2026</text></g><g><text font-family="Arial,Arial_MSFontService,sans-serif" font-weight="400" font-size="50" transform="matrix(1 0 0 1 4373.82 5617)">2025</text></g><g><text font-family="Arial,Arial_MSFontService,sans-serif" font-weight="400" font-size="50" transform="matrix(1 0 0 1 4373.82 5557)">2024</text></g><g><text font-family="Arial,Arial_MSFontService,sans-serif" font-weight="400" font-size="50" transform="matrix(1 0 0 1 4373.82 5497)">2023</text></g><g><text font-family="Arial,Arial_MSFontService,sans-serif" font-weight="400" font-size="50" transform="matrix(1 0 0 1 4373.82 5437)">2022</text></g><g><text font-family="Arial,Arial_MSFontService,sans-serif" font-weight="400" font-size="50" transform="matrix(1 0 0 1 4373.82 5377)">2021</text></g><g><text font-family="Arial,Arial_MSFontService,sans-serif" font-weight="400" font-size="50" transform="matrix(1 0 0 1 4373.82 5317)">2020</text></g><g><text font-family="Arial,Arial_MSFontService,sans-serif" font-weight="400" font-size="50" transform="matrix(1 0 0 1 4373.82 5257)">2019</text></g><g><text font-family="Arial,Arial_MSFontService,sans-serif" font-weight="400" font-size="50" transform="matrix(1 0 0 1 4373.82 5196)">2018</text></g><g><text font-family="Arial,Arial_MSFontService,sans-serif" font-weight="400" font-size="50" transform="matrix(1 0 0 1 4373.82 5136)">2017</text></g><g><text font-family="Arial,Arial_MSFontService,sans-serif" font-weight="400" font-size="50" transform="matrix(1 0 0 1 4373.82 5076)">2016</text></g><g><text font-family="Arial,Arial_MSFontService,sans-serif" font-weight="400" font-size="50" transform="matrix(1 0 0 1 4373.82 5016)">2015</text></g><g><text font-family="Arial,Arial_MSFontService,sans-serif" font-weight="400" font-size="50" transform="matrix(1 0 0 1 4373.82 4956)">2014</text></g><g><text font-family="Arial,Arial_MSFontService,sans-serif" font-weight="400" font-size="50" transform="matrix(1 0 0 1 4373.82 4896)">2013</text></g><g><text font-family="Arial,Arial_MSFontService,sans-serif" font-weight="400" font-size="50" transform="matrix(1 0 0 1 4373.82 4836)">2012</text></g><g><text font-family="Arial,Arial_MSFontService,sans-serif" font-weight="400" font-size="50" transform="matrix(1 0 0 1 4373.82 4775)">2011</text></g><g><text font-family="Arial,Arial_MSFontService,sans-serif" font-weight="400" font-size="50" transform="matrix(1 0 0 1 4373.82 4715)">2010</text></g><g><text font-family="Arial,Arial_MSFontService,sans-serif" font-weight="400" font-size="50" transform="matrix(1 0 0 1 4373.82 4655)">2009</text></g><g><text font-family="Arial,Arial_MSFontService,sans-serif" font-weight="400" font-size="50" transform="matrix(1 0 0 1 4373.82 4595)">2008</text></g><g><text font-family="Arial,Arial_MSFontService,sans-serif" font-weight="400" font-size="50" transform="matrix(1 0 0 1 4373.82 4535)">2007</text></g><g><text font-family="Arial,Arial_MSFontService,sans-serif" font-weight="400" font-size="50" transform="matrix(1 0 0 1 4373.82 4475)">2006</text></g><g><text font-family="Arial,Arial_MSFontService,sans-serif" font-weight="400" font-size="50" transform="matrix(1 0 0 1 4373.82 4415)">2005</text></g><g><text font-family="Arial,Arial_MSFontService,sans-serif" font-weight="400" font-size="50" transform="matrix(1 0 0 1 4373.82 4355)">2004</text></g><g><text font-family="Arial,Arial_MSFontService,sans-serif" font-weight="400" font-size="50" transform="matrix(1 0 0 1 4373.82 4294)">2003</text></g><g><text font-family="Arial,Arial_MSFontService,sans-serif" font-weight="400" font-size="50" transform="matrix(1 0 0 1 4373.82 4234)">2002</text></g><g><text font-family="Arial,Arial_MSFontService,sans-serif" font-weight="400" font-size="50" transform="matrix(1 0 0 1 4373.82 4174)">2001</text></g><g><text font-family="Arial,Arial_MSFontService,sans-serif" font-weight="400" font-size="50" transform="matrix(1 0 0 1 4373.82 4114)">2000</text></g><g><text font-family="Arial,Arial_MSFontService,sans-serif" font-weight="400" font-size="50" transform="matrix(1 0 0 1 4373.82 4054)">1999</text></g><g><text font-family="Arial,Arial_MSFontService,sans-serif" font-weight="400" font-size="50" transform="matrix(1 0 0 1 4373.82 3994)">1998</text></g><g><text font-family="Arial,Arial_MSFontService,sans-serif" font-weight="400" font-size="50" transform="matrix(1 0 0 1 4373.82 3934)">1997</text></g><g><text font-family="Arial,Arial_MSFontService,sans-serif" font-weight="400" font-size="50" transform="matrix(1 0 0 1 4373.82 3874)">1996</text></g><g><text font-family="Arial,Arial_MSFontService,sans-serif" font-weight="400" font-size="50" transform="matrix(1 0 0 1 4373.82 3813)">1995</text></g><g><text font-family="Arial,Arial_MSFontService,sans-serif" font-weight="400" font-size="50" transform="matrix(1 0 0 1 4373.82 3753)">1994</text></g><g><text font-family="Arial,Arial_MSFontService,sans-serif" font-weight="400" font-size="50" transform="matrix(1 0 0 1 4373.82 3693)">1993</text></g><g><text font-family="Arial,Arial_MSFontService,sans-serif" font-weight="400" font-size="50" transform="matrix(1 0 0 1 4373.82 3633)">1992</text></g><g><text font-family="Arial,Arial_MSFontService,sans-serif" font-weight="400" font-size="50" transform="matrix(1 0 0 1 4373.82 3573)">1991</text></g><g><text font-family="Arial,Arial_MSFontService,sans-serif" font-weight="400" font-size="50" transform="matrix(1 0 0 1 4373.82 3513)">1990</text></g><g><text font-family="Arial,Arial_MSFontService,sans-serif" font-weight="400" font-size="50" transform="matrix(1 0 0 1 4373.82 3453)">1989</text></g><g><text font-family="Arial,Arial_MSFontService,sans-serif" font-weight="400" font-size="50" transform="matrix(1 0 0 1 4373.82 3393)">1988</text></g><g><text font-family="Arial,Arial_MSFontService,sans-serif" font-weight="400" font-size="50" transform="matrix(1 0 0 1 4373.82 3332)">1987</text></g><g><text font-family="Arial,Arial_MSFontService,sans-serif" font-weight="400" font-size="50" transform="matrix(1 0 0 1 4373.82 3272)">1986</text></g><g><text font-family="Arial,Arial_MSFontService,sans-serif" font-weight="400" font-size="50" transform="matrix(1 0 0 1 4373.82 3212)">1985</text></g><g><text font-family="Arial,Arial_MSFontService,sans-serif" font-weight="400" font-size="50" transform="matrix(1 0 0 1 4373.82 3152)">1984</text></g><g><text font-family="Arial,Arial_MSFontService,sans-serif" font-weight="400" font-size="50" transform="matrix(1 0 0 1 4373.82 3092)">1983</text></g><g><text font-family="Arial,Arial_MSFontService,sans-serif" font-weight="400" font-size="50" transform="matrix(1 0 0 1 4373.82 3032)">1982</text></g><g><text font-family="Arial,Arial_MSFontService,sans-serif" font-weight="400" font-size="50" transform="matrix(1 0 0 1 4373.82 2972)">1981</text></g><g><text font-family="Arial,Arial_MSFontService,sans-serif" font-weight="400" font-size="50" transform="matrix(1 0 0 1 4373.82 2911)">1980</text></g><g><text font-family="Arial,Arial_MSFontService,sans-serif" font-weight="400" font-size="50" transform="matrix(1 0 0 1 4373.82 2851)">1979</text></g><g><text font-family="Arial,Arial_MSFontService,sans-serif" font-weight="400" font-size="50" transform="matrix(1 0 0 1 4373.82 2791)">1978</text></g><g><text font-family="Arial,Arial_MSFontService,sans-serif" font-weight="400" font-size="50" transform="matrix(1 0 0 1 4373.82 2731)">1977</text></g><g><text font-family="Arial,Arial_MSFontService,sans-serif" font-weight="400" font-size="50" transform="matrix(1 0 0 1 4373.82 2671)">1976</text></g><g><text font-family="Arial,Arial_MSFontService,sans-serif" font-weight="400" font-size="50" transform="matrix(1 0 0 1 4373.82 2611)">1975</text></g><g><text font-family="Arial,Arial_MSFontService,sans-serif" font-weight="400" font-size="50" transform="matrix(1 0 0 1 4373.82 2551)">1974</text></g><g><text font-family="Arial,Arial_MSFontService,sans-serif" font-weight="400" font-size="50" transform="matrix(1 0 0 1 4373.82 2491)">1973</text></g><g><text font-family="Arial,Arial_MSFontService,sans-serif" font-weight="400" font-size="50" transform="matrix(1 0 0 1 4373.82 2430)">1972</text></g><g><text font-family="Arial,Arial_MSFontService,sans-serif" font-weight="400" font-size="50" transform="matrix(1 0 0 1 4373.82 2370)">1971</text></g><g><text font-family="Arial,Arial_MSFontService,sans-serif" font-weight="400" font-size="50" transform="matrix(1 0 0 1 4373.82 2310)">1970</text></g><g><text font-family="Arial,Arial_MSFontService,sans-serif" font-weight="400" font-size="50" transform="matrix(1 0 0 1 4373.82 2250)">1969</text></g><g><text font-family="Arial,Arial_MSFontService,sans-serif" font-weight="400" font-size="50" transform="matrix(1 0 0 1 4373.82 2190)">1968</text></g><g><text font-family="Arial,Arial_MSFontService,sans-serif" font-weight="400" font-size="50" transform="matrix(1 0 0 1 4373.82 2130)">1967</text></g><g><text font-family="Arial,Arial_MSFontService,sans-serif" font-weight="400" font-size="50" transform="matrix(1 0 0 1 4373.82 2070)">1966</text></g><g><text font-family="Arial,Arial_MSFontService,sans-serif" font-weight="400" font-size="50" transform="matrix(1 0 0 1 4373.82 2010)">1965</text></g><g><text font-family="Arial,Arial_MSFontService,sans-serif" font-weight="400" font-size="50" transform="matrix(1 0 0 1 4373.82 1949)">1964</text></g><g><text font-family="Arial,Arial_MSFontService,sans-serif" font-weight="400" font-size="50" transform="matrix(1 0 0 1 4373.82 1889)">1963</text></g><g><text font-family="Arial,Arial_MSFontService,sans-serif" font-weight="400" font-size="50" transform="matrix(1 0 0 1 4373.82 1829)">1962</text></g><g><text font-family="Arial,Arial_MSFontService,sans-serif" font-weight="400" font-size="50" transform="matrix(1 0 0 1 4373.82 1769)">1961</text></g><g><text font-family="Arial,Arial_MSFontService,sans-serif" font-weight="400" font-size="50" transform="matrix(1 0 0 1 4373.82 1709)">1960</text></g><g><text font-family="Arial,Arial_MSFontService,sans-serif" font-weight="400" font-size="50" transform="matrix(1 0 0 1 4373.82 1649)">1959</text></g><g><text font-family="Arial,Arial_MSFontService,sans-serif" font-weight="400" font-size="50" transform="matrix(1 0 0 1 4373.82 1589)">1958</text></g><g><text font-family="Arial,Arial_MSFontService,sans-serif" font-weight="400" font-size="50" transform="matrix(1 0 0 1 4373.82 1529)">1957</text></g><g><text font-family="Arial,Arial_MSFontService,sans-serif" font-weight="400" font-size="50" transform="matrix(1 0 0 1 4373.82 1468)">1956</text></g><g><text font-family="Arial,Arial_MSFontService,sans-serif" font-weight="400" font-size="50" transform="matrix(1 0 0 1 4373.82 1408)">1955</text></g><g><text font-family="Arial,Arial_MSFontService,sans-serif" font-weight="400" font-size="50" transform="matrix(1 0 0 1 4373.82 1348)">1954</text></g><g><text font-family="Arial,Arial_MSFontService,sans-serif" font-weight="400" font-size="50" transform="matrix(1 0 0 1 4373.82 1288)">1953</text></g><g><text font-family="Arial,Arial_MSFontService,sans-serif" font-weight="400" font-size="50" transform="matrix(1 0 0 1 4373.82 1228)">1952</text></g><g><text font-family="Arial,Arial_MSFontService,sans-serif" font-weight="400" font-size="50" transform="matrix(1 0 0 1 4373.82 1168)">1951</text></g><g><text font-family="Arial,Arial_MSFontService,sans-serif" font-weight="400" font-size="50" transform="matrix(1 0 0 1 4373.82 1108)">1950</text></g><g><text font-family="Arial,Arial_MSFontService,sans-serif" font-weight="700" font-size="55" transform="matrix(1 0 0 1 5030.02 5844)">Severity of phenomena</text></g><g><text font-family="Arial,Arial_MSFontService,sans-serif" font-weight="400" font-size="55" transform="matrix(1 0 0 1 4672.7 5908)">Cumulative degrees (</text></g><g><text font-family="Roboto,Roboto_MSFontService,sans-serif" font-weight="400" font-size="55" transform="matrix(1 0 0 1 5195.47 5908)">°</text></g><g><text font-family="Arial,Arial_MSFontService,sans-serif" font-weight="400" font-size="55" transform="matrix(1 0 0 1 5216.01 5908)">C) above / below normal in year</text></g><g><text font-family="Arial,Arial_MSFontService,sans-serif" font-weight="700" font-size="64" transform="matrix(1 0 0 1 4960.41 883)">SOUTHERN OSCILLATION</text></g><g><rect x="5113" y="953" width="25" height="25.0001" fill="#4472C4"/></g><g><text font-family="Arial,Arial_MSFontService,sans-serif" font-weight="400" font-size="50" transform="matrix(1 0 0 1 5149.28 982)">El Niño</text></g><g><rect x="5366" y="953" width="26" height="25.0001" fill="#C00000"/></g><g><text font-family="Arial,Arial_MSFontService,sans-serif" font-weight="400" font-size="50" transform="matrix(1 0 0 1 5402.55 982)">La Niña</text></g><g><g><text font-family="Arial,Arial_MSFontService,sans-serif" font-weight="400" font-size="46" transform="matrix(1 0 0 1 4473.52 6061)">Source: S.Canback (</text></g></g><g><g><text font-family="Calibri,Calibri_MSFontService,sans-serif" font-weight="400" font-size="50" transform="matrix(1 0 0 1 4896.38 6061)">Tellusant) analysis; </text></g></g><g><g><text font-family="Arial,Arial_MSFontService,sans-serif" font-weight="400" font-size="46" transform="matrix(1 0 0 1 5294.67 6061)">National Weather Service</text></g></g><path d="M5735.5 1022.17C5735.5 988.662 5762.66 961.5 5796.17 961.5L6078.83 961.5C6112.34 961.5 6139.5 988.662 6139.5 1022.17L6139.5 1264.83C6139.5 1298.34 6112.34 1325.5 6078.83 1325.5L5796.17 1325.5C5762.66 1325.5 5735.5 1298.34 5735.5 1264.83Z" stroke="#7F7F7F" stroke-width="3.4375" stroke-miterlimit="8" fill="#FFFFCC" fill-rule="evenodd"/><text font-family="Arial,Arial_MSFontService,sans-serif" font-weight="400" font-size="50" transform="matrix(1 0 0 1 5816.68 1044)">El Niño </text><text font-family="Cambria Math,Cambria Math_MSFontService,sans-serif" font-weight="400" font-size="50" transform="matrix(1 0 0 1 5993.23 1044)">∼</text><text font-family="Arial,Arial_MSFontService,sans-serif" font-weight="400" font-size="50" transform="matrix(1 0 0 1 6029.14 1044)">4 </text><text font-family="Arial,Arial_MSFontService,sans-serif" font-weight="400" font-size="50" transform="matrix(1 0 0 1 5810.81 1102)">years apart</text><text font-family="Arial,Arial_MSFontService,sans-serif" font-weight="400" font-size="50" transform="matrix(1 0 0 1 5811.04 1219)">La Niña </text><text font-family="Cambria Math,Cambria Math_MSFontService,sans-serif" font-weight="400" font-size="50" transform="matrix(1 0 0 1 5998.87 1219)">∼</text><text font-family="Arial,Arial_MSFontService,sans-serif" font-weight="400" font-size="50" transform="matrix(1 0 0 1 6034.78 1219)">5 </text><g><text font-family="Arial,Arial_MSFontService,sans-serif" font-weight="400" font-size="50" transform="matrix(1 0 0 1 5810.81 1277)">years apart</text></g></g></svg>