<svg width="2079" height="1555" xmlns="http://www.w3.org/2000/svg" xmlns:xlink="http://www.w3.org/1999/xlink" xml:space="preserve" overflow="hidden"><g transform="translate(-1037 -276)"><path d="M0.11666 99.7078C-7.3248 45.592 332.674 0.957739 759.525 0.0143187 1186.38-0.929102 1538.44 42.1756 1545.88 96.2914 1545.96 96.8607 1546 97.4301 1546 97.9996" stroke="#156082" stroke-width="6.875" stroke-miterlimit="8" fill="none" fill-rule="evenodd" transform="matrix(1 0 0 -1 1303.5 1703.5)"/><path d="M1738.5 1055C1738.5 912.787 1889.83 797.5 2076.5 797.5 2263.17 797.5 2414.5 912.787 2414.5 1055 2414.5 1197.21 2263.17 1312.5 2076.5 1312.5 1889.83 1312.5 1738.5 1197.21 1738.5 1055Z" stroke="#042433" stroke-width="6.875" stroke-miterlimit="8" fill="#A6CAEC" fill-rule="evenodd"/><path d="M2073.06 797.952 2073.06 299.5 2079.94 299.5 2079.94 797.952ZM2053.58 299.5C2053.58 286.843 2063.84 276.583 2076.5 276.583 2089.16 276.583 2099.42 286.843 2099.42 299.5 2099.42 312.156 2089.16 322.417 2076.5 322.417 2063.84 322.417 2053.58 312.156 2053.58 299.5Z" fill="#156082"/><path d="M3.4375-2.5062e-06 3.43786 495-3.43714 495-3.4375 2.5062e-06ZM22.917 495C22.917 507.656 12.6569 517.917 0.0003776 517.917-12.6561 517.917-22.9163 507.657-22.9163 495-22.9163 482.344-12.6562 472.083 0.000344184 472.083 12.6569 472.083 22.917 482.343 22.917 495Z" fill="#156082" transform="matrix(-1 0 0 1 2070.5 1312.5)"/><path d="M1303.5 736.5 1303.5 1370.27" stroke="#156082" stroke-width="6.875" stroke-miterlimit="8" fill="none" fill-rule="evenodd"/><path d="M2849.5 736.5 2849.5 1370.27" stroke="#156082" stroke-width="6.875" stroke-miterlimit="8" fill="none" fill-rule="evenodd"/><path d="M2586.5 538.167C2586.5 516.26 2604.26 498.5 2626.17 498.5L3072.83 498.5C3094.74 498.5 3112.5 516.26 3112.5 538.167L3112.5 696.833C3112.5 718.74 3094.74 736.5 3072.83 736.5L2626.17 736.5C2604.26 736.5 2586.5 718.74 2586.5 696.833Z" stroke="#042433" stroke-width="6.875" stroke-miterlimit="8" fill="#FFFFCC" fill-rule="evenodd"/><path d="M2586.5 974.168C2586.5 952.26 2604.26 934.5 2626.17 934.5L3072.83 934.5C3094.74 934.5 3112.5 952.26 3112.5 974.168L3112.5 1132.83C3112.5 1154.74 3094.74 1172.5 3072.83 1172.5L2626.17 1172.5C2604.26 1172.5 2586.5 1154.74 2586.5 1132.83Z" stroke="#042433" stroke-width="6.875" stroke-miterlimit="8" fill="#FFFFCC" fill-rule="evenodd"/><path d="M2586.5 1410.17C2586.5 1388.26 2604.26 1370.5 2626.17 1370.5L3072.83 1370.5C3094.74 1370.5 3112.5 1388.26 3112.5 1410.17L3112.5 1568.83C3112.5 1590.74 3094.74 1608.5 3072.83 1608.5L2626.17 1608.5C2604.26 1608.5 2586.5 1590.74 2586.5 1568.83Z" stroke="#042433" stroke-width="6.875" stroke-miterlimit="8" fill="#FFFFCC" fill-rule="evenodd"/><path d="M1040.5 538.167C1040.5 516.26 1058.26 498.5 1080.17 498.5L1525.83 498.5C1547.74 498.5 1565.5 516.26 1565.5 538.167L1565.5 696.833C1565.5 718.741 1547.74 736.5 1525.83 736.5L1080.17 736.5C1058.26 736.5 1040.5 718.741 1040.5 696.833Z" stroke="#042433" stroke-width="6.875" stroke-miterlimit="8" fill="#FFFFCC" fill-rule="evenodd"/><path d="M1040.5 974.167C1040.5 952.26 1058.26 934.5 1080.17 934.5L1525.83 934.5C1547.74 934.5 1565.5 952.26 1565.5 974.167L1565.5 1132.83C1565.5 1154.74 1547.74 1172.5 1525.83 1172.5L1080.17 1172.5C1058.26 1172.5 1040.5 1154.74 1040.5 1132.83Z" stroke="#042433" stroke-width="6.875" stroke-miterlimit="8" fill="#FFFFCC" fill-rule="evenodd"/><path d="M1040.5 1410.17C1040.5 1388.26 1058.26 1370.5 1080.17 1370.5L1525.83 1370.5C1547.74 1370.5 1565.5 1388.26 1565.5 1410.17L1565.5 1568.83C1565.5 1590.74 1547.74 1608.5 1525.83 1608.5L1080.17 1608.5C1058.26 1608.5 1040.5 1590.74 1040.5 1568.83Z" stroke="#042433" stroke-width="6.875" stroke-miterlimit="8" fill="#FFFFCC" fill-rule="evenodd"/><path d="M1565.5 617.5 1836.74 873.153" stroke="#156082" stroke-width="6.875" stroke-miterlimit="8" fill="none" fill-rule="evenodd"/><path d="M1565.5 1053.5 1737.73 1055.23" stroke="#156082" stroke-width="6.875" stroke-miterlimit="8" fill="none" fill-rule="evenodd"/><path d="M0 0 271.241 252.201" stroke="#156082" stroke-width="6.875" stroke-miterlimit="8" fill="none" fill-rule="evenodd" transform="matrix(1 0 0 -1 1565.5 1489.7)"/><path d="M0 0 271.241 255.653" stroke="#156082" stroke-width="6.875" stroke-miterlimit="8" fill="none" fill-rule="evenodd" transform="matrix(-1 0 0 1 2586.74 617.5)"/><path d="M0 0 172.229 1.72615" stroke="#156082" stroke-width="6.875" stroke-miterlimit="8" fill="none" fill-rule="evenodd" transform="matrix(1 0 0 -1 2414.5 1055.23)"/><path d="M2315.5 1237.5 2586.74 1489.7" stroke="#156082" stroke-width="6.875" stroke-miterlimit="8" fill="none" fill-rule="evenodd"/><path d="M1303.62 503.208C1296.18 449.092 1636.17 404.458 2063.03 403.514 2489.88 402.571 2841.94 445.676 2849.38 499.791 2849.46 500.361 2849.5 500.93 2849.5 501.499" stroke="#156082" stroke-width="6.875" stroke-miterlimit="8" fill="none" fill-rule="evenodd"/></g></svg>