<svg width="1887" height="5386" xmlns="http://www.w3.org/2000/svg" xmlns:xlink="http://www.w3.org/1999/xlink" xml:space="preserve" overflow="hidden"><defs><clipPath id="clip0"><rect x="4306" y="789" width="1887" height="5386"/></clipPath></defs><g clip-path="url(#clip0)" transform="translate(-4306 -789)"><rect x="4306" y="789" width="1887" height="5386" fill="#FFFFFF"/><g><path d="M4529.5 1061.5 4529.5 5691.5M4930.66 1061.5 4930.66 5691.5M5734.69 1061.5 5734.69 5691.5M6135.5 1061.5 6135.5 5691.5" stroke="#D9D9D9" stroke-width="3.4375" stroke-linejoin="round" stroke-miterlimit="10" fill="none"/></g><g><path d="M5558.18 5621.18 5332.17 5621.18 5332.17 5579.18 5558.18 5579.18ZM5789.19 5560.18 5332.17 5560.18 5332.17 5518.18 5789.19 5518.18ZM5405.18 5377.18 5332.17 5377.18 5332.17 5335.17 5405.18 5335.17ZM5564.18 5316.17 5332.17 5316.17 5332.17 5274.17 5564.18 5274.17ZM5462.18 5255.17 5332.17 5255.17 5332.17 5213.17 5462.18 5213.17ZM5640.19 5133.17 5332.17 5133.17 5332.17 5091.17 5640.19 5091.17ZM6079.2 5072.17 5332.17 5072.17 5332.17 5030.17 6079.2 5030.17ZM5414.18 5011.16 5332.17 5011.16 5332.17 4969.16 5414.18 4969.16ZM5475.18 4768.16 5332.17 4768.16 5332.17 4726.15 5475.18 4726.15ZM5542.18 4707.15 5332.17 4707.15 5332.17 4665.15 5542.18 4665.15ZM5359.18 4585.15 5332.17 4585.15 5332.17 4543.15 5359.18 4543.15ZM5461.18 4524.15 5332.17 4524.15 5332.17 4482.15 5461.18 4482.15ZM5381.18 4463.15 5332.17 4463.15 5332.17 4421.15 5381.18 4421.15ZM5467.18 4402.14 5332.17 4402.14 5332.17 4360.14 5467.18 4360.14ZM5395.18 4341.14 5332.17 4341.14 5332.17 4299.14 5395.18 4299.14ZM5612.18 4280.14 5332.17 4280.14 5332.17 4238.14 5612.18 4238.14ZM5597.18 4037.13 5332.17 4037.13 5332.17 3995.13 5597.18 3995.13ZM5924.19 3976.13 5332.17 3976.13 5332.17 3934.13 5924.19 3934.13ZM5421.18 3854.13 5332.17 3854.13 5332.17 3812.12 5421.18 3812.12ZM5469.18 3793.12 5332.17 3793.12 5332.17 3751.12 5469.18 3751.12ZM5430.18 3732.12 5332.17 3732.12 5332.17 3690.12 5430.18 3690.12ZM5650.19 3671.12 5332.17 3671.12 5332.17 3629.12 5650.19 3629.12ZM5580.18 3610.12 5332.17 3610.12 5332.17 3568.12 5580.18 3568.12ZM5387.18 3428.11 5332.17 3428.11 5332.17 3385.11 5387.18 3385.11ZM5948.2 3367.11 5332.17 3367.11 5332.17 3325.11 5948.2 3325.11ZM5493.18 3306.11 5332.17 3306.11 5332.17 3264.11 5493.18 3264.11ZM5682.19 3123.1 5332.17 3123.1 5332.17 3081.1 5682.19 3081.1ZM5782.19 3062.1 5332.17 3062.1 5332.17 3020.1 5782.19 3020.1ZM5356.18 2940.1 5332.17 2940.1 5332.17 2898.09 5356.18 2898.09ZM5379.18 2879.09 5332.17 2879.09 5332.17 2837.09 5379.18 2837.09ZM5360.18 2818.09 5332.17 2818.09 5332.17 2776.09 5360.18 2776.09ZM5503.18 2757.09 5332.17 2757.09 5332.17 2715.09 5503.18 2715.09ZM5459.18 2696.09 5332.17 2696.09 5332.17 2654.09 5459.18 2654.09ZM5478.18 2514.08 5332.17 2514.08 5332.17 2472.08 5478.18 2472.08ZM5803.19 2453.08 5332.17 2453.08 5332.17 2411.08 5803.19 2411.08ZM5353.18 2331.08 5332.17 2331.08 5332.17 2289.08 5353.18 2289.08ZM5660.19 2270.07 5332.17 2270.07 5332.17 2228.07 5660.19 2228.07ZM5468.18 2209.07 5332.17 2209.07 5332.17 2167.07 5468.18 2167.07ZM5500.18 2087.07 5332.17 2087.07 5332.17 2045.07 5500.18 2045.07ZM5779.19 2026.07 5332.17 2026.07 5332.17 1984.07 5779.19 1984.07ZM5400.18 1965.06 5332.17 1965.06 5332.17 1923.06 5400.18 1923.06ZM5642.19 1905.06 5332.17 1905.06 5332.17 1863.06 5642.19 1863.06ZM5403.18 1661.05 5332.17 1661.05 5332.17 1619.05 5403.18 1619.05ZM5683.19 1600.05 5332.17 1600.05 5332.17 1558.05 5683.19 1558.05ZM5787.19 1539.05 5332.17 1539.05 5332.17 1497.05 5787.19 1497.05ZM5363.18 1356.04 5332.17 1356.04 5332.17 1314.04 5363.18 1314.04ZM5660.19 1295.04 5332.17 1295.04 5332.17 1253.04 5660.19 1253.04ZM5354.18 1234.04 5332.17 1234.04 5332.17 1192.04 5354.18 1192.04ZM5580.18 1174.04 5332.17 1174.04 5332.17 1132.04 5580.18 1132.04Z" fill="#C00000"/></g><g><path d="M5268.17 5681.19 5332.17 5681.19 5332.17 5639.19 5268.17 5639.19ZM5311.17 5560.18 5332.17 5560.18 5332.17 5518.18 5311.17 5518.18ZM4923.16 5499.18 5332.17 5499.18 5332.17 5457.18 4923.16 5457.18ZM5086.17 5438.18 5332.17 5438.18 5332.17 5396.18 5086.17 5396.18ZM5140.17 5377.18 5332.17 5377.18 5332.17 5335.17 5140.17 5335.17ZM5250.17 5255.17 5332.17 5255.17 5332.17 5213.17 5250.17 5213.17ZM5243.17 5194.17 5332.17 5194.17 5332.17 5152.17 5243.17 5152.17ZM5239.17 5133.17 5332.17 5133.17 5332.17 5091.17 5239.17 5091.17ZM5281.17 4890.16 5332.17 4890.16 5332.17 4848.16 5281.17 4848.16ZM5010.16 4829.16 5332.17 4829.16 5332.17 4787.16 5010.16 4787.16ZM4953.16 4768.16 5332.17 4768.16 5332.17 4726.15 4953.16 4726.15ZM5242.17 4707.15 5332.17 4707.15 5332.17 4665.15 5242.17 4665.15ZM5004.16 4646.15 5332.17 4646.15 5332.17 4604.15 5004.16 4604.15ZM5056.17 4585.15 5332.17 4585.15 5332.17 4543.15 5056.17 4543.15ZM5244.17 4524.15 5332.17 4524.15 5332.17 4482.15 5244.17 4482.15ZM5276.17 4463.15 5332.17 4463.15 5332.17 4421.15 5276.17 4421.15ZM5284.17 4219.14 5332.17 4219.14 5332.17 4177.14 5284.17 4177.14ZM4930.16 4159.14 5332.17 4159.14 5332.17 4117.14 4930.16 4117.14ZM4742.16 4098.13 5332.17 4098.13 5332.17 4056.13 4742.16 4056.13ZM5027.17 4037.13 5332.17 4037.13 5332.17 3995.13 5027.17 3995.13ZM5312.17 3976.13 5332.17 3976.13 5332.17 3934.13 5312.17 3934.13ZM5242.17 3915.13 5332.17 3915.13 5332.17 3873.13 5242.17 3873.13ZM5160.17 3854.13 5332.17 3854.13 5332.17 3812.12 5160.17 3812.12ZM5107.17 3488.11 5332.17 3488.11 5332.17 3446.11 5107.17 3446.11ZM4894.16 3428.11 5332.17 3428.11 5332.17 3385.11 4894.16 3385.11ZM5138.17 3245.11 5332.17 3245.11 5332.17 3203.1 5138.17 3203.1ZM5183.17 3184.1 5332.17 3184.1 5332.17 3142.1 5183.17 3142.1ZM5223.17 3123.1 5332.17 3123.1 5332.17 3081.1 5223.17 3081.1ZM5312.17 3001.1 5332.17 3001.1 5332.17 2959.1 5312.17 2959.1ZM5193.17 2696.09 5332.17 2696.09 5332.17 2654.09 5193.17 2654.09ZM4825.16 2636.09 5332.17 2636.09 5332.17 2594.08 4825.16 2594.08ZM4936.16 2575.08 5332.17 2575.08 5332.17 2533.08 4936.16 2533.08ZM4893.16 2514.08 5332.17 2514.08 5332.17 2472.08 4893.16 2472.08ZM5304.17 2453.08 5332.17 2453.08 5332.17 2411.08 5304.17 2411.08ZM4879.16 2392.08 5332.17 2392.08 5332.17 2350.08 4879.16 2350.08ZM5135.17 2331.08 5332.17 2331.08 5332.17 2289.08 5135.17 2289.08ZM5252.17 2209.07 5332.17 2209.07 5332.17 2167.07 5252.17 2167.07ZM5311.17 2148.07 5332.17 2148.07 5332.17 2106.07 5311.17 2106.07ZM5309.17 2026.07 5332.17 2026.07 5332.17 1984.07 5309.17 1984.07ZM5108.17 1965.06 5332.17 1965.06 5332.17 1923.06 5108.17 1923.06ZM5124.17 1478.05 5332.17 1478.05 5332.17 1436.05 5124.17 1436.05ZM4875.16 1417.05 5332.17 1417.05 5332.17 1375.05 4875.16 1375.05ZM5108.17 1356.04 5332.17 1356.04 5332.17 1314.04 5108.17 1314.04ZM5278.17 1174.04 5332.17 1174.04 5332.17 1132.04 5278.17 1132.04ZM4968.16 1113.04 5332.17 1113.04 5332.17 1071.04 4968.16 1071.04Z" fill="#4472C4"/></g><g><path d="M0 0 0.000360892 4630" stroke="#D9D9D9" stroke-width="3.4375" stroke-linejoin="round" stroke-miterlimit="10" fill="none" fill-rule="evenodd" transform="matrix(1 0 0 -1 5332.5 5691.5)"/></g><g><text font-family="Arial,Arial_MSFontService,sans-serif" font-weight="400" font-size="50" transform="matrix(1 0 0 1 4492.95 5768)">-20</text></g><g><text font-family="Arial,Arial_MSFontService,sans-serif" font-weight="400" font-size="50" transform="matrix(1 0 0 1 4894.56 5768)">-10</text></g><g><text font-family="Arial,Arial_MSFontService,sans-serif" font-weight="400" font-size="50" transform="matrix(1 0 0 1 5318.59 5768)">0</text></g><g><text font-family="Arial,Arial_MSFontService,sans-serif" font-weight="400" font-size="50" transform="matrix(1 0 0 1 5706.18 5768)">10</text></g><g><text font-family="Arial,Arial_MSFontService,sans-serif" font-weight="400" font-size="50" transform="matrix(1 0 0 1 6107.79 5768)">20</text></g><g><text font-family="Arial,Arial_MSFontService,sans-serif" font-weight="400" font-size="50" transform="matrix(1 0 0 1 4373.82 5677)">2025</text></g><g><text font-family="Arial,Arial_MSFontService,sans-serif" font-weight="400" font-size="50" transform="matrix(1 0 0 1 4373.82 5616)">2024</text></g><g><text font-family="Arial,Arial_MSFontService,sans-serif" font-weight="400" font-size="50" transform="matrix(1 0 0 1 4373.82 5555)">2023</text></g><g><text font-family="Arial,Arial_MSFontService,sans-serif" font-weight="400" font-size="50" transform="matrix(1 0 0 1 4373.82 5494)">2022</text></g><g><text font-family="Arial,Arial_MSFontService,sans-serif" font-weight="400" font-size="50" transform="matrix(1 0 0 1 4373.82 5433)">2021</text></g><g><text font-family="Arial,Arial_MSFontService,sans-serif" font-weight="400" font-size="50" transform="matrix(1 0 0 1 4373.82 5372)">2020</text></g><g><text font-family="Arial,Arial_MSFontService,sans-serif" font-weight="400" font-size="50" transform="matrix(1 0 0 1 4373.82 5311)">2019</text></g><g><text font-family="Arial,Arial_MSFontService,sans-serif" font-weight="400" font-size="50" transform="matrix(1 0 0 1 4373.82 5251)">2018</text></g><g><text font-family="Arial,Arial_MSFontService,sans-serif" font-weight="400" font-size="50" transform="matrix(1 0 0 1 4373.82 5190)">2017</text></g><g><text font-family="Arial,Arial_MSFontService,sans-serif" font-weight="400" font-size="50" transform="matrix(1 0 0 1 4373.82 5129)">2016</text></g><g><text font-family="Arial,Arial_MSFontService,sans-serif" font-weight="400" font-size="50" transform="matrix(1 0 0 1 4373.82 5068)">2015</text></g><g><text font-family="Arial,Arial_MSFontService,sans-serif" font-weight="400" font-size="50" transform="matrix(1 0 0 1 4373.82 5007)">2014</text></g><g><text font-family="Arial,Arial_MSFontService,sans-serif" font-weight="400" font-size="50" transform="matrix(1 0 0 1 4373.82 4946)">2013</text></g><g><text font-family="Arial,Arial_MSFontService,sans-serif" font-weight="400" font-size="50" transform="matrix(1 0 0 1 4373.82 4885)">2012</text></g><g><text font-family="Arial,Arial_MSFontService,sans-serif" font-weight="400" font-size="50" transform="matrix(1 0 0 1 4373.82 4824)">2011</text></g><g><text font-family="Arial,Arial_MSFontService,sans-serif" font-weight="400" font-size="50" transform="matrix(1 0 0 1 4373.82 4763)">2010</text></g><g><text font-family="Arial,Arial_MSFontService,sans-serif" font-weight="400" font-size="50" transform="matrix(1 0 0 1 4373.82 4702)">2009</text></g><g><text font-family="Arial,Arial_MSFontService,sans-serif" font-weight="400" font-size="50" transform="matrix(1 0 0 1 4373.82 4641)">2008</text></g><g><text font-family="Arial,Arial_MSFontService,sans-serif" font-weight="400" font-size="50" transform="matrix(1 0 0 1 4373.82 4580)">2007</text></g><g><text font-family="Arial,Arial_MSFontService,sans-serif" font-weight="400" font-size="50" transform="matrix(1 0 0 1 4373.82 4520)">2006</text></g><g><text font-family="Arial,Arial_MSFontService,sans-serif" font-weight="400" font-size="50" transform="matrix(1 0 0 1 4373.82 4459)">2005</text></g><g><text font-family="Arial,Arial_MSFontService,sans-serif" font-weight="400" font-size="50" transform="matrix(1 0 0 1 4373.82 4398)">2004</text></g><g><text font-family="Arial,Arial_MSFontService,sans-serif" font-weight="400" font-size="50" transform="matrix(1 0 0 1 4373.82 4337)">2003</text></g><g><text font-family="Arial,Arial_MSFontService,sans-serif" font-weight="400" font-size="50" transform="matrix(1 0 0 1 4373.82 4276)">2002</text></g><g><text font-family="Arial,Arial_MSFontService,sans-serif" font-weight="400" font-size="50" transform="matrix(1 0 0 1 4373.82 4215)">2001</text></g><g><text font-family="Arial,Arial_MSFontService,sans-serif" font-weight="400" font-size="50" transform="matrix(1 0 0 1 4373.82 4154)">2000</text></g><g><text font-family="Arial,Arial_MSFontService,sans-serif" font-weight="400" font-size="50" transform="matrix(1 0 0 1 4373.82 4093)">1999</text></g><g><text font-family="Arial,Arial_MSFontService,sans-serif" font-weight="400" font-size="50" transform="matrix(1 0 0 1 4373.82 4032)">1998</text></g><g><text font-family="Arial,Arial_MSFontService,sans-serif" font-weight="400" font-size="50" transform="matrix(1 0 0 1 4373.82 3971)">1997</text></g><g><text font-family="Arial,Arial_MSFontService,sans-serif" font-weight="400" font-size="50" transform="matrix(1 0 0 1 4373.82 3910)">1996</text></g><g><text font-family="Arial,Arial_MSFontService,sans-serif" font-weight="400" font-size="50" transform="matrix(1 0 0 1 4373.82 3849)">1995</text></g><g><text font-family="Arial,Arial_MSFontService,sans-serif" font-weight="400" font-size="50" transform="matrix(1 0 0 1 4373.82 3788)">1994</text></g><g><text font-family="Arial,Arial_MSFontService,sans-serif" font-weight="400" font-size="50" transform="matrix(1 0 0 1 4373.82 3728)">1993</text></g><g><text font-family="Arial,Arial_MSFontService,sans-serif" font-weight="400" font-size="50" transform="matrix(1 0 0 1 4373.82 3667)">1992</text></g><g><text font-family="Arial,Arial_MSFontService,sans-serif" font-weight="400" font-size="50" transform="matrix(1 0 0 1 4373.82 3606)">1991</text></g><g><text font-family="Arial,Arial_MSFontService,sans-serif" font-weight="400" font-size="50" transform="matrix(1 0 0 1 4373.82 3545)">1990</text></g><g><text font-family="Arial,Arial_MSFontService,sans-serif" font-weight="400" font-size="50" transform="matrix(1 0 0 1 4373.82 3484)">1989</text></g><g><text font-family="Arial,Arial_MSFontService,sans-serif" font-weight="400" font-size="50" transform="matrix(1 0 0 1 4373.82 3423)">1988</text></g><g><text font-family="Arial,Arial_MSFontService,sans-serif" font-weight="400" font-size="50" transform="matrix(1 0 0 1 4373.82 3362)">1987</text></g><g><text font-family="Arial,Arial_MSFontService,sans-serif" font-weight="400" font-size="50" transform="matrix(1 0 0 1 4373.82 3301)">1986</text></g><g><text font-family="Arial,Arial_MSFontService,sans-serif" font-weight="400" font-size="50" transform="matrix(1 0 0 1 4373.82 3240)">1985</text></g><g><text font-family="Arial,Arial_MSFontService,sans-serif" font-weight="400" font-size="50" transform="matrix(1 0 0 1 4373.82 3179)">1984</text></g><g><text font-family="Arial,Arial_MSFontService,sans-serif" font-weight="400" font-size="50" transform="matrix(1 0 0 1 4373.82 3118)">1983</text></g><g><text font-family="Arial,Arial_MSFontService,sans-serif" font-weight="400" font-size="50" transform="matrix(1 0 0 1 4373.82 3057)">1982</text></g><g><text font-family="Arial,Arial_MSFontService,sans-serif" font-weight="400" font-size="50" transform="matrix(1 0 0 1 4373.82 2997)">1981</text></g><g><text font-family="Arial,Arial_MSFontService,sans-serif" font-weight="400" font-size="50" transform="matrix(1 0 0 1 4373.82 2936)">1980</text></g><g><text font-family="Arial,Arial_MSFontService,sans-serif" font-weight="400" font-size="50" transform="matrix(1 0 0 1 4373.82 2875)">1979</text></g><g><text font-family="Arial,Arial_MSFontService,sans-serif" font-weight="400" font-size="50" transform="matrix(1 0 0 1 4373.82 2814)">1978</text></g><g><text font-family="Arial,Arial_MSFontService,sans-serif" font-weight="400" font-size="50" transform="matrix(1 0 0 1 4373.82 2753)">1977</text></g><g><text font-family="Arial,Arial_MSFontService,sans-serif" font-weight="400" font-size="50" transform="matrix(1 0 0 1 4373.82 2692)">1976</text></g><g><text font-family="Arial,Arial_MSFontService,sans-serif" font-weight="400" font-size="50" transform="matrix(1 0 0 1 4373.82 2631)">1975</text></g><g><text font-family="Arial,Arial_MSFontService,sans-serif" font-weight="400" font-size="50" transform="matrix(1 0 0 1 4373.82 2570)">1974</text></g><g><text font-family="Arial,Arial_MSFontService,sans-serif" font-weight="400" font-size="50" transform="matrix(1 0 0 1 4373.82 2509)">1973</text></g><g><text font-family="Arial,Arial_MSFontService,sans-serif" font-weight="400" font-size="50" transform="matrix(1 0 0 1 4373.82 2448)">1972</text></g><g><text font-family="Arial,Arial_MSFontService,sans-serif" font-weight="400" font-size="50" transform="matrix(1 0 0 1 4373.82 2387)">1971</text></g><g><text font-family="Arial,Arial_MSFontService,sans-serif" font-weight="400" font-size="50" transform="matrix(1 0 0 1 4373.82 2326)">1970</text></g><g><text font-family="Arial,Arial_MSFontService,sans-serif" font-weight="400" font-size="50" transform="matrix(1 0 0 1 4373.82 2265)">1969</text></g><g><text font-family="Arial,Arial_MSFontService,sans-serif" font-weight="400" font-size="50" transform="matrix(1 0 0 1 4373.82 2205)">1968</text></g><g><text font-family="Arial,Arial_MSFontService,sans-serif" font-weight="400" font-size="50" transform="matrix(1 0 0 1 4373.82 2144)">1967</text></g><g><text font-family="Arial,Arial_MSFontService,sans-serif" font-weight="400" font-size="50" transform="matrix(1 0 0 1 4373.82 2083)">1966</text></g><g><text font-family="Arial,Arial_MSFontService,sans-serif" font-weight="400" font-size="50" transform="matrix(1 0 0 1 4373.82 2022)">1965</text></g><g><text font-family="Arial,Arial_MSFontService,sans-serif" font-weight="400" font-size="50" transform="matrix(1 0 0 1 4373.82 1961)">1964</text></g><g><text font-family="Arial,Arial_MSFontService,sans-serif" font-weight="400" font-size="50" transform="matrix(1 0 0 1 4373.82 1900)">1963</text></g><g><text font-family="Arial,Arial_MSFontService,sans-serif" font-weight="400" font-size="50" transform="matrix(1 0 0 1 4373.82 1839)">1962</text></g><g><text font-family="Arial,Arial_MSFontService,sans-serif" font-weight="400" font-size="50" transform="matrix(1 0 0 1 4373.82 1778)">1961</text></g><g><text font-family="Arial,Arial_MSFontService,sans-serif" font-weight="400" font-size="50" transform="matrix(1 0 0 1 4373.82 1717)">1960</text></g><g><text font-family="Arial,Arial_MSFontService,sans-serif" font-weight="400" font-size="50" transform="matrix(1 0 0 1 4373.82 1656)">1959</text></g><g><text font-family="Arial,Arial_MSFontService,sans-serif" font-weight="400" font-size="50" transform="matrix(1 0 0 1 4373.82 1595)">1958</text></g><g><text font-family="Arial,Arial_MSFontService,sans-serif" font-weight="400" font-size="50" transform="matrix(1 0 0 1 4373.82 1534)">1957</text></g><g><text font-family="Arial,Arial_MSFontService,sans-serif" font-weight="400" font-size="50" transform="matrix(1 0 0 1 4373.82 1474)">1956</text></g><g><text font-family="Arial,Arial_MSFontService,sans-serif" font-weight="400" font-size="50" transform="matrix(1 0 0 1 4373.82 1413)">1955</text></g><g><text font-family="Arial,Arial_MSFontService,sans-serif" font-weight="400" font-size="50" transform="matrix(1 0 0 1 4373.82 1352)">1954</text></g><g><text font-family="Arial,Arial_MSFontService,sans-serif" font-weight="400" font-size="50" transform="matrix(1 0 0 1 4373.82 1291)">1953</text></g><g><text font-family="Arial,Arial_MSFontService,sans-serif" font-weight="400" font-size="50" transform="matrix(1 0 0 1 4373.82 1230)">1952</text></g><g><text font-family="Arial,Arial_MSFontService,sans-serif" font-weight="400" font-size="50" transform="matrix(1 0 0 1 4373.82 1169)">1951</text></g><g><text font-family="Arial,Arial_MSFontService,sans-serif" font-weight="400" font-size="50" transform="matrix(1 0 0 1 4373.82 1108)">1950</text></g><g><text font-family="Arial,Arial_MSFontService,sans-serif" font-weight="700" font-size="55" transform="matrix(1 0 0 1 5030.02 5844)">Severity of phenomena</text></g><g><text font-family="Arial,Arial_MSFontService,sans-serif" font-weight="400" font-size="55" transform="matrix(1 0 0 1 4728.78 5907)">Cumulative degrees above / below normal in year</text></g><g><text font-family="Arial,Arial_MSFontService,sans-serif" font-weight="700" font-size="64" transform="matrix(1 0 0 1 4845.83 883)">SOUTHERN OSCILLATION</text></g><g><rect x="5030" y="953" width="26" height="25.0001" fill="#4472C4"/></g><g><text font-family="Arial,Arial_MSFontService,sans-serif" font-weight="400" font-size="50" transform="matrix(1 0 0 1 5066.78 982)">La Niña</text></g><g><rect x="5295" y="953" width="24.9995" height="25.0001" fill="#C00000"/></g><g><text font-family="Arial,Arial_MSFontService,sans-serif" font-weight="400" font-size="50" transform="matrix(1 0 0 1 5331.33 982)">El Niño</text></g><g><g><text font-family="Arial,Arial_MSFontService,sans-serif" font-weight="400" font-size="46" transform="matrix(1 0 0 1 4473.52 6061)">Source: </text></g></g><g><g><text font-family="Calibri,Calibri_MSFontService,sans-serif" font-weight="400" font-size="50" transform="matrix(1 0 0 1 4644.2 6061)">Tellusant analysis; </text></g></g><g><g><text font-family="Arial,Arial_MSFontService,sans-serif" font-weight="400" font-size="46" transform="matrix(1 0 0 1 5027.21 6061)">National Weather Service</text></g></g><path d="M5748.5 1022.17C5748.5 988.662 5775.66 961.5 5809.17 961.5L6090.83 961.5C6124.34 961.5 6151.5 988.662 6151.5 1022.17L6151.5 1264.83C6151.5 1298.34 6124.34 1325.5 6090.83 1325.5L5809.17 1325.5C5775.66 1325.5 5748.5 1298.34 5748.5 1264.83Z" stroke="#172C51" stroke-width="4.58333" stroke-miterlimit="8" fill="#FFFFCC" fill-rule="evenodd"/><text font-family="Arial,Arial_MSFontService,sans-serif" font-weight="400" font-size="50" transform="matrix(1 0 0 1 5828.9 1044)">El Niño </text><text font-family="Cambria Math,Cambria Math_MSFontService,sans-serif" font-weight="400" font-size="50" transform="matrix(1 0 0 1 6005.45 1044)">∼</text><text font-family="Arial,Arial_MSFontService,sans-serif" font-weight="400" font-size="50" transform="matrix(1 0 0 1 6041.36 1044)">4 </text><text font-family="Arial,Arial_MSFontService,sans-serif" font-weight="400" font-size="50" transform="matrix(1 0 0 1 5823.03 1102)">years apart</text><text font-family="Arial,Arial_MSFontService,sans-serif" font-weight="400" font-size="50" transform="matrix(1 0 0 1 5823.26 1219)">La Niña </text><text font-family="Cambria Math,Cambria Math_MSFontService,sans-serif" font-weight="400" font-size="50" transform="matrix(1 0 0 1 6011.09 1219)">∼</text><text font-family="Arial,Arial_MSFontService,sans-serif" font-weight="400" font-size="50" transform="matrix(1 0 0 1 6047 1219)">5 </text><g><text font-family="Arial,Arial_MSFontService,sans-serif" font-weight="400" font-size="50" transform="matrix(1 0 0 1 5823.03 1277)">years apart</text></g></g></svg>