<svg width="1650" height="2660" xmlns="http://www.w3.org/2000/svg" xmlns:xlink="http://www.w3.org/1999/xlink" xml:space="preserve" overflow="hidden"><defs><clipPath id="clip0"><rect x="437" y="815" width="1650" height="2660"/></clipPath></defs><g clip-path="url(#clip0)" transform="translate(-437 -815)"><text font-family="Arial,Arial_MSFontService,sans-serif" font-weight="700" font-size="64" transform="matrix(1 0 0 1 617.341 897)">WORLD CUP PERFORMANCE 2002 − 2026</text><text font-family="Arial,Arial_MSFontService,sans-serif" font-weight="400" font-size="60" transform="matrix(1 0 0 1 540.272 970)">Final 16 countries in 7 cups, ranked by Zipf distribution</text><rect x="437" y="1002" width="1650" height="2396" fill="#FFFFFF"/><g><path d="M0 0 0.000360892 2279" stroke="#D9D9D9" stroke-width="3.4375" stroke-linejoin="round" stroke-miterlimit="10" fill="none" fill-rule="evenodd" transform="matrix(1 0 0 -1 897.5 3339.5)"/></g><g><path d="M908.5 3310.61 897.5 3310.61M897.5 3300.5 897.5 3321.5" stroke="#BFBFBF" stroke-width="3.4375" stroke-linejoin="round" stroke-miterlimit="10" fill="none"/></g><g><path d="M910.5 3253.61 897.5 3253.61M897.5 3243.5 897.5 3264.5" stroke="#BFBFBF" stroke-width="3.4375" stroke-linejoin="round" stroke-miterlimit="10" fill="none"/></g><g><path d="M912.5 3196.6 897.5 3196.6M897.5 3186.5 897.5 3207.5" stroke="#BFBFBF" stroke-width="3.4375" stroke-linejoin="round" stroke-miterlimit="10" fill="none"/></g><g><path d="M916.5 3139.6 897.5 3139.6M897.5 3129.5 897.5 3150.5" stroke="#BFBFBF" stroke-width="3.4375" stroke-linejoin="round" stroke-miterlimit="10" fill="none"/></g><g><path d="M916.5 3082.6 897.5 3082.6M897.5 3072.5 897.5 3093.5" stroke="#BFBFBF" stroke-width="3.4375" stroke-linejoin="round" stroke-miterlimit="10" fill="none"/></g><g><path d="M916.5 3025.6 897.5 3025.6M897.5 3015.5 897.5 3036.5" stroke="#BFBFBF" stroke-width="3.4375" stroke-linejoin="round" stroke-miterlimit="10" fill="none"/></g><g><path d="M921.5 2969.6 897.5 2969.6M897.5 2958.5 897.5 2979.5" stroke="#BFBFBF" stroke-width="3.4375" stroke-linejoin="round" stroke-miterlimit="10" fill="none"/></g><g><path d="M932.5 2912.6 897.5 2912.6M897.5 2901.5 897.5 2922.5" stroke="#BFBFBF" stroke-width="3.4375" stroke-linejoin="round" stroke-miterlimit="10" fill="none"/></g><g><path d="M934.5 2855.59 897.5 2855.59M897.5 2844.5 897.5 2865.5" stroke="#BFBFBF" stroke-width="3.4375" stroke-linejoin="round" stroke-miterlimit="10" fill="none"/></g><g><path d="M934.5 2798.59 897.5 2798.59M897.5 2787.5 897.5 2808.5" stroke="#BFBFBF" stroke-width="3.4375" stroke-linejoin="round" stroke-miterlimit="10" fill="none"/></g><g><path d="M935.5 2741.59 897.5 2741.59M897.5 2730.5 897.5 2751.5" stroke="#BFBFBF" stroke-width="3.4375" stroke-linejoin="round" stroke-miterlimit="10" fill="none"/></g><g><path d="M939.5 2684.59 897.5 2684.59M897.5 2673.5 897.5 2694.5" stroke="#BFBFBF" stroke-width="3.4375" stroke-linejoin="round" stroke-miterlimit="10" fill="none"/></g><g><path d="M941.5 2627.59 897.5 2627.59M897.5 2616.5 897.5 2637.5" stroke="#BFBFBF" stroke-width="3.4375" stroke-linejoin="round" stroke-miterlimit="10" fill="none"/></g><g><path d="M946.5 2570.58 897.5 2570.58M897.5 2560.5 897.5 2580.5" stroke="#BFBFBF" stroke-width="3.4375" stroke-linejoin="round" stroke-miterlimit="10" fill="none"/></g><g><path d="M948.5 2513.58 897.5 2513.58M897.5 2503.5 897.5 2523.5" stroke="#BFBFBF" stroke-width="3.4375" stroke-linejoin="round" stroke-miterlimit="10" fill="none"/></g><g><path d="M956.5 2456.58 897.5 2456.58M897.5 2446.5 897.5 2466.5" stroke="#BFBFBF" stroke-width="3.4375" stroke-linejoin="round" stroke-miterlimit="10" fill="none"/></g><g><path d="M970.5 2399.58 897.5 2399.58M897.5 2389.5 897.5 2409.5" stroke="#BFBFBF" stroke-width="3.4375" stroke-linejoin="round" stroke-miterlimit="10" fill="none"/></g><g><path d="M974.5 2342.58 897.5 2342.58M897.5 2332.5 897.5 2352.5" stroke="#BFBFBF" stroke-width="3.4375" stroke-linejoin="round" stroke-miterlimit="10" fill="none"/></g><g><path d="M974.5 2285.58 897.5 2285.58M897.5 2275.5 897.5 2295.5" stroke="#BFBFBF" stroke-width="3.4375" stroke-linejoin="round" stroke-miterlimit="10" fill="none"/></g><g><path d="M984.5 2228.57 897.5 2228.57M897.5 2218.5 897.5 2238.5" stroke="#BFBFBF" stroke-width="3.4375" stroke-linejoin="round" stroke-miterlimit="10" fill="none"/></g><g><path d="M987.5 2171.57 897.5 2171.57M897.5 2161.5 897.5 2181.5" stroke="#BFBFBF" stroke-width="3.4375" stroke-linejoin="round" stroke-miterlimit="10" fill="none"/></g><g><path d="M1012.5 2114.57 897.5 2114.57M897.5 2104.5 897.5 2124.5" stroke="#BFBFBF" stroke-width="3.4375" stroke-linejoin="round" stroke-miterlimit="10" fill="none"/></g><g><path d="M1014.5 2057.57 897.5 2057.57M897.5 2047.5 897.5 2067.5" stroke="#BFBFBF" stroke-width="3.4375" stroke-linejoin="round" stroke-miterlimit="10" fill="none"/></g><g><path d="M1036.5 2000.57 897.5 2000.57M897.5 1990.5 897.5 2010.5" stroke="#BFBFBF" stroke-width="3.4375" stroke-linejoin="round" stroke-miterlimit="10" fill="none"/></g><g><path d="M1058.5 1943.56 897.5 1943.56M897.5 1933.5 897.5 1953.5" stroke="#BFBFBF" stroke-width="3.4375" stroke-linejoin="round" stroke-miterlimit="10" fill="none"/></g><g><path d="M1063.5 1886.56 897.5 1886.56M897.5 1876.5 897.5 1896.5" stroke="#BFBFBF" stroke-width="3.4375" stroke-linejoin="round" stroke-miterlimit="10" fill="none"/></g><g><path d="M1068.5 1829.56 897.5 1829.56M897.5 1819.5 897.5 1839.5" stroke="#BFBFBF" stroke-width="3.4375" stroke-linejoin="round" stroke-miterlimit="10" fill="none"/></g><g><path d="M1127.5 1772.56 897.5 1772.56M897.5 1762.5 897.5 1783.5" stroke="#BFBFBF" stroke-width="3.4375" stroke-linejoin="round" stroke-miterlimit="10" fill="none"/></g><g><path d="M1154.5 1715.56 897.5 1715.56M897.5 1705.5 897.5 1726.5" stroke="#BFBFBF" stroke-width="3.4375" stroke-linejoin="round" stroke-miterlimit="10" fill="none"/></g><g><path d="M1206.5 1658.55 897.5 1658.55M897.5 1648.5 897.5 1669.5" stroke="#BFBFBF" stroke-width="3.4375" stroke-linejoin="round" stroke-miterlimit="10" fill="none"/></g><g><path d="M1212.5 1601.55 897.5 1601.55M897.5 1591.5 897.5 1612.5" stroke="#BFBFBF" stroke-width="3.4375" stroke-linejoin="round" stroke-miterlimit="10" fill="none"/></g><g><path d="M1309.5 1544.55 897.5 1544.55M897.5 1534.5 897.5 1555.5" stroke="#BFBFBF" stroke-width="3.4375" stroke-linejoin="round" stroke-miterlimit="10" fill="none"/></g><g><path d="M1309.5 1487.55 897.5 1487.55M897.5 1477.5 897.5 1498.5" stroke="#BFBFBF" stroke-width="3.4375" stroke-linejoin="round" stroke-miterlimit="10" fill="none"/></g><g><path d="M1328.5 1430.55 897.5 1430.55M897.5 1420.5 897.5 1441.5" stroke="#BFBFBF" stroke-width="3.4375" stroke-linejoin="round" stroke-miterlimit="10" fill="none"/></g><g><path d="M1341.5 1373.55 897.5 1373.55M897.5 1363.5 897.5 1384.5" stroke="#BFBFBF" stroke-width="3.4375" stroke-linejoin="round" stroke-miterlimit="10" fill="none"/></g><g><path d="M1363.5 1316.54 897.5 1316.54M897.5 1306.5 897.5 1327.5" stroke="#BFBFBF" stroke-width="3.4375" stroke-linejoin="round" stroke-miterlimit="10" fill="none"/></g><g><path d="M1424.5 1259.54 897.5 1259.54M897.5 1249.5 897.5 1270.5" stroke="#BFBFBF" stroke-width="3.4375" stroke-linejoin="round" stroke-miterlimit="10" fill="none"/></g><g><path d="M1496.5 1202.54 897.5 1202.54M897.5 1192.5 897.5 1213.5" stroke="#BFBFBF" stroke-width="3.4375" stroke-linejoin="round" stroke-miterlimit="10" fill="none"/></g><g><path d="M1868.5 1145.54 897.5 1145.54M897.5 1135.5 897.5 1156.5" stroke="#BFBFBF" stroke-width="3.4375" stroke-linejoin="round" stroke-miterlimit="10" fill="none"/></g><g><path d="M1872.5 1089.54 897.5 1089.54M897.5 1078.5 897.5 1099.5" stroke="#BFBFBF" stroke-width="3.4375" stroke-linejoin="round" stroke-miterlimit="10" fill="none"/></g><g><path d="M920.433 3311.53C920.433 3317.88 915.285 3323.03 908.933 3323.03 902.582 3323.03 897.434 3317.88 897.434 3311.53 897.434 3305.18 902.582 3300.03 908.933 3300.03 915.285 3300.03 920.433 3305.18 920.433 3311.53Z" stroke="#C00000" stroke-width="16.0417" stroke-linejoin="round" stroke-miterlimit="10" fill="#C00000"/><path d="M922.433 3254.53C922.433 3260.88 917.285 3266.03 910.934 3266.03 904.582 3266.03 899.434 3260.88 899.434 3254.53 899.434 3248.18 904.582 3243.03 910.934 3243.03 917.285 3243.03 922.433 3248.18 922.433 3254.53Z" stroke="#C00000" stroke-width="16.0417" stroke-linejoin="round" stroke-miterlimit="10" fill="#C00000"/><path d="M925.433 3197.53C925.433 3203.88 920.285 3209.03 913.934 3209.03 907.582 3209.03 902.434 3203.88 902.434 3197.53 902.434 3191.18 907.582 3186.03 913.934 3186.03 920.285 3186.03 925.433 3191.18 925.433 3197.53Z" stroke="#C00000" stroke-width="16.0417" stroke-linejoin="round" stroke-miterlimit="10" fill="#C00000"/><path d="M929.433 3140.53C929.433 3146.88 924.285 3152.03 917.933 3152.03 911.582 3152.03 906.434 3146.88 906.434 3140.53 906.434 3134.18 911.582 3129.03 917.933 3129.03 924.285 3129.03 929.433 3134.18 929.433 3140.53Z" stroke="#C00000" stroke-width="16.0417" stroke-linejoin="round" stroke-miterlimit="10" fill="#C00000"/><path d="M929.433 3083.53C929.433 3089.88 924.285 3095.03 917.933 3095.03 911.582 3095.03 906.434 3089.88 906.434 3083.53 906.434 3077.18 911.582 3072.03 917.933 3072.03 924.285 3072.03 929.433 3077.18 929.433 3083.53Z" stroke="#C00000" stroke-width="16.0417" stroke-linejoin="round" stroke-miterlimit="10" fill="#C00000"/><path d="M929.433 3026.53C929.433 3032.88 924.285 3038.03 917.933 3038.03 911.582 3038.03 906.434 3032.88 906.434 3026.53 906.434 3020.18 911.582 3015.03 917.933 3015.03 924.285 3015.03 929.433 3020.18 929.433 3026.53Z" stroke="#C00000" stroke-width="16.0417" stroke-linejoin="round" stroke-miterlimit="10" fill="#C00000"/><path d="M934.433 2969.53C934.433 2975.88 929.285 2981.03 922.934 2981.03 916.582 2981.03 911.434 2975.88 911.434 2969.53 911.434 2963.18 916.582 2958.03 922.934 2958.03 929.285 2958.03 934.433 2963.18 934.433 2969.53Z" stroke="#C00000" stroke-width="16.0417" stroke-linejoin="round" stroke-miterlimit="10" fill="#C00000"/><path d="M944.433 2912.53C944.433 2918.88 939.285 2924.03 932.934 2924.03 926.582 2924.03 921.434 2918.88 921.434 2912.53 921.434 2906.18 926.582 2901.03 932.934 2901.03 939.285 2901.03 944.433 2906.18 944.433 2912.53Z" stroke="#C00000" stroke-width="16.0417" stroke-linejoin="round" stroke-miterlimit="10" fill="#C00000"/><path d="M946.433 2855.53C946.433 2861.88 941.285 2867.03 934.934 2867.03 928.582 2867.03 923.434 2861.88 923.434 2855.53 923.434 2849.18 928.582 2844.03 934.934 2844.03 941.285 2844.03 946.433 2849.18 946.433 2855.53Z" stroke="#C00000" stroke-width="16.0417" stroke-linejoin="round" stroke-miterlimit="10" fill="#C00000"/><path d="M946.433 2798.53C946.433 2804.88 941.285 2810.03 934.934 2810.03 928.582 2810.03 923.434 2804.88 923.434 2798.53 923.434 2792.18 928.582 2787.03 934.934 2787.03 941.285 2787.03 946.433 2792.18 946.433 2798.53Z" stroke="#C00000" stroke-width="16.0417" stroke-linejoin="round" stroke-miterlimit="10" fill="#C00000"/><path d="M948.433 2741.53C948.433 2747.88 943.284 2753.03 936.933 2753.03 930.582 2753.03 925.433 2747.88 925.433 2741.53 925.433 2735.18 930.582 2730.03 936.933 2730.03 943.284 2730.03 948.433 2735.18 948.433 2741.53Z" stroke="#C00000" stroke-width="16.0417" stroke-linejoin="round" stroke-miterlimit="10" fill="#C00000"/><path d="M952.433 2684.53C952.433 2690.88 947.285 2696.03 940.933 2696.03 934.582 2696.03 929.434 2690.88 929.434 2684.53 929.434 2678.18 934.582 2673.03 940.933 2673.03 947.285 2673.03 952.433 2678.18 952.433 2684.53Z" stroke="#C00000" stroke-width="16.0417" stroke-linejoin="round" stroke-miterlimit="10" fill="#C00000"/><path d="M954.433 2627.53C954.433 2633.88 949.285 2639.03 942.933 2639.03 936.582 2639.03 931.434 2633.88 931.434 2627.53 931.434 2621.18 936.582 2616.03 942.933 2616.03 949.285 2616.03 954.433 2621.18 954.433 2627.53Z" stroke="#C00000" stroke-width="16.0417" stroke-linejoin="round" stroke-miterlimit="10" fill="#C00000"/><path d="M959.433 2570.53C959.433 2576.88 954.284 2582.03 947.933 2582.03 941.582 2582.03 936.433 2576.88 936.433 2570.53 936.433 2564.18 941.582 2559.03 947.933 2559.03 954.284 2559.03 959.433 2564.18 959.433 2570.53Z" stroke="#C00000" stroke-width="16.0417" stroke-linejoin="round" stroke-miterlimit="10" fill="#C00000"/><path d="M961.433 2513.53C961.433 2519.88 956.285 2525.03 949.933 2525.03 943.582 2525.03 938.434 2519.88 938.434 2513.53 938.434 2507.18 943.582 2502.03 949.933 2502.03 956.285 2502.03 961.433 2507.18 961.433 2513.53Z" stroke="#C00000" stroke-width="16.0417" stroke-linejoin="round" stroke-miterlimit="10" fill="#C00000"/><path d="M969.433 2456.53C969.433 2462.88 964.285 2468.03 957.934 2468.03 951.582 2468.03 946.434 2462.88 946.434 2456.53 946.434 2450.18 951.582 2445.03 957.934 2445.03 964.285 2445.03 969.433 2450.18 969.433 2456.53Z" stroke="#C00000" stroke-width="16.0417" stroke-linejoin="round" stroke-miterlimit="10" fill="#C00000"/><path d="M982.433 2399.53C982.433 2405.88 977.284 2411.03 970.933 2411.03 964.582 2411.03 959.433 2405.88 959.433 2399.53 959.433 2393.18 964.582 2388.03 970.933 2388.03 977.284 2388.03 982.433 2393.18 982.433 2399.53Z" stroke="#C00000" stroke-width="16.0417" stroke-linejoin="round" stroke-miterlimit="10" fill="#C00000"/><path d="M986.433 2342.53C986.433 2348.88 981.285 2354.03 974.933 2354.03 968.582 2354.03 963.434 2348.88 963.434 2342.53 963.434 2336.18 968.582 2331.03 974.933 2331.03 981.285 2331.03 986.433 2336.18 986.433 2342.53Z" stroke="#C00000" stroke-width="16.0417" stroke-linejoin="round" stroke-miterlimit="10" fill="#C00000"/><path d="M986.433 2285.53C986.433 2291.88 981.285 2297.03 974.933 2297.03 968.582 2297.03 963.434 2291.88 963.434 2285.53 963.434 2279.18 968.582 2274.03 974.933 2274.03 981.285 2274.03 986.433 2279.18 986.433 2285.53Z" stroke="#C00000" stroke-width="16.0417" stroke-linejoin="round" stroke-miterlimit="10" fill="#C00000"/><path d="M996.433 2228.53C996.433 2234.88 991.285 2240.03 984.933 2240.03 978.582 2240.03 973.434 2234.88 973.434 2228.53 973.434 2222.18 978.582 2217.03 984.933 2217.03 991.285 2217.03 996.433 2222.18 996.433 2228.53Z" stroke="#C00000" stroke-width="16.0417" stroke-linejoin="round" stroke-miterlimit="10" fill="#C00000"/><path d="M1000.43 2172.53C1000.43 2178.88 995.285 2184.03 988.934 2184.03 982.582 2184.03 977.434 2178.88 977.434 2172.53 977.434 2166.18 982.582 2161.03 988.934 2161.03 995.285 2161.03 1000.43 2166.18 1000.43 2172.53Z" stroke="#C00000" stroke-width="16.0417" stroke-linejoin="round" stroke-miterlimit="10" fill="#C00000"/><path d="M1024.43 2115.53C1024.43 2121.88 1019.28 2127.03 1012.93 2127.03 1006.58 2127.03 1001.43 2121.88 1001.43 2115.53 1001.43 2109.18 1006.58 2104.03 1012.93 2104.03 1019.28 2104.03 1024.43 2109.18 1024.43 2115.53Z" stroke="#C00000" stroke-width="16.0417" stroke-linejoin="round" stroke-miterlimit="10" fill="#C00000"/><path d="M1027.43 2058.53C1027.43 2064.88 1022.28 2070.03 1015.93 2070.03 1009.58 2070.03 1004.43 2064.88 1004.43 2058.53 1004.43 2052.18 1009.58 2047.03 1015.93 2047.03 1022.28 2047.03 1027.43 2052.18 1027.43 2058.53Z" stroke="#C00000" stroke-width="16.0417" stroke-linejoin="round" stroke-miterlimit="10" fill="#C00000"/><path d="M1049.43 2001.53C1049.43 2007.88 1044.28 2013.03 1037.93 2013.03 1031.58 2013.03 1026.43 2007.88 1026.43 2001.53 1026.43 1995.18 1031.58 1990.03 1037.93 1990.03 1044.28 1990.03 1049.43 1995.18 1049.43 2001.53Z" stroke="#C00000" stroke-width="16.0417" stroke-linejoin="round" stroke-miterlimit="10" fill="#C00000"/><path d="M1070.43 1944.53C1070.43 1950.88 1065.28 1956.03 1058.93 1956.03 1052.58 1956.03 1047.43 1950.88 1047.43 1944.53 1047.43 1938.18 1052.58 1933.03 1058.93 1933.03 1065.28 1933.03 1070.43 1938.18 1070.43 1944.53Z" stroke="#C00000" stroke-width="16.0417" stroke-linejoin="round" stroke-miterlimit="10" fill="#C00000"/><path d="M1075.43 1887.53C1075.43 1893.88 1070.28 1899.03 1063.93 1899.03 1057.58 1899.03 1052.43 1893.88 1052.43 1887.53 1052.43 1881.18 1057.58 1876.03 1063.93 1876.03 1070.28 1876.03 1075.43 1881.18 1075.43 1887.53Z" stroke="#C00000" stroke-width="16.0417" stroke-linejoin="round" stroke-miterlimit="10" fill="#C00000"/><path d="M1081.43 1830.53C1081.43 1836.88 1076.28 1842.03 1069.93 1842.03 1063.58 1842.03 1058.43 1836.88 1058.43 1830.53 1058.43 1824.18 1063.58 1819.03 1069.93 1819.03 1076.28 1819.03 1081.43 1824.18 1081.43 1830.53Z" stroke="#C00000" stroke-width="16.0417" stroke-linejoin="round" stroke-miterlimit="10" fill="#C00000"/><path d="M1140.43 1773.53C1140.43 1779.88 1135.28 1785.03 1128.93 1785.03 1122.58 1785.03 1117.43 1779.88 1117.43 1773.53 1117.43 1767.18 1122.58 1762.03 1128.93 1762.03 1135.28 1762.03 1140.43 1767.18 1140.43 1773.53Z" stroke="#C00000" stroke-width="16.0417" stroke-linejoin="round" stroke-miterlimit="10" fill="#C00000"/><path d="M1166.43 1716.53C1166.43 1722.88 1161.28 1728.03 1154.93 1728.03 1148.58 1728.03 1143.43 1722.88 1143.43 1716.53 1143.43 1710.18 1148.58 1705.03 1154.93 1705.03 1161.28 1705.03 1166.43 1710.18 1166.43 1716.53Z" stroke="#C00000" stroke-width="16.0417" stroke-linejoin="round" stroke-miterlimit="10" fill="#C00000"/><path d="M1219.43 1659.53C1219.43 1665.88 1214.28 1671.03 1207.93 1671.03 1201.58 1671.03 1196.43 1665.88 1196.43 1659.53 1196.43 1653.18 1201.58 1648.03 1207.93 1648.03 1214.28 1648.03 1219.43 1653.18 1219.43 1659.53Z" stroke="#C00000" stroke-width="16.0417" stroke-linejoin="round" stroke-miterlimit="10" fill="#C00000"/><path d="M1225.43 1602.53C1225.43 1608.88 1220.28 1614.03 1213.93 1614.03 1207.58 1614.03 1202.43 1608.88 1202.43 1602.53 1202.43 1596.18 1207.58 1591.03 1213.93 1591.03 1220.28 1591.03 1225.43 1596.18 1225.43 1602.53Z" stroke="#C00000" stroke-width="16.0417" stroke-linejoin="round" stroke-miterlimit="10" fill="#C00000"/><path d="M1321.43 1545.53C1321.43 1551.88 1316.28 1557.03 1309.93 1557.03 1303.58 1557.03 1298.43 1551.88 1298.43 1545.53 1298.43 1539.18 1303.58 1534.03 1309.93 1534.03 1316.28 1534.03 1321.43 1539.18 1321.43 1545.53Z" stroke="#C00000" stroke-width="16.0417" stroke-linejoin="round" stroke-miterlimit="10" fill="#C00000"/><path d="M1321.43 1488.53C1321.43 1494.88 1316.28 1500.03 1309.93 1500.03 1303.58 1500.03 1298.43 1494.88 1298.43 1488.53 1298.43 1482.18 1303.58 1477.03 1309.93 1477.03 1316.28 1477.03 1321.43 1482.18 1321.43 1488.53Z" stroke="#C00000" stroke-width="16.0417" stroke-linejoin="round" stroke-miterlimit="10" fill="#C00000"/><path d="M1341.43 1431.53C1341.43 1437.88 1336.28 1443.03 1329.93 1443.03 1323.58 1443.03 1318.43 1437.88 1318.43 1431.53 1318.43 1425.18 1323.58 1420.03 1329.93 1420.03 1336.28 1420.03 1341.43 1425.18 1341.43 1431.53Z" stroke="#C00000" stroke-width="16.0417" stroke-linejoin="round" stroke-miterlimit="10" fill="#C00000"/><path d="M1354.43 1374.53C1354.43 1380.88 1349.28 1386.03 1342.93 1386.03 1336.58 1386.03 1331.43 1380.88 1331.43 1374.53 1331.43 1368.18 1336.58 1363.03 1342.93 1363.03 1349.28 1363.03 1354.43 1368.18 1354.43 1374.53Z" stroke="#C00000" stroke-width="16.0417" stroke-linejoin="round" stroke-miterlimit="10" fill="#C00000"/><path d="M1376.43 1317.53C1376.43 1323.88 1371.28 1329.03 1364.93 1329.03 1358.58 1329.03 1353.43 1323.88 1353.43 1317.53 1353.43 1311.18 1358.58 1306.03 1364.93 1306.03 1371.28 1306.03 1376.43 1311.18 1376.43 1317.53Z" stroke="#C00000" stroke-width="16.0417" stroke-linejoin="round" stroke-miterlimit="10" fill="#C00000"/><path d="M1437.43 1260.53C1437.43 1266.88 1432.28 1272.03 1425.93 1272.03 1419.58 1272.03 1414.43 1266.88 1414.43 1260.53 1414.43 1254.18 1419.58 1249.03 1425.93 1249.03 1432.28 1249.03 1437.43 1254.18 1437.43 1260.53Z" stroke="#C00000" stroke-width="16.0417" stroke-linejoin="round" stroke-miterlimit="10" fill="#C00000"/><path d="M1509.43 1203.53C1509.43 1209.88 1504.28 1215.03 1497.93 1215.03 1491.58 1215.03 1486.43 1209.88 1486.43 1203.53 1486.43 1197.18 1491.58 1192.03 1497.93 1192.03 1504.28 1192.03 1509.43 1197.18 1509.43 1203.53Z" stroke="#C00000" stroke-width="16.0417" stroke-linejoin="round" stroke-miterlimit="10" fill="#C00000"/><path d="M1881.43 1146.53C1881.43 1152.88 1876.28 1158.03 1869.93 1158.03 1863.58 1158.03 1858.43 1152.88 1858.43 1146.53 1858.43 1140.18 1863.58 1135.03 1869.93 1135.03 1876.28 1135.03 1881.43 1140.18 1881.43 1146.53Z" stroke="#C00000" stroke-width="16.0417" stroke-linejoin="round" stroke-miterlimit="10" fill="#C00000"/><path d="M1885.43 1089.53C1885.43 1095.88 1880.28 1101.03 1873.93 1101.03 1867.58 1101.03 1862.43 1095.88 1862.43 1089.53 1862.43 1083.18 1867.58 1078.03 1873.93 1078.03 1880.28 1078.03 1885.43 1083.18 1885.43 1089.53Z" stroke="#C00000" stroke-width="16.0417" stroke-linejoin="round" stroke-miterlimit="10" fill="#C00000"/></g><g><text font-family="Arial,Arial_MSFontService,sans-serif" font-weight="400" font-size="50" transform="matrix(1 0 0 1 935.911 3329)">1.4</text></g><g><text font-family="Arial,Arial_MSFontService,sans-serif" font-weight="400" font-size="50" transform="matrix(1 0 0 1 937.743 3272)">1.6</text></g><g><text font-family="Arial,Arial_MSFontService,sans-serif" font-weight="400" font-size="50" transform="matrix(1 0 0 1 940.307 3215)">1.9</text></g><g><text font-family="Arial,Arial_MSFontService,sans-serif" font-weight="400" font-size="50" transform="matrix(1 0 0 1 944.155 3158)">2.4</text></g><g><text font-family="Arial,Arial_MSFontService,sans-serif" font-weight="400" font-size="50" transform="matrix(1 0 0 1 944.155 3101)">2.4</text></g><g><text font-family="Arial,Arial_MSFontService,sans-serif" font-weight="400" font-size="50" transform="matrix(1 0 0 1 944.155 3044)">2.4</text></g><g><text font-family="Arial,Arial_MSFontService,sans-serif" font-weight="400" font-size="50" transform="matrix(1 0 0 1 949.47 2987)">3.0</text></g><g><text font-family="Arial,Arial_MSFontService,sans-serif" font-weight="400" font-size="50" transform="matrix(1 0 0 1 959.543 2930)">4.3</text></g><g><text font-family="Arial,Arial_MSFontService,sans-serif" font-weight="400" font-size="50" transform="matrix(1 0 0 1 961.559 2873)">4.5</text></g><g><text font-family="Arial,Arial_MSFontService,sans-serif" font-weight="400" font-size="50" transform="matrix(1 0 0 1 961.745 2816)">4.5</text></g><g><text font-family="Arial,Arial_MSFontService,sans-serif" font-weight="400" font-size="50" transform="matrix(1 0 0 1 963.39 2759)">4.7</text></g><g><text font-family="Arial,Arial_MSFontService,sans-serif" font-weight="400" font-size="50" transform="matrix(1 0 0 1 967.204 2702)">5.2</text></g><g><text font-family="Arial,Arial_MSFontService,sans-serif" font-weight="400" font-size="50" transform="matrix(1 0 0 1 969.138 2645)">5.4</text></g><g><text font-family="Arial,Arial_MSFontService,sans-serif" font-weight="400" font-size="50" transform="matrix(1 0 0 1 974.021 2588)">6.0</text></g><g><text font-family="Arial,Arial_MSFontService,sans-serif" font-weight="400" font-size="50" transform="matrix(1 0 0 1 976.214 2531)">6.3</text></g><g><text font-family="Arial,Arial_MSFontService,sans-serif" font-weight="400" font-size="50" transform="matrix(1 0 0 1 984.434 2474)">7.3</text></g><g><text font-family="Arial,Arial_MSFontService,sans-serif" font-weight="400" font-size="50" transform="matrix(1 0 0 1 997.837 2417)">9.0</text></g><g><text font-family="Arial,Arial_MSFontService,sans-serif" font-weight="400" font-size="50" transform="matrix(1 0 0 1 1001.86 2360)">9.5</text></g><g><text font-family="Arial,Arial_MSFontService,sans-serif" font-weight="400" font-size="50" transform="matrix(1 0 0 1 1001.86 2303)">9.5</text></g><g><text font-family="Arial,Arial_MSFontService,sans-serif" font-weight="400" font-size="50" transform="matrix(1 0 0 1 1011.94 2246)">10.7</text></g><g><text font-family="Arial,Arial_MSFontService,sans-serif" font-weight="400" font-size="50" transform="matrix(1 0 0 1 1015.42 2190)">11.1</text></g><g><text font-family="Arial,Arial_MSFontService,sans-serif" font-weight="400" font-size="50" transform="matrix(1 0 0 1 1039.69 2133)">14.1</text></g><g><text font-family="Arial,Arial_MSFontService,sans-serif" font-weight="400" font-size="50" transform="matrix(1 0 0 1 1042.32 2076)">14.4</text></g><g><text font-family="Arial,Arial_MSFontService,sans-serif" font-weight="400" font-size="50" transform="matrix(1 0 0 1 1064.34 2019)">17.1</text></g><g><text font-family="Arial,Arial_MSFontService,sans-serif" font-weight="400" font-size="50" transform="matrix(1 0 0 1 1085.95 1962)">19.8</text></g><g><text font-family="Arial,Arial_MSFontService,sans-serif" font-weight="400" font-size="50" transform="matrix(1 0 0 1 1090.68 1905)">20.4</text></g><g><text font-family="Arial,Arial_MSFontService,sans-serif" font-weight="400" font-size="50" transform="matrix(1 0 0 1 1096 1848)">21.0</text></g><g><text font-family="Arial,Arial_MSFontService,sans-serif" font-weight="400" font-size="50" transform="matrix(1 0 0 1 1155.24 1791)">28.3</text></g><g><text font-family="Arial,Arial_MSFontService,sans-serif" font-weight="400" font-size="50" transform="matrix(1 0 0 1 1181.64 1734)">31.5</text></g><g><text font-family="Arial,Arial_MSFontService,sans-serif" font-weight="400" font-size="50" transform="matrix(1 0 0 1 1234.46 1677)">38.0</text></g><g><text font-family="Arial,Arial_MSFontService,sans-serif" font-weight="400" font-size="50" transform="matrix(1 0 0 1 1240.4 1620)">38.8</text></g><g><text font-family="Arial,Arial_MSFontService,sans-serif" font-weight="400" font-size="50" transform="matrix(1 0 0 1 1336.58 1563)">50.6</text></g><g><text font-family="Arial,Arial_MSFontService,sans-serif" font-weight="400" font-size="50" transform="matrix(1 0 0 1 1336.9 1506)">50.6</text></g><g><text font-family="Arial,Arial_MSFontService,sans-serif" font-weight="400" font-size="50" transform="matrix(1 0 0 1 1356.48 1449)">53.0</text></g><g><text font-family="Arial,Arial_MSFontService,sans-serif" font-weight="400" font-size="50" transform="matrix(1 0 0 1 1369.33 1392)">54.6</text></g><g><text font-family="Arial,Arial_MSFontService,sans-serif" font-weight="400" font-size="50" transform="matrix(1 0 0 1 1391.4 1335)">57.3</text></g><g><text font-family="Arial,Arial_MSFontService,sans-serif" font-weight="400" font-size="50" transform="matrix(1 0 0 1 1452.42 1278)">64.8</text></g><g><text font-family="Arial,Arial_MSFontService,sans-serif" font-weight="400" font-size="50" transform="matrix(1 0 0 1 1524.11 1221)">73.6</text></g><g><text font-family="Arial,Arial_MSFontService,sans-serif" font-weight="400" font-size="50" transform="matrix(1 0 0 1 1896.3 1164)">119.3</text></g><g><text font-family="Arial,Arial_MSFontService,sans-serif" font-weight="400" font-size="50" transform="matrix(1 0 0 1 1900.44 1107)">119.8</text></g><g><text font-family="Arial,Arial_MSFontService,sans-serif" font-weight="400" font-size="50" transform="matrix(1 0 0 1 615.726 3327)">Ireland  40</text></g><g><text font-family="Arial,Arial_MSFontService,sans-serif" font-weight="400" font-size="50" transform="matrix(1 0 0 1 582.107 3270)">Ecuador  39</text></g><g><text font-family="Arial,Arial_MSFontService,sans-serif" font-weight="400" font-size="50" transform="matrix(1 0 0 1 579.334 3213)">Slovakia  38</text></g><g><text font-family="Arial,Arial_MSFontService,sans-serif" font-weight="400" font-size="50" transform="matrix(1 0 0 1 612.953 3156)">Algeria  35</text></g><g><text font-family="Arial,Arial_MSFontService,sans-serif" font-weight="400" font-size="50" transform="matrix(1 0 0 1 604.566 3099)">Greece  35</text></g><g><text font-family="Arial,Arial_MSFontService,sans-serif" font-weight="400" font-size="50" transform="matrix(1 0 0 1 610.157 3042)">Nigeria  35</text></g><g><text font-family="Arial,Arial_MSFontService,sans-serif" font-weight="400" font-size="50" transform="matrix(1 0 0 1 596.155 2985)">Ukraine  34</text></g><g><text font-family="Arial,Arial_MSFontService,sans-serif" font-weight="400" font-size="50" transform="matrix(1 0 0 1 655.005 2929)">Chile  33</text></g><g><text font-family="Arial,Arial_MSFontService,sans-serif" font-weight="400" font-size="50" transform="matrix(1 0 0 1 565.355 2872)">Denmark  32</text></g><g><text font-family="Arial,Arial_MSFontService,sans-serif" font-weight="400" font-size="50" transform="matrix(1 0 0 1 523.326 2815)">Costa Rica  31</text></g><g><text font-family="Arial,Arial_MSFontService,sans-serif" font-weight="400" font-size="50" transform="matrix(1 0 0 1 612.907 2758)">Poland  30</text></g><g><text font-family="Arial,Arial_MSFontService,sans-serif" font-weight="400" font-size="50" transform="matrix(1 0 0 1 618.522 2701)">Ghana  29</text></g><g><text font-family="Arial,Arial_MSFontService,sans-serif" font-weight="400" font-size="50" transform="matrix(1 0 0 1 615.818 2644)">Turkey  28</text></g><g><text font-family="Arial,Arial_MSFontService,sans-serif" font-weight="400" font-size="50" transform="matrix(1 0 0 1 615.795 2587)">Russia  27</text></g><g><text font-family="Arial,Arial_MSFontService,sans-serif" font-weight="400" font-size="50" transform="matrix(1 0 0 1 573.742 2530)">Australia  26</text></g><g><text font-family="Arial,Arial_MSFontService,sans-serif" font-weight="400" font-size="50" transform="matrix(1 0 0 1 584.857 2473)">Senegal  25</text></g><g><text font-family="Arial,Arial_MSFontService,sans-serif" font-weight="400" font-size="50" transform="matrix(1 0 0 1 587.699 2416)">Sweden  24</text></g><g><text font-family="Arial,Arial_MSFontService,sans-serif" font-weight="400" font-size="50" transform="matrix(1 0 0 1 593.268 2359)">Canada  22</text></g><g><text font-family="Arial,Arial_MSFontService,sans-serif" font-weight="400" font-size="50" transform="matrix(1 0 0 1 641.003 2302)">Egypt  22</text></g><g><text font-family="Arial,Arial_MSFontService,sans-serif" font-weight="400" font-size="50" transform="matrix(1 0 0 1 489.592 2245)">South Korea  21</text></g><g><text font-family="Arial,Arial_MSFontService,sans-serif" font-weight="400" font-size="50" transform="matrix(1 0 0 1 632.524 2188)">Japan  20</text></g><g><text font-family="Arial,Arial_MSFontService,sans-serif" font-weight="400" font-size="50" transform="matrix(1 0 0 1 579.312 2131)">Uruguay  19</text></g><g><text font-family="Arial,Arial_MSFontService,sans-serif" font-weight="400" font-size="50" transform="matrix(1 0 0 1 554.057 2074)">Paraguay  18</text></g><g><text font-family="Arial,Arial_MSFontService,sans-serif" font-weight="400" font-size="50" transform="matrix(1 0 0 1 556.899 2017)">Colombia  17</text></g><g><text font-family="Arial,Arial_MSFontService,sans-serif" font-weight="400" font-size="50" transform="matrix(1 0 0 1 610.203 1960)">Mexico  16</text></g><g><text font-family="Arial,Arial_MSFontService,sans-serif" font-weight="400" font-size="50" transform="matrix(1 0 0 1 677.464 1903)">Italy  15</text></g><g><text font-family="Arial,Arial_MSFontService,sans-serif" font-weight="400" font-size="50" transform="matrix(1 0 0 1 467.225 1846)">United States  14</text></g><g><text font-family="Arial,Arial_MSFontService,sans-serif" font-weight="400" font-size="50" transform="matrix(1 0 0 1 582.107 1789)">Portugal  13</text></g><g><text font-family="Arial,Arial_MSFontService,sans-serif" font-weight="400" font-size="50" transform="matrix(1 0 0 1 498.003 1732)">Netherlands  12</text></g><g><text font-family="Arial,Arial_MSFontService,sans-serif" font-weight="400" font-size="50" transform="matrix(1 0 0 1 607.361 1675)">Croatia  11</text></g><g><text font-family="Arial,Arial_MSFontService,sans-serif" font-weight="400" font-size="50" transform="matrix(1 0 0 1 598.997 1618)">Norway  10</text></g><g><text font-family="Arial,Arial_MSFontService,sans-serif" font-weight="400" font-size="50" transform="matrix(1 0 0 1 537.328 1561)">Switzerland  9</text></g><g><text font-family="Arial,Arial_MSFontService,sans-serif" font-weight="400" font-size="50" transform="matrix(1 0 0 1 590.609 1504)">Germany  8</text></g><g><text font-family="Arial,Arial_MSFontService,sans-serif" font-weight="400" font-size="50" transform="matrix(1 0 0 1 604.612 1447)">Morocco  7</text></g><g><text font-family="Arial,Arial_MSFontService,sans-serif" font-weight="400" font-size="50" transform="matrix(1 0 0 1 671.895 1390)">Brazil  6</text></g><g><text font-family="Arial,Arial_MSFontService,sans-serif" font-weight="400" font-size="50" transform="matrix(1 0 0 1 615.795 1333)">Belgium  5</text></g><g><text font-family="Arial,Arial_MSFontService,sans-serif" font-weight="400" font-size="50" transform="matrix(1 0 0 1 612.907 1276)">England  4</text></g><g><text font-family="Arial,Arial_MSFontService,sans-serif" font-weight="400" font-size="50" transform="matrix(1 0 0 1 669.007 1219)">Spain  3</text></g><g><text font-family="Arial,Arial_MSFontService,sans-serif" font-weight="400" font-size="50" transform="matrix(1 0 0 1 641.026 1162)">France  2</text></g><g><text font-family="Arial,Arial_MSFontService,sans-serif" font-weight="400" font-size="50" transform="matrix(1 0 0 1 582.107 1105)">Argentina  1</text></g><text font-family="Arial,Arial_MSFontService,sans-serif" font-weight="400" font-size="46" transform="matrix(1 0 0 1 807.691 3437)">Source: </text><text font-family="Arial,Arial_MSFontService,sans-serif" font-weight="400" font-size="46" transform="matrix(1 0 0 1 977.274 3437)">S.Canback</text><text font-family="Arial,Arial_MSFontService,sans-serif" font-weight="400" font-size="46" transform="matrix(1 0 0 1 1212.74 3437)">(Tellusant) analysis; Fifa</text><text font-family="Arial,Arial_MSFontService,sans-serif" font-style="italic" font-weight="700" font-size="50" transform="matrix(1 0 0 1 1466.44 2505)">Zipf Weights</text><text font-family="Arial,Arial_MSFontService,sans-serif" font-style="italic" font-weight="400" font-size="50" transform="matrix(1 0 0 1 1295.43 2566)">Zipf gives weight 1 to gold, </text><text font-family="Arial,Arial_MSFontService,sans-serif" font-style="italic" font-weight="400" font-size="50" transform="matrix(1 0 0 1 1295.43 2626)">½ to silver, ⅓ to bronze, and </text><text font-family="Arial,Arial_MSFontService,sans-serif" font-style="italic" font-weight="400" font-size="50" transform="matrix(1 0 0 1 1295.43 2687)">so on</text><text font-family="Arial,Arial_MSFontService,sans-serif" font-style="italic" font-weight="400" font-size="50" transform="matrix(1 0 0 1 1295.43 2808)">Zipf gives weight 1 to 2026, </text><text font-family="Arial,Arial_MSFontService,sans-serif" font-style="italic" font-weight="400" font-size="50" transform="matrix(1 0 0 1 1295.43 2868)">½ to 2020, ⅓ to 2018, and </text><text font-family="Arial,Arial_MSFontService,sans-serif" font-style="italic" font-weight="400" font-size="50" transform="matrix(1 0 0 1 1295.43 2927)">so on</text></g></svg>