<svg width="2323" height="1745" xmlns="http://www.w3.org/2000/svg" xmlns:xlink="http://www.w3.org/1999/xlink" xml:space="preserve" overflow="hidden"><defs><clipPath id="clip0"><rect x="112" y="1001" width="2323" height="1745"/></clipPath></defs><g clip-path="url(#clip0)" transform="translate(-112 -1001)"><g><path d="M281.5 2491.5 2383.5 2491.5M281.5 2352.58 2383.5 2352.58M281.5 2212.57 2383.5 2212.57M281.5 2073.57 2383.5 2073.57M281.5 1934.56 2383.5 1934.56M281.5 1795.56 2383.5 1795.56M281.5 1655.55 2383.5 1655.55M281.5 1516.55 2383.5 1516.55M281.5 1377.55 2383.5 1377.55M281.5 1238.5 2383.5 1238.5" stroke="#D9D9D9" stroke-width="3.4375" stroke-linejoin="round" stroke-miterlimit="10" fill="none"/></g><g><path d="M0 0 0.000360892 1253" stroke="#BFBFBF" stroke-width="3.4375" stroke-linejoin="round" stroke-miterlimit="10" fill="none" fill-rule="evenodd" transform="matrix(1 0 0 -1 281.5 2491.5)"/></g><g><path d="M281.5 2463.5C293.395 2463.41 305.482 2463.35 317.186 2463.22 328.889 2463.09 340.017 2462.94 351.72 2462.72 363.424 2462.51 375.703 2462.26 387.406 2461.93 399.109 2461.61 410.237 2461.26 421.94 2460.75 433.644 2460.24 445.731 2459.64 457.626 2458.87 469.521 2458.1 481.608 2457.18 493.312 2456.12 505.015 2455.05 516.143 2453.89 527.846 2452.48 539.55 2451.08 551.828 2449.42 563.532 2447.68 575.235 2445.94 586.363 2444.12 598.066 2442.05 609.769 2439.99 621.857 2437.69 633.752 2435.3 645.647 2432.9 658.118 2430.21 669.438 2427.69 680.757 2425.16 690.35 2422.88 701.67 2420.13 712.989 2417.37 725.652 2414.2 737.355 2411.18 749.059 2408.15 760.187 2405.18 771.89 2401.99 783.594 2398.8 795.872 2395.37 807.576 2392.04 819.279 2388.72 830.407 2385.49 842.11 2382.05 853.813 2378.61 865.9 2375 877.796 2371.41 889.691 2367.83 901.778 2364.13 913.482 2360.53 925.185 2356.93 936.312 2353.48 948.016 2349.82 959.719 2346.16 971.998 2342.3 983.702 2338.58 995.405 2334.86 1006.53 2331.3 1018.24 2327.5 1029.94 2323.71 1042.03 2319.76 1053.92 2315.79 1065.82 2311.83 1078.29 2307.61 1089.61 2303.72 1100.93 2299.83 1110.52 2296.48 1121.84 2292.44 1133.16 2288.4 1145.82 2283.82 1157.53 2279.5 1169.23 2275.17 1180.36 2270.97 1192.06 2266.47 1203.76 2261.97 1216.04 2257.15 1227.75 2252.48 1239.45 2247.8 1250.58 2243.27 1262.28 2238.42 1273.98 2233.56 1286.07 2228.46 1297.97 2223.34 1309.86 2218.21 1321.95 2212.89 1333.65 2207.65 1345.35 2202.4 1356.48 2197.31 1368.19 2191.84 1379.89 2186.38 1392.17 2180.53 1403.87 2174.84 1415.57 2169.15 1426.7 2163.63 1438.41 2157.71 1450.11 2151.79 1462.2 2145.56 1474.09 2139.31 1485.99 2133.06 1498.27 2126.47 1509.78 2120.21 1521.29 2113.95 1531.65 2108.22 1543.16 2101.74 1554.67 2095.26 1567.14 2088.13 1578.85 2081.35 1590.55 2074.56 1601.68 2068 1613.38 2061.02 1625.08 2054.05 1637.36 2046.63 1649.07 2039.51 1660.77 2032.38 1671.9 2025.53 1683.6 2018.26 1695.3 2011 1707.39 2003.44 1719.29 1995.92 1731.18 1988.4 1743.27 1980.7 1754.97 1973.17 1766.68 1965.63 1777.8 1958.41 1789.51 1950.71 1801.21 1943 1813.49 1934.84 1825.19 1926.94 1836.9 1919.04 1848.02 1911.44 1859.73 1903.3 1871.43 1895.17 1883.52 1886.65 1895.41 1878.11 1907.31 1869.57 1919.78 1860.45 1931.1 1852.05 1942.42 1843.65 1952.01 1836.41 1963.33 1827.7 1974.65 1819 1987.31 1809.12 1999.02 1799.82 2010.72 1790.51 2021.85 1781.52 2033.55 1771.88 2045.25 1762.24 2057.53 1751.95 2069.24 1741.97 2080.94 1731.99 2092.07 1722.34 2103.77 1712 2115.47 1701.66 2127.56 1690.79 2139.46 1679.92 2151.35 1669.05 2163.44 1657.79 2175.14 1646.76 2186.85 1635.73 2197.97 1625.06 2209.68 1613.74 2221.38 1602.41 2233.66 1590.35 2245.36 1578.79 2257.07 1567.24 2268.19 1556.11 2279.9 1544.39 2291.6 1532.68 2303.69 1520.48 2315.58 1508.53 2327.48 1496.57 2339.95 1483.99 2351.27 1472.66 2362.59 1461.32 2372.76 1451.22 2383.5 1440.5" stroke="#000000" stroke-width="6.875" stroke-linecap="round" stroke-linejoin="round" stroke-miterlimit="10" fill="none"/></g><g><path d="M1018.5 2354.5C1024.45 2353.83 1042.29 2351.65 1054.18 2350.49 1066.07 2349.34 1078.54 2348.46 1089.86 2347.57 1101.17 2346.67 1110.77 2346.05 1122.08 2345.11 1133.4 2344.18 1146.06 2343.07 1157.76 2341.96 1169.46 2340.84 1180.59 2339.67 1192.29 2338.42 1203.99 2337.18 1216.27 2335.77 1227.97 2334.48 1239.67 2333.2 1250.8 2331.97 1262.5 2330.72 1274.2 2329.46 1286.28 2328.22 1298.18 2326.96 1310.07 2325.7 1322.15 2324.46 1333.85 2323.16 1345.56 2321.85 1356.68 2320.59 1368.38 2319.14 1380.08 2317.7 1392.36 2316.09 1404.06 2314.46 1415.76 2312.83 1426.89 2311.26 1438.59 2309.34 1450.29 2307.42 1462.37 2305.29 1474.27 2302.93 1486.16 2300.58 1498.44 2298.07 1509.95 2295.23 1521.46 2292.38 1531.81 2289.4 1543.32 2285.86 1554.83 2282.31 1567.3 2278.31 1579 2273.94 1590.7 2269.56 1601.83 2264.88 1613.53 2259.63 1625.23 2254.37 1637.51 2248.34 1649.21 2242.39 1660.91 2236.44 1672.04 2230.57 1683.74 2223.9 1695.44 2217.23 1707.52 2209.83 1719.41 2202.35 1731.31 2194.87 1743.39 2186.94 1755.09 2179.03 1766.79 2171.12 1777.92 2163.26 1789.62 2154.89 1801.32 2146.52 1813.6 2137.44 1825.3 2128.82 1837 2120.19 1848.13 2111.86 1859.83 2103.14 1871.53 2094.42 1883.61 2085.3 1895.51 2076.49 1907.4 2067.68 1919.87 2058.57 1931.19 2050.26 1942.5 2041.95 1952.09 2034.9 1963.41 2026.61 1974.73 2018.32 1987.39 2009.1 1999.09 2000.54 2010.79 1991.98 2021.92 1983.7 2033.62 1975.25 2045.32 1966.81 2057.6 1958.09 2069.3 1949.87 2081 1941.64 2092.12 1933.71 2103.82 1925.89 2115.53 1918.07 2127.61 1910.22 2139.5 1902.92 2151.4 1895.62 2163.48 1888.46 2175.18 1882.08 2186.88 1875.71 2198.01 1869.95 2209.71 1864.66 2221.41 1859.38 2233.69 1854.26 2245.39 1850.37 2257.09 1846.48 2268.22 1843.42 2279.92 1841.3 2291.62 1839.17 2303.7 1837.74 2315.6 1837.62 2327.49 1837.5 2339.96 1838.59 2351.27 1840.59 2362.59 1842.58 2372.76 1846.58 2383.5 1849.58" stroke="#C00000" stroke-width="6.875" stroke-linecap="round" stroke-linejoin="round" stroke-miterlimit="10" fill="none"/></g><g><path d="M1018.5 2477.45C1024.45 2477.45 1042.29 2477.46 1054.18 2477.46 1066.07 2477.47 1078.54 2477.48 1089.86 2477.49 1101.17 2477.49 1110.77 2477.5 1122.08 2477.5 1133.4 2477.49 1146.06 2477.48 1157.76 2477.47 1169.46 2477.46 1180.59 2477.44 1192.29 2477.41 1203.99 2477.39 1216.27 2477.36 1227.97 2477.34 1239.67 2477.31 1250.8 2477.29 1262.5 2477.26 1274.2 2477.24 1286.28 2477.22 1298.18 2477.19 1310.07 2477.17 1322.15 2477.15 1333.85 2477.12 1345.56 2477.1 1356.68 2477.07 1368.38 2477.04 1380.08 2477.01 1392.36 2476.97 1404.06 2476.92 1415.76 2476.88 1426.89 2476.83 1438.59 2476.77 1450.29 2476.72 1462.37 2476.65 1474.27 2476.57 1486.16 2476.49 1498.44 2476.41 1509.95 2476.32 1521.46 2476.23 1531.81 2476.14 1543.32 2476.03 1554.83 2475.92 1567.3 2475.81 1579 2475.67 1590.7 2475.54 1601.83 2475.39 1613.53 2475.22 1625.23 2475.05 1637.51 2474.85 1649.21 2474.64 1660.91 2474.43 1672.04 2474.21 1683.74 2473.96 1695.44 2473.69 1707.52 2473.39 1719.41 2473.08 1731.31 2472.76 1743.39 2472.42 1755.09 2472.06 1766.79 2471.71 1777.92 2471.35 1789.62 2470.94 1801.32 2470.54 1813.6 2470.11 1825.3 2469.66 1837 2469.2 1848.13 2468.78 1859.83 2468.24 1871.53 2467.69 1883.61 2467.08 1895.51 2466.36 1907.4 2465.64 1919.87 2464.76 1931.19 2463.91 1942.5 2463.06 1952.09 2462.29 1963.41 2461.24 1974.73 2460.2 1987.39 2458.91 1999.09 2457.64 2010.79 2456.38 2021.92 2455.12 2033.62 2453.65 2045.32 2452.18 2057.6 2450.48 2069.3 2448.82 2081 2447.16 2092.12 2445.55 2103.82 2443.69 2115.53 2441.83 2127.61 2439.8 2139.5 2437.68 2151.4 2435.55 2163.48 2433.3 2175.18 2430.97 2186.88 2428.64 2198.01 2426.32 2209.71 2423.7 2221.41 2421.08 2233.69 2418.2 2245.39 2415.25 2257.09 2412.3 2268.22 2409.35 2279.92 2405.99 2291.62 2402.63 2303.7 2399.04 2315.6 2395.1 2327.49 2391.17 2339.96 2386.81 2351.27 2382.37 2362.59 2377.94 2372.76 2373.12 2383.5 2368.5" stroke="#4EA72E" stroke-width="6.875" stroke-linecap="round" stroke-linejoin="round" stroke-miterlimit="10" fill="none"/></g><g><path d="M1018.5 2462.68C1024.45 2462.86 1042.29 2463.39 1054.18 2463.72 1066.07 2464.05 1078.54 2464.4 1089.86 2464.65 1101.17 2464.91 1110.77 2465.13 1122.08 2465.27 1133.4 2465.41 1146.06 2465.49 1157.76 2465.5 1169.46 2465.5 1180.59 2465.43 1192.29 2465.3 1203.99 2465.17 1216.27 2464.96 1227.97 2464.73 1239.67 2464.5 1250.8 2464.22 1262.5 2463.92 1274.2 2463.61 1286.28 2463.26 1298.18 2462.92 1310.07 2462.57 1322.15 2462.2 1333.85 2461.84 1345.56 2461.48 1356.68 2461.12 1368.38 2460.76 1380.08 2460.39 1392.36 2460 1404.06 2459.64 1415.76 2459.27 1426.89 2458.93 1438.59 2458.56 1450.29 2458.18 1462.37 2457.79 1474.27 2457.38 1486.16 2456.96 1498.44 2456.53 1509.95 2456.08 1521.46 2455.63 1531.81 2455.19 1543.32 2454.66 1554.83 2454.12 1567.3 2453.52 1579 2452.89 1590.7 2452.26 1601.83 2451.61 1613.53 2450.87 1625.23 2450.14 1637.51 2449.31 1649.21 2448.48 1660.91 2447.65 1672.04 2446.84 1683.74 2445.89 1695.44 2444.95 1707.52 2443.92 1719.41 2442.81 1731.31 2441.71 1743.39 2440.52 1755.09 2439.27 1766.79 2438.02 1777.92 2436.76 1789.62 2435.32 1801.32 2433.88 1813.6 2432.27 1825.3 2430.64 1837 2429.01 1848.13 2427.41 1859.83 2425.55 1871.53 2423.68 1883.61 2421.6 1895.51 2419.45 1907.4 2417.31 1919.87 2414.91 1931.19 2412.68 1942.5 2410.46 1952.09 2408.55 1963.41 2406.1 1974.73 2403.65 1987.39 2400.76 1999.09 2398 2010.79 2395.24 2021.92 2392.55 2033.62 2389.53 2045.32 2386.52 2057.6 2383.17 2069.3 2379.91 2081 2376.66 2092.12 2373.51 2103.82 2370.01 2115.53 2366.52 2127.61 2362.77 2139.5 2358.96 2151.4 2355.14 2163.48 2351.14 2175.18 2347.13 2186.88 2343.11 2198.01 2339.17 2209.71 2334.88 2221.41 2330.6 2233.69 2325.96 2245.39 2321.41 2257.09 2316.86 2268.22 2312.39 2279.92 2307.6 2291.62 2302.8 2303.7 2297.73 2315.6 2292.64 2327.49 2287.55 2339.96 2282.07 2351.27 2277.04 2362.59 2272.02 2372.76 2267.35 2383.5 2262.5" stroke="#0F9ED5" stroke-width="6.875" stroke-linecap="round" stroke-linejoin="round" stroke-miterlimit="10" fill="none"/></g><g><path d="M281.5 2466.5C293.395 2466.1 305.482 2465.67 317.186 2465.3 328.889 2464.92 340.017 2464.59 351.72 2464.26 363.424 2463.94 375.703 2463.62 387.406 2463.35 399.109 2463.08 410.237 2462.85 421.94 2462.63 433.644 2462.41 445.731 2462.21 457.626 2462.03 469.521 2461.86 481.608 2461.7 493.312 2461.57 505.015 2461.43 516.143 2461.32 527.846 2461.21 539.55 2461.1 551.828 2461 563.532 2460.91 575.235 2460.81 586.363 2460.73 598.066 2460.65 609.769 2460.56 621.857 2460.47 633.752 2460.39 645.647 2460.3 658.118 2460.21 669.438 2460.13 680.757 2460.04 690.35 2459.97 701.67 2459.88 712.989 2459.79 725.652 2459.68 737.355 2459.58 749.059 2459.47 760.187 2459.37 771.89 2459.24 783.594 2459.12 795.872 2458.98 807.576 2458.83 819.279 2458.68 830.407 2458.54 842.11 2458.36 853.813 2458.18 865.9 2457.98 877.796 2457.76 889.691 2457.54 901.778 2457.3 913.482 2457.05 925.185 2456.79 936.312 2456.53 948.016 2456.23 959.719 2455.93 971.998 2455.59 983.702 2455.25 995.405 2454.91 1006.53 2454.57 1018.24 2454.19 1029.94 2453.81 1042.03 2453.4 1053.92 2452.99 1065.82 2452.57 1078.29 2452.11 1089.61 2451.69 1100.93 2451.26 1110.52 2450.88 1121.84 2450.43 1133.16 2449.97 1145.82 2449.44 1157.53 2448.94 1169.23 2448.44 1180.36 2447.95 1192.06 2447.42 1203.76 2446.88 1216.04 2446.31 1227.75 2445.75 1239.45 2445.2 1250.58 2444.65 1262.28 2444.08 1273.98 2443.5 1286.07 2442.89 1297.97 2442.28 1309.86 2441.68 1321.95 2441.05 1333.65 2440.44 1345.35 2439.83 1356.48 2439.24 1368.19 2438.61 1379.89 2437.98 1392.17 2437.31 1403.87 2436.67 1415.57 2436.03 1426.7 2435.42 1438.41 2434.77 1450.11 2434.11 1462.2 2433.44 1474.09 2432.76 1485.99 2432.09 1498.27 2431.38 1509.78 2430.72 1521.29 2430.05 1531.65 2429.45 1543.16 2428.77 1554.67 2428.1 1567.14 2427.37 1578.85 2426.68 1590.55 2425.99 1601.68 2425.33 1613.38 2424.64 1625.08 2423.94 1637.36 2423.22 1649.07 2422.53 1660.77 2421.83 1671.9 2421.18 1683.6 2420.49 1695.3 2419.8 1707.39 2419.08 1719.29 2418.39 1731.18 2417.69 1743.27 2416.99 1754.97 2416.31 1766.68 2415.64 1777.8 2415 1789.51 2414.34 1801.21 2413.68 1813.49 2413 1825.19 2412.36 1836.9 2411.72 1848.02 2411.12 1859.73 2410.51 1871.43 2409.9 1883.52 2409.28 1895.41 2408.7 1907.31 2408.11 1919.78 2407.52 1931.1 2407 1942.42 2406.48 1952.01 2406.05 1963.33 2405.59 1974.65 2405.11 1987.31 2404.61 1999.02 2404.18 2010.72 2403.75 2021.85 2403.36 2033.55 2402.99 2045.25 2402.63 2057.53 2402.27 2069.24 2401.97 2080.94 2401.66 2092.07 2401.41 2103.77 2401.17 2115.47 2400.92 2127.56 2400.71 2139.46 2400.51 2151.35 2400.32 2163.44 2400.15 2175.14 2400 2186.85 2399.85 2197.97 2399.72 2209.68 2399.59 2221.38 2399.46 2233.66 2399.34 2245.36 2399.21 2257.07 2399.08 2268.19 2398.96 2279.9 2398.83 2291.6 2398.69 2303.69 2398.55 2315.58 2398.4 2327.48 2398.25 2339.95 2398.09 2351.27 2397.94 2362.59 2397.79 2372.76 2397.65 2383.5 2397.5" stroke="#A02B93" stroke-width="6.875" stroke-linecap="round" stroke-linejoin="round" stroke-miterlimit="10" fill="none"/></g><g><text font-family="Arial,Arial_MSFontService,sans-serif" font-weight="400" font-size="55" transform="matrix(1 0 0 1 203.73 2509)">0</text></g><g><text font-family="Arial,Arial_MSFontService,sans-serif" font-weight="400" font-size="55" transform="matrix(1 0 0 1 173.136 2370)">20</text></g><g><text font-family="Arial,Arial_MSFontService,sans-serif" font-weight="400" font-size="55" transform="matrix(1 0 0 1 173.136 2231)">40</text></g><g><text font-family="Arial,Arial_MSFontService,sans-serif" font-weight="400" font-size="55" transform="matrix(1 0 0 1 173.136 2091)">60</text></g><g><text font-family="Arial,Arial_MSFontService,sans-serif" font-weight="400" font-size="55" transform="matrix(1 0 0 1 173.136 1952)">80</text></g><g><text font-family="Arial,Arial_MSFontService,sans-serif" font-weight="400" font-size="55" transform="matrix(1 0 0 1 142.542 1813)">100</text></g><g><text font-family="Arial,Arial_MSFontService,sans-serif" font-weight="400" font-size="55" transform="matrix(1 0 0 1 142.542 1674)">120</text></g><g><text font-family="Arial,Arial_MSFontService,sans-serif" font-weight="400" font-size="55" transform="matrix(1 0 0 1 142.542 1534)">140</text></g><g><text font-family="Arial,Arial_MSFontService,sans-serif" font-weight="400" font-size="55" transform="matrix(1 0 0 1 142.542 1395)">160</text></g><g><text font-family="Arial,Arial_MSFontService,sans-serif" font-weight="400" font-size="55" transform="matrix(1 0 0 1 142.542 1256)">180</text></g><g><text font-family="Arial,Arial_MSFontService,sans-serif" font-weight="700" font-size="64" transform="matrix(1 0 0 1 589.222 1095)">U.S. SEARCH TERM POPULARITY 2021</text></g><g><text font-family="Arial,Arial_MSFontService,sans-serif" font-weight="700" font-size="64" transform="matrix(1 0 0 1 1793.19 1095)">-</text></g><g><text font-family="Arial,Arial_MSFontService,sans-serif" font-weight="700" font-size="64" transform="matrix(1 0 0 1 1814.55 1095)">2026</text></g><g><text font-family="Arial,Arial_MSFontService,sans-serif" font-weight="400" font-size="60" transform="matrix(1 0 0 1 773.174 1165)">Google Trends with </text></g><g><text font-family="Arial,Arial_MSFontService,sans-serif" font-weight="400" font-size="60" transform="matrix(1 0 0 1 1303.08 1165)">lowess</text></g><g><text font-family="Arial,Arial_MSFontService,sans-serif" font-weight="400" font-size="60" transform="matrix(1 0 0 1 1501.76 1165)">smoother*</text></g><text font-family="Arial,Arial_MSFontService,sans-serif" font-weight="400" font-size="55" transform="matrix(1 0 0 1 1437.84 1743)">AI / artificial intelligence</text><text fill="#C00000" font-family="Arial,Arial_MSFontService,sans-serif" font-weight="400" font-size="55" transform="matrix(1 0 0 1 2032.15 2053)">ChatGPT</text><text fill="#0F9ED5" font-family="Arial,Arial_MSFontService,sans-serif" font-weight="400" font-size="55" transform="matrix(1 0 0 1 2036.56 2306)">Gemini</text><text fill="#A02B93" font-family="Arial,Arial_MSFontService,sans-serif" font-weight="400" font-size="55" transform="matrix(1 0 0 1 1170.47 2419)">Nvidia</text><text fill="#4EA72E" font-family="Arial,Arial_MSFontService,sans-serif" font-weight="400" font-size="55" transform="matrix(1 0 0 1 2209.52 2486)">Claude</text><rect x="302" y="2426" width="77" height="16.0002" fill="#156082"/><text fill="#156082" font-family="Arial,Arial_MSFontService,sans-serif" font-weight="400" font-size="46" transform="matrix(1 0 0 1 391.568 2451)">Crypto</text><rect x="298" y="1757" width="77" height="17.0002" fill="#156082"/><text fill="#156082" font-family="Arial,Arial_MSFontService,sans-serif" font-weight="400" font-size="46" transform="matrix(1 0 0 1 387.518 1783)">Iphone</text><rect x="302" y="2369" width="77" height="15.9998" fill="#156082"/><text fill="#156082" font-family="Arial,Arial_MSFontService,sans-serif" font-weight="400" font-size="46" transform="matrix(1 0 0 1 391.568 2394)">Taylor Swift</text><rect x="296" y="2123" width="77" height="16.0002" fill="#156082"/><text fill="#156082" font-family="Arial,Arial_MSFontService,sans-serif" font-weight="400" font-size="46" transform="matrix(1 0 0 1 386.322 2148)">Donald Trump</text><text fill="#156082" font-family="Arial,Arial_MSFontService,sans-serif" font-weight="400" font-size="46" transform="matrix(1 0 0 1 404.656 1231)">YouTube</text><rect x="315" y="1205" width="77" height="17.0002" fill="#156082"/><path d="M3.4375-1.8825e-05 3.43774 42.9833-3.43726 42.9834-3.4375 1.8825e-05ZM13.7502 38.4 0.000360892 65.9-13.7498 38.4001Z" fill="#156082" transform="matrix(1 0 0 -1 353.5 1205.4)"/><text fill="#156082" font-family="Arial,Arial_MSFontService,sans-serif" font-weight="400" font-size="46" transform="matrix(1 0 0 1 317.292 1130)">236</text><text font-family="Arial,Arial_MSFontService,sans-serif" font-weight="400" font-size="46" transform="matrix(1 0 0 1 639.328 2653)">* Smoothing reduces seasonal effects and random movements</text><text font-family="Arial,Arial_MSFontService,sans-serif" font-weight="400" font-size="46" transform="matrix(1 0 0 1 639.328 2708)">Source: </text><text font-family="Arial,Arial_MSFontService,sans-serif" font-weight="400" font-size="46" transform="matrix(1 0 0 1 808.911 2708)">S.Canback</text><text font-family="Arial,Arial_MSFontService,sans-serif" font-weight="400" font-size="46" transform="matrix(1 0 0 1 1044.38 2708)">(Tellusant) tabulation; Google Trends</text><rect x="712" y="2159" width="77" height="16.9998" fill="#156082"/><text fill="#156082" font-family="Arial,Arial_MSFontService,sans-serif" font-weight="400" font-size="46" transform="matrix(1 0 0 1 802.287 2185)">Baseball</text><rect x="712" y="2031" width="77" height="16.0001" fill="#156082"/><text fill="#156082" font-family="Arial,Arial_MSFontService,sans-serif" font-weight="400" font-size="46" transform="matrix(1 0 0 1 802.287 2056)">Golf</text><rect x="712" y="1895" width="77" height="16.9999" fill="#156082"/><text fill="#156082" font-family="Arial,Arial_MSFontService,sans-serif" font-weight="400" font-size="46" transform="matrix(1 0 0 1 802.287 1921)">Basketball</text><rect x="711" y="1413" width="77" height="15.9998" fill="#156082"/><text fill="#156082" font-family="Arial,Arial_MSFontService,sans-serif" font-weight="400" font-size="46" transform="matrix(1 0 0 1 800.729 1438)">(American) Football</text><rect x="711" y="2247" width="77" height="16.9998" fill="#156082"/><text fill="#156082" font-family="Arial,Arial_MSFontService,sans-serif" font-weight="400" font-size="46" transform="matrix(1 0 0 1 800.729 2273)">Sports</text><text font-family="Arial,Arial_MSFontService,sans-serif" font-weight="400" font-size="55" transform="matrix(1 0 0 1 282.059 2570)">March 2021</text><text font-family="Arial,Arial_MSFontService,sans-serif" font-weight="400" font-size="55" transform="matrix(1 0 0 1 2109.48 2570)">March 2026</text></g></svg>