<svg width="2057" height="1188" xmlns="http://www.w3.org/2000/svg" xmlns:xlink="http://www.w3.org/1999/xlink" xml:space="preserve" overflow="hidden"><defs><clipPath id="clip0"><rect x="232" y="2519" width="2057" height="1188"/></clipPath></defs><g clip-path="url(#clip0)" transform="translate(-232 -2519)"><rect x="232" y="2519" width="2057" height="1188" fill="#FFFFFF"/><g><path d="M457.5 3463.61 2204.5 3463.61M457.5 3365.61 2204.5 3365.61M457.5 3268.61 2204.5 3268.61M457.5 3170.6 2204.5 3170.6M457.5 3072.6 2204.5 3072.6M457.5 2974.6 2204.5 2974.6M457.5 2876.59 2204.5 2876.59M457.5 2778.5 2204.5 2778.5" stroke="#D9D9D9" stroke-width="3.4375" stroke-linejoin="round" stroke-miterlimit="10" fill="none"/></g><g><path d="M457.5 3561.5 2204.5 3561.5" stroke="#D9D9D9" stroke-width="3.4375" stroke-linejoin="round" stroke-miterlimit="10" fill="none" fill-rule="evenodd"/></g><g><path d="M457.5 3561.5 457.5 3575.5M540.518 3561.5 540.518 3575.5M624.521 3561.5 624.521 3575.5M707.523 3561.5 707.523 3575.5M790.526 3561.5 790.526 3575.5M873.529 3561.5 873.529 3575.5M956.532 3561.5 956.532 3575.5M1039.53 3561.5 1039.53 3575.5M1123.54 3561.5 1123.54 3575.5M1206.54 3561.5 1206.54 3575.5M1289.54 3561.5 1289.54 3575.5M1372.55 3561.5 1372.55 3575.5M1455.55 3561.5 1455.55 3575.5M1539.55 3561.5 1539.55 3575.5M1622.55 3561.5 1622.55 3575.5M1705.56 3561.5 1705.56 3575.5M1788.56 3561.5 1788.56 3575.5M1871.56 3561.5 1871.56 3575.5M1955.56 3561.5 1955.56 3575.5M2038.57 3561.5 2038.57 3575.5M2121.57 3561.5 2121.57 3575.5M2204.5 3561.5 2204.5 3575.5" stroke="#D9D9D9" stroke-width="3.4375" stroke-linejoin="round" stroke-miterlimit="10" fill="none"/></g><g><path d="M457.5 3133.6 474.516 3146.5 490.516 3110.6 507.517 3086.6 524.517 3014.6 540.518 3004.6 557.518 2988.6 574.519 2999.6 590.52 3001.6 607.52 2993.6 624.521 3014.6 640.521 3023.6 657.522 3055.6 673.522 3063.6 690.523 3049.6 707.523 3034.6 723.524 3014.6 740.524 3006.6 757.525 3017.6 773.526 3002.6 790.526 2998.6 807.527 2974.6 823.527 2940.6 840.528 2911.6 856.528 2890.59 873.529 2887.59 890.529 2906.6 906.53 2840.59 923.531 2835.59 940.531 2845.59 956.532 2834.59 973.532 2826.59 990.533 2821.59 1006.53 2819.59 1023.53 2829.59 1039.53 2823.59 1056.53 2819.59 1073.54 2812.59 1089.54 2814.59 1106.54 2810.59 1123.54 2813.59 1139.54 2816.59 1156.54 2813.59 1173.54 2810.59 1189.54 2811.59 1206.54 2808.59 1222.54 2803.59 1239.54 2800.5 1256.54 2804.59 1272.54 2813.59 1289.54 2816.59 1306.54 2817.59 1322.54 2818.59 1339.54 2819.59 1356.54 2820.59 1372.55 2822.59 1389.55 2821.59 1405.55 2819.59 1422.55 2818.59 1439.55 2822.59 1455.55 2827.59 1472.55 2830.59 1489.55 2840.59 1505.55 2838.59 1522.55 2833.59 1539.55 2835.59 1555.55 2834.59 1572.55 2836.59 1589.55 2841.59 1605.55 2843.59 1622.55 2849.59 1638.55 2856.59 1655.55 2851.59 1672.56 2844.59 1688.56 2839.59 1705.56 2839.59 1722.56 2838.59 1738.56 2831.59 1755.56 2821.59 1772.56 2814.59 1788.56 2816.59 1805.56 2822.59 1821.56 2828.59 1838.56 2834.59 1855.56 2840.59 1871.56 2854.59 1888.56 2872.59 1905.56 2894.6 1921.56 2913.6 1938.56 2938.6 1955.56 2955.6 1971.56 2972.6 1988.57 2984.6 2004.57 2997.6 2021.57 3008.6 2038.57 3017.6 2054.57 3028.6 2071.57 3038.6 2088.57 3047.6 2104.57 3054.6 2121.57 3064.6 2138.57 3069.6 2154.57 3070.6 2171.57 3076.6 2187.57 3081.6 2204.5 3086.6" stroke="#2F5597" stroke-width="6.875" stroke-linecap="round" stroke-linejoin="round" stroke-miterlimit="10" fill="none"/></g><g><path d="M457.5 3448.61 474.516 3442.61 490.516 3449.61 507.517 3457.61 524.517 3418.61 540.518 3427.61 557.518 3434.61 574.519 3434.61 590.52 3435.61 607.52 3441.61 624.521 3431.61 640.521 3425.61 657.522 3414.61 673.522 3415.61 690.523 3433.61 707.523 3431.61 723.524 3435.61 740.524 3443.61 757.525 3443.61 773.526 3452.61 790.526 3462.61 807.527 3477.61 823.527 3490.61 840.528 3501.61 856.528 3506.62 873.529 3508.62 890.529 3502.61 906.53 3502.61 923.531 3505.62 940.531 3507.62 956.532 3512.62 973.532 3511.62 990.533 3507.62 1006.53 3507.62 1023.53 3505.62 1039.53 3506.62 1056.53 3502.61 1073.54 3500.61 1089.54 3493.61 1106.54 3496.61 1123.54 3498.61 1139.54 3498.61 1156.54 3516.62 1173.54 3520.5 1189.54 3519.62 1206.54 3514.62 1222.54 3510.62 1239.54 3507.62 1256.54 3512.62 1272.54 3516.62 1289.54 3509.62 1306.54 3507.62 1322.54 3508.62 1339.54 3507.62 1356.54 3506.62 1372.55 3501.61 1389.55 3505.62 1405.55 3503.61 1422.55 3500.61 1439.55 3498.61 1455.55 3493.61 1472.55 3491.61 1489.55 3484.61 1505.55 3480.61 1522.55 3474.61 1539.55 3467.61 1555.55 3463.61 1572.55 3456.61 1589.55 3450.61 1605.55 3449.61 1622.55 3447.61 1638.55 3438.61 1655.55 3427.61 1672.56 3415.61 1688.56 3404.61 1705.56 3394.61 1722.56 3386.61 1738.56 3369.61 1755.56 3364.61 1772.56 3361.61 1788.56 3354.61 1805.56 3343.61 1821.56 3332.61 1838.56 3320.61 1855.56 3309.61 1871.56 3295.61 1888.56 3278.61 1905.56 3255.61 1921.56 3236.61 1938.56 3212.61 1955.56 3195.6 1971.56 3178.6 1988.57 3166.6 2004.57 3153.6 2021.57 3143.6 2038.57 3134.6 2054.57 3123.6 2071.57 3112.6 2088.57 3104.6 2104.57 3096.6 2121.57 3086.6 2138.57 3081.6 2154.57 3080.6 2171.57 3075.6 2187.57 3070.6 2204.5 3065.5" stroke="#548235" stroke-width="6.875" stroke-linecap="round" stroke-linejoin="round" stroke-miterlimit="10" fill="none"/></g><g><path d="M458 3194.1 474.016 3183.1 491.016 3216.11 508.017 3237.11 524.017 3137.1 541.018 3148.1 558.018 3163.1 574.019 3152.1 591.019 3151.1 607.02 3158.1 624.021 3137.1 641.021 3129.1 657.022 3096.1 674.022 3089 691.023 3102.1 707.023 3117.1 724.024 3137.1 741.024 3144.1 757.025 3134.1 774.025 3148.1 790.026 3152.1 807.026 3175.1 824.027 3209.11 840.028 3238.11 857.028 3259.11 874.029 3263.11 890.029 3243.11 907.03 3305.11 924.03 3310.11 940.031 3300.11 957.031 3311.11 973.032 3319.11 990.032 3324.11 1007.03 3326.11 1023.03 3316.11 1040.03 3322.11 1057.03 3326.11 1073.04 3332.11 1090.04 3331.11 1107.04 3335.11 1123.04 3345.11 1140.04 3354.11 1156.04 3364.11 1173.04 3366.11 1190.04 3368.11 1206.04 3373.11 1223.04 3379.11 1240.04 3381.11 1256.04 3382.11 1273.04 3383.11 1290.04 3379.11 1306.04 3385.11 1323.04 3386.11 1339.04 3385.11 1356.04 3388.11 1373.05 3389.11 1389.05 3392.11 1406.05 3394.11 1423.05 3396.11 1439.05 3395.11 1456.05 3397.11 1473.05 3401.11 1489.05 3396.11 1506.05 3397.11 1522.05 3404.11 1539.05 3404.11 1556.05 3404.11 1572.05 3401.11 1589.05 3399.11 1606.05 3400.11 1622.05 3401.11 1639.05 3402.11 1656.05 3406.11 1672.05 3405.11 1689.06 3405.11 1705.06 3406.11 1722.06 3407.11 1739.06 3418.11 1755.06 3419.11 1772.06 3421.11 1789.06 3421.11 1805.06 3419.11 1822.06 3419.11 1839.06 3418.11 1855.06 3420.11 1872.06 3421.11 1888.06 3421.11 1905.06 3421.11 1922.06 3421.11 1938.06 3423.11 1955.06 3424.11 1972.06 3424.11 1988.07 3425.11 2005.07 3426.11 2022.07 3425.11 2038.07 3426.11 2055.07 3428.11 2071.07 3430.11 2088.07 3434.11 2105.07 3437.11 2121.07 3448.11 2138.07 3447.11 2155.07 3444.11 2171.07 3448.11 2188.07 3451.11 2205 3453" stroke="#000000" stroke-width="10.3125" stroke-linecap="round" stroke-linejoin="round" stroke-miterlimit="10" fill="none"/></g><g><path d="M906.5 3488.61 923.53 3490.61 940.531 3489.61 956.532 3494.61 973.532 3497.61 990.533 3498.61 1006.53 3497.61 1023.53 3494.61 1039.53 3497.61 1056.53 3495.61 1073.54 3497.61 1089.54 3492.61 1106.54 3495.61 1123.54 3493.61 1139.54 3492.61 1156.54 3494.61 1173.54 3493.61 1189.54 3492.61 1206.54 3497.61 1222.54 3501.5 1239.54 3498.61 1256.54 3499.61 1272.54 3497.61 1289.54 3494.61 1306.54 3495.61 1322.54 3499.61 1339.54 3500.61 1356.54 3499.61 1372.55 3494.61 1389.55 3496.61 1405.55 3494.61 1422.55 3494.61 1439.55 3499.61 1455.55 3495.61 1472.55 3493.61 1489.55 3490.61 1505.55 3488.61 1522.55 3490.61 1539.55 3490.61 1555.55 3489.61 1572.55 3489.61 1589.55 3485.61 1605.55 3484.61 1622.55 3481.61 1638.55 3480.61 1655.55 3479.61 1672.55 3477.61 1688.56 3476.61 1705.56 3472.61 1722.56 3469.61 1738.56 3469.61 1755.56 3468.61 1772.56 3465.61 1788.56 3465.61 1805.56 3462.61 1821.56 3460.61 1838.56 3456.61 1855.56 3452.61 1871.56 3448.61 1888.56 3443.61 1905.56 3437.61 1921.56 3434.61 1938.56 3423.61 1955.56 3416.61 1971.56 3412.61 1988.57 3408.61 2004.57 3403.61 2021.57 3397.61 2038.57 3390.61 2054.57 3384.61 2071.57 3381.61 2088.57 3378.61 2104.57 3378.61 2121.57 3386.61 2138.57 3383.61 2154.57 3377.61 2171.57 3371.61 2187.57 3367.61 2204.5 3362.5" stroke="#9933FF" stroke-width="6.875" stroke-linecap="round" stroke-linejoin="round" stroke-miterlimit="10" fill="none"/></g><g><path d="M457.5 3389.61 474.516 3383.61 490.516 3394.61 507.517 3405.61 524.517 3347.61 540.518 3358.61 557.518 3364.61 574.519 3362.61 590.52 3362.61 607.52 3367.61 624.521 3343.61 640.521 3331.61 657.522 3320.61 673.522 3312.61 690.523 3307.61 707.523 3290.61 723.524 3293.61 740.524 3284.61 757.525 3273.5 773.526 3276.61 790.526 3287.61 807.527 3355.61 823.527 3380.61 840.528 3401.61 856.528 3410.61 873.529 3409.61 890.529 3392.61 906.53 3374.61 923.531 3361.61 940.531 3343.61 956.532 3341.61 973.532 3354.61 990.533 3350.61 1006.53 3351.61 1023.53 3342.61 1039.53 3340.61 1056.53 3328.61 1073.54 3328.61 1089.54 3314.61 1106.54 3328.61 1123.54 3317.61 1139.54 3312.61 1156.54 3318.61 1173.54 3330.61 1189.54 3319.61 1206.54 3321.61 1222.54 3324.61 1239.54 3321.61 1256.54 3320.61 1272.54 3323.61 1289.54 3311.61 1306.54 3312.61 1322.54 3321.61 1339.54 3316.61 1356.54 3310.61 1372.55 3309.61 1389.55 3311.61 1405.55 3315.61 1422.55 3320.61 1439.55 3326.61 1455.55 3326.61 1472.55 3328.61 1489.55 3321.61 1505.55 3323.61 1522.55 3333.61 1539.55 3338.61 1555.55 3337.61 1572.55 3341.61 1589.55 3344.61 1605.55 3347.61 1622.55 3356.61 1638.55 3412.61 1655.55 3434.61 1672.56 3446.61 1688.56 3463.61 1705.56 3469.61 1722.56 3475.61 1738.56 3477.61 1755.56 3484.5 1772.56 3483.61 1788.56 3479.61 1805.56 3476.61 1821.56 3474.61 1838.56 3470.61 1855.56 3468.61 1871.56 3465.61 1888.56 3461.61 1905.56 3455.61 1921.56 3450.61 1938.56 3456.61 1955.56 3454.61 1971.56 3452.61 1988.57 3450.61 2004.57 3450.61 2021.57 3452.61 2038.57 3457.61 2054.57 3460.61 2071.57 3462.61 2088.57 3464.61 2104.57 3465.61 2121.57 3467.61 2138.57 3468.61 2154.57 3471.61 2171.57 3472.61 2187.57 3472.61 2204.5 3473.61" stroke="#C00000" stroke-width="6.875" stroke-linecap="round" stroke-linejoin="round" stroke-miterlimit="10" fill="none"/></g><g><text font-family="Arial,Arial_MSFontService,sans-serif" font-weight="400" font-size="46" transform="matrix(1 0 0 1 354.555 3577)">0.0</text></g><g><text font-family="Arial,Arial_MSFontService,sans-serif" font-weight="400" font-size="46" transform="matrix(1 0 0 1 354.555 3479)">0.2</text></g><g><text font-family="Arial,Arial_MSFontService,sans-serif" font-weight="400" font-size="46" transform="matrix(1 0 0 1 354.555 3381)">0.4</text></g><g><text font-family="Arial,Arial_MSFontService,sans-serif" font-weight="400" font-size="46" transform="matrix(1 0 0 1 354.555 3283)">0.6</text></g><g><text font-family="Arial,Arial_MSFontService,sans-serif" font-weight="400" font-size="46" transform="matrix(1 0 0 1 354.555 3185)">0.8</text></g><g><text font-family="Arial,Arial_MSFontService,sans-serif" font-weight="400" font-size="46" transform="matrix(1 0 0 1 354.555 3087)">1.0</text></g><g><text font-family="Arial,Arial_MSFontService,sans-serif" font-weight="400" font-size="46" transform="matrix(1 0 0 1 354.555 2990)">1.2</text></g><g><text font-family="Arial,Arial_MSFontService,sans-serif" font-weight="400" font-size="46" transform="matrix(1 0 0 1 354.555 2892)">1.4</text></g><g><text font-family="Arial,Arial_MSFontService,sans-serif" font-weight="400" font-size="46" transform="matrix(1 0 0 1 354.555 2794)">1.6</text></g><g><text font-family="Arial,Arial_MSFontService,sans-serif" font-weight="400" font-size="46" transform="matrix(0.707107 -0.707107 0.707107 0.707107 397.219 3691)">1920</text></g><g><text font-family="Arial,Arial_MSFontService,sans-serif" font-weight="400" font-size="46" transform="matrix(0.707107 -0.707107 0.707107 0.707107 480.406 3691)">1925</text></g><g><text font-family="Arial,Arial_MSFontService,sans-serif" font-weight="400" font-size="46" transform="matrix(0.707107 -0.707107 0.707107 0.707107 563.594 3691)">1930</text></g><g><text font-family="Arial,Arial_MSFontService,sans-serif" font-weight="400" font-size="46" transform="matrix(0.707107 -0.707107 0.707107 0.707107 646.781 3691)">1935</text></g><g><text font-family="Arial,Arial_MSFontService,sans-serif" font-weight="400" font-size="46" transform="matrix(0.707107 -0.707107 0.707107 0.707107 729.969 3691)">1940</text></g><g><text font-family="Arial,Arial_MSFontService,sans-serif" font-weight="400" font-size="46" transform="matrix(0.707107 -0.707107 0.707107 0.707107 813.156 3691)">1945</text></g><g><text font-family="Arial,Arial_MSFontService,sans-serif" font-weight="400" font-size="46" transform="matrix(0.707107 -0.707107 0.707107 0.707107 896.344 3691)">1950</text></g><g><text font-family="Arial,Arial_MSFontService,sans-serif" font-weight="400" font-size="46" transform="matrix(0.707107 -0.707107 0.707107 0.707107 979.531 3691)">1955</text></g><g><text font-family="Arial,Arial_MSFontService,sans-serif" font-weight="400" font-size="46" transform="matrix(0.707107 -0.707107 0.707107 0.707107 1062.72 3691)">1960</text></g><g><text font-family="Arial,Arial_MSFontService,sans-serif" font-weight="400" font-size="46" transform="matrix(0.707107 -0.707107 0.707107 0.707107 1145.91 3691)">1965</text></g><g><text font-family="Arial,Arial_MSFontService,sans-serif" font-weight="400" font-size="46" transform="matrix(0.707107 -0.707107 0.707107 0.707107 1229.09 3691)">1970</text></g><g><text font-family="Arial,Arial_MSFontService,sans-serif" font-weight="400" font-size="46" transform="matrix(0.707107 -0.707107 0.707107 0.707107 1312.28 3691)">1975</text></g><g><text font-family="Arial,Arial_MSFontService,sans-serif" font-weight="400" font-size="46" transform="matrix(0.707107 -0.707107 0.707107 0.707107 1395.47 3691)">1980</text></g><g><text font-family="Arial,Arial_MSFontService,sans-serif" font-weight="400" font-size="46" transform="matrix(0.707107 -0.707107 0.707107 0.707107 1478.66 3691)">1985</text></g><g><text font-family="Arial,Arial_MSFontService,sans-serif" font-weight="400" font-size="46" transform="matrix(0.707107 -0.707107 0.707107 0.707107 1561.84 3691)">1990</text></g><g><text font-family="Arial,Arial_MSFontService,sans-serif" font-weight="400" font-size="46" transform="matrix(0.707107 -0.707107 0.707107 0.707107 1645.03 3691)">1995</text></g><g><text font-family="Arial,Arial_MSFontService,sans-serif" font-weight="400" font-size="46" transform="matrix(0.707107 -0.707107 0.707107 0.707107 1728.22 3691)">2000</text></g><g><text font-family="Arial,Arial_MSFontService,sans-serif" font-weight="400" font-size="46" transform="matrix(0.707107 -0.707107 0.707107 0.707107 1811.41 3691)">2005</text></g><g><text font-family="Arial,Arial_MSFontService,sans-serif" font-weight="400" font-size="46" transform="matrix(0.707107 -0.707107 0.707107 0.707107 1894.59 3691)">2010</text></g><g><text font-family="Arial,Arial_MSFontService,sans-serif" font-weight="400" font-size="46" transform="matrix(0.707107 -0.707107 0.707107 0.707107 1977.78 3691)">2015</text></g><g><text font-family="Arial,Arial_MSFontService,sans-serif" font-weight="400" font-size="46" transform="matrix(0.707107 -0.707107 0.707107 0.707107 2060.97 3691)">2020</text></g><g><text font-family="Arial,Arial_MSFontService,sans-serif" font-weight="400" font-size="46" transform="matrix(0.707107 -0.707107 0.707107 0.707107 2144.16 3691)">2025</text></g><g><text font-family="Arial,Arial_MSFontService,sans-serif" font-weight="700" font-size="50" transform="matrix(6.12323e-17 -1 1 6.12323e-17 329.828 3473)">Relative economic power</text></g><g><text font-family="Arial,Arial_MSFontService,sans-serif" font-weight="700" font-size="64" transform="matrix(1 0 0 1 879.622 2613)">THE MIGHT OF NATIONS</text></g><g><text font-family="Arial,Arial_MSFontService,sans-serif" font-weight="400" font-size="60" transform="matrix(1 0 0 1 762.517 2683)">Midpoint between PPP and USD view</text></g><g><g><text fill="#2F5597" font-family="Arial,Arial_MSFontService,sans-serif" font-weight="700" font-size="46" transform="matrix(1 0 0 1 1580.73 2942)">United States</text></g></g><g><text fill="#548235" font-family="Arial,Arial_MSFontService,sans-serif" font-weight="700" font-size="46" transform="matrix(1 0 0 1 1759.11 3239)">China</text></g><g><text font-family="Arial,Arial_MSFontService,sans-serif" font-weight="700" font-size="46" transform="matrix(1 0 0 1 824.559 3134)">Br. Empire / UK</text></g><g><text fill="#C00000" font-family="Arial,Arial_MSFontService,sans-serif" font-weight="700" font-size="46" transform="matrix(1 0 0 1 1313.39 3280)">USSR / Russia</text></g><g><text fill="#9933FF" font-family="Arial,Arial_MSFontService,sans-serif" font-weight="700" font-size="46" transform="matrix(1 0 0 1 2062.71 3341)">India</text></g></g></svg>