<svg width="1757" height="1467" xmlns="http://www.w3.org/2000/svg" xmlns:xlink="http://www.w3.org/1999/xlink" xml:space="preserve" overflow="hidden"><defs><clipPath id="clip0"><rect x="390" y="1513" width="1757" height="1467"/></clipPath></defs><g clip-path="url(#clip0)" transform="translate(-390 -1513)"><rect x="390" y="1513" width="1757" height="1374" fill="#FFFFFF"/><g><path d="M0 0 0.000360892 1084" stroke="#D9D9D9" stroke-width="3.4375" stroke-linejoin="round" stroke-miterlimit="10" fill="none" fill-rule="evenodd" transform="matrix(1 0 0 -1 1260.5 2836.5)"/></g><g><path d="M1139.5 2809.5 1260.5 2809.5" stroke="#BFBFBF" stroke-width="11.4583" stroke-linejoin="round" stroke-miterlimit="10" fill="none"/></g><g><path d="M1220.5 2755.5 1260.5 2755.5" stroke="#BFBFBF" stroke-width="11.4583" stroke-linejoin="round" stroke-miterlimit="10" fill="none"/></g><g><path d="M1421.5 2701.5 1260.5 2701.5" stroke="#BFBFBF" stroke-width="11.4583" stroke-linejoin="round" stroke-miterlimit="10" fill="none"/></g><g><path d="M1535.5 2646.5 1260.5 2646.5" stroke="#BFBFBF" stroke-width="11.4583" stroke-linejoin="round" stroke-miterlimit="10" fill="none"/></g><g><path d="M1436.5 2538.5 1260.5 2538.5" stroke="#BFBFBF" stroke-width="11.4583" stroke-linejoin="round" stroke-miterlimit="10" fill="none"/></g><g><path d="M1530.5 2484.5 1260.5 2484.5" stroke="#BFBFBF" stroke-width="11.4583" stroke-linejoin="round" stroke-miterlimit="10" fill="none"/></g><g><path d="M1548.5 2430.5 1260.5 2430.5" stroke="#BFBFBF" stroke-width="11.4583" stroke-linejoin="round" stroke-miterlimit="10" fill="none"/></g><g><path d="M1772.5 2375.5 1260.5 2375.5" stroke="#BFBFBF" stroke-width="11.4583" stroke-linejoin="round" stroke-miterlimit="10" fill="none"/></g><g><path d="M1937.5 2321.5 1260.5 2321.5" stroke="#BFBFBF" stroke-width="11.4583" stroke-linejoin="round" stroke-miterlimit="10" fill="none"/></g><g><path d="M1520.5 2213.5 1260.5 2213.5" stroke="#BFBFBF" stroke-width="11.4583" stroke-linejoin="round" stroke-miterlimit="10" fill="none"/></g><g><path d="M1597.5 2158.5 1260.5 2158.5" stroke="#BFBFBF" stroke-width="11.4583" stroke-linejoin="round" stroke-miterlimit="10" fill="none"/></g><g><path d="M1522.5 2104.5 1260.5 2104.5" stroke="#BFBFBF" stroke-width="11.4583" stroke-linejoin="round" stroke-miterlimit="10" fill="none"/></g><g><path d="M1548.5 1996.5 1260.5 1996.5" stroke="#BFBFBF" stroke-width="11.4583" stroke-linejoin="round" stroke-miterlimit="10" fill="none"/></g><g><path d="M1467.5 1941.5 1260.5 1941.5" stroke="#BFBFBF" stroke-width="11.4583" stroke-linejoin="round" stroke-miterlimit="10" fill="none"/></g><g><path d="M1415.5 1887.5 1260.5 1887.5" stroke="#BFBFBF" stroke-width="11.4583" stroke-linejoin="round" stroke-miterlimit="10" fill="none"/></g><g><path d="M1501.5 1833.5 1260.5 1833.5" stroke="#BFBFBF" stroke-width="11.4583" stroke-linejoin="round" stroke-miterlimit="10" fill="none"/></g><g><path d="M1392.5 1779.5 1260.5 1779.5" stroke="#BFBFBF" stroke-width="11.4583" stroke-linejoin="round" stroke-miterlimit="10" fill="none"/></g><g><path d="M1150.38 2809.29C1150.38 2815.37 1145.45 2820.29 1139.38 2820.29 1133.3 2820.29 1128.38 2815.37 1128.38 2809.29 1128.38 2803.22 1133.3 2798.29 1139.38 2798.29 1145.45 2798.29 1150.38 2803.22 1150.38 2809.29Z" stroke="#0070C0" stroke-width="22.9167" stroke-linejoin="round" stroke-miterlimit="10" fill="#0070C0"/><path d="M1231.38 2755.29C1231.38 2761.37 1226.45 2766.29 1220.38 2766.29 1214.3 2766.29 1209.38 2761.37 1209.38 2755.29 1209.38 2749.22 1214.3 2744.29 1220.38 2744.29 1226.45 2744.29 1231.38 2749.22 1231.38 2755.29Z" stroke="#0070C0" stroke-width="22.9167" stroke-linejoin="round" stroke-miterlimit="10" fill="#0070C0"/><path d="M1432.38 2701.29C1432.38 2707.37 1427.45 2712.29 1421.38 2712.29 1415.3 2712.29 1410.38 2707.37 1410.38 2701.29 1410.38 2695.22 1415.3 2690.29 1421.38 2690.29 1427.45 2690.29 1432.38 2695.22 1432.38 2701.29Z" stroke="#0070C0" stroke-width="22.9167" stroke-linejoin="round" stroke-miterlimit="10" fill="#0070C0"/><path d="M1546.38 2646.29C1546.38 2652.37 1541.45 2657.29 1535.38 2657.29 1529.3 2657.29 1524.38 2652.37 1524.38 2646.29 1524.38 2640.22 1529.3 2635.29 1535.38 2635.29 1541.45 2635.29 1546.38 2640.22 1546.38 2646.29Z" stroke="#0070C0" stroke-width="22.9167" stroke-linejoin="round" stroke-miterlimit="10" fill="#0070C0"/><path d="M1541.38 2484.29C1541.38 2490.37 1536.45 2495.29 1530.38 2495.29 1524.3 2495.29 1519.38 2490.37 1519.38 2484.29 1519.38 2478.22 1524.3 2473.29 1530.38 2473.29 1536.45 2473.29 1541.38 2478.22 1541.38 2484.29Z" stroke="#0070C0" stroke-width="22.9167" stroke-linejoin="round" stroke-miterlimit="10" fill="#0070C0"/><path d="M1559.38 2430.29C1559.38 2436.37 1554.45 2441.29 1548.38 2441.29 1542.3 2441.29 1537.38 2436.37 1537.38 2430.29 1537.38 2424.22 1542.3 2419.29 1548.38 2419.29 1554.45 2419.29 1559.38 2424.22 1559.38 2430.29Z" stroke="#0070C0" stroke-width="22.9167" stroke-linejoin="round" stroke-miterlimit="10" fill="#0070C0"/><path d="M1783.38 2375.29C1783.38 2381.37 1778.45 2386.29 1772.38 2386.29 1766.3 2386.29 1761.38 2381.37 1761.38 2375.29 1761.38 2369.22 1766.3 2364.29 1772.38 2364.29 1778.45 2364.29 1783.38 2369.22 1783.38 2375.29Z" stroke="#0070C0" stroke-width="22.9167" stroke-linejoin="round" stroke-miterlimit="10" fill="#0070C0"/><path d="M1948.38 2321.29C1948.38 2327.37 1943.45 2332.29 1937.38 2332.29 1931.3 2332.29 1926.38 2327.37 1926.38 2321.29 1926.38 2315.22 1931.3 2310.29 1937.38 2310.29 1943.45 2310.29 1948.38 2315.22 1948.38 2321.29Z" stroke="#0070C0" stroke-width="22.9167" stroke-linejoin="round" stroke-miterlimit="10" fill="#0070C0"/><path d="M1531.38 2213.29C1531.38 2219.37 1526.45 2224.29 1520.38 2224.29 1514.3 2224.29 1509.38 2219.37 1509.38 2213.29 1509.38 2207.22 1514.3 2202.29 1520.38 2202.29 1526.45 2202.29 1531.38 2207.22 1531.38 2213.29Z" stroke="#0070C0" stroke-width="22.9167" stroke-linejoin="round" stroke-miterlimit="10" fill="#0070C0"/><path d="M1608.38 2158.29C1608.38 2164.37 1603.45 2169.29 1597.38 2169.29 1591.3 2169.29 1586.38 2164.37 1586.38 2158.29 1586.38 2152.22 1591.3 2147.29 1597.38 2147.29 1603.45 2147.29 1608.38 2152.22 1608.38 2158.29Z" stroke="#0070C0" stroke-width="22.9167" stroke-linejoin="round" stroke-miterlimit="10" fill="#0070C0"/><path d="M1559.38 1996.29C1559.38 2002.37 1554.45 2007.29 1548.38 2007.29 1542.3 2007.29 1537.38 2002.37 1537.38 1996.29 1537.38 1990.22 1542.3 1985.29 1548.38 1985.29 1554.45 1985.29 1559.38 1990.22 1559.38 1996.29Z" stroke="#0070C0" stroke-width="22.9167" stroke-linejoin="round" stroke-miterlimit="10" fill="#0070C0"/><path d="M1478.38 1941.29C1478.38 1947.37 1473.45 1952.29 1467.38 1952.29 1461.3 1952.29 1456.38 1947.37 1456.38 1941.29 1456.38 1935.22 1461.3 1930.29 1467.38 1930.29 1473.45 1930.29 1478.38 1935.22 1478.38 1941.29Z" stroke="#0070C0" stroke-width="22.9167" stroke-linejoin="round" stroke-miterlimit="10" fill="#0070C0"/><path d="M1426.38 1887.29C1426.38 1893.37 1421.45 1898.29 1415.38 1898.29 1409.3 1898.29 1404.38 1893.37 1404.38 1887.29 1404.38 1881.22 1409.3 1876.29 1415.38 1876.29 1421.45 1876.29 1426.38 1881.22 1426.38 1887.29Z" stroke="#0070C0" stroke-width="22.9167" stroke-linejoin="round" stroke-miterlimit="10" fill="#0070C0"/><path d="M1512.38 1833.29C1512.38 1839.37 1507.45 1844.29 1501.38 1844.29 1495.3 1844.29 1490.38 1839.37 1490.38 1833.29 1490.38 1827.22 1495.3 1822.29 1501.38 1822.29 1507.45 1822.29 1512.38 1827.22 1512.38 1833.29Z" stroke="#0070C0" stroke-width="22.9167" stroke-linejoin="round" stroke-miterlimit="10" fill="#0070C0"/><path d="M1403.38 1779.29C1403.38 1785.37 1398.45 1790.29 1392.38 1790.29 1386.3 1790.29 1381.38 1785.37 1381.38 1779.29 1381.38 1773.22 1386.3 1768.29 1392.38 1768.29 1398.45 1768.29 1403.38 1773.22 1403.38 1779.29Z" stroke="#0070C0" stroke-width="22.9167" stroke-linejoin="round" stroke-miterlimit="10" fill="#0070C0"/></g><g><path d="M1447.5 2538.5C1447.5 2544.57 1442.57 2549.5 1436.5 2549.5 1430.42 2549.5 1425.5 2544.57 1425.5 2538.5 1425.5 2532.42 1430.42 2527.5 1436.5 2527.5 1442.57 2527.5 1447.5 2532.42 1447.5 2538.5Z" stroke="#0070C0" stroke-width="27.5" stroke-linejoin="round" stroke-miterlimit="10" fill="#0070C0"/></g><g><path d="M1533 2104C1533 2110.07 1528.07 2115 1522 2115 1515.92 2115 1511 2110.07 1511 2104 1511 2097.92 1515.92 2093 1522 2093 1528.07 2093 1533 2097.92 1533 2104Z" stroke="#0070C0" stroke-width="22.9167" stroke-linejoin="round" stroke-miterlimit="10" fill="#006AA7"/></g><g><text font-family="Arial,Arial_MSFontService,sans-serif" font-weight="400" font-size="50" transform="matrix(1 0 0 1 968.403 2828)">-</text></g><g><text font-family="Arial,Arial_MSFontService,sans-serif" font-weight="400" font-size="50" transform="matrix(1 0 0 1 985.201 2828)">0.9%</text></g><g><text font-family="Arial,Arial_MSFontService,sans-serif" font-weight="400" font-size="50" transform="matrix(1 0 0 1 1049.99 2769)">-</text></g><g><text font-family="Arial,Arial_MSFontService,sans-serif" font-weight="400" font-size="50" transform="matrix(1 0 0 1 1066.78 2769)">0.3%</text></g><g><text font-family="Arial,Arial_MSFontService,sans-serif" font-weight="400" font-size="50" transform="matrix(1 0 0 1 1460.64 2719)">1.2%</text></g><g><text font-family="Arial,Arial_MSFontService,sans-serif" font-weight="400" font-size="50" transform="matrix(1 0 0 1 1574.8 2665)">2.0%</text></g><g><text font-family="Arial,Arial_MSFontService,sans-serif" font-weight="400" font-size="50" transform="matrix(1 0 0 1 1475.63 2556)">1.3%</text></g><g><text font-family="Arial,Arial_MSFontService,sans-serif" font-weight="400" font-size="50" transform="matrix(1 0 0 1 1569.82 2502)">1.9%</text></g><g><text font-family="Arial,Arial_MSFontService,sans-serif" font-weight="400" font-size="50" transform="matrix(1 0 0 1 1587.57 2448)">2.1%</text></g><g><text font-family="Arial,Arial_MSFontService,sans-serif" font-weight="400" font-size="50" transform="matrix(1 0 0 1 1811.56 2394)">3.7%</text></g><g><text font-family="Arial,Arial_MSFontService,sans-serif" font-weight="400" font-size="50" transform="matrix(1 0 0 1 1976.6 2340)">4.9%</text></g><g><text font-family="Arial,Arial_MSFontService,sans-serif" font-weight="400" font-size="50" transform="matrix(1 0 0 1 1559.45 2231)">1.9%</text></g><g><text font-family="Arial,Arial_MSFontService,sans-serif" font-weight="400" font-size="50" transform="matrix(1 0 0 1 1636.3 2177)">2.4%</text></g><g><text font-family="Arial,Arial_MSFontService,sans-serif" font-weight="400" font-size="50" transform="matrix(1 0 0 1 1561.73 2123)">1.9%</text></g><g><text font-family="Arial,Arial_MSFontService,sans-serif" font-weight="400" font-size="50" transform="matrix(1 0 0 1 1587.29 2014)">2.1%</text></g><g><text font-family="Arial,Arial_MSFontService,sans-serif" font-weight="400" font-size="50" transform="matrix(1 0 0 1 1506.87 1960)">1.5%</text></g><g><text font-family="Arial,Arial_MSFontService,sans-serif" font-weight="400" font-size="50" transform="matrix(1 0 0 1 1454.01 1906)">1.1%</text></g><g><text font-family="Arial,Arial_MSFontService,sans-serif" font-weight="400" font-size="50" transform="matrix(1 0 0 1 1540.52 1851)">1.7%</text></g><g><text font-family="Arial,Arial_MSFontService,sans-serif" font-weight="400" font-size="50" transform="matrix(1 0 0 1 1431.14 1797)">0.9%</text></g><g><text font-family="Arial,Arial_MSFontService,sans-serif" font-weight="400" font-size="50" transform="matrix(1 0 0 1 854.215 2826)">Irak</text></g><g><text font-family="Arial,Arial_MSFontService,sans-serif" font-weight="400" font-size="50" transform="matrix(1 0 0 1 728.082 2772)">Sydafrika</text></g><g><text font-family="Arial,Arial_MSFontService,sans-serif" font-weight="400" font-size="50" transform="matrix(1 0 0 1 744.879 2718)">Brasilien</text></g><g><text font-family="Arial,Arial_MSFontService,sans-serif" font-weight="400" font-size="50" transform="matrix(1 0 0 1 744.811 2663)">Thailand</text></g><g><text font-family="Arial,Arial_MSFontService,sans-serif" font-weight="400" font-size="50" transform="matrix(1 0 0 1 800.866 2555)">Japan</text></g><g><text font-family="Arial,Arial_MSFontService,sans-serif" font-weight="400" font-size="50" transform="matrix(1 0 0 1 868.24 2501)">EU</text></g><g><text font-family="Arial,Arial_MSFontService,sans-serif" font-weight="400" font-size="50" transform="matrix(1 0 0 1 834.621 2446)">USA</text></g><g><text font-family="Arial,Arial_MSFontService,sans-serif" font-weight="400" font-size="50" transform="matrix(1 0 0 1 800.865 2392)">Indien</text></g><g><text font-family="Arial,Arial_MSFontService,sans-serif" font-weight="400" font-size="50" transform="matrix(1 0 0 1 837.349 2338)">Kina</text></g><g><text font-family="Arial,Arial_MSFontService,sans-serif" font-weight="400" font-size="50" transform="matrix(1 0 0 1 419.669 2229)">Avancerade ekonomier</text></g><g><text font-family="Arial,Arial_MSFontService,sans-serif" font-weight="400" font-size="50" transform="matrix(1 0 0 1 641.181 2175)">Tillväxtländer</text></g><g><text font-family="Arial,Arial_MSFontService,sans-serif" font-weight="400" font-size="50" transform="matrix(1 0 0 1 764.451 2121)">Världen</text></g><g><text font-family="Arial,Arial_MSFontService,sans-serif" font-weight="400" font-size="50" transform="matrix(1 0 0 1 775.657 2012)">Europa</text></g><g><text font-family="Arial,Arial_MSFontService,sans-serif" font-weight="400" font-size="50" transform="matrix(1 0 0 1 671.913 1958)">Nordeuropa</text></g><g><text font-family="Arial,Arial_MSFontService,sans-serif" font-weight="400" font-size="50" transform="matrix(1 0 0 1 624.291 1904)">Storbritannien</text></g><g><text font-family="Arial,Arial_MSFontService,sans-serif" font-weight="400" font-size="50" transform="matrix(1 0 0 1 733.696 1850)">Danmark</text></g><g><text font-family="Arial,Arial_MSFontService,sans-serif" font-weight="400" font-size="50" transform="matrix(1 0 0 1 767.292 1796)">Sverige</text></g><g><text font-family="Arial,Arial_MSFontService,sans-serif" font-weight="700" font-size="64" transform="matrix(1 0 0 1 602.049 1607)">BNP PER ARBETSFÖR BEFOLKNING (AFB)</text></g><g><text font-family="Arial,Arial_MSFontService,sans-serif" font-weight="400" font-size="60" transform="matrix(1 0 0 1 976.164 1681)">Årlig</text></g><g><text font-family="Arial,Arial_MSFontService,sans-serif" font-weight="400" font-size="60" transform="matrix(1 0 0 1 1111.92 1681)">tillväxt</text></g><g><text font-family="Arial,Arial_MSFontService,sans-serif" font-weight="400" font-size="60" transform="matrix(1 0 0 1 1294.02 1681)">2015</text></g><g><text font-family="Arial,Arial_MSFontService,sans-serif" font-weight="400" font-size="60" transform="matrix(1 0 0 1 1426.57 1681)">-</text></g><g><text font-family="Arial,Arial_MSFontService,sans-serif" font-weight="400" font-size="60" transform="matrix(1 0 0 1 1446.41 1681)">2025</text></g><text font-family="Arial,Arial_MSFontService,sans-serif" font-weight="400" font-size="46" transform="matrix(1 0 0 1 846.968 2942)">Källa: TelluBase; S. Canbäck </text><text font-family="Arial,Arial_MSFontService,sans-serif" font-weight="400" font-size="46" transform="matrix(1 0 0 1 1449.68 2942)">tabulering</text></g></svg>