<svg width="1887" height="5386" xmlns="http://www.w3.org/2000/svg" xmlns:xlink="http://www.w3.org/1999/xlink" xml:space="preserve" overflow="hidden"><defs><clipPath id="clip0"><rect x="4306" y="789" width="1887" height="5386"/></clipPath></defs><g clip-path="url(#clip0)" transform="translate(-4306 -789)"><rect x="4306" y="789" width="1887" height="5386" fill="#FFFFFF"/><g><path d="M4538.5 1059.5 4538.5 5691.5M4738.66 1059.5 4738.66 5691.5M4938.66 1059.5 4938.66 5691.5M5138.67 1059.5 5138.67 5691.5M5537.68 1059.5 5537.68 5691.5M5737.69 1059.5 5737.69 5691.5M5937.69 1059.5 5937.69 5691.5M6137.5 1059.5 6137.5 5691.5" stroke="#D9D9D9" stroke-width="3.4375" stroke-linejoin="round" stroke-miterlimit="10" fill="none"/></g><g><path d="M5563.18 5561.18 5338.18 5561.18 5338.18 5520.18 5563.18 5520.18ZM5793.19 5501.18 5338.18 5501.18 5338.18 5460.18 5793.19 5460.18ZM5410.18 5321.17 5338.18 5321.17 5338.18 5279.17 5410.18 5279.17ZM5568.18 5261.17 5338.18 5261.17 5338.18 5219.17 5568.18 5219.17ZM5467.18 5200.17 5338.18 5200.17 5338.18 5159.17 5467.18 5159.17ZM5645.19 5080.17 5338.18 5080.17 5338.18 5039.17 5645.19 5039.17ZM6081.2 5020.16 5338.18 5020.16 5338.18 4978.16 6081.2 4978.16ZM5419.18 4960.16 5338.18 4960.16 5338.18 4918.16 5419.18 4918.16ZM5480.18 4719.15 5338.18 4719.15 5338.18 4678.15 5480.18 4678.15ZM5547.18 4659.15 5338.18 4659.15 5338.18 4618.15 5547.18 4618.15ZM5365.18 4539.15 5338.18 4539.15 5338.18 4497.15 5365.18 4497.15ZM5466.18 4479.15 5338.18 4479.15 5338.18 4437.15 5466.18 4437.15ZM5387.18 4418.15 5338.18 4418.15 5338.18 4377.14 5387.18 4377.14ZM5472.18 4358.14 5338.18 4358.14 5338.18 4317.14 5472.18 4317.14ZM5400.18 4298.14 5338.18 4298.14 5338.18 4257.14 5400.18 4257.14ZM5617.18 4238.14 5338.18 4238.14 5338.18 4197.14 5617.18 4197.14ZM5602.18 3997.13 5338.18 3997.13 5338.18 3956.13 5602.18 3956.13ZM5927.19 3937.13 5338.18 3937.13 5338.18 3896.13 5927.19 3896.13ZM5426.18 3817.12 5338.18 3817.12 5338.18 3775.12 5426.18 3775.12ZM5474.18 3757.12 5338.18 3757.12 5338.18 3715.12 5474.18 3715.12ZM5436.18 3697.12 5338.18 3697.12 5338.18 3655.12 5436.18 3655.12ZM5654.19 3636.12 5338.18 3636.12 5338.18 3595.12 5654.19 3595.12ZM5584.18 3576.12 5338.18 3576.12 5338.18 3535.12 5584.18 3535.12ZM5392.18 3396.11 5338.18 3396.11 5338.18 3354.11 5392.18 3354.11ZM5950.2 3336.11 5338.18 3336.11 5338.18 3294.11 5950.2 3294.11ZM5498.18 3276.11 5338.18 3276.11 5338.18 3234.11 5498.18 3234.11ZM5686.19 3095.1 5338.18 3095.1 5338.18 3054.1 5686.19 3054.1ZM5786.19 3035.1 5338.18 3035.1 5338.18 2993.1 5786.19 2993.1ZM5362.18 2915.1 5338.18 2915.1 5338.18 2873.09 5362.18 2873.09ZM5384.18 2855.09 5338.18 2855.09 5338.18 2813.09 5384.18 2813.09ZM5366.18 2794.09 5338.18 2794.09 5338.18 2753.09 5366.18 2753.09ZM5508.18 2734.09 5338.18 2734.09 5338.18 2693.09 5508.18 2693.09ZM5464.18 2674.09 5338.18 2674.09 5338.18 2633.09 5464.18 2633.09ZM5483.18 2494.08 5338.18 2494.08 5338.18 2452.08 5483.18 2452.08ZM5807.19 2433.08 5338.18 2433.08 5338.18 2392.08 5807.19 2392.08ZM5359.18 2313.08 5338.18 2313.08 5338.18 2272.07 5359.18 2272.07ZM5664.19 2253.07 5338.18 2253.07 5338.18 2212.07 5664.19 2212.07ZM5473.18 2193.07 5338.18 2193.07 5338.18 2151.07 5473.18 2151.07ZM5505.18 2073.07 5338.18 2073.07 5338.18 2031.07 5505.18 2031.07ZM5782.19 2012.07 5338.18 2012.07 5338.18 1971.06 5782.19 1971.06ZM5406.18 1952.06 5338.18 1952.06 5338.18 1911.06 5406.18 1911.06ZM5646.19 1892.06 5338.18 1892.06 5338.18 1851.06 5646.19 1851.06ZM5408.18 1652.05 5338.18 1652.05 5338.18 1610.05 5408.18 1610.05ZM5687.19 1591.05 5338.18 1591.05 5338.18 1550.05 5687.19 1550.05ZM5790.19 1531.05 5338.18 1531.05 5338.18 1490.05 5790.19 1490.05ZM5369.18 1351.04 5338.18 1351.04 5338.18 1309.04 5369.18 1309.04ZM5664.19 1291.04 5338.18 1291.04 5338.18 1249.04 5664.19 1249.04ZM5359.18 1230.04 5338.18 1230.04 5338.18 1189.04 5359.18 1189.04ZM5584.18 1170.04 5338.18 1170.04 5338.18 1129.04 5584.18 1129.04Z" fill="#C00000"/></g><g><path d="M5274.17 5621.18 5338.18 5621.18 5338.18 5580.18 5274.17 5580.18ZM5317.17 5501.18 5338.18 5501.18 5338.18 5460.18 5317.17 5460.18ZM4930.16 5441.18 5338.18 5441.18 5338.18 5400.18 4930.16 5400.18ZM5093.17 5381.18 5338.18 5381.18 5338.18 5339.18 5093.17 5339.18ZM5147.17 5321.17 5338.18 5321.17 5338.18 5279.17 5147.17 5279.17ZM5256.17 5200.17 5338.18 5200.17 5338.18 5159.17 5256.17 5159.17ZM5249.17 5140.17 5338.18 5140.17 5338.18 5099.17 5249.17 5099.17ZM5245.17 5080.17 5338.18 5080.17 5338.18 5039.17 5245.17 5039.17ZM5287.17 4839.16 5338.18 4839.16 5338.18 4798.16 5287.17 4798.16ZM5017.16 4779.16 5338.18 4779.16 5338.18 4738.16 5017.16 4738.16ZM4961.16 4719.15 5338.18 4719.15 5338.18 4678.15 4961.16 4678.15ZM5248.17 4659.15 5338.18 4659.15 5338.18 4618.15 5248.17 4618.15ZM5011.16 4599.15 5338.18 4599.15 5338.18 4557.15 5011.16 4557.15ZM5063.17 4539.15 5338.18 4539.15 5338.18 4497.15 5063.17 4497.15ZM5251.17 4479.15 5338.18 4479.15 5338.18 4437.15 5251.17 4437.15ZM5282.17 4418.15 5338.18 4418.15 5338.18 4377.14 5282.17 4377.14ZM5290.17 4178.14 5338.18 4178.14 5338.18 4136.14 5290.17 4136.14ZM4937.16 4118.14 5338.18 4118.14 5338.18 4076.13 4937.16 4076.13ZM4751.16 4058.13 5338.18 4058.13 5338.18 4016.13 4751.16 4016.13ZM5034.17 3997.13 5338.18 3997.13 5338.18 3956.13 5034.17 3956.13ZM5318.17 3937.13 5338.18 3937.13 5338.18 3896.13 5318.17 3896.13ZM5249.17 3877.13 5338.18 3877.13 5338.18 3836.13 5249.17 3836.13ZM5166.17 3817.12 5338.18 3817.12 5338.18 3775.12 5166.17 3775.12ZM5114.17 3456.11 5338.18 3456.11 5338.18 3415.11 5114.17 3415.11ZM4902.16 3396.11 5338.18 3396.11 5338.18 3354.11 4902.16 3354.11ZM5144.17 3215.11 5338.18 3215.11 5338.18 3174.1 5144.17 3174.1ZM5189.17 3155.1 5338.18 3155.1 5338.18 3114.1 5189.17 3114.1ZM5229.17 3095.1 5338.18 3095.1 5338.18 3054.1 5229.17 3054.1ZM5318.17 2975.1 5338.18 2975.1 5338.18 2933.1 5318.17 2933.1ZM5200.17 2674.09 5338.18 2674.09 5338.18 2633.09 5200.17 2633.09ZM4833.16 2614.09 5338.18 2614.09 5338.18 2572.08 4833.16 2572.08ZM4944.16 2554.08 5338.18 2554.08 5338.18 2512.08 4944.16 2512.08ZM4901.16 2494.08 5338.18 2494.08 5338.18 2452.08 4901.16 2452.08ZM5310.17 2433.08 5338.18 2433.08 5338.18 2392.08 5310.17 2392.08ZM4887.16 2373.08 5338.18 2373.08 5338.18 2332.08 4887.16 2332.08ZM5142.17 2313.08 5338.18 2313.08 5338.18 2272.07 5142.17 2272.07ZM5258.17 2193.07 5338.18 2193.07 5338.18 2151.07 5258.17 2151.07ZM5317.17 2133.07 5338.18 2133.07 5338.18 2091.07 5317.17 2091.07ZM5315.17 2012.07 5338.18 2012.07 5338.18 1971.06 5315.17 1971.06ZM5115.17 1952.06 5338.18 1952.06 5338.18 1911.06 5115.17 1911.06ZM5131.17 1471.05 5338.18 1471.05 5338.18 1430.05 5131.17 1430.05ZM4883.16 1411.05 5338.18 1411.05 5338.18 1369.04 4883.16 1369.04ZM5115.17 1351.04 5338.18 1351.04 5338.18 1309.04 5115.17 1309.04ZM5284.17 1170.04 5338.18 1170.04 5338.18 1129.04 5284.17 1129.04ZM4976.16 1110.04 5338.18 1110.04 5338.18 1069.04 4976.16 1069.04Z" fill="#4472C4"/></g><g><path d="M0 0 0.000360892 4632" stroke="#D9D9D9" stroke-width="3.4375" stroke-linejoin="round" stroke-miterlimit="10" fill="none" fill-rule="evenodd" transform="matrix(1 0 0 -1 5338.5 5691.5)"/></g><g><text font-family="Arial,Arial_MSFontService,sans-serif" font-weight="400" font-size="50" transform="matrix(1 0 0 1 4502.49 5768)">-20</text></g><g><text font-family="Arial,Arial_MSFontService,sans-serif" font-weight="400" font-size="50" transform="matrix(1 0 0 1 4702.33 5768)">-15</text></g><g><text font-family="Arial,Arial_MSFontService,sans-serif" font-weight="400" font-size="50" transform="matrix(1 0 0 1 4902.17 5768)">-10</text></g><g><text font-family="Arial,Arial_MSFontService,sans-serif" font-weight="400" font-size="50" transform="matrix(1 0 0 1 5116.04 5768)">-5</text></g><g><text font-family="Arial,Arial_MSFontService,sans-serif" font-weight="400" font-size="50" transform="matrix(1 0 0 1 5324.28 5768)">0</text></g><g><text font-family="Arial,Arial_MSFontService,sans-serif" font-weight="400" font-size="50" transform="matrix(1 0 0 1 5524.13 5768)">5</text></g><g><text font-family="Arial,Arial_MSFontService,sans-serif" font-weight="400" font-size="50" transform="matrix(1 0 0 1 5709.94 5768)">10</text></g><g><text font-family="Arial,Arial_MSFontService,sans-serif" font-weight="400" font-size="50" transform="matrix(1 0 0 1 5909.79 5768)">15</text></g><g><text font-family="Arial,Arial_MSFontService,sans-serif" font-weight="400" font-size="50" transform="matrix(1 0 0 1 6109.63 5768)">20</text></g><g><text font-family="Arial,Arial_MSFontService,sans-serif" font-weight="400" font-size="50" transform="matrix(1 0 0 1 4313.3 5677)">2m2026</text></g><g><text font-family="Arial,Arial_MSFontService,sans-serif" font-weight="400" font-size="50" transform="matrix(1 0 0 1 4383.35 5617)">2025</text></g><g><text font-family="Arial,Arial_MSFontService,sans-serif" font-weight="400" font-size="50" transform="matrix(1 0 0 1 4383.35 5557)">2024</text></g><g><text font-family="Arial,Arial_MSFontService,sans-serif" font-weight="400" font-size="50" transform="matrix(1 0 0 1 4383.35 5497)">2023</text></g><g><text font-family="Arial,Arial_MSFontService,sans-serif" font-weight="400" font-size="50" transform="matrix(1 0 0 1 4383.35 5437)">2022</text></g><g><text font-family="Arial,Arial_MSFontService,sans-serif" font-weight="400" font-size="50" transform="matrix(1 0 0 1 4383.35 5377)">2021</text></g><g><text font-family="Arial,Arial_MSFontService,sans-serif" font-weight="400" font-size="50" transform="matrix(1 0 0 1 4383.35 5316)">2020</text></g><g><text font-family="Arial,Arial_MSFontService,sans-serif" font-weight="400" font-size="50" transform="matrix(1 0 0 1 4383.35 5256)">2019</text></g><g><text font-family="Arial,Arial_MSFontService,sans-serif" font-weight="400" font-size="50" transform="matrix(1 0 0 1 4383.35 5196)">2018</text></g><g><text font-family="Arial,Arial_MSFontService,sans-serif" font-weight="400" font-size="50" transform="matrix(1 0 0 1 4383.35 5136)">2017</text></g><g><text font-family="Arial,Arial_MSFontService,sans-serif" font-weight="400" font-size="50" transform="matrix(1 0 0 1 4383.35 5076)">2016</text></g><g><text font-family="Arial,Arial_MSFontService,sans-serif" font-weight="400" font-size="50" transform="matrix(1 0 0 1 4383.35 5016)">2015</text></g><g><text font-family="Arial,Arial_MSFontService,sans-serif" font-weight="400" font-size="50" transform="matrix(1 0 0 1 4383.35 4956)">2014</text></g><g><text font-family="Arial,Arial_MSFontService,sans-serif" font-weight="400" font-size="50" transform="matrix(1 0 0 1 4383.35 4895)">2013</text></g><g><text font-family="Arial,Arial_MSFontService,sans-serif" font-weight="400" font-size="50" transform="matrix(1 0 0 1 4383.35 4835)">2012</text></g><g><text font-family="Arial,Arial_MSFontService,sans-serif" font-weight="400" font-size="50" transform="matrix(1 0 0 1 4383.35 4775)">2011</text></g><g><text font-family="Arial,Arial_MSFontService,sans-serif" font-weight="400" font-size="50" transform="matrix(1 0 0 1 4383.35 4715)">2010</text></g><g><text font-family="Arial,Arial_MSFontService,sans-serif" font-weight="400" font-size="50" transform="matrix(1 0 0 1 4383.35 4655)">2009</text></g><g><text font-family="Arial,Arial_MSFontService,sans-serif" font-weight="400" font-size="50" transform="matrix(1 0 0 1 4383.35 4595)">2008</text></g><g><text font-family="Arial,Arial_MSFontService,sans-serif" font-weight="400" font-size="50" transform="matrix(1 0 0 1 4383.35 4535)">2007</text></g><g><text font-family="Arial,Arial_MSFontService,sans-serif" font-weight="400" font-size="50" transform="matrix(1 0 0 1 4383.35 4474)">2006</text></g><g><text font-family="Arial,Arial_MSFontService,sans-serif" font-weight="400" font-size="50" transform="matrix(1 0 0 1 4383.35 4414)">2005</text></g><g><text font-family="Arial,Arial_MSFontService,sans-serif" font-weight="400" font-size="50" transform="matrix(1 0 0 1 4383.35 4354)">2004</text></g><g><text font-family="Arial,Arial_MSFontService,sans-serif" font-weight="400" font-size="50" transform="matrix(1 0 0 1 4383.35 4294)">2003</text></g><g><text font-family="Arial,Arial_MSFontService,sans-serif" font-weight="400" font-size="50" transform="matrix(1 0 0 1 4383.35 4234)">2002</text></g><g><text font-family="Arial,Arial_MSFontService,sans-serif" font-weight="400" font-size="50" transform="matrix(1 0 0 1 4383.35 4174)">2001</text></g><g><text font-family="Arial,Arial_MSFontService,sans-serif" font-weight="400" font-size="50" transform="matrix(1 0 0 1 4383.35 4113)">2000</text></g><g><text font-family="Arial,Arial_MSFontService,sans-serif" font-weight="400" font-size="50" transform="matrix(1 0 0 1 4383.35 4053)">1999</text></g><g><text font-family="Arial,Arial_MSFontService,sans-serif" font-weight="400" font-size="50" transform="matrix(1 0 0 1 4383.35 3993)">1998</text></g><g><text font-family="Arial,Arial_MSFontService,sans-serif" font-weight="400" font-size="50" transform="matrix(1 0 0 1 4383.35 3933)">1997</text></g><g><text font-family="Arial,Arial_MSFontService,sans-serif" font-weight="400" font-size="50" transform="matrix(1 0 0 1 4383.35 3873)">1996</text></g><g><text font-family="Arial,Arial_MSFontService,sans-serif" font-weight="400" font-size="50" transform="matrix(1 0 0 1 4383.35 3813)">1995</text></g><g><text font-family="Arial,Arial_MSFontService,sans-serif" font-weight="400" font-size="50" transform="matrix(1 0 0 1 4383.35 3753)">1994</text></g><g><text font-family="Arial,Arial_MSFontService,sans-serif" font-weight="400" font-size="50" transform="matrix(1 0 0 1 4383.35 3692)">1993</text></g><g><text font-family="Arial,Arial_MSFontService,sans-serif" font-weight="400" font-size="50" transform="matrix(1 0 0 1 4383.35 3632)">1992</text></g><g><text font-family="Arial,Arial_MSFontService,sans-serif" font-weight="400" font-size="50" transform="matrix(1 0 0 1 4383.35 3572)">1991</text></g><g><text font-family="Arial,Arial_MSFontService,sans-serif" font-weight="400" font-size="50" transform="matrix(1 0 0 1 4383.35 3512)">1990</text></g><g><text font-family="Arial,Arial_MSFontService,sans-serif" font-weight="400" font-size="50" transform="matrix(1 0 0 1 4383.35 3452)">1989</text></g><g><text font-family="Arial,Arial_MSFontService,sans-serif" font-weight="400" font-size="50" transform="matrix(1 0 0 1 4383.35 3392)">1988</text></g><g><text font-family="Arial,Arial_MSFontService,sans-serif" font-weight="400" font-size="50" transform="matrix(1 0 0 1 4383.35 3331)">1987</text></g><g><text font-family="Arial,Arial_MSFontService,sans-serif" font-weight="400" font-size="50" transform="matrix(1 0 0 1 4383.35 3271)">1986</text></g><g><text font-family="Arial,Arial_MSFontService,sans-serif" font-weight="400" font-size="50" transform="matrix(1 0 0 1 4383.35 3211)">1985</text></g><g><text font-family="Arial,Arial_MSFontService,sans-serif" font-weight="400" font-size="50" transform="matrix(1 0 0 1 4383.35 3151)">1984</text></g><g><text font-family="Arial,Arial_MSFontService,sans-serif" font-weight="400" font-size="50" transform="matrix(1 0 0 1 4383.35 3091)">1983</text></g><g><text font-family="Arial,Arial_MSFontService,sans-serif" font-weight="400" font-size="50" transform="matrix(1 0 0 1 4383.35 3031)">1982</text></g><g><text font-family="Arial,Arial_MSFontService,sans-serif" font-weight="400" font-size="50" transform="matrix(1 0 0 1 4383.35 2971)">1981</text></g><g><text font-family="Arial,Arial_MSFontService,sans-serif" font-weight="400" font-size="50" transform="matrix(1 0 0 1 4383.35 2910)">1980</text></g><g><text font-family="Arial,Arial_MSFontService,sans-serif" font-weight="400" font-size="50" transform="matrix(1 0 0 1 4383.35 2850)">1979</text></g><g><text font-family="Arial,Arial_MSFontService,sans-serif" font-weight="400" font-size="50" transform="matrix(1 0 0 1 4383.35 2790)">1978</text></g><g><text font-family="Arial,Arial_MSFontService,sans-serif" font-weight="400" font-size="50" transform="matrix(1 0 0 1 4383.35 2730)">1977</text></g><g><text font-family="Arial,Arial_MSFontService,sans-serif" font-weight="400" font-size="50" transform="matrix(1 0 0 1 4383.35 2670)">1976</text></g><g><text font-family="Arial,Arial_MSFontService,sans-serif" font-weight="400" font-size="50" transform="matrix(1 0 0 1 4383.35 2610)">1975</text></g><g><text font-family="Arial,Arial_MSFontService,sans-serif" font-weight="400" font-size="50" transform="matrix(1 0 0 1 4383.35 2549)">1974</text></g><g><text font-family="Arial,Arial_MSFontService,sans-serif" font-weight="400" font-size="50" transform="matrix(1 0 0 1 4383.35 2489)">1973</text></g><g><text font-family="Arial,Arial_MSFontService,sans-serif" font-weight="400" font-size="50" transform="matrix(1 0 0 1 4383.35 2429)">1972</text></g><g><text font-family="Arial,Arial_MSFontService,sans-serif" font-weight="400" font-size="50" transform="matrix(1 0 0 1 4383.35 2369)">1971</text></g><g><text font-family="Arial,Arial_MSFontService,sans-serif" font-weight="400" font-size="50" transform="matrix(1 0 0 1 4383.35 2309)">1970</text></g><g><text font-family="Arial,Arial_MSFontService,sans-serif" font-weight="400" font-size="50" transform="matrix(1 0 0 1 4383.35 2249)">1969</text></g><g><text font-family="Arial,Arial_MSFontService,sans-serif" font-weight="400" font-size="50" transform="matrix(1 0 0 1 4383.35 2189)">1968</text></g><g><text font-family="Arial,Arial_MSFontService,sans-serif" font-weight="400" font-size="50" transform="matrix(1 0 0 1 4383.35 2128)">1967</text></g><g><text font-family="Arial,Arial_MSFontService,sans-serif" font-weight="400" font-size="50" transform="matrix(1 0 0 1 4383.35 2068)">1966</text></g><g><text font-family="Arial,Arial_MSFontService,sans-serif" font-weight="400" font-size="50" transform="matrix(1 0 0 1 4383.35 2008)">1965</text></g><g><text font-family="Arial,Arial_MSFontService,sans-serif" font-weight="400" font-size="50" transform="matrix(1 0 0 1 4383.35 1948)">1964</text></g><g><text font-family="Arial,Arial_MSFontService,sans-serif" font-weight="400" font-size="50" transform="matrix(1 0 0 1 4383.35 1888)">1963</text></g><g><text font-family="Arial,Arial_MSFontService,sans-serif" font-weight="400" font-size="50" transform="matrix(1 0 0 1 4383.35 1828)">1962</text></g><g><text font-family="Arial,Arial_MSFontService,sans-serif" font-weight="400" font-size="50" transform="matrix(1 0 0 1 4383.35 1767)">1961</text></g><g><text font-family="Arial,Arial_MSFontService,sans-serif" font-weight="400" font-size="50" transform="matrix(1 0 0 1 4383.35 1707)">1960</text></g><g><text font-family="Arial,Arial_MSFontService,sans-serif" font-weight="400" font-size="50" transform="matrix(1 0 0 1 4383.35 1647)">1959</text></g><g><text font-family="Arial,Arial_MSFontService,sans-serif" font-weight="400" font-size="50" transform="matrix(1 0 0 1 4383.35 1587)">1958</text></g><g><text font-family="Arial,Arial_MSFontService,sans-serif" font-weight="400" font-size="50" transform="matrix(1 0 0 1 4383.35 1527)">1957</text></g><g><text font-family="Arial,Arial_MSFontService,sans-serif" font-weight="400" font-size="50" transform="matrix(1 0 0 1 4383.35 1467)">1956</text></g><g><text font-family="Arial,Arial_MSFontService,sans-serif" font-weight="400" font-size="50" transform="matrix(1 0 0 1 4383.35 1407)">1955</text></g><g><text font-family="Arial,Arial_MSFontService,sans-serif" font-weight="400" font-size="50" transform="matrix(1 0 0 1 4383.35 1346)">1954</text></g><g><text font-family="Arial,Arial_MSFontService,sans-serif" font-weight="400" font-size="50" transform="matrix(1 0 0 1 4383.35 1286)">1953</text></g><g><text font-family="Arial,Arial_MSFontService,sans-serif" font-weight="400" font-size="50" transform="matrix(1 0 0 1 4383.35 1226)">1952</text></g><g><text font-family="Arial,Arial_MSFontService,sans-serif" font-weight="400" font-size="50" transform="matrix(1 0 0 1 4383.35 1166)">1951</text></g><g><text font-family="Arial,Arial_MSFontService,sans-serif" font-weight="400" font-size="50" transform="matrix(1 0 0 1 4383.35 1106)">1950</text></g><g><text font-family="Arial,Arial_MSFontService,sans-serif" font-weight="700" font-size="55" transform="matrix(1 0 0 1 5035.7 5844)">Severity of phenomena</text></g><g><text font-family="Arial,Arial_MSFontService,sans-serif" font-weight="400" font-size="55" transform="matrix(1 0 0 1 4678.39 5908)">Cumulative degrees (</text></g><g><text font-family="Roboto,Roboto_MSFontService,sans-serif" font-weight="400" font-size="55" transform="matrix(1 0 0 1 5201.16 5908)">°</text></g><g><text font-family="Arial,Arial_MSFontService,sans-serif" font-weight="400" font-size="55" transform="matrix(1 0 0 1 5221.7 5908)">C) above / below normal in year</text></g><g><text font-family="Arial,Arial_MSFontService,sans-serif" font-weight="700" font-size="64" transform="matrix(1 0 0 1 4960.41 883)">SOUTHERN OSCILLATION</text></g><g><rect x="5113" y="953" width="25" height="25.0001" fill="#4472C4"/></g><g><text font-family="Arial,Arial_MSFontService,sans-serif" font-weight="400" font-size="50" transform="matrix(1 0 0 1 5149.28 982)">El Niño</text></g><g><rect x="5366" y="953" width="26" height="25.0001" fill="#C00000"/></g><g><text font-family="Arial,Arial_MSFontService,sans-serif" font-weight="400" font-size="50" transform="matrix(1 0 0 1 5402.55 982)">La Niña</text></g><g><g><text font-family="Arial,Arial_MSFontService,sans-serif" font-weight="400" font-size="46" transform="matrix(1 0 0 1 4473.52 6061)">Source: </text></g></g><g><g><text font-family="Calibri,Calibri_MSFontService,sans-serif" font-weight="400" font-size="50" transform="matrix(1 0 0 1 4644.2 6061)">Tellusant analysis; </text></g></g><g><g><text font-family="Arial,Arial_MSFontService,sans-serif" font-weight="400" font-size="46" transform="matrix(1 0 0 1 5027.21 6061)">National Weather Service</text></g></g></g></svg>