<svg width="1838" height="5448" xmlns="http://www.w3.org/2000/svg" xmlns:xlink="http://www.w3.org/1999/xlink" xml:space="preserve" overflow="hidden"><defs><clipPath id="clip0"><rect x="4190" y="798" width="1838" height="5448"/></clipPath></defs><g clip-path="url(#clip0)" transform="translate(-4190 -798)"><rect x="4190" y="798" width="1838" height="5448" fill="#FFFFFF"/><g><path d="M4407.5 1073.5 4407.5 5756.5M4798.66 1073.5 4798.66 5756.5M5580.68 1073.5 5580.68 5756.5M5972.5 1073.5 5972.5 5756.5" stroke="#D9D9D9" stroke-width="3.4375" stroke-linejoin="round" stroke-miterlimit="10" fill="none"/></g><g><path d="M5248.17 5747.19 5190.17 5747.19 5190.17 5705.19 5248.17 5705.19ZM5410.18 5625.18 5190.17 5625.18 5190.17 5583.18 5410.18 5583.18ZM5635.19 5565.18 5190.17 5565.18 5190.17 5523.18 5635.19 5523.18ZM5260.17 5382.18 5190.17 5382.18 5190.17 5340.18 5260.17 5340.18ZM5415.18 5321.17 5190.17 5321.17 5190.17 5279.17 5415.18 5279.17ZM5316.17 5260.17 5190.17 5260.17 5190.17 5218.17 5316.17 5218.17ZM5490.18 5139.17 5190.17 5139.17 5190.17 5097.17 5490.18 5097.17ZM5917.19 5078.17 5190.17 5078.17 5190.17 5036.17 5917.19 5036.17ZM5269.17 5017.16 5190.17 5017.16 5190.17 4975.16 5269.17 4975.16ZM5329.17 4774.16 5190.17 4774.16 5190.17 4732.16 5329.17 4732.16ZM5394.18 4713.15 5190.17 4713.15 5190.17 4671.15 5394.18 4671.15ZM5216.17 4591.15 5190.17 4591.15 5190.17 4549.15 5216.17 4549.15ZM5315.17 4531.15 5190.17 4531.15 5190.17 4489.15 5315.17 4489.15ZM5237.17 4470.15 5190.17 4470.15 5190.17 4428.15 5237.17 4428.15ZM5321.17 4409.14 5190.17 4409.14 5190.17 4367.14 5321.17 4367.14ZM5250.17 4348.14 5190.17 4348.14 5190.17 4306.14 5250.17 4306.14ZM5462.18 4287.14 5190.17 4287.14 5190.17 4245.14 5462.18 4245.14ZM5448.18 4044.13 5190.17 4044.13 5190.17 4002.13 5448.18 4002.13ZM5766.19 3983.13 5190.17 3983.13 5190.17 3941.13 5766.19 3941.13ZM5276.17 3862.13 5190.17 3862.13 5190.17 3820.13 5276.17 3820.13ZM5322.17 3801.12 5190.17 3801.12 5190.17 3759.12 5322.17 3759.12ZM5285.17 3740.12 5190.17 3740.12 5190.17 3698.12 5285.17 3698.12ZM5499.18 3679.12 5190.17 3679.12 5190.17 3637.12 5499.18 3637.12ZM5431.18 3618.12 5190.17 3618.12 5190.17 3576.12 5431.18 3576.12ZM5243.17 3436.11 5190.17 3436.11 5190.17 3394.11 5243.17 3394.11ZM5789.19 3375.11 5190.17 3375.11 5190.17 3333.11 5789.19 3333.11ZM5347.18 3314.11 5190.17 3314.11 5190.17 3272.11 5347.18 3272.11ZM5530.18 3132.1 5190.17 3132.1 5190.17 3090.1 5530.18 3090.1ZM5628.18 3071.1 5190.17 3071.1 5190.17 3029.1 5628.18 3029.1ZM5213.17 2949.1 5190.17 2949.1 5190.17 2907.1 5213.17 2907.1ZM5235.17 2889.09 5190.17 2889.09 5190.17 2847.09 5235.17 2847.09ZM5217.17 2828.09 5190.17 2828.09 5190.17 2786.09 5217.17 2786.09ZM5356.18 2767.09 5190.17 2767.09 5190.17 2725.09 5356.18 2725.09ZM5313.17 2706.09 5190.17 2706.09 5190.17 2664.09 5313.17 2664.09ZM5332.17 2524.08 5190.17 2524.08 5190.17 2482.08 5332.17 2482.08ZM5648.19 2463.08 5190.17 2463.08 5190.17 2421.08 5648.19 2421.08ZM5210.17 2341.08 5190.17 2341.08 5190.17 2299.08 5210.17 2299.08ZM5509.18 2280.07 5190.17 2280.07 5190.17 2238.07 5509.18 2238.07ZM5322.17 2220.07 5190.17 2220.07 5190.17 2178.07 5322.17 2178.07ZM5353.18 2098.07 5190.17 2098.07 5190.17 2056.07 5353.18 2056.07ZM5624.18 2037.07 5190.17 2037.07 5190.17 1995.07 5624.18 1995.07ZM5256.17 1976.06 5190.17 1976.06 5190.17 1934.06 5256.17 1934.06ZM5491.18 1915.06 5190.17 1915.06 5190.17 1874.06 5491.18 1874.06ZM5258.17 1672.05 5190.17 1672.05 5190.17 1630.05 5258.17 1630.05ZM5531.18 1611.05 5190.17 1611.05 5190.17 1569.05 5531.18 1569.05ZM5632.18 1551.05 5190.17 1551.05 5190.17 1509.05 5632.18 1509.05ZM5219.17 1368.04 5190.17 1368.04 5190.17 1326.04 5219.17 1326.04ZM5509.18 1307.04 5190.17 1307.04 5190.17 1265.04 5509.18 1265.04ZM5210.17 1246.04 5190.17 1246.04 5190.17 1205.04 5210.17 1205.04ZM5431.18 1186.04 5190.17 1186.04 5190.17 1144.04 5431.18 1144.04Z" fill="#C00000"/></g><g><path d="M5127.17 5686.19 5190.17 5686.19 5190.17 5644.19 5127.17 5644.19ZM5169.17 5565.18 5190.17 5565.18 5190.17 5523.18 5169.17 5523.18ZM4791.16 5504.18 5190.17 5504.18 5190.17 5462.18 4791.16 5462.18ZM4950.16 5443.18 5190.17 5443.18 5190.17 5401.18 4950.16 5401.18ZM5003.16 5382.18 5190.17 5382.18 5190.17 5340.18 5003.16 5340.18ZM5110.17 5260.17 5190.17 5260.17 5190.17 5218.17 5110.17 5218.17ZM5103.17 5200.17 5190.17 5200.17 5190.17 5158.17 5103.17 5158.17ZM5099.17 5139.17 5190.17 5139.17 5190.17 5097.17 5099.17 5097.17ZM5139.17 4896.16 5190.17 4896.16 5190.17 4854.16 5139.17 4854.16ZM4875.16 4835.16 5190.17 4835.16 5190.17 4793.16 4875.16 4793.16ZM4820.16 4774.16 5190.17 4774.16 5190.17 4732.16 4820.16 4732.16ZM5102.17 4713.15 5190.17 4713.15 5190.17 4671.15 5102.17 4671.15ZM4869.16 4652.15 5190.17 4652.15 5190.17 4610.15 4869.16 4610.15ZM4921.16 4591.15 5190.17 4591.15 5190.17 4549.15 4921.16 4549.15ZM5104.17 4531.15 5190.17 4531.15 5190.17 4489.15 5104.17 4489.15ZM5135.17 4470.15 5190.17 4470.15 5190.17 4428.15 5135.17 4428.15ZM5143.17 4227.14 5190.17 4227.14 5190.17 4185.14 5143.17 4185.14ZM4797.16 4166.14 5190.17 4166.14 5190.17 4124.14 4797.16 4124.14ZM4615.15 4105.13 5190.17 4105.13 5190.17 4063.13 4615.15 4063.13ZM4892.16 4044.13 5190.17 4044.13 5190.17 4002.13 4892.16 4002.13ZM5170.17 3983.13 5190.17 3983.13 5190.17 3941.13 5170.17 3941.13ZM5102.17 3922.13 5190.17 3922.13 5190.17 3881.13 5102.17 3881.13ZM5022.17 3862.13 5190.17 3862.13 5190.17 3820.13 5022.17 3820.13ZM4970.16 3497.11 5190.17 3497.11 5190.17 3455.11 4970.16 3455.11ZM4763.16 3436.11 5190.17 3436.11 5190.17 3394.11 4763.16 3394.11ZM5000.16 3253.11 5190.17 3253.11 5190.17 3212.11 5000.16 3212.11ZM5044.17 3193.1 5190.17 3193.1 5190.17 3151.1 5044.17 3151.1ZM5083.17 3132.1 5190.17 3132.1 5190.17 3090.1 5083.17 3090.1ZM5170.17 3010.1 5190.17 3010.1 5190.17 2968.1 5170.17 2968.1ZM5054.17 2706.09 5190.17 2706.09 5190.17 2664.09 5054.17 2664.09ZM4696.15 2645.09 5190.17 2645.09 5190.17 2603.09 4696.15 2603.09ZM4804.16 2584.08 5190.17 2584.08 5190.17 2543.08 4804.16 2543.08ZM4762.16 2524.08 5190.17 2524.08 5190.17 2482.08 4762.16 2482.08ZM5162.17 2463.08 5190.17 2463.08 5190.17 2421.08 5162.17 2421.08ZM4748.16 2402.08 5190.17 2402.08 5190.17 2360.08 4748.16 2360.08ZM4998.16 2341.08 5190.17 2341.08 5190.17 2299.08 4998.16 2299.08ZM5112.17 2220.07 5190.17 2220.07 5190.17 2178.07 5112.17 2178.07ZM5169.17 2159.07 5190.17 2159.07 5190.17 2117.07 5169.17 2117.07ZM5167.17 2037.07 5190.17 2037.07 5190.17 1995.07 5167.17 1995.07ZM4971.16 1976.06 5190.17 1976.06 5190.17 1934.06 4971.16 1934.06ZM4987.16 1490.05 5190.17 1490.05 5190.17 1448.05 4987.16 1448.05ZM4745.16 1429.05 5190.17 1429.05 5190.17 1387.05 4745.16 1387.05ZM4971.16 1368.04 5190.17 1368.04 5190.17 1326.04 4971.16 1326.04ZM5137.17 1186.04 5190.17 1186.04 5190.17 1144.04 5137.17 1144.04ZM4835.16 1125.04 5190.17 1125.04 5190.17 1083.04 4835.16 1083.04Z" fill="#203864"/></g><g><path d="M0 0 0.000360892 4683" stroke="#D9D9D9" stroke-width="3.4375" stroke-linejoin="round" stroke-miterlimit="10" fill="none" fill-rule="evenodd" transform="matrix(1 0 0 -1 5189.5 5756.5)"/></g><g><text font-family="Arial,Arial_MSFontService,sans-serif" font-weight="400" font-size="50" transform="matrix(1 0 0 1 4371.06 5833)">-20</text></g><g><text font-family="Arial,Arial_MSFontService,sans-serif" font-weight="400" font-size="50" transform="matrix(1 0 0 1 4762.27 5833)">-10</text></g><g><text font-family="Arial,Arial_MSFontService,sans-serif" font-weight="400" font-size="50" transform="matrix(1 0 0 1 5175.89 5833)">0</text></g><g><text font-family="Arial,Arial_MSFontService,sans-serif" font-weight="400" font-size="50" transform="matrix(1 0 0 1 5553.07 5833)">10</text></g><g><text font-family="Arial,Arial_MSFontService,sans-serif" font-weight="400" font-size="50" transform="matrix(1 0 0 1 5944.27 5833)">20</text></g><g><text font-family="Arial,Arial_MSFontService,sans-serif" font-weight="400" font-size="50" transform="matrix(1 0 0 1 4251.93 5743)">2026</text></g><g><text font-family="Arial,Arial_MSFontService,sans-serif" font-weight="400" font-size="50" transform="matrix(1 0 0 1 4251.93 5682)">2025</text></g><g><text font-family="Arial,Arial_MSFontService,sans-serif" font-weight="400" font-size="50" transform="matrix(1 0 0 1 4251.93 5621)">2024</text></g><g><text font-family="Arial,Arial_MSFontService,sans-serif" font-weight="400" font-size="50" transform="matrix(1 0 0 1 4251.93 5560)">2023</text></g><g><text font-family="Arial,Arial_MSFontService,sans-serif" font-weight="400" font-size="50" transform="matrix(1 0 0 1 4251.93 5499)">2022</text></g><g><text font-family="Arial,Arial_MSFontService,sans-serif" font-weight="400" font-size="50" transform="matrix(1 0 0 1 4251.93 5438)">2021</text></g><g><text font-family="Arial,Arial_MSFontService,sans-serif" font-weight="400" font-size="50" transform="matrix(1 0 0 1 4251.93 5378)">2020</text></g><g><text font-family="Arial,Arial_MSFontService,sans-serif" font-weight="400" font-size="50" transform="matrix(1 0 0 1 4251.93 5317)">2019</text></g><g><text font-family="Arial,Arial_MSFontService,sans-serif" font-weight="400" font-size="50" transform="matrix(1 0 0 1 4251.93 5256)">2018</text></g><g><text font-family="Arial,Arial_MSFontService,sans-serif" font-weight="400" font-size="50" transform="matrix(1 0 0 1 4251.93 5195)">2017</text></g><g><text font-family="Arial,Arial_MSFontService,sans-serif" font-weight="400" font-size="50" transform="matrix(1 0 0 1 4251.93 5134)">2016</text></g><g><text font-family="Arial,Arial_MSFontService,sans-serif" font-weight="400" font-size="50" transform="matrix(1 0 0 1 4251.93 5074)">2015</text></g><g><text font-family="Arial,Arial_MSFontService,sans-serif" font-weight="400" font-size="50" transform="matrix(1 0 0 1 4251.93 5013)">2014</text></g><g><text font-family="Arial,Arial_MSFontService,sans-serif" font-weight="400" font-size="50" transform="matrix(1 0 0 1 4251.93 4952)">2013</text></g><g><text font-family="Arial,Arial_MSFontService,sans-serif" font-weight="400" font-size="50" transform="matrix(1 0 0 1 4251.93 4891)">2012</text></g><g><text font-family="Arial,Arial_MSFontService,sans-serif" font-weight="400" font-size="50" transform="matrix(1 0 0 1 4251.93 4830)">2011</text></g><g><text font-family="Arial,Arial_MSFontService,sans-serif" font-weight="400" font-size="50" transform="matrix(1 0 0 1 4251.93 4769)">2010</text></g><g><text font-family="Arial,Arial_MSFontService,sans-serif" font-weight="400" font-size="50" transform="matrix(1 0 0 1 4251.93 4709)">2009</text></g><g><text font-family="Arial,Arial_MSFontService,sans-serif" font-weight="400" font-size="50" transform="matrix(1 0 0 1 4251.93 4648)">2008</text></g><g><text font-family="Arial,Arial_MSFontService,sans-serif" font-weight="400" font-size="50" transform="matrix(1 0 0 1 4251.93 4587)">2007</text></g><g><text font-family="Arial,Arial_MSFontService,sans-serif" font-weight="400" font-size="50" transform="matrix(1 0 0 1 4251.93 4526)">2006</text></g><g><text font-family="Arial,Arial_MSFontService,sans-serif" font-weight="400" font-size="50" transform="matrix(1 0 0 1 4251.93 4465)">2005</text></g><g><text font-family="Arial,Arial_MSFontService,sans-serif" font-weight="400" font-size="50" transform="matrix(1 0 0 1 4251.93 4405)">2004</text></g><g><text font-family="Arial,Arial_MSFontService,sans-serif" font-weight="400" font-size="50" transform="matrix(1 0 0 1 4251.93 4344)">2003</text></g><g><text font-family="Arial,Arial_MSFontService,sans-serif" font-weight="400" font-size="50" transform="matrix(1 0 0 1 4251.93 4283)">2002</text></g><g><text font-family="Arial,Arial_MSFontService,sans-serif" font-weight="400" font-size="50" transform="matrix(1 0 0 1 4251.93 4222)">2001</text></g><g><text font-family="Arial,Arial_MSFontService,sans-serif" font-weight="400" font-size="50" transform="matrix(1 0 0 1 4251.93 4161)">2000</text></g><g><text font-family="Arial,Arial_MSFontService,sans-serif" font-weight="400" font-size="50" transform="matrix(1 0 0 1 4251.93 4100)">1999</text></g><g><text font-family="Arial,Arial_MSFontService,sans-serif" font-weight="400" font-size="50" transform="matrix(1 0 0 1 4251.93 4040)">1998</text></g><g><text font-family="Arial,Arial_MSFontService,sans-serif" font-weight="400" font-size="50" transform="matrix(1 0 0 1 4251.93 3979)">1997</text></g><g><text font-family="Arial,Arial_MSFontService,sans-serif" font-weight="400" font-size="50" transform="matrix(1 0 0 1 4251.93 3918)">1996</text></g><g><text font-family="Arial,Arial_MSFontService,sans-serif" font-weight="400" font-size="50" transform="matrix(1 0 0 1 4251.93 3857)">1995</text></g><g><text font-family="Arial,Arial_MSFontService,sans-serif" font-weight="400" font-size="50" transform="matrix(1 0 0 1 4251.93 3796)">1994</text></g><g><text font-family="Arial,Arial_MSFontService,sans-serif" font-weight="400" font-size="50" transform="matrix(1 0 0 1 4251.93 3736)">1993</text></g><g><text font-family="Arial,Arial_MSFontService,sans-serif" font-weight="400" font-size="50" transform="matrix(1 0 0 1 4251.93 3675)">1992</text></g><g><text font-family="Arial,Arial_MSFontService,sans-serif" font-weight="400" font-size="50" transform="matrix(1 0 0 1 4251.93 3614)">1991</text></g><g><text font-family="Arial,Arial_MSFontService,sans-serif" font-weight="400" font-size="50" transform="matrix(1 0 0 1 4251.93 3553)">1990</text></g><g><text font-family="Arial,Arial_MSFontService,sans-serif" font-weight="400" font-size="50" transform="matrix(1 0 0 1 4251.93 3492)">1989</text></g><g><text font-family="Arial,Arial_MSFontService,sans-serif" font-weight="400" font-size="50" transform="matrix(1 0 0 1 4251.93 3431)">1988</text></g><g><text font-family="Arial,Arial_MSFontService,sans-serif" font-weight="400" font-size="50" transform="matrix(1 0 0 1 4251.93 3371)">1987</text></g><g><text font-family="Arial,Arial_MSFontService,sans-serif" font-weight="400" font-size="50" transform="matrix(1 0 0 1 4251.93 3310)">1986</text></g><g><text font-family="Arial,Arial_MSFontService,sans-serif" font-weight="400" font-size="50" transform="matrix(1 0 0 1 4251.93 3249)">1985</text></g><g><text font-family="Arial,Arial_MSFontService,sans-serif" font-weight="400" font-size="50" transform="matrix(1 0 0 1 4251.93 3188)">1984</text></g><g><text font-family="Arial,Arial_MSFontService,sans-serif" font-weight="400" font-size="50" transform="matrix(1 0 0 1 4251.93 3127)">1983</text></g><g><text font-family="Arial,Arial_MSFontService,sans-serif" font-weight="400" font-size="50" transform="matrix(1 0 0 1 4251.93 3066)">1982</text></g><g><text font-family="Arial,Arial_MSFontService,sans-serif" font-weight="400" font-size="50" transform="matrix(1 0 0 1 4251.93 3006)">1981</text></g><g><text font-family="Arial,Arial_MSFontService,sans-serif" font-weight="400" font-size="50" transform="matrix(1 0 0 1 4251.93 2945)">1980</text></g><g><text font-family="Arial,Arial_MSFontService,sans-serif" font-weight="400" font-size="50" transform="matrix(1 0 0 1 4251.93 2884)">1979</text></g><g><text font-family="Arial,Arial_MSFontService,sans-serif" font-weight="400" font-size="50" transform="matrix(1 0 0 1 4251.93 2823)">1978</text></g><g><text font-family="Arial,Arial_MSFontService,sans-serif" font-weight="400" font-size="50" transform="matrix(1 0 0 1 4251.93 2762)">1977</text></g><g><text font-family="Arial,Arial_MSFontService,sans-serif" font-weight="400" font-size="50" transform="matrix(1 0 0 1 4251.93 2702)">1976</text></g><g><text font-family="Arial,Arial_MSFontService,sans-serif" font-weight="400" font-size="50" transform="matrix(1 0 0 1 4251.93 2641)">1975</text></g><g><text font-family="Arial,Arial_MSFontService,sans-serif" font-weight="400" font-size="50" transform="matrix(1 0 0 1 4251.93 2580)">1974</text></g><g><text font-family="Arial,Arial_MSFontService,sans-serif" font-weight="400" font-size="50" transform="matrix(1 0 0 1 4251.93 2519)">1973</text></g><g><text font-family="Arial,Arial_MSFontService,sans-serif" font-weight="400" font-size="50" transform="matrix(1 0 0 1 4251.93 2458)">1972</text></g><g><text font-family="Arial,Arial_MSFontService,sans-serif" font-weight="400" font-size="50" transform="matrix(1 0 0 1 4251.93 2397)">1971</text></g><g><text font-family="Arial,Arial_MSFontService,sans-serif" font-weight="400" font-size="50" transform="matrix(1 0 0 1 4251.93 2337)">1970</text></g><g><text font-family="Arial,Arial_MSFontService,sans-serif" font-weight="400" font-size="50" transform="matrix(1 0 0 1 4251.93 2276)">1969</text></g><g><text font-family="Arial,Arial_MSFontService,sans-serif" font-weight="400" font-size="50" transform="matrix(1 0 0 1 4251.93 2215)">1968</text></g><g><text font-family="Arial,Arial_MSFontService,sans-serif" font-weight="400" font-size="50" transform="matrix(1 0 0 1 4251.93 2154)">1967</text></g><g><text font-family="Arial,Arial_MSFontService,sans-serif" font-weight="400" font-size="50" transform="matrix(1 0 0 1 4251.93 2093)">1966</text></g><g><text font-family="Arial,Arial_MSFontService,sans-serif" font-weight="400" font-size="50" transform="matrix(1 0 0 1 4251.93 2033)">1965</text></g><g><text font-family="Arial,Arial_MSFontService,sans-serif" font-weight="400" font-size="50" transform="matrix(1 0 0 1 4251.93 1972)">1964</text></g><g><text font-family="Arial,Arial_MSFontService,sans-serif" font-weight="400" font-size="50" transform="matrix(1 0 0 1 4251.93 1911)">1963</text></g><g><text font-family="Arial,Arial_MSFontService,sans-serif" font-weight="400" font-size="50" transform="matrix(1 0 0 1 4251.93 1850)">1962</text></g><g><text font-family="Arial,Arial_MSFontService,sans-serif" font-weight="400" font-size="50" transform="matrix(1 0 0 1 4251.93 1789)">1961</text></g><g><text font-family="Arial,Arial_MSFontService,sans-serif" font-weight="400" font-size="50" transform="matrix(1 0 0 1 4251.93 1728)">1960</text></g><g><text font-family="Arial,Arial_MSFontService,sans-serif" font-weight="400" font-size="50" transform="matrix(1 0 0 1 4251.93 1668)">1959</text></g><g><text font-family="Arial,Arial_MSFontService,sans-serif" font-weight="400" font-size="50" transform="matrix(1 0 0 1 4251.93 1607)">1958</text></g><g><text font-family="Arial,Arial_MSFontService,sans-serif" font-weight="400" font-size="50" transform="matrix(1 0 0 1 4251.93 1546)">1957</text></g><g><text font-family="Arial,Arial_MSFontService,sans-serif" font-weight="400" font-size="50" transform="matrix(1 0 0 1 4251.93 1485)">1956</text></g><g><text font-family="Arial,Arial_MSFontService,sans-serif" font-weight="400" font-size="50" transform="matrix(1 0 0 1 4251.93 1424)">1955</text></g><g><text font-family="Arial,Arial_MSFontService,sans-serif" font-weight="400" font-size="50" transform="matrix(1 0 0 1 4251.93 1364)">1954</text></g><g><text font-family="Arial,Arial_MSFontService,sans-serif" font-weight="400" font-size="50" transform="matrix(1 0 0 1 4251.93 1303)">1953</text></g><g><text font-family="Arial,Arial_MSFontService,sans-serif" font-weight="400" font-size="50" transform="matrix(1 0 0 1 4251.93 1242)">1952</text></g><g><text font-family="Arial,Arial_MSFontService,sans-serif" font-weight="400" font-size="50" transform="matrix(1 0 0 1 4251.93 1181)">1951</text></g><g><text font-family="Arial,Arial_MSFontService,sans-serif" font-weight="400" font-size="50" transform="matrix(1 0 0 1 4251.93 1120)">1950</text></g><g><text font-family="Arial,Arial_MSFontService,sans-serif" font-weight="700" font-size="55" transform="matrix(1 0 0 1 4887.32 5909)">Severity of phenomena</text></g><g><text font-family="Arial,Arial_MSFontService,sans-serif" font-weight="400" font-size="55" transform="matrix(1 0 0 1 4530 5973)">Cumulative degrees (</text></g><g><text font-family="Roboto,Roboto_MSFontService,sans-serif" font-weight="400" font-size="55" transform="matrix(1 0 0 1 5052.77 5973)">°</text></g><g><text font-family="Arial,Arial_MSFontService,sans-serif" font-weight="400" font-size="55" transform="matrix(1 0 0 1 5073.31 5973)">C) above / below normal in year</text></g><g><text font-family="Arial,Arial_MSFontService,sans-serif" font-weight="700" font-size="64" transform="matrix(1 0 0 1 4827.71 893)">SOUTHERN OSCILLATION</text></g><g><rect x="4973" y="964" width="25" height="25.0001" fill="#203864"/></g><g><text font-family="Arial,Arial_MSFontService,sans-serif" font-weight="400" font-size="50" transform="matrix(1 0 0 1 5009 993)">El Niño</text></g><g><rect x="5221" y="964" width="25" height="25.0001" fill="#C00000"/></g><g><text font-family="Arial,Arial_MSFontService,sans-serif" font-weight="400" font-size="50" transform="matrix(1 0 0 1 5257.45 993)">La Niña</text></g><g><g><text font-family="Arial,Arial_MSFontService,sans-serif" font-weight="400" font-size="46" transform="matrix(1 0 0 1 4353.93 6130)">Source: S.Canback (</text></g></g><g><g><text font-family="Calibri,Calibri_MSFontService,sans-serif" font-weight="400" font-size="50" transform="matrix(1 0 0 1 4776.79 6130)">Tellusant) analysis; </text></g></g><g><g><text font-family="Arial,Arial_MSFontService,sans-serif" font-weight="400" font-size="46" transform="matrix(1 0 0 1 5175.08 6130)">National Weather Service</text></g></g><path d="M5582.5 1162.67C5582.5 1128.89 5609.89 1101.5 5643.67 1101.5L5914.33 1101.5C5948.11 1101.5 5975.5 1128.89 5975.5 1162.67L5975.5 1407.33C5975.5 1441.11 5948.11 1468.5 5914.33 1468.5L5643.67 1468.5C5609.89 1468.5 5582.5 1441.11 5582.5 1407.33Z" stroke="#7F7F7F" stroke-width="3.4375" stroke-miterlimit="8" fill="#FFFFCC" fill-rule="evenodd"/><text font-family="Arial,Arial_MSFontService,sans-serif" font-weight="400" font-size="50" transform="matrix(1 0 0 1 5658.34 1183)">El Niño </text><text font-family="Cambria Math,Cambria Math_MSFontService,sans-serif" font-weight="400" font-size="50" transform="matrix(1 0 0 1 5834.89 1183)">∼</text><text font-family="Arial,Arial_MSFontService,sans-serif" font-weight="400" font-size="50" transform="matrix(1 0 0 1 5870.8 1183)">4 </text><text font-family="Arial,Arial_MSFontService,sans-serif" font-weight="400" font-size="50" transform="matrix(1 0 0 1 5652.45 1241)">years apart</text><text font-family="Arial,Arial_MSFontService,sans-serif" font-weight="400" font-size="50" transform="matrix(1 0 0 1 5652.7 1358)">La Niña </text><text font-family="Cambria Math,Cambria Math_MSFontService,sans-serif" font-weight="400" font-size="50" transform="matrix(1 0 0 1 5840.53 1358)">∼</text><text font-family="Arial,Arial_MSFontService,sans-serif" font-weight="400" font-size="50" transform="matrix(1 0 0 1 5876.44 1358)">5 </text><g><text font-family="Arial,Arial_MSFontService,sans-serif" font-weight="400" font-size="50" transform="matrix(1 0 0 1 5652.45 1416)">years apart</text></g></g></svg>