<svg width="1887" height="2457" xmlns="http://www.w3.org/2000/svg" xmlns:xlink="http://www.w3.org/1999/xlink" xml:space="preserve" overflow="hidden"><defs><clipPath id="clip0"><rect x="6557" y="788" width="1887" height="2457"/></clipPath></defs><g clip-path="url(#clip0)" transform="translate(-6557 -788)"><rect x="6557" y="788" width="1887" height="2457" fill="#FFFFFF"/><g><path d="M6780.5 1117.5 6780.5 2673.5M7009.73 1117.5 7009.73 2673.5M7238.74 1117.5 7238.74 2673.5M7697.75 1117.5 7697.75 2673.5M7927.76 1117.5 7927.76 2673.5M8156.77 1117.5 8156.77 2673.5M8386.5 1117.5 8386.5 2673.5" stroke="#D9D9D9" stroke-width="3.4375" stroke-linejoin="round" stroke-miterlimit="10" fill="none"/></g><g><path d="M7726.25 2549.08 7468.25 2549.08 7468.25 2510.08 7726.25 2510.08ZM7991.26 2492.08 7468.25 2492.08 7468.25 2452.08 7991.26 2452.08ZM7551.25 2319.08 7468.25 2319.08 7468.25 2279.07 7551.25 2279.07ZM7733.25 2261.07 7468.25 2261.07 7468.25 2222.07 7733.25 2222.07ZM7617.25 2204.07 7468.25 2204.07 7468.25 2164.07 7617.25 2164.07ZM7820.26 2088.07 7468.25 2088.07 7468.25 2049.07 7820.26 2049.07ZM8321.27 2031.07 7468.25 2031.07 7468.25 1991.07 8321.27 1991.07ZM7561.25 1973.06 7468.25 1973.06 7468.25 1933.06 7561.25 1933.06ZM7632.25 1743.06 7468.25 1743.06 7468.25 1703.06 7632.25 1703.06ZM7708.25 1685.06 7468.25 1685.06 7468.25 1645.05 7708.25 1645.05ZM7499.25 1570.05 7468.25 1570.05 7468.25 1530.05 7499.25 1530.05ZM7615.25 1512.05 7468.25 1512.05 7468.25 1473.05 7615.25 1473.05ZM7524.25 1455.05 7468.25 1455.05 7468.25 1415.05 7524.25 1415.05ZM7623.25 1397.05 7468.25 1397.05 7468.25 1357.04 7623.25 1357.04ZM7540.25 1339.04 7468.25 1339.04 7468.25 1300.04 7540.25 1300.04ZM7788.26 1282.04 7468.25 1282.04 7468.25 1242.04 7788.26 1242.04Z" fill="#C00000"/></g><g><path d="M7395.24 2607.09 7468.25 2607.09 7468.25 2567.08 7395.24 2567.08ZM7444.24 2492.08 7468.25 2492.08 7468.25 2452.08 7444.24 2452.08ZM7000.23 2434.08 7468.25 2434.08 7468.25 2394.08 7000.23 2394.08ZM7187.24 2377.08 7468.25 2377.08 7468.25 2337.08 7187.24 2337.08ZM7249.24 2319.08 7468.25 2319.08 7468.25 2279.07 7249.24 2279.07ZM7374.24 2204.07 7468.25 2204.07 7468.25 2164.07 7374.24 2164.07ZM7366.24 2146.07 7468.25 2146.07 7468.25 2106.07 7366.24 2106.07ZM7362.24 2088.07 7468.25 2088.07 7468.25 2049.07 7362.24 2049.07ZM7409.24 1858.06 7468.25 1858.06 7468.25 1818.06 7409.24 1818.06ZM7099.23 1800.06 7468.25 1800.06 7468.25 1761.06 7099.23 1761.06ZM7035.23 1743.06 7468.25 1743.06 7468.25 1703.06 7035.23 1703.06ZM7365.24 1685.06 7468.25 1685.06 7468.25 1645.05 7365.24 1645.05ZM7093.23 1627.05 7468.25 1627.05 7468.25 1588.05 7093.23 1588.05ZM7153.23 1570.05 7468.25 1570.05 7468.25 1530.05 7153.23 1530.05ZM7368.24 1512.05 7468.25 1512.05 7468.25 1473.05 7368.24 1473.05ZM7404.24 1455.05 7468.25 1455.05 7468.25 1415.05 7404.24 1415.05ZM7413.24 1224.04 7468.25 1224.04 7468.25 1184.04 7413.24 1184.04ZM7008.23 1167.04 7468.25 1167.04 7468.25 1127.04 7008.23 1127.04Z" fill="#4472C4"/></g><g><path d="M0 0 0.000360892 1556" stroke="#D9D9D9" stroke-width="3.4375" stroke-linejoin="round" stroke-miterlimit="10" fill="none" fill-rule="evenodd" transform="matrix(1 0 0 -1 7468.5 2673.5)"/></g><g><text font-family="Arial,Arial_MSFontService,sans-serif" font-weight="400" font-size="50" transform="matrix(1 0 0 1 6743.75 2750)">-15</text></g><g><text font-family="Arial,Arial_MSFontService,sans-serif" font-weight="400" font-size="50" transform="matrix(1 0 0 1 6973.24 2750)">-10</text></g><g><text font-family="Arial,Arial_MSFontService,sans-serif" font-weight="400" font-size="50" transform="matrix(1 0 0 1 7216.76 2750)">-5</text></g><g><text font-family="Arial,Arial_MSFontService,sans-serif" font-weight="400" font-size="50" transform="matrix(1 0 0 1 7454.65 2750)">0</text></g><g><text font-family="Arial,Arial_MSFontService,sans-serif" font-weight="400" font-size="50" transform="matrix(1 0 0 1 7684.14 2750)">5</text></g><g><text font-family="Arial,Arial_MSFontService,sans-serif" font-weight="400" font-size="50" transform="matrix(1 0 0 1 7899.6 2750)">10</text></g><g><text font-family="Arial,Arial_MSFontService,sans-serif" font-weight="400" font-size="50" transform="matrix(1 0 0 1 8129.09 2750)">15</text></g><g><text font-family="Arial,Arial_MSFontService,sans-serif" font-weight="400" font-size="50" transform="matrix(1 0 0 1 8358.58 2750)">20</text></g><g><text font-family="Arial,Arial_MSFontService,sans-serif" font-weight="400" font-size="46" transform="matrix(1 0 0 1 6575.16 2660)">2m2026</text></g><g><text font-family="Arial,Arial_MSFontService,sans-serif" font-weight="400" font-size="46" transform="matrix(1 0 0 1 6638.82 2602)">2025</text></g><g><text font-family="Arial,Arial_MSFontService,sans-serif" font-weight="400" font-size="46" transform="matrix(1 0 0 1 6638.82 2545)">2024</text></g><g><text font-family="Arial,Arial_MSFontService,sans-serif" font-weight="400" font-size="46" transform="matrix(1 0 0 1 6638.82 2487)">2023</text></g><g><text font-family="Arial,Arial_MSFontService,sans-serif" font-weight="400" font-size="46" transform="matrix(1 0 0 1 6638.82 2429)">2022</text></g><g><text font-family="Arial,Arial_MSFontService,sans-serif" font-weight="400" font-size="46" transform="matrix(1 0 0 1 6638.82 2372)">2021</text></g><g><text font-family="Arial,Arial_MSFontService,sans-serif" font-weight="400" font-size="46" transform="matrix(1 0 0 1 6638.82 2314)">2020</text></g><g><text font-family="Arial,Arial_MSFontService,sans-serif" font-weight="400" font-size="46" transform="matrix(1 0 0 1 6638.82 2257)">2019</text></g><g><text font-family="Arial,Arial_MSFontService,sans-serif" font-weight="400" font-size="46" transform="matrix(1 0 0 1 6638.82 2199)">2018</text></g><g><text font-family="Arial,Arial_MSFontService,sans-serif" font-weight="400" font-size="46" transform="matrix(1 0 0 1 6638.82 2141)">2017</text></g><g><text font-family="Arial,Arial_MSFontService,sans-serif" font-weight="400" font-size="46" transform="matrix(1 0 0 1 6638.82 2084)">2016</text></g><g><text font-family="Arial,Arial_MSFontService,sans-serif" font-weight="400" font-size="46" transform="matrix(1 0 0 1 6638.82 2026)">2015</text></g><g><text font-family="Arial,Arial_MSFontService,sans-serif" font-weight="400" font-size="46" transform="matrix(1 0 0 1 6638.82 1968)">2014</text></g><g><text font-family="Arial,Arial_MSFontService,sans-serif" font-weight="400" font-size="46" transform="matrix(1 0 0 1 6638.82 1911)">2013</text></g><g><text font-family="Arial,Arial_MSFontService,sans-serif" font-weight="400" font-size="46" transform="matrix(1 0 0 1 6638.82 1853)">2012</text></g><g><text font-family="Arial,Arial_MSFontService,sans-serif" font-weight="400" font-size="46" transform="matrix(1 0 0 1 6638.82 1796)">2011</text></g><g><text font-family="Arial,Arial_MSFontService,sans-serif" font-weight="400" font-size="46" transform="matrix(1 0 0 1 6638.82 1738)">2010</text></g><g><text font-family="Arial,Arial_MSFontService,sans-serif" font-weight="400" font-size="46" transform="matrix(1 0 0 1 6638.82 1680)">2009</text></g><g><text font-family="Arial,Arial_MSFontService,sans-serif" font-weight="400" font-size="46" transform="matrix(1 0 0 1 6638.82 1623)">2008</text></g><g><text font-family="Arial,Arial_MSFontService,sans-serif" font-weight="400" font-size="46" transform="matrix(1 0 0 1 6638.82 1565)">2007</text></g><g><text font-family="Arial,Arial_MSFontService,sans-serif" font-weight="400" font-size="46" transform="matrix(1 0 0 1 6638.82 1507)">2006</text></g><g><text font-family="Arial,Arial_MSFontService,sans-serif" font-weight="400" font-size="46" transform="matrix(1 0 0 1 6638.82 1450)">2005</text></g><g><text font-family="Arial,Arial_MSFontService,sans-serif" font-weight="400" font-size="46" transform="matrix(1 0 0 1 6638.82 1392)">2004</text></g><g><text font-family="Arial,Arial_MSFontService,sans-serif" font-weight="400" font-size="46" transform="matrix(1 0 0 1 6638.82 1335)">2003</text></g><g><text font-family="Arial,Arial_MSFontService,sans-serif" font-weight="400" font-size="46" transform="matrix(1 0 0 1 6638.82 1277)">2002</text></g><g><text font-family="Arial,Arial_MSFontService,sans-serif" font-weight="400" font-size="46" transform="matrix(1 0 0 1 6638.82 1219)">2001</text></g><g><text font-family="Arial,Arial_MSFontService,sans-serif" font-weight="400" font-size="46" transform="matrix(1 0 0 1 6638.82 1162)">2000</text></g><g><text font-family="Arial,Arial_MSFontService,sans-serif" font-weight="700" font-size="55" transform="matrix(1 0 0 1 7280.83 2826)">Severity of phenomena</text></g><g><text font-family="Arial,Arial_MSFontService,sans-serif" font-weight="400" font-size="50" transform="matrix(1 0 0 1 6972.78 2885)">Cumulativel degrees (</text></g><g><text font-family="Roboto,Roboto_MSFontService,sans-serif" font-weight="400" font-size="50" transform="matrix(1 0 0 1 7463.29 2885)">°</text></g><g><text font-family="Arial,Arial_MSFontService,sans-serif" font-weight="400" font-size="50" transform="matrix(1 0 0 1 7482.13 2885)">C) above / below normal in year</text></g><g><text font-family="Arial,Arial_MSFontService,sans-serif" font-weight="700" font-size="64" transform="matrix(1 0 0 1 7096.63 883)">SOUTHERN OSCILLATION</text></g><g><rect x="7258" y="1001" width="25" height="25.0001" fill="#4472C4"/></g><g><text font-family="Arial,Arial_MSFontService,sans-serif" font-weight="400" font-size="50" transform="matrix(1 0 0 1 7294.05 1030)">La Niña</text></g><g><rect x="7522" y="1001" width="26" height="25.0001" fill="#C00000"/></g><g><text font-family="Arial,Arial_MSFontService,sans-serif" font-weight="400" font-size="50" transform="matrix(1 0 0 1 7558.6 1030)">El Niño</text></g><g><g><text font-family="Arial,Arial_MSFontService,sans-serif" font-weight="400" font-size="46" transform="matrix(1 0 0 1 6777.24 3035)">Source: S.Canback</text></g></g><g><g><text font-family="Arial,Arial_MSFontService,sans-serif" font-weight="400" font-size="46" transform="matrix(1 0 0 1 7184.84 3035)">analysis; </text></g></g><g><g><text font-family="Arial,Arial_MSFontService,sans-serif" font-weight="400" font-size="46" transform="matrix(1 0 0 1 7375.87 3035)">National Weather Service</text></g></g></g></svg>