<svg width="1887" height="2452" xmlns="http://www.w3.org/2000/svg" xmlns:xlink="http://www.w3.org/1999/xlink" xml:space="preserve" overflow="hidden"><defs><clipPath id="clip0"><rect x="6557" y="788" width="1887" height="2452"/></clipPath></defs><g clip-path="url(#clip0)" transform="translate(-6557 -788)"><rect x="6557" y="788" width="1887" height="2452" fill="#FFFFFF"/><g><path d="M6780.5 1117.5 6780.5 2835.5M7009.73 1117.5 7009.73 2835.5M7238.74 1117.5 7238.74 2835.5M7697.75 1117.5 7697.75 2835.5M7927.76 1117.5 7927.76 2835.5M8156.77 1117.5 8156.77 2835.5M8386.5 1117.5 8386.5 2835.5" stroke="#D9D9D9" stroke-width="3.4375" stroke-linejoin="round" stroke-miterlimit="10" fill="none"/></g><g><path d="M7726.25 2698.09 7468.25 2698.09 7468.25 2654.09 7726.25 2654.09ZM7991.26 2634.09 7468.25 2634.09 7468.25 2590.08 7991.26 2590.08ZM7551.25 2443.08 7468.25 2443.08 7468.25 2400.08 7551.25 2400.08ZM7733.25 2380.08 7468.25 2380.08 7468.25 2336.08 7733.25 2336.08ZM7617.25 2316.08 7468.25 2316.08 7468.25 2272.07 7617.25 2272.07ZM7820.26 2189.07 7468.25 2189.07 7468.25 2145.07 7820.26 2145.07ZM8321.27 2125.07 7468.25 2125.07 7468.25 2081.07 8321.27 2081.07ZM7561.25 2062.07 7468.25 2062.07 7468.25 2018.07 7561.25 2018.07ZM7632.25 1807.06 7468.25 1807.06 7468.25 1763.06 7632.25 1763.06ZM7708.25 1744.06 7468.25 1744.06 7468.25 1700.06 7708.25 1700.06ZM7499.25 1616.05 7468.25 1616.05 7468.25 1572.05 7499.25 1572.05ZM7615.25 1553.05 7468.25 1553.05 7468.25 1509.05 7615.25 1509.05ZM7524.25 1489.05 7468.25 1489.05 7468.25 1445.05 7524.25 1445.05ZM7623.25 1425.05 7468.25 1425.05 7468.25 1382.05 7623.25 1382.05ZM7540.25 1362.04 7468.25 1362.04 7468.25 1318.04 7540.25 1318.04ZM7788.26 1298.04 7468.25 1298.04 7468.25 1254.04 7788.26 1254.04Z" fill="#C00000"/></g><g><path d="M7395.24 2762.09 7468.25 2762.09 7468.25 2718.09 7395.24 2718.09ZM7444.24 2634.09 7468.25 2634.09 7468.25 2590.08 7444.24 2590.08ZM7000.23 2571.08 7468.25 2571.08 7468.25 2527.08 7000.23 2527.08ZM7187.24 2507.08 7468.25 2507.08 7468.25 2463.08 7187.24 2463.08ZM7249.24 2443.08 7468.25 2443.08 7468.25 2400.08 7249.24 2400.08ZM7374.24 2316.08 7468.25 2316.08 7468.25 2272.07 7374.24 2272.07ZM7366.24 2253.07 7468.25 2253.07 7468.25 2209.07 7366.24 2209.07ZM7362.24 2189.07 7468.25 2189.07 7468.25 2145.07 7362.24 2145.07ZM7409.24 1934.06 7468.25 1934.06 7468.25 1891.06 7409.24 1891.06ZM7099.23 1871.06 7468.25 1871.06 7468.25 1827.06 7099.23 1827.06ZM7035.23 1807.06 7468.25 1807.06 7468.25 1763.06 7035.23 1763.06ZM7365.24 1744.06 7468.25 1744.06 7468.25 1700.06 7365.24 1700.06ZM7093.23 1680.06 7468.25 1680.06 7468.25 1636.05 7093.23 1636.05ZM7153.23 1616.05 7468.25 1616.05 7468.25 1572.05 7153.23 1572.05ZM7368.24 1553.05 7468.25 1553.05 7468.25 1509.05 7368.24 1509.05ZM7404.24 1489.05 7468.25 1489.05 7468.25 1445.05 7404.24 1445.05ZM7413.24 1235.04 7468.25 1235.04 7468.25 1191.04 7413.24 1191.04ZM7008.23 1171.04 7468.25 1171.04 7468.25 1127.04 7008.23 1127.04Z" fill="#4472C4"/></g><g><path d="M0 0 0.000360892 1718" stroke="#D9D9D9" stroke-width="3.4375" stroke-linejoin="round" stroke-miterlimit="10" fill="none" fill-rule="evenodd" transform="matrix(1 0 0 -1 7468.5 2835.5)"/></g><g><text font-family="Arial,Arial_MSFontService,sans-serif" font-weight="400" font-size="50" transform="matrix(1 0 0 1 6743.75 2912)">-15</text></g><g><text font-family="Arial,Arial_MSFontService,sans-serif" font-weight="400" font-size="50" transform="matrix(1 0 0 1 6973.24 2912)">-10</text></g><g><text font-family="Arial,Arial_MSFontService,sans-serif" font-weight="400" font-size="50" transform="matrix(1 0 0 1 7216.76 2912)">-5</text></g><g><text font-family="Arial,Arial_MSFontService,sans-serif" font-weight="400" font-size="50" transform="matrix(1 0 0 1 7454.65 2912)">0</text></g><g><text font-family="Arial,Arial_MSFontService,sans-serif" font-weight="400" font-size="50" transform="matrix(1 0 0 1 7684.14 2912)">5</text></g><g><text font-family="Arial,Arial_MSFontService,sans-serif" font-weight="400" font-size="50" transform="matrix(1 0 0 1 7899.6 2912)">10</text></g><g><text font-family="Arial,Arial_MSFontService,sans-serif" font-weight="400" font-size="50" transform="matrix(1 0 0 1 8129.09 2912)">15</text></g><g><text font-family="Arial,Arial_MSFontService,sans-serif" font-weight="400" font-size="50" transform="matrix(1 0 0 1 8358.58 2912)">20</text></g><g><text font-family="Arial,Arial_MSFontService,sans-serif" font-weight="400" font-size="46" transform="matrix(1 0 0 1 6575.16 2818)">2m2026</text></g><g><text font-family="Arial,Arial_MSFontService,sans-serif" font-weight="400" font-size="46" transform="matrix(1 0 0 1 6638.82 2755)">2025</text></g><g><text font-family="Arial,Arial_MSFontService,sans-serif" font-weight="400" font-size="46" transform="matrix(1 0 0 1 6638.82 2691)">2024</text></g><g><text font-family="Arial,Arial_MSFontService,sans-serif" font-weight="400" font-size="46" transform="matrix(1 0 0 1 6638.82 2628)">2023</text></g><g><text font-family="Arial,Arial_MSFontService,sans-serif" font-weight="400" font-size="46" transform="matrix(1 0 0 1 6638.82 2564)">2022</text></g><g><text font-family="Arial,Arial_MSFontService,sans-serif" font-weight="400" font-size="46" transform="matrix(1 0 0 1 6638.82 2500)">2021</text></g><g><text font-family="Arial,Arial_MSFontService,sans-serif" font-weight="400" font-size="46" transform="matrix(1 0 0 1 6638.82 2437)">2020</text></g><g><text font-family="Arial,Arial_MSFontService,sans-serif" font-weight="400" font-size="46" transform="matrix(1 0 0 1 6638.82 2373)">2019</text></g><g><text font-family="Arial,Arial_MSFontService,sans-serif" font-weight="400" font-size="46" transform="matrix(1 0 0 1 6638.82 2309)">2018</text></g><g><text font-family="Arial,Arial_MSFontService,sans-serif" font-weight="400" font-size="46" transform="matrix(1 0 0 1 6638.82 2246)">2017</text></g><g><text font-family="Arial,Arial_MSFontService,sans-serif" font-weight="400" font-size="46" transform="matrix(1 0 0 1 6638.82 2182)">2016</text></g><g><text font-family="Arial,Arial_MSFontService,sans-serif" font-weight="400" font-size="46" transform="matrix(1 0 0 1 6638.82 2119)">2015</text></g><g><text font-family="Arial,Arial_MSFontService,sans-serif" font-weight="400" font-size="46" transform="matrix(1 0 0 1 6638.82 2055)">2014</text></g><g><text font-family="Arial,Arial_MSFontService,sans-serif" font-weight="400" font-size="46" transform="matrix(1 0 0 1 6638.82 1991)">2013</text></g><g><text font-family="Arial,Arial_MSFontService,sans-serif" font-weight="400" font-size="46" transform="matrix(1 0 0 1 6638.82 1928)">2012</text></g><g><text font-family="Arial,Arial_MSFontService,sans-serif" font-weight="400" font-size="46" transform="matrix(1 0 0 1 6638.82 1864)">2011</text></g><g><text font-family="Arial,Arial_MSFontService,sans-serif" font-weight="400" font-size="46" transform="matrix(1 0 0 1 6638.82 1800)">2010</text></g><g><text font-family="Arial,Arial_MSFontService,sans-serif" font-weight="400" font-size="46" transform="matrix(1 0 0 1 6638.82 1737)">2009</text></g><g><text font-family="Arial,Arial_MSFontService,sans-serif" font-weight="400" font-size="46" transform="matrix(1 0 0 1 6638.82 1673)">2008</text></g><g><text font-family="Arial,Arial_MSFontService,sans-serif" font-weight="400" font-size="46" transform="matrix(1 0 0 1 6638.82 1610)">2007</text></g><g><text font-family="Arial,Arial_MSFontService,sans-serif" font-weight="400" font-size="46" transform="matrix(1 0 0 1 6638.82 1546)">2006</text></g><g><text font-family="Arial,Arial_MSFontService,sans-serif" font-weight="400" font-size="46" transform="matrix(1 0 0 1 6638.82 1482)">2005</text></g><g><text font-family="Arial,Arial_MSFontService,sans-serif" font-weight="400" font-size="46" transform="matrix(1 0 0 1 6638.82 1419)">2004</text></g><g><text font-family="Arial,Arial_MSFontService,sans-serif" font-weight="400" font-size="46" transform="matrix(1 0 0 1 6638.82 1355)">2003</text></g><g><text font-family="Arial,Arial_MSFontService,sans-serif" font-weight="400" font-size="46" transform="matrix(1 0 0 1 6638.82 1291)">2002</text></g><g><text font-family="Arial,Arial_MSFontService,sans-serif" font-weight="400" font-size="46" transform="matrix(1 0 0 1 6638.82 1228)">2001</text></g><g><text font-family="Arial,Arial_MSFontService,sans-serif" font-weight="400" font-size="46" transform="matrix(1 0 0 1 6638.82 1164)">2000</text></g><g><text font-family="Arial,Arial_MSFontService,sans-serif" font-weight="700" font-size="55" transform="matrix(1 0 0 1 7280.83 2988)">Severity of phenomena</text></g><g><text font-family="Arial,Arial_MSFontService,sans-serif" font-weight="400" font-size="50" transform="matrix(1 0 0 1 6972.78 3047)">Cumulativel degrees (</text></g><g><text font-family="Roboto,Roboto_MSFontService,sans-serif" font-weight="400" font-size="50" transform="matrix(1 0 0 1 7463.29 3047)">°</text></g><g><text font-family="Arial,Arial_MSFontService,sans-serif" font-weight="400" font-size="50" transform="matrix(1 0 0 1 7482.13 3047)">C) above / below normal in year</text></g><g><text font-family="Arial,Arial_MSFontService,sans-serif" font-weight="700" font-size="64" transform="matrix(1 0 0 1 7087.46 938)">SOUTHERN OSCILLATION</text></g><g><rect x="7239" y="1001" width="26" height="25.0001" fill="#4472C4"/></g><g><text font-family="Arial,Arial_MSFontService,sans-serif" font-weight="400" font-size="50" transform="matrix(1 0 0 1 7275.72 1030)">La Niña</text></g><g><rect x="7504" y="1001" width="25" height="25.0001" fill="#C00000"/></g><g><text font-family="Arial,Arial_MSFontService,sans-serif" font-weight="400" font-size="50" transform="matrix(1 0 0 1 7540.27 1030)">El Niño</text></g><g><g><text font-family="Arial,Arial_MSFontService,sans-serif" font-weight="400" font-size="46" transform="matrix(1 0 0 1 6777.24 3182)">Source: S.Canback</text></g></g><g><g><text font-family="Arial,Arial_MSFontService,sans-serif" font-weight="400" font-size="46" transform="matrix(1 0 0 1 7184.84 3182)">(</text></g></g><g><g><text font-family="Arial,Arial_MSFontService,sans-serif" font-weight="400" font-size="46" transform="matrix(1 0 0 1 7200.1 3182)">Tellusant)</text></g></g><g><g><text font-family="Arial,Arial_MSFontService,sans-serif" font-weight="400" font-size="46" transform="matrix(1 0 0 1 7414.05 3182)">analysis; </text></g></g><g><g><text font-family="Arial,Arial_MSFontService,sans-serif" font-weight="400" font-size="46" transform="matrix(1 0 0 1 7605.08 3182)">National Weather Service</text></g></g></g></svg>