<svg width="1838" height="2480" xmlns="http://www.w3.org/2000/svg" xmlns:xlink="http://www.w3.org/1999/xlink" xml:space="preserve" overflow="hidden"><defs><clipPath id="clip0"><rect x="6380" y="798" width="1838" height="2480"/></clipPath></defs><g clip-path="url(#clip0)" transform="translate(-6380 -798)"><rect x="6380" y="798" width="1838" height="2480" fill="#FFFFFF"/><g><path d="M6597.5 1130.5 6597.5 2867.5M6820.72 1130.5 6820.72 2867.5M7044.73 1130.5 7044.73 2867.5M7491.75 1130.5 7491.75 2867.5M7714.75 1130.5 7714.75 2867.5M7938.76 1130.5 7938.76 2867.5M8162.5 1130.5 8162.5 2867.5" stroke="#D9D9D9" stroke-width="3.4375" stroke-linejoin="round" stroke-miterlimit="10" fill="none"/></g><g><path d="M7334.24 2858.09 7268.24 2858.09 7268.24 2813.09 7334.24 2813.09ZM7519.25 2729.09 7268.24 2729.09 7268.24 2685.09 7519.25 2685.09ZM7776.26 2665.09 7268.24 2665.09 7268.24 2620.09 7776.26 2620.09ZM7348.24 2472.08 7268.24 2472.08 7268.24 2427.08 7348.24 2427.08ZM7525.25 2407.08 7268.24 2407.08 7268.24 2363.08 7525.25 2363.08ZM7412.24 2343.08 7268.24 2343.08 7268.24 2299.08 7412.24 2299.08ZM7611.25 2214.07 7268.24 2214.07 7268.24 2170.07 7611.25 2170.07ZM8098.27 2150.07 7268.24 2150.07 7268.24 2106.07 8098.27 2106.07ZM7358.24 2086.07 7268.24 2086.07 7268.24 2041.07 7358.24 2041.07ZM7427.24 1828.06 7268.24 1828.06 7268.24 1784.06 7427.24 1784.06ZM7501.25 1764.06 7268.24 1764.06 7268.24 1719.06 7501.25 1719.06ZM7297.24 1635.05 7268.24 1635.05 7268.24 1591.05 7297.24 1591.05ZM7410.24 1571.05 7268.24 1571.05 7268.24 1526.05 7410.24 1526.05ZM7322.24 1506.05 7268.24 1506.05 7268.24 1462.05 7322.24 1462.05ZM7418.24 1442.05 7268.24 1442.05 7268.24 1398.05 7418.24 1398.05ZM7337.24 1378.05 7268.24 1378.05 7268.24 1333.04 7337.24 1333.04ZM7579.25 1313.04 7268.24 1313.04 7268.24 1269.04 7579.25 1269.04Z" fill="#C00000"/></g><g><path d="M7196.24 2793.09 7268.24 2793.09 7268.24 2749.09 7196.24 2749.09ZM7243.24 2665.09 7268.24 2665.09 7268.24 2620.09 7243.24 2620.09ZM6812.22 2600.09 7268.24 2600.09 7268.24 2556.08 6812.22 2556.08ZM6994.23 2536.08 7268.24 2536.08 7268.24 2492.08 6994.23 2492.08ZM7054.23 2472.08 7268.24 2472.08 7268.24 2427.08 7054.23 2427.08ZM7176.24 2343.08 7268.24 2343.08 7268.24 2299.08 7176.24 2299.08ZM7168.24 2279.07 7268.24 2279.07 7268.24 2234.07 7168.24 2234.07ZM7164.24 2214.07 7268.24 2214.07 7268.24 2170.07 7164.24 2170.07ZM7210.24 1957.06 7268.24 1957.06 7268.24 1912.06 7210.24 1912.06ZM6908.23 1892.06 7268.24 1892.06 7268.24 1848.06 6908.23 1848.06ZM6846.22 1828.06 7268.24 1828.06 7268.24 1784.06 6846.22 1784.06ZM7167.24 1764.06 7268.24 1764.06 7268.24 1719.06 7167.24 1719.06ZM6901.23 1699.06 7268.24 1699.06 7268.24 1655.05 6901.23 1655.05ZM6960.23 1635.05 7268.24 1635.05 7268.24 1591.05 6960.23 1591.05ZM7170.24 1571.05 7268.24 1571.05 7268.24 1526.05 7170.24 1526.05ZM7205.24 1506.05 7268.24 1506.05 7268.24 1462.05 7205.24 1462.05ZM7214.24 1249.04 7268.24 1249.04 7268.24 1205.04 7214.24 1205.04ZM6819.22 1185.04 7268.24 1185.04 7268.24 1140.04 6819.22 1140.04Z" fill="#203864"/></g><g><path d="M0 0 0.000360892 1737" stroke="#D9D9D9" stroke-width="3.4375" stroke-linejoin="round" stroke-miterlimit="10" fill="none" fill-rule="evenodd" transform="matrix(1 0 0 -1 7267.5 2867.5)"/></g><g><text font-family="Arial,Arial_MSFontService,sans-serif" font-weight="400" font-size="50" transform="matrix(1 0 0 1 6560.75 2944)">-15</text></g><g><text font-family="Arial,Arial_MSFontService,sans-serif" font-weight="400" font-size="50" transform="matrix(1 0 0 1 6784.3 2944)">-10</text></g><g><text font-family="Arial,Arial_MSFontService,sans-serif" font-weight="400" font-size="50" transform="matrix(1 0 0 1 7021.87 2944)">-5</text></g><g><text font-family="Arial,Arial_MSFontService,sans-serif" font-weight="400" font-size="50" transform="matrix(1 0 0 1 7253.81 2944)">0</text></g><g><text font-family="Arial,Arial_MSFontService,sans-serif" font-weight="400" font-size="50" transform="matrix(1 0 0 1 7477.35 2944)">5</text></g><g><text font-family="Arial,Arial_MSFontService,sans-serif" font-weight="400" font-size="50" transform="matrix(1 0 0 1 7686.87 2944)">10</text></g><g><text font-family="Arial,Arial_MSFontService,sans-serif" font-weight="400" font-size="50" transform="matrix(1 0 0 1 7910.42 2944)">15</text></g><g><text font-family="Arial,Arial_MSFontService,sans-serif" font-weight="400" font-size="50" transform="matrix(1 0 0 1 8133.96 2944)">20</text></g><g><text font-family="Arial,Arial_MSFontService,sans-serif" font-weight="400" font-size="46" transform="matrix(1 0 0 1 6455.82 2851)">2026</text></g><g><text font-family="Arial,Arial_MSFontService,sans-serif" font-weight="400" font-size="46" transform="matrix(1 0 0 1 6455.82 2786)">2025</text></g><g><text font-family="Arial,Arial_MSFontService,sans-serif" font-weight="400" font-size="46" transform="matrix(1 0 0 1 6455.82 2722)">2024</text></g><g><text font-family="Arial,Arial_MSFontService,sans-serif" font-weight="400" font-size="46" transform="matrix(1 0 0 1 6455.82 2658)">2023</text></g><g><text font-family="Arial,Arial_MSFontService,sans-serif" font-weight="400" font-size="46" transform="matrix(1 0 0 1 6455.82 2593)">2022</text></g><g><text font-family="Arial,Arial_MSFontService,sans-serif" font-weight="400" font-size="46" transform="matrix(1 0 0 1 6455.82 2529)">2021</text></g><g><text font-family="Arial,Arial_MSFontService,sans-serif" font-weight="400" font-size="46" transform="matrix(1 0 0 1 6455.82 2465)">2020</text></g><g><text font-family="Arial,Arial_MSFontService,sans-serif" font-weight="400" font-size="46" transform="matrix(1 0 0 1 6455.82 2400)">2019</text></g><g><text font-family="Arial,Arial_MSFontService,sans-serif" font-weight="400" font-size="46" transform="matrix(1 0 0 1 6455.82 2336)">2018</text></g><g><text font-family="Arial,Arial_MSFontService,sans-serif" font-weight="400" font-size="46" transform="matrix(1 0 0 1 6455.82 2272)">2017</text></g><g><text font-family="Arial,Arial_MSFontService,sans-serif" font-weight="400" font-size="46" transform="matrix(1 0 0 1 6455.82 2207)">2016</text></g><g><text font-family="Arial,Arial_MSFontService,sans-serif" font-weight="400" font-size="46" transform="matrix(1 0 0 1 6455.82 2143)">2015</text></g><g><text font-family="Arial,Arial_MSFontService,sans-serif" font-weight="400" font-size="46" transform="matrix(1 0 0 1 6455.82 2078)">2014</text></g><g><text font-family="Arial,Arial_MSFontService,sans-serif" font-weight="400" font-size="46" transform="matrix(1 0 0 1 6455.82 2014)">2013</text></g><g><text font-family="Arial,Arial_MSFontService,sans-serif" font-weight="400" font-size="46" transform="matrix(1 0 0 1 6455.82 1950)">2012</text></g><g><text font-family="Arial,Arial_MSFontService,sans-serif" font-weight="400" font-size="46" transform="matrix(1 0 0 1 6455.82 1885)">2011</text></g><g><text font-family="Arial,Arial_MSFontService,sans-serif" font-weight="400" font-size="46" transform="matrix(1 0 0 1 6455.82 1821)">2010</text></g><g><text font-family="Arial,Arial_MSFontService,sans-serif" font-weight="400" font-size="46" transform="matrix(1 0 0 1 6455.82 1757)">2009</text></g><g><text font-family="Arial,Arial_MSFontService,sans-serif" font-weight="400" font-size="46" transform="matrix(1 0 0 1 6455.82 1692)">2008</text></g><g><text font-family="Arial,Arial_MSFontService,sans-serif" font-weight="400" font-size="46" transform="matrix(1 0 0 1 6455.82 1628)">2007</text></g><g><text font-family="Arial,Arial_MSFontService,sans-serif" font-weight="400" font-size="46" transform="matrix(1 0 0 1 6455.82 1564)">2006</text></g><g><text font-family="Arial,Arial_MSFontService,sans-serif" font-weight="400" font-size="46" transform="matrix(1 0 0 1 6455.82 1499)">2005</text></g><g><text font-family="Arial,Arial_MSFontService,sans-serif" font-weight="400" font-size="46" transform="matrix(1 0 0 1 6455.82 1435)">2004</text></g><g><text font-family="Arial,Arial_MSFontService,sans-serif" font-weight="400" font-size="46" transform="matrix(1 0 0 1 6455.82 1371)">2003</text></g><g><text font-family="Arial,Arial_MSFontService,sans-serif" font-weight="400" font-size="46" transform="matrix(1 0 0 1 6455.82 1306)">2002</text></g><g><text font-family="Arial,Arial_MSFontService,sans-serif" font-weight="400" font-size="46" transform="matrix(1 0 0 1 6455.82 1242)">2001</text></g><g><text font-family="Arial,Arial_MSFontService,sans-serif" font-weight="400" font-size="46" transform="matrix(1 0 0 1 6455.82 1177)">2000</text></g><g><text font-family="Arial,Arial_MSFontService,sans-serif" font-weight="700" font-size="55" transform="matrix(1 0 0 1 7076.99 3020)">Severity of phenomena</text></g><g><text font-family="Arial,Arial_MSFontService,sans-serif" font-weight="400" font-size="50" transform="matrix(1 0 0 1 6768.97 3079)">Cumulativel degrees (</text></g><g><text font-family="Roboto,Roboto_MSFontService,sans-serif" font-weight="400" font-size="50" transform="matrix(1 0 0 1 7259.48 3079)">°</text></g><g><text font-family="Arial,Arial_MSFontService,sans-serif" font-weight="400" font-size="50" transform="matrix(1 0 0 1 7278.31 3079)">C) above / below normal in year</text></g><g><text font-family="Arial,Arial_MSFontService,sans-serif" font-weight="700" font-size="64" transform="matrix(1 0 0 1 6896.85 948)">SOUTHERN OSCILLATION</text></g><g><rect x="7041" y="1012" width="26" height="26.0001" fill="#203864"/></g><g><text font-family="Arial,Arial_MSFontService,sans-serif" font-weight="400" font-size="50" transform="matrix(1 0 0 1 7077.55 1042)">La Niña</text></g><g><rect x="7301" y="1012" width="25" height="26.0001" fill="#C00000"/></g><g><text font-family="Arial,Arial_MSFontService,sans-serif" font-weight="400" font-size="50" transform="matrix(1 0 0 1 7337.28 1042)">El Niño</text></g><g><g><text font-family="Arial,Arial_MSFontService,sans-serif" font-weight="400" font-size="46" transform="matrix(1 0 0 1 6595.17 3219)">Source: S.Canback</text></g></g><g><g><text font-family="Arial,Arial_MSFontService,sans-serif" font-weight="400" font-size="46" transform="matrix(1 0 0 1 7002.77 3219)">(</text></g></g><g><g><text font-family="Arial,Arial_MSFontService,sans-serif" font-weight="400" font-size="46" transform="matrix(1 0 0 1 7018.03 3219)">Tellusant)</text></g></g><g><g><text font-family="Arial,Arial_MSFontService,sans-serif" font-weight="400" font-size="46" transform="matrix(1 0 0 1 7231.98 3219)">analysis; </text></g></g><g><g><text font-family="Arial,Arial_MSFontService,sans-serif" font-weight="400" font-size="46" transform="matrix(1 0 0 1 7423.02 3219)">National Weather Service</text></g></g></g></svg>