<svg width="1936" height="1412" xmlns="http://www.w3.org/2000/svg" xmlns:xlink="http://www.w3.org/1999/xlink" xml:space="preserve" overflow="hidden">

<metadata
  xmlns:dc="http://purl.org/dc/elements/1.1/">
  <dc:title>Management consulting productivity</dc:title>
  <dc:creator>Staffan Canback, Tellusant</dc:creator>
  <dc:description>
    Conceptual illustration of productivity dynamics in management consulting,
    authored by Staffan Canback as part of a synthesis of professional insights.
  </dc:description>
  <dc:rights>Copyright 2022</dc:rights>
  <dc:license>CC BY-SA 4.0</dc:license>
</metadata>

<g transform="translate(-251 -176)"><path d="M914 1009 1696.13 1009" stroke="#7F7F7F" stroke-width="2.29167" stroke-miterlimit="8" fill="none" fill-rule="evenodd"/><path d="M928 778 1666.08 778" stroke="#7F7F7F" stroke-width="2.29167" stroke-miterlimit="8" fill="none" fill-rule="evenodd"/><path d="M700.5 777.5 841.207 543.5 841.793 543.5 982.5 777.5Z" stroke="#FFFFFF" stroke-width="4.58333" stroke-miterlimit="8" fill="#44546A" fill-rule="evenodd"/><path d="M560.5 1011.5 701.207 777.5 981.793 777.5 1122.5 1011.5Z" stroke="#FFFFFF" stroke-width="4.58333" stroke-miterlimit="8" fill="#44546A" fill-rule="evenodd"/><path d="M419.5 1244.5 559.604 1011.5 1123.4 1011.5 1263.5 1244.5Z" stroke="#FFFFFF" stroke-width="4.58333" stroke-miterlimit="8" fill="#44546A" fill-rule="evenodd"/><path d="M1828.5 543.5 1783.16 777.5 1601.84 777.5 1556.5 543.5Z" stroke="#FFFFFF" stroke-width="4.58333" stroke-miterlimit="8" fill="#44546A" fill-rule="evenodd"/><path d="M1783.5 777.5 1738 1011.5 1647 1011.5 1601.5 777.5Z" stroke="#FFFFFF" stroke-width="4.58333" stroke-miterlimit="8" fill="#44546A" fill-rule="evenodd"/><path d="M1737.5 1011.5 1692.5 1244.5 1692.5 1244.5 1647.5 1011.5Z" stroke="#FFFFFF" stroke-width="4.58333" stroke-miterlimit="8" fill="#44546A" fill-rule="evenodd"/><rect x="616" y="1318" width="450" height="100" fill="#C00000"/><text fill="#FFFFFF" font-family="Arial,Arial_MSFontService,sans-serif" font-weight="400" font-size="55" transform="matrix(1 0 0 1 751.38 1387)">Signals</text><rect x="1467" y="1318" width="450" height="100" fill="#C00000"/><text fill="#FFFFFF" font-family="Arial,Arial_MSFontService,sans-serif" font-weight="400" font-size="55" transform="matrix(1 0 0 1 1602.35 1387)">Signals</text><text font-family="Arial,Arial_MSFontService,sans-serif" font-weight="400" font-size="55" transform="matrix(1 0 0 1 1011.48 653)">Recommendations</text><text font-family="Arial,Arial_MSFontService,sans-serif" font-weight="400" font-size="55" transform="matrix(1 0 0 1 1076.8 719)">&amp; syndication</text><text font-family="Arial,Arial_MSFontService,sans-serif" font-weight="400" font-size="55" transform="matrix(1 0 0 1 1195.4 880)">Deliverables</text><text font-family="Arial,Arial_MSFontService,sans-serif" font-weight="400" font-size="55" transform="matrix(1 0 0 1 1248.38 946)">creation</text><text font-family="Arial,Arial_MSFontService,sans-serif" font-weight="400" font-size="55" transform="matrix(1 0 0 1 1352.03 1148)">Analysis</text><text font-family="Arial,Arial_MSFontService,sans-serif" font-weight="700" font-size="55" transform="matrix(1 0 0 1 741.927 366)">Current</text><text font-family="Arial,Arial_MSFontService,sans-serif" font-weight="700" font-size="55" transform="matrix(1 0 0 1 777.15 432)">state</text><text font-family="Arial,Arial_MSFontService,sans-serif" font-weight="400" font-size="55" transform="matrix(1 0 0 1 801.212 498)">(Is)</text><text font-family="Arial,Arial_MSFontService,sans-serif" font-weight="700" font-size="55" transform="matrix(1 0 0 1 1588.94 366)">Desired</text><text font-family="Arial,Arial_MSFontService,sans-serif" font-weight="700" font-size="55" transform="matrix(1 0 0 1 1625.6 432)">state</text><text font-family="Arial,Arial_MSFontService,sans-serif" font-weight="400" font-size="55" transform="matrix(1 0 0 1 1610.13 498)">(Wish)</text><path d="M1.14583-5.63894e-06 1.14608 50.4167-1.14559 50.4167-1.14583 5.63894e-06ZM13.7502 45.8333 0.000360892 73.3333-13.7498 45.8334Z" fill="#C00000" transform="matrix(1 0 0 -1 841 1317.33)"/><path d="M1.14583-5.63894e-06 1.14608 50.4167-1.14559 50.4167-1.14583 5.63894e-06ZM13.7502 45.8333 0.000360892 73.3333-13.7498 45.8334Z" fill="#C00000" transform="matrix(1 0 0 -1 1692 1317.33)"/><text font-family="Arial,Arial_MSFontService,sans-serif" font-weight="700" font-size="64" transform="matrix(1 0 0 1 588.096 258)">MANAGEMENT CONSULTING PRODUCTIVITY</text><text font-family="Arial,Arial_MSFontService,sans-serif" font-weight="400" font-size="46" transform="matrix(1 0 0 1 463.833 1550)">Source: S. Canback synthesis</text><text font-family="Arial,Arial_MSFontService,sans-serif" font-style="italic" font-weight="400" font-size="55" transform="matrix(1 0 0 1 558.46 689)">Manual</text><text font-family="Arial,Arial_MSFontService,sans-serif" font-style="italic" font-weight="400" font-size="55" transform="matrix(1 0 0 1 428.6 916)">Manual</text><text font-family="Arial,Arial_MSFontService,sans-serif" font-style="italic" font-weight="400" font-size="55" transform="matrix(1 0 0 1 284.904 1150)">Manual</text><text font-family="Arial,Arial_MSFontService,sans-serif" font-style="italic" font-weight="400" font-size="55" transform="matrix(1 0 0 1 1827.57 689)">Semi</text><text font-family="Arial,Arial_MSFontService,sans-serif" font-style="italic" font-weight="400" font-size="55" transform="matrix(1 0 0 1 1952.47 689)">-</text><text font-family="Arial,Arial_MSFontService,sans-serif" font-style="italic" font-weight="400" font-size="55" transform="matrix(1 0 0 1 1970.8 689)">manual</text><text font-family="Arial,Arial_MSFontService,sans-serif" font-style="italic" font-weight="400" font-size="55" transform="matrix(1 0 0 1 1787.85 916)">Automated</text><text font-family="Arial,Arial_MSFontService,sans-serif" font-style="italic" font-weight="400" font-size="55" transform="matrix(1 0 0 1 1736.81 1150)">Automated</text><path d="M1148.92 472.854 1347.53 472.855 1347.53 475.146 1148.92 475.146ZM1153.5 487.75 1126 474 1153.5 460.25ZM1342.94 460.25 1370.44 474 1342.94 487.75Z" fill="#4472C4"/><text fill="#4472C4" font-family="Arial,Arial_MSFontService,sans-serif" font-style="italic" font-weight="400" font-size="50" transform="matrix(1 0 0 1 1162.26 461)">Width =</text><text fill="#4472C4" font-family="Arial,Arial_MSFontService,sans-serif" font-style="italic" font-weight="400" font-size="50" transform="matrix(1 0 0 1 1188.31 522)">Effort</text></g></svg>
