<svg width="2057" height="1188" xmlns="http://www.w3.org/2000/svg" xmlns:xlink="http://www.w3.org/1999/xlink" xml:space="preserve" overflow="hidden"><defs><clipPath id="clip0"><rect x="176" y="1128" width="2057" height="1188"/></clipPath></defs><g clip-path="url(#clip0)" transform="translate(-176 -1128)"><rect x="176" y="1128" width="2057" height="1188" fill="#FFFFFF"/><g><path d="M401.5 2072.57 2148.5 2072.57M401.5 1975.56 2148.5 1975.56M401.5 1877.56 2148.5 1877.56M401.5 1779.56 2148.5 1779.56M401.5 1681.56 2148.5 1681.56M401.5 1583.55 2148.5 1583.55M401.5 1485.55 2148.5 1485.55M401.5 1387.5 2148.5 1387.5" stroke="#D9D9D9" stroke-width="3.4375" stroke-linejoin="round" stroke-miterlimit="10" fill="none"/></g><g><path d="M401.5 2170.5 2148.5 2170.5" stroke="#D9D9D9" stroke-width="3.4375" stroke-linejoin="round" stroke-miterlimit="10" fill="none" fill-rule="evenodd"/></g><g><path d="M401.5 2170.5 401.5 2184.5M484.516 2170.5 484.516 2184.5M567.519 2170.5 567.519 2184.5M650.521 2170.5 650.521 2184.5M734.524 2170.5 734.524 2184.5M817.527 2170.5 817.527 2184.5M900.53 2170.5 900.53 2184.5M983.532 2170.5 983.532 2184.5M1066.54 2170.5 1066.54 2184.5M1150.54 2170.5 1150.54 2184.5M1233.54 2170.5 1233.54 2184.5M1316.54 2170.5 1316.54 2184.5M1399.55 2170.5 1399.55 2184.5M1482.55 2170.5 1482.55 2184.5M1565.55 2170.5 1565.55 2184.5M1649.55 2170.5 1649.55 2184.5M1732.56 2170.5 1732.56 2184.5M1815.56 2170.5 1815.56 2184.5M1898.56 2170.5 1898.56 2184.5M1981.57 2170.5 1981.57 2184.5M2065.57 2170.5 2065.57 2184.5M2148.5 2170.5 2148.5 2184.5" stroke="#D9D9D9" stroke-width="3.4375" stroke-linejoin="round" stroke-miterlimit="10" fill="none"/></g><g><path d="M401.5 1767.56 417.514 1775.5 434.514 1741.56 451.515 1718.56 467.516 1561.55 484.516 1551.55 501.517 1535.55 517.517 1547.55 534.518 1549.55 551.518 1542.55 567.519 1561.55 584.519 1568.55 600.52 1601.55 617.52 1609.55 634.521 1597.55 650.521 1584.55 667.522 1565.55 684.523 1559.55 700.523 1569.55 717.524 1555.55 734.524 1553.55 750.525 1533.55 767.525 1500.55 783.526 1473.55 800.526 1453.55 817.527 1449.55 833.528 1466.55 850.528 1432.55 867.529 1429.55 883.529 1438.55 900.53 1426.55 917.53 1419.55 933.531 1413.55 950.531 1412.55 967.532 1420.55 983.532 1414.55 1000.53 1412.55 1016.53 1408.55 1033.53 1409.55 1050.53 1405.55 1066.54 1400.55 1083.54 1403.55 1100.54 1400.55 1116.54 1398.55 1133.54 1398.55 1150.54 1396.55 1166.54 1391.55 1183.54 1388.5 1199.54 1395.55 1216.54 1408.55 1233.54 1406.55 1249.54 1408.55 1266.54 1413.55 1283.54 1417.55 1299.54 1416.55 1316.54 1422.55 1333.54 1419.55 1349.54 1419.55 1366.54 1418.55 1382.55 1422.55 1399.55 1428.55 1416.55 1431.55 1432.55 1440.55 1449.55 1438.55 1466.55 1433.55 1482.55 1435.55 1499.55 1435.55 1516.55 1437.55 1532.55 1441.55 1549.55 1443.55 1565.55 1449.55 1582.55 1455.55 1599.55 1451.55 1615.55 1444.55 1632.55 1439.55 1649.55 1439.55 1665.55 1438.55 1682.56 1432.55 1699.56 1422.55 1715.56 1413.55 1732.56 1411.55 1748.56 1410.55 1765.56 1407.55 1782.56 1405.55 1798.56 1404.55 1815.56 1416.55 1832.56 1432.55 1848.56 1453.55 1865.56 1470.55 1882.56 1493.55 1898.56 1508.55 1915.56 1524.55 1931.56 1536.55 1948.56 1548.55 1965.56 1558.55 1981.57 1566.55 1998.57 1577.55 2015.57 1587.55 2031.57 1596.55 2048.57 1603.55 2065.57 1613.55 2081.57 1618.55 2098.57 1618.55 2114.57 1624.55 2131.57 1629.55 2148.5 1634.55" stroke="#2F5597" stroke-width="6.875" stroke-linecap="round" stroke-linejoin="round" stroke-miterlimit="10" fill="none"/></g><g><path d="M401.5 2098.57 417.514 2091.57 434.514 2101.57 451.515 2108.57 467.516 2053.57 484.516 2061.57 501.517 2066.57 517.517 2067.57 534.518 2067.57 551.518 2073.57 567.519 2064.57 584.519 2057.57 600.52 2040.57 617.52 2040.57 634.521 2060.57 650.521 2061.57 667.522 2067.57 684.523 2074.57 700.523 2074.57 717.524 2082.57 734.524 2090.57 750.525 2102.57 767.525 2113.57 783.526 2122.57 800.526 2126.57 817.527 2128.57 833.528 2123.57 850.528 2123.57 867.529 2125.57 883.529 2127.57 900.53 2131.57 917.53 2130.57 933.531 2127.57 950.531 2127.57 967.532 2126.57 983.532 2126.57 1000.53 2123.57 1016.53 2121.57 1033.53 2116.57 1050.53 2118.57 1066.54 2120.57 1083.54 2120.57 1100.54 2134.57 1116.54 2138.5 1133.54 2136.57 1150.54 2133.57 1166.54 2130.57 1183.54 2127.57 1199.54 2131.57 1216.54 2134.57 1233.54 2129.57 1249.54 2127.57 1266.54 2128.57 1283.54 2127.57 1299.54 2126.57 1316.54 2122.57 1333.54 2125.57 1349.54 2124.57 1366.54 2121.57 1382.55 2119.57 1399.55 2115.57 1416.55 2114.57 1432.55 2108.57 1449.55 2105.57 1466.55 2100.57 1482.55 2095.57 1499.55 2091.57 1516.55 2085.57 1532.55 2080.57 1549.55 2080.57 1565.55 2078.57 1582.55 2070.57 1599.55 2061.57 1615.55 2051.57 1632.55 2042.57 1649.55 2033.57 1665.55 2026.57 1682.56 2010.57 1699.56 2007.57 1715.56 2003.57 1732.56 1998.57 1748.56 1988.57 1765.56 1978.57 1782.56 1968.56 1798.56 1958.56 1815.56 1946.56 1832.56 1930.56 1848.56 1909.56 1865.56 1892.56 1882.56 1869.56 1898.56 1854.56 1915.56 1838.56 1931.56 1826.56 1948.56 1814.56 1965.56 1804.56 1981.57 1796.56 1998.57 1785.56 2015.57 1775.56 2031.57 1766.56 2048.57 1759.56 2065.57 1749.56 2081.57 1744.56 2098.57 1744.56 2114.57 1738.56 2131.57 1733.56 2148.5 1728.5" stroke="#548235" stroke-width="6.875" stroke-linecap="round" stroke-linejoin="round" stroke-miterlimit="10" fill="none"/></g><g><path d="M401.5 1913.56 417.514 1906.56 434.514 1933.56 451.515 1950.56 467.516 1801.56 484.516 1811.56 501.517 1827.56 517.517 1815.56 534.518 1813.56 551.518 1820.56 567.519 1801.56 584.519 1794.56 600.52 1761.56 617.52 1753.5 634.521 1765.56 650.521 1778.56 667.522 1797.56 684.523 1803.56 700.523 1793.56 717.524 1807.56 734.524 1809.56 750.525 1829.56 767.525 1862.56 783.526 1889.56 800.526 1909.56 817.527 1913.56 833.528 1896.56 850.528 1930.56 867.529 1933.56 883.529 1924.56 900.53 1936.56 917.53 1943.56 933.531 1949.56 950.531 1950.56 967.532 1942.56 983.532 1948.56 1000.53 1950.56 1016.53 1954.56 1033.53 1953.56 1050.53 1957.56 1066.54 1963.56 1083.54 1969.56 1100.54 1978.57 1116.54 1979.57 1133.54 1981.57 1150.54 1986.57 1166.54 1992.57 1183.54 1993.57 1199.54 1994.57 1216.54 1995.57 1233.54 1992.57 1249.54 1997.57 1266.54 1998.57 1283.54 1997.57 1299.54 1999.57 1316.54 2001.57 1333.54 2004.57 1349.54 2006.57 1366.54 2008.57 1382.55 2006.57 1399.55 2009.57 1416.55 2013.57 1432.55 2008.57 1449.55 2008.57 1466.55 2015.57 1482.55 2015.57 1499.55 2015.57 1516.55 2012.57 1532.55 2010.57 1549.55 2011.57 1565.55 2012.57 1582.55 2013.57 1599.55 2017.57 1615.55 2017.57 1632.55 2017.57 1649.55 2017.57 1665.55 2018.57 1682.56 2028.57 1699.56 2029.57 1715.56 2031.57 1732.56 2031.57 1748.56 2029.57 1765.56 2029.57 1782.56 2028.57 1798.56 2030.57 1815.56 2031.57 1832.56 2031.57 1848.56 2030.57 1865.56 2031.57 1882.56 2033.57 1898.56 2034.57 1915.56 2034.57 1931.56 2035.57 1948.56 2035.57 1965.56 2035.57 1981.57 2035.57 1998.57 2035.57 2015.57 2035.57 2031.57 2037.57 2048.57 2038.57 2065.57 2047.57 2081.57 2045.57 2098.57 2042.57 2114.57 2045.57 2131.57 2047.57 2148.5 2048.5" stroke="#000000" stroke-width="6.875" stroke-linecap="round" stroke-linejoin="round" stroke-miterlimit="10" fill="none"/></g><g><path d="M850.5 2130.57 867.529 2131.57 883.529 2130.57 900.53 2133.57 917.53 2135.57 933.531 2135.57 950.531 2135.57 967.532 2133.57 983.532 2135.57 1000.53 2134.57 1016.53 2135.57 1033.53 2132.57 1050.53 2134.57 1066.54 2132.57 1083.54 2132.57 1100.54 2133.57 1116.54 2132.57 1133.54 2132.57 1150.54 2135.57 1166.54 2137.5 1183.54 2135.57 1199.54 2136.57 1216.54 2135.57 1233.54 2133.57 1249.54 2134.57 1266.54 2136.57 1283.54 2136.57 1299.54 2136.57 1316.54 2133.57 1333.54 2134.57 1349.54 2133.57 1366.55 2133.57 1382.55 2136.57 1399.55 2134.57 1416.55 2133.57 1432.55 2131.57 1449.55 2130.57 1466.55 2131.57 1482.55 2130.57 1499.55 2130.57 1516.55 2130.57 1532.55 2128.57 1549.55 2127.57 1565.55 2125.57 1582.55 2125.57 1599.55 2124.57 1615.55 2123.57 1632.55 2122.57 1649.55 2120.57 1665.55 2118.57 1682.56 2118.57 1699.56 2118.57 1715.56 2116.57 1732.56 2116.57 1748.56 2114.57 1765.56 2113.57 1782.56 2110.57 1798.56 2108.57 1815.56 2105.57 1832.56 2102.57 1848.56 2099.57 1865.56 2097.57 1882.56 2089.57 1898.56 2085.57 1915.56 2082.57 1931.56 2080.57 1948.56 2076.57 1965.56 2072.57 1981.57 2068.57 1998.57 2062.57 2015.57 2058.57 2031.57 2055.57 2048.57 2054.57 2065.57 2057.57 2081.57 2054.57 2098.57 2049.57 2114.57 2044.57 2131.57 2040.57 2148.5 2035.5" stroke="#9933FF" stroke-width="6.875" stroke-linecap="round" stroke-linejoin="round" stroke-miterlimit="10" fill="none"/></g><g><path d="M401.5 2079.57 417.514 2073.57 434.514 2085.57 451.515 2094.57 467.516 2027.57 484.516 2035.57 501.517 2040.57 517.517 2038.57 534.518 2038.57 551.518 2041.57 567.519 2024.57 584.519 2013.57 600.52 1995.57 617.52 1987.57 634.521 1988.57 650.521 1979.57 667.522 1985.57 684.523 1977.57 700.523 1969.5 717.524 1971.56 734.524 1979.57 750.525 2032.57 767.525 2051.57 783.526 2066.57 800.526 2072.57 817.527 2071.57 833.528 2059.57 850.528 2047.57 867.529 2037.57 883.529 2024.57 900.53 2022.57 917.53 2032.57 933.531 2029.57 950.531 2029.57 967.532 2023.57 983.532 2021.57 1000.53 2012.57 1016.53 2012.57 1033.53 2001.57 1050.53 2012.57 1066.54 2004.57 1083.54 2000.57 1100.54 2005.57 1116.54 2014.57 1133.54 2005.57 1150.54 2006.57 1166.54 2009.57 1183.54 2007.57 1199.54 2006.57 1216.54 2008.57 1233.54 1999.57 1249.54 2000.57 1266.54 2006.57 1283.54 2003.57 1299.54 1998.57 1316.54 1998.57 1333.54 1999.57 1349.54 2002.57 1366.54 2006.57 1382.55 2011.57 1399.55 2010.57 1416.55 2013.57 1432.55 2007.57 1449.55 2008.57 1466.55 2016.57 1482.55 2020.57 1499.55 2019.57 1516.55 2022.57 1532.55 2024.57 1549.55 2026.57 1565.55 2034.57 1582.55 2071.57 1599.55 2087.57 1615.55 2096.57 1632.55 2107.57 1649.55 2111.57 1665.55 2115.57 1682.56 2116.57 1699.56 2121.5 1715.56 2121.57 1732.56 2118.57 1748.56 2116.57 1765.56 2114.57 1782.56 2112.57 1798.56 2110.57 1815.56 2109.57 1832.56 2106.57 1848.56 2102.57 1865.56 2099.57 1882.56 2102.57 1898.56 2101.57 1915.56 2099.57 1931.56 2098.57 1948.56 2099.57 1965.56 2100.57 1981.57 2103.57 1998.57 2104.57 2015.57 2104.57 2031.57 2104.57 2048.57 2104.57 2065.57 2105.57 2081.57 2105.57 2098.57 2107.57 2114.57 2107.57 2131.57 2106.57 2148.5 2106.57" stroke="#C00000" stroke-width="6.875" stroke-linecap="round" stroke-linejoin="round" stroke-miterlimit="10" fill="none"/></g><g><text font-family="Arial,Arial_MSFontService,sans-serif" font-weight="400" font-size="46" transform="matrix(1 0 0 1 298.209 2186)">0.0</text></g><g><text font-family="Arial,Arial_MSFontService,sans-serif" font-weight="400" font-size="46" transform="matrix(1 0 0 1 298.209 2088)">0.2</text></g><g><text font-family="Arial,Arial_MSFontService,sans-serif" font-weight="400" font-size="46" transform="matrix(1 0 0 1 298.209 1990)">0.4</text></g><g><text font-family="Arial,Arial_MSFontService,sans-serif" font-weight="400" font-size="46" transform="matrix(1 0 0 1 298.209 1892)">0.6</text></g><g><text font-family="Arial,Arial_MSFontService,sans-serif" font-weight="400" font-size="46" transform="matrix(1 0 0 1 298.209 1794)">0.8</text></g><g><text font-family="Arial,Arial_MSFontService,sans-serif" font-weight="400" font-size="46" transform="matrix(1 0 0 1 298.209 1697)">1.0</text></g><g><text font-family="Arial,Arial_MSFontService,sans-serif" font-weight="400" font-size="46" transform="matrix(1 0 0 1 298.209 1599)">1.2</text></g><g><text font-family="Arial,Arial_MSFontService,sans-serif" font-weight="400" font-size="46" transform="matrix(1 0 0 1 298.209 1501)">1.4</text></g><g><text font-family="Arial,Arial_MSFontService,sans-serif" font-weight="400" font-size="46" transform="matrix(1 0 0 1 298.209 1403)">1.6</text></g><g><text font-family="Arial,Arial_MSFontService,sans-serif" font-weight="400" font-size="46" transform="matrix(0.707107 -0.707107 0.707107 0.707107 340.873 2300)">1920</text></g><g><text font-family="Arial,Arial_MSFontService,sans-serif" font-weight="400" font-size="46" transform="matrix(0.707107 -0.707107 0.707107 0.707107 424.061 2300)">1925</text></g><g><text font-family="Arial,Arial_MSFontService,sans-serif" font-weight="400" font-size="46" transform="matrix(0.707107 -0.707107 0.707107 0.707107 507.248 2300)">1930</text></g><g><text font-family="Arial,Arial_MSFontService,sans-serif" font-weight="400" font-size="46" transform="matrix(0.707107 -0.707107 0.707107 0.707107 590.436 2300)">1935</text></g><g><text font-family="Arial,Arial_MSFontService,sans-serif" font-weight="400" font-size="46" transform="matrix(0.707107 -0.707107 0.707107 0.707107 673.623 2300)">1940</text></g><g><text font-family="Arial,Arial_MSFontService,sans-serif" font-weight="400" font-size="46" transform="matrix(0.707107 -0.707107 0.707107 0.707107 756.811 2300)">1945</text></g><g><text font-family="Arial,Arial_MSFontService,sans-serif" font-weight="400" font-size="46" transform="matrix(0.707107 -0.707107 0.707107 0.707107 839.998 2300)">1950</text></g><g><text font-family="Arial,Arial_MSFontService,sans-serif" font-weight="400" font-size="46" transform="matrix(0.707107 -0.707107 0.707107 0.707107 923.186 2300)">1955</text></g><g><text font-family="Arial,Arial_MSFontService,sans-serif" font-weight="400" font-size="46" transform="matrix(0.707107 -0.707107 0.707107 0.707107 1006.37 2300)">1960</text></g><g><text font-family="Arial,Arial_MSFontService,sans-serif" font-weight="400" font-size="46" transform="matrix(0.707107 -0.707107 0.707107 0.707107 1089.56 2300)">1965</text></g><g><text font-family="Arial,Arial_MSFontService,sans-serif" font-weight="400" font-size="46" transform="matrix(0.707107 -0.707107 0.707107 0.707107 1172.75 2300)">1970</text></g><g><text font-family="Arial,Arial_MSFontService,sans-serif" font-weight="400" font-size="46" transform="matrix(0.707107 -0.707107 0.707107 0.707107 1255.94 2300)">1975</text></g><g><text font-family="Arial,Arial_MSFontService,sans-serif" font-weight="400" font-size="46" transform="matrix(0.707107 -0.707107 0.707107 0.707107 1339.12 2300)">1980</text></g><g><text font-family="Arial,Arial_MSFontService,sans-serif" font-weight="400" font-size="46" transform="matrix(0.707107 -0.707107 0.707107 0.707107 1422.31 2300)">1985</text></g><g><text font-family="Arial,Arial_MSFontService,sans-serif" font-weight="400" font-size="46" transform="matrix(0.707107 -0.707107 0.707107 0.707107 1505.5 2300)">1990</text></g><g><text font-family="Arial,Arial_MSFontService,sans-serif" font-weight="400" font-size="46" transform="matrix(0.707107 -0.707107 0.707107 0.707107 1588.69 2300)">1995</text></g><g><text font-family="Arial,Arial_MSFontService,sans-serif" font-weight="400" font-size="46" transform="matrix(0.707107 -0.707107 0.707107 0.707107 1671.87 2300)">2000</text></g><g><text font-family="Arial,Arial_MSFontService,sans-serif" font-weight="400" font-size="46" transform="matrix(0.707107 -0.707107 0.707107 0.707107 1755.06 2300)">2005</text></g><g><text font-family="Arial,Arial_MSFontService,sans-serif" font-weight="400" font-size="46" transform="matrix(0.707107 -0.707107 0.707107 0.707107 1838.25 2300)">2010</text></g><g><text font-family="Arial,Arial_MSFontService,sans-serif" font-weight="400" font-size="46" transform="matrix(0.707107 -0.707107 0.707107 0.707107 1921.44 2300)">2015</text></g><g><text font-family="Arial,Arial_MSFontService,sans-serif" font-weight="400" font-size="46" transform="matrix(0.707107 -0.707107 0.707107 0.707107 2004.62 2300)">2020</text></g><g><text font-family="Arial,Arial_MSFontService,sans-serif" font-weight="400" font-size="46" transform="matrix(0.707107 -0.707107 0.707107 0.707107 2087.81 2300)">2025</text></g><g><text font-family="Arial,Arial_MSFontService,sans-serif" font-weight="700" font-size="50" transform="matrix(6.12323e-17 -1 1 6.12323e-17 273.482 2082)">Relative economic power</text></g><g><text font-family="Arial,Arial_MSFontService,sans-serif" font-weight="700" font-size="64" transform="matrix(1 0 0 1 823.265 1222)">THE MIGHT OF NATIONS</text></g><g><text font-family="Arial,Arial_MSFontService,sans-serif" font-weight="400" font-size="60" transform="matrix(1 0 0 1 848.061 1292)">Market exchange rate view</text></g><g><g><text fill="#2F5597" font-family="Arial,Arial_MSFontService,sans-serif" font-weight="700" font-size="46" transform="matrix(1 0 0 1 992.195 1469)">United States</text></g></g><g><text fill="#548235" font-family="Arial,Arial_MSFontService,sans-serif" font-weight="700" font-size="46" transform="matrix(1 0 0 1 1704.66 1909)">China</text></g><g><text font-family="Arial,Arial_MSFontService,sans-serif" font-weight="700" font-size="46" transform="matrix(1 0 0 1 789.05 1883)">Br. Empire / UK</text></g><g><text fill="#C00000" font-family="Arial,Arial_MSFontService,sans-serif" font-weight="700" font-size="46" transform="matrix(1 0 0 1 476.746 1953)">USSR / Russia</text></g><g><text fill="#9933FF" font-family="Arial,Arial_MSFontService,sans-serif" font-weight="700" font-size="46" transform="matrix(1 0 0 1 1981.75 2010)">India</text></g></g></svg>