<svg width="2057" height="1188" xmlns="http://www.w3.org/2000/svg" xmlns:xlink="http://www.w3.org/1999/xlink" xml:space="preserve" overflow="hidden"><defs><clipPath id="clip0"><rect x="209" y="2439" width="2057" height="1188"/></clipPath></defs><g clip-path="url(#clip0)" transform="translate(-209 -2439)"><rect x="209" y="2439" width="2057" height="1188" fill="#FFFFFF"/><g><path d="M434.5 3384.61 2181.5 3384.61M434.5 3286.61 2181.5 3286.61M434.5 3188.6 2181.5 3188.6M434.5 3091.6 2181.5 3091.6M434.5 2993.6 2181.5 2993.6M434.5 2895.6 2181.5 2895.6M434.5 2797.59 2181.5 2797.59M434.5 2699.5 2181.5 2699.5" stroke="#D9D9D9" stroke-width="3.4375" stroke-linejoin="round" stroke-miterlimit="10" fill="none"/></g><g><path d="M434.5 3482.5 2181.5 3482.5" stroke="#D9D9D9" stroke-width="3.4375" stroke-linejoin="round" stroke-miterlimit="10" fill="none" fill-rule="evenodd"/></g><g><path d="M434.5 3482.5 434.5 3496.5M517.517 3482.5 517.517 3496.5M601.52 3482.5 601.52 3496.5M684.523 3482.5 684.523 3496.5M767.525 3482.5 767.525 3496.5M850.528 3482.5 850.528 3496.5M933.531 3482.5 933.531 3496.5M1017.53 3482.5 1017.53 3496.5M1100.54 3482.5 1100.54 3496.5M1183.54 3482.5 1183.54 3496.5M1266.54 3482.5 1266.54 3496.5M1349.54 3482.5 1349.54 3496.5M1432.55 3482.5 1432.55 3496.5M1516.55 3482.5 1516.55 3496.5M1599.55 3482.5 1599.55 3496.5M1682.56 3482.5 1682.56 3496.5M1765.56 3482.5 1765.56 3496.5M1848.56 3482.5 1848.56 3496.5M1932.56 3482.5 1932.56 3496.5M2015.57 3482.5 2015.57 3496.5M2098.57 3482.5 2098.57 3496.5M2181.5 3482.5 2181.5 3496.5" stroke="#D9D9D9" stroke-width="3.4375" stroke-linejoin="round" stroke-miterlimit="10" fill="none"/></g><g><path d="M434.5 3028.6 451.515 3046.6 468.516 3008.6 484.516 2982.6 501.517 2992.6 517.517 2980.6 534.518 2966.6 551.518 2975.6 567.519 2976.6 584.519 2969.6 601.52 2990.6 617.52 3001.6 634.521 3033.6 651.522 3039.6 667.522 3024.6 684.523 3008.6 700.523 2987.6 717.524 2978.6 734.524 2989.6 750.525 2974.6 767.525 2968.6 784.526 2942.6 800.526 2906.6 817.527 2876.59 834.528 2855.59 850.528 2852.59 867.529 2874.59 883.529 2777.59 900.53 2771.59 917.53 2782.59 933.531 2771.59 950.531 2763.59 967.532 2758.59 983.532 2757.59 1000.53 2767.59 1017.53 2760.59 1033.53 2755.59 1050.53 2747.59 1066.54 2748.59 1083.54 2746.59 1100.54 2755.59 1116.54 2758.59 1133.54 2755.59 1150.54 2752.59 1166.54 2753.59 1183.54 2750.59 1200.54 2744.59 1216.54 2741.5 1233.54 2742.59 1249.54 2748.59 1266.54 2755.59 1283.54 2755.59 1299.54 2753.59 1316.54 2752.59 1333.54 2754.59 1349.54 2753.59 1366.54 2752.59 1383.55 2750.59 1399.55 2747.59 1416.55 2751.59 1432.55 2756.59 1449.55 2760.59 1466.55 2769.59 1482.55 2768.59 1499.55 2762.59 1516.55 2764.59 1532.55 2764.59 1549.55 2766.59 1566.55 2771.59 1582.55 2773.59 1599.55 2778.59 1615.55 2786.59 1632.55 2780.59 1649.55 2774.59 1665.55 2769.59 1682.56 2768.59 1699.56 2767.59 1715.56 2761.59 1732.56 2750.59 1749.56 2744.59 1765.56 2752.59 1782.56 2764.59 1799.56 2778.59 1815.56 2791.59 1832.56 2803.59 1848.56 2818.59 1865.56 2838.59 1882.56 2863.59 1898.56 2883.59 1915.56 2909.6 1932.56 2927.6 1948.56 2945.6 1965.56 2958.6 1982.57 2971.6 1998.57 2982.6 2015.57 2991.6 2031.57 3002.6 2048.57 3013.6 2065.57 3022.6 2081.57 3029.6 2098.57 3039.6 2115.57 3044.6 2131.57 3045.6 2148.57 3051.6 2165.57 3056.6 2181.5 3061.5" stroke="#2E75B6" stroke-width="6.875" stroke-linecap="round" stroke-linejoin="round" stroke-miterlimit="10" fill="none"/></g><g><path d="M434.5 3305.61 451.515 3303.61 468.516 3301.61 484.516 3308.61 501.517 3307.61 517.517 3318.61 534.518 3326.61 551.518 3326.61 567.519 3327.61 584.519 3335.61 601.52 3323.61 617.52 3318.61 634.521 3315.61 651.522 3318.61 667.522 3334.61 684.523 3327.61 700.523 3327.61 717.524 3337.61 734.524 3337.61 750.525 3348.61 767.525 3360.61 784.526 3377.61 800.526 3393.61 817.527 3406.61 834.528 3413.61 850.528 3415.61 867.529 3407.61 883.529 3408.61 900.53 3411.61 917.53 3415.61 933.531 3421.61 950.531 3419.61 967.532 3415.61 983.532 3414.61 1000.53 3412.61 1017.53 3413.61 1033.53 3408.61 1050.53 3406.61 1066.54 3397.61 1083.54 3401.61 1100.54 3404.61 1116.54 3403.61 1133.54 3426.61 1150.54 3431.5 1166.54 3429.61 1183.54 3423.61 1200.54 3418.61 1216.54 3414.61 1233.54 3421.61 1249.54 3425.61 1266.54 3417.61 1283.54 3415.61 1299.54 3416.61 1316.54 3414.61 1333.54 3412.61 1349.54 3407.61 1366.54 3411.61 1383.55 3410.61 1399.55 3406.61 1416.55 3403.61 1432.55 3397.61 1449.55 3395.61 1466.55 3386.61 1482.55 3381.61 1499.55 3374.61 1516.55 3366.61 1532.55 3360.61 1549.55 3352.61 1566.55 3345.61 1582.55 3344.61 1599.55 3342.61 1615.55 3331.61 1632.55 3318.61 1649.55 3303.61 1665.55 3291.61 1682.56 3278.61 1699.56 3269.61 1715.56 3251.61 1732.56 3245.61 1749.56 3241.61 1765.56 3233.61 1782.56 3221.61 1799.56 3208.61 1815.56 3195.6 1832.56 3183.6 1848.56 3167.6 1865.56 3148.6 1882.56 3123.6 1898.56 3103.6 1915.56 3076.6 1932.56 3058.6 1948.56 3040.6 1965.56 3028.6 1982.57 3015.6 1998.57 3004.6 2015.57 2995.6 2031.57 2983.6 2048.57 2973.6 2065.57 2964.6 2081.57 2956.6 2098.57 2947.6 2115.57 2941.6 2131.57 2940.6 2148.57 2935.6 2165.57 2930.6 2181.5 2925.5" stroke="#548235" stroke-width="6.875" stroke-linecap="round" stroke-linejoin="round" stroke-miterlimit="10" fill="none"/></g><g><path d="M434.5 2957.6 451.515 2939.5 468.516 2977.6 484.516 3003.6 501.517 2994.6 517.517 3006.6 534.518 3020.6 551.518 3011.6 567.519 3009.6 584.519 3017.6 601.52 2995.6 617.52 2985.6 634.521 2953.6 651.522 2946.6 667.522 2961.6 684.523 2977.6 700.523 2998.6 717.524 3007.6 734.524 2997.6 750.525 3011.6 767.525 3018.6 784.526 3043.6 800.526 3079.6 817.527 3109.6 834.528 3131.6 850.528 3134.6 867.529 3112.6 883.529 3209.61 900.53 3215.61 917.53 3204.61 933.531 3214.61 950.531 3222.61 967.532 3227.61 983.532 3229.61 1000.53 3218.61 1017.53 3225.61 1033.53 3230.61 1050.53 3239.61 1066.54 3237.61 1083.54 3242.61 1100.54 3256.61 1116.54 3267.61 1133.54 3278.61 1150.54 3282.61 1166.54 3284.61 1183.54 3289.61 1200.54 3296.61 1216.54 3297.61 1233.54 3299.61 1249.54 3300.61 1266.54 3296.61 1283.54 3303.61 1299.54 3304.61 1316.54 3303.61 1333.54 3305.61 1349.54 3307.61 1366.54 3309.61 1383.55 3312.61 1399.55 3313.61 1416.55 3312.61 1432.55 3315.61 1449.55 3319.61 1466.55 3314.61 1482.55 3314.61 1499.55 3322.61 1516.55 3322.61 1532.55 3322.61 1549.55 3319.61 1566.55 3317.61 1582.55 3318.61 1599.55 3319.61 1615.55 3320.61 1632.55 3323.61 1649.55 3323.61 1665.55 3323.61 1682.56 3324.61 1699.56 3325.61 1715.56 3337.61 1732.56 3339.61 1749.56 3341.61 1765.56 3340.61 1782.56 3338.61 1799.56 3338.61 1815.56 3338.61 1832.56 3339.61 1848.56 3340.61 1865.56 3341.61 1882.56 3340.61 1898.56 3340.61 1915.56 3343.61 1932.56 3343.61 1948.56 3344.61 1965.56 3345.61 1982.57 3345.61 1998.57 3344.61 2015.57 3345.61 2031.57 3350.61 2048.57 3354.61 2065.57 3360.61 2081.57 3364.61 2098.57 3376.61 2115.57 3376.61 2131.57 3374.61 2148.57 3379.61 2165.57 3382.61 2181.5 3385.5" stroke="#000000" stroke-width="6.875" stroke-linecap="round" stroke-linejoin="round" stroke-miterlimit="10" fill="none"/></g><g><path d="M884.5 3352.61 900.53 3355.61 917.53 3352.61 933.531 3361.61 950.531 3367.61 967.532 3368.61 983.532 3367.61 1000.53 3362.61 1017.53 3367.61 1033.53 3363.61 1050.53 3367.61 1066.54 3358.61 1083.54 3363.61 1100.54 3359.61 1116.54 3358.61 1133.54 3361.61 1150.54 3359.61 1166.54 3357.61 1183.54 3367.61 1200.54 3373.5 1216.54 3369.61 1233.54 3370.61 1249.54 3367.61 1266.54 3362.61 1283.54 3364.61 1299.54 3369.61 1316.54 3372.61 1333.54 3370.61 1349.54 3361.61 1366.54 3364.61 1383.55 3362.61 1399.55 3362.61 1416.55 3370.61 1432.55 3364.61 1449.55 3360.61 1466.55 3354.61 1482.55 3351.61 1499.55 3355.61 1516.55 3354.61 1532.55 3353.61 1549.55 3352.61 1566.55 3346.61 1582.55 3344.61 1599.55 3339.61 1615.55 3338.61 1632.55 3336.61 1649.55 3333.61 1665.55 3330.61 1682.56 3324.61 1699.56 3319.61 1715.56 3320.61 1732.56 3318.61 1749.56 3312.61 1765.56 3313.61 1782.56 3307.61 1799.56 3304.61 1815.56 3297.61 1832.56 3291.61 1848.56 3285.61 1865.56 3277.61 1882.56 3268.61 1898.56 3263.61 1915.56 3245.61 1932.56 3235.61 1948.56 3228.61 1965.56 3223.61 1982.57 3215.61 1998.57 3205.61 2015.57 3196.61 2031.57 3191.6 2048.57 3191.6 2065.57 3192.6 2081.57 3196.61 2098.57 3211.61 2115.57 3209.61 2131.57 3201.61 2148.57 3196.61 2165.57 3193.6 2181.5 3188.5" stroke="#9933FF" stroke-width="6.875" stroke-linecap="round" stroke-linejoin="round" stroke-miterlimit="10" fill="none"/></g><g><path d="M434.5 3155.6 451.515 3156.6 468.516 3155.6 484.516 3165.6 501.517 3163.6 517.517 3177.6 534.518 3186.6 551.518 3183.6 567.519 3182.6 584.519 3189.6 601.52 3158.6 617.52 3147.6 634.521 3149.6 651.522 3143.6 667.522 3129.6 684.523 3100.6 700.523 3095.6 717.524 3083.6 734.524 3071.5 750.525 3074.6 767.525 3089.6 784.526 3175.6 800.526 3208.61 817.527 3237.61 834.528 3250.61 850.528 3247.61 867.529 3223.61 883.529 3200.61 900.53 3181.6 917.53 3158.6 933.531 3155.6 950.531 3171.6 967.532 3167.6 983.532 3168.6 1000.53 3156.6 1017.53 3153.6 1033.53 3138.6 1050.53 3138.6 1066.54 3120.6 1083.54 3138.6 1100.54 3124.6 1116.54 3118.6 1133.54 3126.6 1150.54 3141.6 1166.54 3127.6 1183.54 3129.6 1200.54 3133.6 1216.54 3129.6 1233.54 3128.6 1249.54 3132.6 1266.54 3116.6 1283.54 3118.6 1299.54 3129.6 1316.54 3123.6 1333.54 3116.6 1349.54 3115.6 1366.54 3116.6 1383.55 3121.6 1399.55 3128.6 1416.55 3136.6 1432.55 3135.6 1449.55 3139.6 1466.55 3129.6 1482.55 3132.6 1499.55 3145.6 1516.55 3152.6 1532.55 3150.6 1549.55 3155.6 1566.55 3159.6 1582.55 3162.6 1599.55 3175.6 1615.55 3256.61 1632.55 3287.61 1649.55 3305.61 1665.55 3329.61 1682.56 3338.61 1699.56 3347.61 1715.56 3350.61 1732.56 3361.5 1749.56 3359.61 1765.56 3353.61 1782.56 3349.61 1799.56 3345.61 1815.56 3340.61 1832.56 3336.61 1848.56 3333.61 1865.56 3326.61 1882.56 3318.61 1898.56 3311.61 1915.56 3319.61 1932.56 3316.61 1948.56 3313.61 1965.56 3311.61 1982.57 3311.61 1998.57 3313.61 2015.57 3320.61 2031.57 3327.61 2048.57 3334.61 2065.57 3338.61 2081.57 3342.61 2098.57 3348.61 2115.57 3350.61 2131.57 3355.61 2148.57 3357.61 2165.57 3358.61 2181.5 3360.61" stroke="#C00000" stroke-width="6.875" stroke-linecap="round" stroke-linejoin="round" stroke-miterlimit="10" fill="none"/></g><g><text font-family="Arial,Arial_MSFontService,sans-serif" font-weight="400" font-size="46" transform="matrix(1 0 0 1 331.638 3498)">0.0</text></g><g><text font-family="Arial,Arial_MSFontService,sans-serif" font-weight="400" font-size="46" transform="matrix(1 0 0 1 331.638 3400)">0.2</text></g><g><text font-family="Arial,Arial_MSFontService,sans-serif" font-weight="400" font-size="46" transform="matrix(1 0 0 1 331.638 3302)">0.4</text></g><g><text font-family="Arial,Arial_MSFontService,sans-serif" font-weight="400" font-size="46" transform="matrix(1 0 0 1 331.638 3204)">0.6</text></g><g><text font-family="Arial,Arial_MSFontService,sans-serif" font-weight="400" font-size="46" transform="matrix(1 0 0 1 331.638 3106)">0.8</text></g><g><text font-family="Arial,Arial_MSFontService,sans-serif" font-weight="400" font-size="46" transform="matrix(1 0 0 1 331.638 3008)">1.0</text></g><g><text font-family="Arial,Arial_MSFontService,sans-serif" font-weight="400" font-size="46" transform="matrix(1 0 0 1 331.638 2911)">1.2</text></g><g><text font-family="Arial,Arial_MSFontService,sans-serif" font-weight="400" font-size="46" transform="matrix(1 0 0 1 331.638 2813)">1.4</text></g><g><text font-family="Arial,Arial_MSFontService,sans-serif" font-weight="400" font-size="46" transform="matrix(1 0 0 1 331.638 2715)">1.6</text></g><g><text font-family="Arial,Arial_MSFontService,sans-serif" font-weight="400" font-size="46" transform="matrix(0.707107 -0.707107 0.707107 0.707107 374.302 3612)">1920</text></g><g><text font-family="Arial,Arial_MSFontService,sans-serif" font-weight="400" font-size="46" transform="matrix(0.707107 -0.707107 0.707107 0.707107 457.49 3612)">1925</text></g><g><text font-family="Arial,Arial_MSFontService,sans-serif" font-weight="400" font-size="46" transform="matrix(0.707107 -0.707107 0.707107 0.707107 540.677 3612)">1930</text></g><g><text font-family="Arial,Arial_MSFontService,sans-serif" font-weight="400" font-size="46" transform="matrix(0.707107 -0.707107 0.707107 0.707107 623.865 3612)">1935</text></g><g><text font-family="Arial,Arial_MSFontService,sans-serif" font-weight="400" font-size="46" transform="matrix(0.707107 -0.707107 0.707107 0.707107 707.052 3612)">1940</text></g><g><text font-family="Arial,Arial_MSFontService,sans-serif" font-weight="400" font-size="46" transform="matrix(0.707107 -0.707107 0.707107 0.707107 790.24 3612)">1945</text></g><g><text font-family="Arial,Arial_MSFontService,sans-serif" font-weight="400" font-size="46" transform="matrix(0.707107 -0.707107 0.707107 0.707107 873.427 3612)">1950</text></g><g><text font-family="Arial,Arial_MSFontService,sans-serif" font-weight="400" font-size="46" transform="matrix(0.707107 -0.707107 0.707107 0.707107 956.615 3612)">1955</text></g><g><text font-family="Arial,Arial_MSFontService,sans-serif" font-weight="400" font-size="46" transform="matrix(0.707107 -0.707107 0.707107 0.707107 1039.8 3612)">1960</text></g><g><text font-family="Arial,Arial_MSFontService,sans-serif" font-weight="400" font-size="46" transform="matrix(0.707107 -0.707107 0.707107 0.707107 1122.99 3612)">1965</text></g><g><text font-family="Arial,Arial_MSFontService,sans-serif" font-weight="400" font-size="46" transform="matrix(0.707107 -0.707107 0.707107 0.707107 1206.18 3612)">1970</text></g><g><text font-family="Arial,Arial_MSFontService,sans-serif" font-weight="400" font-size="46" transform="matrix(0.707107 -0.707107 0.707107 0.707107 1289.36 3612)">1975</text></g><g><text font-family="Arial,Arial_MSFontService,sans-serif" font-weight="400" font-size="46" transform="matrix(0.707107 -0.707107 0.707107 0.707107 1372.55 3612)">1980</text></g><g><text font-family="Arial,Arial_MSFontService,sans-serif" font-weight="400" font-size="46" transform="matrix(0.707107 -0.707107 0.707107 0.707107 1455.74 3612)">1985</text></g><g><text font-family="Arial,Arial_MSFontService,sans-serif" font-weight="400" font-size="46" transform="matrix(0.707107 -0.707107 0.707107 0.707107 1538.93 3612)">1990</text></g><g><text font-family="Arial,Arial_MSFontService,sans-serif" font-weight="400" font-size="46" transform="matrix(0.707107 -0.707107 0.707107 0.707107 1622.11 3612)">1995</text></g><g><text font-family="Arial,Arial_MSFontService,sans-serif" font-weight="400" font-size="46" transform="matrix(0.707107 -0.707107 0.707107 0.707107 1705.3 3612)">2000</text></g><g><text font-family="Arial,Arial_MSFontService,sans-serif" font-weight="400" font-size="46" transform="matrix(0.707107 -0.707107 0.707107 0.707107 1788.49 3612)">2005</text></g><g><text font-family="Arial,Arial_MSFontService,sans-serif" font-weight="400" font-size="46" transform="matrix(0.707107 -0.707107 0.707107 0.707107 1871.68 3612)">2010</text></g><g><text font-family="Arial,Arial_MSFontService,sans-serif" font-weight="400" font-size="46" transform="matrix(0.707107 -0.707107 0.707107 0.707107 1954.86 3612)">2015</text></g><g><text font-family="Arial,Arial_MSFontService,sans-serif" font-weight="400" font-size="46" transform="matrix(0.707107 -0.707107 0.707107 0.707107 2038.05 3612)">2020</text></g><g><text font-family="Arial,Arial_MSFontService,sans-serif" font-weight="400" font-size="46" transform="matrix(0.707107 -0.707107 0.707107 0.707107 2121.24 3612)">2025</text></g><g><text font-family="Arial,Arial_MSFontService,sans-serif" font-weight="700" font-size="50" transform="matrix(6.12323e-17 -1 1 6.12323e-17 306.911 3394)">Relative economic power</text></g><g><text font-family="Arial,Arial_MSFontService,sans-serif" font-weight="700" font-size="64" transform="matrix(1 0 0 1 856.693 2534)">THE MIGHT OF NATIONS</text></g><g><text font-family="Arial,Arial_MSFontService,sans-serif" font-weight="400" font-size="60" transform="matrix(1 0 0 1 850.025 2604)">Purchasing power parity view</text></g><g><g><text fill="#2F5597" font-family="Arial,Arial_MSFontService,sans-serif" font-weight="700" font-size="46" transform="matrix(1 0 0 1 1815.39 2771)">United States</text></g></g><g><text fill="#548235" font-family="Arial,Arial_MSFontService,sans-serif" font-weight="700" font-size="46" transform="matrix(1 0 0 1 1702.1 3147)">China</text></g><g><text font-family="Arial,Arial_MSFontService,sans-serif" font-weight="700" font-size="46" transform="matrix(1 0 0 1 813.017 3049)">Br. Empire / UK</text></g><g><text fill="#C00000" font-family="Arial,Arial_MSFontService,sans-serif" font-weight="700" font-size="46" transform="matrix(1 0 0 1 1279.12 3075)">USSR / Russia</text></g><g><text fill="#9933FF" font-family="Arial,Arial_MSFontService,sans-serif" font-weight="700" font-size="46" transform="matrix(1 0 0 1 2049.26 3165)">India</text></g></g></svg>