<svg width="1887" height="5386" xmlns="http://www.w3.org/2000/svg" xmlns:xlink="http://www.w3.org/1999/xlink" xml:space="preserve" overflow="hidden"><defs><clipPath id="clip0"><rect x="4306" y="789" width="1887" height="5386"/></clipPath></defs><g clip-path="url(#clip0)" transform="translate(-4306 -789)"><rect x="4306" y="789" width="1887" height="5386" fill="#FFFFFF"/><g><path d="M4529.5 1084.5 4529.5 5714.5M4850.66 1084.5 4850.66 5714.5M5493.68 1084.5 5493.68 5714.5M5814.69 1084.5 5814.69 5714.5M6135.5 1084.5 6135.5 5714.5" stroke="#D9D9D9" stroke-width="3.4375" stroke-linejoin="round" stroke-miterlimit="10" fill="none"/></g><g><path d="M5352.18 5643.19 5172.17 5643.19 5172.17 5601.18 5352.18 5601.18ZM5537.18 5583.18 5172.17 5583.18 5172.17 5541.18 5537.18 5541.18ZM5230.17 5400.18 5172.17 5400.18 5172.17 5358.18 5230.17 5358.18ZM5357.18 5339.18 5172.17 5339.18 5172.17 5297.17 5357.18 5297.17ZM5276.17 5278.17 5172.17 5278.17 5172.17 5236.17 5276.17 5236.17ZM5418.18 5156.17 5172.17 5156.17 5172.17 5114.17 5418.18 5114.17ZM5769.19 5095.17 5172.17 5095.17 5172.17 5053.17 5769.19 5053.17ZM5237.17 5034.17 5172.17 5034.17 5172.17 4992.16 5237.17 4992.16ZM5286.17 4791.16 5172.17 4791.16 5172.17 4749.16 5286.17 4749.16ZM5340.18 4730.16 5172.17 4730.16 5172.17 4688.15 5340.18 4688.15ZM5193.17 4608.15 5172.17 4608.15 5172.17 4566.15 5193.17 4566.15ZM5274.17 4547.15 5172.17 4547.15 5172.17 4505.15 5274.17 4505.15ZM5211.17 4486.15 5172.17 4486.15 5172.17 4444.15 5211.17 4444.15ZM5280.17 4425.15 5172.17 4425.15 5172.17 4383.14 5280.17 4383.14ZM5222.17 4364.14 5172.17 4364.14 5172.17 4322.14 5222.17 4322.14ZM5396.18 4303.14 5172.17 4303.14 5172.17 4261.14 5396.18 4261.14ZM5384.18 4060.13 5172.17 4060.13 5172.17 4018.13 5384.18 4018.13ZM5645.19 3999.13 5172.17 3999.13 5172.17 3957.13 5645.19 3957.13ZM5243.17 3877.13 5172.17 3877.13 5172.17 3835.13 5243.17 3835.13ZM5281.17 3816.12 5172.17 3816.12 5172.17 3774.12 5281.17 3774.12ZM5250.17 3755.12 5172.17 3755.12 5172.17 3713.12 5250.17 3713.12ZM5426.18 3694.12 5172.17 3694.12 5172.17 3652.12 5426.18 3652.12ZM5370.18 3633.12 5172.17 3633.12 5172.17 3591.12 5370.18 3591.12ZM5215.17 3450.11 5172.17 3450.11 5172.17 3408.11 5215.17 3408.11ZM5664.19 3390.11 5172.17 3390.11 5172.17 3347.11 5664.19 3347.11ZM5301.17 3329.11 5172.17 3329.11 5172.17 3287.11 5301.17 3287.11ZM5452.18 3146.1 5172.17 3146.1 5172.17 3104.1 5452.18 3104.1ZM5532.18 3085.1 5172.17 3085.1 5172.17 3043.1 5532.18 3043.1ZM5191.17 2963.1 5172.17 2963.1 5172.17 2921.1 5191.17 2921.1ZM5209.17 2902.1 5172.17 2902.1 5172.17 2860.09 5209.17 2860.09ZM5194.17 2841.09 5172.17 2841.09 5172.17 2799.09 5194.17 2799.09ZM5308.17 2780.09 5172.17 2780.09 5172.17 2738.09 5308.17 2738.09ZM5273.17 2719.09 5172.17 2719.09 5172.17 2677.09 5273.17 2677.09ZM5288.17 2537.08 5172.17 2537.08 5172.17 2495.08 5288.17 2495.08ZM5548.18 2476.08 5172.17 2476.08 5172.17 2434.08 5548.18 2434.08ZM5188.17 2354.08 5172.17 2354.08 5172.17 2312.08 5188.17 2312.08ZM5434.18 2293.08 5172.17 2293.08 5172.17 2251.07 5434.18 2251.07ZM5280.17 2232.07 5172.17 2232.07 5172.17 2190.07 5280.17 2190.07ZM5306.17 2110.07 5172.17 2110.07 5172.17 2068.07 5306.17 2068.07ZM5529.18 2049.07 5172.17 2049.07 5172.17 2007.07 5529.18 2007.07ZM5226.17 1988.07 5172.17 1988.07 5172.17 1946.06 5226.17 1946.06ZM5420.18 1927.06 5172.17 1927.06 5172.17 1885.06 5420.18 1885.06ZM5228.17 1684.06 5172.17 1684.06 5172.17 1642.05 5228.17 1642.05ZM5452.18 1623.05 5172.17 1623.05 5172.17 1581.05 5452.18 1581.05ZM5535.18 1562.05 5172.17 1562.05 5172.17 1520.05 5535.18 1520.05ZM5196.17 1379.05 5172.17 1379.05 5172.17 1337.04 5196.17 1337.04ZM5434.18 1318.04 5172.17 1318.04 5172.17 1276.04 5434.18 1276.04ZM5189.17 1257.04 5172.17 1257.04 5172.17 1215.04 5189.17 1215.04ZM5370.18 1196.04 5172.17 1196.04 5172.17 1154.04 5370.18 1154.04Z" fill="#C00000"/></g><g><path d="M5120.17 5704.19 5172.17 5704.19 5172.17 5662.19 5120.17 5662.19ZM5154.17 5583.18 5172.17 5583.18 5172.17 5541.18 5154.17 5541.18ZM4844.16 5522.18 5172.17 5522.18 5172.17 5480.18 4844.16 5480.18ZM4975.16 5461.18 5172.17 5461.18 5172.17 5419.18 4975.16 5419.18ZM5018.16 5400.18 5172.17 5400.18 5172.17 5358.18 5018.16 5358.18ZM5106.17 5278.17 5172.17 5278.17 5172.17 5236.17 5106.17 5236.17ZM5100.17 5217.17 5172.17 5217.17 5172.17 5175.17 5100.17 5175.17ZM5097.17 5156.17 5172.17 5156.17 5172.17 5114.17 5097.17 5114.17ZM5130.17 4912.16 5172.17 4912.16 5172.17 4870.16 5130.17 4870.16ZM4913.16 4852.16 5172.17 4852.16 5172.17 4810.16 4913.16 4810.16ZM4869.16 4791.16 5172.17 4791.16 5172.17 4749.16 4869.16 4749.16ZM5100.17 4730.16 5172.17 4730.16 5172.17 4688.15 5100.17 4688.15ZM4909.16 4669.15 5172.17 4669.15 5172.17 4627.15 4909.16 4627.15ZM4951.16 4608.15 5172.17 4608.15 5172.17 4566.15 4951.16 4566.15ZM5101.17 4547.15 5172.17 4547.15 5172.17 4505.15 5101.17 4505.15ZM5127.17 4486.15 5172.17 4486.15 5172.17 4444.15 5127.17 4444.15ZM5133.17 4242.14 5172.17 4242.14 5172.17 4200.14 5133.17 4200.14ZM4850.16 4181.14 5172.17 4181.14 5172.17 4139.14 4850.16 4139.14ZM4700.15 4121.14 5172.17 4121.14 5172.17 4079.13 4700.15 4079.13ZM4927.16 4060.13 5172.17 4060.13 5172.17 4018.13 4927.16 4018.13ZM5156.17 3999.13 5172.17 3999.13 5172.17 3957.13 5156.17 3957.13ZM5100.17 3938.13 5172.17 3938.13 5172.17 3896.13 5100.17 3896.13ZM5034.17 3877.13 5172.17 3877.13 5172.17 3835.13 5034.17 3835.13ZM4992.16 3511.12 5172.17 3511.12 5172.17 3469.11 4992.16 3469.11ZM4821.16 3450.11 5172.17 3450.11 5172.17 3408.11 4821.16 3408.11ZM5016.16 3268.11 5172.17 3268.11 5172.17 3226.11 5016.16 3226.11ZM5052.17 3207.11 5172.17 3207.11 5172.17 3165.1 5052.17 3165.1ZM5084.17 3146.1 5172.17 3146.1 5172.17 3104.1 5084.17 3104.1ZM5156.17 3024.1 5172.17 3024.1 5172.17 2982.1 5156.17 2982.1ZM5061.17 2719.09 5172.17 2719.09 5172.17 2677.09 5061.17 2677.09ZM4766.16 2658.09 5172.17 2658.09 5172.17 2616.09 4766.16 2616.09ZM4855.16 2598.09 5172.17 2598.09 5172.17 2556.08 4855.16 2556.08ZM4820.16 2537.08 5172.17 2537.08 5172.17 2495.08 4820.16 2495.08ZM5149.17 2476.08 5172.17 2476.08 5172.17 2434.08 5149.17 2434.08ZM4809.16 2415.08 5172.17 2415.08 5172.17 2373.08 4809.16 2373.08ZM5014.16 2354.08 5172.17 2354.08 5172.17 2312.08 5014.16 2312.08ZM5108.17 2232.07 5172.17 2232.07 5172.17 2190.07 5108.17 2190.07ZM5155.17 2171.07 5172.17 2171.07 5172.17 2129.07 5155.17 2129.07ZM5153.17 2049.07 5172.17 2049.07 5172.17 2007.07 5153.17 2007.07ZM4993.16 1988.07 5172.17 1988.07 5172.17 1946.06 4993.16 1946.06ZM5005.16 1501.05 5172.17 1501.05 5172.17 1459.05 5005.16 1459.05ZM4806.16 1440.05 5172.17 1440.05 5172.17 1398.05 4806.16 1398.05ZM4993.16 1379.05 5172.17 1379.05 5172.17 1337.04 4993.16 1337.04ZM5128.17 1196.04 5172.17 1196.04 5172.17 1154.04 5128.17 1154.04ZM4880.16 1136.04 5172.17 1136.04 5172.17 1094.04 4880.16 1094.04Z" fill="#4472C4"/></g><g><path d="M0 0 0.000360892 4630" stroke="#D9D9D9" stroke-width="3.4375" stroke-linejoin="round" stroke-miterlimit="10" fill="none" fill-rule="evenodd" transform="matrix(1 0 0 -1 5171.5 5714.5)"/></g><g><text font-family="Arial,Arial_MSFontService,sans-serif" font-weight="400" font-size="50" transform="matrix(1 0 0 1 4492.95 5790)">-20</text></g><g><text font-family="Arial,Arial_MSFontService,sans-serif" font-weight="400" font-size="50" transform="matrix(1 0 0 1 4814.24 5790)">-10</text></g><g><text font-family="Arial,Arial_MSFontService,sans-serif" font-weight="400" font-size="50" transform="matrix(1 0 0 1 5157.95 5790)">0</text></g><g><text font-family="Arial,Arial_MSFontService,sans-serif" font-weight="400" font-size="50" transform="matrix(1 0 0 1 5465.21 5790)">10</text></g><g><text font-family="Arial,Arial_MSFontService,sans-serif" font-weight="400" font-size="50" transform="matrix(1 0 0 1 5786.5 5790)">20</text></g><g><text font-family="Arial,Arial_MSFontService,sans-serif" font-weight="400" font-size="50" transform="matrix(1 0 0 1 6107.79 5790)">30</text></g><g><text font-family="Arial,Arial_MSFontService,sans-serif" font-weight="400" font-size="50" transform="matrix(1 0 0 1 4373.82 5700)">2025</text></g><g><text font-family="Arial,Arial_MSFontService,sans-serif" font-weight="400" font-size="50" transform="matrix(1 0 0 1 4373.82 5639)">2024</text></g><g><text font-family="Arial,Arial_MSFontService,sans-serif" font-weight="400" font-size="50" transform="matrix(1 0 0 1 4373.82 5578)">2023</text></g><g><text font-family="Arial,Arial_MSFontService,sans-serif" font-weight="400" font-size="50" transform="matrix(1 0 0 1 4373.82 5517)">2022</text></g><g><text font-family="Arial,Arial_MSFontService,sans-serif" font-weight="400" font-size="50" transform="matrix(1 0 0 1 4373.82 5456)">2021</text></g><g><text font-family="Arial,Arial_MSFontService,sans-serif" font-weight="400" font-size="50" transform="matrix(1 0 0 1 4373.82 5395)">2020</text></g><g><text font-family="Arial,Arial_MSFontService,sans-serif" font-weight="400" font-size="50" transform="matrix(1 0 0 1 4373.82 5334)">2019</text></g><g><text font-family="Arial,Arial_MSFontService,sans-serif" font-weight="400" font-size="50" transform="matrix(1 0 0 1 4373.82 5273)">2018</text></g><g><text font-family="Arial,Arial_MSFontService,sans-serif" font-weight="400" font-size="50" transform="matrix(1 0 0 1 4373.82 5213)">2017</text></g><g><text font-family="Arial,Arial_MSFontService,sans-serif" font-weight="400" font-size="50" transform="matrix(1 0 0 1 4373.82 5152)">2016</text></g><g><text font-family="Arial,Arial_MSFontService,sans-serif" font-weight="400" font-size="50" transform="matrix(1 0 0 1 4373.82 5091)">2015</text></g><g><text font-family="Arial,Arial_MSFontService,sans-serif" font-weight="400" font-size="50" transform="matrix(1 0 0 1 4373.82 5030)">2014</text></g><g><text font-family="Arial,Arial_MSFontService,sans-serif" font-weight="400" font-size="50" transform="matrix(1 0 0 1 4373.82 4969)">2013</text></g><g><text font-family="Arial,Arial_MSFontService,sans-serif" font-weight="400" font-size="50" transform="matrix(1 0 0 1 4373.82 4908)">2012</text></g><g><text font-family="Arial,Arial_MSFontService,sans-serif" font-weight="400" font-size="50" transform="matrix(1 0 0 1 4373.82 4847)">2011</text></g><g><text font-family="Arial,Arial_MSFontService,sans-serif" font-weight="400" font-size="50" transform="matrix(1 0 0 1 4373.82 4786)">2010</text></g><g><text font-family="Arial,Arial_MSFontService,sans-serif" font-weight="400" font-size="50" transform="matrix(1 0 0 1 4373.82 4725)">2009</text></g><g><text font-family="Arial,Arial_MSFontService,sans-serif" font-weight="400" font-size="50" transform="matrix(1 0 0 1 4373.82 4664)">2008</text></g><g><text font-family="Arial,Arial_MSFontService,sans-serif" font-weight="400" font-size="50" transform="matrix(1 0 0 1 4373.82 4603)">2007</text></g><g><text font-family="Arial,Arial_MSFontService,sans-serif" font-weight="400" font-size="50" transform="matrix(1 0 0 1 4373.82 4542)">2006</text></g><g><text font-family="Arial,Arial_MSFontService,sans-serif" font-weight="400" font-size="50" transform="matrix(1 0 0 1 4373.82 4482)">2005</text></g><g><text font-family="Arial,Arial_MSFontService,sans-serif" font-weight="400" font-size="50" transform="matrix(1 0 0 1 4373.82 4421)">2004</text></g><g><text font-family="Arial,Arial_MSFontService,sans-serif" font-weight="400" font-size="50" transform="matrix(1 0 0 1 4373.82 4360)">2003</text></g><g><text font-family="Arial,Arial_MSFontService,sans-serif" font-weight="400" font-size="50" transform="matrix(1 0 0 1 4373.82 4299)">2002</text></g><g><text font-family="Arial,Arial_MSFontService,sans-serif" font-weight="400" font-size="50" transform="matrix(1 0 0 1 4373.82 4238)">2001</text></g><g><text font-family="Arial,Arial_MSFontService,sans-serif" font-weight="400" font-size="50" transform="matrix(1 0 0 1 4373.82 4177)">2000</text></g><g><text font-family="Arial,Arial_MSFontService,sans-serif" font-weight="400" font-size="50" transform="matrix(1 0 0 1 4373.82 4116)">1999</text></g><g><text font-family="Arial,Arial_MSFontService,sans-serif" font-weight="400" font-size="50" transform="matrix(1 0 0 1 4373.82 4055)">1998</text></g><g><text font-family="Arial,Arial_MSFontService,sans-serif" font-weight="400" font-size="50" transform="matrix(1 0 0 1 4373.82 3994)">1997</text></g><g><text font-family="Arial,Arial_MSFontService,sans-serif" font-weight="400" font-size="50" transform="matrix(1 0 0 1 4373.82 3933)">1996</text></g><g><text font-family="Arial,Arial_MSFontService,sans-serif" font-weight="400" font-size="50" transform="matrix(1 0 0 1 4373.82 3872)">1995</text></g><g><text font-family="Arial,Arial_MSFontService,sans-serif" font-weight="400" font-size="50" transform="matrix(1 0 0 1 4373.82 3811)">1994</text></g><g><text font-family="Arial,Arial_MSFontService,sans-serif" font-weight="400" font-size="50" transform="matrix(1 0 0 1 4373.82 3750)">1993</text></g><g><text font-family="Arial,Arial_MSFontService,sans-serif" font-weight="400" font-size="50" transform="matrix(1 0 0 1 4373.82 3690)">1992</text></g><g><text font-family="Arial,Arial_MSFontService,sans-serif" font-weight="400" font-size="50" transform="matrix(1 0 0 1 4373.82 3629)">1991</text></g><g><text font-family="Arial,Arial_MSFontService,sans-serif" font-weight="400" font-size="50" transform="matrix(1 0 0 1 4373.82 3568)">1990</text></g><g><text font-family="Arial,Arial_MSFontService,sans-serif" font-weight="400" font-size="50" transform="matrix(1 0 0 1 4373.82 3507)">1989</text></g><g><text font-family="Arial,Arial_MSFontService,sans-serif" font-weight="400" font-size="50" transform="matrix(1 0 0 1 4373.82 3446)">1988</text></g><g><text font-family="Arial,Arial_MSFontService,sans-serif" font-weight="400" font-size="50" transform="matrix(1 0 0 1 4373.82 3385)">1987</text></g><g><text font-family="Arial,Arial_MSFontService,sans-serif" font-weight="400" font-size="50" transform="matrix(1 0 0 1 4373.82 3324)">1986</text></g><g><text font-family="Arial,Arial_MSFontService,sans-serif" font-weight="400" font-size="50" transform="matrix(1 0 0 1 4373.82 3263)">1985</text></g><g><text font-family="Arial,Arial_MSFontService,sans-serif" font-weight="400" font-size="50" transform="matrix(1 0 0 1 4373.82 3202)">1984</text></g><g><text font-family="Arial,Arial_MSFontService,sans-serif" font-weight="400" font-size="50" transform="matrix(1 0 0 1 4373.82 3141)">1983</text></g><g><text font-family="Arial,Arial_MSFontService,sans-serif" font-weight="400" font-size="50" transform="matrix(1 0 0 1 4373.82 3080)">1982</text></g><g><text font-family="Arial,Arial_MSFontService,sans-serif" font-weight="400" font-size="50" transform="matrix(1 0 0 1 4373.82 3019)">1981</text></g><g><text font-family="Arial,Arial_MSFontService,sans-serif" font-weight="400" font-size="50" transform="matrix(1 0 0 1 4373.82 2959)">1980</text></g><g><text font-family="Arial,Arial_MSFontService,sans-serif" font-weight="400" font-size="50" transform="matrix(1 0 0 1 4373.82 2898)">1979</text></g><g><text font-family="Arial,Arial_MSFontService,sans-serif" font-weight="400" font-size="50" transform="matrix(1 0 0 1 4373.82 2837)">1978</text></g><g><text font-family="Arial,Arial_MSFontService,sans-serif" font-weight="400" font-size="50" transform="matrix(1 0 0 1 4373.82 2776)">1977</text></g><g><text font-family="Arial,Arial_MSFontService,sans-serif" font-weight="400" font-size="50" transform="matrix(1 0 0 1 4373.82 2715)">1976</text></g><g><text font-family="Arial,Arial_MSFontService,sans-serif" font-weight="400" font-size="50" transform="matrix(1 0 0 1 4373.82 2654)">1975</text></g><g><text font-family="Arial,Arial_MSFontService,sans-serif" font-weight="400" font-size="50" transform="matrix(1 0 0 1 4373.82 2593)">1974</text></g><g><text font-family="Arial,Arial_MSFontService,sans-serif" font-weight="400" font-size="50" transform="matrix(1 0 0 1 4373.82 2532)">1973</text></g><g><text font-family="Arial,Arial_MSFontService,sans-serif" font-weight="400" font-size="50" transform="matrix(1 0 0 1 4373.82 2471)">1972</text></g><g><text font-family="Arial,Arial_MSFontService,sans-serif" font-weight="400" font-size="50" transform="matrix(1 0 0 1 4373.82 2410)">1971</text></g><g><text font-family="Arial,Arial_MSFontService,sans-serif" font-weight="400" font-size="50" transform="matrix(1 0 0 1 4373.82 2349)">1970</text></g><g><text font-family="Arial,Arial_MSFontService,sans-serif" font-weight="400" font-size="50" transform="matrix(1 0 0 1 4373.82 2288)">1969</text></g><g><text font-family="Arial,Arial_MSFontService,sans-serif" font-weight="400" font-size="50" transform="matrix(1 0 0 1 4373.82 2227)">1968</text></g><g><text font-family="Arial,Arial_MSFontService,sans-serif" font-weight="400" font-size="50" transform="matrix(1 0 0 1 4373.82 2167)">1967</text></g><g><text font-family="Arial,Arial_MSFontService,sans-serif" font-weight="400" font-size="50" transform="matrix(1 0 0 1 4373.82 2106)">1966</text></g><g><text font-family="Arial,Arial_MSFontService,sans-serif" font-weight="400" font-size="50" transform="matrix(1 0 0 1 4373.82 2045)">1965</text></g><g><text font-family="Arial,Arial_MSFontService,sans-serif" font-weight="400" font-size="50" transform="matrix(1 0 0 1 4373.82 1984)">1964</text></g><g><text font-family="Arial,Arial_MSFontService,sans-serif" font-weight="400" font-size="50" transform="matrix(1 0 0 1 4373.82 1923)">1963</text></g><g><text font-family="Arial,Arial_MSFontService,sans-serif" font-weight="400" font-size="50" transform="matrix(1 0 0 1 4373.82 1862)">1962</text></g><g><text font-family="Arial,Arial_MSFontService,sans-serif" font-weight="400" font-size="50" transform="matrix(1 0 0 1 4373.82 1801)">1961</text></g><g><text font-family="Arial,Arial_MSFontService,sans-serif" font-weight="400" font-size="50" transform="matrix(1 0 0 1 4373.82 1740)">1960</text></g><g><text font-family="Arial,Arial_MSFontService,sans-serif" font-weight="400" font-size="50" transform="matrix(1 0 0 1 4373.82 1679)">1959</text></g><g><text font-family="Arial,Arial_MSFontService,sans-serif" font-weight="400" font-size="50" transform="matrix(1 0 0 1 4373.82 1618)">1958</text></g><g><text font-family="Arial,Arial_MSFontService,sans-serif" font-weight="400" font-size="50" transform="matrix(1 0 0 1 4373.82 1557)">1957</text></g><g><text font-family="Arial,Arial_MSFontService,sans-serif" font-weight="400" font-size="50" transform="matrix(1 0 0 1 4373.82 1496)">1956</text></g><g><text font-family="Arial,Arial_MSFontService,sans-serif" font-weight="400" font-size="50" transform="matrix(1 0 0 1 4373.82 1436)">1955</text></g><g><text font-family="Arial,Arial_MSFontService,sans-serif" font-weight="400" font-size="50" transform="matrix(1 0 0 1 4373.82 1375)">1954</text></g><g><text font-family="Arial,Arial_MSFontService,sans-serif" font-weight="400" font-size="50" transform="matrix(1 0 0 1 4373.82 1314)">1953</text></g><g><text font-family="Arial,Arial_MSFontService,sans-serif" font-weight="400" font-size="50" transform="matrix(1 0 0 1 4373.82 1253)">1952</text></g><g><text font-family="Arial,Arial_MSFontService,sans-serif" font-weight="400" font-size="50" transform="matrix(1 0 0 1 4373.82 1192)">1951</text></g><g><text font-family="Arial,Arial_MSFontService,sans-serif" font-weight="400" font-size="50" transform="matrix(1 0 0 1 4373.82 1131)">1950</text></g><g><text font-family="Arial,Arial_MSFontService,sans-serif" font-weight="700" font-size="55" transform="matrix(1 0 0 1 5030.02 5867)">Severity of phenomena</text></g><g><text font-family="Arial,Arial_MSFontService,sans-serif" font-weight="400" font-size="55" transform="matrix(1 0 0 1 4728.78 5930)">Cumulative degrees above / below normal in year</text></g><g><text font-family="Arial,Arial_MSFontService,sans-serif" font-weight="700" font-size="64" transform="matrix(1 0 0 1 4845.83 883)">SOUTHERN OSCILLATION</text></g><g><rect x="5030" y="953" width="26" height="25.0001" fill="#4472C4"/></g><g><text font-family="Arial,Arial_MSFontService,sans-serif" font-weight="400" font-size="50" transform="matrix(1 0 0 1 5066.78 982)">La Niña</text></g><g><rect x="5295" y="953" width="24.9995" height="25.0001" fill="#C00000"/></g><g><text font-family="Arial,Arial_MSFontService,sans-serif" font-weight="400" font-size="50" transform="matrix(1 0 0 1 5331.33 982)">El Niño</text></g><g><g><text font-family="Arial,Arial_MSFontService,sans-serif" font-weight="400" font-size="46" transform="matrix(1 0 0 1 4473.52 6061)">Source: </text></g></g><g><g><text font-family="Calibri,Calibri_MSFontService,sans-serif" font-weight="400" font-size="50" transform="matrix(1 0 0 1 4644.2 6061)">Tellusant analysis; </text></g></g><g><g><text font-family="Arial,Arial_MSFontService,sans-serif" font-weight="400" font-size="46" transform="matrix(1 0 0 1 5027.21 6061)">National Weather Service</text></g></g><path d="M5708.5 1252C5708.5 1218.59 5735.59 1191.5 5769 1191.5L6051 1191.5C6084.41 1191.5 6111.5 1218.59 6111.5 1252L6111.5 1494C6111.5 1527.41 6084.41 1554.5 6051 1554.5L5769 1554.5C5735.59 1554.5 5708.5 1527.41 5708.5 1494Z" stroke="#172C51" stroke-width="4.58333" stroke-miterlimit="8" fill="#FFFFCC" fill-rule="evenodd"/><text font-family="Arial,Arial_MSFontService,sans-serif" font-weight="400" font-size="50" transform="matrix(1 0 0 1 5789.18 1273)">El Niño </text><text font-family="Cambria Math,Cambria Math_MSFontService,sans-serif" font-weight="400" font-size="50" transform="matrix(1 0 0 1 5965.73 1273)">∼</text><text font-family="Arial,Arial_MSFontService,sans-serif" font-weight="400" font-size="50" transform="matrix(1 0 0 1 6001.64 1273)">4 </text><text font-family="Arial,Arial_MSFontService,sans-serif" font-weight="400" font-size="50" transform="matrix(1 0 0 1 5783.31 1331)">years apart</text><text font-family="Arial,Arial_MSFontService,sans-serif" font-weight="400" font-size="50" transform="matrix(1 0 0 1 5777.95 1448)">La Niiña </text><text font-family="Cambria Math,Cambria Math_MSFontService,sans-serif" font-weight="400" font-size="50" transform="matrix(1 0 0 1 5976.98 1448)">∼</text><text font-family="Arial,Arial_MSFontService,sans-serif" font-weight="400" font-size="50" transform="matrix(1 0 0 1 6012.89 1448)">5 </text><g><text font-family="Arial,Arial_MSFontService,sans-serif" font-weight="400" font-size="50" transform="matrix(1 0 0 1 5783.31 1506)">years apart</text></g></g></svg>