<svg width="1867" height="1279" xmlns="http://www.w3.org/2000/svg" xmlns:xlink="http://www.w3.org/1999/xlink" xml:space="preserve" overflow="hidden"><defs><clipPath id="clip0"><rect x="3189" y="2202" width="1867" height="1279"/></clipPath></defs><g clip-path="url(#clip0)" transform="translate(-3189 -2202)"><rect x="3189" y="2202" width="1867" height="1279" fill="#FFFFFF"/><g><path d="M0 0 0.000360892 842" stroke="#D9D9D9" stroke-width="3.4375" stroke-linejoin="round" stroke-miterlimit="10" fill="none" fill-rule="evenodd" transform="matrix(1 0 0 -1 3768.5 3330.5)"/></g><g><path d="M3812.5 3299.61 3768.5 3299.61M3768.5 3289.5 3768.5 3310.5" stroke="#BFBFBF" stroke-width="9.16667" stroke-linejoin="round" stroke-miterlimit="10" fill="none"/></g><g><path d="M3856.5 3239.61 3768.5 3239.61M3768.5 3229.5 3768.5 3250.5" stroke="#BFBFBF" stroke-width="9.16667" stroke-linejoin="round" stroke-miterlimit="10" fill="none"/></g><g><path d="M3865.5 3179.6 3768.5 3179.6M3768.5 3169.5 3768.5 3190.5" stroke="#BFBFBF" stroke-width="9.16667" stroke-linejoin="round" stroke-miterlimit="10" fill="none"/></g><g><path d="M3917.5 3059.6 3768.5 3059.6M3768.5 3049.5 3768.5 3069.5" stroke="#BFBFBF" stroke-width="9.16667" stroke-linejoin="round" stroke-miterlimit="10" fill="none"/></g><g><path d="M3926.5 2999.6 3768.5 2999.6M3768.5 2989.5 3768.5 3009.5" stroke="#BFBFBF" stroke-width="9.16667" stroke-linejoin="round" stroke-miterlimit="10" fill="none"/></g><g><path d="M3952.5 2939.6 3768.5 2939.6M3768.5 2928.5 3768.5 2949.5" stroke="#BFBFBF" stroke-width="9.16667" stroke-linejoin="round" stroke-miterlimit="10" fill="none"/></g><g><path d="M3988.5 2879.59 3768.5 2879.59M3768.5 2868.5 3768.5 2889.5" stroke="#BFBFBF" stroke-width="9.16667" stroke-linejoin="round" stroke-miterlimit="10" fill="none"/></g><g><path d="M3996.5 2818.59 3768.5 2818.59M3768.5 2808.5 3768.5 2829.5" stroke="#BFBFBF" stroke-width="9.16667" stroke-linejoin="round" stroke-miterlimit="10" fill="none"/></g><g><path d="M4111.5 2758.59 3768.5 2758.59M3768.5 2748.5 3768.5 2769.5" stroke="#BFBFBF" stroke-width="9.16667" stroke-linejoin="round" stroke-miterlimit="10" fill="none"/></g><g><path d="M4269.5 2698.59 3768.5 2698.59M3768.5 2688.5 3768.5 2709.5" stroke="#BFBFBF" stroke-width="9.16667" stroke-linejoin="round" stroke-miterlimit="10" fill="none"/></g><g><path d="M4295.5 2638.59 3768.5 2638.59M3768.5 2628.5 3768.5 2648.5" stroke="#BFBFBF" stroke-width="9.16667" stroke-linejoin="round" stroke-miterlimit="10" fill="none"/></g><g><path d="M4708.5 2578.58 3768.5 2578.58M3768.5 2568.5 3768.5 2588.5" stroke="#BFBFBF" stroke-width="9.16667" stroke-linejoin="round" stroke-miterlimit="10" fill="none"/></g><g><path d="M4849.5 2518.58 3768.5 2518.58M3768.5 2508.5 3768.5 2528.5" stroke="#BFBFBF" stroke-width="9.16667" stroke-linejoin="round" stroke-miterlimit="10" fill="none"/></g><g><path d="M3823.24 3300.42C3823.24 3306.49 3818.32 3311.42 3812.24 3311.42 3806.17 3311.42 3801.24 3306.49 3801.24 3300.42 3801.24 3294.34 3806.17 3289.42 3812.24 3289.42 3818.32 3289.42 3823.24 3294.34 3823.24 3300.42Z" stroke="#C00000" stroke-width="22.9167" stroke-linejoin="round" stroke-miterlimit="10" fill="#C00000"/><path d="M3867.24 3239.42C3867.24 3245.49 3862.32 3250.42 3856.24 3250.42 3850.17 3250.42 3845.24 3245.49 3845.24 3239.42 3845.24 3233.34 3850.17 3228.42 3856.24 3228.42 3862.32 3228.42 3867.24 3233.34 3867.24 3239.42Z" stroke="#C00000" stroke-width="22.9167" stroke-linejoin="round" stroke-miterlimit="10" fill="#C00000"/><path d="M3876.24 3179.42C3876.24 3185.49 3871.32 3190.42 3865.24 3190.42 3859.17 3190.42 3854.24 3185.49 3854.24 3179.42 3854.24 3173.34 3859.17 3168.42 3865.24 3168.42 3871.32 3168.42 3876.24 3173.34 3876.24 3179.42Z" stroke="#C00000" stroke-width="22.9167" stroke-linejoin="round" stroke-miterlimit="10" fill="#C00000"/><path d="M3928.24 3059.42C3928.24 3065.49 3923.32 3070.42 3917.24 3070.42 3911.17 3070.42 3906.24 3065.49 3906.24 3059.42 3906.24 3053.34 3911.17 3048.42 3917.24 3048.42 3923.32 3048.42 3928.24 3053.34 3928.24 3059.42Z" stroke="#C00000" stroke-width="22.9167" stroke-linejoin="round" stroke-miterlimit="10" fill="#C00000"/><path d="M3937.24 2999.42C3937.24 3005.49 3932.32 3010.42 3926.24 3010.42 3920.17 3010.42 3915.24 3005.49 3915.24 2999.42 3915.24 2993.34 3920.17 2988.42 3926.24 2988.42 3932.32 2988.42 3937.24 2993.34 3937.24 2999.42Z" stroke="#C00000" stroke-width="22.9167" stroke-linejoin="round" stroke-miterlimit="10" fill="#C00000"/><path d="M3963.24 2939.42C3963.24 2945.49 3958.32 2950.42 3952.24 2950.42 3946.17 2950.42 3941.24 2945.49 3941.24 2939.42 3941.24 2933.34 3946.17 2928.42 3952.24 2928.42 3958.32 2928.42 3963.24 2933.34 3963.24 2939.42Z" stroke="#C00000" stroke-width="22.9167" stroke-linejoin="round" stroke-miterlimit="10" fill="#C00000"/><path d="M3999.24 2879.42C3999.24 2885.49 3994.32 2890.42 3988.24 2890.42 3982.17 2890.42 3977.24 2885.49 3977.24 2879.42 3977.24 2873.34 3982.17 2868.42 3988.24 2868.42 3994.32 2868.42 3999.24 2873.34 3999.24 2879.42Z" stroke="#C00000" stroke-width="22.9167" stroke-linejoin="round" stroke-miterlimit="10" fill="#C00000"/><path d="M4007.24 2818.42C4007.24 2824.49 4002.32 2829.42 3996.24 2829.42 3990.17 2829.42 3985.24 2824.49 3985.24 2818.42 3985.24 2812.34 3990.17 2807.42 3996.24 2807.42 4002.32 2807.42 4007.24 2812.34 4007.24 2818.42Z" stroke="#C00000" stroke-width="22.9167" stroke-linejoin="round" stroke-miterlimit="10" fill="#C00000"/><path d="M4122.24 2758.42C4122.24 2764.49 4117.32 2769.42 4111.24 2769.42 4105.17 2769.42 4100.24 2764.49 4100.24 2758.42 4100.24 2752.34 4105.17 2747.42 4111.24 2747.42 4117.32 2747.42 4122.24 2752.34 4122.24 2758.42Z" stroke="#C00000" stroke-width="22.9167" stroke-linejoin="round" stroke-miterlimit="10" fill="#C00000"/><path d="M4280.24 2698.42C4280.24 2704.49 4275.32 2709.42 4269.24 2709.42 4263.17 2709.42 4258.24 2704.49 4258.24 2698.42 4258.24 2692.34 4263.17 2687.42 4269.24 2687.42 4275.32 2687.42 4280.24 2692.34 4280.24 2698.42Z" stroke="#C00000" stroke-width="22.9167" stroke-linejoin="round" stroke-miterlimit="10" fill="#C00000"/><path d="M4306.24 2638.42C4306.24 2644.49 4301.32 2649.42 4295.24 2649.42 4289.17 2649.42 4284.24 2644.49 4284.24 2638.42 4284.24 2632.34 4289.17 2627.42 4295.24 2627.42 4301.32 2627.42 4306.24 2632.34 4306.24 2638.42Z" stroke="#C00000" stroke-width="22.9167" stroke-linejoin="round" stroke-miterlimit="10" fill="#C00000"/><path d="M4719.24 2578.42C4719.24 2584.49 4714.32 2589.42 4708.24 2589.42 4702.17 2589.42 4697.24 2584.49 4697.24 2578.42 4697.24 2572.34 4702.17 2567.42 4708.24 2567.42 4714.32 2567.42 4719.24 2572.34 4719.24 2578.42Z" stroke="#C00000" stroke-width="22.9167" stroke-linejoin="round" stroke-miterlimit="10" fill="#C00000"/><path d="M4860.24 2518.42C4860.24 2524.49 4855.32 2529.42 4849.24 2529.42 4843.17 2529.42 4838.24 2524.49 4838.24 2518.42 4838.24 2512.34 4843.17 2507.42 4849.24 2507.42 4855.32 2507.42 4860.24 2512.34 4860.24 2518.42Z" stroke="#C00000" stroke-width="22.9167" stroke-linejoin="round" stroke-miterlimit="10" fill="#C00000"/></g><g><text fill="#404040" font-family="Arial,Arial_MSFontService,sans-serif" font-weight="400" font-size="50" transform="matrix(1 0 0 1 3865.3 3318)">0,5%</text></g><g><text fill="#404040" font-family="Arial,Arial_MSFontService,sans-serif" font-weight="400" font-size="50" transform="matrix(1 0 0 1 3909.24 3258)">1,0%</text></g><g><text fill="#404040" font-family="Arial,Arial_MSFontService,sans-serif" font-weight="400" font-size="50" transform="matrix(1 0 0 1 3918.03 3198)">1,1%</text></g><g><text fill="#404040" font-family="Arial,Arial_MSFontService,sans-serif" font-weight="400" font-size="50" transform="matrix(1 0 0 1 3970.76 3078)">1,7%</text></g><g><text fill="#404040" font-family="Arial,Arial_MSFontService,sans-serif" font-weight="400" font-size="50" transform="matrix(1 0 0 1 3979.55 3017)">1,8%</text></g><g><text fill="#404040" font-family="Arial,Arial_MSFontService,sans-serif" font-weight="400" font-size="50" transform="matrix(1 0 0 1 4005.91 2957)">2,1%</text></g><g><text fill="#404040" font-family="Arial,Arial_MSFontService,sans-serif" font-weight="400" font-size="50" transform="matrix(1 0 0 1 4041.06 2897)">2,5%</text></g><g><text fill="#404040" font-family="Arial,Arial_MSFontService,sans-serif" font-weight="400" font-size="50" transform="matrix(1 0 0 1 4049.85 2837)">2,6%</text></g><g><text fill="#404040" font-family="Arial,Arial_MSFontService,sans-serif" font-weight="400" font-size="50" transform="matrix(1 0 0 1 4164.1 2777)">3,9%</text></g><g><text fill="#404040" font-family="Arial,Arial_MSFontService,sans-serif" font-weight="400" font-size="50" transform="matrix(1 0 0 1 4322.29 2717)">5,7%</text></g><g><text fill="#404040" font-family="Arial,Arial_MSFontService,sans-serif" font-weight="400" font-size="50" transform="matrix(1 0 0 1 4348.66 2657)">6,0%</text></g><g><text fill="#404040" font-family="Arial,Arial_MSFontService,sans-serif" font-weight="400" font-size="50" transform="matrix(1 0 0 1 4761.71 2596)">10,7%</text></g><g><text fill="#404040" font-family="Arial,Arial_MSFontService,sans-serif" font-weight="400" font-size="50" transform="matrix(1 0 0 1 4899.09 2536)">12,3%</text></g><g><text font-family="Arial,Arial_MSFontService,sans-serif" font-weight="400" font-size="50" transform="matrix(1 0 0 1 3489.66 3316)">USA   (35)</text></g><g><text font-family="Arial,Arial_MSFontService,sans-serif" font-weight="400" font-size="50" transform="matrix(1 0 0 1 3416.78 3256)">Storbrit.   (13)</text></g><g><text font-family="Arial,Arial_MSFontService,sans-serif" font-weight="400" font-size="50" transform="matrix(1 0 0 1 3391.53 3196)">Tyskland   (12)</text></g><g><text font-family="Arial,Arial_MSFontService,sans-serif" font-weight="400" font-size="50" transform="matrix(1 0 0 1 3425.08 3076)">Belgien (10)</text></g><g><text font-family="Arial,Arial_MSFontService,sans-serif" font-weight="400" font-size="50" transform="matrix(1 0 0 1 3492.38 3016)">Polen   (9)</text></g><g><text font-family="Arial,Arial_MSFontService,sans-serif" font-weight="400" font-size="50" transform="matrix(1 0 0 1 3436.33 2956)">Egypten   (8)</text></g><g><text font-family="Arial,Arial_MSFontService,sans-serif" font-weight="400" font-size="50" transform="matrix(1 0 0 1 3441.9 2895)">Lettland   (7)</text></g><g><text font-family="Arial,Arial_MSFontService,sans-serif" font-weight="400" font-size="50" transform="matrix(1 0 0 1 3455.9 2835)">Litauen   (6)</text></g><g><text font-family="Arial,Arial_MSFontService,sans-serif" font-weight="400" font-size="50" transform="matrix(1 0 0 1 3486.79 2775)">Island   (5)</text></g><g><text font-family="Arial,Arial_MSFontService,sans-serif" font-weight="400" font-size="50" transform="matrix(1 0 0 1 3416.78 2715)">Danmark   (4)</text></g><g><text font-family="Arial,Arial_MSFontService,sans-serif" font-weight="400" font-size="50" transform="matrix(1 0 0 1 3453.17 2655)">Estland   (3)</text></g><g><text font-family="Arial,Arial_MSFontService,sans-serif" font-weight="400" font-size="50" transform="matrix(1 0 0 1 3455.95 2595)">Finland   (2)</text></g><g><text font-family="Arial,Arial_MSFontService,sans-serif" font-weight="400" font-size="50" transform="matrix(1 0 0 1 3484 2535)">Norge   (1)</text></g><g><text font-family="Arial,Arial_MSFontService,sans-serif" font-weight="700" font-size="64" transform="matrix(1 0 0 1 3487.37 2345)">SVERIGES ANDEL AV MOTTAGANDE LANDS </text></g><g><text font-family="Arial,Arial_MSFontService,sans-serif" font-weight="700" font-size="64" transform="matrix(1 0 0 1 4050.09 2420)">IMPORT</text></g><g><text font-family="Arial,Arial_MSFontService,sans-serif" font-weight="400" font-size="46" transform="matrix(1 0 0 1 3772.23 3423)">Källa: SCB; Tellusant analys</text></g><path d="M3697 2416 3669 2461 3641 2416Z" fill-rule="evenodd"/><g><text font-family="Arial,Arial_MSFontService,sans-serif" font-weight="400" font-size="46" transform="matrix(1 0 0 1 3717.61 2456)">Rangordning</text></g></g></svg>