<svg width="1874" height="1983" xmlns="http://www.w3.org/2000/svg" xmlns:xlink="http://www.w3.org/1999/xlink" xml:space="preserve" overflow="hidden">

<metadata
  xmlns:dc="http://purl.org/dc/elements/1.1/">
  <dc:title>Greenhouse Gas Productivity in 2022</dc:title>
  <dc:creator>Staffan Canback</dc:creator>
  <dc:publisher>Tellusant, Inc.</dc:publisher>
  <dc:description>
    Climate change is the problem of the century. How do countries differ in their ability to manage the greenhouse gases (GHG) that cause it?
  </dc:description>
  <dc:rights>Copyright 2024, Staffan Canback</dc:rights>
  <dc:license>CC BY-SA 4.0</dc:license>
</metadata>

<defs><clipPath id="clip0"><rect x="389" y="488" width="1874" height="1983"/></clipPath><clipPath id="clip1"><rect x="910" y="724" width="1250" height="1547"/></clipPath><clipPath id="clip2"><rect x="910" y="724" width="1250" height="1547"/></clipPath><clipPath id="clip3"><rect x="910" y="724" width="1250" height="1547"/></clipPath><clipPath id="clip4"><rect x="910" y="724" width="1250" height="1547"/></clipPath><clipPath id="clip5"><rect x="910" y="724" width="1250" height="1547"/></clipPath><clipPath id="clip6"><rect x="910" y="724" width="1250" height="1547"/></clipPath><clipPath id="clip7"><rect x="910" y="724" width="1250" height="1547"/></clipPath><clipPath id="clip8"><rect x="910" y="724" width="1250" height="1547"/></clipPath><clipPath id="clip9"><rect x="910" y="724" width="1250" height="1547"/></clipPath><clipPath id="clip10"><rect x="910" y="724" width="1250" height="1547"/></clipPath><clipPath id="clip11"><rect x="910" y="724" width="1250" height="1547"/></clipPath><clipPath id="clip12"><rect x="910" y="724" width="1250" height="1547"/></clipPath><clipPath id="clip13"><rect x="910" y="724" width="1250" height="1547"/></clipPath><clipPath id="clip14"><rect x="910" y="724" width="1250" height="1547"/></clipPath><clipPath id="clip15"><rect x="910" y="724" width="1250" height="1547"/></clipPath><clipPath id="clip16"><rect x="910" y="724" width="1250" height="1547"/></clipPath><clipPath id="clip17"><rect x="910" y="724" width="1250" height="1547"/></clipPath><clipPath id="clip18"><rect x="910" y="724" width="1250" height="1547"/></clipPath><clipPath id="clip19"><rect x="910" y="724" width="1250" height="1547"/></clipPath><clipPath id="clip20"><rect x="910" y="724" width="1250" height="1547"/></clipPath><clipPath id="clip21"><rect x="910" y="724" width="1250" height="1547"/></clipPath><clipPath id="clip22"><rect x="910" y="724" width="1250" height="1547"/></clipPath><clipPath id="clip23"><rect x="910" y="724" width="1250" height="1547"/></clipPath><clipPath id="clip24"><rect x="910" y="724" width="1250" height="1547"/></clipPath><clipPath id="clip25"><rect x="389" y="488" width="1817" height="1825"/></clipPath><clipPath id="clip26"><rect x="-97" y="1979" width="1687" height="60"/></clipPath><clipPath id="clip27"><rect x="-97" y="1979" width="1687" height="60"/></clipPath><clipPath id="clip28"><rect x="-97" y="1979" width="1687" height="60"/></clipPath><clipPath id="clip29"><rect x="-97" y="1979" width="1687" height="60"/></clipPath><clipPath id="clip30"><rect x="-97" y="1979" width="1687" height="60"/></clipPath><clipPath id="clip31"><rect x="-97" y="1979" width="1687" height="60"/></clipPath><clipPath id="clip32"><rect x="-97" y="1979" width="1687" height="60"/></clipPath><clipPath id="clip33"><rect x="-97" y="1979" width="1687" height="60"/></clipPath><clipPath id="clip34"><rect x="-909" y="721" width="3108" height="60"/></clipPath><clipPath id="clip35"><rect x="-909" y="721" width="3108" height="60"/></clipPath><clipPath id="clip36"><rect x="-909" y="721" width="3108" height="60"/></clipPath><clipPath id="clip37"><rect x="-909" y="721" width="3108" height="60"/></clipPath><clipPath id="clip38"><rect x="-909" y="721" width="3108" height="60"/></clipPath><clipPath id="clip39"><rect x="-909" y="721" width="3108" height="60"/></clipPath><clipPath id="clip40"><rect x="-909" y="721" width="3108" height="60"/></clipPath><clipPath id="clip41"><rect x="-909" y="721" width="3108" height="60"/></clipPath><clipPath id="clip42"><rect x="-909" y="721" width="3108" height="60"/></clipPath><clipPath id="clip43"><rect x="-909" y="721" width="3108" height="60"/></clipPath><clipPath id="clip44"><rect x="-909" y="721" width="3108" height="60"/></clipPath><clipPath id="clip45"><rect x="-909" y="721" width="3108" height="60"/></clipPath><clipPath id="clip46"><rect x="-909" y="721" width="3108" height="60"/></clipPath><clipPath id="clip47"><rect x="-909" y="721" width="3108" height="60"/></clipPath></defs><g clip-path="url(#clip0)" transform="translate(-389 -488)"><rect x="389" y="488" width="1818" height="1826" fill="#FFFFFF"/><g><path d="M0 0 0.000360892 1543" stroke="#D9D9D9" stroke-width="3.4375" stroke-linejoin="round" stroke-miterlimit="10" fill="none" fill-rule="evenodd" transform="matrix(1 0 0 -1 910.5 2267.5)"/></g><g clip-path="url(#clip1)"><path d="M960 2239 910 2239" stroke="#A6A6A6" stroke-width="2.29167" stroke-linejoin="round" stroke-miterlimit="10" fill="none"/></g><g clip-path="url(#clip2)"><path d="M1028 2182 910 2182" stroke="#A6A6A6" stroke-width="2.29167" stroke-linejoin="round" stroke-miterlimit="10" fill="none"/></g><g clip-path="url(#clip3)"><path d="M1734 2125 910 2125" stroke="#A6A6A6" stroke-width="2.29167" stroke-linejoin="round" stroke-miterlimit="10" fill="none"/></g><g clip-path="url(#clip4)"><path d="M2082 2068 910 2068" stroke="#A6A6A6" stroke-width="2.29167" stroke-linejoin="round" stroke-miterlimit="10" fill="none"/></g><g clip-path="url(#clip5)"><path d="M1016 1896 910 1896" stroke="#A6A6A6" stroke-width="2.29167" stroke-linejoin="round" stroke-miterlimit="10" fill="none"/></g><g clip-path="url(#clip6)"><path d="M1038 1839 910 1839" stroke="#A6A6A6" stroke-width="2.29167" stroke-linejoin="round" stroke-miterlimit="10" fill="none"/></g><g clip-path="url(#clip7)"><path d="M1050 1782 910 1782" stroke="#A6A6A6" stroke-width="2.29167" stroke-linejoin="round" stroke-miterlimit="10" fill="none"/></g><g clip-path="url(#clip8)"><path d="M1079 1725 910 1725" stroke="#A6A6A6" stroke-width="2.29167" stroke-linejoin="round" stroke-miterlimit="10" fill="none"/></g><g clip-path="url(#clip9)"><path d="M1094 1668 910 1668" stroke="#A6A6A6" stroke-width="2.29167" stroke-linejoin="round" stroke-miterlimit="10" fill="none"/></g><g clip-path="url(#clip10)"><path d="M1124 1610 910 1610" stroke="#A6A6A6" stroke-width="2.29167" stroke-linejoin="round" stroke-miterlimit="10" fill="none"/></g><g clip-path="url(#clip11)"><path d="M1127 1553 910 1553" stroke="#A6A6A6" stroke-width="2.29167" stroke-linejoin="round" stroke-miterlimit="10" fill="none"/></g><g clip-path="url(#clip12)"><path d="M1129 1496 910 1496" stroke="#A6A6A6" stroke-width="2.29167" stroke-linejoin="round" stroke-miterlimit="10" fill="none"/></g><g clip-path="url(#clip13)"><path d="M1130 1439 910 1439" stroke="#A6A6A6" stroke-width="2.29167" stroke-linejoin="round" stroke-miterlimit="10" fill="none"/></g><g clip-path="url(#clip14)"><path d="M1131 1382 910 1382" stroke="#A6A6A6" stroke-width="2.29167" stroke-linejoin="round" stroke-miterlimit="10" fill="none"/></g><g clip-path="url(#clip15)"><path d="M1137 1325 910 1325" stroke="#A6A6A6" stroke-width="2.29167" stroke-linejoin="round" stroke-miterlimit="10" fill="none"/></g><g clip-path="url(#clip16)"><path d="M1160 1267 910 1267" stroke="#A6A6A6" stroke-width="2.29167" stroke-linejoin="round" stroke-miterlimit="10" fill="none"/></g><g clip-path="url(#clip17)"><path d="M1172 1210 910 1210" stroke="#A6A6A6" stroke-width="2.29167" stroke-linejoin="round" stroke-miterlimit="10" fill="none"/></g><g clip-path="url(#clip18)"><path d="M1205 1153 910 1153" stroke="#A6A6A6" stroke-width="2.29167" stroke-linejoin="round" stroke-miterlimit="10" fill="none"/></g><g clip-path="url(#clip19)"><path d="M1213 1096 910 1096" stroke="#A6A6A6" stroke-width="2.29167" stroke-linejoin="round" stroke-miterlimit="10" fill="none"/></g><g clip-path="url(#clip20)"><path d="M1260 1039 910 1039" stroke="#A6A6A6" stroke-width="2.29167" stroke-linejoin="round" stroke-miterlimit="10" fill="none"/></g><g clip-path="url(#clip21)"><path d="M1260 981 910 981" stroke="#A6A6A6" stroke-width="2.29167" stroke-linejoin="round" stroke-miterlimit="10" fill="none"/></g><g clip-path="url(#clip22)"><path d="M1269 924 910 924" stroke="#A6A6A6" stroke-width="2.29167" stroke-linejoin="round" stroke-miterlimit="10" fill="none"/></g><g clip-path="url(#clip23)"><path d="M1404 867 910 867" stroke="#A6A6A6" stroke-width="2.29167" stroke-linejoin="round" stroke-miterlimit="10" fill="none"/></g><g clip-path="url(#clip24)"><path d="M1551 810 910 810" stroke="#A6A6A6" stroke-width="2.29167" stroke-linejoin="round" stroke-miterlimit="10" fill="none"/></g><g><path d="M976.052 2239.05C976.052 2247.89 968.889 2255.05 960.052 2255.05 951.216 2255.05 944.053 2247.89 944.053 2239.05 944.053 2230.22 951.216 2223.05 960.052 2223.05 968.889 2223.05 976.052 2230.22 976.052 2239.05Z" fill="#C00000"/><path d="M1044.05 2182.05C1044.05 2190.89 1036.89 2198.05 1028.05 2198.05 1019.22 2198.05 1012.05 2190.89 1012.05 2182.05 1012.05 2173.22 1019.22 2166.05 1028.05 2166.05 1036.89 2166.05 1044.05 2173.22 1044.05 2182.05Z" fill="#C00000"/><path d="M1750.05 2125.05C1750.05 2133.89 1742.89 2141.05 1734.05 2141.05 1725.22 2141.05 1718.05 2133.89 1718.05 2125.05 1718.05 2116.22 1725.22 2109.05 1734.05 2109.05 1742.89 2109.05 1750.05 2116.22 1750.05 2125.05Z" fill="#C00000"/><path d="M2098.05 2068.05C2098.05 2076.89 2090.89 2084.05 2082.05 2084.05 2073.22 2084.05 2066.05 2076.89 2066.05 2068.05 2066.05 2059.22 2073.22 2052.05 2082.05 2052.05 2090.89 2052.05 2098.05 2059.22 2098.05 2068.05Z" fill="#C00000"/><path d="M1032.05 1896.05C1032.05 1904.89 1024.89 1912.05 1016.05 1912.05 1007.22 1912.05 1000.05 1904.89 1000.05 1896.05 1000.05 1887.22 1007.22 1880.05 1016.05 1880.05 1024.89 1880.05 1032.05 1887.22 1032.05 1896.05Z" fill="#C00000"/><path d="M1054.05 1839.05C1054.05 1847.89 1046.89 1855.05 1038.05 1855.05 1029.22 1855.05 1022.05 1847.89 1022.05 1839.05 1022.05 1830.22 1029.22 1823.05 1038.05 1823.05 1046.89 1823.05 1054.05 1830.22 1054.05 1839.05Z" fill="#C00000"/><path d="M1066.05 1782.05C1066.05 1790.89 1058.89 1798.05 1050.05 1798.05 1041.22 1798.05 1034.05 1790.89 1034.05 1782.05 1034.05 1773.22 1041.22 1766.05 1050.05 1766.05 1058.89 1766.05 1066.05 1773.22 1066.05 1782.05Z" fill="#C00000"/><path d="M1095.05 1725.05C1095.05 1733.89 1087.89 1741.05 1079.05 1741.05 1070.22 1741.05 1063.05 1733.89 1063.05 1725.05 1063.05 1716.22 1070.22 1709.05 1079.05 1709.05 1087.89 1709.05 1095.05 1716.22 1095.05 1725.05Z" fill="#C00000"/><path d="M1110.05 1668.05C1110.05 1676.89 1102.89 1684.05 1094.05 1684.05 1085.22 1684.05 1078.05 1676.89 1078.05 1668.05 1078.05 1659.22 1085.22 1652.05 1094.05 1652.05 1102.89 1652.05 1110.05 1659.22 1110.05 1668.05Z" fill="#C00000"/><path d="M1140.05 1610.05C1140.05 1618.89 1132.89 1626.05 1124.05 1626.05 1115.22 1626.05 1108.05 1618.89 1108.05 1610.05 1108.05 1601.22 1115.22 1594.05 1124.05 1594.05 1132.89 1594.05 1140.05 1601.22 1140.05 1610.05Z" fill="#C00000"/><path d="M1143.05 1553.05C1143.05 1561.89 1135.89 1569.05 1127.05 1569.05 1118.22 1569.05 1111.05 1561.89 1111.05 1553.05 1111.05 1544.22 1118.22 1537.05 1127.05 1537.05 1135.89 1537.05 1143.05 1544.22 1143.05 1553.05Z" fill="#C00000"/><path d="M1145.05 1496.05C1145.05 1504.89 1137.89 1512.05 1129.05 1512.05 1120.22 1512.05 1113.05 1504.89 1113.05 1496.05 1113.05 1487.22 1120.22 1480.05 1129.05 1480.05 1137.89 1480.05 1145.05 1487.22 1145.05 1496.05Z" fill="#C00000"/><path d="M1146.05 1439.05C1146.05 1447.89 1138.89 1455.05 1130.05 1455.05 1121.22 1455.05 1114.05 1447.89 1114.05 1439.05 1114.05 1430.22 1121.22 1423.05 1130.05 1423.05 1138.89 1423.05 1146.05 1430.22 1146.05 1439.05Z" fill="#C00000"/><path d="M1147.05 1382.05C1147.05 1390.89 1139.89 1398.05 1131.05 1398.05 1122.22 1398.05 1115.05 1390.89 1115.05 1382.05 1115.05 1373.22 1122.22 1366.05 1131.05 1366.05 1139.89 1366.05 1147.05 1373.22 1147.05 1382.05Z" fill="#C00000"/><path d="M1153.05 1325.05C1153.05 1333.89 1145.89 1341.05 1137.05 1341.05 1128.22 1341.05 1121.05 1333.89 1121.05 1325.05 1121.05 1316.22 1128.22 1309.05 1137.05 1309.05 1145.89 1309.05 1153.05 1316.22 1153.05 1325.05Z" fill="#C00000"/><path d="M1176.05 1267.05C1176.05 1275.89 1168.89 1283.05 1160.05 1283.05 1151.22 1283.05 1144.05 1275.89 1144.05 1267.05 1144.05 1258.22 1151.22 1251.05 1160.05 1251.05 1168.89 1251.05 1176.05 1258.22 1176.05 1267.05Z" fill="#C00000"/><path d="M1188.05 1210.05C1188.05 1218.89 1180.89 1226.05 1172.05 1226.05 1163.22 1226.05 1156.05 1218.89 1156.05 1210.05 1156.05 1201.22 1163.22 1194.05 1172.05 1194.05 1180.89 1194.05 1188.05 1201.22 1188.05 1210.05Z" fill="#C00000"/><path d="M1221.05 1153.05C1221.05 1161.89 1213.89 1169.05 1205.05 1169.05 1196.22 1169.05 1189.05 1161.89 1189.05 1153.05 1189.05 1144.22 1196.22 1137.05 1205.05 1137.05 1213.89 1137.05 1221.05 1144.22 1221.05 1153.05Z" fill="#C00000"/><path d="M1229.05 1096.05C1229.05 1104.89 1221.89 1112.05 1213.05 1112.05 1204.22 1112.05 1197.05 1104.89 1197.05 1096.05 1197.05 1087.22 1204.22 1080.05 1213.05 1080.05 1221.89 1080.05 1229.05 1087.22 1229.05 1096.05Z" fill="#C00000"/><path d="M1276.05 1039.05C1276.05 1047.89 1268.89 1055.05 1260.05 1055.05 1251.22 1055.05 1244.05 1047.89 1244.05 1039.05 1244.05 1030.22 1251.22 1023.05 1260.05 1023.05 1268.89 1023.05 1276.05 1030.22 1276.05 1039.05Z" fill="#C00000"/><path d="M1276.05 981.052C1276.05 989.889 1268.89 997.052 1260.05 997.052 1251.22 997.052 1244.05 989.889 1244.05 981.052 1244.05 972.216 1251.22 965.053 1260.05 965.053 1268.89 965.053 1276.05 972.216 1276.05 981.052Z" fill="#C00000"/><path d="M1285.05 924.053C1285.05 932.889 1277.89 940.053 1269.05 940.053 1260.22 940.053 1253.05 932.889 1253.05 924.053 1253.05 915.216 1260.22 908.053 1269.05 908.053 1277.89 908.053 1285.05 915.216 1285.05 924.053Z" fill="#C00000"/><path d="M1420.05 867.053C1420.05 875.889 1412.89 883.052 1404.05 883.052 1395.22 883.052 1388.05 875.889 1388.05 867.053 1388.05 858.216 1395.22 851.053 1404.05 851.053 1412.89 851.053 1420.05 858.216 1420.05 867.053Z" fill="#C00000"/><path d="M1567.05 810.053C1567.05 818.889 1559.89 826.052 1551.05 826.052 1542.22 826.052 1535.05 818.889 1535.05 810.053 1535.05 801.216 1542.22 794.053 1551.05 794.053 1559.89 794.053 1567.05 801.216 1567.05 810.053Z" fill="#C00000"/></g><g><text font-family="Arial,Arial_MSFontService,sans-serif" font-weight="400" font-size="50" transform="matrix(1 0 0 1 1017.93 2257)">0.6 </text></g><g><text font-family="Arial,Arial_MSFontService,sans-serif" font-weight="400" font-size="50" transform="matrix(1 0 0 1 1085.82 2200)">1.4 </text></g><g><text font-family="Arial,Arial_MSFontService,sans-serif" font-weight="400" font-size="50" transform="matrix(1 0 0 1 1791.53 2143)">9.9 </text></g><g clip-path="url(#clip25)"><text font-family="Arial,Arial_MSFontService,sans-serif" font-weight="400" font-size="50" transform="matrix(1 0 0 1 2094.76 2086)">14.0 </text></g><g><text font-family="Arial,Arial_MSFontService,sans-serif" font-weight="400" font-size="50" transform="matrix(1 0 0 1 1073.69 1914)">1.3 </text></g><g><text font-family="Arial,Arial_MSFontService,sans-serif" font-weight="400" font-size="50" transform="matrix(1 0 0 1 1095.09 1857)">1.5 </text></g><g><text font-family="Arial,Arial_MSFontService,sans-serif" font-weight="400" font-size="50" transform="matrix(1 0 0 1 1107.51 1800)">1.7 </text></g><g><text font-family="Arial,Arial_MSFontService,sans-serif" font-weight="400" font-size="50" transform="matrix(1 0 0 1 1136.46 1743)">2.0 </text></g><g><text font-family="Arial,Arial_MSFontService,sans-serif" font-weight="400" font-size="50" transform="matrix(1 0 0 1 1151.25 1686)">2.2 </text></g><g><text font-family="Arial,Arial_MSFontService,sans-serif" font-weight="400" font-size="50" transform="matrix(1 0 0 1 1181.44 1628)">2.6 </text></g><g><text font-family="Arial,Arial_MSFontService,sans-serif" font-weight="400" font-size="50" transform="matrix(1 0 0 1 1184.15 1571)">2.6 </text></g><g><text font-family="Arial,Arial_MSFontService,sans-serif" font-weight="400" font-size="50" transform="matrix(1 0 0 1 1186.07 1514)">2.6 </text></g><g><text font-family="Arial,Arial_MSFontService,sans-serif" font-weight="400" font-size="50" transform="matrix(1 0 0 1 1187.27 1457)">2.6 </text></g><g><text font-family="Arial,Arial_MSFontService,sans-serif" font-weight="400" font-size="50" transform="matrix(1 0 0 1 1188.56 1400)">2.7 </text></g><g><text font-family="Arial,Arial_MSFontService,sans-serif" font-weight="400" font-size="50" transform="matrix(1 0 0 1 1194.6 1343)">2.7 </text></g><g><text font-family="Arial,Arial_MSFontService,sans-serif" font-weight="400" font-size="50" transform="matrix(1 0 0 1 1217.22 1285)">3.0 </text></g><g><text font-family="Arial,Arial_MSFontService,sans-serif" font-weight="400" font-size="50" transform="matrix(1 0 0 1 1229.58 1228)">3.1 </text></g><g><text font-family="Arial,Arial_MSFontService,sans-serif" font-weight="400" font-size="50" transform="matrix(1 0 0 1 1262.24 1171)">3.5 </text></g><g><text font-family="Arial,Arial_MSFontService,sans-serif" font-weight="400" font-size="50" transform="matrix(1 0 0 1 1270.5 1114)">3.6 </text></g><g><text font-family="Arial,Arial_MSFontService,sans-serif" font-weight="400" font-size="50" transform="matrix(1 0 0 1 1317.32 1057)">4.2 </text></g><g><text font-family="Arial,Arial_MSFontService,sans-serif" font-weight="400" font-size="50" transform="matrix(1 0 0 1 1317.42 999)">4.2 </text></g><g><text font-family="Arial,Arial_MSFontService,sans-serif" font-weight="400" font-size="50" transform="matrix(1 0 0 1 1327.01 942)">4.3 </text></g><g><text font-family="Arial,Arial_MSFontService,sans-serif" font-weight="400" font-size="50" transform="matrix(1 0 0 1 1461.38 885)">5.9 </text></g><g><text font-family="Arial,Arial_MSFontService,sans-serif" font-weight="400" font-size="50" transform="matrix(1 0 0 1 1608.45 828)">7.7 </text></g><g><text font-family="Arial,Arial_MSFontService,sans-serif" font-weight="400" font-size="50" transform="matrix(1 0 0 1 594.766 2256)">North Korea</text></g><g><text font-family="Arial,Arial_MSFontService,sans-serif" font-weight="400" font-size="50" transform="matrix(1 0 0 1 591.993 2199)">South Africa</text></g><g><text font-family="Arial,Arial_MSFontService,sans-serif" font-weight="400" font-size="50" transform="matrix(1 0 0 1 684.417 2141)">Sweden</text></g><g><text font-family="Arial,Arial_MSFontService,sans-serif" font-weight="400" font-size="50" transform="matrix(1 0 0 1 605.996 2084)">Switzerland</text></g><g><g clip-path="url(#clip26)"><text font-family="Cambria Math,Cambria Math_MSFontService,sans-serif" font-weight="400" font-size="50" transform="matrix(1 0 0 1 625.774 2028)">ğ—¡</text></g></g><g><g clip-path="url(#clip27)"><text font-family="Cambria Math,Cambria Math_MSFontService,sans-serif" font-weight="400" font-size="50" transform="matrix(1 0 0 1 662.166 2028)">ğ—¢</text></g></g><g><g clip-path="url(#clip28)"><text font-family="Cambria Math,Cambria Math_MSFontService,sans-serif" font-weight="400" font-size="50" transform="matrix(1 0 0 1 697.113 2028)">ğ—§</text></g></g><g><g clip-path="url(#clip29)"><text font-family="Cambria Math,Cambria Math_MSFontService,sans-serif" font-weight="400" font-size="50" transform="matrix(1 0 0 1 724.43 2028)">ğ—”</text></g></g><g><g clip-path="url(#clip30)"><text font-family="Cambria Math,Cambria Math_MSFontService,sans-serif" font-weight="400" font-size="50" transform="matrix(1 0 0 1 756.903 2028)">ğ—•</text></g></g><g><g clip-path="url(#clip31)"><text font-family="Cambria Math,Cambria Math_MSFontService,sans-serif" font-weight="400" font-size="50" transform="matrix(1 0 0 1 789.193 2028)">ğ—Ÿ</text></g></g><g><g clip-path="url(#clip32)"><text font-family="Cambria Math,Cambria Math_MSFontService,sans-serif" font-weight="400" font-size="50" transform="matrix(1 0 0 1 814.424 2028)">ğ—˜</text></g></g><g><g clip-path="url(#clip33)"><text font-family="Cambria Math,Cambria Math_MSFontService,sans-serif" font-weight="400" font-size="50" transform="matrix(1 0 0 1 840.87 2028)">ğ—¦</text></g></g><g><text font-family="Arial,Arial_MSFontService,sans-serif" font-weight="400" font-size="50" transform="matrix(1 0 0 1 779.751 1913)">Iran</text></g><g><text font-family="Arial,Arial_MSFontService,sans-serif" font-weight="400" font-size="50" transform="matrix(1 0 0 1 712.513 1855)">Russia</text></g><g><text font-family="Arial,Arial_MSFontService,sans-serif" font-weight="400" font-size="50" transform="matrix(1 0 0 1 734.88 1798)">China</text></g><g><text font-family="Arial,Arial_MSFontService,sans-serif" font-weight="400" font-size="50" transform="matrix(1 0 0 1 577.9 1741)">Saudi Arabia</text></g><g><text font-family="Arial,Arial_MSFontService,sans-serif" font-weight="400" font-size="50" transform="matrix(1 0 0 1 673.257 1684)">Pakistan</text></g><g><text font-family="Arial,Arial_MSFontService,sans-serif" font-weight="400" font-size="50" transform="matrix(1 0 0 1 689.986 1627)">Canada</text></g><g><text font-family="Arial,Arial_MSFontService,sans-serif" font-weight="400" font-size="50" transform="matrix(1 0 0 1 740.563 1570)">Brazil</text></g><g><text font-family="Arial,Arial_MSFontService,sans-serif" font-weight="400" font-size="50" transform="matrix(1 0 0 1 670.46 1512)">Australia</text></g><g><text font-family="Arial,Arial_MSFontService,sans-serif" font-weight="400" font-size="50" transform="matrix(1 0 0 1 706.875 1455)">Nigeria</text></g><g><text font-family="Arial,Arial_MSFontService,sans-serif" font-weight="400" font-size="50" transform="matrix(1 0 0 1 647.934 1398)">Indonesia</text></g><g><text font-family="Arial,Arial_MSFontService,sans-serif" font-weight="400" font-size="50" transform="matrix(1 0 0 1 757.292 1341)">India</text></g><g><text font-family="Arial,Arial_MSFontService,sans-serif" font-weight="400" font-size="50" transform="matrix(1 0 0 1 706.921 1284)">Mexico</text></g><g><text font-family="Arial,Arial_MSFontService,sans-serif" font-weight="400" font-size="50" transform="matrix(1 0 0 1 586.31 1227)">South Korea</text></g><g><text font-family="Arial,Arial_MSFontService,sans-serif" font-weight="400" font-size="50" transform="matrix(1 0 0 1 563.943 1169)">United States</text></g><g><text font-family="Arial,Arial_MSFontService,sans-serif" font-weight="400" font-size="50" transform="matrix(1 0 0 1 701.33 1112)">Turkiye</text></g><g><text font-family="Arial,Arial_MSFontService,sans-serif" font-weight="400" font-size="50" transform="matrix(1 0 0 1 600.267 1055)">Bangladesh</text></g><g><text font-family="Arial,Arial_MSFontService,sans-serif" font-weight="400" font-size="50" transform="matrix(1 0 0 1 729.243 998)">Japan</text></g><g><text font-family="Arial,Arial_MSFontService,sans-serif" font-weight="400" font-size="50" transform="matrix(1 0 0 1 737.721 941)">Egypt</text></g><g><text font-family="Arial,Arial_MSFontService,sans-serif" font-weight="400" font-size="50" transform="matrix(1 0 0 1 502.16 883)">European Union</text></g><g><text font-family="Arial,Arial_MSFontService,sans-serif" font-weight="400" font-size="50" transform="matrix(1 0 0 1 507.843 826)">United Kingdom</text></g><g><g clip-path="url(#clip34)"><text font-family="Cambria Math,Cambria Math_MSFontService,sans-serif" font-weight="400" font-size="50" transform="matrix(1 0 0 1 422.847 770)">ğ— </text></g></g><g><g clip-path="url(#clip35)"><text font-family="Cambria Math,Cambria Math_MSFontService,sans-serif" font-weight="400" font-size="50" transform="matrix(1 0 0 1 465.701 770)">ğ—”</text></g></g><g><g clip-path="url(#clip36)"><text font-family="Cambria Math,Cambria Math_MSFontService,sans-serif" font-weight="400" font-size="50" transform="matrix(1 0 0 1 498.174 770)">ğ—</text></g></g><g><g clip-path="url(#clip37)"><text font-family="Cambria Math,Cambria Math_MSFontService,sans-serif" font-weight="400" font-size="50" transform="matrix(1 0 0 1 514.468 770)">ğ—¢</text></g></g><g><g clip-path="url(#clip38)"><text font-family="Cambria Math,Cambria Math_MSFontService,sans-serif" font-weight="400" font-size="50" transform="matrix(1 0 0 1 549.416 770)">ğ—¥</text></g></g><g><g clip-path="url(#clip39)"><text font-family="Cambria Math,Cambria Math_MSFontService,sans-serif" font-weight="400" font-size="50" transform="matrix(1 0 0 1 595.134 770)">ğ—˜</text></g></g><g><g clip-path="url(#clip40)"><text font-family="Cambria Math,Cambria Math_MSFontService,sans-serif" font-weight="400" font-size="50" transform="matrix(1 0 0 1 621.58 770)">ğ—–</text></g></g><g><g clip-path="url(#clip41)"><text font-family="Cambria Math,Cambria Math_MSFontService,sans-serif" font-weight="400" font-size="50" transform="matrix(1 0 0 1 648.988 770)">ğ—¢</text></g></g><g><g clip-path="url(#clip42)"><text font-family="Cambria Math,Cambria Math_MSFontService,sans-serif" font-weight="400" font-size="50" transform="matrix(1 0 0 1 683.936 770)">ğ—¡</text></g></g><g><g clip-path="url(#clip43)"><text font-family="Cambria Math,Cambria Math_MSFontService,sans-serif" font-weight="400" font-size="50" transform="matrix(1 0 0 1 720.328 770)">ğ—¢</text></g></g><g><g clip-path="url(#clip44)"><text font-family="Cambria Math,Cambria Math_MSFontService,sans-serif" font-weight="400" font-size="50" transform="matrix(1 0 0 1 755.276 770)">ğ— </text></g></g><g><g clip-path="url(#clip45)"><text font-family="Cambria Math,Cambria Math_MSFontService,sans-serif" font-weight="400" font-size="50" transform="matrix(1 0 0 1 798.13 770)">ğ—œ</text></g></g><g><g clip-path="url(#clip46)"><text font-family="Cambria Math,Cambria Math_MSFontService,sans-serif" font-weight="400" font-size="50" transform="matrix(1 0 0 1 814.424 770)">ğ—˜</text></g></g><g><g clip-path="url(#clip47)"><text font-family="Cambria Math,Cambria Math_MSFontService,sans-serif" font-weight="400" font-size="50" transform="matrix(1 0 0 1 840.87 770)">ğ—¦</text></g></g><g><text font-family="Arial,Arial_MSFontService,sans-serif" font-weight="700" font-size="60" transform="matrix(1 0 0 1 729.4 571)">GREENHOUSE GAS PRODUCTIVITY IN 2022</text></g><g><text font-family="Arial,Arial_MSFontService,sans-serif" font-weight="400" font-size="55" transform="matrix(1 0 0 1 756.488 635)">GDP PPP dollar generated by 1 kilogram of GHG</text></g><text font-family="Aptos,Aptos_MSFontService,sans-serif" font-weight="400" font-size="50" transform="matrix(1 0 0 1 1521.15 1343)">High </text><text font-family="Aptos,Aptos_MSFontService,sans-serif" font-weight="400" font-size="50" transform="matrix(1 0 0 1 1435.51 1403)">performance</text><text font-family="Aptos,Aptos_MSFontService,sans-serif" font-weight="400" font-size="37" transform="matrix(1 0 0 1 1412.02 1451)">GHG put to good use</text><path d="M1512.5 1122.5 1569.5 1065.5 1626.5 1122.5 1598 1122.5 1598 1280.5 1541 1280.5 1541 1122.5Z" stroke="#000000" stroke-width="3.4375" stroke-miterlimit="8" fill="none" fill-rule="evenodd"/><text font-family="Arial,Arial_MSFontService,sans-serif" font-weight="400" font-size="46" transform="matrix(1 0 0 1 534.493 2433)">Source: World Bank (EN.GHG.ALL.MT.CE.AR5); TelluBase; S. Canback tabulation</text><path d="M1118 2306 1137 2277 1156 2306Z" fill="#C00000" fill-rule="evenodd"/><text font-family="Aptos,Aptos_MSFontService,sans-serif" font-style="italic" font-weight="400" font-size="50" transform="matrix(1 0 0 1 924.535 2352)">World median = 3.0</text></g></svg>