<svg width="1642" height="1230" xmlns="http://www.w3.org/2000/svg" xmlns:xlink="http://www.w3.org/1999/xlink" xml:space="preserve" overflow="hidden"><g transform="translate(-523 -1146)"><text font-family="Arial,Arial_MSFontService,sans-serif" font-weight="700" font-size="64" transform="matrix(1 0 0 1 652.69 1228)">SVENSKA EXPORTVINNARE OCH FÖRLORARE</text><text font-family="Arial,Arial_MSFontService,sans-serif" font-weight="400" font-size="60" transform="matrix(1 0 0 1 909.884 1301)">Inga skalor för att underlätta läsning</text><path d="M1275.83 1812.15 1375.07 1763 1578.19 1661.7 1231.31 1834.22 1417.74 1741.94 940.086 1978.66 1089.41 1904.43 1577.26 1662.7 1337.97 1781.06 1146.91 1875.34 1695.05 1603.52 1824.9 1539.33 1433.5 1733.92 1273.05 1813.16 1373.22 1764.01 1555 1672.73 1195.14 1852.27 1519.76 1690.78 1839.74 1532.3 1107.96 1895.4 1297.16 1801.12 1259.14 1820.18 1100.54 1899.42 1324.99 1787.08 1410.32 1744.95 1286.03 1807.14 1703.4 1599.51 1060.66 1918.47 1221.11 1839.23 1576.33 1662.7 1304.58 1798.11 1119.09 1889.39 1105.18 1896.41 1315.71 1792.09 1382.49 1758.99 1776.67 1563.4 1207.2 1846.26 1097.76 1900.42 1271.2 1814.16 1506.77 1696.8 1895.39 1504.22 1542.95 1678.75 1030.05 1933.52 1399.19 1750.97 1259.14 1820.18 876.091 2010.75 1412.17 1744.95 1427.94 1736.92 1582.83 1659.69 1495.64 1702.82 1134.86 1881.36 1432.58 1733.92 1750.7 1576.44 1928.78 1487.17 1127.44 1885.37 971.62 1962.61 1451.13 1724.89 1417.74 1740.94 1567.06 1666.71 1315.71 1792.09 1261.92 1819.17 1073.64 1912.46 1549.44 1675.74 1152.48 1873.34 1491.93 1704.83 1126.51 1886.38 1937.12 1484.16 1135.78 1881.36 1296.24 1802.12 1122.8 1888.38 1373.22 1764.01 2041 1432 1422.37 1738.93 1637.55 1632.61 1241.52 1829.2 1031.91 1933.52 1409.39 1745.95 1312.93 1793.09 1076.43 1910.45 1288.82 1806.13 1289.74 1805.13 1312.93 1793.09 1567.06 1667.71 1675.57 1613.55 1512.34 1694.8 1783.16 1560.39 1629.2 1636.62 1611.58 1645.65 1535.53 1682.76 1799.86 1551.36 1681.14 1610.54 1912.08 1496.19 1302.73 1799.11 1761.83 1570.42 1403.82 1747.96 1552.22 1674.74 1455.76 1722.88 851.976 2021.79 1226.68 1836.23 1682.07 1610.54 1301.8 1799.11 1502.14 1699.81 1258.21 1821.18 1220.18 1839.23 1559.64 1670.72 1351.89 1774.04 1069.01 1914.46 1176.59 1861.3 1404.75 1747.96 1428.87 1735.92 1615.29 1643.64 1638.48 1631.6 1345.39 1777.05 1245.23 1827.2 1217.4 1841.24 1527.18 1686.77 1193.29 1853.28 1288.82 1805.13 1443.71 1727.9 851.976 2021.79 1225.75 1837.23 1256.36 1821.18 1689.49 1606.53 902.987 1996.71 1363.94 1768.02 1283.25 1808.14 1285.11 1807.14 776.851 2059.9 1511.41 1694.8 1265.63 1817.17 1352.81 1774.04 1246.15 1827.2 798.183 2048.87 1357.45 1771.03 1925.07 1490.18 1180.3 1859.29 1510.48 1695.8 1249.86 1825.19 1292.53 1804.13 1528.11 1686.77 1345.39 1778.05 1918.57 1493.19 1441.85 1729.9 1551.29 1675.74 875.163 2010.75 1295.31 1802.12 1390.84 1754.98 1290.67 1805.13 1319.42 1790.09 1497.5 1701.82 1535.53 1682.76 1829.54 1537.32 1649.61 1626.59 1526.25 1687.78 1692.27 1605.53 1845.3 1529.29 1254.5 1823.19 1026.34 1935.53 1094.05 1902.43 1017.99 1940.54 975.33 1960.6 1192.36 1853.28 986.46 1955.59 1663.52 1619.57 1341.68 1779.05 1511.41 1694.8 1072.72 1912.46 1209.05 1845.25 1584.68 1658.69 1085.7 1906.44 1638.48 1631.6 1562.42 1669.72 1012.43 1942.55 1212.76 1843.25 1577.26 1662.7 1133 1883.37 1836.03 1534.31 1404.75 1747.96 1299.95 1800.12 1167.32 1866.32 1873.13 1515.25 1350.96 1775.04 1593.03 1654.67 1244.3 1827.2 1420.52 1739.93 1555.93 1672.73 1005.01 1946.56 1222.97 1838.23 900.205 1998.72 1310.15 1795.1 1429.79 1735.92 1740.5 1581.45 1404.75 1747.96 1042.11 1927.5 711 2092 1388.98 1755.98 1589.32 1656.68 1605.09 1648.66 1949.18 1478.14 2021.52 1442.03 1382.49 1758.99 1440.92 1729.9 974.403 1961.6 1450.2 1724.89 1539.24 1681.76 1174.74 1862.3 1312.93 1794.1 1323.13 1789.08" stroke="#90353B" stroke-width="5.72917" stroke-linejoin="round" stroke-miterlimit="10" fill="none" fill-rule="evenodd"/><path d="M615.5 1354.5 615.501 2113.04" stroke="#000000" stroke-width="6.875" stroke-miterlimit="8" fill="none" fill-rule="evenodd"/><path d="M0 0 1518.23 0.000360892" stroke="#000000" stroke-width="6.875" stroke-miterlimit="8" fill="none" fill-rule="evenodd" transform="matrix(-1 0 0 1 2133.73 2113.5)"/><text font-family="Arial,Arial_MSFontService,sans-serif" font-weight="700" font-size="50" transform="matrix(1 0 0 1 1126.12 2173)">Förutspådd export </text><text font-family="Arial,Arial_MSFontService,sans-serif" font-weight="400" font-size="50" transform="matrix(1 0 0 1 1585.6 2173)">(log)</text><text font-family="Arial,Arial_MSFontService,sans-serif" font-weight="700" font-size="50" transform="matrix(-1.83697e-16 -1 1 -1.83697e-16 588.687 1961)">Verklig export </text><text font-family="Arial,Arial_MSFontService,sans-serif" font-weight="400" font-size="50" transform="matrix(-1.83697e-16 -1 1 -1.83697e-16 588.687 1611)">(log)</text><text font-family="Arial,Arial_MSFontService,sans-serif" font-weight="400" font-size="50" transform="matrix(-1.83697e-16 -1 1 -1.83697e-16 588.687 1448)">Hög</text><text font-family="Arial,Arial_MSFontService,sans-serif" font-weight="400" font-size="50" transform="matrix(-1.83697e-16 -1 1 -1.83697e-16 588.687 2118)">Låg</text><text font-family="Arial,Arial_MSFontService,sans-serif" font-weight="400" font-size="50" transform="matrix(1 0 0 1 639.846 2173)">Låg</text><text font-family="Arial,Arial_MSFontService,sans-serif" font-weight="400" font-size="50" transform="matrix(1 0 0 1 2029.74 2173)">Hög</text><path d="M2165 2010 2073 2102 1981 2010 2027 2010 2027 1899 2119 1899 2119 2010Z" fill="#002060" fill-rule="evenodd"/><text font-family="Aptos,Aptos_MSFontService,sans-serif" font-style="italic" font-weight="700" font-size="50" transform="matrix(1 0 0 1 1330.04 1956)">Under </text><text font-family="Aptos,Aptos_MSFontService,sans-serif" font-style="italic" font-weight="700" font-size="50" transform="matrix(1 0 0 1 1480.72 1956)">diagonalen</text><text font-family="Aptos,Aptos_MSFontService,sans-serif" font-style="italic" font-weight="700" font-size="50" transform="matrix(1 0 0 1 1745.98 1956)">= </text><text font-family="Aptos,Aptos_MSFontService,sans-serif" font-style="italic" font-weight="700" font-size="50" transform="matrix(1 0 0 1 1783.22 1956)">förlorare</text><text font-family="Aptos,Aptos_MSFontService,sans-serif" font-style="italic" font-weight="400" font-size="50" transform="matrix(1 0 0 1 1330.04 2016)">Verkliga exporten understiger</text><text font-family="Aptos,Aptos_MSFontService,sans-serif" font-style="italic" font-weight="400" font-size="50" transform="matrix(1 0 0 1 1330.04 2077)">modellexporten</text><path d="M731 1535.5 822.5 1444 914 1535.5 868.25 1535.5 868.25 1647 776.75 1647 776.75 1535.5Z" fill="#002060" fill-rule="evenodd"/><text font-family="Aptos,Aptos_MSFontService,sans-serif" font-style="italic" font-weight="700" font-size="50" transform="matrix(1 0 0 1 920.21 1501)">Över </text><text font-family="Aptos,Aptos_MSFontService,sans-serif" font-style="italic" font-weight="700" font-size="50" transform="matrix(1 0 0 1 1038.8 1501)">diagonalen</text><text font-family="Aptos,Aptos_MSFontService,sans-serif" font-style="italic" font-weight="700" font-size="50" transform="matrix(1 0 0 1 1314.38 1501)">vinnare</text><text font-family="Aptos,Aptos_MSFontService,sans-serif" font-style="italic" font-weight="400" font-size="50" transform="matrix(1 0 0 1 920.21 1561)">Verkliga exporten överstiger</text><text font-family="Aptos,Aptos_MSFontService,sans-serif" font-style="italic" font-weight="400" font-size="50" transform="matrix(1 0 0 1 920.21 1622)">modellexporten</text><text font-family="Arial,Arial_MSFontService,sans-serif" font-weight="400" font-size="46" transform="matrix(1 0 0 1 627.516 2283)">Not: 150 mindre exportmarknader ej i grafen</text><text font-family="Arial,Arial_MSFontService,sans-serif" font-weight="400" font-size="46" transform="matrix(1 0 0 1 627.516 2338)">Källa: </text><text font-family="Arial,Arial_MSFontService,sans-serif" font-weight="400" font-size="46" transform="matrix(1 0 0 1 754.131 2338)">TelluBase; </text><text font-family="Arial,Arial_MSFontService,sans-serif" font-weight="400" font-size="46" transform="matrix(1 0 0 1 982.152 2338)">SCB; </text><text font-family="Arial,Arial_MSFontService,sans-serif" font-weight="400" font-size="46" transform="matrix(1 0 0 1 1101.32 2338)">Tellusant </text><text font-family="Arial,Arial_MSFontService,sans-serif" font-weight="400" font-size="46" transform="matrix(1 0 0 1 1298.97 2338)">analys</text><path d="M1106 1876.5C1106 1874.01 1108.01 1872 1110.5 1872 1112.99 1872 1115 1874.01 1115 1876.5 1115 1878.99 1112.99 1881 1110.5 1881 1108.01 1881 1106 1878.99 1106 1876.5Z" stroke="#1A476F" stroke-width="5.72917" stroke-linejoin="round" stroke-miterlimit="10" fill="#1A476F" fill-rule="evenodd"/><text fill="#1A476F" font-family="Arial,Arial_MSFontService,sans-serif" font-weight="400" font-size="18" transform="matrix(1 0 0 1 1133.52 1877)">DZ</text><path d="M1104 1930.5C1104 1927.46 1106.01 1925 1108.5 1925 1110.99 1925 1113 1927.46 1113 1930.5 1113 1933.54 1110.99 1936 1108.5 1936 1106.01 1936 1104 1933.54 1104 1930.5Z" stroke="#1A476F" stroke-width="5.72917" stroke-linejoin="round" stroke-miterlimit="10" fill="#1A476F" fill-rule="evenodd"/><text fill="#1A476F" font-family="Arial,Arial_MSFontService,sans-serif" font-weight="400" font-size="28" transform="matrix(1 0 0 1 1132.07 1940)">AR</text><path d="M1341 1722C1341 1719.24 1343.46 1717 1346.5 1717 1349.54 1717 1352 1719.24 1352 1722 1352 1724.76 1349.54 1727 1346.5 1727 1343.46 1727 1341 1724.76 1341 1722Z" stroke="#1A476F" stroke-width="5.72917" stroke-linejoin="round" stroke-miterlimit="10" fill="#1A476F" fill-rule="evenodd"/><text fill="#1A476F" font-family="Arial,Arial_MSFontService,sans-serif" font-weight="400" font-size="28" transform="matrix(1 0 0 1 1363.38 1706)">AU</text><path d="M1601 1714C1601 1711.24 1603.24 1709 1606 1709 1608.76 1709 1611 1711.24 1611 1714 1611 1716.76 1608.76 1719 1606 1719 1603.24 1719 1601 1716.76 1601 1714Z" stroke="#1A476F" stroke-width="5.72917" stroke-linejoin="round" stroke-miterlimit="10" fill="#1A476F" fill-rule="evenodd"/><text fill="#1A476F" font-family="Arial,Arial_MSFontService,sans-serif" font-weight="400" font-size="28" transform="matrix(1 0 0 1 1621.47 1725)">AT</text><path d="M1059 2023C1059 2020.24 1061.01 2018 1063.5 2018 1065.99 2018 1068 2020.24 1068 2023 1068 2025.76 1065.99 2028 1063.5 2028 1061.01 2028 1059 2025.76 1059 2023Z" stroke="#1A476F" stroke-width="5.72917" stroke-linejoin="round" stroke-miterlimit="10" fill="#1A476F" fill-rule="evenodd"/><text fill="#1A476F" font-family="Arial,Arial_MSFontService,sans-serif" font-weight="400" font-size="28" transform="matrix(1 0 0 1 1087.19 2033)">BD</text><path d="M989 1995C989 1991.69 991.462 1989 994.5 1989 997.537 1989 1000 1991.69 1000 1995 1000 1998.31 997.537 2001 994.5 2001 991.462 2001 989 1998.31 989 1995Z" stroke="#1A476F" stroke-width="5.72917" stroke-linejoin="round" stroke-miterlimit="10" fill="#1A476F" fill-rule="evenodd"/><text fill="#1A476F" font-family="Arial,Arial_MSFontService,sans-serif" font-weight="400" font-size="28" transform="matrix(1 0 0 1 934.792 2020)">BY</text><path d="M1632 1590.5C1632 1586.91 1634.69 1584 1638 1584 1641.31 1584 1644 1586.91 1644 1590.5 1644 1594.09 1641.31 1597 1638 1597 1634.69 1597 1632 1594.09 1632 1590.5Z" stroke="#1A476F" stroke-width="5.72917" stroke-linejoin="round" stroke-miterlimit="10" fill="#1A476F" fill-rule="evenodd"/><text fill="#1A476F" font-family="Arial,Arial_MSFontService,sans-serif" font-weight="400" font-size="28" transform="matrix(1 0 0 1 1651.15 1585)">BE</text><path d="M1357 1732C1357 1729.24 1359.24 1727 1362 1727 1364.76 1727 1367 1729.24 1367 1732 1367 1734.76 1364.76 1737 1362 1737 1359.24 1737 1357 1734.76 1357 1732Z" stroke="#1A476F" stroke-width="5.72917" stroke-linejoin="round" stroke-miterlimit="10" fill="#1A476F" fill-rule="evenodd"/><text fill="#1A476F" font-family="Arial,Arial_MSFontService,sans-serif" font-weight="400" font-size="28" transform="matrix(1 0 0 1 1374.23 1736)">BR</text><path d="M1102 1849.5C1102 1846.46 1104.46 1844 1107.5 1844 1110.54 1844 1113 1846.46 1113 1849.5 1113 1852.54 1110.54 1855 1107.5 1855 1104.46 1855 1102 1852.54 1102 1849.5Z" stroke="#1A476F" stroke-width="5.72917" stroke-linejoin="round" stroke-miterlimit="10" fill="#1A476F" fill-rule="evenodd"/><text fill="#1A476F" font-family="Arial,Arial_MSFontService,sans-serif" font-weight="400" font-size="18" transform="matrix(1 0 0 1 1128.45 1849)">BG</text><path d="M1505 1693C1505 1689.69 1507.01 1687 1509.5 1687 1511.99 1687 1514 1689.69 1514 1693 1514 1696.31 1511.99 1699 1509.5 1699 1507.01 1699 1505 1696.31 1505 1693Z" stroke="#1A476F" stroke-width="5.72917" stroke-linejoin="round" stroke-miterlimit="10" fill="#1A476F" fill-rule="evenodd"/><text fill="#1A476F" font-family="Arial,Arial_MSFontService,sans-serif" font-weight="400" font-size="28" transform="matrix(1 0 0 1 1530.61 1702)">CA</text><path d="M964 1845C964 1841.69 966.238 1839 969 1839 971.761 1839 974 1841.69 974 1845 974 1848.31 971.761 1851 969 1851 966.238 1851 964 1848.31 964 1845Z" stroke="#1A476F" stroke-width="5.72917" stroke-linejoin="round" stroke-miterlimit="10" fill="#1A476F" fill-rule="evenodd"/><text fill="#1A476F" font-family="Arial,Arial_MSFontService,sans-serif" font-weight="400" font-size="28" transform="matrix(1 0 0 1 914.522 1849)">CL</text><path d="M1743 1613C1743 1609.69 1745.24 1607 1748 1607 1750.76 1607 1753 1609.69 1753 1613 1753 1616.31 1750.76 1619 1748 1619 1745.24 1619 1743 1616.31 1743 1613Z" stroke="#1A476F" stroke-width="5.72917" stroke-linejoin="round" stroke-miterlimit="10" fill="#1A476F" fill-rule="evenodd"/><text fill="#1A476F" font-family="Arial,Arial_MSFontService,sans-serif" font-weight="400" font-size="28" transform="matrix(1 0 0 1 1711.24 1640)">CN</text><path d="M1035 1924C1035 1921.24 1037.46 1919 1040.5 1919 1043.54 1919 1046 1921.24 1046 1924 1046 1926.76 1043.54 1929 1040.5 1929 1037.46 1929 1035 1926.76 1035 1924Z" stroke="#1A476F" stroke-width="5.72917" stroke-linejoin="round" stroke-miterlimit="10" fill="#1A476F" fill-rule="evenodd"/><text fill="#1A476F" font-family="Arial,Arial_MSFontService,sans-serif" font-weight="400" font-size="18" transform="matrix(1 0 0 1 987.279 1901)">CO</text><path d="M1115 1876.5C1115 1874.01 1117.24 1872 1120 1872 1122.76 1872 1125 1874.01 1125 1876.5 1125 1878.99 1122.76 1881 1120 1881 1117.24 1881 1115 1878.99 1115 1876.5Z" stroke="#1A476F" stroke-width="5.72917" stroke-linejoin="round" stroke-miterlimit="10" fill="#1A476F" fill-rule="evenodd"/><text fill="#1A476F" font-family="Arial,Arial_MSFontService,sans-serif" font-weight="400" font-size="18" transform="matrix(1 0 0 1 1117.59 1905)">HR</text><path d="M1453 1730C1453 1727.24 1454.79 1725 1457 1725 1459.21 1725 1461 1727.24 1461 1730 1461 1732.76 1459.21 1735 1457 1735 1454.79 1735 1453 1732.76 1453 1730Z" stroke="#1A476F" stroke-width="5.72917" stroke-linejoin="round" stroke-miterlimit="10" fill="#1A476F" fill-rule="evenodd"/><text fill="#1A476F" font-family="Arial,Arial_MSFontService,sans-serif" font-weight="400" font-size="28" transform="matrix(1 0 0 1 1469.62 1748)">CZ</text><path d="M1810 1561C1810 1557.69 1812.46 1555 1815.5 1555 1818.54 1555 1821 1557.69 1821 1561 1821 1564.31 1818.54 1567 1815.5 1567 1812.46 1567 1810 1564.31 1810 1561Z" stroke="#1A476F" stroke-width="5.72917" stroke-linejoin="round" stroke-miterlimit="10" fill="#1A476F" fill-rule="evenodd"/><text fill="#1A476F" font-family="Arial,Arial_MSFontService,sans-serif" font-weight="400" font-size="28" transform="matrix(1 0 0 1 1836.48 1558)">DK</text><path d="M1084 1749C1084 1745.69 1086.24 1743 1089 1743 1091.76 1743 1094 1745.69 1094 1749 1094 1752.31 1091.76 1755 1089 1755 1086.24 1755 1084 1752.31 1084 1749Z" stroke="#1A476F" stroke-width="5.72917" stroke-linejoin="round" stroke-miterlimit="10" fill="#1A476F" fill-rule="evenodd"/><text fill="#1A476F" font-family="Arial,Arial_MSFontService,sans-serif" font-weight="400" font-size="28" transform="matrix(1 0 0 1 1100.94 1746)">EG</text><path d="M1048 1722C1048 1719.24 1050.46 1717 1053.5 1717 1056.54 1717 1059 1719.24 1059 1722 1059 1724.76 1056.54 1727 1053.5 1727 1050.46 1727 1048 1724.76 1048 1722Z" stroke="#1A476F" stroke-width="5.72917" stroke-linejoin="round" stroke-miterlimit="10" fill="#1A476F" fill-rule="evenodd"/><text fill="#1A476F" font-family="Arial,Arial_MSFontService,sans-serif" font-weight="400" font-size="28" transform="matrix(1 0 0 1 1063.66 1699)">EE</text><path d="M1827 1603C1827 1599.69 1829.01 1597 1831.5 1597 1833.99 1597 1836 1599.69 1836 1603 1836 1606.31 1833.99 1609 1831.5 1609 1829.01 1609 1827 1606.31 1827 1603Z" stroke="#1A476F" stroke-width="5.72917" stroke-linejoin="round" stroke-miterlimit="10" fill="#1A476F" fill-rule="evenodd"/><text fill="#1A476F" font-family="Arial,Arial_MSFontService,sans-serif" font-weight="400" font-size="28" transform="matrix(1 0 0 1 1842.28 1616)">FR</text><path d="M2036 1528C2036 1525.24 2038.01 1523 2040.5 1523 2042.99 1523 2045 1525.24 2045 1528 2045 1530.76 2042.99 1533 2040.5 1533 2038.01 1533 2036 1530.76 2036 1528Z" stroke="#1A476F" stroke-width="5.72917" stroke-linejoin="round" stroke-miterlimit="10" fill="#1A476F" fill-rule="evenodd"/><text fill="#1A476F" font-family="Arial,Arial_MSFontService,sans-serif" font-weight="400" font-size="28" transform="matrix(1 0 0 1 2052.22 1534)">DE</text><path d="M1225 1818C1225 1815.24 1227.46 1813 1230.5 1813 1233.54 1813 1236 1815.24 1236 1818 1236 1820.76 1233.54 1823 1230.5 1823 1227.46 1823 1225 1820.76 1225 1818Z" stroke="#1A476F" stroke-width="5.72917" stroke-linejoin="round" stroke-miterlimit="10" fill="#1A476F" fill-rule="evenodd"/><text fill="#1A476F" font-family="Arial,Arial_MSFontService,sans-serif" font-weight="400" font-size="28" transform="matrix(1 0 0 1 1232.7 1814)">GR</text><path d="M1084 1855.5C1084 1851.91 1086.24 1849 1089 1849 1091.76 1849 1094 1851.91 1094 1855.5 1094 1859.09 1091.76 1862 1089 1862 1086.24 1862 1084 1859.09 1084 1855.5Z" stroke="#1A476F" stroke-width="5.72917" stroke-linejoin="round" stroke-miterlimit="10" fill="#1A476F" fill-rule="evenodd"/><text fill="#1A476F" font-family="Arial,Arial_MSFontService,sans-serif" font-weight="400" font-size="18" transform="matrix(1 0 0 1 1053.93 1840)">HK</text><path d="M1301 1784C1301 1781.24 1303.24 1779 1306 1779 1308.76 1779 1311 1781.24 1311 1784 1311 1786.76 1308.76 1789 1306 1789 1303.24 1789 1301 1786.76 1301 1784Z" stroke="#1A476F" stroke-width="5.72917" stroke-linejoin="round" stroke-miterlimit="10" fill="#1A476F" fill-rule="evenodd"/><text fill="#1A476F" font-family="Arial,Arial_MSFontService,sans-serif" font-weight="400" font-size="28" transform="matrix(1 0 0 1 1327.54 1796)">HU</text><path d="M974 1826C974 1823.24 976.015 1821 978.5 1821 980.985 1821 983 1823.24 983 1826 983 1828.76 980.985 1831 978.5 1831 976.015 1831 974 1828.76 974 1826Z" stroke="#1A476F" stroke-width="5.72917" stroke-linejoin="round" stroke-miterlimit="10" fill="#1A476F" fill-rule="evenodd"/><text fill="#1A476F" font-family="Arial,Arial_MSFontService,sans-serif" font-weight="400" font-size="18" transform="matrix(1 0 0 1 993.071 1814)">IS</text><path d="M1518 1714C1518 1711.24 1520.46 1709 1523.5 1709 1526.54 1709 1529 1711.24 1529 1714 1529 1716.76 1526.54 1719 1523.5 1719 1520.46 1719 1518 1716.76 1518 1714Z" stroke="#1A476F" stroke-width="5.72917" stroke-linejoin="round" stroke-miterlimit="10" fill="#1A476F" fill-rule="evenodd"/><text fill="#1A476F" font-family="Arial,Arial_MSFontService,sans-serif" font-weight="400" font-size="28" transform="matrix(1 0 0 1 1535.86 1732)">IN</text><path d="M1208 1822C1208 1819.24 1210.01 1817 1212.5 1817 1214.99 1817 1217 1819.24 1217 1822 1217 1824.76 1214.99 1827 1212.5 1827 1210.01 1827 1208 1824.76 1208 1822Z" stroke="#1A476F" stroke-width="5.72917" stroke-linejoin="round" stroke-miterlimit="10" fill="#1A476F" fill-rule="evenodd"/><text fill="#1A476F" font-family="Arial,Arial_MSFontService,sans-serif" font-weight="400" font-size="28" transform="matrix(1 0 0 1 1197.59 1796)">ID</text><path d="M1020 1982.5C1020 1980.01 1022.01 1978 1024.5 1978 1026.99 1978 1029 1980.01 1029 1982.5 1029 1984.99 1026.99 1987 1024.5 1987 1022.01 1987 1020 1984.99 1020 1982.5Z" stroke="#1A476F" stroke-width="5.72917" stroke-linejoin="round" stroke-miterlimit="10" fill="#1A476F" fill-rule="evenodd"/><text fill="#1A476F" font-family="Arial,Arial_MSFontService,sans-serif" font-weight="400" font-size="28" transform="matrix(1 0 0 1 1037.96 1987)">IQ</text><path d="M1551 1782C1551 1779.24 1553.24 1777 1556 1777 1558.76 1777 1561 1779.24 1561 1782 1561 1784.76 1558.76 1787 1556 1787 1553.24 1787 1551 1784.76 1551 1782Z" stroke="#1A476F" stroke-width="5.72917" stroke-linejoin="round" stroke-miterlimit="10" fill="#1A476F" fill-rule="evenodd"/><text fill="#1A476F" font-family="Arial,Arial_MSFontService,sans-serif" font-weight="400" font-size="28" transform="matrix(1 0 0 1 1579.48 1794)">IE</text><path d="M1312 1864C1312 1861.24 1314.24 1859 1317 1859 1319.76 1859 1322 1861.24 1322 1864 1322 1866.76 1319.76 1869 1317 1869 1314.24 1869 1312 1866.76 1312 1864Z" stroke="#1A476F" stroke-width="5.72917" stroke-linejoin="round" stroke-miterlimit="10" fill="#1A476F" fill-rule="evenodd"/><text fill="#1A476F" font-family="Arial,Arial_MSFontService,sans-serif" font-weight="400" font-size="28" transform="matrix(1 0 0 1 1334.78 1875)">IL</text><path d="M1776 1630C1776 1627.24 1778.24 1625 1781 1625 1783.76 1625 1786 1627.24 1786 1630 1786 1632.76 1783.76 1635 1781 1635 1778.24 1635 1776 1632.76 1776 1630Z" stroke="#1A476F" stroke-width="5.72917" stroke-linejoin="round" stroke-miterlimit="10" fill="#1A476F" fill-rule="evenodd"/><text fill="#1A476F" font-family="Arial,Arial_MSFontService,sans-serif" font-weight="400" font-size="28" transform="matrix(1 0 0 1 1804.63 1640)">IT</text><path d="M1475 1703C1475 1699.69 1477.46 1697 1480.5 1697 1483.54 1697 1486 1699.69 1486 1703 1486 1706.31 1483.54 1709 1480.5 1709 1477.46 1709 1475 1706.31 1475 1703Z" stroke="#1A476F" stroke-width="5.72917" stroke-linejoin="round" stroke-miterlimit="10" fill="#1A476F" fill-rule="evenodd"/><text fill="#1A476F" font-family="Arial,Arial_MSFontService,sans-serif" font-weight="400" font-size="28" transform="matrix(1 0 0 1 1466.18 1680)">JP</text><path d="M1054 1918C1054 1915.24 1056.46 1913 1059.5 1913 1062.54 1913 1065 1915.24 1065 1918 1065 1920.76 1062.54 1923 1059.5 1923 1056.46 1923 1054 1920.76 1054 1918Z" stroke="#1A476F" stroke-width="5.72917" stroke-linejoin="round" stroke-miterlimit="10" fill="#1A476F" fill-rule="evenodd"/><text fill="#1A476F" font-family="Arial,Arial_MSFontService,sans-serif" font-weight="400" font-size="18" transform="matrix(1 0 0 1 1073.79 1911)">KZ</text><path d="M1315 1726C1315 1723.24 1317.01 1721 1319.5 1721 1321.99 1721 1324 1723.24 1324 1726 1324 1728.76 1321.99 1731 1319.5 1731 1317.01 1731 1315 1728.76 1315 1726Z" stroke="#1A476F" stroke-width="5.72917" stroke-linejoin="round" stroke-miterlimit="10" fill="#1A476F" fill-rule="evenodd"/><text fill="#1A476F" font-family="Arial,Arial_MSFontService,sans-serif" font-weight="400" font-size="28" transform="matrix(1 0 0 1 1307.99 1697)">KR</text><path d="M953 1982.5C953 1980.01 955.462 1978 958.5 1978 961.537 1978 964 1980.01 964 1982.5 964 1984.99 961.537 1987 958.5 1987 955.462 1987 953 1984.99 953 1982.5Z" stroke="#1A476F" stroke-width="5.72917" stroke-linejoin="round" stroke-miterlimit="10" fill="#1A476F" fill-rule="evenodd"/><text fill="#1A476F" font-family="Arial,Arial_MSFontService,sans-serif" font-weight="400" font-size="28" transform="matrix(1 0 0 1 898.956 1958)">KW</text><path d="M1068 1797C1068 1793.69 1070.24 1791 1073 1791 1075.76 1791 1078 1793.69 1078 1797 1078 1800.31 1075.76 1803 1073 1803 1070.24 1803 1068 1800.31 1068 1797Z" stroke="#1A476F" stroke-width="5.72917" stroke-linejoin="round" stroke-miterlimit="10" fill="#1A476F" fill-rule="evenodd"/><text fill="#1A476F" font-family="Arial,Arial_MSFontService,sans-serif" font-weight="400" font-size="18" transform="matrix(1 0 0 1 1090.08 1802)">LV</text><path d="M1181 1738C1181 1735.24 1183.24 1733 1186 1733 1188.76 1733 1191 1735.24 1191 1738 1191 1740.76 1188.76 1743 1186 1743 1183.24 1743 1181 1740.76 1181 1738Z" stroke="#1A476F" stroke-width="5.72917" stroke-linejoin="round" stroke-miterlimit="10" fill="#1A476F" fill-rule="evenodd"/><text fill="#1A476F" font-family="Arial,Arial_MSFontService,sans-serif" font-weight="400" font-size="28" transform="matrix(1 0 0 1 1203.38 1746)">LT</text><path d="M1227 1963C1227 1959.69 1229.46 1957 1232.5 1957 1235.54 1957 1238 1959.69 1238 1963 1238 1966.31 1235.54 1969 1232.5 1969 1229.46 1969 1227 1966.31 1227 1963Z" stroke="#1A476F" stroke-width="5.72917" stroke-linejoin="round" stroke-miterlimit="10" fill="#1A476F" fill-rule="evenodd"/><text fill="#1A476F" font-family="Arial,Arial_MSFontService,sans-serif" font-weight="400" font-size="28" transform="matrix(1 0 0 1 1255.14 1974)">LU</text><path d="M1003 1864C1003 1861.24 1005.69 1859 1009 1859 1012.31 1859 1015 1861.24 1015 1864 1015 1866.76 1012.31 1869 1009 1869 1005.69 1869 1003 1866.76 1003 1864Z" stroke="#1A476F" stroke-width="5.72917" stroke-linejoin="round" stroke-miterlimit="10" fill="#1A476F" fill-rule="evenodd"/><text fill="#1A476F" font-family="Arial,Arial_MSFontService,sans-serif" font-weight="400" font-size="18" transform="matrix(1 0 0 1 1023.35 1855)">MY</text><path d="M1330 1764C1330 1761.24 1332.46 1759 1335.5 1759 1338.54 1759 1341 1761.24 1341 1764 1341 1766.76 1338.54 1769 1335.5 1769 1332.46 1769 1330 1766.76 1330 1764Z" stroke="#1A476F" stroke-width="5.72917" stroke-linejoin="round" stroke-miterlimit="10" fill="#1A476F" fill-rule="evenodd"/><text fill="#1A476F" font-family="Arial,Arial_MSFontService,sans-serif" font-weight="400" font-size="28" transform="matrix(1 0 0 1 1354.33 1769)">MX</text><path d="M971 1857C971 1853.69 973.239 1851 976 1851 978.762 1851 981 1853.69 981 1857 981 1860.31 978.762 1863 976 1863 973.239 1863 971 1860.31 971 1857Z" stroke="#1A476F" stroke-width="5.72917" stroke-linejoin="round" stroke-miterlimit="10" fill="#1A476F" fill-rule="evenodd"/><text fill="#1A476F" font-family="Arial,Arial_MSFontService,sans-serif" font-weight="400" font-size="18" transform="matrix(1 0 0 1 992.358 1845)">MA</text><path d="M1802 1582C1802 1579.24 1804.69 1577 1808 1577 1811.31 1577 1814 1579.24 1814 1582 1814 1584.76 1811.31 1587 1808 1587 1804.69 1587 1802 1584.76 1802 1582Z" stroke="#1A476F" stroke-width="5.72917" stroke-linejoin="round" stroke-miterlimit="10" fill="#1A476F" fill-rule="evenodd"/><text fill="#1A476F" font-family="Arial,Arial_MSFontService,sans-serif" font-weight="400" font-size="28" transform="matrix(1 0 0 1 1761.55 1588)">NL</text><path d="M970 1916.5C970 1913.46 972.015 1911 974.5 1911 976.985 1911 979 1913.46 979 1916.5 979 1919.54 976.985 1922 974.5 1922 972.015 1922 970 1919.54 970 1916.5Z" stroke="#1A476F" stroke-width="5.72917" stroke-linejoin="round" stroke-miterlimit="10" fill="#1A476F" fill-rule="evenodd"/><text fill="#1A476F" font-family="Arial,Arial_MSFontService,sans-serif" font-weight="400" font-size="28" transform="matrix(1 0 0 1 970.99 1948)">NZ</text><path d="M1005 2016C1005 2013.24 1007.46 2011 1010.5 2011 1013.54 2011 1016 2013.24 1016 2016 1016 2018.76 1013.54 2021 1010.5 2021 1007.46 2021 1005 2018.76 1005 2016Z" stroke="#1A476F" stroke-width="5.72917" stroke-linejoin="round" stroke-miterlimit="10" fill="#1A476F" fill-rule="evenodd"/><text fill="#1A476F" font-family="Arial,Arial_MSFontService,sans-serif" font-weight="400" font-size="28" transform="matrix(1 0 0 1 983.659 2050)">NG</text><path d="M1789 1532C1789 1529.24 1791.24 1527 1794 1527 1796.76 1527 1799 1529.24 1799 1532 1799 1534.76 1796.76 1537 1794 1537 1791.24 1537 1789 1534.76 1789 1532Z" stroke="#1A476F" stroke-width="5.72917" stroke-linejoin="round" stroke-miterlimit="10" fill="#1A476F" fill-rule="evenodd"/><text fill="#1A476F" font-family="Arial,Arial_MSFontService,sans-serif" font-weight="400" font-size="28" transform="matrix(1 0 0 1 1782.55 1507)">NO</text><path d="M1052 1920C1052 1917.24 1054.46 1915 1057.5 1915 1060.54 1915 1063 1917.24 1063 1920 1063 1922.76 1060.54 1925 1057.5 1925 1054.46 1925 1052 1922.76 1052 1920Z" stroke="#1A476F" stroke-width="5.72917" stroke-linejoin="round" stroke-miterlimit="10" fill="#1A476F" fill-rule="evenodd"/><text fill="#1A476F" font-family="Arial,Arial_MSFontService,sans-serif" font-weight="400" font-size="28" transform="matrix(1 0 0 1 1058.77 1948)">PK</text><path d="M944 1909.5C944 1906.46 946.462 1904 949.5 1904 952.537 1904 955 1906.46 955 1909.5 955 1912.54 952.537 1915 949.5 1915 946.462 1915 944 1912.54 944 1909.5Z" stroke="#1A476F" stroke-width="5.72917" stroke-linejoin="round" stroke-miterlimit="10" fill="#1A476F" fill-rule="evenodd"/><text fill="#1A476F" font-family="Arial,Arial_MSFontService,sans-serif" font-weight="400" font-size="28" transform="matrix(1 0 0 1 886.286 1911)">PE</text><path d="M1020 1878C1020 1875.24 1022.01 1873 1024.5 1873 1026.99 1873 1029 1875.24 1029 1878 1029 1880.76 1026.99 1883 1024.5 1883 1022.01 1883 1020 1880.76 1020 1878Z" stroke="#1A476F" stroke-width="5.72917" stroke-linejoin="round" stroke-miterlimit="10" fill="#1A476F" fill-rule="evenodd"/><text fill="#1A476F" font-family="Arial,Arial_MSFontService,sans-serif" font-weight="400" font-size="18" transform="matrix(1 0 0 1 1056.47 1898)">PH</text><path d="M1611 1607C1611 1603.69 1613.46 1601 1616.5 1601 1619.54 1601 1622 1603.69 1622 1607 1622 1610.31 1619.54 1613 1616.5 1613 1613.46 1613 1611 1610.31 1611 1607Z" stroke="#1A476F" stroke-width="5.72917" stroke-linejoin="round" stroke-miterlimit="10" fill="#1A476F" fill-rule="evenodd"/><text fill="#1A476F" font-family="Arial,Arial_MSFontService,sans-serif" font-weight="400" font-size="28" transform="matrix(1 0 0 1 1567.53 1616)">PL</text><path d="M1249 1782C1249 1779.24 1251.24 1777 1254 1777 1256.76 1777 1259 1779.24 1259 1782 1259 1784.76 1256.76 1787 1254 1787 1251.24 1787 1249 1784.76 1249 1782Z" stroke="#1A476F" stroke-width="5.72917" stroke-linejoin="round" stroke-miterlimit="10" fill="#1A476F" fill-rule="evenodd"/><text fill="#1A476F" font-family="Arial,Arial_MSFontService,sans-serif" font-weight="400" font-size="28" transform="matrix(1 0 0 1 1262.02 1787)">PT</text><path d="M1002 1876.5C1002 1874.01 1004.46 1872 1007.5 1872 1010.54 1872 1013 1874.01 1013 1876.5 1013 1878.99 1010.54 1881 1007.5 1881 1004.46 1881 1002 1878.99 1002 1876.5Z" stroke="#1A476F" stroke-width="5.72917" stroke-linejoin="round" stroke-miterlimit="10" fill="#1A476F" fill-rule="evenodd"/><text fill="#1A476F" font-family="Arial,Arial_MSFontService,sans-serif" font-weight="400" font-size="18" transform="matrix(1 0 0 1 1023.65 1898)">QA</text><path d="M1335 1813C1335 1809.69 1337.46 1807 1340.5 1807 1343.54 1807 1346 1809.69 1346 1813 1346 1816.31 1343.54 1819 1340.5 1819 1337.46 1819 1335 1816.31 1335 1813Z" stroke="#1A476F" stroke-width="5.72917" stroke-linejoin="round" stroke-miterlimit="10" fill="#1A476F" fill-rule="evenodd"/><text fill="#1A476F" font-family="Arial,Arial_MSFontService,sans-serif" font-weight="400" font-size="28" transform="matrix(1 0 0 1 1351.43 1830)">RO</text><path d="M1278 1749C1278 1745.69 1280.24 1743 1283 1743 1285.76 1743 1288 1745.69 1288 1749 1288 1752.31 1285.76 1755 1283 1755 1280.24 1755 1278 1752.31 1278 1749Z" stroke="#1A476F" stroke-width="5.72917" stroke-linejoin="round" stroke-miterlimit="10" fill="#1A476F" fill-rule="evenodd"/><text fill="#1A476F" font-family="Arial,Arial_MSFontService,sans-serif" font-weight="400" font-size="28" transform="matrix(1 0 0 1 1250.35 1731)">SA</text><path d="M971 1899.5C971 1896.46 973.239 1894 976 1894 978.762 1894 981 1896.46 981 1899.5 981 1902.54 978.762 1905 976 1905 973.239 1905 971 1902.54 971 1899.5Z" stroke="#1A476F" stroke-width="5.72917" stroke-linejoin="round" stroke-miterlimit="10" fill="#1A476F" fill-rule="evenodd"/><text fill="#1A476F" font-family="Arial,Arial_MSFontService,sans-serif" font-weight="400" font-size="28" transform="matrix(1 0 0 1 925.743 1882)">RS</text><path d="M1119 1770C1119 1767.24 1121.01 1765 1123.5 1765 1125.99 1765 1128 1767.24 1128 1770 1128 1772.76 1125.99 1775 1123.5 1775 1121.01 1775 1119 1772.76 1119 1770Z" stroke="#1A476F" stroke-width="5.72917" stroke-linejoin="round" stroke-miterlimit="10" fill="#1A476F" fill-rule="evenodd"/><text fill="#1A476F" font-family="Arial,Arial_MSFontService,sans-serif" font-weight="400" font-size="28" transform="matrix(1 0 0 1 1138.95 1775)">SG</text><path d="M1227 1828C1227 1825.24 1229.46 1823 1232.5 1823 1235.54 1823 1238 1825.24 1238 1828 1238 1830.76 1235.54 1833 1232.5 1833 1229.46 1833 1227 1830.76 1227 1828Z" stroke="#1A476F" stroke-width="5.72917" stroke-linejoin="round" stroke-miterlimit="10" fill="#1A476F" fill-rule="evenodd"/><text fill="#1A476F" font-family="Arial,Arial_MSFontService,sans-serif" font-weight="400" font-size="28" transform="matrix(1 0 0 1 1231.25 1855)">SK</text><path d="M1074 1878C1074 1875.24 1076.24 1873 1079 1873 1081.76 1873 1084 1875.24 1084 1878 1084 1880.76 1081.76 1883 1079 1883 1076.24 1883 1074 1880.76 1074 1878Z" stroke="#1A476F" stroke-width="5.72917" stroke-linejoin="round" stroke-miterlimit="10" fill="#1A476F" fill-rule="evenodd"/><text fill="#1A476F" font-family="Arial,Arial_MSFontService,sans-serif" font-weight="400" font-size="18" transform="matrix(1 0 0 1 1100.22 1879)">SI</text><path d="M1104 1770C1104 1767.24 1106.01 1765 1108.5 1765 1110.99 1765 1113 1767.24 1113 1770 1113 1772.76 1110.99 1775 1108.5 1775 1106.01 1775 1104 1772.76 1104 1770Z" stroke="#1A476F" stroke-width="5.72917" stroke-linejoin="round" stroke-miterlimit="10" fill="#1A476F" fill-rule="evenodd"/><text fill="#1A476F" font-family="Arial,Arial_MSFontService,sans-serif" font-weight="400" font-size="18" transform="matrix(1 0 0 1 1051.71 1768)">ZA</text><path d="M1624 1653C1624 1649.69 1626.46 1647 1629.5 1647 1632.54 1647 1635 1649.69 1635 1653 1635 1656.31 1632.54 1659 1629.5 1659 1626.46 1659 1624 1656.31 1624 1653Z" stroke="#1A476F" stroke-width="5.72917" stroke-linejoin="round" stroke-miterlimit="10" fill="#1A476F" fill-rule="evenodd"/><text fill="#1A476F" font-family="Arial,Arial_MSFontService,sans-serif" font-weight="400" font-size="28" transform="matrix(1 0 0 1 1647.17 1661)">ES</text><path d="M1698 1726C1698 1723.24 1700.24 1721 1703 1721 1705.76 1721 1708 1723.24 1708 1726 1708 1728.76 1705.76 1731 1703 1731 1700.24 1731 1698 1728.76 1698 1726Z" stroke="#1A476F" stroke-width="5.72917" stroke-linejoin="round" stroke-miterlimit="10" fill="#1A476F" fill-rule="evenodd"/><text fill="#1A476F" font-family="Arial,Arial_MSFontService,sans-serif" font-weight="400" font-size="28" transform="matrix(1 0 0 1 1719.93 1735)">CH</text><path d="M1136 1805C1136 1801.69 1138.46 1799 1141.5 1799 1144.54 1799 1147 1801.69 1147 1805 1147 1808.31 1144.54 1811 1141.5 1811 1138.46 1811 1136 1808.31 1136 1805Z" stroke="#1A476F" stroke-width="5.72917" stroke-linejoin="round" stroke-miterlimit="10" fill="#1A476F" fill-rule="evenodd"/><text fill="#1A476F" font-family="Arial,Arial_MSFontService,sans-serif" font-weight="400" font-size="28" transform="matrix(1 0 0 1 1144.38 1804)">TW</text><path d="M1061 1820C1061 1817.24 1063.24 1815 1066 1815 1068.76 1815 1071 1817.24 1071 1820 1071 1822.76 1068.76 1825 1066 1825 1063.24 1825 1061 1822.76 1061 1820Z" stroke="#1A476F" stroke-width="5.72917" stroke-linejoin="round" stroke-miterlimit="10" fill="#1A476F" fill-rule="evenodd"/><text fill="#1A476F" font-family="Arial,Arial_MSFontService,sans-serif" font-weight="400" font-size="18" transform="matrix(1 0 0 1 1081.03 1823)">TH</text><path d="M1432 1713C1432 1709.69 1434.46 1707 1437.5 1707 1440.54 1707 1443 1709.69 1443 1713 1443 1716.31 1440.54 1719 1437.5 1719 1434.46 1719 1432 1716.31 1432 1713Z" stroke="#1A476F" stroke-width="5.72917" stroke-linejoin="round" stroke-miterlimit="10" fill="#1A476F" fill-rule="evenodd"/><text fill="#1A476F" font-family="Arial,Arial_MSFontService,sans-serif" font-weight="400" font-size="28" transform="matrix(1 0 0 1 1417.67 1688)">TR</text><path d="M1128 1811C1128 1807.69 1130.46 1805 1133.5 1805 1136.54 1805 1139 1807.69 1139 1811 1139 1814.31 1136.54 1817 1133.5 1817 1130.46 1817 1128 1814.31 1128 1811Z" stroke="#1A476F" stroke-width="5.72917" stroke-linejoin="round" stroke-miterlimit="10" fill="#1A476F" fill-rule="evenodd"/><text fill="#1A476F" font-family="Arial,Arial_MSFontService,sans-serif" font-weight="400" font-size="28" transform="matrix(1 0 0 1 1146.55 1830)">UA</text><path d="M1160 1738C1160 1735.24 1162.01 1733 1164.5 1733 1166.99 1733 1169 1735.24 1169 1738 1169 1740.76 1166.99 1743 1164.5 1743 1162.01 1743 1160 1740.76 1160 1738Z" stroke="#1A476F" stroke-width="5.72917" stroke-linejoin="round" stroke-miterlimit="10" fill="#1A476F" fill-rule="evenodd"/><text fill="#1A476F" font-family="Arial,Arial_MSFontService,sans-serif" font-weight="400" font-size="28" transform="matrix(1 0 0 1 1173.34 1706)">AE</text><path d="M1851 1579.5C1851 1577.01 1853.69 1575 1857 1575 1860.31 1575 1863 1577.01 1863 1579.5 1863 1581.99 1860.31 1584 1857 1584 1853.69 1584 1851 1581.99 1851 1579.5Z" stroke="#1A476F" stroke-width="5.72917" stroke-linejoin="round" stroke-miterlimit="10" fill="#1A476F" fill-rule="evenodd"/><text fill="#1A476F" font-family="Arial,Arial_MSFontService,sans-serif" font-weight="400" font-size="28" transform="matrix(1 0 0 1 1870.51 1587)">GB</text><path d="M1996 1537.5C1996 1535.01 1998.69 1533 2002 1533 2005.31 1533 2008 1535.01 2008 1537.5 2008 1539.99 2005.31 1542 2002 1542 1998.69 1542 1996 1539.99 1996 1537.5Z" stroke="#1A476F" stroke-width="5.72917" stroke-linejoin="round" stroke-miterlimit="10" fill="#1A476F" fill-rule="evenodd"/><text fill="#1A476F" font-family="Arial,Arial_MSFontService,sans-serif" font-weight="400" font-size="28" transform="matrix(1 0 0 1 1990.33 1570)">US</text><path d="M1028 1872C1028 1869.24 1030.01 1867 1032.5 1867 1034.99 1867 1037 1869.24 1037 1872 1037 1874.76 1034.99 1877 1032.5 1877 1030.01 1877 1028 1874.76 1028 1872Z" stroke="#1A476F" stroke-width="5.72917" stroke-linejoin="round" stroke-miterlimit="10" fill="#1A476F" fill-rule="evenodd"/><text fill="#1A476F" font-family="Arial,Arial_MSFontService,sans-serif" font-weight="400" font-size="18" transform="matrix(1 0 0 1 1040.47 1875)">VN</text><text fill="#1A476F" font-family="Arial,Arial_MSFontService,sans-serif" font-weight="400" font-size="28" transform="matrix(1 0 0 1 1731.44 1499)">FI</text><path d="M1722 1517C1722 1514.24 1724.01 1512 1726.5 1512 1728.99 1512 1731 1514.24 1731 1517 1731 1519.76 1728.99 1522 1726.5 1522 1724.01 1522 1722 1519.76 1722 1517Z" stroke="#1A476F" stroke-width="5.72917" stroke-linejoin="round" stroke-miterlimit="10" fill="#1A476F" fill-rule="evenodd"/></g></svg>