<svg width="1822" height="796" xmlns="http://www.w3.org/2000/svg" xmlns:xlink="http://www.w3.org/1999/xlink" xml:space="preserve" overflow="hidden"><g transform="translate(-323 -1278)"><path d="M330 1285 2007.67 1285 2138 1415.33 2138 2066.99 2138 2066.99 460.335 2066.99 330 1936.65 330 1285Z" stroke="#C57B57" stroke-width="13.75" stroke-linejoin="round" stroke-miterlimit="10" fill="none" fill-rule="evenodd"/><text fill="#0D0D0D" font-family="Trebuchet MS,Trebuchet MS_MSFontService,sans-serif" font-weight="700" font-size="64" transform="matrix(1 0 0 1 461.019 1428)">Tellusant</text><text fill="#0D0D0D" font-family="Trebuchet MS,Trebuchet MS_MSFontService,sans-serif" font-weight="400" font-size="64" transform="matrix(1 0 0 1 757.217 1428)">is a pioneer in the deployment of AI for </text><text fill="#0D0D0D" font-family="Trebuchet MS,Trebuchet MS_MSFontService,sans-serif" font-weight="400" font-size="64" transform="matrix(1 0 0 1 461.019 1505)">strategic planning purposes.</text><text fill="#0D0D0D" font-family="Trebuchet MS,Trebuchet MS_MSFontService,sans-serif" font-weight="400" font-size="64" transform="matrix(1 0 0 1 461.019 1659)">Given the high level of accuracy of our cloud</text><text fill="#0D0D0D" font-family="Trebuchet MS,Trebuchet MS_MSFontService,sans-serif" font-weight="400" font-size="64" transform="matrix(1 0 0 1 1754.09 1659)">-</text><text fill="#0D0D0D" font-family="Trebuchet MS,Trebuchet MS_MSFontService,sans-serif" font-weight="400" font-size="64" transform="matrix(1 0 0 1 1777.58 1659)">based </text><text fill="#0D0D0D" font-family="Trebuchet MS,Trebuchet MS_MSFontService,sans-serif" font-weight="400" font-size="64" transform="matrix(1 0 0 1 461.019 1736)">solutions, we constrain AI so that it works at a similar </text><text fill="#0D0D0D" font-family="Trebuchet MS,Trebuchet MS_MSFontService,sans-serif" font-weight="400" font-size="64" transform="matrix(1 0 0 1 461.019 1813)">level of precision.</text><text fill="#0D0D0D" font-family="Trebuchet MS,Trebuchet MS_MSFontService,sans-serif" font-weight="400" font-size="64" transform="matrix(1 0 0 1 461.019 1967)">Our internal workflows are also highly AI driven</text></g></svg>