<svg width="1469" height="1755" xmlns="http://www.w3.org/2000/svg" xmlns:xlink="http://www.w3.org/1999/xlink" xml:space="preserve" overflow="hidden"><g transform="translate(-486 -638)"><path d="M601 1558C601 1226.63 869.629 958 1201 958 1532.37 958 1801 1226.63 1801 1558 1801 1889.37 1532.37 2158 1201 2158 869.629 2158 601 1889.37 601 1558Z" fill="#F2F2F2" fill-rule="evenodd"/><text font-family="Arial,Arial_MSFontService,sans-serif" font-weight="400" font-size="46" transform="matrix(1 0 0 1 518.75 2355)">Source: Runkel and McGrath (1972): Research on human behavior</text><path d="M543 1546C543 1181.49 838.492 886 1203 886 1567.51 886 1863 1181.49 1863 1546 1863 1910.51 1567.51 2206 1203 2206 838.492 2206 543 1910.51 543 1546ZM714.428 1546C714.428 1815.83 933.169 2034.57 1203 2034.57 1472.83 2034.57 1691.57 1815.83 1691.57 1546 1691.57 1276.17 1472.83 1057.43 1203 1057.43 933.169 1057.43 714.428 1276.17 714.428 1546Z" fill="#A6A6A6" fill-rule="evenodd"/><path d="M1211.51 799.576 1096.74 1206.14 794.056 911.433Z" fill="#0070C0" fill-rule="evenodd"/><path d="M1842.55 1987.79 1547.85 1685.11 1954.41 1570.33Z" fill="#548235" fill-rule="evenodd"/><path d="M520.614 1879.25 930.094 1775.37 826.215 2184.85Z" fill="#7F6000" fill-rule="evenodd"/><text font-family="Arial,Arial_MSFontService,sans-serif" font-weight="700" font-size="64" transform="matrix(1 0 0 1 968.618 1288)">Generality</text><text font-family="Arial,Arial_MSFontService,sans-serif" font-weight="700" font-size="64" transform="matrix(1 0 0 1 818.51 1726)">Realism</text><text font-family="Arial,Arial_MSFontService,sans-serif" font-weight="700" font-size="64" transform="matrix(1 0 0 1 1217.3 1707)">Precision</text><text fill="#C00000" font-family="Arial,Arial_MSFontService,sans-serif" font-weight="700" font-size="73" transform="matrix(1 0 0 1 742.877 732)">HORNS OF</text><text fill="#C00000" font-family="Arial,Arial_MSFontService,sans-serif" font-weight="700" font-size="73" transform="matrix(1 0 0 1 1150.22 732)">THE DILEMMA</text></g></svg>