<svg width="1876" height="1887" xmlns="http://www.w3.org/2000/svg" xmlns:xlink="http://www.w3.org/1999/xlink" xml:space="preserve" overflow="hidden"><defs><clipPath id="clip0"><rect x="1262" y="299" width="1876" height="1887"/></clipPath></defs><g clip-path="url(#clip0)" transform="translate(-1262 -299)"><rect x="1262" y="299" width="1876" height="1775" fill="#FFFFFF"/><g><rect x="1496.5" y="587.5" width="1552" height="1308" stroke="#7F7F7F" stroke-width="3.4375" stroke-linejoin="round" stroke-miterlimit="10" fill="none"/></g><g><path d="M0 0 0.000360892 1308" stroke="#BFBFBF" stroke-width="3.4375" stroke-linejoin="round" stroke-miterlimit="10" fill="none" fill-rule="evenodd" transform="matrix(1 0 0 -1 1496.5 1895.5)"/></g><g><path d="M1496.5 1895.5 3048.5 1895.5" stroke="#BFBFBF" stroke-width="3.4375" stroke-linejoin="round" stroke-miterlimit="10" fill="none" fill-rule="evenodd"/></g><g><path d="M2755.17 930.647C2755.17 936.721 2750.24 941.646 2744.17 941.646 2738.09 941.646 2733.17 936.721 2733.17 930.647 2733.17 924.572 2738.09 919.647 2744.17 919.647 2750.24 919.647 2755.17 924.572 2755.17 930.647Z" stroke="#203864" stroke-width="14.8958" stroke-linejoin="round" stroke-miterlimit="10" fill="#4472C4"/><path d="M2447.17 1101.65C2447.17 1107.72 2442.24 1112.65 2436.17 1112.65 2430.09 1112.65 2425.17 1107.72 2425.17 1101.65 2425.17 1095.57 2430.09 1090.65 2436.17 1090.65 2442.24 1090.65 2447.17 1095.57 2447.17 1101.65Z" stroke="#203864" stroke-width="14.8958" stroke-linejoin="round" stroke-miterlimit="10" fill="#4472C4"/><path d="M2345.17 1162.65C2345.17 1168.72 2340.24 1173.65 2334.17 1173.65 2328.09 1173.65 2323.17 1168.72 2323.17 1162.65 2323.17 1156.57 2328.09 1151.65 2334.17 1151.65 2340.24 1151.65 2345.17 1156.57 2345.17 1162.65Z" stroke="#203864" stroke-width="14.8958" stroke-linejoin="round" stroke-miterlimit="10" fill="#4472C4"/><path d="M2143.17 1666.65C2143.17 1672.72 2138.24 1677.65 2132.17 1677.65 2126.09 1677.65 2121.17 1672.72 2121.17 1666.65 2121.17 1660.57 2126.09 1655.65 2132.17 1655.65 2138.24 1655.65 2143.17 1660.57 2143.17 1666.65Z" stroke="#203864" stroke-width="14.8958" stroke-linejoin="round" stroke-miterlimit="10" fill="#4472C4"/><path d="M2318.17 1393.65C2318.17 1399.72 2313.24 1404.65 2307.17 1404.65 2301.09 1404.65 2296.17 1399.72 2296.17 1393.65 2296.17 1387.57 2301.09 1382.65 2307.17 1382.65 2313.24 1382.65 2318.17 1387.57 2318.17 1393.65Z" stroke="#203864" stroke-width="14.8958" stroke-linejoin="round" stroke-miterlimit="10" fill="#4472C4"/><path d="M2550.17 1141.65C2550.17 1147.72 2545.24 1152.65 2539.17 1152.65 2533.09 1152.65 2528.17 1147.72 2528.17 1141.65 2528.17 1135.57 2533.09 1130.65 2539.17 1130.65 2545.24 1130.65 2550.17 1135.57 2550.17 1141.65Z" stroke="#203864" stroke-width="14.8958" stroke-linejoin="round" stroke-miterlimit="10" fill="#4472C4"/><path d="M2267.17 1515.65C2267.17 1521.72 2262.24 1526.65 2256.17 1526.65 2250.09 1526.65 2245.17 1521.72 2245.17 1515.65 2245.17 1509.57 2250.09 1504.65 2256.17 1504.65 2262.24 1504.65 2267.17 1509.57 2267.17 1515.65Z" stroke="#203864" stroke-width="14.8958" stroke-linejoin="round" stroke-miterlimit="10" fill="#4472C4"/><path d="M2478.17 1077.65C2478.17 1083.72 2473.24 1088.65 2467.17 1088.65 2461.09 1088.65 2456.17 1083.72 2456.17 1077.65 2456.17 1071.57 2461.09 1066.65 2467.17 1066.65 2473.24 1066.65 2478.17 1071.57 2478.17 1077.65Z" stroke="#203864" stroke-width="14.8958" stroke-linejoin="round" stroke-miterlimit="10" fill="#4472C4"/><path d="M2457.17 1131.65C2457.17 1137.72 2452.24 1142.65 2446.17 1142.65 2440.09 1142.65 2435.17 1137.72 2435.17 1131.65 2435.17 1125.57 2440.09 1120.65 2446.17 1120.65 2452.24 1120.65 2457.17 1125.57 2457.17 1131.65Z" stroke="#203864" stroke-width="14.8958" stroke-linejoin="round" stroke-miterlimit="10" fill="#4472C4"/><path d="M2165.17 1764.65C2165.17 1770.72 2160.24 1775.65 2154.17 1775.65 2148.09 1775.65 2143.17 1770.72 2143.17 1764.65 2143.17 1758.57 2148.09 1753.65 2154.17 1753.65 2160.24 1753.65 2165.17 1758.57 2165.17 1764.65Z" stroke="#203864" stroke-width="14.8958" stroke-linejoin="round" stroke-miterlimit="10" fill="#4472C4"/><path d="M2399.17 1478.65C2399.17 1484.72 2394.24 1489.65 2388.17 1489.65 2382.09 1489.65 2377.17 1484.72 2377.17 1478.65 2377.17 1472.57 2382.09 1467.65 2388.17 1467.65 2394.24 1467.65 2399.17 1472.57 2399.17 1478.65Z" stroke="#203864" stroke-width="14.8958" stroke-linejoin="round" stroke-miterlimit="10" fill="#4472C4"/><path d="M2194.17 1779.65C2194.17 1785.72 2189.24 1790.65 2183.17 1790.65 2177.09 1790.65 2172.17 1785.72 2172.17 1779.65 2172.17 1773.57 2177.09 1768.65 2183.17 1768.65 2189.24 1768.65 2194.17 1773.57 2194.17 1779.65Z" stroke="#203864" stroke-width="14.8958" stroke-linejoin="round" stroke-miterlimit="10" fill="#4472C4"/><path d="M2868.17 721.647C2868.17 727.721 2863.24 732.646 2857.17 732.646 2851.09 732.646 2846.17 727.721 2846.17 721.647 2846.17 715.572 2851.09 710.647 2857.17 710.647 2863.24 710.647 2868.17 715.572 2868.17 721.647Z" stroke="#203864" stroke-width="14.8958" stroke-linejoin="round" stroke-miterlimit="10" fill="#4472C4"/><path d="M2525.17 938.646C2525.17 944.721 2520.24 949.646 2514.17 949.646 2508.09 949.646 2503.17 944.721 2503.17 938.646 2503.17 932.572 2508.09 927.647 2514.17 927.647 2520.24 927.647 2525.17 932.572 2525.17 938.646Z" stroke="#203864" stroke-width="14.8958" stroke-linejoin="round" stroke-miterlimit="10" fill="#4472C4"/><path d="M2564.17 1385.65C2564.17 1391.72 2559.24 1396.65 2553.17 1396.65 2547.09 1396.65 2542.17 1391.72 2542.17 1385.65 2542.17 1379.57 2547.09 1374.65 2553.17 1374.65 2559.24 1374.65 2564.17 1379.57 2564.17 1385.65Z" stroke="#203864" stroke-width="14.8958" stroke-linejoin="round" stroke-miterlimit="10" fill="#4472C4"/><path d="M2224.17 1653.65C2224.17 1659.72 2219.24 1664.65 2213.17 1664.65 2207.09 1664.65 2202.17 1659.72 2202.17 1653.65 2202.17 1647.57 2207.09 1642.65 2213.17 1642.65 2219.24 1642.65 2224.17 1647.57 2224.17 1653.65Z" stroke="#203864" stroke-width="14.8958" stroke-linejoin="round" stroke-miterlimit="10" fill="#4472C4"/><path d="M2400.17 1467.65C2400.17 1473.72 2395.24 1478.65 2389.17 1478.65 2383.09 1478.65 2378.17 1473.72 2378.17 1467.65 2378.17 1461.57 2383.09 1456.65 2389.17 1456.65 2395.24 1456.65 2400.17 1461.57 2400.17 1467.65Z" stroke="#203864" stroke-width="14.8958" stroke-linejoin="round" stroke-miterlimit="10" fill="#4472C4"/><path d="M2056.17 1758.65C2056.17 1764.72 2051.24 1769.65 2045.17 1769.65 2039.09 1769.65 2034.17 1764.72 2034.17 1758.65 2034.17 1752.57 2039.09 1747.65 2045.17 1747.65 2051.24 1747.65 2056.17 1752.57 2056.17 1758.65Z" stroke="#203864" stroke-width="14.8958" stroke-linejoin="round" stroke-miterlimit="10" fill="#4472C4"/></g><g><path d="M2436.5 1101.5 2344.5 1076.5" stroke="#A6A6A6" stroke-width="3.4375" stroke-linejoin="round" stroke-miterlimit="10" fill="none"/></g><g><path d="M2334.5 1162.5 2308.58 1153.5 2287.5 1153.5" stroke="#A6A6A6" stroke-width="3.4375" stroke-linejoin="round" stroke-miterlimit="10" fill="none"/></g><g><path d="M2307.5 1393.5 2336.5 1368.5" stroke="#A6A6A6" stroke-width="3.4375" stroke-linejoin="round" stroke-miterlimit="10" fill="none"/></g><g><path d="M2539.5 1141.5 2567.58 1137.5 2587.5 1137.5" stroke="#A6A6A6" stroke-width="3.4375" stroke-linejoin="round" stroke-miterlimit="10" fill="none"/></g><g><path d="M2256.5 1515.5 2398.5 1540.5" stroke="#A6A6A6" stroke-width="3.4375" stroke-linejoin="round" stroke-miterlimit="10" fill="none"/></g><g><path d="M2467.5 1077.5 2490.58 1038.5 2510.5 1038.5" stroke="#A6A6A6" stroke-width="3.4375" stroke-linejoin="round" stroke-miterlimit="10" fill="none"/></g><g><path d="M2446.5 1131.5 2474.5 1170.5" stroke="#A6A6A6" stroke-width="3.4375" stroke-linejoin="round" stroke-miterlimit="10" fill="none"/></g><g><path d="M2183.5 1779.5 2165.5 1805.5" stroke="#A6A6A6" stroke-width="3.4375" stroke-linejoin="round" stroke-miterlimit="10" fill="none"/></g><g><path d="M2857.5 721.5 2729.59 665.5 2708.5 665.5" stroke="#A6A6A6" stroke-width="3.4375" stroke-linejoin="round" stroke-miterlimit="10" fill="none"/></g><g><path d="M2514.5 938.5 2450.58 901.5 2429.5 901.5" stroke="#A6A6A6" stroke-width="3.4375" stroke-linejoin="round" stroke-miterlimit="10" fill="none"/></g><g><path d="M2553.5 1385.5 2612.5 1360.5" stroke="#A6A6A6" stroke-width="3.4375" stroke-linejoin="round" stroke-miterlimit="10" fill="none"/></g><g><path d="M2213.5 1653.5 2217.57 1629.5 2238.5 1629.5" stroke="#A6A6A6" stroke-width="3.4375" stroke-linejoin="round" stroke-miterlimit="10" fill="none"/></g><g><path d="M2389.5 1467.5 2394.58 1438.5 2415.5 1438.5" stroke="#A6A6A6" stroke-width="3.4375" stroke-linejoin="round" stroke-miterlimit="10" fill="none"/></g><g><text font-family="Arial,Arial_MSFontService,sans-serif" font-weight="400" font-size="46" transform="matrix(1 0 0 1 2668.36 992)">Cape Town, WC</text></g><g><text font-family="Arial,Arial_MSFontService,sans-serif" font-weight="400" font-size="46" transform="matrix(1 0 0 1 2227.29 1060)">Rest of WC</text></g><g><text font-family="Arial,Arial_MSFontService,sans-serif" font-weight="400" font-size="46" transform="matrix(1 0 0 1 2031.96 1144)">E London &amp; </text></g><g><text font-family="Arial,Arial_MSFontService,sans-serif" font-weight="400" font-size="46" transform="matrix(1 0 0 1 2029.44 1197)">Pt Elizabeth</text></g><g><text font-family="Arial,Arial_MSFontService,sans-serif" font-weight="400" font-size="46" transform="matrix(1 0 0 1 1969.82 1632)">Rest of EC</text></g><g><text font-family="Arial,Arial_MSFontService,sans-serif" font-weight="400" font-size="46" transform="matrix(1 0 0 1 2245.85 1352)">Total NC</text></g><g><text font-family="Arial,Arial_MSFontService,sans-serif" font-weight="400" font-size="46" transform="matrix(1 0 0 1 2601.58 1127)">Bloemfontein, </text></g><g><text font-family="Arial,Arial_MSFontService,sans-serif" font-weight="400" font-size="46" transform="matrix(1 0 0 1 2712.4 1180)">FS</text></g><g><text font-family="Arial,Arial_MSFontService,sans-serif" font-weight="400" font-size="46" transform="matrix(1 0 0 1 2290.55 1590)">Rest of FS</text></g><g><text font-family="Arial,Arial_MSFontService,sans-serif" font-weight="400" font-size="46" transform="matrix(1 0 0 1 2524.59 1055)">Durban, KZN</text></g><g><text font-family="Arial,Arial_MSFontService,sans-serif" font-weight="400" font-size="46" transform="matrix(1 0 0 1 2305.99 1220)">Pietermaritzburg</text></g><g><text font-family="Arial,Arial_MSFontService,sans-serif" font-weight="400" font-size="46" transform="matrix(1 0 0 1 2415.51 1273)">, KZN</text></g><g><text font-family="Arial,Arial_MSFontService,sans-serif" font-weight="400" font-size="46" transform="matrix(1 0 0 1 2188.72 1733)">Rest of KZN</text></g><g><text font-family="Arial,Arial_MSFontService,sans-serif" font-weight="400" font-size="46" transform="matrix(1 0 0 1 2326.82 1533)">Rustenburg. NW</text></g><g><text font-family="Arial,Arial_MSFontService,sans-serif" font-weight="400" font-size="46" transform="matrix(1 0 0 1 2048.4 1855)">Rest of NW</text></g><g><text font-family="Arial,Arial_MSFontService,sans-serif" font-weight="400" font-size="46" transform="matrix(1 0 0 1 2139.47 656)">Johannesburg </text></g><g><text font-family="Arial,Arial_MSFontService,sans-serif" font-weight="400" font-size="46" transform="matrix(1 0 0 1 2442.66 656)">-</text></g><g><text font-family="Arial,Arial_MSFontService,sans-serif" font-weight="400" font-size="46" transform="matrix(1 0 0 1 2470.66 656)">Ekurhuleni </text></g><g><text font-family="Arial,Arial_MSFontService,sans-serif" font-weight="400" font-size="46" transform="matrix(1 0 0 1 2273.23 709)">-</text></g><g><text font-family="Arial,Arial_MSFontService,sans-serif" font-weight="400" font-size="46" transform="matrix(1 0 0 1 2301.24 709)">Pretoria, GP</text></g><g><g><text font-family="Arial,Arial_MSFontService,sans-serif" font-weight="400" font-size="46" transform="matrix(1 0 0 1 2114.74 865)">Soshanguve </text></g></g><g><g><text font-family="Arial,Arial_MSFontService,sans-serif" font-weight="400" font-size="46" transform="matrix(1 0 0 1 2382.27 865)">-</text></g></g><g><text font-family="Arial,Arial_MSFontService,sans-serif" font-weight="400" font-size="46" transform="matrix(1 0 0 1 2119.85 918)">Vereeniging </text></g><g><text font-family="Arial,Arial_MSFontService,sans-serif" font-weight="400" font-size="46" transform="matrix(1 0 0 1 2377.16 918)">-</text></g><g><g><text font-family="Arial,Arial_MSFontService,sans-serif" font-weight="400" font-size="46" transform="matrix(1 0 0 1 2173.36 970)">W Rand</text></g></g><g><text font-family="Arial,Arial_MSFontService,sans-serif" font-weight="400" font-size="46" transform="matrix(1 0 0 1 2482.52 1344)">Witbank, MP</text></g><g><text font-family="Arial,Arial_MSFontService,sans-serif" font-weight="400" font-size="46" transform="matrix(1 0 0 1 2252.07 1646)">Rest of MP</text></g><g><text font-family="Arial,Arial_MSFontService,sans-serif" font-weight="400" font-size="46" transform="matrix(1 0 0 1 2428.95 1455)">Polokwane, LP</text></g><g><text font-family="Arial,Arial_MSFontService,sans-serif" font-weight="400" font-size="46" transform="matrix(1 0 0 1 1891.23 1725)">Rest of LP</text></g><g><path d="M0 0 812 1112" stroke="#002060" stroke-width="6.875" stroke-linecap="round" stroke-linejoin="round" stroke-miterlimit="10" stroke-dasharray="0 13.75" fill="none" fill-rule="evenodd" transform="matrix(1 0 0 -1 2045.5 1805.5)"/></g><g><text font-family="Arial,Arial_MSFontService,sans-serif" font-weight="400" font-size="46" transform="matrix(1 0 0 1 1391.31 1911)">0%</text></g><g><text font-family="Arial,Arial_MSFontService,sans-serif" font-weight="400" font-size="46" transform="matrix(1 0 0 1 1365.83 1747)">10%</text></g><g><text font-family="Arial,Arial_MSFontService,sans-serif" font-weight="400" font-size="46" transform="matrix(1 0 0 1 1365.83 1584)">20%</text></g><g><text font-family="Arial,Arial_MSFontService,sans-serif" font-weight="400" font-size="46" transform="matrix(1 0 0 1 1365.83 1420)">30%</text></g><g><text font-family="Arial,Arial_MSFontService,sans-serif" font-weight="400" font-size="46" transform="matrix(1 0 0 1 1365.83 1257)">40%</text></g><g><text font-family="Arial,Arial_MSFontService,sans-serif" font-weight="400" font-size="46" transform="matrix(1 0 0 1 1365.83 1093)">50%</text></g><g><text font-family="Arial,Arial_MSFontService,sans-serif" font-weight="400" font-size="46" transform="matrix(1 0 0 1 1365.83 929)">60%</text></g><g><text font-family="Arial,Arial_MSFontService,sans-serif" font-weight="400" font-size="46" transform="matrix(1 0 0 1 1365.83 766)">70%</text></g><g><text font-family="Arial,Arial_MSFontService,sans-serif" font-weight="400" font-size="46" transform="matrix(1 0 0 1 1365.83 602)">80%</text></g><g><text font-family="Arial,Arial_MSFontService,sans-serif" font-weight="400" font-size="46" transform="matrix(1 0 0 1 1463.87 1965)">0%</text></g><g><text font-family="Arial,Arial_MSFontService,sans-serif" font-weight="400" font-size="46" transform="matrix(1 0 0 1 1709.74 1965)">10%</text></g><g><text font-family="Arial,Arial_MSFontService,sans-serif" font-weight="400" font-size="46" transform="matrix(1 0 0 1 1968.36 1965)">20%</text></g><g><text font-family="Arial,Arial_MSFontService,sans-serif" font-weight="400" font-size="46" transform="matrix(1 0 0 1 2226.97 1965)">30%</text></g><g><text font-family="Arial,Arial_MSFontService,sans-serif" font-weight="400" font-size="46" transform="matrix(1 0 0 1 2485.59 1965)">40%</text></g><g><text font-family="Arial,Arial_MSFontService,sans-serif" font-weight="400" font-size="46" transform="matrix(1 0 0 1 2744.21 1965)">50%</text></g><g><text font-family="Arial,Arial_MSFontService,sans-serif" font-weight="400" font-size="46" transform="matrix(1 0 0 1 3002.82 1965)">60%</text></g><g><text font-family="Arial,Arial_MSFontService,sans-serif" font-weight="700" font-size="55" transform="matrix(6.12323e-17 -1 1 6.12323e-17 1340.8 1770)">Share of population with internet access</text></g><g><text font-family="Arial,Arial_MSFontService,sans-serif" font-weight="700" font-size="55" transform="matrix(1 0 0 1 1580.66 2040)">Share of population belonging to global middle class</text></g><g><text font-family="Arial,Arial_MSFontService,sans-serif" font-weight="700" font-size="64" transform="matrix(1 0 0 1 1649.22 435)">SOUTH AFRICAN INTERNET ACCESS</text></g><g><path d="M0 0 800.453 1097.22" stroke="#C00000" stroke-width="2.29167" stroke-miterlimit="8" fill="none" fill-rule="evenodd" transform="matrix(-1 0 0 1 2758.45 694)"/></g><g><text fill="#C00000" font-family="Arial,Arial_MSFontService,sans-serif" font-style="italic" font-weight="700" font-size="46" transform="matrix(1 0 0 1 1952.96 1480)">Envelope</text></g><g><text fill="#002060" font-family="Arial,Arial_MSFontService,sans-serif" font-style="italic" font-weight="700" font-size="46" transform="matrix(1 0 0 1 2781.15 872)">Trendline</text></g><g><text font-family="Arial,Arial_MSFontService,sans-serif" font-weight="400" font-size="50" transform="matrix(1 0 0 1 2781.23 532)">R</text></g><g><text font-family="Arial,Arial_MSFontService,sans-serif" font-weight="400" font-size="34" transform="matrix(1 0 0 1 2817.9 517)">2</text></g><g><text font-family="Arial,Arial_MSFontService,sans-serif" font-weight="400" font-size="50" transform="matrix(1 0 0 1 2850.56 532)">= 0.80</text></g><text font-family="Arial,Arial_MSFontService,sans-serif" font-weight="400" font-size="46" transform="matrix(1 0 0 1 1525.6 661)">EC</text><text font-family="Arial,Arial_MSFontService,sans-serif" font-weight="400" font-size="46" transform="matrix(1 0 0 1 1650.03 661)">Eastern Cape</text><text font-family="Arial,Arial_MSFontService,sans-serif" font-weight="400" font-size="46" transform="matrix(1 0 0 1 1525.6 716)">FS</text><text font-family="Arial,Arial_MSFontService,sans-serif" font-weight="400" font-size="46" transform="matrix(1 0 0 1 1650.03 716)">Free State</text><text font-family="Arial,Arial_MSFontService,sans-serif" font-weight="400" font-size="46" transform="matrix(1 0 0 1 1525.6 771)">GP</text><text font-family="Arial,Arial_MSFontService,sans-serif" font-weight="400" font-size="46" transform="matrix(1 0 0 1 1650.03 771)">Gauteng</text><text font-family="Arial,Arial_MSFontService,sans-serif" font-weight="400" font-size="46" transform="matrix(1 0 0 1 1525.6 826)">KZN</text><text font-family="Arial,Arial_MSFontService,sans-serif" font-weight="400" font-size="46" transform="matrix(1 0 0 1 1650.03 826)">Kwazulu</text><text font-family="Arial,Arial_MSFontService,sans-serif" font-weight="400" font-size="46" transform="matrix(1 0 0 1 1822.48 826)">-</text><text font-family="Arial,Arial_MSFontService,sans-serif" font-weight="400" font-size="46" transform="matrix(1 0 0 1 1837.95 826)">Natal</text><text font-family="Arial,Arial_MSFontService,sans-serif" font-weight="400" font-size="46" transform="matrix(1 0 0 1 1525.6 881)">LP</text><text font-family="Arial,Arial_MSFontService,sans-serif" font-weight="400" font-size="46" transform="matrix(1 0 0 1 1650.03 881)">Limpopo</text><text font-family="Arial,Arial_MSFontService,sans-serif" font-weight="400" font-size="46" transform="matrix(1 0 0 1 1525.6 936)">MP</text><text font-family="Arial,Arial_MSFontService,sans-serif" font-weight="400" font-size="46" transform="matrix(1 0 0 1 1650.03 936)">Mpumalanga</text><text font-family="Arial,Arial_MSFontService,sans-serif" font-weight="400" font-size="46" transform="matrix(1 0 0 1 1525.6 991)">NW</text><text font-family="Arial,Arial_MSFontService,sans-serif" font-weight="400" font-size="46" transform="matrix(1 0 0 1 1650.03 991)">North</text><text font-family="Arial,Arial_MSFontService,sans-serif" font-weight="400" font-size="46" transform="matrix(1 0 0 1 1761.75 991)">-</text><text font-family="Arial,Arial_MSFontService,sans-serif" font-weight="400" font-size="46" transform="matrix(1 0 0 1 1777.22 991)">West</text><text font-family="Arial,Arial_MSFontService,sans-serif" font-weight="400" font-size="46" transform="matrix(1 0 0 1 1525.6 1046)">NC</text><text font-family="Arial,Arial_MSFontService,sans-serif" font-weight="400" font-size="46" transform="matrix(1 0 0 1 1650.03 1046)">Northern Cape</text><text font-family="Arial,Arial_MSFontService,sans-serif" font-weight="400" font-size="46" transform="matrix(1 0 0 1 1525.6 1101)">WC</text><text font-family="Arial,Arial_MSFontService,sans-serif" font-weight="400" font-size="46" transform="matrix(1 0 0 1 1650.03 1101)">Western Cape</text><text font-family="Arial,Arial_MSFontService,sans-serif" font-weight="400" font-size="46" transform="matrix(1 0 0 1 1512.41 2148)">Source: TelluBase; ICASA </text><text font-family="Arial,Arial_MSFontService,sans-serif" font-weight="400" font-size="46" transform="matrix(1 0 0 1 2059.54 2148)">-</text><text font-family="Arial,Arial_MSFontService,sans-serif" font-weight="400" font-size="46" transform="matrix(1 0 0 1 2087.61 2148)">State of ICT </text><text font-family="Arial,Arial_MSFontService,sans-serif" font-weight="400" font-size="46" transform="matrix(1 0 0 1 2343.14 2148)">Sector</text><text font-family="Arial,Arial_MSFontService,sans-serif" font-weight="400" font-size="46" transform="matrix(1 0 0 1 2487.51 2148)">2021</text><text font-family="Arial,Arial_MSFontService,sans-serif" font-weight="400" font-size="46" transform="matrix(1 0 0 1 2588.34 2148)">; </text><text font-family="Arial,Arial_MSFontService,sans-serif" font-weight="400" font-size="46" transform="matrix(1 0 0 1 2613.55 2148)">Tellusant analysis</text></g></svg>