<svg width="1654" height="1628" xmlns="http://www.w3.org/2000/svg" xmlns:xlink="http://www.w3.org/1999/xlink" xml:space="preserve" overflow="hidden"><defs><clipPath id="clip0"><rect x="1373" y="473" width="1654" height="1628"/></clipPath></defs><g clip-path="url(#clip0)" transform="translate(-1373 -473)"><rect x="1374" y="474" width="1652" height="1527" fill="#000000" fill-opacity="0"/><g><path d="M1594.5 1421.5 2996.5 1421.5" stroke="#D9D9D9" stroke-width="3.4375" stroke-miterlimit="2" fill="none"/><path d="M1594.5 1331.5 2996.5 1331.5" stroke="#D9D9D9" stroke-width="3.4375" stroke-miterlimit="2" fill="none"/><path d="M1594.5 1240.5 2996.5 1240.5" stroke="#D9D9D9" stroke-width="3.4375" stroke-miterlimit="2" fill="none"/><path d="M1594.5 1150.5 2996.5 1150.5" stroke="#D9D9D9" stroke-width="3.4375" stroke-miterlimit="2" fill="none"/><path d="M1594.5 1060.5 2996.5 1060.5" stroke="#D9D9D9" stroke-width="3.4375" stroke-miterlimit="2" fill="none"/><path d="M1594.5 970.5 2996.5 970.5" stroke="#D9D9D9" stroke-width="3.4375" stroke-miterlimit="2" fill="none"/><path d="M1594.5 880.5 2996.5 880.5" stroke="#D9D9D9" stroke-width="3.4375" stroke-miterlimit="2" fill="none"/><path d="M1594.5 790.5 2996.5 790.5" stroke="#D9D9D9" stroke-width="3.4375" stroke-miterlimit="2" fill="none"/><path d="M1594.5 700.5 2996.5 700.5" stroke="#D9D9D9" stroke-width="3.4375" stroke-miterlimit="2" fill="none"/><rect x="1609.5" y="1334.5" width="58" height="177" fill="#9E5937"/><rect x="1609.5" y="1334.5" width="58" height="177" stroke="#9E5937" stroke-width="4.58333" stroke-linecap="round" stroke-miterlimit="2" fill="none"/><rect x="1696.5" y="1173.5" width="59" height="161" fill="#9E5937"/><rect x="1696.5" y="1173.5" width="59" height="161" stroke="#9E5937" stroke-width="4.58333" stroke-linecap="round" stroke-miterlimit="2" fill="none"/><rect x="1784.5" y="1083.5" width="58" height="90" fill="#9E5937"/><rect x="1784.5" y="1083.5" width="58" height="90" stroke="#9E5937" stroke-width="4.58333" stroke-linecap="round" stroke-miterlimit="2" fill="none"/><rect x="1871.5" y="995.5" width="59" height="88" fill="#9E5937"/><rect x="1871.5" y="995.5" width="59" height="88" stroke="#9E5937" stroke-width="4.58333" stroke-linecap="round" stroke-miterlimit="2" fill="none"/><rect x="1959.5" y="918.5" width="58" height="77" fill="#9E5937"/><rect x="1959.5" y="918.5" width="58" height="77" stroke="#9E5937" stroke-width="4.58333" stroke-linecap="round" stroke-miterlimit="2" fill="none"/><rect x="2047.5" y="872.5" width="58" height="46" fill="#9E5937"/><rect x="2047.5" y="872.5" width="58" height="46" stroke="#9E5937" stroke-width="4.58333" stroke-linecap="round" stroke-miterlimit="2" fill="none"/><rect x="2134.5" y="828.5" width="59" height="44" fill="#9E5937"/><rect x="2134.5" y="828.5" width="59" height="44" stroke="#9E5937" stroke-width="4.58333" stroke-linecap="round" stroke-miterlimit="2" fill="none"/><rect x="2222.5" y="801.5" width="58" height="27" fill="#9E5937"/><rect x="2222.5" y="801.5" width="58" height="27" stroke="#9E5937" stroke-width="4.58333" stroke-linecap="round" stroke-miterlimit="2" fill="none"/><rect x="2309.5" y="784.5" width="59" height="17" fill="#9E5937"/><rect x="2309.5" y="784.5" width="59" height="17" stroke="#9E5937" stroke-width="4.58333" stroke-linecap="round" stroke-miterlimit="2" fill="none"/><rect x="2397.5" y="772.5" width="58" height="12" fill="#9E5937"/><rect x="2397.5" y="772.5" width="58" height="12" stroke="#9E5937" stroke-width="4.58333" stroke-linecap="round" stroke-miterlimit="2" fill="none"/><rect x="2485.5" y="761.5" width="58" height="11" fill="#9E5937"/><rect x="2485.5" y="761.5" width="58" height="11" stroke="#9E5937" stroke-width="4.58333" stroke-linecap="round" stroke-miterlimit="2" fill="none"/><rect x="2572.5" y="752.5" width="59" height="9" fill="#9E5937"/><rect x="2572.5" y="752.5" width="59" height="9" stroke="#9E5937" stroke-width="4.58333" stroke-linecap="round" stroke-miterlimit="2" fill="none"/><rect x="2660.5" y="744.5" width="58" height="8" fill="#9E5937"/><rect x="2660.5" y="744.5" width="58" height="8" stroke="#9E5937" stroke-width="4.58333" stroke-linecap="round" stroke-miterlimit="2" fill="none"/><rect x="2747.5" y="744.5" width="59" height="0" fill="#9E5937"/><rect x="2747.5" y="744.5" width="59" height="0" stroke="#9E5937" stroke-width="4.58333" stroke-linecap="round" stroke-miterlimit="2" fill="none"/><rect x="2835.5" y="742.5" width="58" height="2" fill="#9E5937"/><rect x="2835.5" y="742.5" width="58" height="2" stroke="#9E5937" stroke-width="4.58333" stroke-linecap="round" stroke-miterlimit="2" fill="none"/><rect x="2923.5" y="744.5" width="58" height="767" fill="#9E5937"/><rect x="2923.5" y="744.5" width="58" height="767" stroke="#9E5937" stroke-width="4.58333" stroke-linecap="round" stroke-miterlimit="2" fill="none"/><path d="M1667.5 1334.5 1696.5 1334.5" stroke="#9E5937" stroke-width="4.58333" stroke-miterlimit="2" fill="none"/><path d="M1755.5 1173.5 1784.5 1173.5" stroke="#9E5937" stroke-width="4.58333" stroke-miterlimit="2" fill="none"/><path d="M1842.5 1083.5 1871.5 1083.5" stroke="#9E5937" stroke-width="4.58333" stroke-miterlimit="2" fill="none"/><path d="M1930.5 995.5 1959.5 995.5" stroke="#9E5937" stroke-width="4.58333" stroke-miterlimit="2" fill="none"/><path d="M2017.5 918.5 2047.5 918.5" stroke="#9E5937" stroke-width="4.58333" stroke-miterlimit="2" fill="none"/><path d="M2105.5 872.5 2134.5 872.5" stroke="#9E5937" stroke-width="4.58333" stroke-miterlimit="2" fill="none"/><path d="M2193.5 828.5 2222.5 828.5" stroke="#9E5937" stroke-width="4.58333" stroke-miterlimit="2" fill="none"/><path d="M2280.5 801.5 2309.5 801.5" stroke="#9E5937" stroke-width="4.58333" stroke-miterlimit="2" fill="none"/><path d="M2368.5 784.5 2397.5 784.5" stroke="#9E5937" stroke-width="4.58333" stroke-miterlimit="2" fill="none"/><path d="M2455.5 772.5 2485.5 772.5" stroke="#9E5937" stroke-width="4.58333" stroke-miterlimit="2" fill="none"/><path d="M2543.5 761.5 2572.5 761.5" stroke="#9E5937" stroke-width="4.58333" stroke-miterlimit="2" fill="none"/><path d="M2631.5 752.5 2660.5 752.5" stroke="#9E5937" stroke-width="4.58333" stroke-miterlimit="2" fill="none"/><path d="M2718.5 744.5 2747.5 744.5" stroke="#9E5937" stroke-width="4.58333" stroke-miterlimit="2" fill="none"/><path d="M2806.5 744.5 2835.5 744.5" stroke="#9E5937" stroke-width="4.58333" stroke-miterlimit="2" fill="none"/><path d="M2893.5 744.5 2923.5 744.5" stroke="#9E5937" stroke-width="4.58333" stroke-miterlimit="2" fill="none"/></g><path d="M1594.5 1511.5 2996.5 1511.5" stroke="#D9D9D9" stroke-width="3.4375" stroke-miterlimit="2" fill="none"/><g><text font-family="Arial,Arial_MSFontService,sans-serif" font-weight="400" font-size="50" transform="matrix(6.12323e-17 -1 1 6.12323e-17 1656.95 1934)">Johannesburg </text></g><g><text font-family="Arial,Arial_MSFontService,sans-serif" font-weight="400" font-size="50" transform="matrix(6.12323e-17 -1 1 6.12323e-17 1656.95 1600)">-</text></g><g><text font-family="Arial,Arial_MSFontService,sans-serif" font-weight="400" font-size="50" transform="matrix(6.12323e-17 -1 1 6.12323e-17 1656.95 1583)">…</text></g><g><text font-family="Arial,Arial_MSFontService,sans-serif" font-weight="400" font-size="50" transform="matrix(6.12323e-17 -1 1 6.12323e-17 1744.55 1817)">Rest of KZN</text></g><g><text font-family="Arial,Arial_MSFontService,sans-serif" font-weight="400" font-size="50" transform="matrix(6.12323e-17 -1 1 6.12323e-17 1832.16 1800)">Rest of NW</text></g><g><text font-family="Arial,Arial_MSFontService,sans-serif" font-weight="400" font-size="50" transform="matrix(6.12323e-17 -1 1 6.12323e-17 1919.76 1913)">Cape Town, WC</text></g><g><text font-family="Arial,Arial_MSFontService,sans-serif" font-weight="400" font-size="50" transform="matrix(6.12323e-17 -1 1 6.12323e-17 2007.36 1791)">Rest of MP</text></g><g><text font-family="Arial,Arial_MSFontService,sans-serif" font-weight="400" font-size="50" transform="matrix(6.12323e-17 -1 1 6.12323e-17 2094.96 1786)">Rest of EC</text></g><g><text font-family="Arial,Arial_MSFontService,sans-serif" font-weight="400" font-size="50" transform="matrix(6.12323e-17 -1 1 6.12323e-17 2182.56 1777)">Rest of LP</text></g><g><text font-family="Arial,Arial_MSFontService,sans-serif" font-weight="400" font-size="50" transform="matrix(6.12323e-17 -1 1 6.12323e-17 2270.16 1780)">Rest of FS</text></g><g><text font-family="Arial,Arial_MSFontService,sans-serif" font-weight="400" font-size="50" transform="matrix(6.12323e-17 -1 1 6.12323e-17 2357.77 1828)">Witbank, MP</text></g><g><text font-family="Arial,Arial_MSFontService,sans-serif" font-weight="400" font-size="50" transform="matrix(6.12323e-17 -1 1 6.12323e-17 2445.37 1915)">Rustenburg. NW</text></g><g><text font-family="Arial,Arial_MSFontService,sans-serif" font-weight="400" font-size="50" transform="matrix(6.12323e-17 -1 1 6.12323e-17 2532.97 1880)">Polokwane, LP</text></g><g><text font-family="Arial,Arial_MSFontService,sans-serif" font-weight="400" font-size="50" transform="matrix(6.12323e-17 -1 1 6.12323e-17 2620.57 1741)">Total NC</text></g><g><text font-family="Arial,Arial_MSFontService,sans-serif" font-weight="400" font-size="50" transform="matrix(6.12323e-17 -1 1 6.12323e-17 2708.17 1930)">Bloemfontein, FS</text></g><g><text font-family="Arial,Arial_MSFontService,sans-serif" font-weight="400" font-size="50" transform="matrix(6.12323e-17 -1 1 6.12323e-17 2795.77 1950)">Pietermaritzburg, </text></g><g><text font-family="Arial,Arial_MSFontService,sans-serif" font-weight="400" font-size="50" transform="matrix(6.12323e-17 -1 1 6.12323e-17 2795.77 1567)">…</text></g><g><text font-family="Arial,Arial_MSFontService,sans-serif" font-weight="400" font-size="50" transform="matrix(6.12323e-17 -1 1 6.12323e-17 2883.38 1820)">Rest of RSA</text></g><g><text font-family="Arial,Arial_MSFontService,sans-serif" font-weight="400" font-size="50" transform="matrix(6.12323e-17 -1 1 6.12323e-17 2970.98 1772)">Total RSA</text></g><path d="M1594.5 1511.5 1594.5 700.5" stroke="#D9D9D9" stroke-width="3.4375" stroke-miterlimit="2" fill="none"/><g><text font-family="Arial,Arial_MSFontService,sans-serif" font-weight="700" font-size="55" transform="matrix(-1.83697e-16 -1 1 -1.83697e-16 1451.09 1356)">Million households</text></g><g><text font-family="Arial,Arial_MSFontService,sans-serif" font-weight="400" font-size="50" transform="translate(1494.46 1530)">0.0</text></g><g><text font-family="Arial,Arial_MSFontService,sans-serif" font-weight="400" font-size="50" transform="translate(1494.46 1440)">0.2</text></g><g><text font-family="Arial,Arial_MSFontService,sans-serif" font-weight="400" font-size="50" transform="translate(1494.46 1350)">0.4</text></g><g><text font-family="Arial,Arial_MSFontService,sans-serif" font-weight="400" font-size="50" transform="translate(1494.46 1260)">0.6</text></g><g><text font-family="Arial,Arial_MSFontService,sans-serif" font-weight="400" font-size="50" transform="translate(1494.46 1170)">0.8</text></g><g><text font-family="Arial,Arial_MSFontService,sans-serif" font-weight="400" font-size="50" transform="translate(1494.46 1080)">1.0</text></g><g><text font-family="Arial,Arial_MSFontService,sans-serif" font-weight="400" font-size="50" transform="translate(1494.46 989)">1.2</text></g><g><text font-family="Arial,Arial_MSFontService,sans-serif" font-weight="400" font-size="50" transform="translate(1494.46 899)">1.4</text></g><g><text font-family="Arial,Arial_MSFontService,sans-serif" font-weight="400" font-size="50" transform="translate(1494.46 809)">1.6</text></g><g><text font-family="Arial,Arial_MSFontService,sans-serif" font-weight="400" font-size="50" transform="translate(1494.46 719)">1.8</text></g><g><text font-family="Arial,Arial_MSFontService,sans-serif" font-weight="700" font-size="64" transform="translate(1621.97 561)">SOUTH AFRICAN INTERNET ACCESS </text></g><g><text font-family="Arial,Arial_MSFontService,sans-serif" font-weight="700" font-size="64" transform="translate(1791.55 638)">MARKET OPPORTUNITIES</text></g><path d="M1373 473 3026.51 473 3026.51 2001.28 1373 2001.28Z" fill="#000000" fill-rule="evenodd" fill-opacity="0"/><text font-family="Arial,Arial_MSFontService,sans-serif" font-weight="400" font-size="46" transform="matrix(1 0 0 1 1512.41 2063)">Source: TelluBase; ICASA </text><text font-family="Arial,Arial_MSFontService,sans-serif" font-weight="400" font-size="46" transform="matrix(1 0 0 1 2059.54 2063)">-</text><text font-family="Arial,Arial_MSFontService,sans-serif" font-weight="400" font-size="46" transform="matrix(1 0 0 1 2087.61 2063)">State of ICT </text><text font-family="Arial,Arial_MSFontService,sans-serif" font-weight="400" font-size="46" transform="matrix(1 0 0 1 2343.13 2063)">Sector</text><text font-family="Arial,Arial_MSFontService,sans-serif" font-weight="400" font-size="46" transform="matrix(1 0 0 1 2474.91 2063)">, 2021</text><text font-family="Arial,Arial_MSFontService,sans-serif" font-weight="400" font-size="46" transform="matrix(1 0 0 1 2600.95 2063)">; </text><text font-family="Arial,Arial_MSFontService,sans-serif" font-weight="400" font-size="46" transform="matrix(1 0 0 1 2626.16 2063)">Tellusant analysis</text></g></svg>