<svg width="1673" height="1250" xmlns="http://www.w3.org/2000/svg" xmlns:xlink="http://www.w3.org/1999/xlink" xml:space="preserve" overflow="hidden"><defs><clipPath id="clip0"><rect x="1153" y="1024" width="543" height="62"/></clipPath><clipPath id="clip1"><rect x="1866" y="978" width="49" height="6"/></clipPath><clipPath id="clip2"><path d="M77.9078 2463.61 960.199 935.44 1013.12 965.992 130.826 2494.17Z" fill-rule="evenodd" clip-rule="evenodd"/></clipPath><clipPath id="clip3"><path d="M294.17 2290.73 1002.01 1064.72 1054.93 1095.27 347.089 2321.29Z" fill-rule="evenodd" clip-rule="evenodd"/></clipPath><clipPath id="clip4"><path d="M463.394 2199.33 1078.99 1133.08 1131.91 1163.63 516.313 2229.88Z" fill-rule="evenodd" clip-rule="evenodd"/></clipPath><clipPath id="clip5"><path d="M522.481 2298.68 1238.34 1058.78 1291.26 1089.33 575.4 2329.23Z" fill-rule="evenodd" clip-rule="evenodd"/></clipPath><clipPath id="clip6"><path d="M773.161 2066.19 1254.41 1232.64 1307.33 1263.19 826.079 2096.74Z" fill-rule="evenodd" clip-rule="evenodd"/></clipPath><clipPath id="clip7"><path d="M961.888 1941 1316.81 1326.26 1369.73 1356.81 1014.81 1971.55Z" fill-rule="evenodd" clip-rule="evenodd"/></clipPath><clipPath id="clip8"><path d="M955.581 2153.62 1525.06 1167.26 1577.98 1197.81 1008.5 2184.18Z" fill-rule="evenodd" clip-rule="evenodd"/></clipPath><clipPath id="clip9"><path d="M976.808 2318.55 1712.72 1043.92 1765.64 1074.47 1029.73 2349.11Z" fill-rule="evenodd" clip-rule="evenodd"/></clipPath><clipPath id="clip10"><path d="M1136.85 2243.04 1796.57 1100.39 1849.49 1130.94 1189.77 2273.6Z" fill-rule="evenodd" clip-rule="evenodd"/></clipPath><clipPath id="clip11"><path d="M1355.41 2066.19 1836.66 1232.64 1889.58 1263.19 1408.33 2096.74Z" fill-rule="evenodd" clip-rule="evenodd"/></clipPath><clipPath id="clip12"><path d="M1477.6 2056.25 1948.82 1240.07 2001.74 1270.62 1530.52 2086.81Z" fill-rule="evenodd" clip-rule="evenodd"/></clipPath><clipPath id="clip13"><path d="M1566.51 2103.94 2085.86 1204.41 2138.78 1234.96 1619.43 2134.5Z" fill-rule="evenodd" clip-rule="evenodd"/></clipPath><clipPath id="clip14"><path d="M1475.31 2463.61 2357.6 935.44 2410.52 965.992 1528.23 2494.17Z" fill-rule="evenodd" clip-rule="evenodd"/></clipPath></defs><g transform="translate(-434 -754)"><rect x="435" y="755" width="1659" height="1110" fill="#000000" fill-opacity="0"/><g><rect x="1270" y="1102" width="76" height="15" fill="#002060"/><rect x="1386" y="1086" width="77" height="15" fill="#002060"/><rect x="1502" y="1074" width="77" height="11" fill="#002060"/><rect x="1619" y="1065" width="77" height="8" fill="#002060"/><rect x="1735" y="1057" width="77" height="7" fill="#002060"/><rect x="1852" y="984" width="76" height="72" fill="#002060"/><path d="M647.5 1310.5 686.5 1310.5" stroke="#D9D9D9" stroke-width="3.4375" stroke-miterlimit="2" fill="none"/><path d="M764.5 1218.5 803.5 1218.5" stroke="#D9D9D9" stroke-width="3.4375" stroke-miterlimit="2" fill="none"/><path d="M880.5 1176.5 919.5 1176.5" stroke="#D9D9D9" stroke-width="3.4375" stroke-miterlimit="2" fill="none"/><path d="M997.5 1152.5 1036.5 1152.5" stroke="#D9D9D9" stroke-width="3.4375" stroke-miterlimit="2" fill="none"/><path d="M1113.5 1134.5 1152.5 1134.5" stroke="#D9D9D9" stroke-width="3.4375" stroke-miterlimit="2" fill="none"/><path d="M1230.5 1117.5 1269.5 1117.5" stroke="#D9D9D9" stroke-width="3.4375" stroke-miterlimit="2" fill="none"/><path d="M1346.5 1101.5 1385.5 1101.5" stroke="#D9D9D9" stroke-width="3.4375" stroke-miterlimit="2" fill="none"/><path d="M1463.5 1085.5 1501.5 1085.5" stroke="#D9D9D9" stroke-width="3.4375" stroke-miterlimit="2" fill="none"/><path d="M1579.5 1073.5 1618.5 1073.5" stroke="#D9D9D9" stroke-width="3.4375" stroke-miterlimit="2" fill="none"/><path d="M1696.5 1064.5 1734.5 1064.5" stroke="#D9D9D9" stroke-width="3.4375" stroke-miterlimit="2" fill="none"/><path d="M1812.5 1056.5 1851.5 1056.5" stroke="#D9D9D9" stroke-width="3.4375" stroke-miterlimit="2" fill="none"/><path d="M1928.5 983.5 1967.5 983.5" stroke="#D9D9D9" stroke-width="3.4375" stroke-miterlimit="2" fill="none"/><rect x="571" y="1311" width="76" height="248" fill="#C00000"/><rect x="687" y="1219" width="77" height="91" fill="#002060"/><rect x="804" y="1177" width="76" height="41" fill="#002060"/><rect x="920" y="1153" width="77" height="23" fill="#002060"/><rect x="1037" y="1135" width="76" height="17" fill="#002060"/><rect x="1153" y="1118" width="77" height="16" fill="#002060"/><rect x="1968" y="984" width="77" height="575" fill="#C00000"/><g><text font-family="Arial,Arial_MSFontService,sans-serif" font-weight="400" font-size="50" transform="translate(683.504 1206)">759</text></g><g><text font-family="Arial,Arial_MSFontService,sans-serif" font-weight="400" font-size="50" transform="translate(916.404 1140)">201</text></g><g><text font-family="Arial,Arial_MSFontService,sans-serif" font-weight="400" font-size="50" transform="translate(1032.85 1123)">146</text></g><g><text font-family="Arial,Arial_MSFontService,sans-serif" font-weight="400" font-size="50" transform="translate(1265.75 1089)">136</text></g><g><text font-family="Arial,Arial_MSFontService,sans-serif" font-weight="400" font-size="50" transform="translate(1498.65 1062)">100</text></g><g><text font-family="Arial,Arial_MSFontService,sans-serif" font-weight="400" font-size="50" transform="translate(1629.14 1053)">72</text></g><g><text font-family="Arial,Arial_MSFontService,sans-serif" font-weight="400" font-size="50" transform="translate(1745.59 1044)">69</text></g><g><text fill="#595959" font-family="Arial,Arial_MSFontService,sans-serif" font-weight="400" font-size="41" transform="translate(563.331 1301)">2044</text></g><g><text fill="#595959" font-family="Arial,Arial_MSFontService,sans-serif" font-weight="400" font-size="50" transform="translate(799.954 1165)">339</text></g><g><text font-family="Arial,Arial_MSFontService,sans-serif" font-weight="400" font-size="50" transform="translate(1149.3 1106)">137</text></g><g clip-path="url(#clip0)"><text fill="#595959" font-family="Aptos Narrow,Aptos Narrow_MSFontService,sans-serif" font-weight="400" font-stretch="semi-condensed" font-size="50" transform="translate(1385.64 1072)">128</text></g><g clip-path="url(#clip1)"><text font-family="Aptos Narrow,Aptos Narrow_MSFontService,sans-serif" font-weight="400" font-stretch="semi-condensed" font-size="5" transform="translate(1886.68 982)">597</text></g><g><text fill="#C00000" font-family="Aptos Narrow,Aptos Narrow_MSFontService,sans-serif" font-weight="400" font-stretch="semi-condensed" font-size="9" transform="translate(1995.96 1562)">-</text></g><g><text fill="#C00000" font-family="Aptos Narrow,Aptos Narrow_MSFontService,sans-serif" font-weight="400" font-stretch="semi-condensed" font-size="9" transform="translate(1998.83 1562)">4727</text></g></g><path d="M550.5 1559.5 2064.5 1559.5" stroke="#D9D9D9" stroke-width="3.4375" stroke-miterlimit="2" fill="none"/><g clip-path="url(#clip2)"><text font-family="Arial,Arial_MSFontService,sans-serif" font-weight="400" font-size="50" transform="matrix(0.5 -0.866025 0.866025 0.5 498.726 1833)">Totalt 2024</text></g><g clip-path="url(#clip3)"><text font-family="Arial,Arial_MSFontService,sans-serif" font-weight="400" font-size="50" transform="matrix(0.5 -0.866025 0.866025 0.5 640.223 1790)">Tyskland</text></g><g clip-path="url(#clip4)"><text font-family="Arial,Arial_MSFontService,sans-serif" font-weight="400" font-size="50" transform="matrix(0.5 -0.866025 0.866025 0.5 769.916 1767)">Storbrit.</text></g><g clip-path="url(#clip5)"><text font-family="Arial,Arial_MSFontService,sans-serif" font-weight="400" font-size="50" transform="matrix(0.5 -0.866025 0.866025 0.5 871.971 1792)">Danmark</text></g><g clip-path="url(#clip6)"><text font-family="Arial,Arial_MSFontService,sans-serif" font-weight="400" font-size="50" transform="matrix(0.5 -0.866025 0.866025 0.5 1022.1 1734)">Indien</text></g><g clip-path="url(#clip7)"><text font-family="Arial,Arial_MSFontService,sans-serif" font-weight="400" font-size="50" transform="matrix(0.5 -0.866025 0.866025 0.5 1156.69 1702)">Kina</text></g><g clip-path="url(#clip8)"><text font-family="Arial,Arial_MSFontService,sans-serif" font-weight="400" font-size="50" transform="matrix(0.5 -0.866025 0.866025 0.5 1242.34 1756)">Nederl.</text></g><g clip-path="url(#clip9)"><text font-family="Arial,Arial_MSFontService,sans-serif" font-weight="400" font-size="50" transform="matrix(0.5 -0.866025 0.866025 0.5 1334.89 1797)">Frankrike</text></g><g clip-path="url(#clip10)"><text font-family="Arial,Arial_MSFontService,sans-serif" font-weight="400" font-size="50" transform="matrix(0.5 -0.866025 0.866025 0.5 1462.28 1778)">Schweiz</text></g><g clip-path="url(#clip11)"><text font-family="Arial,Arial_MSFontService,sans-serif" font-weight="400" font-size="50" transform="matrix(0.5 -0.866025 0.866025 0.5 1604.35 1734)">Norge</text></g><g clip-path="url(#clip12)"><text font-family="Arial,Arial_MSFontService,sans-serif" font-weight="400" font-size="50" transform="matrix(0.5 -0.866025 0.866025 0.5 1722.24 1731)">Italien</text></g><g clip-path="url(#clip13)"><text font-family="Arial,Arial_MSFontService,sans-serif" font-weight="400" font-size="50" transform="matrix(0.5 -0.866025 0.866025 0.5 1831.78 1743)">Övriga</text></g><g clip-path="url(#clip14)"><text font-family="Arial,Arial_MSFontService,sans-serif" font-weight="400" font-size="50" transform="matrix(0.5 -0.866025 0.866025 0.5 1896.13 1833)">Totalt 2049</text></g><g><text font-family="Arial,Arial_MSFontService,sans-serif" font-weight="700" font-size="64" transform="translate(727.524 841)">SVERIGES EXPORTMÖJLIGHETER</text></g><g><text font-family="Arial,Arial_MSFontService,sans-serif" font-weight="400" font-size="60" transform="translate(764.466 914)">Inkrementell</text></g><g><text font-family="Arial,Arial_MSFontService,sans-serif" font-weight="400" font-size="60" transform="translate(1106.5 914)">ökning</text></g><g><text font-family="Arial,Arial_MSFontService,sans-serif" font-weight="400" font-size="60" transform="translate(1299 914)">i</text></g><g><text font-family="Arial,Arial_MSFontService,sans-serif" font-weight="400" font-size="60" transform="translate(1328.79 914)">mdkr</text></g><g><text font-family="Arial,Arial_MSFontService,sans-serif" font-weight="400" font-size="60" transform="translate(1478.32 914)">2024</text></g><g><text font-family="Arial,Arial_MSFontService,sans-serif" font-weight="400" font-size="60" transform="translate(1611.24 914)">-</text></g><g><text font-family="Arial,Arial_MSFontService,sans-serif" font-weight="400" font-size="60" transform="translate(1631.29 914)">2049</text></g><path d="M434 755 2094.69 755 2094.69 1866.08 434 1866.08Z" fill="#000000" fill-rule="evenodd" fill-opacity="0"/><text font-family="Arial,Arial_MSFontService,sans-serif" font-weight="400" font-size="50" transform="matrix(1 0 0 1 1949.79 955)">4 688</text><rect x="541" y="1242" width="127" height="61.0002" fill="#FFFFFF"/><text font-family="Arial,Arial_MSFontService,sans-serif" font-weight="400" font-size="50" transform="matrix(1 0 0 1 540.795 1291)">2 059</text><rect x="1852" y="906" width="84.9999" height="57.9998" fill="#FFFFFF"/><text font-family="Arial,Arial_MSFontService,sans-serif" font-weight="400" font-size="50" transform="matrix(1 0 0 1 1852.01 955)">597</text><text font-family="Arial,Arial_MSFontService,sans-serif" font-weight="400" font-size="46" transform="matrix(1 0 0 1 572.115 1911)">Not: fast penningvärde, 2024 bas. Ryssland exluderat</text><text font-family="Arial,Arial_MSFontService,sans-serif" font-weight="400" font-size="46" transform="matrix(1 0 0 1 572.115 1966)">Källa: </text><text font-family="Arial,Arial_MSFontService,sans-serif" font-weight="400" font-size="46" transform="matrix(1 0 0 1 698.73 1966)">TelluBase</text><text font-family="Arial,Arial_MSFontService,sans-serif" font-weight="400" font-size="46" transform="matrix(1 0 0 1 901.542 1966)">; </text><text font-family="Arial,Arial_MSFontService,sans-serif" font-weight="400" font-size="46" transform="matrix(1 0 0 1 926.75 1966)">SCB; </text><text font-family="Arial,Arial_MSFontService,sans-serif" font-weight="400" font-size="46" transform="matrix(1 0 0 1 1045.92 1966)">Tellusant </text><text font-family="Arial,Arial_MSFontService,sans-serif" font-weight="400" font-size="46" transform="matrix(1 0 0 1 1243.57 1966)">analys</text><rect x="1866" y="967" width="47.0001" height="16.0002" fill="#FFFFFF"/></g></svg>