<svg width="2443" height="2100" xmlns="http://www.w3.org/2000/svg" xmlns:xlink="http://www.w3.org/1999/xlink" xml:space="preserve" overflow="hidden"><defs><clipPath id="clip0"><rect x="16" y="722" width="2443" height="2100"/></clipPath></defs><g clip-path="url(#clip0)" transform="translate(-16 -722)"><rect x="16.0002" y="722" width="2443" height="1997" fill="#FFFFFF"/><g><rect x="1066" y="2596" width="84.9999" height="34" fill="#7F7F7F"/></g><g><rect x="1066" y="2537" width="252" height="35" fill="#7F7F7F"/></g><g><rect x="1066" y="2126" width="4.00012" height="35" fill="#3B7D23"/></g><g><rect x="1066" y="2068" width="6.00024" height="34" fill="#3B7D23"/></g><g><rect x="1066" y="2009" width="52.9999" height="35.0001" fill="#3B7D23"/></g><g><rect x="1066" y="1950" width="1123" height="35.0001" fill="#3B7D23"/></g><g><rect x="1066" y="1833" width="5.00012" height="34" fill="#156082"/></g><g><rect x="1066" y="1774" width="58.0001" height="35.0001" fill="#156082"/></g><g><rect x="1066" y="1716" width="128" height="34" fill="#156082"/></g><g><rect x="1066" y="1657" width="208" height="34" fill="#156082"/></g><g><rect x="1066" y="1598" width="229" height="35.0001" fill="#156082"/></g><g><rect x="1066" y="1540" width="348" height="34" fill="#156082"/></g><g><rect x="1066" y="1481" width="566" height="34" fill="#156082"/></g><g><rect x="1066" y="1364" width="827" height="34" fill="#C00000"/></g><g><rect x="1066" y="1305" width="1095" height="34" fill="#C00000"/></g><g><rect x="1066" y="1187" width="163" height="35.0001"/></g><g><rect x="1066" y="1129" width="226" height="34"/></g><g><rect x="1066" y="1070" width="774" height="35.0001"/></g><g><path d="M1070.04 2454.08 1066 2454.08 1066 2420.08 1070.04 2420.08ZM1075.04 2396.08 1066 2396.08 1066 2361.08 1075.04 2361.08ZM1119.04 2337.08 1066 2337.08 1066 2302.08 1119.04 2302.08ZM1256.04 2278.07 1066 2278.07 1066 2244.07 1256.04 2244.07Z" fill="#78206E"/></g><g><path d="M0 0 0.000360892 1584" stroke="#D9D9D9" stroke-width="3.4375" stroke-linejoin="round" stroke-miterlimit="10" fill="none" fill-rule="evenodd" transform="matrix(1 0 0 -1 1066.5 2642.5)"/></g><g><text font-family="Arial,Arial_MSFontService,sans-serif" font-weight="400" font-size="50" transform="matrix(1 0 0 1 1178.43 2631)">30 M</text></g><g><text font-family="Arial,Arial_MSFontService,sans-serif" font-weight="400" font-size="50" transform="matrix(1 0 0 1 1345.79 2572)">91 M</text></g><g><text font-family="Arial,Arial_MSFontService,sans-serif" font-weight="400" font-size="50" transform="matrix(1 0 0 1 1097.37 2455)">1.3 M</text></g><g><text font-family="Arial,Arial_MSFontService,sans-serif" font-weight="400" font-size="50" transform="matrix(1 0 0 1 1102.49 2396)">3.1 M</text></g><g><text font-family="Arial,Arial_MSFontService,sans-serif" font-weight="400" font-size="50" transform="matrix(1 0 0 1 1146.68 2338)">19 M</text></g><g><text font-family="Arial,Arial_MSFontService,sans-serif" font-weight="400" font-size="50" transform="matrix(1 0 0 1 1283.41 2279)">68 M</text></g><g><text font-family="Arial,Arial_MSFontService,sans-serif" font-weight="400" font-size="50" transform="matrix(1 0 0 1 1097 2162)">1.2 M</text></g><g><text font-family="Arial,Arial_MSFontService,sans-serif" font-weight="400" font-size="50" transform="matrix(1 0 0 1 1099.76 2103)">2.2 M</text></g><g><text font-family="Arial,Arial_MSFontService,sans-serif" font-weight="400" font-size="50" transform="matrix(1 0 0 1 1146.68 2044)">19 M</text></g><g><text font-family="Arial,Arial_MSFontService,sans-serif" font-weight="400" font-size="50" transform="matrix(1 0 0 1 2216.02 1986)">403 M</text></g><g><text font-family="Arial,Arial_MSFontService,sans-serif" font-weight="400" font-size="50" transform="matrix(1 0 0 1 1098.79 1868)">1.8 M</text></g><g><text font-family="Arial,Arial_MSFontService,sans-serif" font-weight="400" font-size="50" transform="matrix(1 0 0 1 1151.7 1810)">21 M</text></g><g><text font-family="Arial,Arial_MSFontService,sans-serif" font-weight="400" font-size="50" transform="matrix(1 0 0 1 1221.04 1751)">46 M</text></g><g><text font-family="Arial,Arial_MSFontService,sans-serif" font-weight="400" font-size="50" transform="matrix(1 0 0 1 1301.24 1692)">75 M</text></g><g><text font-family="Arial,Arial_MSFontService,sans-serif" font-weight="400" font-size="50" transform="matrix(1 0 0 1 1322.12 1634)">82 M</text></g><g><text font-family="Arial,Arial_MSFontService,sans-serif" font-weight="400" font-size="50" transform="matrix(1 0 0 1 1441.87 1575)">125 M</text></g><g><text font-family="Arial,Arial_MSFontService,sans-serif" font-weight="400" font-size="50" transform="matrix(1 0 0 1 1659.07 1516)">203 M</text></g><g><text font-family="Arial,Arial_MSFontService,sans-serif" font-weight="400" font-size="50" transform="matrix(1 0 0 1 1920.84 1399)">297 M</text></g><g><text font-family="Arial,Arial_MSFontService,sans-serif" font-weight="400" font-size="50" transform="matrix(1 0 0 1 2188.17 1340)">393 M</text></g><g><text font-family="Arial,Arial_MSFontService,sans-serif" font-weight="400" font-size="50" transform="matrix(1 0 0 1 1256.4 1223)">58 M</text></g><g><text font-family="Arial,Arial_MSFontService,sans-serif" font-weight="400" font-size="50" transform="matrix(1 0 0 1 1319.89 1164)">81 M</text></g><g><text font-family="Arial,Arial_MSFontService,sans-serif" font-weight="400" font-size="50" transform="matrix(1 0 0 1 1867.93 1105)">278 M</text></g><g><text font-family="Arial,Arial_MSFontService,sans-serif" font-weight="400" font-size="50" transform="matrix(1 0 0 1 832.294 2629)">PepsiCo</text></g><g><text font-family="Arial,Arial_MSFontService,sans-serif" font-weight="400" font-size="50" transform="matrix(1 0 0 1 779.105 2571)">Qualcomm</text></g><g><text font-family="Arial,Arial_MSFontService,sans-serif" font-weight="400" font-size="50" transform="matrix(1 0 0 1 610.919 2453)">Heteroscedasticity</text></g><g><text font-family="Arial,Arial_MSFontService,sans-serif" font-weight="400" font-size="50" transform="matrix(1 0 0 1 938.857 2395)">AIC</text></g><g><text font-family="Arial,Arial_MSFontService,sans-serif" font-weight="400" font-size="50" transform="matrix(1 0 0 1 880.03 2336)">MAPE</text></g><g><text font-family="Arial,Arial_MSFontService,sans-serif" font-weight="400" font-size="50" transform="matrix(1 0 0 1 308.21 2277)">Coefficient of determination (R²)</text></g><g><text font-family="Arial,Arial_MSFontService,sans-serif" font-weight="400" font-size="50" transform="matrix(1 0 0 1 753.804 2160)">Differencing</text></g><g><text font-family="Arial,Arial_MSFontService,sans-serif" font-weight="400" font-size="50" transform="matrix(1 0 0 1 770.648 2101)">Stationarity</text></g><g><text font-family="Arial,Arial_MSFontService,sans-serif" font-weight="400" font-size="50" transform="matrix(1 0 0 1 829.544 2043)">Box-Cox</text></g><g><text font-family="Arial,Arial_MSFontService,sans-serif" font-weight="400" font-size="50" transform="matrix(1 0 0 1 470.805 1984)">Statistical transformation</text></g><g><text font-family="Arial,Arial_MSFontService,sans-serif" font-weight="400" font-size="50" transform="matrix(1 0 0 1 378.29 1867)">Vector autoregression (VAR)</text></g><g><text font-family="Arial,Arial_MSFontService,sans-serif" font-weight="400" font-size="50" transform="matrix(1 0 0 1 815.451 1808)">Bayesian</text></g><g><text font-family="Arial,Arial_MSFontService,sans-serif" font-weight="400" font-size="50" transform="matrix(1 0 0 1 599.666 1749)">Clustering analysis</text></g><g><text font-family="Arial,Arial_MSFontService,sans-serif" font-weight="400" font-size="50" transform="matrix(1 0 0 1 557.546 1691)">Nonlinear regression</text></g><g><text font-family="Arial,Arial_MSFontService,sans-serif" font-weight="400" font-size="50" transform="matrix(1 0 0 1 580.119 1632)">Timeseries analysis</text></g><g><text font-family="Arial,Arial_MSFontService,sans-serif" font-weight="400" font-size="50" transform="matrix(1 0 0 1 633.217 1573)">Linear regression</text></g><g><text font-family="Arial,Arial_MSFontService,sans-serif" font-weight="400" font-size="50" transform="matrix(1 0 0 1 776.217 1514)">Correlation</text></g><g><text font-family="Arial,Arial_MSFontService,sans-serif" font-weight="400" font-size="50" transform="matrix(1 0 0 1 521.154 1397)">Machine learning (ML)</text></g><g><text font-family="Arial,Arial_MSFontService,sans-serif" font-weight="400" font-size="50" transform="matrix(1 0 0 1 610.941 1338)">Statistical analysis</text></g><g><text font-family="Arial,Arial_MSFontService,sans-serif" font-weight="400" font-size="50" transform="matrix(1 0 0 1 829.498 1221)">Calculus</text></g><g><text font-family="Arial,Arial_MSFontService,sans-serif" font-weight="400" font-size="50" transform="matrix(1 0 0 1 700.431 1162)">Linear algebra</text></g><g><text font-family="Arial,Arial_MSFontService,sans-serif" font-weight="400" font-size="50" transform="matrix(1 0 0 1 389.519 1104)">Principal components (PCA)</text></g><g><text font-family="Arial,Arial_MSFontService,sans-serif" font-weight="700" font-size="64" transform="matrix(1 0 0 1 499.549 817)">GOOGLE SEARCHES FOR STATISTICAL TERMS</text></g><rect x="454" y="909" width="48.9998" height="49.0002"/><rect x="686" y="909" width="48.9998" height="49.0002" fill="#C00000"/><rect x="981" y="909" width="48.9998" height="49.0002" fill="#156082"/><rect x="1339" y="909" width="49.0001" height="49.0002" fill="#3B7D23"/><rect x="1690" y="909" width="49.0001" height="49.0002" fill="#78206E"/><text font-family="Arial,Arial_MSFontService,sans-serif" font-weight="400" font-size="50" transform="matrix(1 0 0 1 537.971 952)">Math</text><text font-family="Arial,Arial_MSFontService,sans-serif" font-weight="400" font-size="50" transform="matrix(1 0 0 1 769.673 952)">Domain</text><text font-family="Arial,Arial_MSFontService,sans-serif" font-weight="400" font-size="50" transform="matrix(1 0 0 1 1065.01 952)">Technique</text><text font-family="Arial,Arial_MSFontService,sans-serif" font-weight="400" font-size="50" transform="matrix(1 0 0 1 1422.83 952)">Transform</text><text font-family="Arial,Arial_MSFontService,sans-serif" font-weight="400" font-size="50" transform="matrix(1 0 0 1 1773.7 952)">Test</text><rect x="1908" y="909" width="48.9998" height="49.0002" fill="#7F7F7F"/><text font-family="Arial,Arial_MSFontService,sans-serif" font-weight="400" font-size="50" transform="matrix(1 0 0 1 1992.1 952)">Comp</text><text font-family="Arial,Arial_MSFontService,sans-serif" font-weight="400" font-size="50" transform="matrix(1 0 0 1 539.782 2780)">Note: These are descriptive labels, not the exact search terms</text></g></svg>