<svg width="2391" height="1445" xmlns="http://www.w3.org/2000/svg" xmlns:xlink="http://www.w3.org/1999/xlink" xml:space="preserve" overflow="hidden"><g transform="translate(-1137 -539)"><text fill="#424242" font-family="Arial,Arial_MSFontService,sans-serif" font-weight="700" font-size="73" transform="matrix(1 0 0 1 1639.65 632)">TELLUSANT’S TRIPLE</text><text fill="#424242" font-family="Arial,Arial_MSFontService,sans-serif" font-weight="700" font-size="73" transform="matrix(1 0 0 1 2423.97 632)">-</text><text fill="#424242" font-family="Arial,Arial_MSFontService,sans-serif" font-weight="700" font-size="73" transform="matrix(1 0 0 1 2448.6 632)">A </text><text fill="#424242" font-family="Arial,Arial_MSFontService,sans-serif" font-weight="700" font-size="73" transform="matrix(1 0 0 1 2519.21 632)">FRAMEWORK</text><path d="M1144 1323.5C1144 1083.53 1338.53 889 1578.5 889 1818.47 889 2013 1083.53 2013 1323.5 2013 1563.47 1818.47 1758 1578.5 1758 1338.53 1758 1144 1563.47 1144 1323.5Z" stroke="#FFFFFF" stroke-width="13.75" stroke-miterlimit="8" fill="#93ACFF" fill-rule="evenodd"/><path d="M1291 1323.5C1291 1164.72 1419.72 1036 1578.5 1036 1737.28 1036 1866 1164.72 1866 1323.5 1866 1482.28 1737.28 1611 1578.5 1611 1419.72 1611 1291 1482.28 1291 1323.5Z" stroke="#FFFFFF" stroke-width="13.75" stroke-miterlimit="8" fill="#002BB9" fill-rule="evenodd"/><path d="M1459 1323C1459 1257.28 1512.5 1204 1578.5 1204 1644.5 1204 1698 1257.28 1698 1323 1698 1388.72 1644.5 1442 1578.5 1442 1512.5 1442 1459 1388.72 1459 1323Z" stroke="#FFFFFF" stroke-width="13.75" stroke-miterlimit="8" fill="#00124D" fill-rule="evenodd"/><text fill="#424242" font-family="Arial,Arial_MSFontService,sans-serif" font-weight="700" font-size="64" transform="matrix(1 0 0 1 2131.28 1738)">Actual</text><text fill="#424242" font-family="Arial,Arial_MSFontService,sans-serif" font-weight="700" font-size="64" transform="matrix(1 0 0 1 2131.28 1352)">Available</text><text fill="#424242" font-family="Arial,Arial_MSFontService,sans-serif" font-weight="700" font-size="64" transform="matrix(1 0 0 1 2131.28 965)">Addressable</text><text fill="#424242" font-family="Arial,Arial_MSFontService,sans-serif" font-weight="400" font-size="64" transform="matrix(1 0 0 1 2558.73 808)">The </text><text fill="#424242" font-family="Arial,Arial_MSFontService,sans-serif" font-weight="700" font-size="64" transform="matrix(1 0 0 1 2686.49 808)">addressable</text><text fill="#424242" font-family="Arial,Arial_MSFontService,sans-serif" font-weight="400" font-size="64" transform="matrix(1 0 0 1 3077.22 808)">market is the </text><text fill="#424242" font-family="Arial,Arial_MSFontService,sans-serif" font-weight="400" font-size="64" transform="matrix(1 0 0 1 2558.73 885)">unconstrained market size of all </text><text fill="#424242" font-family="Arial,Arial_MSFontService,sans-serif" font-weight="400" font-size="64" transform="matrix(1 0 0 1 2558.73 962)">relevant consumers (usually </text><text fill="#424242" font-family="Arial,Arial_MSFontService,sans-serif" font-weight="400" font-size="64" transform="matrix(1 0 0 1 2558.73 1039)">age brackets or gender </text><text fill="#424242" font-family="Arial,Arial_MSFontService,sans-serif" font-weight="400" font-size="64" transform="matrix(1 0 0 1 2558.73 1116)">limitations).</text><path d="M1578.5 1328.5 1796.91 1705.58" stroke="#A0A0A0" stroke-width="9.16667" stroke-linejoin="round" stroke-miterlimit="10" fill="none" fill-rule="evenodd"/><path d="M1795.5 1706.5 2098.65 1706.5" stroke="#A0A0A0" stroke-width="9.16667" stroke-linejoin="round" stroke-miterlimit="10" fill="none" fill-rule="evenodd"/><path d="M0 0 128.04 140.169" stroke="#A0A0A0" stroke-width="9.16667" stroke-linejoin="round" stroke-miterlimit="10" fill="none" fill-rule="evenodd" transform="matrix(1 0 0 -1 1803.5 1081.67)"/><path d="M0 0 168.1 0.000360892" stroke="#A0A0A0" stroke-width="9.16667" stroke-linejoin="round" stroke-miterlimit="10" fill="none" fill-rule="evenodd" transform="matrix(1 0 0 -1 1930.5 941.5)"/><path d="M1764.5 1221.5 1909.51 1332.57" stroke="#A0A0A0" stroke-width="9.16667" stroke-linejoin="round" stroke-miterlimit="10" fill="none" fill-rule="evenodd"/><path d="M1907.5 1333.5 2099.23 1333.5" stroke="#A0A0A0" stroke-width="9.16667" stroke-linejoin="round" stroke-miterlimit="10" fill="none" fill-rule="evenodd"/><text fill="#424242" font-family="Arial,Arial_MSFontService,sans-serif" font-weight="400" font-size="64" transform="matrix(1 0 0 1 2558.73 1239)">The </text><text fill="#424242" font-family="Arial,Arial_MSFontService,sans-serif" font-weight="700" font-size="64" transform="matrix(1 0 0 1 2686.49 1239)">available</text><text fill="#424242" font-family="Arial,Arial_MSFontService,sans-serif" font-weight="400" font-size="64" transform="matrix(1 0 0 1 2974.09 1239)">market considers </text><text fill="#424242" font-family="Arial,Arial_MSFontService,sans-serif" font-weight="400" font-size="64" transform="matrix(1 0 0 1 2558.73 1316)">the affordability of the product </text><text fill="#424242" font-family="Arial,Arial_MSFontService,sans-serif" font-weight="400" font-size="64" transform="matrix(1 0 0 1 2558.73 1393)">for each income level. It  repre</text><text fill="#424242" font-family="Arial,Arial_MSFontService,sans-serif" font-weight="400" font-size="64" transform="matrix(1 0 0 1 3418.68 1393)">-</text><text fill="#424242" font-family="Arial,Arial_MSFontService,sans-serif" font-weight="400" font-size="64" transform="matrix(1 0 0 1 2558.73 1470)">sents the latent opportunity.</text><text fill="#424242" font-family="Arial,Arial_MSFontService,sans-serif" font-weight="400" font-size="64" transform="matrix(1 0 0 1 2558.73 1622)">The </text><text fill="#424242" font-family="Arial,Arial_MSFontService,sans-serif" font-weight="700" font-size="64" transform="matrix(1 0 0 1 2686.49 1622)">actual</text><text fill="#424242" font-family="Arial,Arial_MSFontService,sans-serif" font-weight="400" font-size="64" transform="matrix(1 0 0 1 2888.73 1622)">market is the current </text><text fill="#424242" font-family="Arial,Arial_MSFontService,sans-serif" font-weight="400" font-size="64" transform="matrix(1 0 0 1 2558.73 1699)">and future market size under </text><text fill="#424242" font-family="Arial,Arial_MSFontService,sans-serif" font-weight="400" font-size="64" transform="matrix(1 0 0 1 2558.73 1776)">existing consumption patterns.</text><text fill="#424242" font-family="Arial,Arial_MSFontService,sans-serif" font-weight="400" font-size="50" transform="matrix(1 0 0 1 1946.68 1942)">Source: Tellusant thought</text></g></svg>