<svg width="2706" height="1977" xmlns="http://www.w3.org/2000/svg" xmlns:xlink="http://www.w3.org/1999/xlink" xml:space="preserve" overflow="hidden"><defs><clipPath id="clip0"><rect x="39" y="825" width="2706" height="1977"/></clipPath></defs><g clip-path="url(#clip0)" transform="translate(-39 -825)"><g><path d="M371.5 1188.5 392.513 1624.55 414.514 1826.56 435.514 1949.56 456.515 2034.57 477.516 2097.57 499.517 2146.57 520.517 2185.57 541.518 2218.57 562.519 2245.57 584.519 2269.57 605.52 2289.58 626.521 2307.58 647.521 2323.58 669.522 2338.58 690.523 2351.58 711.524 2362.58 732.524 2373.58 754.525 2383.58 775.526 2392.58 796.526 2400.58 818.527 2407.58 839.528 2415.58 860.528 2421.58 881.529 2427.58 903.53 2433.58 924.531 2439.58 945.531 2444.58 966.532 2448.58 988.533 2453.58 1009.53 2457.58 1030.53 2461.58 1051.53 2465.58 1073.54 2469.58 1094.54 2472.58 1115.54 2476.58 1136.54 2479.58 1158.54 2482.58 1179.54 2485.58 1200.54 2488.58 1221.54 2490.58 1243.54 2493.58 1264.54 2495.58 1285.54 2497.58 1307.54 2500.58 1328.54 2502.58 1349.54 2504.58 1370.55 2506.58 1392.55 2508.58 1413.55 2510.58 1434.55 2512.58 1455.55 2513.58 1477.55 2515.58 1498.55 2517.58 1519.55 2518.58 1540.55 2520.58 1562.55 2521.58 1583.55 2523.58 1604.55 2524.58 1625.55 2525.58 1647.55 2527.58 1668.55 2528.58 1689.56 2529.58 1711.56 2530.58 1732.56 2531.58 1753.56 2533.58 1774.56 2534.58 1796.56 2535.58 1817.56 2536.58 1838.56 2537.58 1859.56 2538.58 1881.56 2539.58 1902.56 2540.58 1923.56 2541.58 1944.56 2541.58 1966.56 2542.58 1987.57 2543.58 2008.57 2544.58 2029.57 2545.58 2051.57 2546.58 2072.57 2546.58 2093.57 2547.58 2114.57 2548.58 2136.57 2549.58 2157.57 2549.58 2178.57 2550.58 2200.57 2551.58 2221.57 2551.58 2242.57 2552.58 2263.57 2552.58 2285.58 2553.58 2306.58 2554.58 2327.58 2554.58 2348.58 2555.58 2370.58 2555.58 2391.58 2556.58 2412.58 2556.58 2433.58 2557.58 2455.58 2558.58 2476.5 2558.5" stroke="#44546A" stroke-width="6.875" stroke-linecap="round" stroke-linejoin="round" stroke-miterlimit="10" fill="none"/></g><text font-family="Roboto,Roboto_MSFontService,sans-serif" font-weight="700" font-size="55" transform="matrix(-1.83697e-16 -1 1 -1.83697e-16 128.142 2005)">Consumption per capita</text><g><path d="M0 0 0.000360892 1696" stroke="#000000" stroke-width="3.4375" stroke-linejoin="round" stroke-miterlimit="10" fill="none" fill-rule="evenodd" transform="matrix(1 0 0 -1 293.5 2643.5)"/></g><g><path d="M293.5 2643.5 2632.5 2643.5" stroke="#000000" stroke-width="3.4375" stroke-linejoin="round" stroke-miterlimit="10" fill="none" fill-rule="evenodd"/></g><g><path d="M654.309 2259.23C654.309 2268.06 647.145 2275.23 638.309 2275.23 629.472 2275.23 622.309 2268.06 622.309 2259.23 622.309 2250.39 629.472 2243.23 638.309 2243.23 647.145 2243.23 654.309 2250.39 654.309 2259.23Z" fill="#C57B57"/><path d="M408.309 2402.23C408.309 2411.06 401.145 2418.23 392.309 2418.23 383.472 2418.23 376.309 2411.06 376.309 2402.23 376.309 2393.39 383.472 2386.23 392.309 2386.23 401.145 2386.23 408.309 2393.39 408.309 2402.23Z" fill="#C57B57"/><path d="M490.308 2559.23C490.308 2568.06 483.145 2575.23 474.309 2575.23 465.472 2575.23 458.309 2568.06 458.309 2559.23 458.309 2550.39 465.472 2543.23 474.309 2543.23 483.145 2543.23 490.308 2550.39 490.308 2559.23Z" fill="#C57B57"/><path d="M2515.31 2370.23C2515.31 2379.06 2508.15 2386.23 2499.31 2386.23 2490.47 2386.23 2483.31 2379.06 2483.31 2370.23 2483.31 2361.39 2490.47 2354.23 2499.31 2354.23 2508.15 2354.23 2515.31 2361.39 2515.31 2370.23Z" fill="#C57B57"/><path d="M860.309 2506.23C860.309 2515.06 853.145 2522.23 844.309 2522.23 835.472 2522.23 828.309 2515.06 828.309 2506.23 828.309 2497.39 835.472 2490.23 844.309 2490.23 853.145 2490.23 860.309 2497.39 860.309 2506.23Z" fill="#C57B57"/><path d="M995.309 2453.23C995.309 2462.06 988.145 2469.23 979.309 2469.23 970.472 2469.23 963.309 2462.06 963.309 2453.23 963.309 2444.39 970.472 2437.23 979.309 2437.23 988.145 2437.23 995.309 2444.39 995.309 2453.23Z" fill="#C57B57"/><path d="M1510.31 2644.23C1510.31 2653.06 1503.15 2660.23 1494.31 2660.23 1485.47 2660.23 1478.31 2653.06 1478.31 2644.23 1478.31 2635.39 1485.47 2628.23 1494.31 2628.23 1503.15 2628.23 1510.31 2635.39 1510.31 2644.23Z" fill="#C57B57"/><path d="M836.309 2188.23C836.309 2197.06 829.145 2204.23 820.309 2204.23 811.472 2204.23 804.309 2197.06 804.309 2188.23 804.309 2179.39 811.472 2172.23 820.309 2172.23 829.145 2172.23 836.309 2179.39 836.309 2188.23Z" fill="#C57B57"/><path d="M614.308 2431.23C614.308 2440.06 607.145 2447.23 598.309 2447.23 589.472 2447.23 582.309 2440.06 582.309 2431.23 582.309 2422.39 589.472 2415.23 598.309 2415.23 607.145 2415.23 614.308 2422.39 614.308 2431.23Z" fill="#C57B57"/><path d="M839.309 2259.23C839.309 2268.06 832.145 2275.23 823.309 2275.23 814.472 2275.23 807.309 2268.06 807.309 2259.23 807.309 2250.39 814.472 2243.23 823.309 2243.23 832.145 2243.23 839.309 2250.39 839.309 2259.23Z" fill="#C57B57"/><path d="M1649.31 2562.23C1649.31 2571.06 1642.15 2578.23 1633.31 2578.23 1624.47 2578.23 1617.31 2571.06 1617.31 2562.23 1617.31 2553.39 1624.47 2546.23 1633.31 2546.23 1642.15 2546.23 1649.31 2553.39 1649.31 2562.23Z" fill="#C57B57"/><path d="M656.308 2000.23C656.308 2009.06 649.145 2016.23 640.309 2016.23 631.472 2016.23 624.309 2009.06 624.309 2000.23 624.309 1991.39 631.472 1984.23 640.309 1984.23 649.145 1984.23 656.308 1991.39 656.308 2000.23Z" fill="#C57B57"/><path d="M732.308 2582.23C732.308 2591.06 725.145 2598.23 716.309 2598.23 707.472 2598.23 700.309 2591.06 700.309 2582.23 700.309 2573.39 707.472 2566.23 716.309 2566.23 725.145 2566.23 732.308 2573.39 732.308 2582.23Z" fill="#C57B57"/><path d="M694.309 2633.23C694.309 2642.06 687.145 2649.23 678.309 2649.23 669.472 2649.23 662.309 2642.06 662.309 2633.23 662.309 2624.39 669.472 2617.23 678.309 2617.23 687.145 2617.23 694.309 2624.39 694.309 2633.23Z" fill="#C57B57"/><path d="M860.309 2508.23C860.309 2517.06 853.145 2524.23 844.309 2524.23 835.472 2524.23 828.309 2517.06 828.309 2508.23 828.309 2499.39 835.472 2492.23 844.309 2492.23 853.145 2492.23 860.309 2499.39 860.309 2508.23Z" fill="#C57B57"/><path d="M559.308 2542.23C559.308 2551.06 552.145 2558.23 543.309 2558.23 534.472 2558.23 527.309 2551.06 527.309 2542.23 527.309 2533.39 534.472 2526.23 543.309 2526.23 552.145 2526.23 559.308 2533.39 559.308 2542.23Z" fill="#C57B57"/><path d="M998.308 2590.23C998.308 2599.06 991.145 2606.23 982.309 2606.23 973.472 2606.23 966.309 2599.06 966.309 2590.23 966.309 2581.39 973.472 2574.23 982.309 2574.23 991.145 2574.23 998.308 2581.39 998.308 2590.23Z" fill="#C57B57"/><path d="M651.309 2261.23C651.309 2270.06 644.145 2277.23 635.309 2277.23 626.472 2277.23 619.309 2270.06 619.309 2261.23 619.309 2252.39 626.472 2245.23 635.309 2245.23 644.145 2245.23 651.309 2252.39 651.309 2261.23Z" fill="#C57B57"/><path d="M723.308 2255.23C723.308 2264.06 716.145 2271.23 707.309 2271.23 698.472 2271.23 691.309 2264.06 691.309 2255.23 691.309 2246.39 698.472 2239.23 707.309 2239.23 716.145 2239.23 723.308 2246.39 723.308 2255.23Z" fill="#C57B57"/><path d="M1127.31 2611.23C1127.31 2620.06 1120.15 2627.23 1111.31 2627.23 1102.47 2627.23 1095.31 2620.06 1095.31 2611.23 1095.31 2602.39 1102.47 2595.23 1111.31 2595.23 1120.15 2595.23 1127.31 2602.39 1127.31 2611.23Z" fill="#C57B57"/><path d="M807.309 2631.23C807.309 2640.06 800.145 2647.23 791.309 2647.23 782.472 2647.23 775.309 2640.06 775.309 2631.23 775.309 2622.39 782.472 2615.23 791.309 2615.23 800.145 2615.23 807.309 2622.39 807.309 2631.23Z" fill="#C57B57"/><path d="M963.308 2614.23C963.308 2623.06 956.145 2630.23 947.309 2630.23 938.472 2630.23 931.309 2623.06 931.309 2614.23 931.309 2605.39 938.472 2598.23 947.309 2598.23 956.145 2598.23 963.308 2605.39 963.308 2614.23Z" fill="#C57B57"/><path d="M379.309 2644.23C379.309 2653.06 372.145 2660.23 363.309 2660.23 354.472 2660.23 347.309 2653.06 347.309 2644.23 347.309 2635.39 354.472 2628.23 363.309 2628.23 372.145 2628.23 379.309 2635.39 379.309 2644.23Z" fill="#C57B57"/><path d="M1377.31 2622.23C1377.31 2631.06 1370.15 2638.23 1361.31 2638.23 1352.47 2638.23 1345.31 2631.06 1345.31 2622.23 1345.31 2613.39 1352.47 2606.23 1361.31 2606.23 1370.15 2606.23 1377.31 2613.39 1377.31 2622.23Z" fill="#C57B57"/><path d="M814.309 2484.23C814.309 2493.06 807.145 2500.23 798.309 2500.23 789.472 2500.23 782.309 2493.06 782.309 2484.23 782.309 2475.39 789.472 2468.23 798.309 2468.23 807.145 2468.23 814.309 2475.39 814.309 2484.23Z" fill="#C57B57"/><path d="M867.308 2604.23C867.308 2613.06 860.145 2620.23 851.309 2620.23 842.472 2620.23 835.309 2613.06 835.309 2604.23 835.309 2595.39 842.472 2588.23 851.309 2588.23 860.145 2588.23 867.308 2595.39 867.308 2604.23Z" fill="#C57B57"/><path d="M1369.31 2535.23C1369.31 2544.06 1362.15 2551.23 1353.31 2551.23 1344.47 2551.23 1337.31 2544.06 1337.31 2535.23 1337.31 2526.39 1344.47 2519.23 1353.31 2519.23 1362.15 2519.23 1369.31 2526.39 1369.31 2535.23Z" fill="#C57B57"/><path d="M1012.31 2621.23C1012.31 2630.06 1005.15 2637.23 996.309 2637.23 987.472 2637.23 980.309 2630.06 980.309 2621.23 980.309 2612.39 987.472 2605.23 996.309 2605.23 1005.15 2605.23 1012.31 2612.39 1012.31 2621.23Z" fill="#C57B57"/><path d="M817.309 2473.23C817.309 2482.06 810.145 2489.23 801.309 2489.23 792.472 2489.23 785.309 2482.06 785.309 2473.23 785.309 2464.39 792.472 2457.23 801.309 2457.23 810.145 2457.23 817.309 2464.39 817.309 2473.23Z" fill="#C57B57"/><path d="M1809.31 2484.23C1809.31 2493.06 1802.15 2500.23 1793.31 2500.23 1784.47 2500.23 1777.31 2493.06 1777.31 2484.23 1777.31 2475.39 1784.47 2468.23 1793.31 2468.23 1802.15 2468.23 1809.31 2475.39 1809.31 2484.23Z" fill="#C57B57"/><path d="M1906.31 2624.23C1906.31 2633.06 1899.15 2640.23 1890.31 2640.23 1881.47 2640.23 1874.31 2633.06 1874.31 2624.23 1874.31 2615.39 1881.47 2608.23 1890.31 2608.23 1899.15 2608.23 1906.31 2615.39 1906.31 2624.23Z" fill="#C57B57"/><path d="M442.309 1526.23C442.309 1535.06 435.145 1542.23 426.309 1542.23 417.472 1542.23 410.309 1535.06 410.309 1526.23 410.309 1517.39 417.472 1510.23 426.309 1510.23 435.145 1510.23 442.309 1517.39 442.309 1526.23Z" fill="#C57B57"/><path d="M534.308 2460.23C534.308 2469.06 527.145 2476.23 518.309 2476.23 509.472 2476.23 502.309 2469.06 502.309 2460.23 502.309 2451.39 509.472 2444.23 518.309 2444.23 527.145 2444.23 534.308 2451.39 534.308 2460.23Z" fill="#C57B57"/><path d="M880.309 2335.23C880.309 2344.06 873.145 2351.23 864.309 2351.23 855.472 2351.23 848.309 2344.06 848.309 2335.23 848.309 2326.39 855.472 2319.23 864.309 2319.23 873.145 2319.23 880.309 2326.39 880.309 2335.23Z" fill="#C57B57"/><path d="M1626.31 2597.23C1626.31 2606.06 1619.15 2613.23 1610.31 2613.23 1601.47 2613.23 1594.31 2606.06 1594.31 2597.23 1594.31 2588.39 1601.47 2581.23 1610.31 2581.23 1619.15 2581.23 1626.31 2588.39 1626.31 2597.23Z" fill="#C57B57"/><path d="M1628.31 2641.23C1628.31 2650.06 1621.15 2657.23 1612.31 2657.23 1603.47 2657.23 1596.31 2650.06 1596.31 2641.23 1596.31 2632.39 1603.47 2625.23 1612.31 2625.23 1621.15 2625.23 1628.31 2632.39 1628.31 2641.23Z" fill="#C57B57"/><path d="M1125.31 2401.23C1125.31 2410.06 1118.15 2417.23 1109.31 2417.23 1100.47 2417.23 1093.31 2410.06 1093.31 2401.23 1093.31 2392.39 1100.47 2385.23 1109.31 2385.23 1118.15 2385.23 1125.31 2392.39 1125.31 2401.23Z" fill="#C57B57"/><path d="M378.309 2608.23C378.309 2617.06 371.145 2624.23 362.309 2624.23 353.472 2624.23 346.309 2617.06 346.309 2608.23 346.309 2599.39 353.472 2592.23 362.309 2592.23 371.145 2592.23 378.309 2599.39 378.309 2608.23Z" fill="#C57B57"/><path d="M997.308 2612.23C997.308 2621.06 990.145 2628.23 981.309 2628.23 972.472 2628.23 965.309 2621.06 965.309 2612.23 965.309 2603.39 972.472 2596.23 981.309 2596.23 990.145 2596.23 997.308 2603.39 997.308 2612.23Z" fill="#C57B57"/><path d="M567.308 2344.23C567.308 2353.06 560.145 2360.23 551.309 2360.23 542.472 2360.23 535.309 2353.06 535.309 2344.23 535.309 2335.39 542.472 2328.23 551.309 2328.23 560.145 2328.23 567.308 2335.39 567.308 2344.23Z" fill="#C57B57"/><path d="M1250.31 2578.23C1250.31 2587.06 1243.15 2594.23 1234.31 2594.23 1225.47 2594.23 1218.31 2587.06 1218.31 2578.23 1218.31 2569.39 1225.47 2562.23 1234.31 2562.23 1243.15 2562.23 1250.31 2569.39 1250.31 2578.23Z" fill="#C57B57"/><path d="M716.309 2387.23C716.309 2396.06 709.145 2403.23 700.309 2403.23 691.472 2403.23 684.309 2396.06 684.309 2387.23 684.309 2378.39 691.472 2371.23 700.309 2371.23 709.145 2371.23 716.309 2378.39 716.309 2387.23Z" fill="#C57B57"/><path d="M1101.31 2519.23C1101.31 2528.06 1094.15 2535.23 1085.31 2535.23 1076.47 2535.23 1069.31 2528.06 1069.31 2519.23 1069.31 2510.39 1076.47 2503.23 1085.31 2503.23 1094.15 2503.23 1101.31 2510.39 1101.31 2519.23Z" fill="#C57B57"/><path d="M1322.31 2512.23C1322.31 2521.06 1315.15 2528.23 1306.31 2528.23 1297.47 2528.23 1290.31 2521.06 1290.31 2512.23 1290.31 2503.39 1297.47 2496.23 1306.31 2496.23 1315.15 2496.23 1322.31 2503.39 1322.31 2512.23Z" fill="#C57B57"/><path d="M644.308 2543.23C644.308 2552.06 637.145 2559.23 628.309 2559.23 619.472 2559.23 612.309 2552.06 612.309 2543.23 612.309 2534.39 619.472 2527.23 628.309 2527.23 637.145 2527.23 644.308 2534.39 644.308 2543.23Z" fill="#C57B57"/><path d="M550.309 2396.23C550.309 2405.06 543.145 2412.23 534.309 2412.23 525.472 2412.23 518.309 2405.06 518.309 2396.23 518.309 2387.39 525.472 2380.23 534.309 2380.23 543.145 2380.23 550.309 2387.39 550.309 2396.23Z" fill="#C57B57"/><path d="M686.309 1899.23C686.309 1908.06 679.145 1915.23 670.309 1915.23 661.472 1915.23 654.309 1908.06 654.309 1899.23 654.309 1890.39 661.472 1883.23 670.309 1883.23 679.145 1883.23 686.309 1890.39 686.309 1899.23Z" fill="#C57B57"/><path d="M767.308 2438.23C767.308 2447.06 760.145 2454.23 751.309 2454.23 742.472 2454.23 735.309 2447.06 735.309 2438.23 735.309 2429.39 742.472 2422.23 751.309 2422.23 760.145 2422.23 767.308 2429.39 767.308 2438.23Z" fill="#C57B57"/><path d="M1018.31 2494.23C1018.31 2503.06 1011.15 2510.23 1002.31 2510.23 993.472 2510.23 986.309 2503.06 986.309 2494.23 986.309 2485.39 993.472 2478.23 1002.31 2478.23 1011.15 2478.23 1018.31 2485.39 1018.31 2494.23Z" fill="#C57B57"/></g><g><path d="M365.309 1621.23C365.309 1630.06 358.145 1637.23 349.309 1637.23 340.472 1637.23 333.309 1630.06 333.309 1621.23 333.309 1612.39 340.472 1605.23 349.309 1605.23 358.145 1605.23 365.309 1612.39 365.309 1621.23Z" fill="#C57B57"/><path d="M329.309 1083.23C329.309 1092.06 322.145 1099.23 313.309 1099.23 304.472 1099.23 297.309 1092.06 297.309 1083.23 297.309 1074.39 304.472 1067.23 313.309 1067.23 322.145 1067.23 329.309 1074.39 329.309 1083.23Z" fill="#C57B57"/><path d="M335.309 1655.23C335.309 1664.06 328.145 1671.23 319.309 1671.23 310.472 1671.23 303.309 1664.06 303.309 1655.23 303.309 1646.39 310.472 1639.23 319.309 1639.23 328.145 1639.23 335.309 1646.39 335.309 1655.23Z" fill="#C57B57"/><path d="M349.308 1403.23C349.308 1412.06 342.145 1419.23 333.309 1419.23 324.472 1419.23 317.309 1412.06 317.309 1403.23 317.309 1394.39 324.472 1387.23 333.309 1387.23 342.145 1387.23 349.308 1394.39 349.308 1403.23Z" fill="#C57B57"/><path d="M433.309 1875.23C433.309 1884.06 426.145 1891.23 417.309 1891.23 408.472 1891.23 401.309 1884.06 401.309 1875.23 401.309 1866.39 408.472 1859.23 417.309 1859.23 426.145 1859.23 433.309 1866.39 433.309 1875.23Z" fill="#C57B57"/><path d="M357.309 1770.23C357.309 1779.06 350.145 1786.23 341.309 1786.23 332.472 1786.23 325.309 1779.06 325.309 1770.23 325.309 1761.39 332.472 1754.23 341.309 1754.23 350.145 1754.23 357.309 1761.39 357.309 1770.23Z" fill="#C57B57"/><path d="M333.309 1782.23C333.309 1791.06 326.145 1798.23 317.309 1798.23 308.472 1798.23 301.309 1791.06 301.309 1782.23 301.309 1773.39 308.472 1766.23 317.309 1766.23 326.145 1766.23 333.309 1773.39 333.309 1782.23Z" fill="#C57B57"/><path d="M371.308 1843.23C371.308 1852.06 364.145 1859.23 355.309 1859.23 346.472 1859.23 339.309 1852.06 339.309 1843.23 339.309 1834.39 346.472 1827.23 355.309 1827.23 364.145 1827.23 371.308 1834.39 371.308 1843.23Z" fill="#C57B57"/><path d="M335.309 1172.23C335.309 1181.06 328.145 1188.23 319.309 1188.23 310.472 1188.23 303.309 1181.06 303.309 1172.23 303.309 1163.39 310.472 1156.23 319.309 1156.23 328.145 1156.23 335.309 1163.39 335.309 1172.23Z" fill="#C57B57"/><path d="M341.309 1444.23C341.309 1453.06 334.145 1460.23 325.309 1460.23 316.472 1460.23 309.309 1453.06 309.309 1444.23 309.309 1435.39 316.472 1428.23 325.309 1428.23 334.145 1428.23 341.309 1435.39 341.309 1444.23Z" fill="#C57B57"/><path d="M340.309 1369.23C340.309 1378.06 333.145 1385.23 324.309 1385.23 315.472 1385.23 308.309 1378.06 308.309 1369.23 308.309 1360.39 315.472 1353.23 324.309 1353.23 333.145 1353.23 340.309 1360.39 340.309 1369.23Z" fill="#C57B57"/><path d="M363.309 1598.23C363.309 1607.06 356.145 1614.23 347.309 1614.23 338.472 1614.23 331.309 1607.06 331.309 1598.23 331.309 1589.39 338.472 1582.23 347.309 1582.23 356.145 1582.23 363.309 1589.39 363.309 1598.23Z" fill="#C57B57"/><path d="M350.309 2219.23C350.309 2228.06 343.145 2235.23 334.309 2235.23 325.472 2235.23 318.309 2228.06 318.309 2219.23 318.309 2210.39 325.472 2203.23 334.309 2203.23 343.145 2203.23 350.309 2210.39 350.309 2219.23Z" fill="#C57B57"/><path d="M358.308 1595.23C358.308 1604.06 351.145 1611.23 342.309 1611.23 333.472 1611.23 326.309 1604.06 326.309 1595.23 326.309 1586.39 333.472 1579.23 342.309 1579.23 351.145 1579.23 358.308 1586.39 358.308 1595.23Z" fill="#C57B57"/><path d="M376.309 2108.23C376.309 2117.06 369.145 2124.23 360.309 2124.23 351.472 2124.23 344.309 2117.06 344.309 2108.23 344.309 2099.39 351.472 2092.23 360.309 2092.23 369.145 2092.23 376.309 2099.39 376.309 2108.23Z" fill="#C57B57"/><path d="M342.309 2305.23C342.309 2314.06 335.145 2321.23 326.309 2321.23 317.472 2321.23 310.309 2314.06 310.309 2305.23 310.309 2296.39 317.472 2289.23 326.309 2289.23 335.145 2289.23 342.309 2296.39 342.309 2305.23Z" fill="#C57B57"/><path d="M408.309 1317.23C408.309 1326.06 401.145 1333.23 392.309 1333.23 383.472 1333.23 376.309 1326.06 376.309 1317.23 376.309 1308.39 383.472 1301.23 392.309 1301.23 401.145 1301.23 408.309 1308.39 408.309 1317.23Z" fill="#C57B57"/><path d="M351.309 1549.23C351.309 1558.06 344.145 1565.23 335.309 1565.23 326.472 1565.23 319.309 1558.06 319.309 1549.23 319.309 1540.39 326.472 1533.23 335.309 1533.23 344.145 1533.23 351.309 1540.39 351.309 1549.23Z" fill="#C57B57"/><path d="M345.309 1325.23C345.309 1334.06 338.145 1341.23 329.309 1341.23 320.472 1341.23 313.309 1334.06 313.309 1325.23 313.309 1316.39 320.472 1309.23 329.309 1309.23 338.145 1309.23 345.309 1316.39 345.309 1325.23Z" fill="#C57B57"/><path d="M379.309 2322.23C379.309 2331.06 372.145 2338.23 363.309 2338.23 354.472 2338.23 347.309 2331.06 347.309 2322.23 347.309 2313.39 354.472 2306.23 363.309 2306.23 372.145 2306.23 379.309 2313.39 379.309 2322.23Z" fill="#C57B57"/><path d="M377.309 2146.23C377.309 2155.06 370.145 2162.23 361.309 2162.23 352.472 2162.23 345.309 2155.06 345.309 2146.23 345.309 2137.39 352.472 2130.23 361.309 2130.23 370.145 2130.23 377.309 2137.39 377.309 2146.23Z" fill="#C57B57"/><path d="M369.308 1918.23C369.308 1927.06 362.145 1934.23 353.309 1934.23 344.472 1934.23 337.309 1927.06 337.309 1918.23 337.309 1909.39 344.472 1902.23 353.309 1902.23 362.145 1902.23 369.308 1909.39 369.308 1918.23Z" fill="#C57B57"/><path d="M359.308 2101.23C359.308 2110.06 352.145 2117.23 343.309 2117.23 334.472 2117.23 327.309 2110.06 327.309 2101.23 327.309 2092.39 334.472 2085.23 343.309 2085.23 352.145 2085.23 359.308 2092.39 359.308 2101.23Z" fill="#C57B57"/><path d="M372.309 1187.23C372.309 1196.06 365.145 1203.23 356.309 1203.23 347.472 1203.23 340.309 1196.06 340.309 1187.23 340.309 1178.39 347.472 1171.23 356.309 1171.23 365.145 1171.23 372.309 1178.39 372.309 1187.23Z" fill="#C57B57"/><path d="M381.308 1037.23C381.308 1046.06 374.145 1053.23 365.309 1053.23 356.472 1053.23 349.309 1046.06 349.309 1037.23 349.309 1028.39 356.472 1021.23 365.309 1021.23 374.145 1021.23 381.308 1028.39 381.308 1037.23Z" fill="#C57B57"/><path d="M335.309 1552.23C335.309 1561.06 328.145 1568.23 319.309 1568.23 310.472 1568.23 303.309 1561.06 303.309 1552.23 303.309 1543.39 310.472 1536.23 319.309 1536.23 328.145 1536.23 335.309 1543.39 335.309 1552.23Z" fill="#C57B57"/><path d="M352.309 1871.23C352.309 1880.06 345.145 1887.23 336.309 1887.23 327.472 1887.23 320.309 1880.06 320.309 1871.23 320.309 1862.39 327.472 1855.23 336.309 1855.23 345.145 1855.23 352.309 1862.39 352.309 1871.23Z" fill="#C57B57"/><path d="M345.309 1712.23C345.309 1721.06 338.145 1728.23 329.309 1728.23 320.472 1728.23 313.309 1721.06 313.309 1712.23 313.309 1703.39 320.472 1696.23 329.309 1696.23 338.145 1696.23 345.309 1703.39 345.309 1712.23Z" fill="#C57B57"/><path d="M354.309 1179.23C354.309 1188.06 347.145 1195.23 338.309 1195.23 329.472 1195.23 322.309 1188.06 322.309 1179.23 322.309 1170.39 329.472 1163.23 338.309 1163.23 347.145 1163.23 354.309 1170.39 354.309 1179.23Z" fill="#C57B57"/></g><g><path d="M379.309 1954.23C379.309 1963.06 372.145 1970.23 363.309 1970.23 354.472 1970.23 347.309 1963.06 347.309 1954.23 347.309 1945.39 354.472 1938.23 363.309 1938.23 372.145 1938.23 379.309 1945.39 379.309 1954.23Z" fill="#C57B57"/><path d="M420.309 1703.23C420.309 1712.06 413.145 1719.23 404.309 1719.23 395.472 1719.23 388.309 1712.06 388.309 1703.23 388.309 1694.39 395.472 1687.23 404.309 1687.23 413.145 1687.23 420.309 1694.39 420.309 1703.23Z" fill="#C57B57"/><path d="M419.309 1976.23C419.309 1985.06 412.145 1992.23 403.309 1992.23 394.472 1992.23 387.309 1985.06 387.309 1976.23 387.309 1967.39 394.472 1960.23 403.309 1960.23 412.145 1960.23 419.309 1967.39 419.309 1976.23Z" fill="#C57B57"/><path d="M392.308 2245.23C392.308 2254.06 385.145 2261.23 376.309 2261.23 367.472 2261.23 360.309 2254.06 360.309 2245.23 360.309 2236.39 367.472 2229.23 376.309 2229.23 385.145 2229.23 392.308 2236.39 392.308 2245.23Z" fill="#C57B57"/><path d="M471.309 1928.23C471.309 1937.06 464.145 1944.23 455.309 1944.23 446.472 1944.23 439.309 1937.06 439.309 1928.23 439.309 1919.39 446.472 1912.23 455.309 1912.23 464.145 1912.23 471.309 1919.39 471.309 1928.23Z" fill="#C57B57"/><path d="M455.309 2098.23C455.309 2107.06 448.145 2114.23 439.309 2114.23 430.472 2114.23 423.309 2107.06 423.309 2098.23 423.309 2089.39 430.472 2082.23 439.309 2082.23 448.145 2082.23 455.309 2089.39 455.309 2098.23Z" fill="#C57B57"/><path d="M526.308 1961.23C526.308 1970.06 519.145 1977.23 510.309 1977.23 501.472 1977.23 494.309 1970.06 494.309 1961.23 494.309 1952.39 501.472 1945.23 510.309 1945.23 519.145 1945.23 526.308 1952.39 526.308 1961.23Z" fill="#C57B57"/><path d="M505.309 2160.23C505.309 2169.06 498.145 2176.23 489.309 2176.23 480.472 2176.23 473.309 2169.06 473.309 2160.23 473.309 2151.39 480.472 2144.23 489.309 2144.23 498.145 2144.23 505.309 2151.39 505.309 2160.23Z" fill="#C57B57"/><path d="M388.309 1391.23C388.309 1400.06 381.145 1407.23 372.309 1407.23 363.472 1407.23 356.309 1400.06 356.309 1391.23 356.309 1382.39 363.472 1375.23 372.309 1375.23 381.145 1375.23 388.309 1382.39 388.309 1391.23Z" fill="#C57B57"/><path d="M370.308 2048.23C370.308 2057.06 363.145 2064.23 354.309 2064.23 345.472 2064.23 338.309 2057.06 338.309 2048.23 338.309 2039.39 345.472 2032.23 354.309 2032.23 363.145 2032.23 370.308 2039.39 370.308 2048.23Z" fill="#C57B57"/><path d="M774.309 1930.23C774.309 1939.06 767.145 1946.23 758.309 1946.23 749.472 1946.23 742.309 1939.06 742.309 1930.23 742.309 1921.39 749.472 1914.23 758.309 1914.23 767.145 1914.23 774.309 1921.39 774.309 1930.23Z" fill="#C57B57"/><path d="M588.309 1753.23C588.309 1762.06 581.145 1769.23 572.309 1769.23 563.472 1769.23 556.309 1762.06 556.309 1753.23 556.309 1744.39 563.472 1737.23 572.309 1737.23 581.145 1737.23 588.309 1744.39 588.309 1753.23Z" fill="#C57B57"/><path d="M535.308 2548.23C535.308 2557.06 528.145 2564.23 519.309 2564.23 510.472 2564.23 503.309 2557.06 503.309 2548.23 503.309 2539.39 510.472 2532.23 519.309 2532.23 528.145 2532.23 535.308 2539.39 535.308 2548.23Z" fill="#C57B57"/><path d="M401.309 1550.23C401.309 1559.06 394.145 1566.23 385.309 1566.23 376.472 1566.23 369.309 1559.06 369.309 1550.23 369.309 1541.39 376.472 1534.23 385.309 1534.23 394.145 1534.23 401.309 1541.39 401.309 1550.23Z" fill="#C57B57"/><path d="M559.308 2520.23C559.308 2529.06 552.145 2536.23 543.309 2536.23 534.472 2536.23 527.309 2529.06 527.309 2520.23 527.309 2511.39 534.472 2504.23 543.309 2504.23 552.145 2504.23 559.308 2511.39 559.308 2520.23Z" fill="#C57B57"/><path d="M356.309 1446.23C356.309 1455.06 349.145 1462.23 340.309 1462.23 331.472 1462.23 324.309 1455.06 324.309 1446.23 324.309 1437.39 331.472 1430.23 340.309 1430.23 349.145 1430.23 356.309 1437.39 356.309 1446.23Z" fill="#C57B57"/><path d="M481.308 1975.23C481.308 1984.06 474.145 1991.23 465.309 1991.23 456.472 1991.23 449.309 1984.06 449.309 1975.23 449.309 1966.39 456.472 1959.23 465.309 1959.23 474.145 1959.23 481.308 1966.39 481.308 1975.23Z" fill="#C57B57"/><path d="M538.309 2292.23C538.309 2301.06 531.145 2308.23 522.309 2308.23 513.472 2308.23 506.309 2301.06 506.309 2292.23 506.309 2283.39 513.472 2276.23 522.309 2276.23 531.145 2276.23 538.309 2283.39 538.309 2292.23Z" fill="#C57B57"/><path d="M460.309 1685.23C460.309 1694.06 453.145 1701.23 444.309 1701.23 435.472 1701.23 428.309 1694.06 428.309 1685.23 428.309 1676.39 435.472 1669.23 444.309 1669.23 453.145 1669.23 460.309 1676.39 460.309 1685.23Z" fill="#C57B57"/><path d="M496.309 2152.23C496.309 2161.06 489.145 2168.23 480.309 2168.23 471.472 2168.23 464.309 2161.06 464.309 2152.23 464.309 2143.39 471.472 2136.23 480.309 2136.23 489.145 2136.23 496.309 2143.39 496.309 2152.23Z" fill="#C57B57"/><path d="M508.309 2479.23C508.309 2488.06 501.145 2495.23 492.309 2495.23 483.472 2495.23 476.309 2488.06 476.309 2479.23 476.309 2470.39 483.472 2463.23 492.309 2463.23 501.145 2463.23 508.309 2470.39 508.309 2479.23Z" fill="#C57B57"/><path d="M459.308 2020.23C459.308 2029.06 452.145 2036.23 443.309 2036.23 434.472 2036.23 427.309 2029.06 427.309 2020.23 427.309 2011.39 434.472 2004.23 443.309 2004.23 452.145 2004.23 459.308 2011.39 459.308 2020.23Z" fill="#C57B57"/><path d="M441.309 1874.23C441.309 1883.06 434.145 1890.23 425.309 1890.23 416.472 1890.23 409.309 1883.06 409.309 1874.23 409.309 1865.39 416.472 1858.23 425.309 1858.23 434.145 1858.23 441.309 1865.39 441.309 1874.23Z" fill="#C57B57"/></g><g><text fill="#FFFFFF" font-family="Calibri,Calibri_MSFontService,sans-serif" font-weight="400" font-size="55" transform="matrix(1 0 0 1 214.518 2659)">0</text></g><g><text fill="#FFFFFF" font-family="Calibri,Calibri_MSFontService,sans-serif" font-weight="400" font-size="55" transform="matrix(1 0 0 1 186.652 2505)">10</text></g><g><text fill="#FFFFFF" font-family="Calibri,Calibri_MSFontService,sans-serif" font-weight="400" font-size="55" transform="matrix(1 0 0 1 186.652 2351)">20</text></g><g><text fill="#FFFFFF" font-family="Calibri,Calibri_MSFontService,sans-serif" font-weight="400" font-size="55" transform="matrix(1 0 0 1 186.652 2197)">30</text></g><g><text fill="#FFFFFF" font-family="Calibri,Calibri_MSFontService,sans-serif" font-weight="400" font-size="55" transform="matrix(1 0 0 1 186.652 2042)">40</text></g><g><text fill="#FFFFFF" font-family="Calibri,Calibri_MSFontService,sans-serif" font-weight="400" font-size="55" transform="matrix(1 0 0 1 186.652 1888)">50</text></g><g><text fill="#FFFFFF" font-family="Calibri,Calibri_MSFontService,sans-serif" font-weight="400" font-size="55" transform="matrix(1 0 0 1 186.652 1734)">60</text></g><g><text fill="#FFFFFF" font-family="Calibri,Calibri_MSFontService,sans-serif" font-weight="400" font-size="55" transform="matrix(1 0 0 1 186.652 1580)">70</text></g><g><text fill="#FFFFFF" font-family="Calibri,Calibri_MSFontService,sans-serif" font-weight="400" font-size="55" transform="matrix(1 0 0 1 186.652 1426)">80</text></g><g><text fill="#FFFFFF" font-family="Calibri,Calibri_MSFontService,sans-serif" font-weight="400" font-size="55" transform="matrix(1 0 0 1 186.652 1272)">90</text></g><g><text fill="#FFFFFF" font-family="Calibri,Calibri_MSFontService,sans-serif" font-weight="400" font-size="55" transform="matrix(1 0 0 1 158.785 1117)">100</text></g><g><text fill="#FFFFFF" font-family="Calibri,Calibri_MSFontService,sans-serif" font-weight="400" font-size="55" transform="matrix(1 0 0 1 158.785 963)">110</text></g><g><text fill="#FFFFFF" font-family="Calibri,Calibri_MSFontService,sans-serif" font-weight="400" font-size="50" transform="matrix(1 0 0 1 280.637 2724)">0</text></g><g><text fill="#FFFFFF" font-family="Calibri,Calibri_MSFontService,sans-serif" font-weight="400" font-size="50" transform="matrix(1 0 0 1 657.69 2724)">50</text></g><g><text fill="#FFFFFF" font-family="Calibri,Calibri_MSFontService,sans-serif" font-weight="400" font-size="50" transform="matrix(1 0 0 1 1034.74 2724)">100</text></g><g><text fill="#FFFFFF" font-family="Calibri,Calibri_MSFontService,sans-serif" font-weight="400" font-size="50" transform="matrix(1 0 0 1 1424.57 2724)">150</text></g><g><text fill="#FFFFFF" font-family="Calibri,Calibri_MSFontService,sans-serif" font-weight="400" font-size="50" transform="matrix(1 0 0 1 1814.4 2724)">200</text></g><g><text fill="#FFFFFF" font-family="Calibri,Calibri_MSFontService,sans-serif" font-weight="400" font-size="50" transform="matrix(1 0 0 1 2204.23 2724)">250</text></g><g><text fill="#FFFFFF" font-family="Calibri,Calibri_MSFontService,sans-serif" font-weight="400" font-size="50" transform="matrix(1 0 0 1 2594.06 2724)">300</text></g><rect x="657.5" y="1503.5" width="291" height="480" stroke="#FFFFFF" stroke-width="4.58333" stroke-miterlimit="8" fill="#FFFFFF"/><rect x="41.5001" y="1197.5" width="124" height="1011" stroke="#FFFFFF" stroke-width="4.58333" stroke-miterlimit="8" fill="#FFFFFF"/><text font-family="Roboto,Roboto_MSFontService,sans-serif" font-weight="700" font-size="64" transform="matrix(-1.83697e-16 -1 1 -1.83697e-16 224.211 2222)">Product demand per capita</text><text font-family="Roboto,Roboto_MSFontService,sans-serif" font-weight="700" font-size="64" transform="matrix(1 0 0 1 618.322 2747)">Work minutes (effort) required to buy product</text><path d="M903.014 2058 903.014 2154Z" stroke="#C57B57" stroke-width="2.29167" stroke-miterlimit="8" fill="none" fill-rule="evenodd"/><path d="M903.014 2101.54 850.667 2166" stroke="#C57B57" stroke-width="2.29167" stroke-miterlimit="8" fill="none" fill-rule="evenodd"/><text font-family="Roboto Light,Roboto Light_MSFontService,sans-serif" font-weight="300" font-size="50" transform="matrix(1 0 0 1 935.179 2123)">Country</text><text font-family="Roboto,Roboto_MSFontService,sans-serif" font-weight="700" font-size="73" transform="matrix(1 0 0 1 886.547 917)">TELLUSANT’S LAW OF EFFORT</text></g></svg>