<svg width="1927" height="1849" xmlns="http://www.w3.org/2000/svg" xmlns:xlink="http://www.w3.org/1999/xlink" xml:space="preserve" overflow="hidden"><defs><clipPath id="clip0"><rect x="274" y="2473" width="1927" height="1849"/></clipPath></defs><g clip-path="url(#clip0)" transform="translate(-274 -2473)"><rect x="274" y="2473" width="1927" height="1765" fill="#FFFFFF"/><g><rect x="923" y="4141" width="419" height="29" fill="#C00000"/></g><g><rect x="1005" y="4077" width="337" height="29.0002" fill="#C00000"/></g><g><rect x="1009" y="4013" width="333" height="29.0002" fill="#C00000"/></g><g><rect x="1048" y="3948" width="294" height="28.9998" fill="#C00000"/></g><g><rect x="1112" y="3884" width="230" height="28.9998" fill="#C00000"/></g><g><rect x="1144" y="3820" width="198" height="28.9998" fill="#C00000"/></g><g><rect x="1157" y="3755" width="185" height="28.9998" fill="#C00000"/></g><g><rect x="1174" y="3691" width="168" height="29.0002" fill="#C00000"/></g><g><rect x="1210" y="3626" width="132" height="29.0002" fill="#C00000"/></g><g><rect x="1218" y="3562" width="124" height="29.0002" fill="#C00000"/></g><g><rect x="1260" y="3498" width="82.0001" height="28.9998" fill="#C00000"/></g><g><rect x="1296" y="3433" width="46.0001" height="28.9998" fill="#C00000"/></g><g><rect x="1342" y="3369" width="5.00012" height="28.9998" fill="#196B24"/></g><g><rect x="1342" y="3305" width="15.0001" height="28.9998" fill="#196B24"/></g><g><rect x="1342" y="3240" width="15.0001" height="29.0002" fill="#196B24"/></g><g><rect x="1342" y="3176" width="28.9999" height="29.0002" fill="#196B24"/></g><g><rect x="1342" y="3112" width="30.9999" height="28.9998" fill="#196B24"/></g><g><rect x="1342" y="3047" width="101" height="28.9998" fill="#196B24"/></g><g><rect x="1342" y="2983" width="112" height="28.9998" fill="#196B24"/></g><g><rect x="1342" y="2918" width="154" height="28.9998" fill="#196B24"/></g><g><rect x="1342" y="2854" width="160" height="28.9998" fill="#196B24"/></g><g><rect x="1342" y="2790" width="213" height="29.0002" fill="#196B24"/></g><g><rect x="1342" y="2725" width="481" height="29.0002" fill="#196B24"/></g><g><rect x="1342" y="2661" width="560" height="28.9998" fill="#196B24"/></g><g><path d="M0 0 0.000360892 1545" stroke="#D9D9D9" stroke-width="3.4375" stroke-linejoin="round" stroke-miterlimit="10" fill="none" fill-rule="evenodd" transform="matrix(1 0 0 -1 1341.5 4188.5)"/></g><g><text font-family="Arial,Arial_MSFontService,sans-serif" font-weight="400" font-size="50" transform="matrix(1 0 0 1 768.276 4174)">−1,57</text></g><g><text font-family="Arial,Arial_MSFontService,sans-serif" font-weight="400" font-size="50" transform="matrix(1 0 0 1 850.124 4110)">−1,26</text></g><g><text font-family="Arial,Arial_MSFontService,sans-serif" font-weight="400" font-size="50" transform="matrix(1 0 0 1 853.456 4045)">−1,25</text></g><g><text font-family="Arial,Arial_MSFontService,sans-serif" font-weight="400" font-size="50" transform="matrix(1 0 0 1 893.1 3981)">−1,10</text></g><g><text font-family="Arial,Arial_MSFontService,sans-serif" font-weight="400" font-size="50" transform="matrix(1 0 0 1 956.438 3916)">−0,86</text></g><g><text font-family="Arial,Arial_MSFontService,sans-serif" font-weight="400" font-size="50" transform="matrix(1 0 0 1 988.997 3852)">−0,74</text></g><g><text font-family="Arial,Arial_MSFontService,sans-serif" font-weight="400" font-size="50" transform="matrix(1 0 0 1 1001.46 3788)">−0,69</text></g><g><text font-family="Arial,Arial_MSFontService,sans-serif" font-weight="400" font-size="50" transform="matrix(1 0 0 1 1019.17 3723)">−0,63</text></g><g><text font-family="Arial,Arial_MSFontService,sans-serif" font-weight="400" font-size="50" transform="matrix(1 0 0 1 1054.99 3659)">−0,49</text></g><g><text font-family="Arial,Arial_MSFontService,sans-serif" font-weight="400" font-size="50" transform="matrix(1 0 0 1 1062.62 3595)">−0,46</text></g><g><text font-family="Arial,Arial_MSFontService,sans-serif" font-weight="400" font-size="50" transform="matrix(1 0 0 1 1104.99 3530)">−0,31</text></g><g><text font-family="Arial,Arial_MSFontService,sans-serif" font-weight="400" font-size="50" transform="matrix(1 0 0 1 1140.73 3466)">−0,17</text></g><g><text font-family="Arial,Arial_MSFontService,sans-serif" font-weight="400" font-size="50" transform="matrix(1 0 0 1 1374.91 3402)">0,02</text></g><g><text font-family="Arial,Arial_MSFontService,sans-serif" font-weight="400" font-size="50" transform="matrix(1 0 0 1 1384.19 3337)">0,06</text></g><g><text font-family="Arial,Arial_MSFontService,sans-serif" font-weight="400" font-size="50" transform="matrix(1 0 0 1 1384.31 3273)">0,06</text></g><g><text font-family="Arial,Arial_MSFontService,sans-serif" font-weight="400" font-size="50" transform="matrix(1 0 0 1 1398.05 3208)">0,11</text></g><g><text font-family="Arial,Arial_MSFontService,sans-serif" font-weight="400" font-size="50" transform="matrix(1 0 0 1 1400.62 3144)">0,12</text></g><g><text font-family="Arial,Arial_MSFontService,sans-serif" font-weight="400" font-size="50" transform="matrix(1 0 0 1 1470.17 3080)">0,38</text></g><g><text font-family="Arial,Arial_MSFontService,sans-serif" font-weight="400" font-size="50" transform="matrix(1 0 0 1 1481.92 3015)">0,42</text></g><g><text font-family="Arial,Arial_MSFontService,sans-serif" font-weight="400" font-size="50" transform="matrix(1 0 0 1 1523.89 2951)">0,58</text></g><g><text font-family="Arial,Arial_MSFontService,sans-serif" font-weight="400" font-size="50" transform="matrix(1 0 0 1 1529.29 2887)">0,60</text></g><g><text font-family="Arial,Arial_MSFontService,sans-serif" font-weight="400" font-size="50" transform="matrix(1 0 0 1 1582.83 2822)">0,80</text></g><g><text font-family="Arial,Arial_MSFontService,sans-serif" font-weight="400" font-size="50" transform="matrix(1 0 0 1 1850.73 2758)">1,81</text></g><g><text font-family="Arial,Arial_MSFontService,sans-serif" font-weight="400" font-size="50" transform="matrix(1 0 0 1 1929.68 2693)">2,10</text></g><g><text font-family="Arial,Arial_MSFontService,sans-serif" font-weight="400" font-size="50" transform="matrix(1 0 0 1 577.073 4172)">Schweiz</text></g><g><text font-family="Arial,Arial_MSFontService,sans-serif" font-weight="400" font-size="50" transform="matrix(1 0 0 1 563.048 4108)">Tyskland</text></g><g><text font-family="Arial,Arial_MSFontService,sans-serif" font-weight="400" font-size="50" transform="matrix(1 0 0 1 661.177 4043)">USA</text></g><g><text font-family="Arial,Arial_MSFontService,sans-serif" font-weight="400" font-size="50" transform="matrix(1 0 0 1 450.847 3979)">Storbritannien</text></g><g><text font-family="Arial,Arial_MSFontService,sans-serif" font-weight="400" font-size="50" transform="matrix(1 0 0 1 560.297 3915)">Österrike</text></g><g><text font-family="Arial,Arial_MSFontService,sans-serif" font-weight="400" font-size="50" transform="matrix(1 0 0 1 627.421 3850)">Indien</text></g><g><text font-family="Arial,Arial_MSFontService,sans-serif" font-weight="400" font-size="50" transform="matrix(1 0 0 1 630.262 3786)">Italien</text></g><g><text font-family="Arial,Arial_MSFontService,sans-serif" font-weight="400" font-size="50" transform="matrix(1 0 0 1 554.66 3722)">Frankrike</text></g><g><text font-family="Arial,Arial_MSFontService,sans-serif" font-weight="400" font-size="50" transform="matrix(1 0 0 1 560.252 3657)">Danmark</text></g><g><text font-family="Arial,Arial_MSFontService,sans-serif" font-weight="400" font-size="50" transform="matrix(1 0 0 1 431.162 3593)">Nederländerna</text></g><g><text font-family="Arial,Arial_MSFontService,sans-serif" font-weight="400" font-size="50" transform="matrix(1 0 0 1 663.904 3529)">Kina</text></g><g><text font-family="Arial,Arial_MSFontService,sans-serif" font-weight="400" font-size="50" transform="matrix(1 0 0 1 590.961 3464)">Kanada</text></g><g><text font-family="Arial,Arial_MSFontService,sans-serif" font-weight="400" font-size="50" transform="matrix(1 0 0 1 627.467 3400)">Norge</text></g><g><text font-family="Arial,Arial_MSFontService,sans-serif" font-weight="400" font-size="50" transform="matrix(1 0 0 1 579.754 3335)">Spanien</text></g><g><text font-family="Arial,Arial_MSFontService,sans-serif" font-weight="400" font-size="50" transform="matrix(1 0 0 1 577.05 3271)">Tjeckien</text></g><g><text font-family="Arial,Arial_MSFontService,sans-serif" font-weight="400" font-size="50" transform="matrix(1 0 0 1 610.714 3207)">Turkiet</text></g><g><text font-family="Arial,Arial_MSFontService,sans-serif" font-weight="400" font-size="50" transform="matrix(1 0 0 1 627.421 3142)">Japan</text></g><g><text font-family="Arial,Arial_MSFontService,sans-serif" font-weight="400" font-size="50" transform="matrix(1 0 0 1 571.435 3078)">Brasilien</text></g><g><text font-family="Arial,Arial_MSFontService,sans-serif" font-weight="400" font-size="50" transform="matrix(1 0 0 1 596.598 3014)">Belgien</text></g><g><text font-family="Arial,Arial_MSFontService,sans-serif" font-weight="400" font-size="50" transform="matrix(1 0 0 1 635.854 2949)">Polen</text></g><g><text font-family="Arial,Arial_MSFontService,sans-serif" font-weight="400" font-size="50" transform="matrix(1 0 0 1 540.589 2885)">Australien</text></g><g><text font-family="Arial,Arial_MSFontService,sans-serif" font-weight="400" font-size="50" transform="matrix(1 0 0 1 551.796 2821)">Sydkorea</text></g><g><text font-family="Arial,Arial_MSFontService,sans-serif" font-weight="400" font-size="50" transform="matrix(1 0 0 1 599.417 2756)">Finland</text></g><g><text font-family="Arial,Arial_MSFontService,sans-serif" font-weight="400" font-size="50" transform="matrix(1 0 0 1 596.643 2692)">Estland</text></g><g><text font-family="Arial,Arial_MSFontService,sans-serif" font-weight="700" font-size="64" transform="matrix(1 0 0 1 570.785 2568)">FRAMGÅNGSINDEX FÖR SVENSK EXPORT</text></g><g><rect x="1542" y="3142" width="117" height="87" fill="#196B24"/></g><g><g><text font-family="Arial,Arial_MSFontService,sans-serif" font-style="italic" font-weight="400" font-size="50" transform="matrix(1 0 0 1 1685.36 3205)">Över förväntan</text></g></g><g><rect x="1542" y="3617" width="117" height="88" fill="#C00000"/></g><g><text font-family="Arial,Arial_MSFontService,sans-serif" font-style="italic" font-weight="400" font-size="50" transform="matrix(1 0 0 1 1685.36 3681)">Under förväntan</text></g><text font-family="Arial,Arial_MSFontService,sans-serif" font-weight="400" font-size="46" transform="matrix(1 0 0 1 800.537 4284)">Källa: </text><text font-family="Arial,Arial_MSFontService,sans-serif" font-weight="400" font-size="46" transform="matrix(1 0 0 1 927.152 4284)">TelluBase;</text><text font-family="Arial,Arial_MSFontService,sans-serif" font-weight="400" font-size="46" transform="matrix(1 0 0 1 1155.17 4284)">SCB;</text><text font-family="Arial,Arial_MSFontService,sans-serif" font-weight="400" font-size="46" transform="matrix(1 0 0 1 1274.34 4284)">Tellusant analys</text></g></svg>