<svg width="2338" height="2033" xmlns="http://www.w3.org/2000/svg" xmlns:xlink="http://www.w3.org/1999/xlink" xml:space="preserve" overflow="hidden"><defs><clipPath id="clip0"><rect x="253" y="815" width="2338" height="2033"/></clipPath></defs><g clip-path="url(#clip0)" transform="translate(-253 -815)"><g><path d="M589.5 2406.58 2432.5 2406.58M589.5 2230.57 2432.5 2230.57M589.5 2055.57 2432.5 2055.57M589.5 1880.56 2432.5 1880.56M589.5 1704.56 2432.5 1704.56M589.5 1529.55 2432.5 1529.55M589.5 1354.54 2432.5 1354.54M589.5 1178.54 2432.5 1178.54M589.5 1003.5 2432.5 1003.5" stroke="#D9D9D9" stroke-width="3.4375" stroke-linejoin="round" stroke-miterlimit="10" fill="none"/></g><g><path d="M1049.53 1003.5 1049.53 2581.5M1510.55 1003.5 1510.55 2581.5M1971.56 1003.5 1971.56 2581.5M2432.5 1003.5 2432.5 2581.5" stroke="#D9D9D9" stroke-width="3.4375" stroke-linejoin="round" stroke-miterlimit="10" fill="none"/></g><g><path d="M0 0 0.000360892 1578" stroke="#BFBFBF" stroke-width="3.4375" stroke-linejoin="round" stroke-miterlimit="10" fill="none" fill-rule="evenodd" transform="matrix(1 0 0 -1 589.5 2581.5)"/></g><g><path d="M589.5 2581.5 2432.5 2581.5" stroke="#BFBFBF" stroke-width="3.4375" stroke-linejoin="round" stroke-miterlimit="10" fill="none" fill-rule="evenodd"/></g><g><path d="M936.021 2359.46C936.021 2365.53 931.096 2370.46 925.021 2370.46 918.946 2370.46 914.022 2365.53 914.022 2359.46 914.022 2353.38 918.946 2348.46 925.021 2348.46 931.096 2348.46 936.021 2353.38 936.021 2359.46Z" stroke="#C57B57" stroke-width="3.4375" stroke-linejoin="round" stroke-miterlimit="10" fill="#C57B57"/><path d="M1349.02 2209.46C1349.02 2215.53 1344.1 2220.46 1338.02 2220.46 1331.95 2220.46 1327.02 2215.53 1327.02 2209.46 1327.02 2203.38 1331.95 2198.46 1338.02 2198.46 1344.1 2198.46 1349.02 2203.38 1349.02 2209.46Z" stroke="#C57B57" stroke-width="3.4375" stroke-linejoin="round" stroke-miterlimit="10" fill="#C57B57"/><path d="M1347.02 2279.46C1347.02 2285.53 1342.1 2290.46 1336.02 2290.46 1329.95 2290.46 1325.02 2285.53 1325.02 2279.46 1325.02 2273.38 1329.95 2268.46 1336.02 2268.46 1342.1 2268.46 1347.02 2273.38 1347.02 2279.46Z" stroke="#C57B57" stroke-width="3.4375" stroke-linejoin="round" stroke-miterlimit="10" fill="#C57B57"/><path d="M1765.02 1885.46C1765.02 1891.53 1760.1 1896.46 1754.02 1896.46 1747.95 1896.46 1743.02 1891.53 1743.02 1885.46 1743.02 1879.38 1747.95 1874.46 1754.02 1874.46 1760.1 1874.46 1765.02 1879.38 1765.02 1885.46Z" stroke="#C57B57" stroke-width="3.4375" stroke-linejoin="round" stroke-miterlimit="10" fill="#C57B57"/><path d="M1327.02 2014.46C1327.02 2020.53 1322.1 2025.46 1316.02 2025.46 1309.95 2025.46 1305.02 2020.53 1305.02 2014.46 1305.02 2008.38 1309.95 2003.46 1316.02 2003.46 1322.1 2003.46 1327.02 2008.38 1327.02 2014.46Z" stroke="#C57B57" stroke-width="3.4375" stroke-linejoin="round" stroke-miterlimit="10" fill="#C57B57"/><path d="M1635.02 1738.46C1635.02 1744.53 1630.1 1749.46 1624.02 1749.46 1617.95 1749.46 1613.02 1744.53 1613.02 1738.46 1613.02 1732.38 1617.95 1727.46 1624.02 1727.46 1630.1 1727.46 1635.02 1732.38 1635.02 1738.46Z" stroke="#C57B57" stroke-width="3.4375" stroke-linejoin="round" stroke-miterlimit="10" fill="#C57B57"/><path d="M1606.02 1780.46C1606.02 1786.53 1601.1 1791.46 1595.02 1791.46 1588.95 1791.46 1584.02 1786.53 1584.02 1780.46 1584.02 1774.38 1588.95 1769.46 1595.02 1769.46 1601.1 1769.46 1606.02 1774.38 1606.02 1780.46Z" stroke="#C57B57" stroke-width="3.4375" stroke-linejoin="round" stroke-miterlimit="10" fill="#C57B57"/><path d="M1599.02 2038.46C1599.02 2044.53 1594.1 2049.46 1588.02 2049.46 1581.95 2049.46 1577.02 2044.53 1577.02 2038.46 1577.02 2032.38 1581.95 2027.46 1588.02 2027.46 1594.1 2027.46 1599.02 2032.38 1599.02 2038.46Z" stroke="#C57B57" stroke-width="3.4375" stroke-linejoin="round" stroke-miterlimit="10" fill="#C57B57"/><path d="M1331.02 2277.46C1331.02 2283.53 1326.1 2288.46 1320.02 2288.46 1313.95 2288.46 1309.02 2283.53 1309.02 2277.46 1309.02 2271.38 1313.95 2266.46 1320.02 2266.46 1326.1 2266.46 1331.02 2271.38 1331.02 2277.46Z" stroke="#C57B57" stroke-width="3.4375" stroke-linejoin="round" stroke-miterlimit="10" fill="#C57B57"/><path d="M1736.02 1856.46C1736.02 1862.53 1731.1 1867.46 1725.02 1867.46 1718.95 1867.46 1714.02 1862.53 1714.02 1856.46 1714.02 1850.38 1718.95 1845.46 1725.02 1845.46 1731.1 1845.46 1736.02 1850.38 1736.02 1856.46Z" stroke="#C57B57" stroke-width="3.4375" stroke-linejoin="round" stroke-miterlimit="10" fill="#C57B57"/><path d="M1857.02 1553.46C1857.02 1559.53 1852.1 1564.46 1846.02 1564.46 1839.95 1564.46 1835.02 1559.53 1835.02 1553.46 1835.02 1547.38 1839.95 1542.46 1846.02 1542.46 1852.1 1542.46 1857.02 1547.38 1857.02 1553.46Z" stroke="#C57B57" stroke-width="3.4375" stroke-linejoin="round" stroke-miterlimit="10" fill="#C57B57"/><path d="M1823.02 1758.46C1823.02 1764.53 1818.1 1769.46 1812.02 1769.46 1805.95 1769.46 1801.02 1764.53 1801.02 1758.46 1801.02 1752.38 1805.95 1747.46 1812.02 1747.46 1818.1 1747.46 1823.02 1752.38 1823.02 1758.46Z" stroke="#C57B57" stroke-width="3.4375" stroke-linejoin="round" stroke-miterlimit="10" fill="#C57B57"/><path d="M1392.02 2333.46C1392.02 2339.53 1387.1 2344.46 1381.02 2344.46 1374.95 2344.46 1370.02 2339.53 1370.02 2333.46 1370.02 2327.38 1374.95 2322.46 1381.02 2322.46 1387.1 2322.46 1392.02 2327.38 1392.02 2333.46Z" stroke="#C57B57" stroke-width="3.4375" stroke-linejoin="round" stroke-miterlimit="10" fill="#C57B57"/><path d="M1752.02 1614.46C1752.02 1620.53 1747.1 1625.46 1741.02 1625.46 1734.95 1625.46 1730.02 1620.53 1730.02 1614.46 1730.02 1608.38 1734.95 1603.46 1741.02 1603.46 1747.1 1603.46 1752.02 1608.38 1752.02 1614.46Z" stroke="#C57B57" stroke-width="3.4375" stroke-linejoin="round" stroke-miterlimit="10" fill="#C57B57"/><path d="M1683.02 2105.46C1683.02 2111.53 1678.1 2116.46 1672.02 2116.46 1665.95 2116.46 1661.02 2111.53 1661.02 2105.46 1661.02 2099.38 1665.95 2094.46 1672.02 2094.46 1678.1 2094.46 1683.02 2099.38 1683.02 2105.46Z" stroke="#C57B57" stroke-width="3.4375" stroke-linejoin="round" stroke-miterlimit="10" fill="#C57B57"/><path d="M1128.02 2259.46C1128.02 2265.53 1123.1 2270.46 1117.02 2270.46 1110.95 2270.46 1106.02 2265.53 1106.02 2259.46 1106.02 2253.38 1110.95 2248.46 1117.02 2248.46 1123.1 2248.46 1128.02 2253.38 1128.02 2259.46Z" stroke="#C57B57" stroke-width="3.4375" stroke-linejoin="round" stroke-miterlimit="10" fill="#C57B57"/><path d="M1627.02 1985.46C1627.02 1991.53 1622.1 1996.46 1616.02 1996.46 1609.95 1996.46 1605.02 1991.53 1605.02 1985.46 1605.02 1979.38 1609.95 1974.46 1616.02 1974.46 1622.1 1974.46 1627.02 1979.38 1627.02 1985.46Z" stroke="#C57B57" stroke-width="3.4375" stroke-linejoin="round" stroke-miterlimit="10" fill="#C57B57"/><path d="M1418.02 2301.46C1418.02 2307.53 1413.1 2312.46 1407.02 2312.46 1400.95 2312.46 1396.02 2307.53 1396.02 2301.46 1396.02 2295.38 1400.95 2290.46 1407.02 2290.46 1413.1 2290.46 1418.02 2295.38 1418.02 2301.46Z" stroke="#C57B57" stroke-width="3.4375" stroke-linejoin="round" stroke-miterlimit="10" fill="#C57B57"/><path d="M1807.02 1744.46C1807.02 1750.53 1802.1 1755.46 1796.02 1755.46 1789.95 1755.46 1785.02 1750.53 1785.02 1744.46 1785.02 1738.38 1789.95 1733.46 1796.02 1733.46 1802.1 1733.46 1807.02 1738.38 1807.02 1744.46Z" stroke="#C57B57" stroke-width="3.4375" stroke-linejoin="round" stroke-miterlimit="10" fill="#C57B57"/><path d="M1370.02 1933.46C1370.02 1939.53 1365.1 1944.46 1359.02 1944.46 1352.95 1944.46 1348.02 1939.53 1348.02 1933.46 1348.02 1927.38 1352.95 1922.46 1359.02 1922.46 1365.1 1922.46 1370.02 1927.38 1370.02 1933.46Z" stroke="#C57B57" stroke-width="3.4375" stroke-linejoin="round" stroke-miterlimit="10" fill="#C57B57"/><path d="M1082.02 2250.46C1082.02 2256.53 1077.1 2261.46 1071.02 2261.46 1064.95 2261.46 1060.02 2256.53 1060.02 2250.46 1060.02 2244.38 1064.95 2239.46 1071.02 2239.46 1077.1 2239.46 1082.02 2244.38 1082.02 2250.46Z" stroke="#C57B57" stroke-width="3.4375" stroke-linejoin="round" stroke-miterlimit="10" fill="#C57B57"/><path d="M1975.02 1200.46C1975.02 1206.53 1970.1 1211.46 1964.02 1211.46 1957.95 1211.46 1953.02 1206.53 1953.02 1200.46 1953.02 1194.38 1957.95 1189.46 1964.02 1189.46 1970.1 1189.46 1975.02 1194.38 1975.02 1200.46Z" stroke="#C57B57" stroke-width="3.4375" stroke-linejoin="round" stroke-miterlimit="10" fill="#C57B57"/><path d="M1283.02 2305.46C1283.02 2311.53 1278.1 2316.46 1272.02 2316.46 1265.95 2316.46 1261.02 2311.53 1261.02 2305.46 1261.02 2299.38 1265.95 2294.46 1272.02 2294.46 1278.1 2294.46 1283.02 2299.38 1283.02 2305.46Z" stroke="#C57B57" stroke-width="3.4375" stroke-linejoin="round" stroke-miterlimit="10" fill="#C57B57"/><path d="M1293.02 2252.46C1293.02 2258.53 1288.1 2263.46 1282.02 2263.46 1275.95 2263.46 1271.02 2258.53 1271.02 2252.46 1271.02 2246.38 1275.95 2241.46 1282.02 2241.46 1288.1 2241.46 1293.02 2246.38 1293.02 2252.46Z" stroke="#C57B57" stroke-width="3.4375" stroke-linejoin="round" stroke-miterlimit="10" fill="#C57B57"/><path d="M1388.02 2185.46C1388.02 2191.53 1383.1 2196.46 1377.02 2196.46 1370.95 2196.46 1366.02 2191.53 1366.02 2185.46 1366.02 2179.38 1370.95 2174.46 1377.02 2174.46 1383.1 2174.46 1388.02 2179.38 1388.02 2185.46Z" stroke="#C57B57" stroke-width="3.4375" stroke-linejoin="round" stroke-miterlimit="10" fill="#C57B57"/><path d="M1450.02 2157.46C1450.02 2163.53 1445.1 2168.46 1439.02 2168.46 1432.95 2168.46 1428.02 2163.53 1428.02 2157.46 1428.02 2151.38 1432.95 2146.46 1439.02 2146.46 1445.1 2146.46 1450.02 2151.38 1450.02 2157.46Z" stroke="#C57B57" stroke-width="3.4375" stroke-linejoin="round" stroke-miterlimit="10" fill="#C57B57"/><path d="M1489.02 1942.46C1489.02 1948.53 1484.1 1953.46 1478.02 1953.46 1471.95 1953.46 1467.02 1948.53 1467.02 1942.46 1467.02 1936.38 1471.95 1931.46 1478.02 1931.46 1484.1 1931.46 1489.02 1936.38 1489.02 1942.46Z" stroke="#C57B57" stroke-width="3.4375" stroke-linejoin="round" stroke-miterlimit="10" fill="#C57B57"/><path d="M1793.02 1620.46C1793.02 1626.53 1788.1 1631.46 1782.02 1631.46 1775.95 1631.46 1771.02 1626.53 1771.02 1620.46 1771.02 1614.38 1775.95 1609.46 1782.02 1609.46 1788.1 1609.46 1793.02 1614.38 1793.02 1620.46Z" stroke="#C57B57" stroke-width="3.4375" stroke-linejoin="round" stroke-miterlimit="10" fill="#C57B57"/><path d="M1742.02 2139.46C1742.02 2145.53 1737.1 2150.46 1731.02 2150.46 1724.95 2150.46 1720.02 2145.53 1720.02 2139.46 1720.02 2133.38 1724.95 2128.46 1731.02 2128.46 1737.1 2128.46 1742.02 2133.38 1742.02 2139.46Z" stroke="#C57B57" stroke-width="3.4375" stroke-linejoin="round" stroke-miterlimit="10" fill="#C57B57"/><path d="M1466.02 2209.46C1466.02 2215.53 1461.1 2220.46 1455.02 2220.46 1448.95 2220.46 1444.02 2215.53 1444.02 2209.46 1444.02 2203.38 1448.95 2198.46 1455.02 2198.46 1461.1 2198.46 1466.02 2203.38 1466.02 2209.46Z" stroke="#C57B57" stroke-width="3.4375" stroke-linejoin="round" stroke-miterlimit="10" fill="#C57B57"/><path d="M987.021 2280.46C987.021 2286.53 982.096 2291.46 976.022 2291.46 969.947 2291.46 965.022 2286.53 965.022 2280.46 965.022 2274.38 969.947 2269.46 976.022 2269.46 982.096 2269.46 987.021 2274.38 987.021 2280.46Z" stroke="#C57B57" stroke-width="3.4375" stroke-linejoin="round" stroke-miterlimit="10" fill="#C57B57"/><path d="M804.021 2249.46C804.021 2255.53 799.096 2260.46 793.021 2260.46 786.946 2260.46 782.022 2255.53 782.022 2249.46 782.022 2243.38 786.946 2238.46 793.021 2238.46 799.096 2238.46 804.021 2243.38 804.021 2249.46Z" stroke="#C57B57" stroke-width="3.4375" stroke-linejoin="round" stroke-miterlimit="10" fill="#C57B57"/><path d="M1295.02 2154.46C1295.02 2160.53 1290.1 2165.46 1284.02 2165.46 1277.95 2165.46 1273.02 2160.53 1273.02 2154.46 1273.02 2148.38 1277.95 2143.46 1284.02 2143.46 1290.1 2143.46 1295.02 2148.38 1295.02 2154.46Z" stroke="#C57B57" stroke-width="3.4375" stroke-linejoin="round" stroke-miterlimit="10" fill="#C57B57"/><path d="M1111.02 2259.46C1111.02 2265.53 1106.1 2270.46 1100.02 2270.46 1093.95 2270.46 1089.02 2265.53 1089.02 2259.46 1089.02 2253.38 1093.95 2248.46 1100.02 2248.46 1106.1 2248.46 1111.02 2253.38 1111.02 2259.46Z" stroke="#C57B57" stroke-width="3.4375" stroke-linejoin="round" stroke-miterlimit="10" fill="#C57B57"/><path d="M1122.02 2224.46C1122.02 2230.53 1117.1 2235.46 1111.02 2235.46 1104.95 2235.46 1100.02 2230.53 1100.02 2224.46 1100.02 2218.38 1104.95 2213.46 1111.02 2213.46 1117.1 2213.46 1122.02 2218.38 1122.02 2224.46Z" stroke="#C57B57" stroke-width="3.4375" stroke-linejoin="round" stroke-miterlimit="10" fill="#C57B57"/><path d="M1818.02 1712.46C1818.02 1718.53 1813.1 1723.46 1807.02 1723.46 1800.95 1723.46 1796.02 1718.53 1796.02 1712.46 1796.02 1706.38 1800.95 1701.46 1807.02 1701.46 1813.1 1701.46 1818.02 1706.38 1818.02 1712.46Z" stroke="#C57B57" stroke-width="3.4375" stroke-linejoin="round" stroke-miterlimit="10" fill="#C57B57"/><path d="M1955.02 1372.46C1955.02 1378.53 1950.1 1383.46 1944.02 1383.46 1937.95 1383.46 1933.02 1378.53 1933.02 1372.46 1933.02 1366.38 1937.95 1361.46 1944.02 1361.46 1950.1 1361.46 1955.02 1366.38 1955.02 1372.46Z" stroke="#C57B57" stroke-width="3.4375" stroke-linejoin="round" stroke-miterlimit="10" fill="#C57B57"/><path d="M879.021 2312.46C879.021 2318.53 874.097 2323.46 868.022 2323.46 861.947 2323.46 857.022 2318.53 857.022 2312.46 857.022 2306.38 861.947 2301.46 868.022 2301.46 874.097 2301.46 879.021 2306.38 879.021 2312.46Z" stroke="#C57B57" stroke-width="3.4375" stroke-linejoin="round" stroke-miterlimit="10" fill="#C57B57"/><path d="M992.021 2223.46C992.021 2229.53 987.096 2234.46 981.021 2234.46 974.946 2234.46 970.022 2229.53 970.022 2223.46 970.022 2217.38 974.946 2212.46 981.021 2212.46 987.096 2212.46 992.021 2217.38 992.021 2223.46Z" stroke="#C57B57" stroke-width="3.4375" stroke-linejoin="round" stroke-miterlimit="10" fill="#C57B57"/><path d="M1583.02 1934.46C1583.02 1940.53 1578.1 1945.46 1572.02 1945.46 1565.95 1945.46 1561.02 1940.53 1561.02 1934.46 1561.02 1928.38 1565.95 1923.46 1572.02 1923.46 1578.1 1923.46 1583.02 1928.38 1583.02 1934.46Z" stroke="#C57B57" stroke-width="3.4375" stroke-linejoin="round" stroke-miterlimit="10" fill="#C57B57"/><path d="M1498.02 2043.46C1498.02 2049.53 1493.1 2054.46 1487.02 2054.46 1480.95 2054.46 1476.02 2049.53 1476.02 2043.46 1476.02 2037.38 1480.95 2032.46 1487.02 2032.46 1493.1 2032.46 1498.02 2037.38 1498.02 2043.46Z" stroke="#C57B57" stroke-width="3.4375" stroke-linejoin="round" stroke-miterlimit="10" fill="#C57B57"/><path d="M1426.02 2159.46C1426.02 2165.53 1421.1 2170.46 1415.02 2170.46 1408.95 2170.46 1404.02 2165.53 1404.02 2159.46 1404.02 2153.38 1408.95 2148.46 1415.02 2148.46 1421.1 2148.46 1426.02 2153.38 1426.02 2159.46Z" stroke="#C57B57" stroke-width="3.4375" stroke-linejoin="round" stroke-miterlimit="10" fill="#C57B57"/><path d="M1111.02 2152.46C1111.02 2158.53 1106.1 2163.46 1100.02 2163.46 1093.95 2163.46 1089.02 2158.53 1089.02 2152.46 1089.02 2146.38 1093.95 2141.46 1100.02 2141.46 1106.1 2141.46 1111.02 2146.38 1111.02 2152.46Z" stroke="#C57B57" stroke-width="3.4375" stroke-linejoin="round" stroke-miterlimit="10" fill="#C57B57"/><path d="M920.021 2203.46C920.021 2209.53 915.096 2214.46 909.021 2214.46 902.947 2214.46 898.022 2209.53 898.022 2203.46 898.022 2197.38 902.947 2192.46 909.021 2192.46 915.096 2192.46 920.021 2197.38 920.021 2203.46Z" stroke="#C57B57" stroke-width="3.4375" stroke-linejoin="round" stroke-miterlimit="10" fill="#C57B57"/><path d="M1196.02 2150.46C1196.02 2156.53 1191.1 2161.46 1185.02 2161.46 1178.95 2161.46 1174.02 2156.53 1174.02 2150.46 1174.02 2144.38 1178.95 2139.46 1185.02 2139.46 1191.1 2139.46 1196.02 2144.38 1196.02 2150.46Z" stroke="#C57B57" stroke-width="3.4375" stroke-linejoin="round" stroke-miterlimit="10" fill="#C57B57"/><path d="M1786.02 1955.46C1786.02 1961.53 1781.1 1966.46 1775.02 1966.46 1768.95 1966.46 1764.02 1961.53 1764.02 1955.46 1764.02 1949.38 1768.95 1944.46 1775.02 1944.46 1781.1 1944.46 1786.02 1949.38 1786.02 1955.46Z" stroke="#C57B57" stroke-width="3.4375" stroke-linejoin="round" stroke-miterlimit="10" fill="#C57B57"/><path d="M1564.02 2005.46C1564.02 2011.53 1559.1 2016.46 1553.02 2016.46 1546.95 2016.46 1542.02 2011.53 1542.02 2005.46 1542.02 1999.38 1546.95 1994.46 1553.02 1994.46 1559.1 1994.46 1564.02 1999.38 1564.02 2005.46Z" stroke="#C57B57" stroke-width="3.4375" stroke-linejoin="round" stroke-miterlimit="10" fill="#C57B57"/><path d="M1214.02 2209.46C1214.02 2215.53 1209.1 2220.46 1203.02 2220.46 1196.95 2220.46 1192.02 2215.53 1192.02 2209.46 1192.02 2203.38 1196.95 2198.46 1203.02 2198.46 1209.1 2198.46 1214.02 2203.38 1214.02 2209.46Z" stroke="#C57B57" stroke-width="3.4375" stroke-linejoin="round" stroke-miterlimit="10" fill="#C57B57"/><path d="M1571.02 2075.46C1571.02 2081.53 1566.1 2086.46 1560.02 2086.46 1553.95 2086.46 1549.02 2081.53 1549.02 2075.46 1549.02 2069.38 1553.95 2064.46 1560.02 2064.46 1566.1 2064.46 1571.02 2069.38 1571.02 2075.46Z" stroke="#C57B57" stroke-width="3.4375" stroke-linejoin="round" stroke-miterlimit="10" fill="#C57B57"/><path d="M1473.02 2121.46C1473.02 2127.53 1468.1 2132.46 1462.02 2132.46 1455.95 2132.46 1451.02 2127.53 1451.02 2121.46 1451.02 2115.38 1455.95 2110.46 1462.02 2110.46 1468.1 2110.46 1473.02 2115.38 1473.02 2121.46Z" stroke="#C57B57" stroke-width="3.4375" stroke-linejoin="round" stroke-miterlimit="10" fill="#C57B57"/><path d="M1649.02 1855.46C1649.02 1861.53 1644.1 1866.46 1638.02 1866.46 1631.95 1866.46 1627.02 1861.53 1627.02 1855.46 1627.02 1849.38 1631.95 1844.46 1638.02 1844.46 1644.1 1844.46 1649.02 1849.38 1649.02 1855.46Z" stroke="#C57B57" stroke-width="3.4375" stroke-linejoin="round" stroke-miterlimit="10" fill="#C57B57"/><path d="M1649.02 1919.46C1649.02 1925.53 1644.1 1930.46 1638.02 1930.46 1631.95 1930.46 1627.02 1925.53 1627.02 1919.46 1627.02 1913.38 1631.95 1908.46 1638.02 1908.46 1644.1 1908.46 1649.02 1913.38 1649.02 1919.46Z" stroke="#C57B57" stroke-width="3.4375" stroke-linejoin="round" stroke-miterlimit="10" fill="#C57B57"/><path d="M1650.02 2067.46C1650.02 2073.53 1645.1 2078.46 1639.02 2078.46 1632.95 2078.46 1628.02 2073.53 1628.02 2067.46 1628.02 2061.38 1632.95 2056.46 1639.02 2056.46 1645.1 2056.46 1650.02 2061.38 1650.02 2067.46Z" stroke="#C57B57" stroke-width="3.4375" stroke-linejoin="round" stroke-miterlimit="10" fill="#C57B57"/><path d="M1866.02 1530.46C1866.02 1536.53 1861.1 1541.46 1855.02 1541.46 1848.95 1541.46 1844.02 1536.53 1844.02 1530.46 1844.02 1524.38 1848.95 1519.46 1855.02 1519.46 1861.1 1519.46 1866.02 1524.38 1866.02 1530.46Z" stroke="#C57B57" stroke-width="3.4375" stroke-linejoin="round" stroke-miterlimit="10" fill="#C57B57"/><path d="M1274.02 2064.46C1274.02 2070.53 1269.1 2075.46 1263.02 2075.46 1256.95 2075.46 1252.02 2070.53 1252.02 2064.46 1252.02 2058.38 1256.95 2053.46 1263.02 2053.46 1269.1 2053.46 1274.02 2058.38 1274.02 2064.46Z" stroke="#C57B57" stroke-width="3.4375" stroke-linejoin="round" stroke-miterlimit="10" fill="#C57B57"/><path d="M1449.02 1972.46C1449.02 1978.53 1444.1 1983.46 1438.02 1983.46 1431.95 1983.46 1427.02 1978.53 1427.02 1972.46 1427.02 1966.38 1431.95 1961.46 1438.02 1961.46 1444.1 1961.46 1449.02 1966.38 1449.02 1972.46Z" stroke="#C57B57" stroke-width="3.4375" stroke-linejoin="round" stroke-miterlimit="10" fill="#C57B57"/><path d="M1465.02 2131.46C1465.02 2137.53 1460.1 2142.46 1454.02 2142.46 1447.95 2142.46 1443.02 2137.53 1443.02 2131.46 1443.02 2125.38 1447.95 2120.46 1454.02 2120.46 1460.1 2120.46 1465.02 2125.38 1465.02 2131.46Z" stroke="#C57B57" stroke-width="3.4375" stroke-linejoin="round" stroke-miterlimit="10" fill="#C57B57"/><path d="M1418.02 2077.46C1418.02 2083.53 1413.1 2088.46 1407.02 2088.46 1400.95 2088.46 1396.02 2083.53 1396.02 2077.46 1396.02 2071.38 1400.95 2066.46 1407.02 2066.46 1413.1 2066.46 1418.02 2071.38 1418.02 2077.46Z" stroke="#C57B57" stroke-width="3.4375" stroke-linejoin="round" stroke-miterlimit="10" fill="#C57B57"/><path d="M1316.02 2318.46C1316.02 2324.53 1311.1 2329.46 1305.02 2329.46 1298.95 2329.46 1294.02 2324.53 1294.02 2318.46 1294.02 2312.38 1298.95 2307.46 1305.02 2307.46 1311.1 2307.46 1316.02 2312.38 1316.02 2318.46Z" stroke="#C57B57" stroke-width="3.4375" stroke-linejoin="round" stroke-miterlimit="10" fill="#C57B57"/><path d="M1330.02 2129.46C1330.02 2135.53 1325.1 2140.46 1319.02 2140.46 1312.95 2140.46 1308.02 2135.53 1308.02 2129.46 1308.02 2123.38 1312.95 2118.46 1319.02 2118.46 1325.1 2118.46 1330.02 2123.38 1330.02 2129.46Z" stroke="#C57B57" stroke-width="3.4375" stroke-linejoin="round" stroke-miterlimit="10" fill="#C57B57"/><path d="M1500.02 2123.46C1500.02 2129.53 1495.1 2134.46 1489.02 2134.46 1482.95 2134.46 1478.02 2129.53 1478.02 2123.46 1478.02 2117.38 1482.95 2112.46 1489.02 2112.46 1495.1 2112.46 1500.02 2117.38 1500.02 2123.46Z" stroke="#C57B57" stroke-width="3.4375" stroke-linejoin="round" stroke-miterlimit="10" fill="#C57B57"/><path d="M948.021 2306.46C948.021 2312.53 943.096 2317.46 937.021 2317.46 930.946 2317.46 926.022 2312.53 926.022 2306.46 926.022 2300.38 930.946 2295.46 937.021 2295.46 943.096 2295.46 948.021 2300.38 948.021 2306.46Z" stroke="#C57B57" stroke-width="3.4375" stroke-linejoin="round" stroke-miterlimit="10" fill="#C57B57"/><path d="M1649.02 1990.46C1649.02 1996.53 1644.1 2001.46 1638.02 2001.46 1631.95 2001.46 1627.02 1996.53 1627.02 1990.46 1627.02 1984.38 1631.95 1979.46 1638.02 1979.46 1644.1 1979.46 1649.02 1984.38 1649.02 1990.46Z" stroke="#C57B57" stroke-width="3.4375" stroke-linejoin="round" stroke-miterlimit="10" fill="#C57B57"/><path d="M1323.02 2179.46C1323.02 2185.53 1318.1 2190.46 1312.02 2190.46 1305.95 2190.46 1301.02 2185.53 1301.02 2179.46 1301.02 2173.38 1305.95 2168.46 1312.02 2168.46 1318.1 2168.46 1323.02 2173.38 1323.02 2179.46Z" stroke="#C57B57" stroke-width="3.4375" stroke-linejoin="round" stroke-miterlimit="10" fill="#C57B57"/><path d="M989.021 2269.46C989.021 2275.53 984.097 2280.46 978.022 2280.46 971.947 2280.46 967.022 2275.53 967.022 2269.46 967.022 2263.38 971.947 2258.46 978.022 2258.46 984.097 2258.46 989.021 2263.38 989.021 2269.46Z" stroke="#C57B57" stroke-width="3.4375" stroke-linejoin="round" stroke-miterlimit="10" fill="#C57B57"/><path d="M1411.02 2163.46C1411.02 2169.53 1406.1 2174.46 1400.02 2174.46 1393.95 2174.46 1389.02 2169.53 1389.02 2163.46 1389.02 2157.38 1393.95 2152.46 1400.02 2152.46 1406.1 2152.46 1411.02 2157.38 1411.02 2163.46Z" stroke="#C57B57" stroke-width="3.4375" stroke-linejoin="round" stroke-miterlimit="10" fill="#C57B57"/><path d="M1823.02 1657.46C1823.02 1663.53 1818.1 1668.46 1812.02 1668.46 1805.95 1668.46 1801.02 1663.53 1801.02 1657.46 1801.02 1651.38 1805.95 1646.46 1812.02 1646.46 1818.1 1646.46 1823.02 1651.38 1823.02 1657.46Z" stroke="#C57B57" stroke-width="3.4375" stroke-linejoin="round" stroke-miterlimit="10" fill="#C57B57"/><path d="M1793.02 1754.46C1793.02 1760.53 1788.1 1765.46 1782.02 1765.46 1775.95 1765.46 1771.02 1760.53 1771.02 1754.46 1771.02 1748.38 1775.95 1743.46 1782.02 1743.46 1788.1 1743.46 1793.02 1748.38 1793.02 1754.46Z" stroke="#C57B57" stroke-width="3.4375" stroke-linejoin="round" stroke-miterlimit="10" fill="#C57B57"/><path d="M1666.02 1950.46C1666.02 1956.53 1661.1 1961.46 1655.02 1961.46 1648.95 1961.46 1644.02 1956.53 1644.02 1950.46 1644.02 1944.38 1648.95 1939.46 1655.02 1939.46 1661.1 1939.46 1666.02 1944.38 1666.02 1950.46Z" stroke="#C57B57" stroke-width="3.4375" stroke-linejoin="round" stroke-miterlimit="10" fill="#C57B57"/><path d="M1454.02 2100.46C1454.02 2106.53 1449.1 2111.46 1443.02 2111.46 1436.95 2111.46 1432.02 2106.53 1432.02 2100.46 1432.02 2094.38 1436.95 2089.46 1443.02 2089.46 1449.1 2089.46 1454.02 2094.38 1454.02 2100.46Z" stroke="#C57B57" stroke-width="3.4375" stroke-linejoin="round" stroke-miterlimit="10" fill="#C57B57"/><path d="M979.021 2297.46C979.021 2303.53 974.097 2308.46 968.022 2308.46 961.947 2308.46 957.022 2303.53 957.022 2297.46 957.022 2291.38 961.947 2286.46 968.022 2286.46 974.097 2286.46 979.021 2291.38 979.021 2297.46Z" stroke="#C57B57" stroke-width="3.4375" stroke-linejoin="round" stroke-miterlimit="10" fill="#C57B57"/><path d="M1339.02 2258.46C1339.02 2264.53 1334.1 2269.46 1328.02 2269.46 1321.95 2269.46 1317.02 2264.53 1317.02 2258.46 1317.02 2252.38 1321.95 2247.46 1328.02 2247.46 1334.1 2247.46 1339.02 2252.38 1339.02 2258.46Z" stroke="#C57B57" stroke-width="3.4375" stroke-linejoin="round" stroke-miterlimit="10" fill="#C57B57"/><path d="M1811.02 1801.46C1811.02 1807.53 1806.1 1812.46 1800.02 1812.46 1793.95 1812.46 1789.02 1807.53 1789.02 1801.46 1789.02 1795.38 1793.95 1790.46 1800.02 1790.46 1806.1 1790.46 1811.02 1795.38 1811.02 1801.46Z" stroke="#C57B57" stroke-width="3.4375" stroke-linejoin="round" stroke-miterlimit="10" fill="#C57B57"/><path d="M1191.02 2228.46C1191.02 2234.53 1186.1 2239.46 1180.02 2239.46 1173.95 2239.46 1169.02 2234.53 1169.02 2228.46 1169.02 2222.38 1173.95 2217.46 1180.02 2217.46 1186.1 2217.46 1191.02 2222.38 1191.02 2228.46Z" stroke="#C57B57" stroke-width="3.4375" stroke-linejoin="round" stroke-miterlimit="10" fill="#C57B57"/><path d="M1646.02 1941.46C1646.02 1947.53 1641.1 1952.46 1635.02 1952.46 1628.95 1952.46 1624.02 1947.53 1624.02 1941.46 1624.02 1935.38 1628.95 1930.46 1635.02 1930.46 1641.1 1930.46 1646.02 1935.38 1646.02 1941.46Z" stroke="#C57B57" stroke-width="3.4375" stroke-linejoin="round" stroke-miterlimit="10" fill="#C57B57"/><path d="M1824.02 1530.46C1824.02 1536.53 1819.1 1541.46 1813.02 1541.46 1806.95 1541.46 1802.02 1536.53 1802.02 1530.46 1802.02 1524.38 1806.95 1519.46 1813.02 1519.46 1819.1 1519.46 1824.02 1524.38 1824.02 1530.46Z" stroke="#C57B57" stroke-width="3.4375" stroke-linejoin="round" stroke-miterlimit="10" fill="#C57B57"/><path d="M1516.02 1997.46C1516.02 2003.53 1511.1 2008.46 1505.02 2008.46 1498.95 2008.46 1494.02 2003.53 1494.02 1997.46 1494.02 1991.38 1498.95 1986.46 1505.02 1986.46 1511.1 1986.46 1516.02 1991.38 1516.02 1997.46Z" stroke="#C57B57" stroke-width="3.4375" stroke-linejoin="round" stroke-miterlimit="10" fill="#C57B57"/><path d="M1332.02 2111.46C1332.02 2117.53 1327.1 2122.46 1321.02 2122.46 1314.95 2122.46 1310.02 2117.53 1310.02 2111.46 1310.02 2105.38 1314.95 2100.46 1321.02 2100.46 1327.1 2100.46 1332.02 2105.38 1332.02 2111.46Z" stroke="#C57B57" stroke-width="3.4375" stroke-linejoin="round" stroke-miterlimit="10" fill="#C57B57"/><path d="M1037.02 2272.46C1037.02 2278.53 1032.1 2283.46 1026.02 2283.46 1019.95 2283.46 1015.02 2278.53 1015.02 2272.46 1015.02 2266.38 1019.95 2261.46 1026.02 2261.46 1032.1 2261.46 1037.02 2266.38 1037.02 2272.46Z" stroke="#C57B57" stroke-width="3.4375" stroke-linejoin="round" stroke-miterlimit="10" fill="#C57B57"/><path d="M973.021 2231.46C973.021 2237.53 968.096 2242.46 962.021 2242.46 955.947 2242.46 951.022 2237.53 951.022 2231.46 951.022 2225.38 955.947 2220.46 962.021 2220.46 968.096 2220.46 973.021 2225.38 973.021 2231.46Z" stroke="#C57B57" stroke-width="3.4375" stroke-linejoin="round" stroke-miterlimit="10" fill="#C57B57"/><path d="M1417.02 2146.46C1417.02 2152.53 1412.1 2157.46 1406.02 2157.46 1399.95 2157.46 1395.02 2152.53 1395.02 2146.46 1395.02 2140.38 1399.95 2135.46 1406.02 2135.46 1412.1 2135.46 1417.02 2140.38 1417.02 2146.46Z" stroke="#C57B57" stroke-width="3.4375" stroke-linejoin="round" stroke-miterlimit="10" fill="#C57B57"/><path d="M1122.02 2153.46C1122.02 2159.53 1117.1 2164.46 1111.02 2164.46 1104.95 2164.46 1100.02 2159.53 1100.02 2153.46 1100.02 2147.38 1104.95 2142.46 1111.02 2142.46 1117.1 2142.46 1122.02 2147.38 1122.02 2153.46Z" stroke="#C57B57" stroke-width="3.4375" stroke-linejoin="round" stroke-miterlimit="10" fill="#C57B57"/><path d="M1238.02 2178.46C1238.02 2184.53 1233.1 2189.46 1227.02 2189.46 1220.95 2189.46 1216.02 2184.53 1216.02 2178.46 1216.02 2172.38 1220.95 2167.46 1227.02 2167.46 1233.1 2167.46 1238.02 2172.38 1238.02 2178.46Z" stroke="#C57B57" stroke-width="3.4375" stroke-linejoin="round" stroke-miterlimit="10" fill="#C57B57"/><path d="M1822.02 1879.46C1822.02 1885.53 1817.1 1890.46 1811.02 1890.46 1804.95 1890.46 1800.02 1885.53 1800.02 1879.46 1800.02 1873.38 1804.95 1868.46 1811.02 1868.46 1817.1 1868.46 1822.02 1873.38 1822.02 1879.46Z" stroke="#C57B57" stroke-width="3.4375" stroke-linejoin="round" stroke-miterlimit="10" fill="#C57B57"/><path d="M1584.02 2109.46C1584.02 2115.53 1579.1 2120.46 1573.02 2120.46 1566.95 2120.46 1562.02 2115.53 1562.02 2109.46 1562.02 2103.38 1566.95 2098.46 1573.02 2098.46 1579.1 2098.46 1584.02 2103.38 1584.02 2109.46Z" stroke="#C57B57" stroke-width="3.4375" stroke-linejoin="round" stroke-miterlimit="10" fill="#C57B57"/><path d="M1873.02 1302.46C1873.02 1308.53 1868.1 1313.46 1862.02 1313.46 1855.95 1313.46 1851.02 1308.53 1851.02 1302.46 1851.02 1296.38 1855.95 1291.46 1862.02 1291.46 1868.1 1291.46 1873.02 1296.38 1873.02 1302.46Z" stroke="#C57B57" stroke-width="3.4375" stroke-linejoin="round" stroke-miterlimit="10" fill="#C57B57"/><path d="M1184.02 2319.46C1184.02 2325.53 1179.1 2330.46 1173.02 2330.46 1166.95 2330.46 1162.02 2325.53 1162.02 2319.46 1162.02 2313.38 1166.95 2308.46 1173.02 2308.46 1179.1 2308.46 1184.02 2313.38 1184.02 2319.46Z" stroke="#C57B57" stroke-width="3.4375" stroke-linejoin="round" stroke-miterlimit="10" fill="#C57B57"/><path d="M1316.02 2247.46C1316.02 2253.53 1311.1 2258.46 1305.02 2258.46 1298.95 2258.46 1294.02 2253.53 1294.02 2247.46 1294.02 2241.38 1298.95 2236.46 1305.02 2236.46 1311.1 2236.46 1316.02 2241.38 1316.02 2247.46Z" stroke="#C57B57" stroke-width="3.4375" stroke-linejoin="round" stroke-miterlimit="10" fill="#C57B57"/><path d="M1412.02 2213.46C1412.02 2219.53 1407.1 2224.46 1401.02 2224.46 1394.95 2224.46 1390.02 2219.53 1390.02 2213.46 1390.02 2207.38 1394.95 2202.46 1401.02 2202.46 1407.1 2202.46 1412.02 2207.38 1412.02 2213.46Z" stroke="#C57B57" stroke-width="3.4375" stroke-linejoin="round" stroke-miterlimit="10" fill="#C57B57"/><path d="M1381.02 2193.46C1381.02 2199.53 1376.1 2204.46 1370.02 2204.46 1363.95 2204.46 1359.02 2199.53 1359.02 2193.46 1359.02 2187.38 1363.95 2182.46 1370.02 2182.46 1376.1 2182.46 1381.02 2187.38 1381.02 2193.46Z" stroke="#C57B57" stroke-width="3.4375" stroke-linejoin="round" stroke-miterlimit="10" fill="#C57B57"/><path d="M1905.02 1620.46C1905.02 1626.53 1900.1 1631.46 1894.02 1631.46 1887.95 1631.46 1883.02 1626.53 1883.02 1620.46 1883.02 1614.38 1887.95 1609.46 1894.02 1609.46 1900.1 1609.46 1905.02 1614.38 1905.02 1620.46Z" stroke="#C57B57" stroke-width="3.4375" stroke-linejoin="round" stroke-miterlimit="10" fill="#C57B57"/><path d="M1797.02 1556.46C1797.02 1562.53 1792.1 1567.46 1786.02 1567.46 1779.95 1567.46 1775.02 1562.53 1775.02 1556.46 1775.02 1550.38 1779.95 1545.46 1786.02 1545.46 1792.1 1545.46 1797.02 1550.38 1797.02 1556.46Z" stroke="#C57B57" stroke-width="3.4375" stroke-linejoin="round" stroke-miterlimit="10" fill="#C57B57"/><path d="M1749.02 1821.46C1749.02 1827.53 1744.1 1832.46 1738.02 1832.46 1731.95 1832.46 1727.02 1827.53 1727.02 1821.46 1727.02 1815.38 1731.95 1810.46 1738.02 1810.46 1744.1 1810.46 1749.02 1815.38 1749.02 1821.46Z" stroke="#C57B57" stroke-width="3.4375" stroke-linejoin="round" stroke-miterlimit="10" fill="#C57B57"/><path d="M1382.02 2099.46C1382.02 2105.53 1377.1 2110.46 1371.02 2110.46 1364.95 2110.46 1360.02 2105.53 1360.02 2099.46 1360.02 2093.38 1364.95 2088.46 1371.02 2088.46 1377.1 2088.46 1382.02 2093.38 1382.02 2099.46Z" stroke="#C57B57" stroke-width="3.4375" stroke-linejoin="round" stroke-miterlimit="10" fill="#C57B57"/><path d="M1776.02 1698.46C1776.02 1704.53 1771.1 1709.46 1765.02 1709.46 1758.95 1709.46 1754.02 1704.53 1754.02 1698.46 1754.02 1692.38 1758.95 1687.46 1765.02 1687.46 1771.1 1687.46 1776.02 1692.38 1776.02 1698.46Z" stroke="#C57B57" stroke-width="3.4375" stroke-linejoin="round" stroke-miterlimit="10" fill="#C57B57"/><path d="M1343.02 2173.46C1343.02 2179.53 1338.1 2184.46 1332.02 2184.46 1325.95 2184.46 1321.02 2179.53 1321.02 2173.46 1321.02 2167.38 1325.95 2162.46 1332.02 2162.46 1338.1 2162.46 1343.02 2167.38 1343.02 2173.46Z" stroke="#C57B57" stroke-width="3.4375" stroke-linejoin="round" stroke-miterlimit="10" fill="#C57B57"/><path d="M1535.02 2244.46C1535.02 2250.53 1530.1 2255.46 1524.02 2255.46 1517.95 2255.46 1513.02 2250.53 1513.02 2244.46 1513.02 2238.38 1517.95 2233.46 1524.02 2233.46 1530.1 2233.46 1535.02 2238.38 1535.02 2244.46Z" stroke="#C57B57" stroke-width="3.4375" stroke-linejoin="round" stroke-miterlimit="10" fill="#C57B57"/><path d="M1143.02 2228.46C1143.02 2234.53 1138.1 2239.46 1132.02 2239.46 1125.95 2239.46 1121.02 2234.53 1121.02 2228.46 1121.02 2222.38 1125.95 2217.46 1132.02 2217.46 1138.1 2217.46 1143.02 2222.38 1143.02 2228.46Z" stroke="#C57B57" stroke-width="3.4375" stroke-linejoin="round" stroke-miterlimit="10" fill="#C57B57"/><path d="M1139.02 2262.46C1139.02 2268.53 1134.1 2273.46 1128.02 2273.46 1121.95 2273.46 1117.02 2268.53 1117.02 2262.46 1117.02 2256.38 1121.95 2251.46 1128.02 2251.46 1134.1 2251.46 1139.02 2256.38 1139.02 2262.46Z" stroke="#C57B57" stroke-width="3.4375" stroke-linejoin="round" stroke-miterlimit="10" fill="#C57B57"/><path d="M972.021 2371.46C972.021 2377.53 967.096 2382.46 961.021 2382.46 954.947 2382.46 950.022 2377.53 950.022 2371.46 950.022 2365.38 954.947 2360.46 961.021 2360.46 967.096 2360.46 972.021 2365.38 972.021 2371.46Z" stroke="#C57B57" stroke-width="3.4375" stroke-linejoin="round" stroke-miterlimit="10" fill="#C57B57"/><path d="M1744.02 1825.46C1744.02 1831.53 1739.1 1836.46 1733.02 1836.46 1726.95 1836.46 1722.02 1831.53 1722.02 1825.46 1722.02 1819.38 1726.95 1814.46 1733.02 1814.46 1739.1 1814.46 1744.02 1819.38 1744.02 1825.46Z" stroke="#C57B57" stroke-width="3.4375" stroke-linejoin="round" stroke-miterlimit="10" fill="#C57B57"/><path d="M1321.02 2297.46C1321.02 2303.53 1316.1 2308.46 1310.02 2308.46 1303.95 2308.46 1299.02 2303.53 1299.02 2297.46 1299.02 2291.38 1303.95 2286.46 1310.02 2286.46 1316.1 2286.46 1321.02 2291.38 1321.02 2297.46Z" stroke="#C57B57" stroke-width="3.4375" stroke-linejoin="round" stroke-miterlimit="10" fill="#C57B57"/><path d="M1725.02 2039.46C1725.02 2045.53 1720.1 2050.46 1714.02 2050.46 1707.95 2050.46 1703.02 2045.53 1703.02 2039.46 1703.02 2033.38 1707.95 2028.46 1714.02 2028.46 1720.1 2028.46 1725.02 2033.38 1725.02 2039.46Z" stroke="#C57B57" stroke-width="3.4375" stroke-linejoin="round" stroke-miterlimit="10" fill="#C57B57"/><path d="M1093.02 2347.46C1093.02 2353.53 1088.1 2358.46 1082.02 2358.46 1075.95 2358.46 1071.02 2353.53 1071.02 2347.46 1071.02 2341.38 1075.95 2336.46 1082.02 2336.46 1088.1 2336.46 1093.02 2341.38 1093.02 2347.46Z" stroke="#C57B57" stroke-width="3.4375" stroke-linejoin="round" stroke-miterlimit="10" fill="#C57B57"/><path d="M1233.02 2252.46C1233.02 2258.53 1228.1 2263.46 1222.02 2263.46 1215.95 2263.46 1211.02 2258.53 1211.02 2252.46 1211.02 2246.38 1215.95 2241.46 1222.02 2241.46 1228.1 2241.46 1233.02 2246.38 1233.02 2252.46Z" stroke="#C57B57" stroke-width="3.4375" stroke-linejoin="round" stroke-miterlimit="10" fill="#C57B57"/><path d="M1599.02 2032.46C1599.02 2038.53 1594.1 2043.46 1588.02 2043.46 1581.95 2043.46 1577.02 2038.53 1577.02 2032.46 1577.02 2026.38 1581.95 2021.46 1588.02 2021.46 1594.1 2021.46 1599.02 2026.38 1599.02 2032.46Z" stroke="#C57B57" stroke-width="3.4375" stroke-linejoin="round" stroke-miterlimit="10" fill="#C57B57"/><path d="M1464.02 2154.46C1464.02 2160.53 1459.1 2165.46 1453.02 2165.46 1446.95 2165.46 1442.02 2160.53 1442.02 2154.46 1442.02 2148.38 1446.95 2143.46 1453.02 2143.46 1459.1 2143.46 1464.02 2148.38 1464.02 2154.46Z" stroke="#C57B57" stroke-width="3.4375" stroke-linejoin="round" stroke-miterlimit="10" fill="#C57B57"/><path d="M1085.02 2236.46C1085.02 2242.53 1080.1 2247.46 1074.02 2247.46 1067.95 2247.46 1063.02 2242.53 1063.02 2236.46 1063.02 2230.38 1067.95 2225.46 1074.02 2225.46 1080.1 2225.46 1085.02 2230.38 1085.02 2236.46Z" stroke="#C57B57" stroke-width="3.4375" stroke-linejoin="round" stroke-miterlimit="10" fill="#C57B57"/><path d="M951.021 2208.46C951.021 2214.53 946.096 2219.46 940.021 2219.46 933.947 2219.46 929.022 2214.53 929.022 2208.46 929.022 2202.38 933.947 2197.46 940.021 2197.46 946.096 2197.46 951.021 2202.38 951.021 2208.46Z" stroke="#C57B57" stroke-width="3.4375" stroke-linejoin="round" stroke-miterlimit="10" fill="#C57B57"/><path d="M1513.02 2200.46C1513.02 2206.53 1508.1 2211.46 1502.02 2211.46 1495.95 2211.46 1491.02 2206.53 1491.02 2200.46 1491.02 2194.38 1495.95 2189.46 1502.02 2189.46 1508.1 2189.46 1513.02 2194.38 1513.02 2200.46Z" stroke="#C57B57" stroke-width="3.4375" stroke-linejoin="round" stroke-miterlimit="10" fill="#C57B57"/><path d="M2092.02 1371.46C2092.02 1377.53 2087.1 1382.46 2081.02 1382.46 2074.95 1382.46 2070.02 1377.53 2070.02 1371.46 2070.02 1365.38 2074.95 1360.46 2081.02 1360.46 2087.1 1360.46 2092.02 1365.38 2092.02 1371.46Z" stroke="#C57B57" stroke-width="3.4375" stroke-linejoin="round" stroke-miterlimit="10" fill="#C57B57"/><path d="M1610.02 2097.46C1610.02 2103.53 1605.1 2108.46 1599.02 2108.46 1592.95 2108.46 1588.02 2103.53 1588.02 2097.46 1588.02 2091.38 1592.95 2086.46 1599.02 2086.46 1605.1 2086.46 1610.02 2091.38 1610.02 2097.46Z" stroke="#C57B57" stroke-width="3.4375" stroke-linejoin="round" stroke-miterlimit="10" fill="#C57B57"/><path d="M1997.02 1624.46C1997.02 1630.53 1992.1 1635.46 1986.02 1635.46 1979.95 1635.46 1975.02 1630.53 1975.02 1624.46 1975.02 1618.38 1979.95 1613.46 1986.02 1613.46 1992.1 1613.46 1997.02 1618.38 1997.02 1624.46Z" stroke="#C57B57" stroke-width="3.4375" stroke-linejoin="round" stroke-miterlimit="10" fill="#C57B57"/><path d="M1935.02 2003.46C1935.02 2009.53 1930.1 2014.46 1924.02 2014.46 1917.95 2014.46 1913.02 2009.53 1913.02 2003.46 1913.02 1997.38 1917.95 1992.46 1924.02 1992.46 1930.1 1992.46 1935.02 1997.38 1935.02 2003.46Z" stroke="#C57B57" stroke-width="3.4375" stroke-linejoin="round" stroke-miterlimit="10" fill="#C57B57"/><path d="M913.021 2310.46C913.021 2316.53 908.097 2321.46 902.022 2321.46 895.947 2321.46 891.022 2316.53 891.022 2310.46 891.022 2304.38 895.947 2299.46 902.022 2299.46 908.097 2299.46 913.021 2304.38 913.021 2310.46Z" stroke="#C57B57" stroke-width="3.4375" stroke-linejoin="round" stroke-miterlimit="10" fill="#C57B57"/><path d="M942.021 2290.46C942.021 2296.53 937.096 2301.46 931.021 2301.46 924.947 2301.46 920.022 2296.53 920.022 2290.46 920.022 2284.38 924.947 2279.46 931.021 2279.46 937.096 2279.46 942.021 2284.38 942.021 2290.46Z" stroke="#C57B57" stroke-width="3.4375" stroke-linejoin="round" stroke-miterlimit="10" fill="#C57B57"/><path d="M1535.02 2229.46C1535.02 2235.53 1530.1 2240.46 1524.02 2240.46 1517.95 2240.46 1513.02 2235.53 1513.02 2229.46 1513.02 2223.38 1517.95 2218.46 1524.02 2218.46 1530.1 2218.46 1535.02 2223.38 1535.02 2229.46Z" stroke="#C57B57" stroke-width="3.4375" stroke-linejoin="round" stroke-miterlimit="10" fill="#C57B57"/><path d="M1510.02 2023.46C1510.02 2029.53 1505.1 2034.46 1499.02 2034.46 1492.95 2034.46 1488.02 2029.53 1488.02 2023.46 1488.02 2017.38 1492.95 2012.46 1499.02 2012.46 1505.1 2012.46 1510.02 2017.38 1510.02 2023.46Z" stroke="#C57B57" stroke-width="3.4375" stroke-linejoin="round" stroke-miterlimit="10" fill="#C57B57"/><path d="M1021.02 2272.46C1021.02 2278.53 1016.1 2283.46 1010.02 2283.46 1003.95 2283.46 999.022 2278.53 999.022 2272.46 999.022 2266.38 1003.95 2261.46 1010.02 2261.46 1016.1 2261.46 1021.02 2266.38 1021.02 2272.46Z" stroke="#C57B57" stroke-width="3.4375" stroke-linejoin="round" stroke-miterlimit="10" fill="#C57B57"/><path d="M1735.02 1959.46C1735.02 1965.53 1730.1 1970.46 1724.02 1970.46 1717.95 1970.46 1713.02 1965.53 1713.02 1959.46 1713.02 1953.38 1717.95 1948.46 1724.02 1948.46 1730.1 1948.46 1735.02 1953.38 1735.02 1959.46Z" stroke="#C57B57" stroke-width="3.4375" stroke-linejoin="round" stroke-miterlimit="10" fill="#C57B57"/><path d="M1251.02 2199.46C1251.02 2205.53 1246.1 2210.46 1240.02 2210.46 1233.95 2210.46 1229.02 2205.53 1229.02 2199.46 1229.02 2193.38 1233.95 2188.46 1240.02 2188.46 1246.1 2188.46 1251.02 2193.38 1251.02 2199.46Z" stroke="#C57B57" stroke-width="3.4375" stroke-linejoin="round" stroke-miterlimit="10" fill="#C57B57"/><path d="M1143.02 2276.46C1143.02 2282.53 1138.1 2287.46 1132.02 2287.46 1125.95 2287.46 1121.02 2282.53 1121.02 2276.46 1121.02 2270.38 1125.95 2265.46 1132.02 2265.46 1138.1 2265.46 1143.02 2270.38 1143.02 2276.46Z" stroke="#C57B57" stroke-width="3.4375" stroke-linejoin="round" stroke-miterlimit="10" fill="#C57B57"/><path d="M1521.02 2123.46C1521.02 2129.53 1516.1 2134.46 1510.02 2134.46 1503.95 2134.46 1499.02 2129.53 1499.02 2123.46 1499.02 2117.38 1503.95 2112.46 1510.02 2112.46 1516.1 2112.46 1521.02 2117.38 1521.02 2123.46Z" stroke="#C57B57" stroke-width="3.4375" stroke-linejoin="round" stroke-miterlimit="10" fill="#C57B57"/><path d="M1518.02 2124.46C1518.02 2130.53 1513.1 2135.46 1507.02 2135.46 1500.95 2135.46 1496.02 2130.53 1496.02 2124.46 1496.02 2118.38 1500.95 2113.46 1507.02 2113.46 1513.1 2113.46 1518.02 2118.38 1518.02 2124.46Z" stroke="#C57B57" stroke-width="3.4375" stroke-linejoin="round" stroke-miterlimit="10" fill="#C57B57"/><path d="M1276.02 2215.46C1276.02 2221.53 1271.1 2226.46 1265.02 2226.46 1258.95 2226.46 1254.02 2221.53 1254.02 2215.46 1254.02 2209.38 1258.95 2204.46 1265.02 2204.46 1271.1 2204.46 1276.02 2209.38 1276.02 2215.46Z" stroke="#C57B57" stroke-width="3.4375" stroke-linejoin="round" stroke-miterlimit="10" fill="#C57B57"/><path d="M1208.02 2278.46C1208.02 2284.53 1203.1 2289.46 1197.02 2289.46 1190.95 2289.46 1186.02 2284.53 1186.02 2278.46 1186.02 2272.38 1190.95 2267.46 1197.02 2267.46 1203.1 2267.46 1208.02 2272.38 1208.02 2278.46Z" stroke="#C57B57" stroke-width="3.4375" stroke-linejoin="round" stroke-miterlimit="10" fill="#C57B57"/><path d="M2124.02 1754.46C2124.02 1760.53 2119.1 1765.46 2113.02 1765.46 2106.95 1765.46 2102.02 1760.53 2102.02 1754.46 2102.02 1748.38 2106.95 1743.46 2113.02 1743.46 2119.1 1743.46 2124.02 1748.38 2124.02 1754.46Z" stroke="#C57B57" stroke-width="3.4375" stroke-linejoin="round" stroke-miterlimit="10" fill="#C57B57"/><path d="M1339.02 2267.46C1339.02 2273.53 1334.1 2278.46 1328.02 2278.46 1321.95 2278.46 1317.02 2273.53 1317.02 2267.46 1317.02 2261.38 1321.95 2256.46 1328.02 2256.46 1334.1 2256.46 1339.02 2261.38 1339.02 2267.46Z" stroke="#C57B57" stroke-width="3.4375" stroke-linejoin="round" stroke-miterlimit="10" fill="#C57B57"/><path d="M1449.02 2166.46C1449.02 2172.53 1444.1 2177.46 1438.02 2177.46 1431.95 2177.46 1427.02 2172.53 1427.02 2166.46 1427.02 2160.38 1431.95 2155.46 1438.02 2155.46 1444.1 2155.46 1449.02 2160.38 1449.02 2166.46Z" stroke="#C57B57" stroke-width="3.4375" stroke-linejoin="round" stroke-miterlimit="10" fill="#C57B57"/><path d="M1549.02 1893.46C1549.02 1899.53 1544.1 1904.46 1538.02 1904.46 1531.95 1904.46 1527.02 1899.53 1527.02 1893.46 1527.02 1887.38 1531.95 1882.46 1538.02 1882.46 1544.1 1882.46 1549.02 1887.38 1549.02 1893.46Z" stroke="#C57B57" stroke-width="3.4375" stroke-linejoin="round" stroke-miterlimit="10" fill="#C57B57"/><path d="M1287.02 2193.46C1287.02 2199.53 1282.1 2204.46 1276.02 2204.46 1269.95 2204.46 1265.02 2199.53 1265.02 2193.46 1265.02 2187.38 1269.95 2182.46 1276.02 2182.46 1282.1 2182.46 1287.02 2187.38 1287.02 2193.46Z" stroke="#C57B57" stroke-width="3.4375" stroke-linejoin="round" stroke-miterlimit="10" fill="#C57B57"/><path d="M958.021 2278.46C958.021 2284.53 953.096 2289.46 947.021 2289.46 940.946 2289.46 936.022 2284.53 936.022 2278.46 936.022 2272.38 940.946 2267.46 947.021 2267.46 953.096 2267.46 958.021 2272.38 958.021 2278.46Z" stroke="#C57B57" stroke-width="3.4375" stroke-linejoin="round" stroke-miterlimit="10" fill="#C57B57"/><path d="M1120.02 2330.46C1120.02 2336.53 1115.1 2341.46 1109.02 2341.46 1102.95 2341.46 1098.02 2336.53 1098.02 2330.46 1098.02 2324.38 1102.95 2319.46 1109.02 2319.46 1115.1 2319.46 1120.02 2324.38 1120.02 2330.46Z" stroke="#C57B57" stroke-width="3.4375" stroke-linejoin="round" stroke-miterlimit="10" fill="#C57B57"/><path d="M1369.02 2127.46C1369.02 2133.53 1364.1 2138.46 1358.02 2138.46 1351.95 2138.46 1347.02 2133.53 1347.02 2127.46 1347.02 2121.38 1351.95 2116.46 1358.02 2116.46 1364.1 2116.46 1369.02 2121.38 1369.02 2127.46Z" stroke="#C57B57" stroke-width="3.4375" stroke-linejoin="round" stroke-miterlimit="10" fill="#C57B57"/><path d="M1550.02 2055.46C1550.02 2061.53 1545.1 2066.46 1539.02 2066.46 1532.95 2066.46 1528.02 2061.53 1528.02 2055.46 1528.02 2049.38 1532.95 2044.46 1539.02 2044.46 1545.1 2044.46 1550.02 2049.38 1550.02 2055.46Z" stroke="#C57B57" stroke-width="3.4375" stroke-linejoin="round" stroke-miterlimit="10" fill="#C57B57"/><path d="M1048.02 2325.46C1048.02 2331.53 1043.1 2336.46 1037.02 2336.46 1030.95 2336.46 1026.02 2331.53 1026.02 2325.46 1026.02 2319.38 1030.95 2314.46 1037.02 2314.46 1043.1 2314.46 1048.02 2319.38 1048.02 2325.46Z" stroke="#C57B57" stroke-width="3.4375" stroke-linejoin="round" stroke-miterlimit="10" fill="#C57B57"/><path d="M1832.02 1740.46C1832.02 1746.53 1827.1 1751.46 1821.02 1751.46 1814.95 1751.46 1810.02 1746.53 1810.02 1740.46 1810.02 1734.38 1814.95 1729.46 1821.02 1729.46 1827.1 1729.46 1832.02 1734.38 1832.02 1740.46Z" stroke="#C57B57" stroke-width="3.4375" stroke-linejoin="round" stroke-miterlimit="10" fill="#C57B57"/><path d="M1754.02 1796.46C1754.02 1802.53 1749.1 1807.46 1743.02 1807.46 1736.95 1807.46 1732.02 1802.53 1732.02 1796.46 1732.02 1790.38 1736.95 1785.46 1743.02 1785.46 1749.1 1785.46 1754.02 1790.38 1754.02 1796.46Z" stroke="#C57B57" stroke-width="3.4375" stroke-linejoin="round" stroke-miterlimit="10" fill="#C57B57"/><path d="M1804.02 1601.46C1804.02 1607.53 1799.1 1612.46 1793.02 1612.46 1786.95 1612.46 1782.02 1607.53 1782.02 1601.46 1782.02 1595.38 1786.95 1590.46 1793.02 1590.46 1799.1 1590.46 1804.02 1595.38 1804.02 1601.46Z" stroke="#C57B57" stroke-width="3.4375" stroke-linejoin="round" stroke-miterlimit="10" fill="#C57B57"/><path d="M1217.02 2245.46C1217.02 2251.53 1212.1 2256.46 1206.02 2256.46 1199.95 2256.46 1195.02 2251.53 1195.02 2245.46 1195.02 2239.38 1199.95 2234.46 1206.02 2234.46 1212.1 2234.46 1217.02 2239.38 1217.02 2245.46Z" stroke="#C57B57" stroke-width="3.4375" stroke-linejoin="round" stroke-miterlimit="10" fill="#C57B57"/><path d="M921.021 2212.46C921.021 2218.53 916.096 2223.46 910.022 2223.46 903.947 2223.46 899.022 2218.53 899.022 2212.46 899.022 2206.38 903.947 2201.46 910.022 2201.46 916.096 2201.46 921.021 2206.38 921.021 2212.46Z" stroke="#C57B57" stroke-width="3.4375" stroke-linejoin="round" stroke-miterlimit="10" fill="#C57B57"/><path d="M1249.02 2260.46C1249.02 2266.53 1244.1 2271.46 1238.02 2271.46 1231.95 2271.46 1227.02 2266.53 1227.02 2260.46 1227.02 2254.38 1231.95 2249.46 1238.02 2249.46 1244.1 2249.46 1249.02 2254.38 1249.02 2260.46Z" stroke="#C57B57" stroke-width="3.4375" stroke-linejoin="round" stroke-miterlimit="10" fill="#C57B57"/><path d="M1384.02 2224.46C1384.02 2230.53 1379.1 2235.46 1373.02 2235.46 1366.95 2235.46 1362.02 2230.53 1362.02 2224.46 1362.02 2218.38 1366.95 2213.46 1373.02 2213.46 1379.1 2213.46 1384.02 2218.38 1384.02 2224.46Z" stroke="#C57B57" stroke-width="3.4375" stroke-linejoin="round" stroke-miterlimit="10" fill="#C57B57"/><path d="M1925.02 1440.46C1925.02 1446.53 1920.1 1451.46 1914.02 1451.46 1907.95 1451.46 1903.02 1446.53 1903.02 1440.46 1903.02 1434.38 1907.95 1429.46 1914.02 1429.46 1920.1 1429.46 1925.02 1434.38 1925.02 1440.46Z" stroke="#C57B57" stroke-width="3.4375" stroke-linejoin="round" stroke-miterlimit="10" fill="#C57B57"/><path d="M1608.02 2098.46C1608.02 2104.53 1603.1 2109.46 1597.02 2109.46 1590.95 2109.46 1586.02 2104.53 1586.02 2098.46 1586.02 2092.38 1590.95 2087.46 1597.02 2087.46 1603.1 2087.46 1608.02 2092.38 1608.02 2098.46Z" stroke="#C57B57" stroke-width="3.4375" stroke-linejoin="round" stroke-miterlimit="10" fill="#C57B57"/><path d="M1132.02 2304.46C1132.02 2310.53 1127.1 2315.46 1121.02 2315.46 1114.95 2315.46 1110.02 2310.53 1110.02 2304.46 1110.02 2298.38 1114.95 2293.46 1121.02 2293.46 1127.1 2293.46 1132.02 2298.38 1132.02 2304.46Z" stroke="#C57B57" stroke-width="3.4375" stroke-linejoin="round" stroke-miterlimit="10" fill="#C57B57"/><path d="M1570.02 2032.46C1570.02 2038.53 1565.1 2043.46 1559.02 2043.46 1552.95 2043.46 1548.02 2038.53 1548.02 2032.46 1548.02 2026.38 1552.95 2021.46 1559.02 2021.46 1565.1 2021.46 1570.02 2026.38 1570.02 2032.46Z" stroke="#C57B57" stroke-width="3.4375" stroke-linejoin="round" stroke-miterlimit="10" fill="#C57B57"/><path d="M1296.02 2078.46C1296.02 2084.53 1291.1 2089.46 1285.02 2089.46 1278.95 2089.46 1274.02 2084.53 1274.02 2078.46 1274.02 2072.38 1278.95 2067.46 1285.02 2067.46 1291.1 2067.46 1296.02 2072.38 1296.02 2078.46Z" stroke="#C57B57" stroke-width="3.4375" stroke-linejoin="round" stroke-miterlimit="10" fill="#C57B57"/><path d="M1597.02 2136.46C1597.02 2142.53 1592.1 2147.46 1586.02 2147.46 1579.95 2147.46 1575.02 2142.53 1575.02 2136.46 1575.02 2130.38 1579.95 2125.46 1586.02 2125.46 1592.1 2125.46 1597.02 2130.38 1597.02 2136.46Z" stroke="#C57B57" stroke-width="3.4375" stroke-linejoin="round" stroke-miterlimit="10" fill="#C57B57"/><path d="M1267.02 2225.46C1267.02 2231.53 1262.1 2236.46 1256.02 2236.46 1249.95 2236.46 1245.02 2231.53 1245.02 2225.46 1245.02 2219.38 1249.95 2214.46 1256.02 2214.46 1262.1 2214.46 1267.02 2219.38 1267.02 2225.46Z" stroke="#C57B57" stroke-width="3.4375" stroke-linejoin="round" stroke-miterlimit="10" fill="#C57B57"/><path d="M1411.02 2181.46C1411.02 2187.53 1406.1 2192.46 1400.02 2192.46 1393.95 2192.46 1389.02 2187.53 1389.02 2181.46 1389.02 2175.38 1393.95 2170.46 1400.02 2170.46 1406.1 2170.46 1411.02 2175.38 1411.02 2181.46Z" stroke="#C57B57" stroke-width="3.4375" stroke-linejoin="round" stroke-miterlimit="10" fill="#C57B57"/><path d="M1433.02 2072.46C1433.02 2078.53 1428.1 2083.46 1422.02 2083.46 1415.95 2083.46 1411.02 2078.53 1411.02 2072.46 1411.02 2066.38 1415.95 2061.46 1422.02 2061.46 1428.1 2061.46 1433.02 2066.38 1433.02 2072.46Z" stroke="#C57B57" stroke-width="3.4375" stroke-linejoin="round" stroke-miterlimit="10" fill="#C57B57"/><path d="M1302.02 2244.46C1302.02 2250.53 1297.1 2255.46 1291.02 2255.46 1284.95 2255.46 1280.02 2250.53 1280.02 2244.46 1280.02 2238.38 1284.95 2233.46 1291.02 2233.46 1297.1 2233.46 1302.02 2238.38 1302.02 2244.46Z" stroke="#C57B57" stroke-width="3.4375" stroke-linejoin="round" stroke-miterlimit="10" fill="#C57B57"/><path d="M1583.02 2152.46C1583.02 2158.53 1578.1 2163.46 1572.02 2163.46 1565.95 2163.46 1561.02 2158.53 1561.02 2152.46 1561.02 2146.38 1565.95 2141.46 1572.02 2141.46 1578.1 2141.46 1583.02 2146.38 1583.02 2152.46Z" stroke="#C57B57" stroke-width="3.4375" stroke-linejoin="round" stroke-miterlimit="10" fill="#C57B57"/><path d="M1665.02 1930.46C1665.02 1936.53 1660.1 1941.46 1654.02 1941.46 1647.95 1941.46 1643.02 1936.53 1643.02 1930.46 1643.02 1924.38 1647.95 1919.46 1654.02 1919.46 1660.1 1919.46 1665.02 1924.38 1665.02 1930.46Z" stroke="#C57B57" stroke-width="3.4375" stroke-linejoin="round" stroke-miterlimit="10" fill="#C57B57"/><path d="M1750.02 1787.46C1750.02 1793.53 1745.1 1798.46 1739.02 1798.46 1732.95 1798.46 1728.02 1793.53 1728.02 1787.46 1728.02 1781.38 1732.95 1776.46 1739.02 1776.46 1745.1 1776.46 1750.02 1781.38 1750.02 1787.46Z" stroke="#C57B57" stroke-width="3.4375" stroke-linejoin="round" stroke-miterlimit="10" fill="#C57B57"/><path d="M1881.02 1886.46C1881.02 1892.53 1876.1 1897.46 1870.02 1897.46 1863.95 1897.46 1859.02 1892.53 1859.02 1886.46 1859.02 1880.38 1863.95 1875.46 1870.02 1875.46 1876.1 1875.46 1881.02 1880.38 1881.02 1886.46Z" stroke="#C57B57" stroke-width="3.4375" stroke-linejoin="round" stroke-miterlimit="10" fill="#C57B57"/><path d="M1524.02 2190.46C1524.02 2196.53 1519.1 2201.46 1513.02 2201.46 1506.95 2201.46 1502.02 2196.53 1502.02 2190.46 1502.02 2184.38 1506.95 2179.46 1513.02 2179.46 1519.1 2179.46 1524.02 2184.38 1524.02 2190.46Z" stroke="#C57B57" stroke-width="3.4375" stroke-linejoin="round" stroke-miterlimit="10" fill="#C57B57"/><path d="M1512.02 2202.46C1512.02 2208.53 1507.1 2213.46 1501.02 2213.46 1494.95 2213.46 1490.02 2208.53 1490.02 2202.46 1490.02 2196.38 1494.95 2191.46 1501.02 2191.46 1507.1 2191.46 1512.02 2196.38 1512.02 2202.46Z" stroke="#C57B57" stroke-width="3.4375" stroke-linejoin="round" stroke-miterlimit="10" fill="#C57B57"/><path d="M1012.02 2271.46C1012.02 2277.53 1007.1 2282.46 1001.02 2282.46 994.947 2282.46 990.022 2277.53 990.022 2271.46 990.022 2265.38 994.947 2260.46 1001.02 2260.46 1007.1 2260.46 1012.02 2265.38 1012.02 2271.46Z" stroke="#C57B57" stroke-width="3.4375" stroke-linejoin="round" stroke-miterlimit="10" fill="#C57B57"/><path d="M1635.02 1754.46C1635.02 1760.53 1630.1 1765.46 1624.02 1765.46 1617.95 1765.46 1613.02 1760.53 1613.02 1754.46 1613.02 1748.38 1617.95 1743.46 1624.02 1743.46 1630.1 1743.46 1635.02 1748.38 1635.02 1754.46Z" stroke="#C57B57" stroke-width="3.4375" stroke-linejoin="round" stroke-miterlimit="10" fill="#C57B57"/><path d="M1535.02 1906.46C1535.02 1912.53 1530.1 1917.46 1524.02 1917.46 1517.95 1917.46 1513.02 1912.53 1513.02 1906.46 1513.02 1900.38 1517.95 1895.46 1524.02 1895.46 1530.1 1895.46 1535.02 1900.38 1535.02 1906.46Z" stroke="#C57B57" stroke-width="3.4375" stroke-linejoin="round" stroke-miterlimit="10" fill="#C57B57"/><path d="M1452.02 1994.46C1452.02 2000.53 1447.1 2005.46 1441.02 2005.46 1434.95 2005.46 1430.02 2000.53 1430.02 1994.46 1430.02 1988.38 1434.95 1983.46 1441.02 1983.46 1447.1 1983.46 1452.02 1988.38 1452.02 1994.46Z" stroke="#C57B57" stroke-width="3.4375" stroke-linejoin="round" stroke-miterlimit="10" fill="#C57B57"/><path d="M1345.02 2176.46C1345.02 2182.53 1340.1 2187.46 1334.02 2187.46 1327.95 2187.46 1323.02 2182.53 1323.02 2176.46 1323.02 2170.38 1327.95 2165.46 1334.02 2165.46 1340.1 2165.46 1345.02 2170.38 1345.02 2176.46Z" stroke="#C57B57" stroke-width="3.4375" stroke-linejoin="round" stroke-miterlimit="10" fill="#C57B57"/><path d="M1816.02 1918.46C1816.02 1924.53 1811.1 1929.46 1805.02 1929.46 1798.95 1929.46 1794.02 1924.53 1794.02 1918.46 1794.02 1912.38 1798.95 1907.46 1805.02 1907.46 1811.1 1907.46 1816.02 1912.38 1816.02 1918.46Z" stroke="#C57B57" stroke-width="3.4375" stroke-linejoin="round" stroke-miterlimit="10" fill="#C57B57"/><path d="M1162.02 2147.46C1162.02 2153.53 1157.1 2158.46 1151.02 2158.46 1144.95 2158.46 1140.02 2153.53 1140.02 2147.46 1140.02 2141.38 1144.95 2136.46 1151.02 2136.46 1157.1 2136.46 1162.02 2141.38 1162.02 2147.46Z" stroke="#C57B57" stroke-width="3.4375" stroke-linejoin="round" stroke-miterlimit="10" fill="#C57B57"/><path d="M1659.02 2178.46C1659.02 2184.53 1654.1 2189.46 1648.02 2189.46 1641.95 2189.46 1637.02 2184.53 1637.02 2178.46 1637.02 2172.38 1641.95 2167.46 1648.02 2167.46 1654.1 2167.46 1659.02 2172.38 1659.02 2178.46Z" stroke="#C57B57" stroke-width="3.4375" stroke-linejoin="round" stroke-miterlimit="10" fill="#C57B57"/><path d="M1115.02 2222.46C1115.02 2228.53 1110.1 2233.46 1104.02 2233.46 1097.95 2233.46 1093.02 2228.53 1093.02 2222.46 1093.02 2216.38 1097.95 2211.46 1104.02 2211.46 1110.1 2211.46 1115.02 2216.38 1115.02 2222.46Z" stroke="#C57B57" stroke-width="3.4375" stroke-linejoin="round" stroke-miterlimit="10" fill="#C57B57"/><path d="M1419.02 2189.46C1419.02 2195.53 1414.1 2200.46 1408.02 2200.46 1401.95 2200.46 1397.02 2195.53 1397.02 2189.46 1397.02 2183.38 1401.95 2178.46 1408.02 2178.46 1414.1 2178.46 1419.02 2183.38 1419.02 2189.46Z" stroke="#C57B57" stroke-width="3.4375" stroke-linejoin="round" stroke-miterlimit="10" fill="#C57B57"/><path d="M1611.02 2001.46C1611.02 2007.53 1606.1 2012.46 1600.02 2012.46 1593.95 2012.46 1589.02 2007.53 1589.02 2001.46 1589.02 1995.38 1593.95 1990.46 1600.02 1990.46 1606.1 1990.46 1611.02 1995.38 1611.02 2001.46Z" stroke="#C57B57" stroke-width="3.4375" stroke-linejoin="round" stroke-miterlimit="10" fill="#C57B57"/><path d="M967.021 2328.46C967.021 2334.53 962.097 2339.46 956.022 2339.46 949.947 2339.46 945.022 2334.53 945.022 2328.46 945.022 2322.38 949.947 2317.46 956.022 2317.46 962.097 2317.46 967.021 2322.38 967.021 2328.46Z" stroke="#C57B57" stroke-width="3.4375" stroke-linejoin="round" stroke-miterlimit="10" fill="#C57B57"/><path d="M1874.02 1895.46C1874.02 1901.53 1869.1 1906.46 1863.02 1906.46 1856.95 1906.46 1852.02 1901.53 1852.02 1895.46 1852.02 1889.38 1856.95 1884.46 1863.02 1884.46 1869.1 1884.46 1874.02 1889.38 1874.02 1895.46Z" stroke="#C57B57" stroke-width="3.4375" stroke-linejoin="round" stroke-miterlimit="10" fill="#C57B57"/><path d="M1690.02 1852.46C1690.02 1858.53 1685.1 1863.46 1679.02 1863.46 1672.95 1863.46 1668.02 1858.53 1668.02 1852.46 1668.02 1846.38 1672.95 1841.46 1679.02 1841.46 1685.1 1841.46 1690.02 1846.38 1690.02 1852.46Z" stroke="#C57B57" stroke-width="3.4375" stroke-linejoin="round" stroke-miterlimit="10" fill="#C57B57"/><path d="M1628.02 2007.46C1628.02 2013.53 1623.1 2018.46 1617.02 2018.46 1610.95 2018.46 1606.02 2013.53 1606.02 2007.46 1606.02 2001.38 1610.95 1996.46 1617.02 1996.46 1623.1 1996.46 1628.02 2001.38 1628.02 2007.46Z" stroke="#C57B57" stroke-width="3.4375" stroke-linejoin="round" stroke-miterlimit="10" fill="#C57B57"/><path d="M1683.02 1948.46C1683.02 1954.53 1678.1 1959.46 1672.02 1959.46 1665.95 1959.46 1661.02 1954.53 1661.02 1948.46 1661.02 1942.38 1665.95 1937.46 1672.02 1937.46 1678.1 1937.46 1683.02 1942.38 1683.02 1948.46Z" stroke="#C57B57" stroke-width="3.4375" stroke-linejoin="round" stroke-miterlimit="10" fill="#C57B57"/><path d="M1226.02 2230.46C1226.02 2236.53 1221.1 2241.46 1215.02 2241.46 1208.95 2241.46 1204.02 2236.53 1204.02 2230.46 1204.02 2224.38 1208.95 2219.46 1215.02 2219.46 1221.1 2219.46 1226.02 2224.38 1226.02 2230.46Z" stroke="#C57B57" stroke-width="3.4375" stroke-linejoin="round" stroke-miterlimit="10" fill="#C57B57"/><path d="M608.021 2348.46C608.021 2354.53 603.096 2359.46 597.021 2359.46 590.946 2359.46 586.022 2354.53 586.022 2348.46 586.022 2342.38 590.946 2337.46 597.021 2337.46 603.096 2337.46 608.021 2342.38 608.021 2348.46Z" stroke="#C57B57" stroke-width="3.4375" stroke-linejoin="round" stroke-miterlimit="10" fill="#C57B57"/><path d="M1408.02 2150.46C1408.02 2156.53 1403.1 2161.46 1397.02 2161.46 1390.95 2161.46 1386.02 2156.53 1386.02 2150.46 1386.02 2144.38 1390.95 2139.46 1397.02 2139.46 1403.1 2139.46 1408.02 2144.38 1408.02 2150.46Z" stroke="#C57B57" stroke-width="3.4375" stroke-linejoin="round" stroke-miterlimit="10" fill="#C57B57"/><path d="M927.021 2322.46C927.021 2328.53 922.096 2333.46 916.021 2333.46 909.946 2333.46 905.022 2328.53 905.022 2322.46 905.022 2316.38 909.946 2311.46 916.021 2311.46 922.096 2311.46 927.021 2316.38 927.021 2322.46Z" stroke="#C57B57" stroke-width="3.4375" stroke-linejoin="round" stroke-miterlimit="10" fill="#C57B57"/><path d="M1721.02 1885.46C1721.02 1891.53 1716.1 1896.46 1710.02 1896.46 1703.95 1896.46 1699.02 1891.53 1699.02 1885.46 1699.02 1879.38 1703.95 1874.46 1710.02 1874.46 1716.1 1874.46 1721.02 1879.38 1721.02 1885.46Z" stroke="#C57B57" stroke-width="3.4375" stroke-linejoin="round" stroke-miterlimit="10" fill="#C57B57"/><path d="M1344.02 2262.46C1344.02 2268.53 1339.1 2273.46 1333.02 2273.46 1326.95 2273.46 1322.02 2268.53 1322.02 2262.46 1322.02 2256.38 1326.95 2251.46 1333.02 2251.46 1339.1 2251.46 1344.02 2256.38 1344.02 2262.46Z" stroke="#C57B57" stroke-width="3.4375" stroke-linejoin="round" stroke-miterlimit="10" fill="#C57B57"/><path d="M1221.02 2290.46C1221.02 2296.53 1216.1 2301.46 1210.02 2301.46 1203.95 2301.46 1199.02 2296.53 1199.02 2290.46 1199.02 2284.38 1203.95 2279.46 1210.02 2279.46 1216.1 2279.46 1221.02 2284.38 1221.02 2290.46Z" stroke="#C57B57" stroke-width="3.4375" stroke-linejoin="round" stroke-miterlimit="10" fill="#C57B57"/><path d="M1493.02 2240.46C1493.02 2246.53 1488.1 2251.46 1482.02 2251.46 1475.95 2251.46 1471.02 2246.53 1471.02 2240.46 1471.02 2234.38 1475.95 2229.46 1482.02 2229.46 1488.1 2229.46 1493.02 2234.38 1493.02 2240.46Z" stroke="#C57B57" stroke-width="3.4375" stroke-linejoin="round" stroke-miterlimit="10" fill="#C57B57"/><path d="M1856.02 1633.46C1856.02 1639.53 1851.1 1644.46 1845.02 1644.46 1838.95 1644.46 1834.02 1639.53 1834.02 1633.46 1834.02 1627.38 1838.95 1622.46 1845.02 1622.46 1851.1 1622.46 1856.02 1627.38 1856.02 1633.46Z" stroke="#C57B57" stroke-width="3.4375" stroke-linejoin="round" stroke-miterlimit="10" fill="#C57B57"/><path d="M1952.02 1371.46C1952.02 1377.53 1947.1 1382.46 1941.02 1382.46 1934.95 1382.46 1930.02 1377.53 1930.02 1371.46 1930.02 1365.38 1934.95 1360.46 1941.02 1360.46 1947.1 1360.46 1952.02 1365.38 1952.02 1371.46Z" stroke="#C57B57" stroke-width="3.4375" stroke-linejoin="round" stroke-miterlimit="10" fill="#C57B57"/><path d="M1078.02 2353.46C1078.02 2359.53 1073.1 2364.46 1067.02 2364.46 1060.95 2364.46 1056.02 2359.53 1056.02 2353.46 1056.02 2347.38 1060.95 2342.46 1067.02 2342.46 1073.1 2342.46 1078.02 2347.38 1078.02 2353.46Z" stroke="#C57B57" stroke-width="3.4375" stroke-linejoin="round" stroke-miterlimit="10" fill="#C57B57"/><path d="M1695.02 2103.46C1695.02 2109.53 1690.1 2114.46 1684.02 2114.46 1677.95 2114.46 1673.02 2109.53 1673.02 2103.46 1673.02 2097.38 1677.95 2092.46 1684.02 2092.46 1690.1 2092.46 1695.02 2097.38 1695.02 2103.46Z" stroke="#C57B57" stroke-width="3.4375" stroke-linejoin="round" stroke-miterlimit="10" fill="#C57B57"/><path d="M1077.02 2315.46C1077.02 2321.53 1072.1 2326.46 1066.02 2326.46 1059.95 2326.46 1055.02 2321.53 1055.02 2315.46 1055.02 2309.38 1059.95 2304.46 1066.02 2304.46 1072.1 2304.46 1077.02 2309.38 1077.02 2315.46Z" stroke="#C57B57" stroke-width="3.4375" stroke-linejoin="round" stroke-miterlimit="10" fill="#C57B57"/><path d="M1063.02 2284.46C1063.02 2290.53 1058.1 2295.46 1052.02 2295.46 1045.95 2295.46 1041.02 2290.53 1041.02 2284.46 1041.02 2278.38 1045.95 2273.46 1052.02 2273.46 1058.1 2273.46 1063.02 2278.38 1063.02 2284.46Z" stroke="#C57B57" stroke-width="3.4375" stroke-linejoin="round" stroke-miterlimit="10" fill="#C57B57"/><path d="M1427.02 2238.46C1427.02 2244.53 1422.1 2249.46 1416.02 2249.46 1409.95 2249.46 1405.02 2244.53 1405.02 2238.46 1405.02 2232.38 1409.95 2227.46 1416.02 2227.46 1422.1 2227.46 1427.02 2232.38 1427.02 2238.46Z" stroke="#C57B57" stroke-width="3.4375" stroke-linejoin="round" stroke-miterlimit="10" fill="#C57B57"/><path d="M1111.02 2273.46C1111.02 2279.53 1106.1 2284.46 1100.02 2284.46 1093.95 2284.46 1089.02 2279.53 1089.02 2273.46 1089.02 2267.38 1093.95 2262.46 1100.02 2262.46 1106.1 2262.46 1111.02 2267.38 1111.02 2273.46Z" stroke="#C57B57" stroke-width="3.4375" stroke-linejoin="round" stroke-miterlimit="10" fill="#C57B57"/><path d="M1017.02 2210.46C1017.02 2216.53 1012.1 2221.46 1006.02 2221.46 999.947 2221.46 995.022 2216.53 995.022 2210.46 995.022 2204.38 999.947 2199.46 1006.02 2199.46 1012.1 2199.46 1017.02 2204.38 1017.02 2210.46Z" stroke="#C57B57" stroke-width="3.4375" stroke-linejoin="round" stroke-miterlimit="10" fill="#C57B57"/><path d="M1355.02 2171.46C1355.02 2177.53 1350.1 2182.46 1344.02 2182.46 1337.95 2182.46 1333.02 2177.53 1333.02 2171.46 1333.02 2165.38 1337.95 2160.46 1344.02 2160.46 1350.1 2160.46 1355.02 2165.38 1355.02 2171.46Z" stroke="#C57B57" stroke-width="3.4375" stroke-linejoin="round" stroke-miterlimit="10" fill="#C57B57"/><path d="M1623.02 2036.46C1623.02 2042.53 1618.1 2047.46 1612.02 2047.46 1605.95 2047.46 1601.02 2042.53 1601.02 2036.46 1601.02 2030.38 1605.95 2025.46 1612.02 2025.46 1618.1 2025.46 1623.02 2030.38 1623.02 2036.46Z" stroke="#C57B57" stroke-width="3.4375" stroke-linejoin="round" stroke-miterlimit="10" fill="#C57B57"/><path d="M1333.02 2312.46C1333.02 2318.53 1328.1 2323.46 1322.02 2323.46 1315.95 2323.46 1311.02 2318.53 1311.02 2312.46 1311.02 2306.38 1315.95 2301.46 1322.02 2301.46 1328.1 2301.46 1333.02 2306.38 1333.02 2312.46Z" stroke="#C57B57" stroke-width="3.4375" stroke-linejoin="round" stroke-miterlimit="10" fill="#C57B57"/><path d="M1555.02 2185.46C1555.02 2191.53 1550.1 2196.46 1544.02 2196.46 1537.95 2196.46 1533.02 2191.53 1533.02 2185.46 1533.02 2179.38 1537.95 2174.46 1544.02 2174.46 1550.1 2174.46 1555.02 2179.38 1555.02 2185.46Z" stroke="#C57B57" stroke-width="3.4375" stroke-linejoin="round" stroke-miterlimit="10" fill="#C57B57"/><path d="M1419.02 2174.46C1419.02 2180.53 1414.1 2185.46 1408.02 2185.46 1401.95 2185.46 1397.02 2180.53 1397.02 2174.46 1397.02 2168.38 1401.95 2163.46 1408.02 2163.46 1414.1 2163.46 1419.02 2168.38 1419.02 2174.46Z" stroke="#C57B57" stroke-width="3.4375" stroke-linejoin="round" stroke-miterlimit="10" fill="#C57B57"/><path d="M1646.02 1489.46C1646.02 1495.53 1641.1 1500.46 1635.02 1500.46 1628.95 1500.46 1624.02 1495.53 1624.02 1489.46 1624.02 1483.38 1628.95 1478.46 1635.02 1478.46 1641.1 1478.46 1646.02 1483.38 1646.02 1489.46Z" stroke="#C57B57" stroke-width="3.4375" stroke-linejoin="round" stroke-miterlimit="10" fill="#C57B57"/><path d="M1318.02 2198.46C1318.02 2204.53 1313.1 2209.46 1307.02 2209.46 1300.95 2209.46 1296.02 2204.53 1296.02 2198.46 1296.02 2192.38 1300.95 2187.46 1307.02 2187.46 1313.1 2187.46 1318.02 2192.38 1318.02 2198.46Z" stroke="#C57B57" stroke-width="3.4375" stroke-linejoin="round" stroke-miterlimit="10" fill="#C57B57"/><path d="M1008.02 2284.46C1008.02 2290.53 1003.1 2295.46 997.021 2295.46 990.947 2295.46 986.022 2290.53 986.022 2284.46 986.022 2278.38 990.947 2273.46 997.021 2273.46 1003.1 2273.46 1008.02 2278.38 1008.02 2284.46Z" stroke="#C57B57" stroke-width="3.4375" stroke-linejoin="round" stroke-miterlimit="10" fill="#C57B57"/><path d="M1213.02 2314.46C1213.02 2320.53 1208.1 2325.46 1202.02 2325.46 1195.95 2325.46 1191.02 2320.53 1191.02 2314.46 1191.02 2308.38 1195.95 2303.46 1202.02 2303.46 1208.1 2303.46 1213.02 2308.38 1213.02 2314.46Z" stroke="#C57B57" stroke-width="3.4375" stroke-linejoin="round" stroke-miterlimit="10" fill="#C57B57"/><path d="M1798.02 1904.46C1798.02 1910.53 1793.1 1915.46 1787.02 1915.46 1780.95 1915.46 1776.02 1910.53 1776.02 1904.46 1776.02 1898.38 1780.95 1893.46 1787.02 1893.46 1793.1 1893.46 1798.02 1898.38 1798.02 1904.46Z" stroke="#C57B57" stroke-width="3.4375" stroke-linejoin="round" stroke-miterlimit="10" fill="#C57B57"/><path d="M1828.02 1700.46C1828.02 1706.53 1823.1 1711.46 1817.02 1711.46 1810.95 1711.46 1806.02 1706.53 1806.02 1700.46 1806.02 1694.38 1810.95 1689.46 1817.02 1689.46 1823.1 1689.46 1828.02 1694.38 1828.02 1700.46Z" stroke="#C57B57" stroke-width="3.4375" stroke-linejoin="round" stroke-miterlimit="10" fill="#C57B57"/><path d="M1632.02 1821.46C1632.02 1827.53 1627.1 1832.46 1621.02 1832.46 1614.95 1832.46 1610.02 1827.53 1610.02 1821.46 1610.02 1815.38 1614.95 1810.46 1621.02 1810.46 1627.1 1810.46 1632.02 1815.38 1632.02 1821.46Z" stroke="#C57B57" stroke-width="3.4375" stroke-linejoin="round" stroke-miterlimit="10" fill="#C57B57"/><path d="M1269.02 2330.46C1269.02 2336.53 1264.1 2341.46 1258.02 2341.46 1251.95 2341.46 1247.02 2336.53 1247.02 2330.46 1247.02 2324.38 1251.95 2319.46 1258.02 2319.46 1264.1 2319.46 1269.02 2324.38 1269.02 2330.46Z" stroke="#C57B57" stroke-width="3.4375" stroke-linejoin="round" stroke-miterlimit="10" fill="#C57B57"/><path d="M1272.02 2208.46C1272.02 2214.53 1267.1 2219.46 1261.02 2219.46 1254.95 2219.46 1250.02 2214.53 1250.02 2208.46 1250.02 2202.38 1254.95 2197.46 1261.02 2197.46 1267.1 2197.46 1272.02 2202.38 1272.02 2208.46Z" stroke="#C57B57" stroke-width="3.4375" stroke-linejoin="round" stroke-miterlimit="10" fill="#C57B57"/><path d="M1481.02 2221.46C1481.02 2227.53 1476.1 2232.46 1470.02 2232.46 1463.95 2232.46 1459.02 2227.53 1459.02 2221.46 1459.02 2215.38 1463.95 2210.46 1470.02 2210.46 1476.1 2210.46 1481.02 2215.38 1481.02 2221.46Z" stroke="#C57B57" stroke-width="3.4375" stroke-linejoin="round" stroke-miterlimit="10" fill="#C57B57"/><path d="M1229.02 2275.46C1229.02 2281.53 1224.1 2286.46 1218.02 2286.46 1211.95 2286.46 1207.02 2281.53 1207.02 2275.46 1207.02 2269.38 1211.95 2264.46 1218.02 2264.46 1224.1 2264.46 1229.02 2269.38 1229.02 2275.46Z" stroke="#C57B57" stroke-width="3.4375" stroke-linejoin="round" stroke-miterlimit="10" fill="#C57B57"/><path d="M997.021 2359.46C997.021 2365.53 992.096 2370.46 986.021 2370.46 979.947 2370.46 975.022 2365.53 975.022 2359.46 975.022 2353.38 979.947 2348.46 986.021 2348.46 992.096 2348.46 997.021 2353.38 997.021 2359.46Z" stroke="#C57B57" stroke-width="3.4375" stroke-linejoin="round" stroke-miterlimit="10" fill="#C57B57"/><path d="M1117.02 2192.46C1117.02 2198.53 1112.1 2203.46 1106.02 2203.46 1099.95 2203.46 1095.02 2198.53 1095.02 2192.46 1095.02 2186.38 1099.95 2181.46 1106.02 2181.46 1112.1 2181.46 1117.02 2186.38 1117.02 2192.46Z" stroke="#C57B57" stroke-width="3.4375" stroke-linejoin="round" stroke-miterlimit="10" fill="#C57B57"/><path d="M1139.02 2156.46C1139.02 2162.53 1134.1 2167.46 1128.02 2167.46 1121.95 2167.46 1117.02 2162.53 1117.02 2156.46 1117.02 2150.38 1121.95 2145.46 1128.02 2145.46 1134.1 2145.46 1139.02 2150.38 1139.02 2156.46Z" stroke="#C57B57" stroke-width="3.4375" stroke-linejoin="round" stroke-miterlimit="10" fill="#C57B57"/></g><g><path d="M1849 1690 1876 1690 1876 1717 1849 1717Z"/></g><g><text fill="#595959" font-family="Roboto,Roboto_MSFontService,sans-serif" font-weight="400" font-size="55" transform="matrix(1 0 0 1 462.508 2599)">0%</text></g><g><text fill="#595959" font-family="Roboto,Roboto_MSFontService,sans-serif" font-weight="400" font-size="55" transform="matrix(1 0 0 1 431.547 2423)">20%</text></g><g><text fill="#595959" font-family="Roboto,Roboto_MSFontService,sans-serif" font-weight="400" font-size="55" transform="matrix(1 0 0 1 431.547 2248)">40%</text></g><g><text fill="#595959" font-family="Roboto,Roboto_MSFontService,sans-serif" font-weight="400" font-size="55" transform="matrix(1 0 0 1 431.547 2073)">60%</text></g><g><text fill="#595959" font-family="Roboto,Roboto_MSFontService,sans-serif" font-weight="400" font-size="55" transform="matrix(1 0 0 1 431.547 1897)">80%</text></g><g><text fill="#595959" font-family="Roboto,Roboto_MSFontService,sans-serif" font-weight="400" font-size="55" transform="matrix(1 0 0 1 400.564 1722)">100%</text></g><g><text fill="#595959" font-family="Roboto,Roboto_MSFontService,sans-serif" font-weight="400" font-size="55" transform="matrix(1 0 0 1 400.587 1547)">120%</text></g><g><text fill="#595959" font-family="Roboto,Roboto_MSFontService,sans-serif" font-weight="400" font-size="55" transform="matrix(1 0 0 1 400.587 1371)">140%</text></g><g><text fill="#595959" font-family="Roboto,Roboto_MSFontService,sans-serif" font-weight="400" font-size="55" transform="matrix(1 0 0 1 400.587 1196)">160%</text></g><g><text fill="#595959" font-family="Roboto,Roboto_MSFontService,sans-serif" font-weight="400" font-size="55" transform="matrix(1 0 0 1 400.587 1021)">180%</text></g><g><text fill="#595959" font-family="Roboto,Roboto_MSFontService,sans-serif" font-weight="400" font-size="55" transform="matrix(1 0 0 1 542.724 2678)">100</text></g><g><text fill="#595959" font-family="Roboto,Roboto_MSFontService,sans-serif" font-weight="400" font-size="55" transform="matrix(1 0 0 1 988.028 2678)">1000</text></g><g><text fill="#595959" font-family="Roboto,Roboto_MSFontService,sans-serif" font-weight="400" font-size="55" transform="matrix(1 0 0 1 1433.33 2678)">10000</text></g><g><text fill="#595959" font-family="Roboto,Roboto_MSFontService,sans-serif" font-weight="400" font-size="55" transform="matrix(1 0 0 1 1878.64 2678)">100000</text></g><g><text fill="#595959" font-family="Roboto,Roboto_MSFontService,sans-serif" font-weight="400" font-size="55" transform="matrix(1 0 0 1 2323.94 2678)">1000000</text></g><g><text font-family="Roboto,Roboto_MSFontService,sans-serif" font-weight="700" font-size="64" transform="matrix(6.12323e-17 -1 1 6.12323e-17 370.818 2166)">Price level relative to USA</text></g><g><text fill="#595959" font-family="Roboto,Roboto_MSFontService,sans-serif" font-weight="700" font-size="64" transform="matrix(1 0 0 1 1046.3 2773)">Disposable income / capita</text></g><g><text fill="#595959" font-family="Roboto,Roboto_MSFontService,sans-serif" font-weight="400" font-size="64" transform="matrix(1 0 0 1 1843.39 2773)">(log)</text></g><g><text font-family="Roboto,Roboto_MSFontService,sans-serif" font-weight="700" font-size="73" transform="matrix(1 0 0 1 1005.7 919)">COUNTRY PRICE LEVELS</text></g><rect x="335" y="1373" width="33" height="33"/></g></svg>