<svg width="2569" height="2145" xmlns="http://www.w3.org/2000/svg" xmlns:xlink="http://www.w3.org/1999/xlink" xml:space="preserve" overflow="hidden"><defs><clipPath id="clip0"><rect x="96" y="744" width="2569" height="2145"/></clipPath><clipPath id="clip1"><rect x="843" y="1390" width="992" height="606"/></clipPath></defs><g clip-path="url(#clip0)" transform="translate(-96 -744)"><rect x="95.9999" y="744" width="2569" height="2145" fill="#FFFFFF"/><g><path d="M496.5 2412.58 2548.5 2412.58M496.5 2194.57 2548.5 2194.57M496.5 1976.56 2548.5 1976.56M496.5 1758.56 2548.5 1758.56M496.5 1540.55 2548.5 1540.55M496.5 1323.54 2548.5 1323.54M496.5 1105.5 2548.5 1105.5" stroke="#D9D9D9" stroke-width="3.4375" stroke-linejoin="round" stroke-miterlimit="10" fill="none"/></g><g><path d="M701.523 1105.5 701.523 2630.5M906.53 1105.5 906.53 2630.5M1111.54 1105.5 1111.54 2630.5M1317.54 1105.5 1317.54 2630.5M1522.55 1105.5 1522.55 2630.5M1727.56 1105.5 1727.56 2630.5M1932.56 1105.5 1932.56 2630.5M2137.57 1105.5 2137.57 2630.5M2342.58 1105.5 2342.58 2630.5M2548.5 1105.5 2548.5 2630.5" stroke="#D9D9D9" stroke-width="3.4375" stroke-linejoin="round" stroke-miterlimit="10" fill="none"/></g><g><path d="M0 0 0.000360892 1525" stroke="#BFBFBF" stroke-width="3.4375" stroke-linejoin="round" stroke-miterlimit="10" fill="none" fill-rule="evenodd" transform="matrix(1 0 0 -1 496.5 2630.5)"/></g><g><path d="M496.5 2630.5 2548.5 2630.5" stroke="#BFBFBF" stroke-width="3.4375" stroke-linejoin="round" stroke-miterlimit="10" fill="none" fill-rule="evenodd"/></g><g><path d="M497 2630C518.61 2628.21 529.492 2627.33 561.98 2624.61 594.541 2621.88 647.566 2617.26 692.369 2613.64 737.173 2610.01 784.532 2606.46 830.801 2602.85 877.07 2599.24 925.338 2595.63 969.981 2591.98 1014.62 2588.34 1056.59 2584.61 1098.66 2580.99 1140.73 2577.37 1173.91 2574.72 1222.4 2570.25 1270.89 2565.79 1330.34 2560.5 1389.6 2554.2 1448.86 2547.89 1508.43 2542.09 1577.97 2532.42 1647.51 2522.74 1728.78 2511.32 1806.84 2496.15 1884.9 2480.97 1966.78 2468.62 2046.35 2441.36 2125.93 2414.1 2212.46 2405.11 2284.28 2332.56 2352.73 2263.41 2437.75 2191.54 2477.27 2006.07 2518.72 1811.48 2514.42 1445.36 2533 1165" stroke="#C57B57" stroke-width="10.3125" stroke-linecap="round" stroke-linejoin="round" stroke-miterlimit="10" fill="none"/></g><g><text font-family="Roboto,Roboto_MSFontService,sans-serif" font-weight="400" font-size="55" transform="matrix(1 0 0 1 410.048 2647)">0</text></g><g><text font-family="Roboto,Roboto_MSFontService,sans-serif" font-weight="400" font-size="55" transform="matrix(1 0 0 1 244.315 2430)">100,000</text></g><g><text font-family="Roboto,Roboto_MSFontService,sans-serif" font-weight="400" font-size="55" transform="matrix(1 0 0 1 244.315 2212)">200,000</text></g><g><text font-family="Roboto,Roboto_MSFontService,sans-serif" font-weight="400" font-size="55" transform="matrix(1 0 0 1 244.315 1994)">300,000</text></g><g><text font-family="Roboto,Roboto_MSFontService,sans-serif" font-weight="400" font-size="55" transform="matrix(1 0 0 1 244.315 1776)">400,000</text></g><g><text font-family="Roboto,Roboto_MSFontService,sans-serif" font-weight="400" font-size="55" transform="matrix(1 0 0 1 244.315 1558)">500,000</text></g><g><text font-family="Roboto,Roboto_MSFontService,sans-serif" font-weight="400" font-size="55" transform="matrix(1 0 0 1 244.315 1340)">600,000</text></g><g><text font-family="Roboto,Roboto_MSFontService,sans-serif" font-weight="400" font-size="55" transform="matrix(1 0 0 1 244.315 1123)">700,000</text></g><g><text font-family="Roboto,Roboto_MSFontService,sans-serif" font-weight="400" font-size="55" transform="matrix(1 0 0 1 460.908 2727)">0%</text></g><g><text font-family="Roboto,Roboto_MSFontService,sans-serif" font-weight="400" font-size="55" transform="matrix(1 0 0 1 650.599 2727)">10%</text></g><g><text font-family="Roboto,Roboto_MSFontService,sans-serif" font-weight="400" font-size="55" transform="matrix(1 0 0 1 855.77 2727)">20%</text></g><g><text font-family="Roboto,Roboto_MSFontService,sans-serif" font-weight="400" font-size="55" transform="matrix(1 0 0 1 1060.94 2727)">30%</text></g><g><text font-family="Roboto,Roboto_MSFontService,sans-serif" font-weight="400" font-size="55" transform="matrix(1 0 0 1 1266.11 2727)">40%</text></g><g><text font-family="Roboto,Roboto_MSFontService,sans-serif" font-weight="400" font-size="55" transform="matrix(1 0 0 1 1471.28 2727)">50%</text></g><g><text font-family="Roboto,Roboto_MSFontService,sans-serif" font-weight="400" font-size="55" transform="matrix(1 0 0 1 1676.45 2727)">60%</text></g><g><text font-family="Roboto,Roboto_MSFontService,sans-serif" font-weight="400" font-size="55" transform="matrix(1 0 0 1 1881.62 2727)">70%</text></g><g><text font-family="Roboto,Roboto_MSFontService,sans-serif" font-weight="400" font-size="55" transform="matrix(1 0 0 1 2086.8 2727)">80%</text></g><g><text font-family="Roboto,Roboto_MSFontService,sans-serif" font-weight="400" font-size="55" transform="matrix(1 0 0 1 2291.97 2727)">90%</text></g><g><text font-family="Roboto,Roboto_MSFontService,sans-serif" font-weight="400" font-size="55" transform="matrix(1 0 0 1 2481.65 2727)">100%</text></g><g><text font-family="Roboto,Roboto_MSFontService,sans-serif" font-weight="700" font-size="64" transform="matrix(6.12323e-17 -1 1 6.12323e-17 213.716 2219)">Personal income per capita</text></g><g><text font-family="Roboto,Roboto_MSFontService,sans-serif" font-weight="700" font-size="64" transform="matrix(1 0 0 1 1071.44 2816)">Cumulative share of population</text></g><g><text font-family="Roboto,Roboto_MSFontService,sans-serif" font-weight="700" font-size="73" transform="matrix(1 0 0 1 963.86 879)">INCOME DISTRIBUTION</text></g><g><text font-family="Roboto,Roboto_MSFontService,sans-serif" font-weight="700" font-size="73" transform="matrix(1 0 0 1 1139.58 967)">U.S. Example</text></g><g><text font-family="Roboto,Roboto_MSFontService,sans-serif" font-weight="700" font-size="64" transform="matrix(1 0 0 1 1088.5 1052)">Bottom 99 percent</text></g><rect x="662" y="1209" width="1302" height="915" fill="#FFFFFF"/><g><path d="M843.5 1892.56 1831.5 1892.56M843.5 1792.56 1831.5 1792.56M843.5 1691.56 1831.5 1691.56M843.5 1591.55 1831.5 1591.55M843.5 1491.55 1831.5 1491.55M843.5 1390.5 1831.5 1390.5" stroke="#D9D9D9" stroke-width="3.4375" stroke-linejoin="round" stroke-miterlimit="10" fill="none"/></g><g><path d="M1041.53 1390.5 1041.53 1992.5M1238.54 1390.5 1238.54 1992.5M1436.55 1390.5 1436.55 1992.5M1634.55 1390.5 1634.55 1992.5M1831.5 1390.5 1831.5 1992.5" stroke="#D9D9D9" stroke-width="3.4375" stroke-linejoin="round" stroke-miterlimit="10" fill="none"/></g><g><path d="M0 0 0.000360892 602" stroke="#BFBFBF" stroke-width="3.4375" stroke-linejoin="round" stroke-miterlimit="10" fill="none" fill-rule="evenodd" transform="matrix(1 0 0 -1 843.5 1992.5)"/></g><g><path d="M843.5 1992.5 1831.5 1992.5" stroke="#BFBFBF" stroke-width="3.4375" stroke-linejoin="round" stroke-miterlimit="10" fill="none" fill-rule="evenodd"/></g><g clip-path="url(#clip1)"><path d="M-1576 1987C-680.852 1984.42 586.929 1982.32 1109.44 1979.26 1334.33 1977.94 1518.7 1970.15 1559.09 1968.65 1615.99 1966.53 1653.12 1961.89 1672.49 1958.33 1704.44 1952.45 1728.29 1950.5 1750.77 1933.37 1763.42 1923.72 1800.38 1903.13 1807.35 1855.53 1819.72 1770.97 1819.12 1569.18 1825 1426" stroke="#00124D" stroke-width="10.3125" stroke-linecap="round" stroke-linejoin="round" stroke-miterlimit="10" fill="none"/></g><g><text font-family="Roboto,Roboto_MSFontService,sans-serif" font-weight="400" font-size="50" transform="matrix(1 0 0 1 720.091 2008)">0M</text></g><g><text font-family="Roboto,Roboto_MSFontService,sans-serif" font-weight="400" font-size="50" transform="matrix(1 0 0 1 720.114 1908)">5M</text></g><g><text font-family="Roboto,Roboto_MSFontService,sans-serif" font-weight="400" font-size="50" transform="matrix(1 0 0 1 691.698 1808)">10M</text></g><g><text font-family="Roboto,Roboto_MSFontService,sans-serif" font-weight="400" font-size="50" transform="matrix(1 0 0 1 691.72 1708)">15M</text></g><g><text font-family="Roboto,Roboto_MSFontService,sans-serif" font-weight="400" font-size="50" transform="matrix(1 0 0 1 691.698 1607)">20M</text></g><g><text font-family="Roboto,Roboto_MSFontService,sans-serif" font-weight="400" font-size="50" transform="matrix(1 0 0 1 691.72 1507)">25M</text></g><g><text font-family="Roboto,Roboto_MSFontService,sans-serif" font-weight="400" font-size="50" transform="matrix(1 0 0 1 691.698 1407)">30M</text></g><g><text font-family="Roboto,Roboto_MSFontService,sans-serif" font-weight="400" font-size="50" transform="matrix(1 0 0 1 775.867 2081)">99.0%</text></g><g><text font-family="Roboto,Roboto_MSFontService,sans-serif" font-weight="400" font-size="50" transform="matrix(1 0 0 1 973.539 2081)">99.2%</text></g><g><text font-family="Roboto,Roboto_MSFontService,sans-serif" font-weight="400" font-size="50" transform="matrix(1 0 0 1 1171.2 2081)">99.4%</text></g><g><text font-family="Roboto,Roboto_MSFontService,sans-serif" font-weight="400" font-size="50" transform="matrix(1 0 0 1 1368.86 2081)">99.6%</text></g><g><text font-family="Roboto,Roboto_MSFontService,sans-serif" font-weight="400" font-size="50" transform="matrix(1 0 0 1 1566.52 2081)">99.8%</text></g><g><text font-family="Roboto,Roboto_MSFontService,sans-serif" font-weight="400" font-size="50" transform="matrix(1 0 0 1 1749.95 2081)">100.0%</text></g><g><text font-family="Roboto,Roboto_MSFontService,sans-serif" font-weight="700" font-size="64" transform="matrix(1 0 0 1 1114.14 1310)">Top 1 percent</text></g><rect x="662.5" y="1209.5" width="1302" height="915" stroke="#D9D9D9" stroke-width="3.4375" stroke-linejoin="round" stroke-miterlimit="10" fill="none"/></g></svg>