<svg width="1962" height="1396" xmlns="http://www.w3.org/2000/svg" xmlns:xlink="http://www.w3.org/1999/xlink" xml:space="preserve" overflow="hidden"><defs><clipPath id="clip0"><rect x="1290" y="566" width="1962" height="1396"/></clipPath><clipPath id="clip1"><rect x="1290" y="733" width="1948" height="1170"/></clipPath><clipPath id="clip2"><rect x="1290" y="733" width="1948" height="1170"/></clipPath></defs><g clip-path="url(#clip0)" transform="translate(-1290 -566)"><g><path d="M1359 886 1632 886 1632 1493 1359 1493Z" fill="#00124D"/></g><g><path d="M2134 1037 2406 1037 2406 1493 2134 1493Z" fill="#00124D"/></g><g><path d="M2908 1139 3181 1139 3181 1493 2908 1493Z" fill="#00124D"/></g><g><path d="M1746 886 2019 886 2019 1037 1746 1037Z" fill="#C57B57"/></g><g><path d="M2521.5 1037.5 2793.5 1037.5 2793.5 1138.5 2521.5 1138.5Z" stroke="#C57B57" stroke-width="3.4375" stroke-linejoin="round" stroke-miterlimit="10" fill="#C57B57"/></g><g clip-path="url(#clip1)"><path d="M1301.5 1492.5 3238.5 1492.5" stroke="#868686" stroke-width="3.4375" stroke-linejoin="round" stroke-miterlimit="10" fill="none" fill-rule="evenodd"/></g><g clip-path="url(#clip2)"><path d="M1301.5 1492.5 1301.5 1512.5M1688.56 1492.5 1688.56 1512.5M2076.57 1492.5 2076.57 1512.5M2463.58 1492.5 2463.58 1512.5M2851.59 1492.5 2851.59 1512.5M3238.5 1492.5 3238.5 1512.5" stroke="#868686" stroke-width="3.4375" stroke-linejoin="round" stroke-miterlimit="10" fill="none"/></g><g><text font-family="Arial,Arial_MSFontService,sans-serif" font-weight="400" font-size="64" transform="matrix(1 0 0 1 1316.98 1589)">Addressable</text></g><g><text font-family="Arial,Arial_MSFontService,sans-serif" font-weight="400" font-size="64" transform="matrix(1 0 0 1 1359.84 1663)">(relevant)</text></g><g><text font-family="Arial,Arial_MSFontService,sans-serif" font-weight="400" font-size="64" transform="matrix(1 0 0 1 1397.28 1737)">market</text></g><g><text font-family="Arial,Arial_MSFontService,sans-serif" font-weight="400" font-size="64" transform="matrix(1 0 0 1 1688.3 1589)">Cannot afford</text></g><g><text font-family="Arial,Arial_MSFontService,sans-serif" font-weight="400" font-size="64" transform="matrix(1 0 0 1 2139.88 1589)">Available</text></g><g><text font-family="Arial,Arial_MSFontService,sans-serif" font-weight="400" font-size="64" transform="matrix(1 0 0 1 2170.23 1663)">(latent)</text></g><g><text font-family="Arial,Arial_MSFontService,sans-serif" font-weight="400" font-size="64" transform="matrix(1 0 0 1 2172.03 1737)">market</text></g><g><text font-family="Arial,Arial_MSFontService,sans-serif" font-weight="400" font-size="64" transform="matrix(1 0 0 1 2518.31 1589)">Untapped</text></g><g><text font-family="Arial,Arial_MSFontService,sans-serif" font-weight="400" font-size="64" transform="matrix(1 0 0 1 2541.51 1663)">demand</text></g><g><text font-family="Arial,Arial_MSFontService,sans-serif" font-weight="400" font-size="64" transform="matrix(1 0 0 1 2466.6 1737)">despite latent</text></g><g><text font-family="Arial,Arial_MSFontService,sans-serif" font-weight="400" font-size="64" transform="matrix(1 0 0 1 2536.15 1811)">potential</text></g><g><text font-family="Arial,Arial_MSFontService,sans-serif" font-weight="400" font-size="64" transform="matrix(1 0 0 1 2955.64 1589)">Actual</text></g><g><text font-family="Arial,Arial_MSFontService,sans-serif" font-weight="400" font-size="64" transform="matrix(1 0 0 1 2946.77 1663)">market</text></g><text fill="#424242" font-family="Arial,Arial_MSFontService,sans-serif" font-weight="700" font-size="73" transform="matrix(1 0 0 1 1394.2 659)">ADDRESSABLE </text><text fill="#424242" font-family="Arial,Arial_MSFontService,sans-serif" font-weight="700" font-size="73" transform="matrix(1 0 0 1 1970.56 659)">–</text><text fill="#424242" font-family="Arial,Arial_MSFontService,sans-serif" font-weight="700" font-size="73" transform="matrix(1 0 0 1 2029.13 659)">AVAILABLE </text><text fill="#424242" font-family="Arial,Arial_MSFontService,sans-serif" font-weight="700" font-size="73" transform="matrix(1 0 0 1 2457.08 659)">–</text><text fill="#424242" font-family="Arial,Arial_MSFontService,sans-serif" font-weight="700" font-size="73" transform="matrix(1 0 0 1 2515.65 659)">ACTUAL MARKET</text><text fill="#424242" font-family="Arial,Arial_MSFontService,sans-serif" font-weight="400" font-size="50" transform="matrix(1 0 0 1 1335.08 1920)">Source: Tellusant thought</text></g></svg>