<svg width="2730" height="2135" xmlns="http://www.w3.org/2000/svg" xmlns:xlink="http://www.w3.org/1999/xlink" xml:space="preserve" overflow="hidden"><g transform="translate(-29 -750)"><rect x="565" y="931" width="1674" height="1717" stroke="#000000" stroke-width="10.3125" stroke-miterlimit="8" fill="#F1ECCE"/><path d="M565 1789 2239.95 1789" stroke="#000000" stroke-width="10.3125" stroke-miterlimit="8" fill="none" fill-rule="evenodd"/><path d="M1402 931 1402 2648.27" stroke="#000000" stroke-width="10.3125" stroke-miterlimit="8" fill="none" fill-rule="evenodd"/><text font-family="Roboto,Roboto_MSFontService,sans-serif" font-weight="700" font-size="64" transform="matrix(1 0 0 1 1518.79 2753)">Medium to long term</text><text font-family="Roboto,Roboto_MSFontService,sans-serif" font-weight="400" font-size="64" transform="matrix(1 0 0 1 1617.9 2830)">3</text><text font-family="Roboto,Roboto_MSFontService,sans-serif" font-weight="400" font-size="64" transform="matrix(1 0 0 1 1654 2830)">-</text><text font-family="Roboto,Roboto_MSFontService,sans-serif" font-weight="400" font-size="64" transform="matrix(1 0 0 1 1671.76 2830)">10 years out</text><text font-family="Roboto,Roboto_MSFontService,sans-serif" font-weight="700" font-size="64" transform="matrix(1 0 0 1 828.829 2753)">Short term</text><text font-family="Roboto,Roboto_MSFontService,sans-serif" font-weight="400" font-size="64" transform="matrix(1 0 0 1 813.658 2830)">&lt;18 months</text><text font-family="Roboto,Roboto_MSFontService,sans-serif" font-weight="700" font-size="64" transform="matrix(1 0 0 1 186.069 2155)">Tactical</text><text font-family="Roboto,Roboto_MSFontService,sans-serif" font-weight="700" font-size="64" transform="matrix(1 0 0 1 232.75 2232)">uses</text><text font-family="Roboto,Roboto_MSFontService,sans-serif" font-weight="400" font-size="64" transform="matrix(1 0 0 1 68.0481 2309)">e.g., promotions</text><text font-family="Roboto,Roboto_MSFontService,sans-serif" font-weight="700" font-size="64" transform="matrix(1 0 0 1 175.843 1217)">Strategic</text><text font-family="Roboto,Roboto_MSFontService,sans-serif" font-weight="700" font-size="64" transform="matrix(1 0 0 1 238.588 1294)">uses</text><text font-family="Roboto,Roboto_MSFontService,sans-serif" font-weight="400" font-size="64" transform="matrix(1 0 0 1 114.541 1371)">e.g., resource </text><text font-family="Roboto,Roboto_MSFontService,sans-serif" font-weight="400" font-size="64" transform="matrix(1 0 0 1 164.682 1448)">allocation </text><text font-family="Roboto,Roboto_MSFontService,sans-serif" font-weight="400" font-size="64" transform="matrix(1 0 0 1 168.693 1525)">decisions</text><text font-family="Roboto,Roboto_MSFontService,sans-serif" font-style="oblique" font-weight="700" font-size="64" transform="matrix(1 0 0 1 1705.29 1275)">Income </text><text font-family="Roboto,Roboto_MSFontService,sans-serif" font-style="oblique" font-weight="700" font-size="64" transform="matrix(1 0 0 1 1759.42 1352)">and </text><text font-family="Roboto,Roboto_MSFontService,sans-serif" font-style="oblique" font-weight="700" font-size="64" transform="matrix(1 0 0 1 1614.19 1429)">demographics</text><text font-family="Roboto,Roboto_MSFontService,sans-serif" font-style="oblique" font-weight="700" font-size="64" transform="matrix(1 0 0 1 1545.15 1506)">(consumer groups)</text><text font-family="Roboto,Roboto_MSFontService,sans-serif" font-style="oblique" font-weight="700" font-size="64" transform="matrix(1 0 0 1 1684.66 1583)">dominate</text><text font-family="Roboto,Roboto_MSFontService,sans-serif" font-style="oblique" font-weight="700" font-size="64" transform="matrix(1 0 0 1 908.201 2133)">Price</text><text font-family="Roboto,Roboto_MSFontService,sans-serif" font-style="oblique" font-weight="700" font-size="64" transform="matrix(1 0 0 1 851.758 2210)">elasticity</text><text font-family="Roboto,Roboto_MSFontService,sans-serif" font-style="oblique" font-weight="700" font-size="64" transform="matrix(1 0 0 1 830.56 2287)">dominates</text><text font-family="Roboto,Roboto_MSFontService,sans-serif" font-weight="700" font-size="73" transform="matrix(1 0 0 1 1102.06 842)">ELASTICITY USES</text><text font-family="Roboto,Roboto_MSFontService,sans-serif" font-weight="700" font-size="64" transform="matrix(1 0 0 1 2387.81 2195)">Revenue </text><text font-family="Roboto,Roboto_MSFontService,sans-serif" font-weight="700" font-size="64" transform="matrix(1 0 0 1 2322.77 2272)">management</text><text font-family="Roboto,Roboto_MSFontService,sans-serif" font-weight="700" font-size="64" transform="matrix(1 0 0 1 2381.5 1336)">Strategic</text><text font-family="Roboto,Roboto_MSFontService,sans-serif" font-weight="700" font-size="64" transform="matrix(1 0 0 1 2388.07 1413)">planning</text></g></svg>