<svg width="1950" height="1493" xmlns="http://www.w3.org/2000/svg" xmlns:xlink="http://www.w3.org/1999/xlink" xml:space="preserve" overflow="hidden"><defs><clipPath id="clip0"><rect x="2296" y="2126" width="1950" height="1493"/></clipPath></defs><g clip-path="url(#clip0)" transform="translate(-2296 -2126)"><rect x="2296" y="2126" width="1950" height="1493" fill="#FFFFFF"/><g><rect x="3173" y="3536" width="63" height="16.9998" fill="#7F7F7F"/></g><g><rect x="3173" y="3489" width="185" height="16.9998" fill="#7F7F7F"/></g><g><rect x="3173" y="3111" width="4.99976" height="16.0002" fill="#3B7D23"/></g><g><rect x="3173" y="3063" width="38.9998" height="16.9998" fill="#3B7D23"/></g><g><rect x="3173" y="3016" width="824" height="16.9998" fill="#3B7D23"/></g><g><rect x="3173" y="2874" width="43" height="16.9998" fill="#156082"/></g><g><rect x="3173" y="2827" width="93.9998" height="16.9998" fill="#156082"/></g><g><rect x="3173" y="2780" width="153" height="16.0002" fill="#156082"/></g><g><rect x="3173" y="2732" width="168" height="16.9998" fill="#156082"/></g><g><rect x="3173" y="2685" width="256" height="16.9998" fill="#156082"/></g><g><rect x="3173" y="2638" width="415" height="16.0002" fill="#156082"/></g><g><rect x="3173" y="2543" width="608" height="16.9998" fill="#C00000"/></g><g><rect x="3173" y="2496" width="804" height="17.0002" fill="#C00000"/></g><g><rect x="3173" y="2401" width="120" height="16.9998"/></g><g><rect x="3173" y="2354" width="166" height="16.9998"/></g><g><rect x="3173" y="2307" width="569" height="16.0002"/></g><g><path d="M3176.1 3411.11 3173 3411.11 3173 3394.11 3176.1 3394.11ZM3180.1 3364.11 3173 3364.11 3173 3347.11 3180.1 3347.11ZM3212.11 3317.11 3173 3317.11 3173 3300.11 3212.11 3300.11ZM3313.11 3269.11 3173 3269.11 3173 3252.11 3313.11 3252.11ZM3176.1 3175.1 3173 3175.1 3173 3158.1 3176.1 3158.1ZM3177.1 2938.1 3173 2938.1 3173 2921.1 3177.1 2921.1Z" fill="#78206E"/></g><g><path d="M0 0 0.000360892 1277" stroke="#D9D9D9" stroke-width="3.4375" stroke-linejoin="round" stroke-miterlimit="10" fill="none" fill-rule="evenodd" transform="matrix(1 0 0 -1 3173.5 3568.5)"/></g><g><text font-family="Arial,Arial_MSFontService,sans-serif" font-weight="400" font-size="50" transform="matrix(1 0 0 1 3263.1 3563)">30 M</text></g><g><text font-family="Arial,Arial_MSFontService,sans-serif" font-weight="400" font-size="50" transform="matrix(1 0 0 1 3385.94 3515)">91 M</text></g><g><text font-family="Arial,Arial_MSFontService,sans-serif" font-weight="400" font-size="50" transform="matrix(1 0 0 1 3203.59 3421)">1.3 M</text></g><g><text font-family="Arial,Arial_MSFontService,sans-serif" font-weight="400" font-size="50" transform="matrix(1 0 0 1 3207.35 3374)">3.1 M</text></g><g><text font-family="Arial,Arial_MSFontService,sans-serif" font-weight="400" font-size="50" transform="matrix(1 0 0 1 3239.79 3326)">19 M</text></g><g><text font-family="Arial,Arial_MSFontService,sans-serif" font-weight="400" font-size="50" transform="matrix(1 0 0 1 3340.16 3279)">68 M</text></g><g><text font-family="Arial,Arial_MSFontService,sans-serif" font-weight="400" font-size="50" transform="matrix(1 0 0 1 3203.33 3184)">1.2 M</text></g><g><text font-family="Arial,Arial_MSFontService,sans-serif" font-weight="400" font-size="50" transform="matrix(1 0 0 1 3205.35 3137)">2.2 M</text></g><g><text font-family="Arial,Arial_MSFontService,sans-serif" font-weight="400" font-size="50" transform="matrix(1 0 0 1 3239.79 3090)">19 M</text></g><g><text font-family="Arial,Arial_MSFontService,sans-serif" font-weight="400" font-size="50" transform="matrix(1 0 0 1 4024.71 3042)">403 M</text></g><g><text font-family="Arial,Arial_MSFontService,sans-serif" font-weight="400" font-size="50" transform="matrix(1 0 0 1 3204.64 2948)">1.8 M</text></g><g><text font-family="Arial,Arial_MSFontService,sans-serif" font-weight="400" font-size="50" transform="matrix(1 0 0 1 3243.47 2901)">21 M</text></g><g><text font-family="Arial,Arial_MSFontService,sans-serif" font-weight="400" font-size="50" transform="matrix(1 0 0 1 3294.37 2853)">46 M</text></g><g><text font-family="Arial,Arial_MSFontService,sans-serif" font-weight="400" font-size="50" transform="matrix(1 0 0 1 3353.24 2806)">75 M</text></g><g><text font-family="Arial,Arial_MSFontService,sans-serif" font-weight="400" font-size="50" transform="matrix(1 0 0 1 3368.57 2759)">82 M</text></g><g><text font-family="Arial,Arial_MSFontService,sans-serif" font-weight="400" font-size="50" transform="matrix(1 0 0 1 3456.46 2711)">125 M</text></g><g><text font-family="Arial,Arial_MSFontService,sans-serif" font-weight="400" font-size="50" transform="matrix(1 0 0 1 3615.9 2664)">203 M</text></g><g><text font-family="Arial,Arial_MSFontService,sans-serif" font-weight="400" font-size="50" transform="matrix(1 0 0 1 3808.04 2569)">297 M</text></g><g><text font-family="Arial,Arial_MSFontService,sans-serif" font-weight="400" font-size="50" transform="matrix(1 0 0 1 4004.26 2522)">393 M</text></g><g><text font-family="Arial,Arial_MSFontService,sans-serif" font-weight="400" font-size="50" transform="matrix(1 0 0 1 3320.33 2428)">58 M</text></g><g><text font-family="Arial,Arial_MSFontService,sans-serif" font-weight="400" font-size="50" transform="matrix(1 0 0 1 3366.93 2380)">81 M</text></g><g><text font-family="Arial,Arial_MSFontService,sans-serif" font-weight="400" font-size="50" transform="matrix(1 0 0 1 3769.2 2333)">278 M</text></g><g><text font-family="Arial,Arial_MSFontService,sans-serif" font-weight="400" font-size="50" transform="matrix(1 0 0 1 2939.48 3561)">PepsiCo</text></g><g><text font-family="Arial,Arial_MSFontService,sans-serif" font-weight="400" font-size="50" transform="matrix(1 0 0 1 2886.29 3514)">Qualcomm</text></g><g><text font-family="Arial,Arial_MSFontService,sans-serif" font-weight="400" font-size="50" transform="matrix(1 0 0 1 2718.1 3419)">Heteroscedasticity</text></g><g><text font-family="Arial,Arial_MSFontService,sans-serif" font-weight="400" font-size="50" transform="matrix(1 0 0 1 3046.04 3372)">AIC</text></g><g><text font-family="Arial,Arial_MSFontService,sans-serif" font-weight="400" font-size="50" transform="matrix(1 0 0 1 2987.21 3325)">MAPE</text></g><g><text font-family="Arial,Arial_MSFontService,sans-serif" font-weight="400" font-size="50" transform="matrix(1 0 0 1 2415.39 3277)">Coefficient of determination (R²)</text></g><g><text font-family="Arial,Arial_MSFontService,sans-serif" font-weight="400" font-size="50" transform="matrix(1 0 0 1 2860.99 3183)">Differencing</text></g><g><text font-family="Arial,Arial_MSFontService,sans-serif" font-weight="400" font-size="50" transform="matrix(1 0 0 1 2877.83 3135)">Stationarity</text></g><g><text font-family="Arial,Arial_MSFontService,sans-serif" font-weight="400" font-size="50" transform="matrix(1 0 0 1 2936.73 3088)">Box-Cox</text></g><g><text font-family="Arial,Arial_MSFontService,sans-serif" font-weight="400" font-size="50" transform="matrix(1 0 0 1 2577.99 3041)">Statistical transformation</text></g><g><text font-family="Arial,Arial_MSFontService,sans-serif" font-weight="400" font-size="50" transform="matrix(1 0 0 1 2485.47 2946)">Vector autoregression (VAR)</text></g><g><text font-family="Arial,Arial_MSFontService,sans-serif" font-weight="400" font-size="50" transform="matrix(1 0 0 1 2922.63 2899)">Bayesian</text></g><g><text font-family="Arial,Arial_MSFontService,sans-serif" font-weight="400" font-size="50" transform="matrix(1 0 0 1 2706.85 2852)">Clustering analysis</text></g><g><text font-family="Arial,Arial_MSFontService,sans-serif" font-weight="400" font-size="50" transform="matrix(1 0 0 1 2664.73 2804)">Nonlinear regression</text></g><g><text font-family="Arial,Arial_MSFontService,sans-serif" font-weight="400" font-size="50" transform="matrix(1 0 0 1 2687.3 2757)">Timeseries analysis</text></g><g><text font-family="Arial,Arial_MSFontService,sans-serif" font-weight="400" font-size="50" transform="matrix(1 0 0 1 2740.4 2710)">Linear regression</text></g><g><text font-family="Arial,Arial_MSFontService,sans-serif" font-weight="400" font-size="50" transform="matrix(1 0 0 1 2883.4 2662)">Correlation</text></g><g><text font-family="Arial,Arial_MSFontService,sans-serif" font-weight="400" font-size="50" transform="matrix(1 0 0 1 2628.34 2568)">Machine learning (ML)</text></g><g><text font-family="Arial,Arial_MSFontService,sans-serif" font-weight="400" font-size="50" transform="matrix(1 0 0 1 2718.12 2521)">Statistical analysis</text></g><g><text font-family="Arial,Arial_MSFontService,sans-serif" font-weight="400" font-size="50" transform="matrix(1 0 0 1 2936.68 2426)">Calculus</text></g><g><text font-family="Arial,Arial_MSFontService,sans-serif" font-weight="400" font-size="50" transform="matrix(1 0 0 1 2807.61 2379)">Linear algebra</text></g><g><text font-family="Arial,Arial_MSFontService,sans-serif" font-weight="400" font-size="50" transform="matrix(1 0 0 1 2325.72 2331)">Principal component analysis (PCA)</text></g><g><text font-family="Arial,Arial_MSFontService,sans-serif" font-weight="700" font-size="64" transform="matrix(1 0 0 1 2532.96 2220)">GOOGLE SEARCHES FOR STATISTICAL TERMS</text></g></g></svg>