<svg width="1675" height="1146" xmlns="http://www.w3.org/2000/svg" xmlns:xlink="http://www.w3.org/1999/xlink" xml:space="preserve" overflow="hidden"><defs><clipPath id="clip0"><rect x="400" y="3092" width="1675" height="1146"/></clipPath></defs><g clip-path="url(#clip0)" transform="translate(-400 -3092)"><text font-family="Arial,Arial_MSFontService,sans-serif" font-weight="400" font-size="46" transform="matrix(1 0 0 1 544.465 4200)">Källa: TelluBase; SCB; Tellusant </text><text font-family="Arial,Arial_MSFontService,sans-serif" font-weight="400" font-size="46" transform="matrix(1 0 0 1 1215.92 4200)">analys</text><path d="M1925 3683 1888 3659.5 1925 3636Z" fill="#C00000" fill-rule="evenodd"/><text font-family="Arial,Arial_MSFontService,sans-serif" font-weight="400" font-size="46" transform="matrix(1 0 0 1 1891.87 3621)">Svensk</text><text font-family="Arial,Arial_MSFontService,sans-serif" font-weight="400" font-size="46" transform="matrix(1 0 0 1 1947.45 3676)">BNP</text><text font-family="Arial,Arial_MSFontService,sans-serif" font-weight="400" font-size="46" transform="matrix(1 0 0 1 1937.71 3731)">2,1</text><text font-family="Arial,Arial_MSFontService,sans-serif" font-weight="400" font-size="46" transform="matrix(1 0 0 1 2000.73 3731)">%</text><g><path d="M577.519 3620.62 693.523 3620.62 693.523 3965.5 577.519 3965.5ZM1093.54 3675.62 1209.54 3675.62 1209.54 3965.5 1093.54 3965.5ZM1610.55 3640.62 1725.56 3640.62 1725.56 3965.5 1610.55 3965.5Z" stroke="#002060" stroke-width="3.4375" stroke-linejoin="round" stroke-miterlimit="10" fill="#002060"/></g><g><path d="M724.024 3732.12 840.028 3732.12 840.028 3965 724.024 3965ZM1241.04 3458.11 1357.04 3458.11 1357.04 3965 1241.04 3965ZM1757.06 3517.12 1873.06 3517.12 1873.06 3965 1757.06 3965Z" fill="#C00000"/></g><g><path d="M450.5 3965.5 1999.5 3965.5" stroke="#D9D9D9" stroke-width="3.4375" stroke-linejoin="round" stroke-miterlimit="10" fill="none" fill-rule="evenodd"/></g><g><text font-family="Arial,Arial_MSFontService,sans-serif" font-weight="400" font-size="46" transform="matrix(1 0 0 1 583.047 3591)">2,3%</text></g><g><text font-family="Arial,Arial_MSFontService,sans-serif" font-weight="400" font-size="46" transform="matrix(1 0 0 1 1099.44 3645)">1,9%</text></g><g><text font-family="Arial,Arial_MSFontService,sans-serif" font-weight="400" font-size="46" transform="matrix(1 0 0 1 1615.83 3610)">2,2%</text></g><g><text font-family="Arial,Arial_MSFontService,sans-serif" font-weight="400" font-size="46" transform="matrix(1 0 0 1 730.091 3702)">1,5%</text></g><g><text font-family="Arial,Arial_MSFontService,sans-serif" font-weight="400" font-size="46" transform="matrix(1 0 0 1 1246.48 3427)">3,4%</text></g><g><text font-family="Arial,Arial_MSFontService,sans-serif" font-weight="400" font-size="46" transform="matrix(1 0 0 1 1762.87 3486)">3,0%</text></g><g><text font-family="Arial,Arial_MSFontService,sans-serif" font-weight="400" font-size="50" transform="matrix(1 0 0 1 532.188 4042)">Inre marknaden</text></g><g><text font-family="Arial,Arial_MSFontService,sans-serif" font-weight="400" font-size="50" transform="matrix(1 0 0 1 1061.22 4042)">Övriga världen</text></g><g><text font-family="Arial,Arial_MSFontService,sans-serif" font-weight="400" font-size="50" transform="matrix(1 0 0 1 1600.01 4042)">Hela världen</text></g><g><text font-family="Arial,Arial_MSFontService,sans-serif" font-weight="700" font-size="64" transform="matrix(1 0 0 1 803.266 3186)">ÅRLIG TILLVÄXT 1998</text></g><g><text font-family="Arial,Arial_MSFontService,sans-serif" font-weight="700" font-size="64" transform="matrix(1 0 0 1 1483.02 3186)">-</text></g><g><text font-family="Arial,Arial_MSFontService,sans-serif" font-weight="700" font-size="64" transform="matrix(1 0 0 1 1504.38 3186)">2024</text></g><g><rect x="803.5" y="3261.5" width="23.0001" height="23" stroke="#002060" stroke-width="3.4375" stroke-linejoin="round" stroke-miterlimit="10" fill="#002060"/></g><g><text font-family="Arial,Arial_MSFontService,sans-serif" font-weight="400" font-size="46" transform="matrix(1 0 0 1 836.606 3288)">Svensk export</text></g><g><rect x="1195" y="3262" width="23" height="23" fill="#C00000"/></g><g><text font-family="Arial,Arial_MSFontService,sans-serif" font-weight="400" font-size="46" transform="matrix(1 0 0 1 1227.65 3288)">Bruttonationalprodukt</text></g></g></svg>