<svg width="1443" height="1833" xmlns="http://www.w3.org/2000/svg" xmlns:xlink="http://www.w3.org/1999/xlink" xml:space="preserve" overflow="hidden"><g transform="translate(-413 -1467)"><path d="M442.769 1687.23C847.743 2092.21 847.743 2748.8 442.769 3153.77L437.255 3148.26C839.184 2746.33 839.184 2094.67 437.255 1692.74Z" stroke="#0E4B66" stroke-width="6.875" stroke-miterlimit="8" fill="#00124D" fill-rule="evenodd"/><rect x="521.5" y="1705.5" width="1314" height="170" stroke="#FFFFFF" stroke-width="6.875" stroke-miterlimit="8" fill="#9E5937"/><text fill="#FFFFFF" font-family="Arial,Arial_MSFontService,sans-serif" font-weight="400" font-size="83" transform="matrix(1 0 0 1 920.37 1815)">Pack Size</text><path d="M433.5 1790.5C433.5 1742.45 472.675 1703.5 521 1703.5 569.325 1703.5 608.5 1742.45 608.5 1790.5 608.5 1838.55 569.325 1877.5 521 1877.5 472.675 1877.5 433.5 1838.55 433.5 1790.5Z" stroke="#00124D" stroke-width="6.875" stroke-miterlimit="8" fill="#FFFFFF" fill-rule="evenodd"/><rect x="647.5" y="1915.5" width="1188" height="170" stroke="#FFFFFF" stroke-width="6.875" stroke-miterlimit="8" fill="#9E5937"/><text fill="#FFFFFF" font-family="Arial,Arial_MSFontService,sans-serif" font-weight="400" font-size="83" transform="matrix(1 0 0 1 1047.11 2025)">Pack Type</text><path d="M560.5 2001C560.5 1952.68 599.675 1913.5 648 1913.5 696.325 1913.5 735.5 1952.68 735.5 2001 735.5 2049.32 696.325 2088.5 648 2088.5 599.675 2088.5 560.5 2049.32 560.5 2001Z" stroke="#00124D" stroke-width="6.875" stroke-miterlimit="8" fill="#FFFFFF" fill-rule="evenodd"/><rect x="717.5" y="2125.5" width="1118" height="170" stroke="#FFFFFF" stroke-width="6.875" stroke-miterlimit="8" fill="#156082"/><text fill="#FFFFFF" font-family="Arial,Arial_MSFontService,sans-serif" font-weight="400" font-size="83" transform="matrix(1 0 0 1 1116.57 2235)">Channel</text><path d="M629.5 2210C629.5 2161.68 668.675 2122.5 717 2122.5 765.325 2122.5 804.5 2161.68 804.5 2210 804.5 2258.33 765.325 2297.5 717 2297.5 668.675 2297.5 629.5 2258.33 629.5 2210Z" stroke="#00124D" stroke-width="6.875" stroke-miterlimit="8" fill="#FFFFFF" fill-rule="evenodd"/><rect x="739.5" y="2335.5" width="1096" height="170" stroke="#FFFFFF" stroke-width="6.875" stroke-miterlimit="8" fill="#326A45"/><text fill="#FFFFFF" font-family="Arial,Arial_MSFontService,sans-serif" font-weight="400" font-size="83" transform="matrix(1 0 0 1 1138.74 2445)">Provenance</text><path d="M651.5 2420.5C651.5 2372.45 690.675 2333.5 739 2333.5 787.325 2333.5 826.5 2372.45 826.5 2420.5 826.5 2468.55 787.325 2507.5 739 2507.5 690.675 2507.5 651.5 2468.55 651.5 2420.5Z" stroke="#00124D" stroke-width="6.875" stroke-miterlimit="8" fill="#FFFFFF" fill-rule="evenodd"/><rect x="717.5" y="2545.5" width="1118" height="170" stroke="#FFFFFF" stroke-width="6.875" stroke-miterlimit="8" fill="#326A45"/><text fill="#FFFFFF" font-family="Arial,Arial_MSFontService,sans-serif" font-weight="400" font-size="83" transform="matrix(1 0 0 1 1116.57 2655)">Formulation</text><path d="M629.5 2631C629.5 2582.68 668.675 2543.5 717 2543.5 765.325 2543.5 804.5 2582.68 804.5 2631 804.5 2679.32 765.325 2718.5 717 2718.5 668.675 2718.5 629.5 2679.32 629.5 2631Z" stroke="#00124D" stroke-width="6.875" stroke-miterlimit="8" fill="#FFFFFF" fill-rule="evenodd"/><rect x="647.5" y="2755.5" width="1188" height="170" stroke="#FFFFFF" stroke-width="6.875" stroke-miterlimit="8" fill="#521C30"/><text fill="#FFFFFF" font-family="Arial,Arial_MSFontService,sans-serif" font-weight="400" font-size="83" transform="matrix(1 0 0 1 1047.11 2865)">Price Ladder</text><path d="M560.5 2840C560.5 2791.68 599.675 2752.5 648 2752.5 696.325 2752.5 735.5 2791.68 735.5 2840 735.5 2888.32 696.325 2927.5 648 2927.5 599.675 2927.5 560.5 2888.32 560.5 2840Z" stroke="#00124D" stroke-width="6.875" stroke-miterlimit="8" fill="#FFFFFF" fill-rule="evenodd"/><rect x="521.5" y="2965.5" width="1314" height="170" stroke="#FFFFFF" stroke-width="6.875" stroke-miterlimit="8" fill="#521C30"/><text fill="#FFFFFF" font-family="Arial,Arial_MSFontService,sans-serif" font-weight="400" font-size="83" transform="matrix(1 0 0 1 920.37 3075)">Price / Promo</text><path d="M433.5 3050.5C433.5 3002.45 472.675 2963.5 521 2963.5 569.325 2963.5 608.5 3002.45 608.5 3050.5 608.5 3098.55 569.325 3137.5 521 3137.5 472.675 3137.5 433.5 3098.55 433.5 3050.5Z" stroke="#00124D" stroke-width="6.875" stroke-miterlimit="8" fill="#FFFFFF" fill-rule="evenodd"/><text fill="#00124D" font-family="Arial,Arial_MSFontService,sans-serif" font-weight="700" font-size="83" transform="matrix(1 0 0 1 469.454 3080)">VII</text><text fill="#00124D" font-family="Arial,Arial_MSFontService,sans-serif" font-weight="700" font-size="83" transform="matrix(1 0 0 1 607.17 2869)">VI</text><text fill="#00124D" font-family="Arial,Arial_MSFontService,sans-serif" font-weight="700" font-size="83" transform="matrix(1 0 0 1 686.993 2663)">V</text><text fill="#00124D" font-family="Arial,Arial_MSFontService,sans-serif" font-weight="700" font-size="83" transform="matrix(1 0 0 1 703.478 2449)">IV</text><text fill="#00124D" font-family="Arial,Arial_MSFontService,sans-serif" font-weight="700" font-size="83" transform="matrix(1 0 0 1 684.701 2237)">III</text><text fill="#00124D" font-family="Arial,Arial_MSFontService,sans-serif" font-weight="700" font-size="83" transform="matrix(1 0 0 1 624.845 2030)">II</text><text fill="#00124D" font-family="Arial,Arial_MSFontService,sans-serif" font-weight="700" font-size="83" transform="matrix(1 0 0 1 507.759 1823)">I</text><text font-family="Arial,Arial_MSFontService,sans-serif" font-weight="700" font-size="92" transform="matrix(1 0 0 1 582.874 1584)">FMCG DEMAND LEVERS</text><text font-family="Arial,Arial_MSFontService,sans-serif" font-weight="400" font-size="64" transform="matrix(1 0 0 1 777.682 3246)">Source: Tellusant thought</text></g></svg>