<svg width="1745" height="1277" xmlns="http://www.w3.org/2000/svg" xmlns:xlink="http://www.w3.org/1999/xlink" xml:space="preserve" overflow="hidden"><defs><clipPath id="clip0"><rect x="419" y="2113" width="1745" height="1277"/></clipPath></defs><g clip-path="url(#clip0)" transform="translate(-419 -2113)"><rect x="419" y="2113" width="1745" height="1145" fill="#FFFFFF"/><g><path d="M875.529 2526.5 875.529 3149.5M1048.53 2526.5 1048.53 3149.5M1221.54 2526.5 1221.54 3149.5M1394.55 2526.5 1394.55 3149.5M1568.55 2526.5 1568.55 3149.5M1741.56 2526.5 1741.56 3149.5M1914.56 2526.5 1914.56 3149.5M2087.5 2526.5 2087.5 3149.5" stroke="#D9D9D9" stroke-width="3.4375" stroke-linejoin="round" stroke-miterlimit="10" fill="none"/></g><g><path d="M0 0 0.000360892 623" stroke="#D9D9D9" stroke-width="3.4375" stroke-linejoin="round" stroke-miterlimit="10" fill="none" fill-rule="evenodd" transform="matrix(1 0 0 -1 702.5 3149.5)"/></g><g><path d="M1171.5 3118.6 702.5 3118.6M702.5 3107.5 702.5 3128.5" stroke="#D9D9D9" stroke-width="3.4375" stroke-linejoin="round" stroke-miterlimit="10" fill="none"/></g><g><path d="M1367.5 3055.6 702.5 3055.6M702.5 3045.5 702.5 3066.5" stroke="#D9D9D9" stroke-width="3.4375" stroke-linejoin="round" stroke-miterlimit="10" fill="none"/></g><g><path d="M1140.5 2993.6 702.5 2993.6M702.5 2983.5 702.5 3003.5" stroke="#D9D9D9" stroke-width="3.4375" stroke-linejoin="round" stroke-miterlimit="10" fill="none"/></g><g><path d="M1299.5 2931.6 702.5 2931.6M702.5 2920.5 702.5 2941.5" stroke="#D9D9D9" stroke-width="3.4375" stroke-linejoin="round" stroke-miterlimit="10" fill="none"/></g><g><path d="M1812.5 2868.59 702.5 2868.59M702.5 2858.5 702.5 2879.5" stroke="#D9D9D9" stroke-width="3.4375" stroke-linejoin="round" stroke-miterlimit="10" fill="none"/></g><g><path d="M1289.5 2806.59 702.5 2806.59M702.5 2796.5 702.5 2816.5" stroke="#D9D9D9" stroke-width="3.4375" stroke-linejoin="round" stroke-miterlimit="10" fill="none"/></g><g><path d="M1306.5 2744.59 702.5 2744.59M702.5 2734.5 702.5 2754.5" stroke="#D9D9D9" stroke-width="3.4375" stroke-linejoin="round" stroke-miterlimit="10" fill="none"/></g><g><path d="M1682.5 2681.59 702.5 2681.59M702.5 2671.5 702.5 2692.5" stroke="#D9D9D9" stroke-width="3.4375" stroke-linejoin="round" stroke-miterlimit="10" fill="none"/></g><g><path d="M1375.5 2619.59 702.5 2619.59M702.5 2609.5 702.5 2630.5" stroke="#D9D9D9" stroke-width="3.4375" stroke-linejoin="round" stroke-miterlimit="10" fill="none"/></g><g><path d="M1745.5 2557.58 702.5 2557.58M702.5 2547.5 702.5 2567.5" stroke="#D9D9D9" stroke-width="3.4375" stroke-linejoin="round" stroke-miterlimit="10" fill="none"/></g><g><path d="M1078.5 3118.6 702.5 3118.6M702.5 3107.5 702.5 3128.5" stroke="#D9D9D9" stroke-width="3.4375" stroke-linejoin="round" stroke-miterlimit="10" fill="none"/></g><g><path d="M1211.5 3055.6 702.5 3055.6M702.5 3045.5 702.5 3066.5" stroke="#D9D9D9" stroke-width="3.4375" stroke-linejoin="round" stroke-miterlimit="10" fill="none"/></g><g><path d="M1328.5 2993.6 702.5 2993.6M702.5 2983.5 702.5 3003.5" stroke="#D9D9D9" stroke-width="3.4375" stroke-linejoin="round" stroke-miterlimit="10" fill="none"/></g><g><path d="M1154.5 2931.6 702.5 2931.6M702.5 2920.5 702.5 2941.5" stroke="#D9D9D9" stroke-width="3.4375" stroke-linejoin="round" stroke-miterlimit="10" fill="none"/></g><g><path d="M1633.5 2868.59 702.5 2868.59M702.5 2858.5 702.5 2879.5" stroke="#D9D9D9" stroke-width="3.4375" stroke-linejoin="round" stroke-miterlimit="10" fill="none"/></g><g><path d="M1394.5 2806.59 702.5 2806.59M702.5 2796.5 702.5 2816.5" stroke="#D9D9D9" stroke-width="3.4375" stroke-linejoin="round" stroke-miterlimit="10" fill="none"/></g><g><path d="M1528.5 2744.59 702.5 2744.59M702.5 2734.5 702.5 2754.5" stroke="#D9D9D9" stroke-width="3.4375" stroke-linejoin="round" stroke-miterlimit="10" fill="none"/></g><g><path d="M1950.5 2681.59 702.5 2681.59M702.5 2671.5 702.5 2692.5" stroke="#D9D9D9" stroke-width="3.4375" stroke-linejoin="round" stroke-miterlimit="10" fill="none"/></g><g><path d="M1794.5 2619.59 702.5 2619.59M702.5 2609.5 702.5 2630.5" stroke="#D9D9D9" stroke-width="3.4375" stroke-linejoin="round" stroke-miterlimit="10" fill="none"/></g><g><path d="M1245.5 2557.58 702.5 2557.58M702.5 2547.5 702.5 2567.5" stroke="#D9D9D9" stroke-width="3.4375" stroke-linejoin="round" stroke-miterlimit="10" fill="none"/></g><g><path d="M1062.25 3118.25C1062.25 3124.33 1057.32 3129.25 1051.25 3129.25 1045.17 3129.25 1040.25 3124.33 1040.25 3118.25 1040.25 3112.18 1045.17 3107.25 1051.25 3107.25 1057.32 3107.25 1062.25 3112.18 1062.25 3118.25Z" stroke="#C00000" stroke-width="11.4583" stroke-linejoin="round" stroke-miterlimit="10" fill="#C00000"/><path d="M1072.25 3055.25C1072.25 3061.33 1067.32 3066.25 1061.25 3066.25 1055.17 3066.25 1050.25 3061.33 1050.25 3055.25 1050.25 3049.18 1055.17 3044.25 1061.25 3044.25 1067.32 3044.25 1072.25 3049.18 1072.25 3055.25Z" stroke="#C00000" stroke-width="11.4583" stroke-linejoin="round" stroke-miterlimit="10" fill="#C00000"/><path d="M1093.25 2993.25C1093.25 2999.33 1088.32 3004.25 1082.25 3004.25 1076.17 3004.25 1071.25 2999.33 1071.25 2993.25 1071.25 2987.18 1076.17 2982.25 1082.25 2982.25 1088.32 2982.25 1093.25 2987.18 1093.25 2993.25Z" stroke="#C00000" stroke-width="11.4583" stroke-linejoin="round" stroke-miterlimit="10" fill="#C00000"/><path d="M1158.25 2931.25C1158.25 2937.33 1153.32 2942.25 1147.25 2942.25 1141.17 2942.25 1136.25 2937.33 1136.25 2931.25 1136.25 2925.18 1141.17 2920.25 1147.25 2920.25 1153.32 2920.25 1158.25 2925.18 1158.25 2931.25Z" stroke="#C00000" stroke-width="11.4583" stroke-linejoin="round" stroke-miterlimit="10" fill="#C00000"/><path d="M1168.25 2868.25C1168.25 2874.33 1163.32 2879.25 1157.25 2879.25 1151.17 2879.25 1146.25 2874.33 1146.25 2868.25 1146.25 2862.18 1151.17 2857.25 1157.25 2857.25 1163.32 2857.25 1168.25 2862.18 1168.25 2868.25Z" stroke="#C00000" stroke-width="11.4583" stroke-linejoin="round" stroke-miterlimit="10" fill="#C00000"/><path d="M1188.25 2806.25C1188.25 2812.33 1183.32 2817.25 1177.25 2817.25 1171.17 2817.25 1166.25 2812.33 1166.25 2806.25 1166.25 2800.18 1171.17 2795.25 1177.25 2795.25 1183.32 2795.25 1188.25 2800.18 1188.25 2806.25Z" stroke="#C00000" stroke-width="11.4583" stroke-linejoin="round" stroke-miterlimit="10" fill="#C00000"/><path d="M1215.25 2744.25C1215.25 2750.33 1210.32 2755.25 1204.25 2755.25 1198.17 2755.25 1193.25 2750.33 1193.25 2744.25 1193.25 2738.18 1198.17 2733.25 1204.25 2733.25 1210.32 2733.25 1215.25 2738.18 1215.25 2744.25Z" stroke="#C00000" stroke-width="11.4583" stroke-linejoin="round" stroke-miterlimit="10" fill="#C00000"/><path d="M1415.25 2682.25C1415.25 2688.33 1410.32 2693.25 1404.25 2693.25 1398.17 2693.25 1393.25 2688.33 1393.25 2682.25 1393.25 2676.18 1398.17 2671.25 1404.25 2671.25 1410.32 2671.25 1415.25 2676.18 1415.25 2682.25Z" stroke="#C00000" stroke-width="11.4583" stroke-linejoin="round" stroke-miterlimit="10" fill="#C00000"/><path d="M1619.25 2619.25C1619.25 2625.33 1614.32 2630.25 1608.25 2630.25 1602.17 2630.25 1597.25 2625.33 1597.25 2619.25 1597.25 2613.18 1602.17 2608.25 1608.25 2608.25 1614.32 2608.25 1619.25 2613.18 1619.25 2619.25Z" stroke="#C00000" stroke-width="11.4583" stroke-linejoin="round" stroke-miterlimit="10" fill="#C00000"/><path d="M1682.25 2557.25C1682.25 2563.33 1677.32 2568.25 1671.25 2568.25 1665.17 2568.25 1660.25 2563.33 1660.25 2557.25 1660.25 2551.18 1665.17 2546.25 1671.25 2546.25 1677.32 2546.25 1682.25 2551.18 1682.25 2557.25Z" stroke="#C00000" stroke-width="11.4583" stroke-linejoin="round" stroke-miterlimit="10" fill="#C00000"/></g><g><path d="M1182.25 3118.25C1182.25 3124.33 1177.32 3129.25 1171.25 3129.25 1165.17 3129.25 1160.25 3124.33 1160.25 3118.25 1160.25 3112.18 1165.17 3107.25 1171.25 3107.25 1177.32 3107.25 1182.25 3112.18 1182.25 3118.25Z" stroke="#002060" stroke-width="11.4583" stroke-linejoin="round" stroke-miterlimit="10" fill="#002060"/><path d="M1378.25 3055.25C1378.25 3061.33 1373.32 3066.25 1367.25 3066.25 1361.17 3066.25 1356.25 3061.33 1356.25 3055.25 1356.25 3049.18 1361.17 3044.25 1367.25 3044.25 1373.32 3044.25 1378.25 3049.18 1378.25 3055.25Z" stroke="#002060" stroke-width="11.4583" stroke-linejoin="round" stroke-miterlimit="10" fill="#002060"/><path d="M1151.25 2993.25C1151.25 2999.33 1146.32 3004.25 1140.25 3004.25 1134.17 3004.25 1129.25 2999.33 1129.25 2993.25 1129.25 2987.18 1134.17 2982.25 1140.25 2982.25 1146.32 2982.25 1151.25 2987.18 1151.25 2993.25Z" stroke="#002060" stroke-width="11.4583" stroke-linejoin="round" stroke-miterlimit="10" fill="#002060"/><path d="M1310.25 2931.25C1310.25 2937.33 1305.32 2942.25 1299.25 2942.25 1293.17 2942.25 1288.25 2937.33 1288.25 2931.25 1288.25 2925.18 1293.17 2920.25 1299.25 2920.25 1305.32 2920.25 1310.25 2925.18 1310.25 2931.25Z" stroke="#002060" stroke-width="11.4583" stroke-linejoin="round" stroke-miterlimit="10" fill="#002060"/><path d="M1823.25 2868.25C1823.25 2874.33 1818.32 2879.25 1812.25 2879.25 1806.17 2879.25 1801.25 2874.33 1801.25 2868.25 1801.25 2862.18 1806.17 2857.25 1812.25 2857.25 1818.32 2857.25 1823.25 2862.18 1823.25 2868.25Z" stroke="#002060" stroke-width="11.4583" stroke-linejoin="round" stroke-miterlimit="10" fill="#002060"/><path d="M1300.25 2806.25C1300.25 2812.33 1295.32 2817.25 1289.25 2817.25 1283.17 2817.25 1278.25 2812.33 1278.25 2806.25 1278.25 2800.18 1283.17 2795.25 1289.25 2795.25 1295.32 2795.25 1300.25 2800.18 1300.25 2806.25Z" stroke="#002060" stroke-width="11.4583" stroke-linejoin="round" stroke-miterlimit="10" fill="#002060"/><path d="M1317.25 2744.25C1317.25 2750.33 1312.32 2755.25 1306.25 2755.25 1300.17 2755.25 1295.25 2750.33 1295.25 2744.25 1295.25 2738.18 1300.17 2733.25 1306.25 2733.25 1312.32 2733.25 1317.25 2738.18 1317.25 2744.25Z" stroke="#002060" stroke-width="11.4583" stroke-linejoin="round" stroke-miterlimit="10" fill="#002060"/><path d="M1693.25 2682.25C1693.25 2688.33 1688.32 2693.25 1682.25 2693.25 1676.17 2693.25 1671.25 2688.33 1671.25 2682.25 1671.25 2676.18 1676.17 2671.25 1682.25 2671.25 1688.32 2671.25 1693.25 2676.18 1693.25 2682.25Z" stroke="#002060" stroke-width="11.4583" stroke-linejoin="round" stroke-miterlimit="10" fill="#002060"/><path d="M1386.25 2619.25C1386.25 2625.33 1381.32 2630.25 1375.25 2630.25 1369.17 2630.25 1364.25 2625.33 1364.25 2619.25 1364.25 2613.18 1369.17 2608.25 1375.25 2608.25 1381.32 2608.25 1386.25 2613.18 1386.25 2619.25Z" stroke="#002060" stroke-width="11.4583" stroke-linejoin="round" stroke-miterlimit="10" fill="#002060"/><path d="M1756.25 2557.25C1756.25 2563.33 1751.32 2568.25 1745.25 2568.25 1739.17 2568.25 1734.25 2563.33 1734.25 2557.25 1734.25 2551.18 1739.17 2546.25 1745.25 2546.25 1751.32 2546.25 1756.25 2551.18 1756.25 2557.25Z" stroke="#002060" stroke-width="11.4583" stroke-linejoin="round" stroke-miterlimit="10" fill="#002060"/></g><g><path d="M1089.25 3118.25C1089.25 3124.33 1084.32 3129.25 1078.25 3129.25 1072.17 3129.25 1067.25 3124.33 1067.25 3118.25 1067.25 3112.18 1072.17 3107.25 1078.25 3107.25 1084.32 3107.25 1089.25 3112.18 1089.25 3118.25Z" stroke="#196B24" stroke-width="11.4583" stroke-linejoin="round" stroke-miterlimit="10" fill="#196B24"/><path d="M1222.25 3055.25C1222.25 3061.33 1217.32 3066.25 1211.25 3066.25 1205.17 3066.25 1200.25 3061.33 1200.25 3055.25 1200.25 3049.18 1205.17 3044.25 1211.25 3044.25 1217.32 3044.25 1222.25 3049.18 1222.25 3055.25Z" stroke="#196B24" stroke-width="11.4583" stroke-linejoin="round" stroke-miterlimit="10" fill="#196B24"/><path d="M1339.25 2993.25C1339.25 2999.33 1334.32 3004.25 1328.25 3004.25 1322.17 3004.25 1317.25 2999.33 1317.25 2993.25 1317.25 2987.18 1322.17 2982.25 1328.25 2982.25 1334.32 2982.25 1339.25 2987.18 1339.25 2993.25Z" stroke="#196B24" stroke-width="11.4583" stroke-linejoin="round" stroke-miterlimit="10" fill="#196B24"/><path d="M1165.25 2931.25C1165.25 2937.33 1160.32 2942.25 1154.25 2942.25 1148.17 2942.25 1143.25 2937.33 1143.25 2931.25 1143.25 2925.18 1148.17 2920.25 1154.25 2920.25 1160.32 2920.25 1165.25 2925.18 1165.25 2931.25Z" stroke="#196B24" stroke-width="11.4583" stroke-linejoin="round" stroke-miterlimit="10" fill="#196B24"/><path d="M1644.25 2868.25C1644.25 2874.33 1639.32 2879.25 1633.25 2879.25 1627.17 2879.25 1622.25 2874.33 1622.25 2868.25 1622.25 2862.18 1627.17 2857.25 1633.25 2857.25 1639.32 2857.25 1644.25 2862.18 1644.25 2868.25Z" stroke="#196B24" stroke-width="11.4583" stroke-linejoin="round" stroke-miterlimit="10" fill="#196B24"/><path d="M1405.25 2806.25C1405.25 2812.33 1400.32 2817.25 1394.25 2817.25 1388.17 2817.25 1383.25 2812.33 1383.25 2806.25 1383.25 2800.18 1388.17 2795.25 1394.25 2795.25 1400.32 2795.25 1405.25 2800.18 1405.25 2806.25Z" stroke="#196B24" stroke-width="11.4583" stroke-linejoin="round" stroke-miterlimit="10" fill="#196B24"/><path d="M1539.25 2744.25C1539.25 2750.33 1534.32 2755.25 1528.25 2755.25 1522.17 2755.25 1517.25 2750.33 1517.25 2744.25 1517.25 2738.18 1522.17 2733.25 1528.25 2733.25 1534.32 2733.25 1539.25 2738.18 1539.25 2744.25Z" stroke="#196B24" stroke-width="11.4583" stroke-linejoin="round" stroke-miterlimit="10" fill="#196B24"/><path d="M1961.25 2682.25C1961.25 2688.33 1956.32 2693.25 1950.25 2693.25 1944.17 2693.25 1939.25 2688.33 1939.25 2682.25 1939.25 2676.18 1944.17 2671.25 1950.25 2671.25 1956.32 2671.25 1961.25 2676.18 1961.25 2682.25Z" stroke="#196B24" stroke-width="11.4583" stroke-linejoin="round" stroke-miterlimit="10" fill="#196B24"/><path d="M1805.25 2619.25C1805.25 2625.33 1800.32 2630.25 1794.25 2630.25 1788.17 2630.25 1783.25 2625.33 1783.25 2619.25 1783.25 2613.18 1788.17 2608.25 1794.25 2608.25 1800.32 2608.25 1805.25 2613.18 1805.25 2619.25Z" stroke="#196B24" stroke-width="11.4583" stroke-linejoin="round" stroke-miterlimit="10" fill="#196B24"/><path d="M1256.25 2557.25C1256.25 2563.33 1251.32 2568.25 1245.25 2568.25 1239.17 2568.25 1234.25 2563.33 1234.25 2557.25 1234.25 2551.18 1239.17 2546.25 1245.25 2546.25 1251.32 2546.25 1256.25 2551.18 1256.25 2557.25Z" stroke="#196B24" stroke-width="11.4583" stroke-linejoin="round" stroke-miterlimit="10" fill="#196B24"/></g><g><text font-family="Arial,Arial_MSFontService,sans-serif" font-weight="400" font-size="46" transform="matrix(1 0 0 1 689.346 3219)">0</text></g><g><text font-family="Arial,Arial_MSFontService,sans-serif" font-weight="400" font-size="46" transform="matrix(1 0 0 1 849.837 3219)">10</text></g><g><text font-family="Arial,Arial_MSFontService,sans-serif" font-weight="400" font-size="46" transform="matrix(1 0 0 1 1023.07 3219)">20</text></g><g><text font-family="Arial,Arial_MSFontService,sans-serif" font-weight="400" font-size="46" transform="matrix(1 0 0 1 1196.3 3219)">30</text></g><g><text font-family="Arial,Arial_MSFontService,sans-serif" font-weight="400" font-size="46" transform="matrix(1 0 0 1 1369.54 3219)">40</text></g><g><text font-family="Arial,Arial_MSFontService,sans-serif" font-weight="400" font-size="46" transform="matrix(1 0 0 1 1542.77 3219)">50</text></g><g><text font-family="Arial,Arial_MSFontService,sans-serif" font-weight="400" font-size="46" transform="matrix(1 0 0 1 1716 3219)">60</text></g><g><text font-family="Arial,Arial_MSFontService,sans-serif" font-weight="400" font-size="46" transform="matrix(1 0 0 1 1889.23 3219)">70</text></g><g><text font-family="Arial,Arial_MSFontService,sans-serif" font-weight="400" font-size="46" transform="matrix(1 0 0 1 2062.47 3219)">80</text></g><g><text font-family="Arial,Arial_MSFontService,sans-serif" font-weight="400" font-size="50" transform="matrix(1 0 0 1 454.129 3135)">Danmark</text></g><g><text font-family="Arial,Arial_MSFontService,sans-serif" font-weight="400" font-size="50" transform="matrix(1 0 0 1 482.179 3072)">Storbrit.</text></g><g><text font-family="Arial,Arial_MSFontService,sans-serif" font-weight="400" font-size="50" transform="matrix(1 0 0 1 487.725 3010)">Sverige</text></g><g><text font-family="Arial,Arial_MSFontService,sans-serif" font-weight="400" font-size="50" transform="matrix(1 0 0 1 555.054 2948)">USA</text></g><g><text font-family="Arial,Arial_MSFontService,sans-serif" font-weight="400" font-size="50" transform="matrix(1 0 0 1 456.925 2885)">Tyskland</text></g><g><text font-family="Arial,Arial_MSFontService,sans-serif" font-weight="400" font-size="50" transform="matrix(1 0 0 1 521.344 2823)">Norge</text></g><g><text font-family="Arial,Arial_MSFontService,sans-serif" font-weight="400" font-size="50" transform="matrix(1 0 0 1 493.294 2761)">Finland</text></g><g><text font-family="Arial,Arial_MSFontService,sans-serif" font-weight="400" font-size="50" transform="matrix(1 0 0 1 448.538 2698)">Frankrike</text></g><g><text font-family="Arial,Arial_MSFontService,sans-serif" font-weight="400" font-size="50" transform="matrix(1 0 0 1 465.312 2636)">Brasilien</text></g><g><text font-family="Arial,Arial_MSFontService,sans-serif" font-weight="400" font-size="50" transform="matrix(1 0 0 1 521.298 2574)">Indien</text></g><g><text font-family="Arial,Arial_MSFontService,sans-serif" font-weight="700" font-size="64" transform="matrix(1 0 0 1 641.954 2207)">KULTURELLA DIMENSIONER FÖR NÅGRA </text></g><g><text font-family="Arial,Arial_MSFontService,sans-serif" font-weight="700" font-size="64" transform="matrix(1 0 0 1 887.85 2281)">VIKTIGA EXPORTLÄNDER</text></g><g><text font-family="Arial,Arial_MSFontService,sans-serif" font-weight="400" font-size="60" transform="matrix(1 0 0 1 1028.03 2350)">Min. = 0 Max. = 100</text></g><g><text font-family="Arial,Arial_MSFontService,sans-serif" font-weight="400" font-size="46" transform="matrix(1 0 0 1 835.046 2452)">CultDist1</text></g><g><path d="M1092 2436C1092 2442.07 1087.07 2447 1081 2447 1074.92 2447 1070 2442.07 1070 2436 1070 2429.92 1074.92 2425 1081 2425 1087.07 2425 1092 2429.92 1092 2436Z" stroke="#C00000" stroke-width="11.4583" stroke-linejoin="round" stroke-miterlimit="10" fill="#C00000"/></g><g><text font-family="Arial,Arial_MSFontService,sans-serif" font-weight="400" font-size="46" transform="matrix(1 0 0 1 1103.05 2452)">Struktur</text></g><g><path d="M1335 2436C1335 2442.07 1330.07 2447 1324 2447 1317.92 2447 1313 2442.07 1313 2436 1313 2429.92 1317.92 2425 1324 2425 1330.07 2425 1335 2429.92 1335 2436Z" stroke="#002060" stroke-width="11.4583" stroke-linejoin="round" stroke-miterlimit="10" fill="#002060"/></g><g><text font-family="Arial,Arial_MSFontService,sans-serif" font-weight="400" font-size="46" transform="matrix(1 0 0 1 1345.61 2452)">Planering</text></g><g><path d="M1610 2436C1610 2442.07 1605.07 2447 1599 2447 1592.92 2447 1588 2442.07 1588 2436 1588 2429.92 1592.92 2425 1599 2425 1605.07 2425 1610 2429.92 1610 2436Z" stroke="#196B24" stroke-width="11.4583" stroke-linejoin="round" stroke-miterlimit="10" fill="#196B24"/></g><g><text font-family="Arial,Arial_MSFontService,sans-serif" font-weight="400" font-size="46" transform="matrix(1 0 0 1 1621.31 2452)">Stabilitet</text></g><rect x="801" y="2404" width="231" height="88" fill="#FFFFFF"/><text font-family="Arial,Arial_MSFontService,sans-serif" font-weight="400" font-size="46" transform="matrix(1 0 0 1 672.156 3352)">Källa: TelluBase (cultural markers section)</text></g></svg>