<svg width="1752" height="1529" xmlns="http://www.w3.org/2000/svg" xmlns:xlink="http://www.w3.org/1999/xlink" xml:space="preserve" overflow="hidden"><g transform="translate(-321 -553)"><path d="M606.252 558 1787.75 558C1942.53 558 2068 898.04 2068 1317.5 2068 1736.96 1942.53 2077 1787.75 2077L606.252 2077C451.473 2077 326 1736.96 326 1317.5 326 898.04 451.473 558 606.252 558Z" stroke="#042433" stroke-width="10.3125" stroke-miterlimit="8" fill="#F2F2F2" fill-rule="evenodd"/><text font-family="Arial,Arial_MSFontService,sans-serif" font-weight="700" font-size="101" transform="matrix(1 0 0 1 574.537 758)">THE POLUSIM UNIVERSE</text><path d="M1296.88 1455.61 1067.18 1276.9 1073.51 1268.76 1303.21 1447.47ZM1064.92 1288.21 1050 1257 1083.92 1263.79Z"/><path d="M587.18 868 1034.82 868C1093.46 868 1141 955.081 1141 1062.5 1141 1169.92 1093.46 1257 1034.82 1257L587.18 1257C528.539 1257 481 1169.92 481 1062.5 481 955.081 528.539 868 587.18 868Z" fill="#00124D" fill-rule="evenodd"/><text fill="#FFFFFF" font-family="Arial,Arial_MSFontService,sans-serif" font-weight="700" font-size="83" transform="matrix(1 0 0 1 634.792 1043)">Strategic</text><text fill="#FFFFFF" font-family="Arial,Arial_MSFontService,sans-serif" font-weight="700" font-size="83" transform="matrix(1 0 0 1 577.5 1142)">Forecasting</text><path d="M1358.18 868 1805.82 868C1864.46 868 1912 955.081 1912 1062.5 1912 1169.92 1864.46 1257 1805.82 1257L1358.18 1257C1299.54 1257 1252 1169.92 1252 1062.5 1252 955.081 1299.54 868 1358.18 868Z" fill="#00124D" fill-rule="evenodd"/><text fill="#FFFFFF" font-family="Arial,Arial_MSFontService,sans-serif" font-weight="700" font-size="83" transform="matrix(1 0 0 1 1405.81 1043)">Strategic</text><text fill="#FFFFFF" font-family="Arial,Arial_MSFontService,sans-serif" font-weight="700" font-size="83" transform="matrix(1 0 0 1 1442.48 1142)">Pricing</text><path d="M587.18 1404 1034.82 1404C1093.46 1404 1141 1491.08 1141 1598.5 1141 1705.92 1093.46 1793 1034.82 1793L587.18 1793C528.539 1793 481 1705.92 481 1598.5 481 1491.08 528.539 1404 587.18 1404Z" fill="#00124D" fill-rule="evenodd"/><text fill="#FFFFFF" font-family="Arial,Arial_MSFontService,sans-serif" font-weight="700" font-size="83" transform="matrix(1 0 0 1 600.417 1579)">Short</text><text fill="#FFFFFF" font-family="Arial,Arial_MSFontService,sans-serif" font-weight="700" font-size="83" transform="matrix(1 0 0 1 815.833 1579)">-</text><text fill="#FFFFFF" font-family="Arial,Arial_MSFontService,sans-serif" font-weight="700" font-size="83" transform="matrix(1 0 0 1 843.333 1579)">term</text><text fill="#FFFFFF" font-family="Arial,Arial_MSFontService,sans-serif" font-weight="700" font-size="83" transform="matrix(1 0 0 1 577.5 1678)">Forecasting</text><path d="M1358.18 1404 1805.82 1404C1864.46 1404 1912 1491.08 1912 1598.5 1912 1705.92 1864.46 1793 1805.82 1793L1358.18 1793C1299.54 1793 1252 1705.92 1252 1598.5 1252 1491.08 1299.54 1404 1358.18 1404Z" fill="#C57B57" fill-rule="evenodd"/><text fill="#FFFFFF" font-family="Arial,Arial_MSFontService,sans-serif" font-weight="700" font-size="83" transform="matrix(1 0 0 1 1390.54 1629)">TelluBase</text><path d="M5.15625-1.26876e-05 5.15655 120.885-5.15595 120.885-5.15625 1.26876e-05ZM15.469 115.729 0.000360892 146.667-15.4685 115.729Z" transform="matrix(1 0 0 -1 1582 1403.67)"/><path d="M1.67616e-05-5.15625 85.2372-5.15597 85.2372 5.15653-1.67616e-05 5.15625ZM80.081-15.4685 111.018 0.000360892 80.0809 15.469Z" transform="matrix(-1 0 0 1 1252.02 1598)"/><text font-family="Arial,Arial_MSFontService,sans-serif" font-weight="700" font-size="101" transform="matrix(1 0 0 1 809.748 1976)">BY TELLUSANT</text></g></svg>