<svg width="1650" height="1093" xmlns="http://www.w3.org/2000/svg" xmlns:xlink="http://www.w3.org/1999/xlink" xml:space="preserve" overflow="hidden"><defs><clipPath id="clip0"><rect x="425" y="823" width="1650" height="1093"/></clipPath></defs><g clip-path="url(#clip0)" transform="translate(-425 -823)"><g><path d="M0 0 0.000360892 714" stroke="#D9D9D9" stroke-width="3.4375" stroke-linejoin="round" stroke-miterlimit="10" fill="none" fill-rule="evenodd" transform="matrix(1 0 0 -1 831.5 1779.5)"/></g><g><path d="M1215.5 1743.56 831.5 1743.56M831.5 1733.5 831.5 1754.5" stroke="#BFBFBF" stroke-width="9.16667" stroke-linejoin="round" stroke-miterlimit="10" fill="none"/></g><g><path d="M1239.5 1672.56 831.5 1672.56M831.5 1662.5 831.5 1682.5" stroke="#BFBFBF" stroke-width="9.16667" stroke-linejoin="round" stroke-miterlimit="10" fill="none"/></g><g><path d="M1300.5 1601.55 831.5 1601.55M831.5 1590.5 831.5 1611.5" stroke="#BFBFBF" stroke-width="9.16667" stroke-linejoin="round" stroke-miterlimit="10" fill="none"/></g><g><path d="M1348.5 1529.55 831.5 1529.55M831.5 1519.5 831.5 1540.5" stroke="#BFBFBF" stroke-width="9.16667" stroke-linejoin="round" stroke-miterlimit="10" fill="none"/></g><g><path d="M1359.5 1458.55 831.5 1458.55M831.5 1448.5 831.5 1468.5" stroke="#BFBFBF" stroke-width="9.16667" stroke-linejoin="round" stroke-miterlimit="10" fill="none"/></g><g><path d="M1494.5 1386.55 831.5 1386.55M831.5 1376.5 831.5 1397.5" stroke="#BFBFBF" stroke-width="9.16667" stroke-linejoin="round" stroke-miterlimit="10" fill="none"/></g><g><path d="M1503.5 1315.54 831.5 1315.54M831.5 1305.5 831.5 1325.5" stroke="#BFBFBF" stroke-width="9.16667" stroke-linejoin="round" stroke-miterlimit="10" fill="none"/></g><g><path d="M1721.5 1244.54 831.5 1244.54M831.5 1233.5 831.5 1254.5" stroke="#BFBFBF" stroke-width="9.16667" stroke-linejoin="round" stroke-miterlimit="10" fill="none"/></g><g><path d="M1793.5 1172.54 831.5 1172.54M831.5 1162.5 831.5 1183.5" stroke="#BFBFBF" stroke-width="9.16667" stroke-linejoin="round" stroke-miterlimit="10" fill="none"/></g><g><path d="M1838.5 1101.54 831.5 1101.54M831.5 1091.5 831.5 1111.5" stroke="#BFBFBF" stroke-width="9.16667" stroke-linejoin="round" stroke-miterlimit="10" fill="none"/></g><g><path d="M1226.31 1743.59C1226.31 1749.66 1221.39 1754.59 1215.31 1754.59 1209.24 1754.59 1204.31 1749.66 1204.31 1743.59 1204.31 1737.51 1209.24 1732.59 1215.31 1732.59 1221.39 1732.59 1226.31 1737.51 1226.31 1743.59Z" stroke="#002060" stroke-width="22.9167" stroke-linejoin="round" stroke-miterlimit="10" fill="#002060"/><path d="M1250.31 1672.59C1250.31 1678.66 1245.39 1683.59 1239.31 1683.59 1233.24 1683.59 1228.31 1678.66 1228.31 1672.59 1228.31 1666.51 1233.24 1661.59 1239.31 1661.59 1245.39 1661.59 1250.31 1666.51 1250.31 1672.59Z" stroke="#002060" stroke-width="22.9167" stroke-linejoin="round" stroke-miterlimit="10" fill="#002060"/><path d="M1311.31 1601.59C1311.31 1607.66 1306.39 1612.59 1300.31 1612.59 1294.24 1612.59 1289.31 1607.66 1289.31 1601.59 1289.31 1595.51 1294.24 1590.59 1300.31 1590.59 1306.39 1590.59 1311.31 1595.51 1311.31 1601.59Z" stroke="#002060" stroke-width="22.9167" stroke-linejoin="round" stroke-miterlimit="10" fill="#002060"/><path d="M1359.31 1529.59C1359.31 1535.66 1354.39 1540.59 1348.31 1540.59 1342.24 1540.59 1337.31 1535.66 1337.31 1529.59 1337.31 1523.51 1342.24 1518.59 1348.31 1518.59 1354.39 1518.59 1359.31 1523.51 1359.31 1529.59Z" stroke="#002060" stroke-width="22.9167" stroke-linejoin="round" stroke-miterlimit="10" fill="#002060"/><path d="M1370.31 1458.59C1370.31 1464.66 1365.39 1469.59 1359.31 1469.59 1353.24 1469.59 1348.31 1464.66 1348.31 1458.59 1348.31 1452.51 1353.24 1447.59 1359.31 1447.59 1365.39 1447.59 1370.31 1452.51 1370.31 1458.59Z" stroke="#002060" stroke-width="22.9167" stroke-linejoin="round" stroke-miterlimit="10" fill="#002060"/><path d="M1505.31 1386.59C1505.31 1392.66 1500.39 1397.59 1494.31 1397.59 1488.24 1397.59 1483.32 1392.66 1483.32 1386.59 1483.32 1380.51 1488.24 1375.59 1494.31 1375.59 1500.39 1375.59 1505.31 1380.51 1505.31 1386.59Z" stroke="#002060" stroke-width="22.9167" stroke-linejoin="round" stroke-miterlimit="10" fill="#002060"/><path d="M1514.31 1315.59C1514.31 1321.66 1509.39 1326.59 1503.31 1326.59 1497.24 1326.59 1492.31 1321.66 1492.31 1315.59 1492.31 1309.51 1497.24 1304.59 1503.31 1304.59 1509.39 1304.59 1514.31 1309.51 1514.31 1315.59Z" stroke="#002060" stroke-width="22.9167" stroke-linejoin="round" stroke-miterlimit="10" fill="#002060"/><path d="M1732.31 1244.59C1732.31 1250.66 1727.39 1255.59 1721.31 1255.59 1715.24 1255.59 1710.31 1250.66 1710.31 1244.59 1710.31 1238.51 1715.24 1233.59 1721.31 1233.59 1727.39 1233.59 1732.31 1238.51 1732.31 1244.59Z" stroke="#002060" stroke-width="22.9167" stroke-linejoin="round" stroke-miterlimit="10" fill="#002060"/><path d="M1804.31 1172.59C1804.31 1178.66 1799.39 1183.59 1793.31 1183.59 1787.24 1183.59 1782.32 1178.66 1782.32 1172.59 1782.32 1166.51 1787.24 1161.59 1793.31 1161.59 1799.39 1161.59 1804.31 1166.51 1804.31 1172.59Z" stroke="#002060" stroke-width="22.9167" stroke-linejoin="round" stroke-miterlimit="10" fill="#002060"/><path d="M1849.31 1101.59C1849.31 1107.66 1844.39 1112.59 1838.31 1112.59 1832.24 1112.59 1827.31 1107.66 1827.31 1101.59 1827.31 1095.51 1832.24 1090.59 1838.31 1090.59 1844.39 1090.59 1849.31 1095.51 1849.31 1101.59Z" stroke="#002060" stroke-width="22.9167" stroke-linejoin="round" stroke-miterlimit="10" fill="#002060"/></g><g><text font-family="Arial,Arial_MSFontService,sans-serif" font-weight="400" font-size="50" transform="matrix(1 0 0 1 1254.68 1762)">80,5</text></g><g><text font-family="Arial,Arial_MSFontService,sans-serif" font-weight="400" font-size="50" transform="matrix(1 0 0 1 1278.53 1690)">85,5</text></g><g><text font-family="Arial,Arial_MSFontService,sans-serif" font-weight="400" font-size="50" transform="matrix(1 0 0 1 1339.12 1619)">98,2</text></g><g><text font-family="Arial,Arial_MSFontService,sans-serif" font-weight="400" font-size="50" transform="matrix(1 0 0 1 1387.79 1548)">108,4</text></g><g><text font-family="Arial,Arial_MSFontService,sans-serif" font-weight="400" font-size="50" transform="matrix(1 0 0 1 1398.28 1476)">110,6</text></g><g><text font-family="Arial,Arial_MSFontService,sans-serif" font-weight="400" font-size="50" transform="matrix(1 0 0 1 1533.3 1405)">138,9</text></g><g><text font-family="Arial,Arial_MSFontService,sans-serif" font-weight="400" font-size="50" transform="matrix(1 0 0 1 1542.84 1334)">140,9</text></g><g><text font-family="Arial,Arial_MSFontService,sans-serif" font-weight="400" font-size="50" transform="matrix(1 0 0 1 1760.4 1262)">186,5</text></g><g><text font-family="Arial,Arial_MSFontService,sans-serif" font-weight="400" font-size="50" transform="matrix(1 0 0 1 1832.44 1191)">201,6</text></g><g><text font-family="Arial,Arial_MSFontService,sans-serif" font-weight="400" font-size="50" transform="matrix(1 0 0 1 1877.29 1120)">211,0</text></g><g><text font-family="Arial,Arial_MSFontService,sans-serif" font-weight="400" font-size="50" transform="matrix(1 0 0 1 659.298 1760)">Polen</text></g><g><text font-family="Arial,Arial_MSFontService,sans-serif" font-weight="400" font-size="50" transform="matrix(1 0 0 1 578.104 1689)">Frankrike</text></g><g><text font-family="Arial,Arial_MSFontService,sans-serif" font-weight="400" font-size="50" transform="matrix(1 0 0 1 620.042 1617)">Belgien</text></g><g><text font-family="Arial,Arial_MSFontService,sans-serif" font-weight="400" font-size="50" transform="matrix(1 0 0 1 454.606 1546)">Nederländerna</text></g><g><text font-family="Arial,Arial_MSFontService,sans-serif" font-weight="400" font-size="50" transform="matrix(1 0 0 1 474.291 1475)">Storbritannien</text></g><g><text font-family="Arial,Arial_MSFontService,sans-serif" font-weight="400" font-size="50" transform="matrix(1 0 0 1 622.861 1403)">Finland</text></g><g><text font-family="Arial,Arial_MSFontService,sans-serif" font-weight="400" font-size="50" transform="matrix(1 0 0 1 583.696 1332)">Danmark</text></g><g><text font-family="Arial,Arial_MSFontService,sans-serif" font-weight="400" font-size="50" transform="matrix(1 0 0 1 684.621 1261)">USA</text></g><g><text font-family="Arial,Arial_MSFontService,sans-serif" font-weight="400" font-size="50" transform="matrix(1 0 0 1 650.911 1189)">Norge</text></g><g><text font-family="Arial,Arial_MSFontService,sans-serif" font-weight="400" font-size="50" transform="matrix(1 0 0 1 586.492 1118)">Tyskland</text></g><g><text font-family="Arial,Arial_MSFontService,sans-serif" font-weight="700" font-size="64" transform="matrix(1 0 0 1 606.841 917)">SVERIGES EXPORT EFTER DESTINATION</text></g><g><text font-family="Aptos,Aptos_MSFontService,sans-serif" font-weight="400" font-size="60" transform="matrix(1 0 0 1 753.783 991)">10 </text></g><g><text font-family="Aptos,Aptos_MSFontService,sans-serif" font-weight="400" font-size="60" transform="matrix(1 0 0 1 829.546 991)">största</text></g><g><text font-family="Aptos,Aptos_MSFontService,sans-serif" font-weight="400" font-size="60" transform="matrix(1 0 0 1 1020.72 991)">handelspartners</text></g><g><text font-family="Aptos,Aptos_MSFontService,sans-serif" font-weight="400" font-size="60" transform="matrix(1 0 0 1 1456.2 991)">2024, </text></g><g><text font-family="Aptos,Aptos_MSFontService,sans-serif" font-weight="400" font-size="60" transform="matrix(1 0 0 1 1612.65 991)">mdkr</text></g><text font-family="Arial,Arial_MSFontService,sans-serif" font-weight="400" font-size="46" transform="matrix(1 0 0 1 837.467 1878)">Källa: SCB</text></g></svg>