<svg width="2049" height="1325" xmlns="http://www.w3.org/2000/svg" xmlns:xlink="http://www.w3.org/1999/xlink" xml:space="preserve" overflow="hidden"><g transform="translate(-209 -2169)"><path d="M209.815 2169.95 2257.94 2169.95 2257.94 2303.78 209.815 2303.78Z" fill="#00124D" fill-rule="evenodd"/><path d="M209.815 2848.28 2257.94 2848.28 2257.94 2982.12 209.815 2982.12Z" fill="#00124D" fill-rule="evenodd"/><text fill="#FFFFFF" font-family="Trebuchet MS,Trebuchet MS_MSFontService,sans-serif" font-weight="700" font-size="64" transform="matrix(1 0 0 1 624.109 2260)">CURRENT AI USES / AGENTS FOR CLIENTS</text><text font-family="Aptos,Aptos_MSFontService,sans-serif" font-weight="400" font-size="55" transform="matrix(1 0 0 1 639.339 2371)">This natural language agent works within TelluBase to generate </text><text font-family="Aptos,Aptos_MSFontService,sans-serif" font-weight="400" font-size="55" transform="matrix(1 0 0 1 639.339 2437)">data pulls easily</text><text font-family="Trebuchet MS,Trebuchet MS_MSFontService,sans-serif" font-weight="700" font-size="55" transform="matrix(1 0 0 1 242.815 2373)">AskTelluBase</text><text font-family="Aptos,Aptos_MSFontService,sans-serif" font-weight="400" font-size="55" transform="matrix(1 0 0 1 639.339 2536)">Stratboard is an automation tool for converting PoluSim data and </text><text font-family="Aptos,Aptos_MSFontService,sans-serif" font-weight="400" font-size="55" transform="matrix(1 0 0 1 639.339 2602)">forecasts to immediately usable PowerPoint slides</text><text font-family="Trebuchet MS,Trebuchet MS_MSFontService,sans-serif" font-weight="700" font-size="55" transform="matrix(1 0 0 1 242.815 2538)">StratboardAI</text><g><text font-family="Aptos,Aptos_MSFontService,sans-serif" font-weight="400" font-size="55" transform="matrix(1 0 0 1 639.339 2701)">FaqAI simplifies our help desk by being the first point of contact for </text></g><text font-family="Aptos,Aptos_MSFontService,sans-serif" font-weight="400" font-size="55" transform="matrix(1 0 0 1 639.339 2767)">client questions. It is embedded in PoluSim and TelluBase</text><text font-family="Trebuchet MS,Trebuchet MS_MSFontService,sans-serif" font-weight="700" font-size="55" transform="matrix(1 0 0 1 242.815 2703)">FaqAI</text><text fill="#FFFFFF" font-family="Aptos,Aptos_MSFontService,sans-serif" font-weight="700" font-size="64" transform="matrix(1 0 0 1 829.007 2936)">INTERNAL AI USES /AGENTS</text><text font-family="Aptos,Aptos_MSFontService,sans-serif" font-weight="400" font-size="55" transform="matrix(1 0 0 1 639.339 3050)">While we are good at linear algebra and differential equations, </text><text font-family="Aptos,Aptos_MSFontService,sans-serif" font-weight="400" font-size="55" transform="matrix(1 0 0 1 639.339 3116)">MathAssist speeds up problem solving and debugging 3x.</text><text font-family="Trebuchet MS,Trebuchet MS_MSFontService,sans-serif" font-weight="700" font-size="55" transform="matrix(1 0 0 1 242.815 3052)">MathAssist</text><text font-family="Aptos,Aptos_MSFontService,sans-serif" font-weight="400" font-size="55" transform="matrix(1 0 0 1 639.339 3215)">Our 1000s of TelluBase On</text><text font-family="Aptos,Aptos_MSFontService,sans-serif" font-weight="400" font-size="55" transform="matrix(1 0 0 1 1265.15 3215)">-</text><text font-family="Aptos,Aptos_MSFontService,sans-serif" font-weight="400" font-size="55" transform="matrix(1 0 0 1 1284.05 3215)">Demand landing pages for Google ads </text><text font-family="Aptos,Aptos_MSFontService,sans-serif" font-weight="400" font-size="55" transform="matrix(1 0 0 1 639.339 3281)">and other platforms are generated by a an inhouse</text><text font-family="Trebuchet MS,Trebuchet MS_MSFontService,sans-serif" font-weight="700" font-size="55" transform="matrix(1 0 0 1 242.815 3217)">LpGen</text><text font-family="Aptos,Aptos_MSFontService,sans-serif" font-weight="400" font-size="55" transform="matrix(1 0 0 1 639.339 3380)">Like almost all code</text><text font-family="Aptos,Aptos_MSFontService,sans-serif" font-weight="400" font-size="55" transform="matrix(1 0 0 1 1111.51 3380)">-</text><text font-family="Aptos,Aptos_MSFontService,sans-serif" font-weight="400" font-size="55" transform="matrix(1 0 0 1 1130.42 3380)">intense business, we find AI to be immensely </text><text font-family="Aptos,Aptos_MSFontService,sans-serif" font-weight="400" font-size="55" transform="matrix(1 0 0 1 639.339 3446)">helpful. PySupport is tuned to our needs</text><text font-family="Trebuchet MS,Trebuchet MS_MSFontService,sans-serif" font-weight="700" font-size="55" transform="matrix(1 0 0 1 242.815 3382)">PySupport</text></g></svg>