<svg width="1736" height="1201" xmlns="http://www.w3.org/2000/svg" xmlns:xlink="http://www.w3.org/1999/xlink" xml:space="preserve" overflow="hidden"><defs><clipPath id="clip0"><rect x="391" y="2122" width="1736" height="1201"/></clipPath></defs><g clip-path="url(#clip0)" transform="translate(-391 -2122)"><rect x="392" y="2123" width="1733" height="990" fill="#FFFFFF"/><g><path d="M1031.03 3056.1 1025 3056.1 1025 2986.1 1031.03 2986.1ZM1033.03 2945.1 1025 2945.1 1025 2875.09 1033.03 2875.09ZM1039.03 2835.09 1025 2835.09 1025 2764.09 1039.03 2764.09ZM1050.03 2724.09 1025 2724.09 1025 2654.09 1050.03 2654.09ZM1208.04 2613.09 1025 2613.09 1025 2543.08 1208.04 2543.08ZM1885.06 2503.08 1025 2503.08 1025 2432.08 1885.06 2432.08Z" fill="#002060"/></g><g><path d="M0 0 0.000360892 664" stroke="#D9D9D9" stroke-width="3.4375" stroke-linejoin="round" stroke-miterlimit="10" fill="none" fill-rule="evenodd" transform="matrix(1 0 0 -1 1024.5 3076.5)"/></g><g><text font-family="Arial,Arial_MSFontService,sans-serif" font-weight="400" font-size="50" transform="matrix(1 0 0 1 1058.39 3039)">14</text></g><g><text font-family="Arial,Arial_MSFontService,sans-serif" font-weight="400" font-size="50" transform="matrix(1 0 0 1 1060.55 2928)">19</text></g><g><text font-family="Arial,Arial_MSFontService,sans-serif" font-weight="400" font-size="50" transform="matrix(1 0 0 1 1066.16 2818)">33</text></g><g><text font-family="Arial,Arial_MSFontService,sans-serif" font-weight="400" font-size="50" transform="matrix(1 0 0 1 1077.71 2707)">60</text></g><g><text font-family="Arial,Arial_MSFontService,sans-serif" font-weight="400" font-size="50" transform="matrix(1 0 0 1 1235.25 2596)">437</text></g><g><text font-family="Arial,Arial_MSFontService,sans-serif" font-weight="400" font-size="50" transform="matrix(1 0 0 1 1912.82 2486)">2,055</text></g><g><text font-family="Arial,Arial_MSFontService,sans-serif" font-weight="400" font-size="50" transform="matrix(1 0 0 1 661.943 3037)">Oceanien (22)</text></g><g><text font-family="Arial,Arial_MSFontService,sans-serif" font-weight="400" font-size="50" transform="matrix(1 0 0 1 611.572 2927)">Sydamerika (30)</text></g><g><text font-family="Arial,Arial_MSFontService,sans-serif" font-weight="400" font-size="50" transform="matrix(1 0 0 1 569.52 2816)">Nordamerika* (45)</text></g><g><text font-family="Arial,Arial_MSFontService,sans-serif" font-weight="400" font-size="50" transform="matrix(1 0 0 1 748.934 2705)">Afrika (43)</text></g><g><text font-family="Arial,Arial_MSFontService,sans-serif" font-weight="400" font-size="50" transform="matrix(1 0 0 1 723.635 2595)">Asien (259)</text></g><g><text font-family="Arial,Arial_MSFontService,sans-serif" font-weight="400" font-size="50" transform="matrix(1 0 0 1 645.099 2484)">Europa (1 532)</text></g><g><text font-family="Arial,Arial_MSFontService,sans-serif" font-weight="700" font-size="64" transform="matrix(1 0 0 1 612.428 2217)">INKREMENTELLA EXPORTMÖJLIGHETER </text></g><g><text font-family="Arial,Arial_MSFontService,sans-serif" font-weight="700" font-size="64" transform="matrix(1 0 0 1 833.941 2291)">PER KONTINENT 2024</text></g><g><text font-family="Arial,Arial_MSFontService,sans-serif" font-weight="700" font-size="64" transform="matrix(1 0 0 1 1518.55 2291)">-</text></g><g><text font-family="Arial,Arial_MSFontService,sans-serif" font-weight="700" font-size="64" transform="matrix(1 0 0 1 1539.91 2291)">2049</text></g><g><text font-family="Arial,Arial_MSFontService,sans-serif" font-weight="400" font-size="60" transform="matrix(1 0 0 1 1192.08 2360)">Mdkr</text></g><rect x="392.5" y="2123.5" width="1733" height="990" stroke="#FFFFFF" stroke-width="3.4375" stroke-linejoin="round" stroke-miterlimit="10" fill="none"/><text font-family="Arial,Arial_MSFontService,sans-serif" font-weight="400" font-size="46" transform="matrix(1 0 0 1 670.512 3175)">* Exklusive USA. Om USA räknas med: </text><text font-family="Cambria Math,Cambria Math_MSFontService,sans-serif" font-weight="400" font-size="46" transform="matrix(1 0 0 1 1482.33 3175)">∼</text><text font-family="Arial,Arial_MSFontService,sans-serif" font-weight="400" font-size="46" transform="matrix(1 0 0 1 1514.99 3175)">900</text><text font-family="Arial,Arial_MSFontService,sans-serif" font-weight="400" font-size="46" transform="matrix(1 0 0 1 670.512 3230)">Not: fast penningvärde, 2024 bas. Ryssland exluderat</text><text font-family="Arial,Arial_MSFontService,sans-serif" font-weight="400" font-size="46" transform="matrix(1 0 0 1 670.512 3285)">Källa: </text><text font-family="Arial,Arial_MSFontService,sans-serif" font-weight="400" font-size="46" transform="matrix(1 0 0 1 797.127 3285)">TelluBase</text><text font-family="Arial,Arial_MSFontService,sans-serif" font-weight="400" font-size="46" transform="matrix(1 0 0 1 999.939 3285)">; </text><text font-family="Arial,Arial_MSFontService,sans-serif" font-weight="400" font-size="46" transform="matrix(1 0 0 1 1025.15 3285)">SCB; </text><text font-family="Arial,Arial_MSFontService,sans-serif" font-weight="400" font-size="46" transform="matrix(1 0 0 1 1144.31 3285)">Tellusant </text><text font-family="Arial,Arial_MSFontService,sans-serif" font-weight="400" font-size="46" transform="matrix(1 0 0 1 1341.97 3285)">analys</text></g></svg>