<svg width="1435" height="1753" xmlns="http://www.w3.org/2000/svg" xmlns:xlink="http://www.w3.org/1999/xlink" xml:space="preserve" overflow="hidden"><g transform="translate(-520 -2488)"><path d="M0 660C-8.40268e-14 295.492 295.492-8.40268e-14 660-1.68054e-13 1024.51-3.36107e-13 1320 295.492 1320 660 1320 1024.51 1024.51 1320 660 1320 295.492 1320-4.20134e-13 1024.51 0 660ZM171.428 660C171.428 929.831 390.169 1148.57 660 1148.57 929.831 1148.57 1148.57 929.831 1148.57 660 1148.57 390.169 929.831 171.428 660 171.428 390.169 171.428 171.428 390.169 171.428 660Z" fill="#A6A6A6" fill-rule="evenodd" transform="matrix(1 0 0 -1 543 3995)"/><path d="M0 363 216.091 0 432.182 363Z" fill="#0070C0" fill-rule="evenodd" transform="matrix(-0.965926 -0.258819 -0.258819 0.965926 1305.46 3731.22)"/><path d="M0 363 216.093 0 432.186 363Z" fill="#548235" fill-rule="evenodd" transform="matrix(0.258819 0.965926 0.965926 -0.258819 1491.92 2987.58)"/><path d="M0 363 216.093 0 432.185 363Z" fill="#7F6000" fill-rule="evenodd" transform="matrix(0.707107 -0.707107 -0.707107 -0.707107 777.294 3258.86)"/><text font-family="Arial,Arial_MSFontService,sans-serif" font-weight="400" font-size="46" transform="matrix(1 0 0 1 719.708 4148)">Source: </text><text font-family="Arial,Arial_MSFontService,sans-serif" font-weight="400" font-size="46" transform="matrix(1 0 0 1 889.291 4148)">Adapted from </text><text font-family="Arial,Arial_MSFontService,sans-serif" font-weight="400" font-size="46" transform="matrix(1 0 0 1 1175.18 4148)">Runkel </text><text font-family="Arial,Arial_MSFontService,sans-serif" font-weight="400" font-size="46" transform="matrix(1 0 0 1 1329.86 4148)">&amp;</text><text font-family="Arial,Arial_MSFontService,sans-serif" font-weight="400" font-size="46" transform="matrix(1 0 0 1 1372.83 4148)">McGrath (1972): </text><text font-family="Arial,Arial_MSFontService,sans-serif" font-weight="400" font-size="46" transform="matrix(1 0 0 1 719.708 4203)">Research on human behavior</text><text font-family="Arial,Arial_MSFontService,sans-serif" font-weight="700" font-size="64" transform="matrix(1 0 0 1 798.339 3186)">Predictive</text><text font-family="Arial,Arial_MSFontService,sans-serif" font-weight="700" font-size="64" transform="matrix(1 0 0 1 929.784 3644)">Understandable</text><text font-family="Arial,Arial_MSFontService,sans-serif" font-weight="700" font-size="64" transform="matrix(1 0 0 1 1203.04 3277)">Explanatory</text><text fill="#C00000" font-family="Arial,Arial_MSFontService,sans-serif" font-weight="700" font-size="73" transform="matrix(1 0 0 1 712.226 2582)">HORNS OF THE</text><text fill="#C00000" font-family="Arial,Arial_MSFontService,sans-serif" font-weight="700" font-size="73" transform="matrix(1 0 0 1 1286.29 2582)">DILEMMA</text><text fill="#C00000" font-family="Arial,Arial_MSFontService,sans-serif" font-weight="700" font-size="73" transform="matrix(1 0 0 1 1648.94 2582)">2</text></g></svg>