<svg width="1651" height="1060" xmlns="http://www.w3.org/2000/svg" xmlns:xlink="http://www.w3.org/1999/xlink" xml:space="preserve" overflow="hidden"><defs><clipPath id="clip0"><rect x="192" y="1661" width="1651" height="1060"/></clipPath></defs><g clip-path="url(#clip0)" transform="translate(-192 -1661)"><rect x="192" y="1661" width="1651" height="990" fill="#FFFFFF"/><g><path d="M1202.79 1911.44C1202.79 1917.52 1197.86 1922.44 1191.79 1922.44 1185.71 1922.44 1180.79 1917.52 1180.79 1911.44 1180.79 1905.37 1185.71 1900.44 1191.79 1900.44 1197.86 1900.44 1202.79 1905.37 1202.79 1911.44Z" stroke="#002060" stroke-width="3.4375" stroke-linejoin="round" stroke-miterlimit="10" fill="#002060"/><path d="M1202.79 1968.44C1202.79 1974.52 1197.86 1979.44 1191.79 1979.44 1185.71 1979.44 1180.79 1974.52 1180.79 1968.44 1180.79 1962.37 1185.71 1957.44 1191.79 1957.44 1197.86 1957.44 1202.79 1962.37 1202.79 1968.44Z" stroke="#002060" stroke-width="3.4375" stroke-linejoin="round" stroke-miterlimit="10" fill="#002060"/><path d="M1202.79 2211.44C1202.79 2217.52 1197.86 2222.44 1191.79 2222.44 1185.71 2222.44 1180.79 2217.52 1180.79 2211.44 1180.79 2205.37 1185.71 2200.45 1191.79 2200.45 1197.86 2200.45 1202.79 2205.37 1202.79 2211.44Z" stroke="#002060" stroke-width="3.4375" stroke-linejoin="round" stroke-miterlimit="10" fill="#002060"/><path d="M1202.79 2275.44C1202.79 2281.52 1197.86 2286.44 1191.79 2286.44 1185.71 2286.44 1180.79 2281.52 1180.79 2275.44 1180.79 2269.37 1185.71 2264.45 1191.79 2264.45 1197.86 2264.45 1202.79 2269.37 1202.79 2275.44Z" stroke="#002060" stroke-width="3.4375" stroke-linejoin="round" stroke-miterlimit="10" fill="#002060"/><path d="M1202.79 2425.44C1202.79 2431.52 1197.86 2436.44 1191.79 2436.44 1185.71 2436.44 1180.79 2431.52 1180.79 2425.44 1180.79 2419.37 1185.71 2414.44 1191.79 2414.44 1197.86 2414.44 1202.79 2419.37 1202.79 2425.44Z" stroke="#002060" stroke-width="3.4375" stroke-linejoin="round" stroke-miterlimit="10" fill="#002060"/><path d="M1202.79 2482.44C1202.79 2488.52 1197.86 2493.44 1191.79 2493.44 1185.71 2493.44 1180.79 2488.52 1180.79 2482.44 1180.79 2476.37 1185.71 2471.44 1191.79 2471.44 1197.86 2471.44 1202.79 2476.37 1202.79 2482.44Z" stroke="#002060" stroke-width="3.4375" stroke-linejoin="round" stroke-miterlimit="10" fill="#002060"/></g><g><path d="M1202.79 1940.44C1202.79 1946.52 1197.86 1951.44 1191.79 1951.44 1185.71 1951.44 1180.79 1946.52 1180.79 1940.44 1180.79 1934.37 1185.71 1929.44 1191.79 1929.44 1197.86 1929.44 1202.79 1934.37 1202.79 1940.44Z" stroke="#002060" stroke-width="4.58333" stroke-linejoin="round" stroke-miterlimit="10" fill="#002060"/><path d="M1202.79 2189.44C1202.79 2195.52 1197.86 2200.44 1191.79 2200.44 1185.71 2200.44 1180.79 2195.52 1180.79 2189.44 1180.79 2183.37 1185.71 2178.45 1191.79 2178.45 1197.86 2178.45 1202.79 2183.37 1202.79 2189.44Z" stroke="#002060" stroke-width="4.58333" stroke-linejoin="round" stroke-miterlimit="10" fill="#002060"/><path d="M1202.79 2232.44C1202.79 2238.52 1197.86 2243.44 1191.79 2243.44 1185.71 2243.44 1180.79 2238.52 1180.79 2232.44 1180.79 2226.37 1185.71 2221.45 1191.79 2221.45 1197.86 2221.45 1202.79 2226.37 1202.79 2232.44Z" stroke="#002060" stroke-width="4.58333" stroke-linejoin="round" stroke-miterlimit="10" fill="#002060"/><path d="M1202.79 2332.44C1202.79 2338.52 1197.86 2343.44 1191.79 2343.44 1185.71 2343.44 1180.79 2338.52 1180.79 2332.44 1180.79 2326.37 1185.71 2321.45 1191.79 2321.45 1197.86 2321.45 1202.79 2326.37 1202.79 2332.44Z" stroke="#002060" stroke-width="4.58333" stroke-linejoin="round" stroke-miterlimit="10" fill="#002060"/><path d="M1202.79 2453.44C1202.79 2459.52 1197.86 2464.44 1191.79 2464.44 1185.71 2464.44 1180.79 2459.52 1180.79 2453.44 1180.79 2447.37 1185.71 2442.45 1191.79 2442.45 1197.86 2442.45 1202.79 2447.37 1202.79 2453.44Z" stroke="#002060" stroke-width="4.58333" stroke-linejoin="round" stroke-miterlimit="10" fill="#002060"/></g><g><path d="M1202 2553C1202 2559.07 1197.07 2564 1191 2564 1184.92 2564 1180 2559.07 1180 2553 1180 2546.92 1184.92 2542 1191 2542 1197.07 2542 1202 2546.92 1202 2553Z" stroke="#002060" stroke-width="4.58333" stroke-linejoin="round" stroke-miterlimit="10"/></g><g><text font-family="Arial,Arial_MSFontService,sans-serif" font-weight="400" font-size="50" transform="matrix(1 0 0 1 1230.39 1930)">Japanska 89</text></g><g><text font-family="Arial,Arial_MSFontService,sans-serif" font-weight="400" font-size="50" transform="matrix(1 0 0 1 1230.39 1987)">Arabiska 81</text></g><g><text font-family="Arial,Arial_MSFontService,sans-serif" font-weight="400" font-size="50" transform="matrix(1 0 0 1 1230.39 2229)">Franska 48</text></g><g><text font-family="Arial,Arial_MSFontService,sans-serif" font-weight="400" font-size="50" transform="matrix(1 0 0 1 1230.39 2294)">Italienska 39</text></g><g><text font-family="Arial,Arial_MSFontService,sans-serif" font-weight="400" font-size="50" transform="matrix(1 0 0 1 1230.39 2443)">Tyska 18</text></g><g><text font-family="Arial,Arial_MSFontService,sans-serif" font-weight="400" font-size="50" transform="matrix(1 0 0 1 1230.39 2500)">Danska 10</text></g><g><text font-family="Arial,Arial_MSFontService,sans-serif" font-weight="400" font-size="50" transform="matrix(1 0 0 1 872.108 1958)">Mandarin 85</text></g><g><text font-family="Arial,Arial_MSFontService,sans-serif" font-weight="400" font-size="50" transform="matrix(1 0 0 1 967.441 2208)">Hindi 50</text></g><g><text font-family="Arial,Arial_MSFontService,sans-serif" font-weight="400" font-size="50" transform="matrix(1 0 0 1 886.133 2251)">Spanska 46</text></g><g><text font-family="Arial,Arial_MSFontService,sans-serif" font-weight="400" font-size="50" transform="matrix(1 0 0 1 874.927 2351)">Engelska 31</text></g><g><text font-family="Arial,Arial_MSFontService,sans-serif" font-weight="400" font-size="50" transform="matrix(1 0 0 1 922.639 2472)">Norska 14</text></g><g><text font-family="Arial,Arial_MSFontService,sans-serif" font-weight="400" font-size="50" transform="matrix(1 0 0 1 917.024 2572)">Svenska 0</text></g><g><text font-family="Arial,Arial_MSFontService,sans-serif" font-weight="700" font-size="64" transform="matrix(1 0 0 1 591.199 1788)">SPRÅKDISTANS FÖR VISSA LÄNDER</text></g><path d="M0 0 1.05561 666.477" stroke="#002060" stroke-width="4.58333" stroke-miterlimit="8" fill="none" fill-rule="evenodd" transform="matrix(-1 0 0 1 1193.56 1904.5)"/><text font-family="Arial,Arial_MSFontService,sans-serif" font-weight="400" font-size="46" transform="matrix(1 0 0 1 940.312 2683)">Källa: eLinguistics.net</text></g></svg>