<svg width="2704" height="2089" xmlns="http://www.w3.org/2000/svg" xmlns:xlink="http://www.w3.org/1999/xlink" xml:space="preserve" overflow="hidden"><defs><clipPath id="clip0"><rect x="867" y="100" width="2704" height="2089"/></clipPath><clipPath id="clip1"><rect x="1437" y="430" width="1627" height="1085"/></clipPath><clipPath id="clip2"><rect x="1437" y="430" width="1627" height="1085"/></clipPath></defs><g clip-path="url(#clip0)" transform="translate(-867 -100)"><text fill="#424242" font-family="Arial,Arial_MSFontService,sans-serif" font-weight="700" font-size="73" transform="matrix(1 0 0 1 1280.26 193)">TRIPLE</text><text fill="#424242" font-family="Arial,Arial_MSFontService,sans-serif" font-weight="700" font-size="73" transform="matrix(1 0 0 1 1540.36 193)">-</text><text fill="#424242" font-family="Arial,Arial_MSFontService,sans-serif" font-weight="700" font-size="73" transform="matrix(1 0 0 1 1565 193)">A EXAMPLE: SOFT DRINK CATEGORY IN INDIA</text><text fill="#424242" font-family="Arial,Arial_MSFontService,sans-serif" font-weight="400" font-size="69" transform="matrix(1 0 0 1 1863.95 277)">Population basis, </text><text fill="#424242" font-family="Arial,Arial_MSFontService,sans-serif" font-weight="400" font-size="69" transform="matrix(1 0 0 1 2407.64 277)">millions</text><g><path d="M1503 661 1729 661 1729 1150 1503 1150Z" fill="#00124D"/></g><g><path d="M2146 1003 2373 1003 2373 1150 2146 1150Z" fill="#00124D"/></g><g><path d="M2790 1106 3017 1106 3017 1150 2790 1150Z" fill="#00124D"/></g><g><path d="M1824.56 659.522 2051.57 659.522 2051.57 1003.53 1824.56 1003.53ZM2468.58 1003.53 2694.59 1003.53 2694.59 1106.54 2468.58 1106.54Z" stroke="#C57B57" stroke-width="3.4375" stroke-linejoin="round" stroke-miterlimit="10" fill="#C57B57"/></g><g><path d="M1503.05 654.021 1729.06 654.021 1729.06 661.022 1503.05 661.022ZM1825.06 652.021 2051.07 652.021 2051.07 659.022 1825.06 659.022ZM2146.07 995.033 2373.08 995.033 2373.08 1003.03 2146.07 1003.03ZM2468.08 995.033 2695.09 995.033 2695.09 1003.03 2468.08 1003.03ZM2790.09 1098.04 3017.1 1098.04 3017.1 1106.04 2790.09 1106.04Z" fill="#FFFFFF"/></g><g clip-path="url(#clip1)"><path d="M1455.5 1150.5 3064.5 1150.5" stroke="#868686" stroke-width="3.4375" stroke-linejoin="round" stroke-miterlimit="10" fill="none" fill-rule="evenodd"/></g><g clip-path="url(#clip2)"><path d="M1455.5 1150.5 1455.5 1166.5M1776.56 1150.5 1776.56 1166.5M2098.57 1150.5 2098.57 1166.5M2420.58 1150.5 2420.58 1166.5M2742.59 1150.5 2742.59 1166.5M3064.5 1150.5 3064.5 1166.5" stroke="#868686" stroke-width="3.4375" stroke-linejoin="round" stroke-miterlimit="10" fill="none"/></g><g><text font-family="Arial,Arial_MSFontService,sans-serif" font-weight="400" font-size="55" transform="matrix(1 0 0 1 1559.42 588)">1244</text></g><g><text font-family="Arial,Arial_MSFontService,sans-serif" font-weight="400" font-size="55" transform="matrix(1 0 0 1 2215.24 961)">374</text></g><g><text font-family="Arial,Arial_MSFontService,sans-serif" font-weight="400" font-size="55" transform="matrix(1 0 0 1 2859.73 1088)">112</text></g><g><text font-family="Arial,Arial_MSFontService,sans-serif" font-weight="400" font-size="55" transform="matrix(1 0 0 1 1893.35 606)">875</text></g><g><text font-family="Arial,Arial_MSFontService,sans-serif" font-weight="400" font-size="55" transform="matrix(1 0 0 1 2532.05 977)">262</text></g><g><text font-family="Arial,Arial_MSFontService,sans-serif" font-weight="400" font-size="55" transform="matrix(1 0 0 1 1463.13 1233)">Addressable</text></g><g><text font-family="Arial,Arial_MSFontService,sans-serif" font-weight="400" font-size="55" transform="matrix(1 0 0 1 1531.97 1297)">market</text></g><g><text font-family="Arial,Arial_MSFontService,sans-serif" font-weight="400" font-size="55" transform="matrix(1 0 0 1 1849.22 1233)">Cannot</text></g><g><text font-family="Arial,Arial_MSFontService,sans-serif" font-weight="400" font-size="55" transform="matrix(1 0 0 1 1867.58 1297)">afford</text></g><g><text font-family="Arial,Arial_MSFontService,sans-serif" font-weight="400" font-size="55" transform="matrix(1 0 0 1 2148.2 1233)">Available</text></g><g><text font-family="Arial,Arial_MSFontService,sans-serif" font-weight="400" font-size="55" transform="matrix(1 0 0 1 2175.75 1297)">market</text></g><g><text font-family="Arial,Arial_MSFontService,sans-serif" font-weight="400" font-size="55" transform="matrix(1 0 0 1 2462.41 1233)">Untapped</text></g><g><text font-family="Arial,Arial_MSFontService,sans-serif" font-weight="400" font-size="55" transform="matrix(1 0 0 1 2482.3 1297)">demand</text></g><g><text font-family="Arial,Arial_MSFontService,sans-serif" font-weight="400" font-size="55" transform="matrix(1 0 0 1 2493 1360)">despite</text></g><g><text font-family="Arial,Arial_MSFontService,sans-serif" font-weight="400" font-size="55" transform="matrix(1 0 0 1 2454.82 1423)">availability</text></g><g><text font-family="Arial,Arial_MSFontService,sans-serif" font-weight="400" font-size="55" transform="matrix(1 0 0 1 2827.14 1233)">Actual</text></g><g><text font-family="Arial,Arial_MSFontService,sans-serif" font-weight="400" font-size="55" transform="matrix(1 0 0 1 2819.53 1297)">market</text></g><rect x="2774.5" y="380.5" width="788" height="578" fill="#F1ECCE"/><path d="M2977.01 969.991 2947.76 1015.99" stroke="#424242" stroke-width="4.58333" stroke-miterlimit="8" fill="none" fill-rule="evenodd"/><text fill="#424242" font-family="Arial,Arial_MSFontService,sans-serif" font-weight="400" font-size="64" transform="matrix(1 0 0 1 2806.69 462)">Only 112 out of 374 </text><text fill="#424242" font-family="Arial,Arial_MSFontService,sans-serif" font-weight="400" font-size="64" transform="matrix(1 0 0 1 2806.69 539)">million consumers make </text><text fill="#424242" font-family="Arial,Arial_MSFontService,sans-serif" font-weight="400" font-size="64" transform="matrix(1 0 0 1 2806.69 616)">up the </text><text fill="#424242" font-family="Arial,Arial_MSFontService,sans-serif" font-weight="700" font-size="64" transform="matrix(1 0 0 1 3002.05 616)">actual</text><text fill="#424242" font-family="Arial,Arial_MSFontService,sans-serif" font-weight="400" font-size="64" transform="matrix(1 0 0 1 3204.29 616)">market. </text><text fill="#424242" font-family="Arial,Arial_MSFontService,sans-serif" font-weight="400" font-size="64" transform="matrix(1 0 0 1 2806.69 693)">Limitations are lack of </text><text fill="#424242" font-family="Arial,Arial_MSFontService,sans-serif" font-weight="400" font-size="64" transform="matrix(1 0 0 1 2806.69 770)">distribution, </text><text fill="#424242" font-family="Arial,Arial_MSFontService,sans-serif" font-weight="400" font-size="64" transform="matrix(1 0 0 1 3151.58 770)">unfamili</text><text fill="#424242" font-family="Arial,Arial_MSFontService,sans-serif" font-weight="400" font-size="64" transform="matrix(1 0 0 1 3372.16 770)">-</text><text fill="#424242" font-family="Arial,Arial_MSFontService,sans-serif" font-weight="400" font-size="64" transform="matrix(1 0 0 1 3393.36 770)">arity </text><text fill="#424242" font-family="Arial,Arial_MSFontService,sans-serif" font-weight="400" font-size="64" transform="matrix(1 0 0 1 2806.69 847)">with the beverage, and </text><text fill="#424242" font-family="Arial,Arial_MSFontService,sans-serif" font-weight="400" font-size="64" transform="matrix(1 0 0 1 2806.69 924)">more.</text><rect x="2078.5" y="398.5" width="660" height="422" fill="#F1ECCE"/><path d="M2330.57 823.897 2297.62 893.945" stroke="#424242" stroke-width="4.58333" stroke-miterlimit="8" fill="none" fill-rule="evenodd"/><text fill="#424242" font-family="Arial,Arial_MSFontService,sans-serif" font-weight="400" font-size="64" transform="matrix(1 0 0 1 2111.42 478)">However, the pro</text><text fill="#424242" font-family="Arial,Arial_MSFontService,sans-serif" font-weight="400" font-size="64" transform="matrix(1 0 0 1 2594.87 478)">-</text><text fill="#424242" font-family="Arial,Arial_MSFontService,sans-serif" font-weight="400" font-size="64" transform="matrix(1 0 0 1 2111.42 555)">duct is </text><text fill="#424242" font-family="Arial,Arial_MSFontService,sans-serif" font-weight="700" font-size="64" transform="matrix(1 0 0 1 2314.23 555)">available</text><text fill="#424242" font-family="Arial,Arial_MSFontService,sans-serif" font-weight="400" font-size="64" transform="matrix(1 0 0 1 2601.84 555)">to </text><text fill="#424242" font-family="Arial,Arial_MSFontService,sans-serif" font-weight="400" font-size="64" transform="matrix(1 0 0 1 2111.42 632)">only 374 million </text><text fill="#424242" font-family="Arial,Arial_MSFontService,sans-serif" font-weight="400" font-size="64" transform="matrix(1 0 0 1 2111.42 709)">consumers who can </text><text fill="#424242" font-family="Arial,Arial_MSFontService,sans-serif" font-weight="400" font-size="64" transform="matrix(1 0 0 1 2111.42 786)">afford the beverage</text><rect x="873.5" y="425.5" width="554" height="733" fill="#F1ECCE"/><path d="M1434.33 797.351 1485.81 830.438" stroke="#424242" stroke-width="4.58333" stroke-miterlimit="8" fill="none" fill-rule="evenodd"/><text fill="#424242" font-family="Arial,Arial_MSFontService,sans-serif" font-weight="400" font-size="64" transform="matrix(1 0 0 1 905.539 507)">The </text><text fill="#424242" font-family="Arial,Arial_MSFontService,sans-serif" font-weight="700" font-size="64" transform="matrix(1 0 0 1 905.539 584)">addressable</text><text fill="#424242" font-family="Arial,Arial_MSFontService,sans-serif" font-weight="400" font-size="64" transform="matrix(1 0 0 1 905.539 661)">market is 1244 </text><text fill="#424242" font-family="Arial,Arial_MSFontService,sans-serif" font-weight="400" font-size="64" transform="matrix(1 0 0 1 905.539 738)">million relevant  </text><text fill="#424242" font-family="Arial,Arial_MSFontService,sans-serif" font-weight="400" font-size="64" transform="matrix(1 0 0 1 905.539 815)">consumers: </text><text fill="#424242" font-family="Arial,Arial_MSFontService,sans-serif" font-weight="400" font-size="64" transform="matrix(1 0 0 1 905.539 892)">those </text><text fill="#424242" font-family="Arial,Arial_MSFontService,sans-serif" font-weight="400" font-size="64" transform="matrix(1 0 0 1 1079.71 892)">age</text><text fill="#424242" font-family="Arial,Arial_MSFontService,sans-serif" font-weight="400" font-size="64" transform="matrix(1 0 0 1 1186.27 892)">d</text><text fill="#424242" font-family="Arial,Arial_MSFontService,sans-serif" font-weight="400" font-size="64" transform="matrix(1 0 0 1 1239.55 892)">6 </text><text fill="#424242" font-family="Arial,Arial_MSFontService,sans-serif" font-weight="400" font-size="64" transform="matrix(1 0 0 1 905.539 969)">and above. The </text><text fill="#424242" font-family="Arial,Arial_MSFontService,sans-serif" font-weight="400" font-size="64" transform="matrix(1 0 0 1 905.539 1046)">total population </text><text fill="#424242" font-family="Arial,Arial_MSFontService,sans-serif" font-weight="400" font-size="64" transform="matrix(1 0 0 1 905.539 1123)">is </text><text fill="#424242" font-family="Arial,Arial_MSFontService,sans-serif" font-weight="400" font-size="64" transform="matrix(1 0 0 1 969.706 1123)">1.</text><text fill="#424242" font-family="Arial,Arial_MSFontService,sans-serif" font-weight="400" font-size="64" transform="matrix(1 0 0 1 1022.99 1123)">5</text><text fill="#424242" font-family="Arial,Arial_MSFontService,sans-serif" font-weight="400" font-size="64" transform="matrix(1 0 0 1 1058.51 1123)">B</text><rect x="886" y="1546" width="2663" height="505" fill="#F2F2F2"/><text fill="#424242" font-family="Arial,Arial_MSFontService,sans-serif" font-weight="700" font-size="64" transform="matrix(1 0 0 1 1504.89 1624)">RECOMMENDATIONS IN ORDER OF PRIORITY</text><text fill="#424242" font-family="Arial,Arial_MSFontService,sans-serif" font-weight="700" font-size="64" transform="matrix(1 0 0 1 918.702 1729)">1.</text><text fill="#424242" font-family="Arial,Arial_MSFontService,sans-serif" font-weight="700" font-size="64" transform="matrix(1 0 0 1 1001.2 1729)">Stimulate demand</text><text fill="#424242" font-family="Arial,Arial_MSFontService,sans-serif" font-weight="400" font-size="64" transform="matrix(1 0 0 1 1552.35 1729)">: Increase demand among the existing available non</text><text fill="#424242" font-family="Arial,Arial_MSFontService,sans-serif" font-weight="400" font-size="64" transform="matrix(1 0 0 1 3031.05 1729)">-</text><text fill="#424242" font-family="Arial,Arial_MSFontService,sans-serif" font-weight="400" font-size="64" transform="matrix(1 0 0 1 3052.24 1729)">consumers </text><text fill="#424242" font-family="Arial,Arial_MSFontService,sans-serif" font-weight="700" font-size="64" transform="matrix(1 0 0 1 918.702 1833)">2.</text><text fill="#424242" font-family="Arial,Arial_MSFontService,sans-serif" font-weight="700" font-size="64" transform="matrix(1 0 0 1 1001.2 1833)">Expand distribution</text><text fill="#424242" font-family="Arial,Arial_MSFontService,sans-serif" font-weight="400" font-size="64" transform="matrix(1 0 0 1 1601.05 1833)">: Increase distribution network out of large cities to key mid</text><text fill="#424242" font-family="Arial,Arial_MSFontService,sans-serif" font-weight="400" font-size="64" transform="matrix(1 0 0 1 3261.36 1833)">-</text><text fill="#424242" font-family="Arial,Arial_MSFontService,sans-serif" font-weight="400" font-size="64" transform="matrix(1 0 0 1 3282.56 1833)">sized </text><text fill="#424242" font-family="Arial,Arial_MSFontService,sans-serif" font-weight="400" font-size="64" transform="matrix(1 0 0 1 1001.2 1910)">cities</text><text fill="#424242" font-family="Arial,Arial_MSFontService,sans-serif" font-weight="700" font-size="64" transform="matrix(1 0 0 1 918.702 2015)">3.</text><text fill="#424242" font-family="Arial,Arial_MSFontService,sans-serif" font-weight="700" font-size="64" transform="matrix(1 0 0 1 1001.2 2015)">Introduce lower priced brand </text><text fill="#424242" font-family="Arial,Arial_MSFontService,sans-serif" font-weight="400" font-size="64" transform="matrix(1 0 0 1 1900.11 2015)">to capture consumers that cannot afford the product</text><text fill="#424242" font-family="Arial,Arial_MSFontService,sans-serif" font-weight="400" font-size="50" transform="matrix(1 0 0 1 902.202 2147)">Source: Tellusant analysis</text></g></svg>