<svg width="2244" height="2044" xmlns="http://www.w3.org/2000/svg" xmlns:xlink="http://www.w3.org/1999/xlink" xml:space="preserve" overflow="hidden"><defs><clipPath id="clip0"><rect x="310" y="789" width="2244" height="2044"/></clipPath></defs><g clip-path="url(#clip0)" transform="translate(-310 -789)"><rect x="310" y="897" width="2244" height="1936" fill="#FFFFFF"/><g><rect x="557.5" y="947.5" width="1736" height="1647" stroke="#BFBFBF" stroke-width="3.4375" stroke-linejoin="round" stroke-miterlimit="10" fill="none"/></g><g><path d="M0 0 0.000360892 1647" stroke="#BFBFBF" stroke-width="3.4375" stroke-linejoin="round" stroke-miterlimit="10" fill="none" fill-rule="evenodd" transform="matrix(1 0 0 -1 2293.5 2594.5)"/></g><g><path d="M0 0 0.000360892 1647" stroke="#BFBFBF" stroke-width="3.4375" stroke-linejoin="round" stroke-miterlimit="10" fill="none" fill-rule="evenodd" transform="matrix(1 0 0 -1 557.5 2594.5)"/></g><g><path d="M557.5 2594.5 2293.5 2594.5" stroke="#BFBFBF" stroke-width="3.4375" stroke-linejoin="round" stroke-miterlimit="10" fill="none" fill-rule="evenodd"/></g><g><path d="M2239.5 1935.5C2232.46 1935.5 2223.77 1935.5 2218.37 1935.5 2215.78 1935.5 2212.76 1935.5 2207.15 1935.5 2195.49 1935.5 2160.6 1935.49 2148.4 1935.48 2141.18 1935.48 2135.98 1935.47 2133.97 1935.46 2130.95 1935.46 2129.59 1935.46 2127.94 1935.45 2126.07 1935.45 2125.21 1935.45 2122.74 1935.44 2120.27 1935.43 2114.99 1935.41 2113.11 1935.41 2112.87 1935.41 2112.29 1935.41 2111.48 1935.4 2105.19 1935.34 2082.52 1935.13 2075.38 1935.05 2072.01 1935.01 2069.84 1934.95 2068.65 1934.92 2066.12 1934.86 2062.03 1934.75 2060.23 1934.71 2059.03 1934.67 2058.39 1934.65 2057.84 1934.63 2057.2 1934.61 2056.55 1934.6 2055.26 1934.55 2053.59 1934.49 2050.56 1934.38 2047.78 1934.26 2045.01 1934.13 2040.32 1933.89 2038.62 1933.8 2038.09 1933.77 2037.95 1933.76 2037.57 1933.74 2036.35 1933.66 2034.07 1933.54 2031.3 1933.33 2028.53 1933.12 2025.26 1932.92 2020.98 1932.47 2016.7 1932.02 2011.52 1931.58 2005.61 1930.64 1999.7 1929.71 1992.82 1928.74 1985.53 1926.87 1978.24 1924.99 1966.6 1920.99 1961.87 1919.42 1959.66 1918.68 1959.41 1918.65 1957.17 1917.42 1952.38 1914.81 1940.5 1908.88 1933.14 1903.76 1927.18 1899.61 1921.41 1896.86 1913.01 1886.69 1902.63 1874.14 1880.91 1844.19 1870.88 1828.44 1860.85 1812.7 1859.32 1806.79 1852.82 1792.2 1846.32 1777.61 1836.42 1752.35 1831.87 1740.91 1828.46 1732.31 1827.24 1728.31 1825.55 1723.53 1823.3 1717.16 1821.01 1710.6 1818.36 1702.69 1815.71 1694.79 1811.29 1681.12 1809.65 1676.09 1809.31 1675.04 1809.06 1674.31 1808.51 1672.51 1805.89 1663.94 1796.8 1634.12 1793.94 1624.65 1792.95 1621.4 1792.59 1620.18 1791.32 1615.69 1787.61 1602.59 1776.29 1562.54 1771.69 1546.07 1767.62 1531.48 1767.08 1529.24 1763.71 1516.86 1759.9 1502.87 1751.51 1471.89 1748.86 1462.13 1748.55 1460.98 1748.34 1460.19 1747.81 1458.26 1743.23 1441.87 1726.93 1383.26 1721.43 1363.77 1718.24 1352.5 1716.05 1345.47 1714.8 1341.3 1712.64 1334.1 1710.28 1326.41 1708.47 1320.54 1706.76 1315 1706.28 1313.3 1703.93 1306.1 1701.46 1298.48 1696.87 1284.38 1693.6 1274.82 1690.33 1265.26 1687.26 1256.75 1684.29 1248.74 1681.32 1240.74 1677.7 1231.68 1675.77 1226.79 1674.73 1224.14 1674.37 1223.06 1672.74 1219.44 1669.72 1212.75 1665.65 1200.31 1657.69 1186.7 1649.73 1173.08 1631.27 1146.69 1624.99 1137.72 1623 1134.88 1620.58 1133.41 1619.99 1132.89 1618.14 1131.25 1614.97 1128.78 1613.87 1127.89 1613.63 1127.7 1613.47 1127.59 1613.38 1127.53 1613.3 1127.48 1612.56 1126.46 1611.38 1126.15 1605.25 1124.5 1585.76 1117.91 1576.6 1117.66 1570.79 1117.5 1564.82 1118.04 1556.44 1124.64 1543.25 1135.04 1508.56 1169.18 1497.44 1180.08 1492.95 1184.48 1490.53 1188.96 1489.72 1190.01 1487.73 1192.6 1486.26 1194.61 1485.49 1195.64 1485.44 1195.7 1485.29 1195.89 1485.1 1196.16 1481.96 1200.55 1470.78 1216.13 1466.6 1222.03 1463.27 1226.74 1461.54 1229.4 1460.08 1231.55 1458.24 1234.24 1457.08 1235.98 1455.61 1238.16 1454.83 1239.33 1453.43 1241.37 1451.29 1244.61 1447.32 1250.65 1435.54 1268.64 1431.77 1274.39 1430.23 1276.76 1429.46 1277.97 1428.71 1279.14 1426.87 1281.99 1423.9 1286.59 1420.75 1291.49 1417.6 1296.4 1413.11 1303.42 1409.8 1308.59 1406.67 1313.48 1405.35 1315.57 1400.88 1322.53 1396.15 1329.9 1385.44 1346.58 1381.42 1352.82 1379.11 1356.42 1377.56 1358.79 1376.78 1360 1375.41 1362.1 1373.93 1364.39 1373.25 1365.43 1373.09 1365.67 1372.97 1365.86 1372.7 1366.28 1371.5 1368.12 1367.56 1374.15 1366.05 1376.47 1365.24 1377.71 1364.84 1378.32 1363.62 1380.17 1361.35 1383.61 1355.58 1392.36 1352.41 1397.15 1349.23 1401.94 1347.61 1404.35 1344.55 1408.9 1342.21 1412.37 1339.38 1416.73 1334.02 1424.44 1326.98 1434.54 1311.19 1457.19 1302.36 1469.51 1293.53 1481.83 1289.6 1487.14 1281.03 1498.35 1272.47 1509.55 1260.94 1524.45 1250.99 1536.72 1241.03 1548.99 1229.4 1562.59 1221.3 1571.97 1213.21 1581.35 1206.92 1588.06 1202.42 1593.02 1198.5 1597.35 1198.43 1597.44 1194.31 1601.74 1189.6 1606.67 1183.06 1613.79 1174.14 1622.59 1165.23 1631.39 1147.23 1648.44 1140.82 1654.54 1138.31 1656.92 1136.53 1658.43 1135.68 1659.19 1133.53 1661.12 1130.45 1663.86 1127.9 1666.11 1126.11 1667.69 1124.2 1669.44 1120.38 1672.64 1114.97 1677.17 1100.05 1689.49 1095.4 1693.32 1093.97 1694.49 1093.05 1695.19 1092.51 1695.61 1091.19 1696.64 1088.72 1698.67 1084.83 1701.6 1079.63 1705.51 1066.62 1715.2 1061.33 1719.08 1057.26 1722.07 1054.38 1724 1053.08 1724.92 1052.12 1725.6 1051.68 1725.9 1051.15 1726.27 1050.21 1726.92 1048.78 1727.91 1047.44 1728.83 1046.1 1729.75 1043.95 1731.21 1043.11 1731.79 1042.75 1732.03 1042.45 1732.23 1042.39 1732.27 1042.37 1732.28 1042.31 1732.32 1042.23 1732.37 1041.96 1732.56 1039.58 1734.3 1036.79 1736.02 1027.3 1741.88 1002.4 1757.87 985.288 1767.56 968.171 1777.24 944.027 1789.04 934.09 1794.13 929.948 1796.25 927.194 1797.39 925.669 1798.09 922.01 1799.77 915.395 1802.77 912.14 1804.23 909.149 1805.57 907.43 1806.3 906.136 1806.87 905.937 1806.95 904.928 1807.43 903.689 1807.93 894.925 1811.43 861.982 1824.51 853.553 1827.86 853.335 1827.95 853.154 1828.01 853.113 1828.03 851.524 1828.6 847.471 1830.08 844.019 1831.29 840.567 1832.51 834.805 1834.5 832.402 1835.33 831.714 1835.57 831.007 1835.82 829.601 1836.28 824.681 1837.87 807.872 1843.3 802.883 1844.9 801.279 1845.42 800.676 1845.59 799.663 1845.89 796.509 1846.84 789.801 1848.88 783.962 1850.56 778.122 1852.24 770.858 1854.29 764.624 1855.98 758.39 1857.68 754.389 1858.78 746.558 1860.74 738.727 1862.71 726.87 1865.63 717.637 1867.78 708.404 1869.93 699.852 1871.8 691.162 1873.64 682.472 1875.49 669.777 1877.98 665.5 1878.85" stroke="#C57B57" stroke-width="6.875" stroke-linecap="round" stroke-linejoin="round" stroke-miterlimit="10" stroke-dasharray="13.75 13.75" fill="none"/></g><g><path d="M2240 1583 2218.07 1583 2207.07 1583 2148.07 1583.05 2134.07 1583.05 2128.07 1583.05 2123.07 1583.05 2113.07 1583.05 2111.07 1583.05 2075.07 1583.05 2069.07 1583.05 2060.07 1583.05 2058.07 1583.05 2055.07 1583.05 2048.07 1583.05 2039.07 1583.05 2038.07 1583.05 2031.07 1584.05 2021.07 1584.05 2006.07 1584.05 1985.07 1585.05 1962.06 1586.05 1957.06 1587.05 1933.06 1590.05 1913.06 1594.05 1871.06 1610.05 1853.06 1622.05 1832.06 1640.05 1825.06 1646.05 1818.06 1654.05 1810.06 1665.05 1808.06 1666.05 1794.06 1686.06 1791.06 1690.06 1772.06 1723.06 1764.06 1737.06 1749.06 1766.06 1748.06 1769.06 1721.06 1826.06 1715.06 1842.06 1708.06 1857.06 1704.06 1868.06 1694.06 1893.06 1684.06 1915.06 1676.05 1936.06 1673.05 1944.06 1658.05 1980.06 1625.05 2057.07 1620.05 2068.07 1614.05 2081.07 1613.05 2082.07 1611.05 2087.07 1576.05 2157.07 1556.05 2193.07 1497.05 2280.07 1490.05 2289.08 1485.05 2294.08 1485.05 2295.08 1466.05 2315.08 1460.05 2322.08 1455.05 2326.08 1451.05 2330.08 1432.05 2348.08 1429.05 2351.08 1421.05 2357.08 1410.05 2366.08 1401.05 2372.08 1381.05 2385.08 1377.05 2388.08 1373.05 2390.08 1373.05 2391.08 1366.04 2395.08 1363.04 2396.08 1352.04 2402.08 1344.04 2407.08 1334.04 2412.08 1302.04 2426.08 1281.04 2434.08 1251.04 2445.08 1221.04 2453.08 1202.04 2458.08 1194.04 2460.08 1174.04 2465.08 1141.04 2471.08 1135.04 2472.08 1128.04 2473.08 1120.04 2475.08 1095.04 2479.08 1092.04 2479.08 1085.04 2480.08 1061.03 2483.08 1053.03 2484.08 1051.03 2484.08 1047.03 2485.08 1043.03 2485.08 1042.03 2485.08 1042.03 2485.08 1037.03 2486.08 985.032 2491.08 934.031 2496.08 925.03 2496.08 912.03 2497.08 906.03 2497.08 903.03 2498.08 853.028 2501.08 853.028 2501.08 844.028 2501.08 832.027 2502.08 829.027 2502.08 803.026 2503.08 799.026 2503.08 784.026 2504.08 764.025 2505.08 746.024 2505.08 717.024 2506.08 691.023 2507.08 665 2508" stroke="#00124D" stroke-width="10.3125" stroke-linecap="round" stroke-linejoin="round" stroke-miterlimit="10" fill="none"/></g><g><path d="M2246.91 1284.37C2246.91 1288.24 2243.78 1291.37 2239.91 1291.37 2236.05 1291.37 2232.91 1288.24 2232.91 1284.37 2232.91 1280.51 2236.05 1277.37 2239.91 1277.37 2243.78 1277.37 2246.91 1280.51 2246.91 1284.37Z" fill="#A6A6A6"/><path d="M2224.91 1654.37C2224.91 1658.24 2221.78 1661.37 2217.91 1661.37 2214.05 1661.37 2210.91 1658.24 2210.91 1654.37 2210.91 1650.51 2214.05 1647.37 2217.91 1647.37 2221.78 1647.37 2224.91 1650.51 2224.91 1654.37Z" fill="#A6A6A6"/><path d="M2213.91 1369.37C2213.91 1373.24 2210.78 1376.37 2206.91 1376.37 2203.05 1376.37 2199.91 1373.24 2199.91 1369.37 2199.91 1365.51 2203.05 1362.37 2206.91 1362.37 2210.78 1362.37 2213.91 1365.51 2213.91 1369.37Z" fill="#A6A6A6"/><path d="M2140.91 1151.37C2140.91 1155.24 2137.78 1158.37 2133.91 1158.37 2130.05 1158.37 2126.91 1155.24 2126.91 1151.37 2126.91 1147.51 2130.05 1144.37 2133.91 1144.37 2137.78 1144.37 2140.91 1147.51 2140.91 1151.37Z" fill="#A6A6A6"/><path d="M2134.91 1793.37C2134.91 1797.24 2131.78 1800.37 2127.91 1800.37 2124.05 1800.37 2120.91 1797.24 2120.91 1793.37 2120.91 1789.51 2124.05 1786.37 2127.91 1786.37 2131.78 1786.37 2134.91 1789.51 2134.91 1793.37Z" fill="#A6A6A6"/><path d="M2129.91 1842.37C2129.91 1846.24 2126.78 1849.37 2122.91 1849.37 2119.05 1849.37 2115.91 1846.24 2115.91 1842.37 2115.91 1838.51 2119.05 1835.37 2122.91 1835.37 2126.78 1835.37 2129.91 1838.51 2129.91 1842.37Z" fill="#A6A6A6"/><path d="M2119.91 1782.37C2119.91 1786.24 2116.78 1789.37 2112.91 1789.37 2109.05 1789.37 2105.91 1786.24 2105.91 1782.37 2105.91 1778.51 2109.05 1775.37 2112.91 1775.37 2116.78 1775.37 2119.91 1778.51 2119.91 1782.37Z" fill="#A6A6A6"/><path d="M2118.91 1718.37C2118.91 1722.24 2115.78 1725.37 2111.91 1725.37 2108.05 1725.37 2104.91 1722.24 2104.91 1718.37 2104.91 1714.51 2108.05 1711.37 2111.91 1711.37 2115.78 1711.37 2118.91 1714.51 2118.91 1718.37Z" fill="#A6A6A6"/><path d="M2081.91 1703.37C2081.91 1707.24 2078.78 1710.37 2074.91 1710.37 2071.05 1710.37 2067.91 1707.24 2067.91 1703.37 2067.91 1699.51 2071.05 1696.37 2074.91 1696.37 2078.78 1696.37 2081.91 1699.51 2081.91 1703.37Z" fill="#A6A6A6"/><path d="M2075.91 1219.37C2075.91 1223.24 2072.78 1226.37 2068.91 1226.37 2065.05 1226.37 2061.91 1223.24 2061.91 1219.37 2061.91 1215.51 2065.05 1212.37 2068.91 1212.37 2072.78 1212.37 2075.91 1215.51 2075.91 1219.37Z" fill="#A6A6A6"/><path d="M2066.91 1579.37C2066.91 1583.24 2063.78 1586.37 2059.91 1586.37 2056.05 1586.37 2052.91 1583.24 2052.91 1579.37 2052.91 1575.51 2056.05 1572.37 2059.91 1572.37 2063.78 1572.37 2066.91 1575.51 2066.91 1579.37Z" fill="#A6A6A6"/><path d="M2064.91 1733.37C2064.91 1737.24 2061.78 1740.37 2057.91 1740.37 2054.05 1740.37 2050.91 1737.24 2050.91 1733.37 2050.91 1729.51 2054.05 1726.37 2057.91 1726.37 2061.78 1726.37 2064.91 1729.51 2064.91 1733.37Z" fill="#A6A6A6"/><path d="M2061.91 1341.37C2061.91 1345.24 2058.78 1348.37 2054.91 1348.37 2051.05 1348.37 2047.91 1345.24 2047.91 1341.37 2047.91 1337.51 2051.05 1334.37 2054.91 1334.37 2058.78 1334.37 2061.91 1337.51 2061.91 1341.37Z" fill="#A6A6A6"/><path d="M2045.91 1665.37C2045.91 1669.24 2042.78 1672.37 2038.91 1672.37 2035.05 1672.37 2031.91 1669.24 2031.91 1665.37 2031.91 1661.51 2035.05 1658.37 2038.91 1658.37 2042.78 1658.37 2045.91 1661.51 2045.91 1665.37Z" fill="#A6A6A6"/><path d="M2044.91 1874.37C2044.91 1878.24 2041.78 1881.37 2037.91 1881.37 2034.05 1881.37 2030.91 1878.24 2030.91 1874.37 2030.91 1870.51 2034.05 1867.37 2037.91 1867.37 2041.78 1867.37 2044.91 1870.51 2044.91 1874.37Z" fill="#A6A6A6"/><path d="M2037.91 1063.37C2037.91 1067.24 2034.78 1070.37 2030.91 1070.37 2027.05 1070.37 2023.91 1067.24 2023.91 1063.37 2023.91 1059.51 2027.05 1056.37 2030.91 1056.37 2034.78 1056.37 2037.91 1059.51 2037.91 1063.37Z" fill="#A6A6A6"/><path d="M2027.91 1720.37C2027.91 1724.24 2024.78 1727.37 2020.91 1727.37 2017.05 1727.37 2013.91 1724.24 2013.91 1720.37 2013.91 1716.51 2017.05 1713.37 2020.91 1713.37 2024.78 1713.37 2027.91 1716.51 2027.91 1720.37Z" fill="#A6A6A6"/><path d="M2012.91 1407.37C2012.91 1411.24 2009.78 1414.37 2005.91 1414.37 2002.05 1414.37 1998.91 1411.24 1998.91 1407.37 1998.91 1403.51 2002.05 1400.37 2005.91 1400.37 2009.78 1400.37 2012.91 1403.51 2012.91 1407.37Z" fill="#A6A6A6"/><path d="M1992.91 2166.37C1992.91 2170.24 1989.78 2173.37 1985.91 2173.37 1982.05 2173.37 1978.91 2170.24 1978.91 2166.37 1978.91 2162.51 1982.05 2159.37 1985.91 2159.37 1989.78 2159.37 1992.91 2162.51 1992.91 2166.37Z" fill="#A6A6A6"/><path d="M1963.91 1396.37C1963.91 1400.24 1960.78 1403.37 1956.91 1403.37 1953.05 1403.37 1949.91 1400.24 1949.91 1396.37 1949.91 1392.51 1953.05 1389.37 1956.91 1389.37 1960.78 1389.37 1963.91 1392.51 1963.91 1396.37Z" fill="#A6A6A6"/><path d="M1939.91 1722.37C1939.91 1726.24 1936.78 1729.37 1932.91 1729.37 1929.05 1729.37 1925.91 1726.24 1925.91 1722.37 1925.91 1718.51 1929.05 1715.37 1932.91 1715.37 1936.78 1715.37 1939.91 1718.51 1939.91 1722.37Z" fill="#A6A6A6"/><path d="M1919.91 1409.37C1919.91 1413.24 1916.78 1416.37 1912.91 1416.37 1909.05 1416.37 1905.91 1413.24 1905.91 1409.37 1905.91 1405.51 1909.05 1402.37 1912.91 1402.37 1916.78 1402.37 1919.91 1405.51 1919.91 1409.37Z" fill="#A6A6A6"/><path d="M1877.91 1985.37C1877.91 1989.24 1874.78 1992.37 1870.91 1992.37 1867.05 1992.37 1863.91 1989.24 1863.91 1985.37 1863.91 1981.51 1867.05 1978.37 1870.91 1978.37 1874.78 1978.37 1877.91 1981.51 1877.91 1985.37Z" fill="#A6A6A6"/><path d="M1859.91 1605.37C1859.91 1609.24 1856.78 1612.37 1852.91 1612.37 1849.05 1612.37 1845.91 1609.24 1845.91 1605.37 1845.91 1601.51 1849.05 1598.37 1852.91 1598.37 1856.78 1598.37 1859.91 1601.51 1859.91 1605.37Z" fill="#A6A6A6"/><path d="M1838.91 1694.37C1838.91 1698.24 1835.78 1701.37 1831.91 1701.37 1828.05 1701.37 1824.91 1698.24 1824.91 1694.37 1824.91 1690.51 1828.05 1687.37 1831.91 1687.37 1835.78 1687.37 1838.91 1690.51 1838.91 1694.37Z" fill="#A6A6A6"/><path d="M1832.91 2212.37C1832.91 2216.24 1829.78 2219.37 1825.91 2219.37 1822.05 2219.37 1818.91 2216.24 1818.91 2212.37 1818.91 2208.51 1822.05 2205.37 1825.91 2205.37 1829.78 2205.37 1832.91 2208.51 1832.91 2212.37Z" fill="#A6A6A6"/><path d="M1824.91 1193.37C1824.91 1197.24 1821.78 1200.37 1817.91 1200.37 1814.05 1200.37 1810.91 1197.24 1810.91 1193.37 1810.91 1189.51 1814.05 1186.37 1817.91 1186.37 1821.78 1186.37 1824.91 1189.51 1824.91 1193.37Z" fill="#A6A6A6"/><path d="M1816.91 1703.37C1816.91 1707.24 1813.78 1710.37 1809.91 1710.37 1806.05 1710.37 1802.91 1707.24 1802.91 1703.37 1802.91 1699.51 1806.05 1696.37 1809.91 1696.37 1813.78 1696.37 1816.91 1699.51 1816.91 1703.37Z" fill="#A6A6A6"/><path d="M1815.91 1588.37C1815.91 1592.24 1812.78 1595.37 1808.91 1595.37 1805.05 1595.37 1801.91 1592.24 1801.91 1588.37 1801.91 1584.51 1805.05 1581.37 1808.91 1581.37 1812.78 1581.37 1815.91 1584.51 1815.91 1588.37Z" fill="#A6A6A6"/><path d="M1800.91 1663.37C1800.91 1667.24 1797.78 1670.37 1793.91 1670.37 1790.05 1670.37 1786.91 1667.24 1786.91 1663.37 1786.91 1659.51 1790.05 1656.37 1793.91 1656.37 1797.78 1656.37 1800.91 1659.51 1800.91 1663.37Z" fill="#A6A6A6"/><path d="M1797.91 1608.37C1797.91 1612.24 1794.78 1615.37 1790.91 1615.37 1787.05 1615.37 1783.91 1612.24 1783.91 1608.37 1783.91 1604.51 1787.05 1601.37 1790.91 1601.37 1794.78 1601.37 1797.91 1604.51 1797.91 1608.37Z" fill="#A6A6A6"/><path d="M1778.91 1848.37C1778.91 1852.24 1775.78 1855.37 1771.91 1855.37 1768.05 1855.37 1764.91 1852.24 1764.91 1848.37 1764.91 1844.51 1768.05 1841.37 1771.91 1841.37 1775.78 1841.37 1778.91 1844.51 1778.91 1848.37Z" fill="#A6A6A6"/><path d="M1770.91 1897.37C1770.91 1901.24 1767.78 1904.37 1763.91 1904.37 1760.05 1904.37 1756.91 1901.24 1756.91 1897.37 1756.91 1893.51 1760.05 1890.37 1763.91 1890.37 1767.78 1890.37 1770.91 1893.51 1770.91 1897.37Z" fill="#A6A6A6"/><path d="M1755.91 1747.37C1755.91 1751.24 1752.78 1754.37 1748.91 1754.37 1745.05 1754.37 1741.91 1751.24 1741.91 1747.37 1741.91 1743.51 1745.05 1740.37 1748.91 1740.37 1752.78 1740.37 1755.91 1743.51 1755.91 1747.37Z" fill="#A6A6A6"/><path d="M1754.91 2082.37C1754.91 2086.24 1751.78 2089.37 1747.91 2089.37 1744.05 2089.37 1740.91 2086.24 1740.91 2082.37 1740.91 2078.51 1744.05 2075.37 1747.91 2075.37 1751.78 2075.37 1754.91 2078.51 1754.91 2082.37Z" fill="#A6A6A6"/><path d="M1727.91 1279.37C1727.91 1283.24 1724.78 1286.37 1720.91 1286.37 1717.05 1286.37 1713.91 1283.24 1713.91 1279.37 1713.91 1275.51 1717.05 1272.37 1720.91 1272.37 1724.78 1272.37 1727.91 1275.51 1727.91 1279.37Z" fill="#A6A6A6"/><path d="M1721.91 2016.37C1721.91 2020.24 1718.78 2023.37 1714.91 2023.37 1711.05 2023.37 1707.91 2020.24 1707.91 2016.37 1707.91 2012.51 1711.05 2009.37 1714.91 2009.37 1718.78 2009.37 1721.91 2012.51 1721.91 2016.37Z" fill="#A6A6A6"/><path d="M1714.91 2174.37C1714.91 2178.24 1711.78 2181.37 1707.91 2181.37 1704.05 2181.37 1700.91 2178.24 1700.91 2174.37 1700.91 2170.51 1704.05 2167.37 1707.91 2167.37 1711.78 2167.37 1714.91 2170.51 1714.91 2174.37Z" fill="#A6A6A6"/><path d="M1710.91 1945.37C1710.91 1949.24 1707.78 1952.37 1703.91 1952.37 1700.05 1952.37 1696.91 1949.24 1696.91 1945.37 1696.91 1941.51 1700.05 1938.37 1703.91 1938.37 1707.78 1938.37 1710.91 1941.51 1710.91 1945.37Z" fill="#A6A6A6"/><path d="M1700.91 1883.37C1700.91 1887.24 1697.78 1890.37 1693.91 1890.37 1690.05 1890.37 1686.91 1887.24 1686.91 1883.37 1686.91 1879.51 1690.05 1876.37 1693.91 1876.37 1697.78 1876.37 1700.91 1879.51 1700.91 1883.37Z" fill="#A6A6A6"/><path d="M1690.91 2282.37C1690.91 2286.24 1687.78 2289.37 1683.91 2289.37 1680.05 2289.37 1676.91 2286.24 1676.91 2282.37 1676.91 2278.51 1680.05 2275.37 1683.91 2275.37 1687.78 2275.37 1690.91 2278.51 1690.91 2282.37Z" fill="#A6A6A6"/><path d="M1682.91 2035.37C1682.91 2039.24 1679.78 2042.37 1675.91 2042.37 1672.05 2042.37 1668.91 2039.24 1668.91 2035.37 1668.91 2031.51 1672.05 2028.37 1675.91 2028.37 1679.78 2028.37 1682.91 2031.51 1682.91 2035.37Z" fill="#A6A6A6"/><path d="M1679.91 1981.37C1679.91 1985.24 1676.78 1988.37 1672.91 1988.37 1669.05 1988.37 1665.91 1985.24 1665.91 1981.37 1665.91 1977.51 1669.05 1974.37 1672.91 1974.37 1676.78 1974.37 1679.91 1977.51 1679.91 1981.37Z" fill="#A6A6A6"/><path d="M1664.91 1771.37C1664.91 1775.24 1661.78 1778.37 1657.91 1778.37 1654.05 1778.37 1650.91 1775.24 1650.91 1771.37 1650.91 1767.51 1654.05 1764.37 1657.91 1764.37 1661.78 1764.37 1664.91 1767.51 1664.91 1771.37Z" fill="#A6A6A6"/><path d="M1631.91 2228.37C1631.91 2232.24 1628.78 2235.37 1624.91 2235.37 1621.05 2235.37 1617.91 2232.24 1617.91 2228.37 1617.91 2224.51 1621.05 2221.37 1624.91 2221.37 1628.78 2221.37 1631.91 2224.51 1631.91 2228.37Z" fill="#A6A6A6"/><path d="M1626.91 2135.37C1626.91 2139.24 1623.78 2142.37 1619.91 2142.37 1616.05 2142.37 1612.91 2139.24 1612.91 2135.37 1612.91 2131.51 1616.05 2128.37 1619.91 2128.37 1623.78 2128.37 1626.91 2131.51 1626.91 2135.37Z" fill="#A6A6A6"/><path d="M1619.91 1897.37C1619.91 1901.24 1616.78 1904.37 1612.91 1904.37 1609.05 1904.37 1605.91 1901.24 1605.91 1897.37 1605.91 1893.51 1609.05 1890.37 1612.91 1890.37 1616.78 1890.37 1619.91 1893.51 1619.91 1897.37Z" fill="#A6A6A6"/><path d="M1583.91 1928.37C1583.91 1932.24 1580.78 1935.37 1576.91 1935.37 1573.05 1935.37 1569.91 1932.24 1569.91 1928.37 1569.91 1924.51 1573.05 1921.37 1576.91 1921.37 1580.78 1921.37 1583.91 1924.51 1583.91 1928.37Z" fill="#A6A6A6"/><path d="M1562.91 1875.37C1562.91 1879.24 1559.78 1882.37 1555.91 1882.37 1552.05 1882.37 1548.91 1879.24 1548.91 1875.37 1548.91 1871.51 1552.05 1868.37 1555.91 1868.37 1559.78 1868.37 1562.91 1871.51 1562.91 1875.37Z" fill="#A6A6A6"/><path d="M1503.91 2080.37C1503.91 2084.24 1500.78 2087.37 1496.91 2087.37 1493.05 2087.37 1489.91 2084.24 1489.91 2080.37 1489.91 2076.51 1493.05 2073.37 1496.91 2073.37 1500.78 2073.37 1503.91 2076.51 1503.91 2080.37Z" fill="#A6A6A6"/><path d="M1496.91 2364.37C1496.91 2368.24 1493.78 2371.37 1489.91 2371.37 1486.05 2371.37 1482.91 2368.24 1482.91 2364.37 1482.91 2360.51 1486.05 2357.37 1489.91 2357.37 1493.78 2357.37 1496.91 2360.51 1496.91 2364.37Z" fill="#A6A6A6"/><path d="M1491.91 2452.37C1491.91 2456.24 1488.78 2459.37 1484.91 2459.37 1481.05 2459.37 1477.91 2456.24 1477.91 2452.37 1477.91 2448.51 1481.05 2445.37 1484.91 2445.37 1488.78 2445.37 1491.91 2448.51 1491.91 2452.37Z" fill="#A6A6A6"/><path d="M1491.91 2336.37C1491.91 2340.24 1488.78 2343.37 1484.91 2343.37 1481.05 2343.37 1477.91 2340.24 1477.91 2336.37 1477.91 2332.51 1481.05 2329.37 1484.91 2329.37 1488.78 2329.37 1491.91 2332.51 1491.91 2336.37Z" fill="#A6A6A6"/><path d="M1473.91 1919.37C1473.91 1923.24 1470.78 1926.37 1466.91 1926.37 1463.05 1926.37 1459.91 1923.24 1459.91 1919.37 1459.91 1915.51 1463.05 1912.37 1466.91 1912.37 1470.78 1912.37 1473.91 1915.51 1473.91 1919.37Z" fill="#A6A6A6"/><path d="M1466.91 1980.37C1466.91 1984.24 1463.78 1987.37 1459.91 1987.37 1456.05 1987.37 1452.91 1984.24 1452.91 1980.37 1452.91 1976.51 1456.05 1973.37 1459.91 1973.37 1463.78 1973.37 1466.91 1976.51 1466.91 1980.37Z" fill="#A6A6A6"/><path d="M1462.91 2276.37C1462.91 2280.24 1459.78 2283.37 1455.91 2283.37 1452.05 2283.37 1448.91 2280.24 1448.91 2276.37 1448.91 2272.51 1452.05 2269.37 1455.91 2269.37 1459.78 2269.37 1462.91 2272.51 1462.91 2276.37Z" fill="#A6A6A6"/><path d="M1457.91 2415.37C1457.91 2419.24 1454.78 2422.37 1450.91 2422.37 1447.05 2422.37 1443.91 2419.24 1443.91 2415.37 1443.91 2411.51 1447.05 2408.37 1450.91 2408.37 1454.78 2408.37 1457.91 2411.51 1457.91 2415.37Z" fill="#A6A6A6"/><path d="M1438.91 2367.37C1438.91 2371.24 1435.78 2374.37 1431.91 2374.37 1428.05 2374.37 1424.91 2371.24 1424.91 2367.37 1424.91 2363.51 1428.05 2360.37 1431.91 2360.37 1435.78 2360.37 1438.91 2363.51 1438.91 2367.37Z" fill="#A6A6A6"/><path d="M1435.91 2402.37C1435.91 2406.24 1432.78 2409.37 1428.91 2409.37 1425.05 2409.37 1421.91 2406.24 1421.91 2402.37 1421.91 2398.51 1425.05 2395.37 1428.91 2395.37 1432.78 2395.37 1435.91 2398.51 1435.91 2402.37Z" fill="#A6A6A6"/><path d="M1427.91 2269.37C1427.91 2273.24 1424.78 2276.37 1420.91 2276.37 1417.05 2276.37 1413.91 2273.24 1413.91 2269.37 1413.91 2265.51 1417.05 2262.37 1420.91 2262.37 1424.78 2262.37 1427.91 2265.51 1427.91 2269.37Z" fill="#A6A6A6"/><path d="M1416.91 2369.37C1416.91 2373.24 1413.78 2376.37 1409.91 2376.37 1406.05 2376.37 1402.91 2373.24 1402.91 2369.37 1402.91 2365.51 1406.05 2362.37 1409.91 2362.37 1413.78 2362.37 1416.91 2365.51 1416.91 2369.37Z" fill="#A6A6A6"/><path d="M1407.91 2307.37C1407.91 2311.24 1404.78 2314.37 1400.91 2314.37 1397.05 2314.37 1393.91 2311.24 1393.91 2307.37 1393.91 2303.51 1397.05 2300.37 1400.91 2300.37 1404.78 2300.37 1407.91 2303.51 1407.91 2307.37Z" fill="#A6A6A6"/><path d="M1387.91 2399.37C1387.91 2403.24 1384.78 2406.37 1380.91 2406.37 1377.05 2406.37 1373.91 2403.24 1373.91 2399.37 1373.91 2395.51 1377.05 2392.37 1380.91 2392.37 1384.78 2392.37 1387.91 2395.51 1387.91 2399.37Z" fill="#A6A6A6"/><path d="M1383.91 2519.37C1383.91 2523.24 1380.78 2526.37 1376.91 2526.37 1373.05 2526.37 1369.91 2523.24 1369.91 2519.37 1369.91 2515.51 1373.05 2512.37 1376.91 2512.37 1380.78 2512.37 1383.91 2515.51 1383.91 2519.37Z" fill="#A6A6A6"/><path d="M1379.91 2338.37C1379.91 2342.24 1376.78 2345.37 1372.91 2345.37 1369.05 2345.37 1365.91 2342.24 1365.91 2338.37 1365.91 2334.51 1369.05 2331.37 1372.91 2331.37 1376.78 2331.37 1379.91 2334.51 1379.91 2338.37Z" fill="#A6A6A6"/><path d="M1379.91 2384.37C1379.91 2388.24 1376.78 2391.37 1372.91 2391.37 1369.05 2391.37 1365.91 2388.24 1365.91 2384.37 1365.91 2380.51 1369.05 2377.37 1372.91 2377.37 1376.78 2377.37 1379.91 2380.51 1379.91 2384.37Z" fill="#A6A6A6"/><path d="M1372.91 2536.37C1372.91 2540.24 1369.78 2543.37 1365.91 2543.37 1362.05 2543.37 1358.91 2540.24 1358.91 2536.37 1358.91 2532.51 1362.05 2529.37 1365.91 2529.37 1369.78 2529.37 1372.91 2532.51 1372.91 2536.37Z" fill="#A6A6A6"/><path d="M1369.91 2395.37C1369.91 2399.24 1366.78 2402.37 1362.91 2402.37 1359.05 2402.37 1355.91 2399.24 1355.91 2395.37 1355.91 2391.51 1359.05 2388.37 1362.91 2388.37 1366.78 2388.37 1369.91 2391.51 1369.91 2395.37Z" fill="#A6A6A6"/><path d="M1358.91 2358.37C1358.91 2362.24 1355.78 2365.37 1351.91 2365.37 1348.05 2365.37 1344.91 2362.24 1344.91 2358.37 1344.91 2354.51 1348.05 2351.37 1351.91 2351.37 1355.78 2351.37 1358.91 2354.51 1358.91 2358.37Z" fill="#A6A6A6"/><path d="M1340.91 2525.37C1340.91 2529.24 1337.78 2532.37 1333.91 2532.37 1330.05 2532.37 1326.91 2529.24 1326.91 2525.37 1326.91 2521.51 1330.05 2518.37 1333.91 2518.37 1337.78 2518.37 1340.91 2521.51 1340.91 2525.37Z" fill="#A6A6A6"/><path d="M1308.91 2314.37C1308.91 2318.24 1305.78 2321.37 1301.91 2321.37 1298.05 2321.37 1294.91 2318.24 1294.91 2314.37 1294.91 2310.51 1298.05 2307.37 1301.91 2307.37 1305.78 2307.37 1308.91 2310.51 1308.91 2314.37Z" fill="#A6A6A6"/><path d="M1287.91 2463.37C1287.91 2467.24 1284.78 2470.37 1280.91 2470.37 1277.05 2470.37 1273.91 2467.24 1273.91 2463.37 1273.91 2459.51 1277.05 2456.37 1280.91 2456.37 1284.78 2456.37 1287.91 2459.51 1287.91 2463.37Z" fill="#A6A6A6"/><path d="M1257.91 2561.37C1257.91 2565.24 1254.78 2568.37 1250.91 2568.37 1247.05 2568.37 1243.91 2565.24 1243.91 2561.37 1243.91 2557.51 1247.05 2554.37 1250.91 2554.37 1254.78 2554.37 1257.91 2557.51 1257.91 2561.37Z" fill="#A6A6A6"/><path d="M1227.91 2477.37C1227.91 2481.24 1224.78 2484.37 1220.91 2484.37 1217.05 2484.37 1213.91 2481.24 1213.91 2477.37 1213.91 2473.51 1217.05 2470.37 1220.91 2470.37 1224.78 2470.37 1227.91 2473.51 1227.91 2477.37Z" fill="#A6A6A6"/><path d="M1208.91 2194.37C1208.91 2198.24 1205.78 2201.37 1201.91 2201.37 1198.05 2201.37 1194.91 2198.24 1194.91 2194.37 1194.91 2190.51 1198.05 2187.37 1201.91 2187.37 1205.78 2187.37 1208.91 2190.51 1208.91 2194.37Z" fill="#A6A6A6"/><path d="M1200.91 2450.37C1200.91 2454.24 1197.78 2457.37 1193.91 2457.37 1190.05 2457.37 1186.91 2454.24 1186.91 2450.37 1186.91 2446.51 1190.05 2443.37 1193.91 2443.37 1197.78 2443.37 1200.91 2446.51 1200.91 2450.37Z" fill="#A6A6A6"/><path d="M1180.91 2552.37C1180.91 2556.24 1177.78 2559.37 1173.91 2559.37 1170.05 2559.37 1166.91 2556.24 1166.91 2552.37 1166.91 2548.51 1170.05 2545.37 1173.91 2545.37 1177.78 2545.37 1180.91 2548.51 1180.91 2552.37Z" fill="#A6A6A6"/><path d="M1147.91 2519.37C1147.91 2523.24 1144.78 2526.37 1140.91 2526.37 1137.05 2526.37 1133.91 2523.24 1133.91 2519.37 1133.91 2515.51 1137.05 2512.37 1140.91 2512.37 1144.78 2512.37 1147.91 2515.51 1147.91 2519.37Z" fill="#A6A6A6"/><path d="M1141.91 2545.37C1141.91 2549.24 1138.78 2552.37 1134.91 2552.37 1131.05 2552.37 1127.91 2549.24 1127.91 2545.37 1127.91 2541.51 1131.05 2538.37 1134.91 2538.37 1138.78 2538.37 1141.91 2541.51 1141.91 2545.37Z" fill="#A6A6A6"/><path d="M1134.91 2536.37C1134.91 2540.24 1131.78 2543.37 1127.91 2543.37 1124.05 2543.37 1120.91 2540.24 1120.91 2536.37 1120.91 2532.51 1124.05 2529.37 1127.91 2529.37 1131.78 2529.37 1134.91 2532.51 1134.91 2536.37Z" fill="#A6A6A6"/><path d="M1126.91 2519.37C1126.91 2523.24 1123.78 2526.37 1119.91 2526.37 1116.05 2526.37 1112.91 2523.24 1112.91 2519.37 1112.91 2515.51 1116.05 2512.37 1119.91 2512.37 1123.78 2512.37 1126.91 2515.51 1126.91 2519.37Z" fill="#A6A6A6"/><path d="M1101.91 2582.37C1101.91 2586.24 1098.78 2589.37 1094.91 2589.37 1091.05 2589.37 1087.91 2586.24 1087.91 2582.37 1087.91 2578.51 1091.05 2575.37 1094.91 2575.37 1098.78 2575.37 1101.91 2578.51 1101.91 2582.37Z" fill="#A6A6A6"/><path d="M1098.91 2563.37C1098.91 2567.24 1095.78 2570.37 1091.91 2570.37 1088.05 2570.37 1084.91 2567.24 1084.91 2563.37 1084.91 2559.51 1088.05 2556.37 1091.91 2556.37 1095.78 2556.37 1098.91 2559.51 1098.91 2563.37Z" fill="#A6A6A6"/><path d="M1067.91 2558.37C1067.91 2562.24 1064.78 2565.37 1060.91 2565.37 1057.05 2565.37 1053.91 2562.24 1053.91 2558.37 1053.91 2554.51 1057.05 2551.37 1060.91 2551.37 1064.78 2551.37 1067.91 2554.51 1067.91 2558.37Z" fill="#A6A6A6"/><path d="M1059.91 2527.37C1059.91 2531.24 1056.78 2534.37 1052.91 2534.37 1049.05 2534.37 1045.91 2531.24 1045.91 2527.37 1045.91 2523.51 1049.05 2520.37 1052.91 2520.37 1056.78 2520.37 1059.91 2523.51 1059.91 2527.37Z" fill="#A6A6A6"/><path d="M1057.91 2552.37C1057.91 2556.24 1054.78 2559.37 1050.91 2559.37 1047.05 2559.37 1043.91 2556.24 1043.91 2552.37 1043.91 2548.51 1047.05 2545.37 1050.91 2545.37 1054.78 2545.37 1057.91 2548.51 1057.91 2552.37Z" fill="#A6A6A6"/><path d="M1053.91 2186.37C1053.91 2190.24 1050.78 2193.37 1046.91 2193.37 1043.05 2193.37 1039.91 2190.24 1039.91 2186.37 1039.91 2182.51 1043.05 2179.37 1046.91 2179.37 1050.78 2179.37 1053.91 2182.51 1053.91 2186.37Z" fill="#A6A6A6"/><path d="M1049.91 2587.37C1049.91 2591.24 1046.78 2594.37 1042.91 2594.37 1039.05 2594.37 1035.91 2591.24 1035.91 2587.37 1035.91 2583.51 1039.05 2580.37 1042.91 2580.37 1046.78 2580.37 1049.91 2583.51 1049.91 2587.37Z" fill="#A6A6A6"/><path d="M1048.91 2567.37C1048.91 2571.24 1045.78 2574.37 1041.91 2574.37 1038.05 2574.37 1034.91 2571.24 1034.91 2567.37 1034.91 2563.51 1038.05 2560.37 1041.91 2560.37 1045.78 2560.37 1048.91 2563.51 1048.91 2567.37Z" fill="#A6A6A6"/><path d="M1048.91 2558.37C1048.91 2562.24 1045.78 2565.37 1041.91 2565.37 1038.05 2565.37 1034.91 2562.24 1034.91 2558.37 1034.91 2554.51 1038.05 2551.37 1041.91 2551.37 1045.78 2551.37 1048.91 2554.51 1048.91 2558.37Z" fill="#A6A6A6"/><path d="M1043.91 2514.37C1043.91 2518.24 1040.78 2521.37 1036.91 2521.37 1033.05 2521.37 1029.91 2518.24 1029.91 2514.37 1029.91 2510.51 1033.05 2507.37 1036.91 2507.37 1040.78 2507.37 1043.91 2510.51 1043.91 2514.37Z" fill="#A6A6A6"/><path d="M991.912 2550.37C991.912 2554.24 988.778 2557.37 984.912 2557.37 981.046 2557.37 977.912 2554.24 977.912 2550.37 977.912 2546.51 981.046 2543.37 984.912 2543.37 988.778 2543.37 991.912 2546.51 991.912 2550.37Z" fill="#A6A6A6"/><path d="M940.912 2582.37C940.912 2586.24 937.778 2589.37 933.912 2589.37 930.046 2589.37 926.912 2586.24 926.912 2582.37 926.912 2578.51 930.046 2575.37 933.912 2575.37 937.778 2575.37 940.912 2578.51 940.912 2582.37Z" fill="#A6A6A6"/><path d="M931.912 2525.37C931.912 2529.24 928.778 2532.37 924.912 2532.37 921.046 2532.37 917.912 2529.24 917.912 2525.37 917.912 2521.51 921.046 2518.37 924.912 2518.37 928.778 2518.37 931.912 2521.51 931.912 2525.37Z" fill="#A6A6A6"/><path d="M918.912 2572.37C918.912 2576.24 915.778 2579.37 911.912 2579.37 908.046 2579.37 904.912 2576.24 904.912 2572.37 904.912 2568.51 908.046 2565.37 911.912 2565.37 915.778 2565.37 918.912 2568.51 918.912 2572.37Z" fill="#A6A6A6"/><path d="M912.912 2572.37C912.912 2576.24 909.778 2579.37 905.912 2579.37 902.046 2579.37 898.912 2576.24 898.912 2572.37 898.912 2568.51 902.046 2565.37 905.912 2565.37 909.778 2565.37 912.912 2568.51 912.912 2572.37Z" fill="#A6A6A6"/><path d="M909.912 2578.37C909.912 2582.24 906.778 2585.37 902.912 2585.37 899.046 2585.37 895.912 2582.24 895.912 2578.37 895.912 2574.51 899.046 2571.37 902.912 2571.37 906.778 2571.37 909.912 2574.51 909.912 2578.37Z" fill="#A6A6A6"/><path d="M859.912 2583.37C859.912 2587.24 856.778 2590.37 852.912 2590.37 849.046 2590.37 845.912 2587.24 845.912 2583.37 845.912 2579.51 849.046 2576.37 852.912 2576.37 856.778 2576.37 859.912 2579.51 859.912 2583.37Z" fill="#A6A6A6"/><path d="M859.912 2565.37C859.912 2569.24 856.778 2572.37 852.912 2572.37 849.046 2572.37 845.912 2569.24 845.912 2565.37 845.912 2561.51 849.046 2558.37 852.912 2558.37 856.778 2558.37 859.912 2561.51 859.912 2565.37Z" fill="#A6A6A6"/><path d="M850.912 2585.37C850.912 2589.24 847.778 2592.37 843.912 2592.37 840.046 2592.37 836.912 2589.24 836.912 2585.37 836.912 2581.51 840.046 2578.37 843.912 2578.37 847.778 2578.37 850.912 2581.51 850.912 2585.37Z" fill="#A6A6A6"/><path d="M838.912 2556.37C838.912 2560.24 835.778 2563.37 831.912 2563.37 828.046 2563.37 824.912 2560.24 824.912 2556.37 824.912 2552.51 828.046 2549.37 831.912 2549.37 835.778 2549.37 838.912 2552.51 838.912 2556.37Z" fill="#A6A6A6"/><path d="M835.912 2545.37C835.912 2549.24 832.778 2552.37 828.912 2552.37 825.046 2552.37 821.912 2549.24 821.912 2545.37 821.912 2541.51 825.046 2538.37 828.912 2538.37 832.778 2538.37 835.912 2541.51 835.912 2545.37Z" fill="#A6A6A6"/><path d="M809.912 2508.37C809.912 2512.24 806.778 2515.37 802.912 2515.37 799.046 2515.37 795.912 2512.24 795.912 2508.37 795.912 2504.51 799.046 2501.37 802.912 2501.37 806.778 2501.37 809.912 2504.51 809.912 2508.37Z" fill="#A6A6A6"/><path d="M805.912 2569.37C805.912 2573.24 802.778 2576.37 798.912 2576.37 795.046 2576.37 791.912 2573.24 791.912 2569.37 791.912 2565.51 795.046 2562.37 798.912 2562.37 802.778 2562.37 805.912 2565.51 805.912 2569.37Z" fill="#A6A6A6"/><path d="M790.912 2583.37C790.912 2587.24 787.778 2590.37 783.912 2590.37 780.046 2590.37 776.912 2587.24 776.912 2583.37 776.912 2579.51 780.046 2576.37 783.912 2576.37 787.778 2576.37 790.912 2579.51 790.912 2583.37Z" fill="#A6A6A6"/><path d="M752.912 2545.37C752.912 2549.24 749.778 2552.37 745.912 2552.37 742.046 2552.37 738.912 2549.24 738.912 2545.37 738.912 2541.51 742.046 2538.37 745.912 2538.37 749.778 2538.37 752.912 2541.51 752.912 2545.37Z" fill="#A6A6A6"/><path d="M723.912 2582.37C723.912 2586.24 720.778 2589.37 716.912 2589.37 713.046 2589.37 709.912 2586.24 709.912 2582.37 709.912 2578.51 713.046 2575.37 716.912 2575.37 720.778 2575.37 723.912 2578.51 723.912 2582.37Z" fill="#A6A6A6"/><path d="M697.912 2580.37C697.912 2584.24 694.778 2587.37 690.912 2587.37 687.046 2587.37 683.912 2584.24 683.912 2580.37 683.912 2576.51 687.046 2573.37 690.912 2573.37 694.778 2573.37 697.912 2576.51 697.912 2580.37Z" fill="#A6A6A6"/><path d="M671.912 2583.37C671.912 2587.24 668.778 2590.37 664.912 2590.37 661.046 2590.37 657.912 2587.24 657.912 2583.37 657.912 2579.51 661.046 2576.37 664.912 2576.37 668.778 2576.37 671.912 2579.51 671.912 2583.37Z" fill="#A6A6A6"/></g><g><path d="M2155 1061C2155 1064.87 2151.87 1068 2148 1068 2144.13 1068 2141 1064.87 2141 1061 2141 1057.13 2144.13 1054 2148 1054 2151.87 1054 2155 1057.13 2155 1061Z" fill="#A6A6A6"/></g><g><path d="M2054 1567C2054 1570.87 2050.87 1574 2047 1574 2043.13 1574 2040 1570.87 2040 1567 2040 1563.13 2043.13 1560 2047 1560 2050.87 1560 2054 1563.13 2054 1567Z" fill="#A6A6A6"/></g><g><path d="M1968 1725C1968 1728.87 1964.87 1732 1961 1732 1957.13 1732 1954 1728.87 1954 1725 1954 1721.13 1957.13 1718 1961 1718 1964.87 1718 1968 1721.13 1968 1725Z" fill="#A6A6A6"/></g><g><path d="M1620 2050C1620 2053.87 1616.87 2057 1613 2057 1609.13 2057 1606 2053.87 1606 2050 1606 2046.13 1609.13 2043 1613 2043 1616.87 2043 1620 2046.13 1620 2050Z" fill="#A6A6A6"/></g><g><path d="M1618 1802C1618 1805.87 1614.87 1809 1611 1809 1607.13 1809 1604 1805.87 1604 1802 1604 1798.13 1607.13 1795 1611 1795 1614.87 1795 1618 1798.13 1618 1802Z" fill="#A6A6A6"/></g><g><path d="M1351 2411C1351 2414.87 1347.87 2418 1344 2418 1340.13 2418 1337 2414.87 1337 2411 1337 2407.13 1340.13 2404 1344 2404 1347.87 2404 1351 2407.13 1351 2411Z" fill="#A6A6A6"/></g><g><path d="M1091 2466C1091 2469.87 1087.87 2473 1084 2473 1080.13 2473 1077 2469.87 1077 2466 1077 2462.13 1080.13 2459 1084 2459 1087.87 2459 1091 2462.13 1091 2466Z" fill="#A6A6A6"/></g><g><path d="M771 2548C771 2551.87 767.866 2555 764 2555 760.134 2555 757 2551.87 757 2548 757 2544.13 760.134 2541 764 2541 767.866 2541 771 2544.13 771 2548Z" fill="#A6A6A6"/></g><g><text fill="#FFFFFF" font-family="Arial,Arial_MSFontService,sans-serif" font-weight="400" font-size="46" transform="matrix(1 0 0 1 2332.63 2609)">0</text></g><g><text fill="#FFFFFF" font-family="Arial,Arial_MSFontService,sans-serif" font-weight="400" font-size="46" transform="matrix(1 0 0 1 2332.63 2426)">100</text></g><g><text fill="#FFFFFF" font-family="Arial,Arial_MSFontService,sans-serif" font-weight="400" font-size="46" transform="matrix(1 0 0 1 2332.63 2243)">200</text></g><g><text fill="#FFFFFF" font-family="Arial,Arial_MSFontService,sans-serif" font-weight="400" font-size="46" transform="matrix(1 0 0 1 2332.63 2061)">300</text></g><g><text fill="#FFFFFF" font-family="Arial,Arial_MSFontService,sans-serif" font-weight="400" font-size="46" transform="matrix(1 0 0 1 2332.63 1878)">400</text></g><g><text fill="#FFFFFF" font-family="Arial,Arial_MSFontService,sans-serif" font-weight="400" font-size="46" transform="matrix(1 0 0 1 2332.63 1695)">500</text></g><g><text fill="#FFFFFF" font-family="Arial,Arial_MSFontService,sans-serif" font-weight="400" font-size="46" transform="matrix(1 0 0 1 2332.63 1512)">600</text></g><g><text fill="#FFFFFF" font-family="Arial,Arial_MSFontService,sans-serif" font-weight="400" font-size="46" transform="matrix(1 0 0 1 2332.63 1329)">700</text></g><g><text fill="#FFFFFF" font-family="Arial,Arial_MSFontService,sans-serif" font-weight="400" font-size="46" transform="matrix(1 0 0 1 2332.63 1146)">800</text></g><g><text fill="#FFFFFF" font-family="Arial,Arial_MSFontService,sans-serif" font-weight="400" font-size="46" transform="matrix(1 0 0 1 2332.63 963)">900</text></g><g><text fill="#FFFFFF" font-family="Arial,Arial_MSFontService,sans-serif" font-weight="400" font-size="46" transform="matrix(1 0 0 1 492.971 2609)">0</text></g><g><text fill="#FFFFFF" font-family="Arial,Arial_MSFontService,sans-serif" font-weight="400" font-size="46" transform="matrix(1 0 0 1 454.746 2280)">0.5</text></g><g><text fill="#FFFFFF" font-family="Arial,Arial_MSFontService,sans-serif" font-weight="400" font-size="46" transform="matrix(1 0 0 1 492.971 1951)">1</text></g><g><text fill="#FFFFFF" font-family="Arial,Arial_MSFontService,sans-serif" font-weight="400" font-size="46" transform="matrix(1 0 0 1 454.746 1621)">1.5</text></g><g><text fill="#FFFFFF" font-family="Arial,Arial_MSFontService,sans-serif" font-weight="400" font-size="46" transform="matrix(1 0 0 1 492.971 1292)">2</text></g><g><text fill="#FFFFFF" font-family="Arial,Arial_MSFontService,sans-serif" font-weight="400" font-size="46" transform="matrix(1 0 0 1 454.746 963)">2.5</text></g><g><text fill="#FFFFFF" font-family="Calibri,Calibri_MSFontService,sans-serif" font-weight="400" font-size="50" transform="matrix(1 0 0 1 519.569 2674)">250</text></g><g><text fill="#FFFFFF" font-family="Calibri,Calibri_MSFontService,sans-serif" font-weight="400" font-size="50" transform="matrix(1 0 0 1 1173.68 2674)">2500</text></g><g><text fill="#FFFFFF" font-family="Calibri,Calibri_MSFontService,sans-serif" font-weight="400" font-size="50" transform="matrix(1 0 0 1 1827.8 2674)">25000</text></g><g><text fill="#00124D" font-family="Arial,Arial_MSFontService,sans-serif" font-weight="700" font-size="64" transform="matrix(6.12323e-17 -1 1 6.12323e-17 2380.17 2111)">Demand per capita</text></g><g><text fill="#C57B57" font-family="Arial,Arial_MSFontService,sans-serif" font-weight="700" font-size="64" transform="matrix(6.12323e-17 -1 1 6.12323e-17 513.638 2085)">Income elasticity</text></g><g><text font-family="Arial,Arial_MSFontService,sans-serif" font-weight="700" font-size="64" transform="matrix(1 0 0 1 1103.71 2673)">Income per capita</text></g><text font-family="Roboto,Roboto_MSFontService,sans-serif" font-weight="700" font-size="73" transform="matrix(1 0 0 1 503.079 882)">S</text><text font-family="Roboto,Roboto_MSFontService,sans-serif" font-weight="700" font-size="73" transform="matrix(1 0 0 1 548.339 882)">-</text><text font-family="Roboto,Roboto_MSFontService,sans-serif" font-weight="700" font-size="73" transform="matrix(1 0 0 1 576.985 882)">CURVE WITH CORRESPONDING INCOME ELASTICITY</text><rect x="672.5" y="2067.5" width="445" height="180" stroke="#FFFFFF" stroke-width="4.58333" stroke-miterlimit="8" fill="#FFFFFF"/><rect x="1765.5" y="1024.5" width="444" height="180" stroke="#FFFFFF" stroke-width="4.58333" stroke-miterlimit="8" fill="#FFFFFF"/></g></svg>