<svg width="1650" height="2660" xmlns="http://www.w3.org/2000/svg" xmlns:xlink="http://www.w3.org/1999/xlink" xml:space="preserve" overflow="hidden"><defs><clipPath id="clip0"><rect x="447" y="815" width="1650" height="2660"/></clipPath></defs><g clip-path="url(#clip0)" transform="translate(-447 -815)"><text font-family="Arial,Arial_MSFontService,sans-serif" font-weight="700" font-size="64" transform="matrix(1 0 0 1 617.341 897)">WORLD CUP PERFORMANCE 2002 − 2026</text><text font-family="Arial,Arial_MSFontService,sans-serif" font-weight="400" font-size="60" transform="matrix(1 0 0 1 540.272 970)">Final 16 countries in 7 cups, ranked by Zipf distribution</text><text font-family="Arial,Arial_MSFontService,sans-serif" font-weight="400" font-size="46" transform="matrix(1 0 0 1 807.691 3437)">Source: </text><text font-family="Arial,Arial_MSFontService,sans-serif" font-weight="400" font-size="46" transform="matrix(1 0 0 1 977.274 3437)">S.Canback</text><text font-family="Arial,Arial_MSFontService,sans-serif" font-weight="400" font-size="46" transform="matrix(1 0 0 1 1212.74 3437)">(Tellusant) analysis; FIFA</text><rect x="447" y="1001" width="1650" height="2396" fill="#FFFFFF"/><g><path d="M0 0 0.000360892 2279" stroke="#D9D9D9" stroke-width="3.4375" stroke-linejoin="round" stroke-miterlimit="10" fill="none" fill-rule="evenodd" transform="matrix(1 0 0 -1 906.5 3338.5)"/></g><g><path d="M913.5 3310.61 906.5 3310.61M906.5 3300.5 906.5 3320.5" stroke="#BFBFBF" stroke-width="3.4375" stroke-linejoin="round" stroke-miterlimit="10" fill="none"/></g><g><path d="M915.5 3253.61 906.5 3253.61M906.5 3243.5 906.5 3263.5" stroke="#BFBFBF" stroke-width="3.4375" stroke-linejoin="round" stroke-miterlimit="10" fill="none"/></g><g><path d="M916.5 3196.6 906.5 3196.6M906.5 3186.5 906.5 3206.5" stroke="#BFBFBF" stroke-width="3.4375" stroke-linejoin="round" stroke-miterlimit="10" fill="none"/></g><g><path d="M919.5 3139.6 906.5 3139.6M906.5 3129.5 906.5 3149.5" stroke="#BFBFBF" stroke-width="3.4375" stroke-linejoin="round" stroke-miterlimit="10" fill="none"/></g><g><path d="M919.5 3082.6 906.5 3082.6M906.5 3072.5 906.5 3092.5" stroke="#BFBFBF" stroke-width="3.4375" stroke-linejoin="round" stroke-miterlimit="10" fill="none"/></g><g><path d="M919.5 3025.6 906.5 3025.6M906.5 3015.5 906.5 3035.5" stroke="#BFBFBF" stroke-width="3.4375" stroke-linejoin="round" stroke-miterlimit="10" fill="none"/></g><g><path d="M923.5 2968.6 906.5 2968.6M906.5 2958.5 906.5 2978.5" stroke="#BFBFBF" stroke-width="3.4375" stroke-linejoin="round" stroke-miterlimit="10" fill="none"/></g><g><path d="M929.5 2911.6 906.5 2911.6M906.5 2901.5 906.5 2921.5" stroke="#BFBFBF" stroke-width="3.4375" stroke-linejoin="round" stroke-miterlimit="10" fill="none"/></g><g><path d="M931.5 2854.59 906.5 2854.59M906.5 2844.5 906.5 2864.5" stroke="#BFBFBF" stroke-width="3.4375" stroke-linejoin="round" stroke-miterlimit="10" fill="none"/></g><g><path d="M931.5 2797.59 906.5 2797.59M906.5 2787.5 906.5 2807.5" stroke="#BFBFBF" stroke-width="3.4375" stroke-linejoin="round" stroke-miterlimit="10" fill="none"/></g><g><path d="M932.5 2740.59 906.5 2740.59M906.5 2730.5 906.5 2750.5" stroke="#BFBFBF" stroke-width="3.4375" stroke-linejoin="round" stroke-miterlimit="10" fill="none"/></g><g><path d="M934.5 2683.59 906.5 2683.59M906.5 2673.5 906.5 2693.5" stroke="#BFBFBF" stroke-width="3.4375" stroke-linejoin="round" stroke-miterlimit="10" fill="none"/></g><g><path d="M936.5 2626.59 906.5 2626.59M906.5 2616.5 906.5 2636.5" stroke="#BFBFBF" stroke-width="3.4375" stroke-linejoin="round" stroke-miterlimit="10" fill="none"/></g><g><path d="M939.5 2569.58 906.5 2569.58M906.5 2559.5 906.5 2579.5" stroke="#BFBFBF" stroke-width="3.4375" stroke-linejoin="round" stroke-miterlimit="10" fill="none"/></g><g><path d="M940.5 2512.58 906.5 2512.58M906.5 2502.5 906.5 2523.5" stroke="#BFBFBF" stroke-width="3.4375" stroke-linejoin="round" stroke-miterlimit="10" fill="none"/></g><g><path d="M946.5 2455.58 906.5 2455.58M906.5 2445.5 906.5 2466.5" stroke="#BFBFBF" stroke-width="3.4375" stroke-linejoin="round" stroke-miterlimit="10" fill="none"/></g><g><path d="M955.5 2398.58 906.5 2398.58M906.5 2388.5 906.5 2409.5" stroke="#BFBFBF" stroke-width="3.4375" stroke-linejoin="round" stroke-miterlimit="10" fill="none"/></g><g><path d="M958.5 2341.58 906.5 2341.58M906.5 2331.5 906.5 2352.5" stroke="#BFBFBF" stroke-width="3.4375" stroke-linejoin="round" stroke-miterlimit="10" fill="none"/></g><g><path d="M958.5 2284.57 906.5 2284.57M906.5 2274.5 906.5 2295.5" stroke="#BFBFBF" stroke-width="3.4375" stroke-linejoin="round" stroke-miterlimit="10" fill="none"/></g><g><path d="M964.5 2227.57 906.5 2227.57M906.5 2217.5 906.5 2238.5" stroke="#BFBFBF" stroke-width="3.4375" stroke-linejoin="round" stroke-miterlimit="10" fill="none"/></g><g><path d="M967.5 2170.57 906.5 2170.57M906.5 2160.5 906.5 2181.5" stroke="#BFBFBF" stroke-width="3.4375" stroke-linejoin="round" stroke-miterlimit="10" fill="none"/></g><g><path d="M983.5 2113.57 906.5 2113.57M906.5 2103.5 906.5 2124.5" stroke="#BFBFBF" stroke-width="3.4375" stroke-linejoin="round" stroke-miterlimit="10" fill="none"/></g><g><path d="M985.5 2056.57 906.5 2056.57M906.5 2046.5 906.5 2067.5" stroke="#BFBFBF" stroke-width="3.4375" stroke-linejoin="round" stroke-miterlimit="10" fill="none"/></g><g><path d="M999.5 1999.57 906.5 1999.57M906.5 1989.5 906.5 2010.5" stroke="#BFBFBF" stroke-width="3.4375" stroke-linejoin="round" stroke-miterlimit="10" fill="none"/></g><g><path d="M1005.5 1942.56 906.5 1942.56M906.5 1932.5 906.5 1953.5" stroke="#BFBFBF" stroke-width="3.4375" stroke-linejoin="round" stroke-miterlimit="10" fill="none"/></g><g><path d="M1014.5 1885.56 906.5 1885.56M906.5 1875.5 906.5 1896.5" stroke="#BFBFBF" stroke-width="3.4375" stroke-linejoin="round" stroke-miterlimit="10" fill="none"/></g><g><path d="M1017.5 1828.56 906.5 1828.56M906.5 1818.5 906.5 1839.5" stroke="#BFBFBF" stroke-width="3.4375" stroke-linejoin="round" stroke-miterlimit="10" fill="none"/></g><g><path d="M1021.5 1772.56 906.5 1772.56M906.5 1761.5 906.5 1782.5" stroke="#BFBFBF" stroke-width="3.4375" stroke-linejoin="round" stroke-miterlimit="10" fill="none"/></g><g><path d="M1060.5 1715.56 906.5 1715.56M906.5 1704.5 906.5 1725.5" stroke="#BFBFBF" stroke-width="3.4375" stroke-linejoin="round" stroke-miterlimit="10" fill="none"/></g><g><path d="M1069.5 1658.55 906.5 1658.55M906.5 1647.5 906.5 1668.5" stroke="#BFBFBF" stroke-width="3.4375" stroke-linejoin="round" stroke-miterlimit="10" fill="none"/></g><g><path d="M1078.5 1601.55 906.5 1601.55M906.5 1590.5 906.5 1611.5" stroke="#BFBFBF" stroke-width="3.4375" stroke-linejoin="round" stroke-miterlimit="10" fill="none"/></g><g><path d="M1082.5 1544.55 906.5 1544.55M906.5 1533.5 906.5 1554.5" stroke="#BFBFBF" stroke-width="3.4375" stroke-linejoin="round" stroke-miterlimit="10" fill="none"/></g><g><path d="M1106.5 1487.55 906.5 1487.55M906.5 1476.5 906.5 1497.5" stroke="#BFBFBF" stroke-width="3.4375" stroke-linejoin="round" stroke-miterlimit="10" fill="none"/></g><g><path d="M1113.5 1430.55 906.5 1430.55M906.5 1419.5 906.5 1440.5" stroke="#BFBFBF" stroke-width="3.4375" stroke-linejoin="round" stroke-miterlimit="10" fill="none"/></g><g><path d="M1182.5 1373.55 906.5 1373.55M906.5 1362.5 906.5 1383.5" stroke="#BFBFBF" stroke-width="3.4375" stroke-linejoin="round" stroke-miterlimit="10" fill="none"/></g><g><path d="M1203.5 1316.54 906.5 1316.54M906.5 1305.5 906.5 1326.5" stroke="#BFBFBF" stroke-width="3.4375" stroke-linejoin="round" stroke-miterlimit="10" fill="none"/></g><g><path d="M1229.5 1259.54 906.5 1259.54M906.5 1249.5 906.5 1269.5" stroke="#BFBFBF" stroke-width="3.4375" stroke-linejoin="round" stroke-miterlimit="10" fill="none"/></g><g><path d="M1526.5 1202.54 906.5 1202.54M906.5 1192.5 906.5 1212.5" stroke="#BFBFBF" stroke-width="3.4375" stroke-linejoin="round" stroke-miterlimit="10" fill="none"/></g><g><path d="M1562.5 1145.54 906.5 1145.54M906.5 1135.5 906.5 1155.5" stroke="#BFBFBF" stroke-width="3.4375" stroke-linejoin="round" stroke-miterlimit="10" fill="none"/></g><g><path d="M1814.5 1088.54 906.5 1088.54M906.5 1078.5 906.5 1098.5" stroke="#BFBFBF" stroke-width="3.4375" stroke-linejoin="round" stroke-miterlimit="10" fill="none"/></g><g><path d="M925.656 3310.9C925.656 3317.25 920.508 3322.4 914.157 3322.4 907.805 3322.4 902.657 3317.25 902.657 3310.9 902.657 3304.55 907.805 3299.4 914.157 3299.4 920.508 3299.4 925.656 3304.55 925.656 3310.9Z" stroke="#C00000" stroke-width="16.0417" stroke-linejoin="round" stroke-miterlimit="10" fill="#C00000"/><path d="M926.657 3253.9C926.657 3260.25 921.508 3265.4 915.157 3265.4 908.806 3265.4 903.657 3260.25 903.657 3253.9 903.657 3247.55 908.806 3242.4 915.157 3242.4 921.508 3242.4 926.657 3247.55 926.657 3253.9Z" stroke="#C00000" stroke-width="16.0417" stroke-linejoin="round" stroke-miterlimit="10" fill="#C00000"/><path d="M928.657 3196.9C928.657 3203.25 923.508 3208.4 917.157 3208.4 910.806 3208.4 905.657 3203.25 905.657 3196.9 905.657 3190.55 910.806 3185.4 917.157 3185.4 923.508 3185.4 928.657 3190.55 928.657 3196.9Z" stroke="#C00000" stroke-width="16.0417" stroke-linejoin="round" stroke-miterlimit="10" fill="#C00000"/><path d="M931.657 3139.9C931.657 3146.25 926.508 3151.4 920.157 3151.4 913.806 3151.4 908.657 3146.25 908.657 3139.9 908.657 3133.55 913.806 3128.4 920.157 3128.4 926.508 3128.4 931.657 3133.55 931.657 3139.9Z" stroke="#C00000" stroke-width="16.0417" stroke-linejoin="round" stroke-miterlimit="10" fill="#C00000"/><path d="M931.657 3082.9C931.657 3089.25 926.508 3094.4 920.157 3094.4 913.806 3094.4 908.657 3089.25 908.657 3082.9 908.657 3076.55 913.806 3071.4 920.157 3071.4 926.508 3071.4 931.657 3076.55 931.657 3082.9Z" stroke="#C00000" stroke-width="16.0417" stroke-linejoin="round" stroke-miterlimit="10" fill="#C00000"/><path d="M931.657 3025.9C931.657 3032.25 926.508 3037.4 920.157 3037.4 913.806 3037.4 908.657 3032.25 908.657 3025.9 908.657 3019.55 913.806 3014.4 920.157 3014.4 926.508 3014.4 931.657 3019.55 931.657 3025.9Z" stroke="#C00000" stroke-width="16.0417" stroke-linejoin="round" stroke-miterlimit="10" fill="#C00000"/><path d="M934.657 2968.9C934.657 2975.25 929.508 2980.4 923.157 2980.4 916.806 2980.4 911.657 2975.25 911.657 2968.9 911.657 2962.55 916.806 2957.4 923.157 2957.4 929.508 2957.4 934.657 2962.55 934.657 2968.9Z" stroke="#C00000" stroke-width="16.0417" stroke-linejoin="round" stroke-miterlimit="10" fill="#C00000"/><path d="M941.657 2912.9C941.657 2919.25 936.508 2924.4 930.157 2924.4 923.806 2924.4 918.657 2919.25 918.657 2912.9 918.657 2906.55 923.806 2901.4 930.157 2901.4 936.508 2901.4 941.657 2906.55 941.657 2912.9Z" stroke="#C00000" stroke-width="16.0417" stroke-linejoin="round" stroke-miterlimit="10" fill="#C00000"/><path d="M942.657 2855.9C942.657 2862.25 937.508 2867.4 931.157 2867.4 924.806 2867.4 919.657 2862.25 919.657 2855.9 919.657 2849.55 924.806 2844.4 931.157 2844.4 937.508 2844.4 942.657 2849.55 942.657 2855.9Z" stroke="#C00000" stroke-width="16.0417" stroke-linejoin="round" stroke-miterlimit="10" fill="#C00000"/><path d="M942.657 2798.9C942.657 2805.25 937.508 2810.4 931.157 2810.4 924.806 2810.4 919.657 2805.25 919.657 2798.9 919.657 2792.55 924.806 2787.4 931.157 2787.4 937.508 2787.4 942.657 2792.55 942.657 2798.9Z" stroke="#C00000" stroke-width="16.0417" stroke-linejoin="round" stroke-miterlimit="10" fill="#C00000"/><path d="M943.657 2741.9C943.657 2748.25 938.508 2753.4 932.157 2753.4 925.806 2753.4 920.657 2748.25 920.657 2741.9 920.657 2735.55 925.806 2730.4 932.157 2730.4 938.508 2730.4 943.657 2735.55 943.657 2741.9Z" stroke="#C00000" stroke-width="16.0417" stroke-linejoin="round" stroke-miterlimit="10" fill="#C00000"/><path d="M946.657 2684.9C946.657 2691.25 941.508 2696.4 935.157 2696.4 928.806 2696.4 923.657 2691.25 923.657 2684.9 923.657 2678.55 928.806 2673.4 935.157 2673.4 941.508 2673.4 946.657 2678.55 946.657 2684.9Z" stroke="#C00000" stroke-width="16.0417" stroke-linejoin="round" stroke-miterlimit="10" fill="#C00000"/><path d="M947.656 2627.9C947.656 2634.25 942.508 2639.4 936.157 2639.4 929.805 2639.4 924.657 2634.25 924.657 2627.9 924.657 2621.55 929.805 2616.4 936.157 2616.4 942.508 2616.4 947.656 2621.55 947.656 2627.9Z" stroke="#C00000" stroke-width="16.0417" stroke-linejoin="round" stroke-miterlimit="10" fill="#C00000"/><path d="M950.657 2570.9C950.657 2577.25 945.508 2582.4 939.157 2582.4 932.806 2582.4 927.657 2577.25 927.657 2570.9 927.657 2564.55 932.806 2559.4 939.157 2559.4 945.508 2559.4 950.657 2564.55 950.657 2570.9Z" stroke="#C00000" stroke-width="16.0417" stroke-linejoin="round" stroke-miterlimit="10" fill="#C00000"/><path d="M952.657 2513.9C952.657 2520.25 947.508 2525.4 941.157 2525.4 934.806 2525.4 929.657 2520.25 929.657 2513.9 929.657 2507.55 934.806 2502.4 941.157 2502.4 947.508 2502.4 952.657 2507.55 952.657 2513.9Z" stroke="#C00000" stroke-width="16.0417" stroke-linejoin="round" stroke-miterlimit="10" fill="#C00000"/><path d="M957.657 2456.9C957.657 2463.25 952.508 2468.4 946.157 2468.4 939.806 2468.4 934.657 2463.25 934.657 2456.9 934.657 2450.55 939.806 2445.4 946.157 2445.4 952.508 2445.4 957.657 2450.55 957.657 2456.9Z" stroke="#C00000" stroke-width="16.0417" stroke-linejoin="round" stroke-miterlimit="10" fill="#C00000"/><path d="M966.657 2399.9C966.657 2406.25 961.508 2411.4 955.157 2411.4 948.806 2411.4 943.657 2406.25 943.657 2399.9 943.657 2393.55 948.806 2388.4 955.157 2388.4 961.508 2388.4 966.657 2393.55 966.657 2399.9Z" stroke="#C00000" stroke-width="16.0417" stroke-linejoin="round" stroke-miterlimit="10" fill="#C00000"/><path d="M969.656 2342.9C969.656 2349.25 964.508 2354.4 958.157 2354.4 951.805 2354.4 946.657 2349.25 946.657 2342.9 946.657 2336.55 951.805 2331.4 958.157 2331.4 964.508 2331.4 969.656 2336.55 969.656 2342.9Z" stroke="#C00000" stroke-width="16.0417" stroke-linejoin="round" stroke-miterlimit="10" fill="#C00000"/><path d="M969.656 2285.9C969.656 2292.25 964.508 2297.4 958.157 2297.4 951.805 2297.4 946.657 2292.25 946.657 2285.9 946.657 2279.55 951.805 2274.4 958.157 2274.4 964.508 2274.4 969.656 2279.55 969.656 2285.9Z" stroke="#C00000" stroke-width="16.0417" stroke-linejoin="round" stroke-miterlimit="10" fill="#C00000"/><path d="M976.657 2228.9C976.657 2235.25 971.508 2240.4 965.157 2240.4 958.806 2240.4 953.657 2235.25 953.657 2228.9 953.657 2222.55 958.806 2217.4 965.157 2217.4 971.508 2217.4 976.657 2222.55 976.657 2228.9Z" stroke="#C00000" stroke-width="16.0417" stroke-linejoin="round" stroke-miterlimit="10" fill="#C00000"/><path d="M978.657 2171.9C978.657 2178.25 973.508 2183.4 967.157 2183.4 960.806 2183.4 955.657 2178.25 955.657 2171.9 955.657 2165.55 960.806 2160.4 967.157 2160.4 973.508 2160.4 978.657 2165.55 978.657 2171.9Z" stroke="#C00000" stroke-width="16.0417" stroke-linejoin="round" stroke-miterlimit="10" fill="#C00000"/><path d="M994.657 2114.9C994.657 2121.25 989.508 2126.4 983.157 2126.4 976.806 2126.4 971.657 2121.25 971.657 2114.9 971.657 2108.55 976.806 2103.4 983.157 2103.4 989.508 2103.4 994.657 2108.55 994.657 2114.9Z" stroke="#C00000" stroke-width="16.0417" stroke-linejoin="round" stroke-miterlimit="10" fill="#C00000"/><path d="M996.657 2057.9C996.657 2064.25 991.508 2069.4 985.157 2069.4 978.806 2069.4 973.657 2064.25 973.657 2057.9 973.657 2051.55 978.806 2046.4 985.157 2046.4 991.508 2046.4 996.657 2051.55 996.657 2057.9Z" stroke="#C00000" stroke-width="16.0417" stroke-linejoin="round" stroke-miterlimit="10" fill="#C00000"/><path d="M1011.66 2000.9C1011.66 2007.25 1006.51 2012.4 1000.16 2012.4 993.806 2012.4 988.657 2007.25 988.657 2000.9 988.657 1994.55 993.806 1989.4 1000.16 1989.4 1006.51 1989.4 1011.66 1994.55 1011.66 2000.9Z" stroke="#C00000" stroke-width="16.0417" stroke-linejoin="round" stroke-miterlimit="10" fill="#C00000"/><path d="M1016.66 1943.9C1016.66 1950.25 1011.51 1955.4 1005.16 1955.4 998.806 1955.4 993.657 1950.25 993.657 1943.9 993.657 1937.55 998.806 1932.4 1005.16 1932.4 1011.51 1932.4 1016.66 1937.55 1016.66 1943.9Z" stroke="#C00000" stroke-width="16.0417" stroke-linejoin="round" stroke-miterlimit="10" fill="#C00000"/><path d="M1025.66 1886.9C1025.66 1893.25 1020.51 1898.4 1014.16 1898.4 1007.81 1898.4 1002.66 1893.25 1002.66 1886.9 1002.66 1880.55 1007.81 1875.4 1014.16 1875.4 1020.51 1875.4 1025.66 1880.55 1025.66 1886.9Z" stroke="#C00000" stroke-width="16.0417" stroke-linejoin="round" stroke-miterlimit="10" fill="#C00000"/><path d="M1029.66 1829.9C1029.66 1836.25 1024.51 1841.4 1018.16 1841.4 1011.81 1841.4 1006.66 1836.25 1006.66 1829.9 1006.66 1823.55 1011.81 1818.4 1018.16 1818.4 1024.51 1818.4 1029.66 1823.55 1029.66 1829.9Z" stroke="#C00000" stroke-width="16.0417" stroke-linejoin="round" stroke-miterlimit="10" fill="#C00000"/><path d="M1032.66 1772.9C1032.66 1779.25 1027.51 1784.4 1021.16 1784.4 1014.81 1784.4 1009.66 1779.25 1009.66 1772.9 1009.66 1766.55 1014.81 1761.4 1021.16 1761.4 1027.51 1761.4 1032.66 1766.55 1032.66 1772.9Z" stroke="#C00000" stroke-width="16.0417" stroke-linejoin="round" stroke-miterlimit="10" fill="#C00000"/><path d="M1072.66 1715.9C1072.66 1722.25 1067.51 1727.4 1061.16 1727.4 1054.81 1727.4 1049.66 1722.25 1049.66 1715.9 1049.66 1709.55 1054.81 1704.4 1061.16 1704.4 1067.51 1704.4 1072.66 1709.55 1072.66 1715.9Z" stroke="#C00000" stroke-width="16.0417" stroke-linejoin="round" stroke-miterlimit="10" fill="#C00000"/><path d="M1081.66 1658.9C1081.66 1665.25 1076.51 1670.4 1070.16 1670.4 1063.81 1670.4 1058.66 1665.25 1058.66 1658.9 1058.66 1652.55 1063.81 1647.4 1070.16 1647.4 1076.51 1647.4 1081.66 1652.55 1081.66 1658.9Z" stroke="#C00000" stroke-width="16.0417" stroke-linejoin="round" stroke-miterlimit="10" fill="#C00000"/><path d="M1089.66 1601.9C1089.66 1608.25 1084.51 1613.4 1078.16 1613.4 1071.81 1613.4 1066.66 1608.25 1066.66 1601.9 1066.66 1595.55 1071.81 1590.4 1078.16 1590.4 1084.51 1590.4 1089.66 1595.55 1089.66 1601.9Z" stroke="#C00000" stroke-width="16.0417" stroke-linejoin="round" stroke-miterlimit="10" fill="#C00000"/><path d="M1094.66 1544.9C1094.66 1551.25 1089.51 1556.4 1083.16 1556.4 1076.81 1556.4 1071.66 1551.25 1071.66 1544.9 1071.66 1538.55 1076.81 1533.4 1083.16 1533.4 1089.51 1533.4 1094.66 1538.55 1094.66 1544.9Z" stroke="#C00000" stroke-width="16.0417" stroke-linejoin="round" stroke-miterlimit="10" fill="#C00000"/><path d="M1117.66 1487.9C1117.66 1494.25 1112.51 1499.4 1106.16 1499.4 1099.81 1499.4 1094.66 1494.25 1094.66 1487.9 1094.66 1481.55 1099.81 1476.4 1106.16 1476.4 1112.51 1476.4 1117.66 1481.55 1117.66 1487.9Z" stroke="#C00000" stroke-width="16.0417" stroke-linejoin="round" stroke-miterlimit="10" fill="#C00000"/><path d="M1125.66 1430.9C1125.66 1437.25 1120.51 1442.4 1114.16 1442.4 1107.81 1442.4 1102.66 1437.25 1102.66 1430.9 1102.66 1424.55 1107.81 1419.4 1114.16 1419.4 1120.51 1419.4 1125.66 1424.55 1125.66 1430.9Z" stroke="#C00000" stroke-width="16.0417" stroke-linejoin="round" stroke-miterlimit="10" fill="#C00000"/><path d="M1193.66 1373.9C1193.66 1380.25 1188.51 1385.4 1182.16 1385.4 1175.81 1385.4 1170.66 1380.25 1170.66 1373.9 1170.66 1367.55 1175.81 1362.4 1182.16 1362.4 1188.51 1362.4 1193.66 1367.55 1193.66 1373.9Z" stroke="#C00000" stroke-width="16.0417" stroke-linejoin="round" stroke-miterlimit="10" fill="#C00000"/><path d="M1215.66 1316.9C1215.66 1323.25 1210.51 1328.4 1204.16 1328.4 1197.81 1328.4 1192.66 1323.25 1192.66 1316.9 1192.66 1310.55 1197.81 1305.4 1204.16 1305.4 1210.51 1305.4 1215.66 1310.55 1215.66 1316.9Z" stroke="#C00000" stroke-width="16.0417" stroke-linejoin="round" stroke-miterlimit="10" fill="#C00000"/><path d="M1241.66 1259.9C1241.66 1266.25 1236.51 1271.4 1230.16 1271.4 1223.81 1271.4 1218.66 1266.25 1218.66 1259.9 1218.66 1253.55 1223.81 1248.4 1230.16 1248.4 1236.51 1248.4 1241.66 1253.55 1241.66 1259.9Z" stroke="#C00000" stroke-width="16.0417" stroke-linejoin="round" stroke-miterlimit="10" fill="#C00000"/><path d="M1538.66 1202.9C1538.66 1209.25 1533.51 1214.4 1527.16 1214.4 1520.81 1214.4 1515.66 1209.25 1515.66 1202.9 1515.66 1196.55 1520.81 1191.4 1527.16 1191.4 1533.51 1191.4 1538.66 1196.55 1538.66 1202.9Z" stroke="#C00000" stroke-width="16.0417" stroke-linejoin="round" stroke-miterlimit="10" fill="#C00000"/><path d="M1573.66 1145.9C1573.66 1152.25 1568.51 1157.4 1562.16 1157.4 1555.81 1157.4 1550.66 1152.25 1550.66 1145.9 1550.66 1139.55 1555.81 1134.4 1562.16 1134.4 1568.51 1134.4 1573.66 1139.55 1573.66 1145.9Z" stroke="#C00000" stroke-width="16.0417" stroke-linejoin="round" stroke-miterlimit="10" fill="#C00000"/><path d="M1825.66 1088.9C1825.66 1095.25 1820.51 1100.4 1814.16 1100.4 1807.81 1100.4 1802.66 1095.25 1802.66 1088.9 1802.66 1082.55 1807.81 1077.4 1814.16 1077.4 1820.51 1077.4 1825.66 1082.55 1825.66 1088.9Z" stroke="#C00000" stroke-width="16.0417" stroke-linejoin="round" stroke-miterlimit="10" fill="#C00000"/></g><g><text font-family="Arial,Arial_MSFontService,sans-serif" font-weight="400" font-size="50" transform="matrix(1 0 0 1 941.496 3328)">1.4</text></g><g><text font-family="Arial,Arial_MSFontService,sans-serif" font-weight="400" font-size="50" transform="matrix(1 0 0 1 942.721 3271)">1.6</text></g><g><text font-family="Arial,Arial_MSFontService,sans-serif" font-weight="400" font-size="50" transform="matrix(1 0 0 1 944.437 3214)">1.9</text></g><g><text font-family="Arial,Arial_MSFontService,sans-serif" font-weight="400" font-size="50" transform="matrix(1 0 0 1 947.011 3157)">2.4</text></g><g><text font-family="Arial,Arial_MSFontService,sans-serif" font-weight="400" font-size="50" transform="matrix(1 0 0 1 947.011 3100)">2.4</text></g><g><text font-family="Arial,Arial_MSFontService,sans-serif" font-weight="400" font-size="50" transform="matrix(1 0 0 1 947.011 3043)">2.4</text></g><g><text font-family="Arial,Arial_MSFontService,sans-serif" font-weight="400" font-size="50" transform="matrix(1 0 0 1 950.568 2987)">3.0</text></g><g><text font-family="Arial,Arial_MSFontService,sans-serif" font-weight="400" font-size="50" transform="matrix(1 0 0 1 957.307 2930)">4.3</text></g><g><text font-family="Arial,Arial_MSFontService,sans-serif" font-weight="400" font-size="50" transform="matrix(1 0 0 1 958.655 2873)">4.5</text></g><g><text font-family="Arial,Arial_MSFontService,sans-serif" font-weight="400" font-size="50" transform="matrix(1 0 0 1 958.78 2816)">4.5</text></g><g><text font-family="Arial,Arial_MSFontService,sans-serif" font-weight="400" font-size="50" transform="matrix(1 0 0 1 959.881 2759)">4.7</text></g><g><text font-family="Arial,Arial_MSFontService,sans-serif" font-weight="400" font-size="50" transform="matrix(1 0 0 1 962.432 2702)">5.2</text></g><g><text font-family="Arial,Arial_MSFontService,sans-serif" font-weight="400" font-size="50" transform="matrix(1 0 0 1 963.726 2645)">5.4</text></g><g><text font-family="Arial,Arial_MSFontService,sans-serif" font-weight="400" font-size="50" transform="matrix(1 0 0 1 966.993 2588)">6.0</text></g><g><text font-family="Arial,Arial_MSFontService,sans-serif" font-weight="400" font-size="50" transform="matrix(1 0 0 1 968.461 2531)">6.3</text></g><g><text font-family="Arial,Arial_MSFontService,sans-serif" font-weight="400" font-size="50" transform="matrix(1 0 0 1 973.96 2474)">7.3</text></g><g><text font-family="Arial,Arial_MSFontService,sans-serif" font-weight="400" font-size="50" transform="matrix(1 0 0 1 982.927 2417)">9.0</text></g><g><text font-family="Arial,Arial_MSFontService,sans-serif" font-weight="400" font-size="50" transform="matrix(1 0 0 1 985.62 2360)">9.5</text></g><g><text font-family="Arial,Arial_MSFontService,sans-serif" font-weight="400" font-size="50" transform="matrix(1 0 0 1 985.62 2303)">9.5</text></g><g><text font-family="Arial,Arial_MSFontService,sans-serif" font-weight="400" font-size="50" transform="matrix(1 0 0 1 992.365 2246)">10.7</text></g><g><text font-family="Arial,Arial_MSFontService,sans-serif" font-weight="400" font-size="50" transform="matrix(1 0 0 1 994.69 2189)">11.1</text></g><g><text font-family="Arial,Arial_MSFontService,sans-serif" font-weight="400" font-size="50" transform="matrix(1 0 0 1 1010.93 2132)">14.1</text></g><g><text font-family="Arial,Arial_MSFontService,sans-serif" font-weight="400" font-size="50" transform="matrix(1 0 0 1 1012.68 2075)">14.4</text></g><g><text font-family="Arial,Arial_MSFontService,sans-serif" font-weight="400" font-size="50" transform="matrix(1 0 0 1 1027.42 2018)">17.1</text></g><g><text font-family="Arial,Arial_MSFontService,sans-serif" font-weight="400" font-size="50" transform="matrix(1 0 0 1 1032.69 1961)">18.1</text></g><g><text font-family="Arial,Arial_MSFontService,sans-serif" font-weight="400" font-size="50" transform="matrix(1 0 0 1 1041.88 1904)">19.8</text></g><g><text font-family="Arial,Arial_MSFontService,sans-serif" font-weight="400" font-size="50" transform="matrix(1 0 0 1 1045.04 1847)">20.4</text></g><g><text font-family="Arial,Arial_MSFontService,sans-serif" font-weight="400" font-size="50" transform="matrix(1 0 0 1 1048.6 1790)">21.0</text></g><g><text font-family="Arial,Arial_MSFontService,sans-serif" font-weight="400" font-size="50" transform="matrix(1 0 0 1 1088.24 1733)">28.3</text></g><g><text font-family="Arial,Arial_MSFontService,sans-serif" font-weight="400" font-size="50" transform="matrix(1 0 0 1 1097.04 1676)">29.9</text></g><g><text font-family="Arial,Arial_MSFontService,sans-serif" font-weight="400" font-size="50" transform="matrix(1 0 0 1 1105.9 1619)">31.5</text></g><g><text font-family="Arial,Arial_MSFontService,sans-serif" font-weight="400" font-size="50" transform="matrix(1 0 0 1 1110.35 1562)">32.4</text></g><g><text font-family="Arial,Arial_MSFontService,sans-serif" font-weight="400" font-size="50" transform="matrix(1 0 0 1 1133.72 1505)">36.6</text></g><g><text font-family="Arial,Arial_MSFontService,sans-serif" font-weight="400" font-size="50" transform="matrix(1 0 0 1 1141.23 1448)">38.0</text></g><g><text font-family="Arial,Arial_MSFontService,sans-serif" font-weight="400" font-size="50" transform="matrix(1 0 0 1 1209.77 1391)">50.6</text></g><g><text font-family="Arial,Arial_MSFontService,sans-serif" font-weight="400" font-size="50" transform="matrix(1 0 0 1 1231.47 1334)">54.6</text></g><g><text font-family="Arial,Arial_MSFontService,sans-serif" font-weight="400" font-size="50" transform="matrix(1 0 0 1 1257.2 1277)">59.3</text></g><g><text font-family="Arial,Arial_MSFontService,sans-serif" font-weight="400" font-size="50" transform="matrix(1 0 0 1 1554.17 1220)">113.9</text></g><g><text font-family="Arial,Arial_MSFontService,sans-serif" font-weight="400" font-size="50" transform="matrix(1 0 0 1 1589.91 1163)">120.4</text></g><g><text font-family="Arial,Arial_MSFontService,sans-serif" font-weight="400" font-size="50" transform="matrix(1 0 0 1 1841.69 1106)">166.6</text></g><g><text font-family="Arial,Arial_MSFontService,sans-serif" font-weight="400" font-size="50" transform="matrix(1 0 0 1 624.949 3327)">Ireland  40</text></g><g><text font-family="Arial,Arial_MSFontService,sans-serif" font-weight="400" font-size="50" transform="matrix(1 0 0 1 591.331 3270)">Ecuador  39</text></g><g><text font-family="Arial,Arial_MSFontService,sans-serif" font-weight="400" font-size="50" transform="matrix(1 0 0 1 588.558 3213)">Slovakia  38</text></g><g><text font-family="Arial,Arial_MSFontService,sans-serif" font-weight="400" font-size="50" transform="matrix(1 0 0 1 622.176 3156)">Algeria  35</text></g><g><text font-family="Arial,Arial_MSFontService,sans-serif" font-weight="400" font-size="50" transform="matrix(1 0 0 1 613.789 3099)">Greece  35</text></g><g><text font-family="Arial,Arial_MSFontService,sans-serif" font-weight="400" font-size="50" transform="matrix(1 0 0 1 619.38 3042)">Nigeria  35</text></g><g><text font-family="Arial,Arial_MSFontService,sans-serif" font-weight="400" font-size="50" transform="matrix(1 0 0 1 605.379 2985)">Ukraine  34</text></g><g><text font-family="Arial,Arial_MSFontService,sans-serif" font-weight="400" font-size="50" transform="matrix(1 0 0 1 664.229 2928)">Chile  33</text></g><g><text font-family="Arial,Arial_MSFontService,sans-serif" font-weight="400" font-size="50" transform="matrix(1 0 0 1 574.579 2871)">Denmark  32</text></g><g><text font-family="Arial,Arial_MSFontService,sans-serif" font-weight="400" font-size="50" transform="matrix(1 0 0 1 532.549 2814)">Costa Rica  31</text></g><g><text font-family="Arial,Arial_MSFontService,sans-serif" font-weight="400" font-size="50" transform="matrix(1 0 0 1 622.131 2757)">Poland  30</text></g><g><text font-family="Arial,Arial_MSFontService,sans-serif" font-weight="400" font-size="50" transform="matrix(1 0 0 1 627.746 2700)">Ghana  29</text></g><g><text font-family="Arial,Arial_MSFontService,sans-serif" font-weight="400" font-size="50" transform="matrix(1 0 0 1 625.041 2643)">Turkey  28</text></g><g><text font-family="Arial,Arial_MSFontService,sans-serif" font-weight="400" font-size="50" transform="matrix(1 0 0 1 625.018 2586)">Russia  27</text></g><g><text font-family="Arial,Arial_MSFontService,sans-serif" font-weight="400" font-size="50" transform="matrix(1 0 0 1 582.966 2529)">Australia  26</text></g><g><text font-family="Arial,Arial_MSFontService,sans-serif" font-weight="400" font-size="50" transform="matrix(1 0 0 1 594.081 2472)">Senegal  25</text></g><g><text font-family="Arial,Arial_MSFontService,sans-serif" font-weight="400" font-size="50" transform="matrix(1 0 0 1 596.922 2415)">Sweden  24</text></g><g><text font-family="Arial,Arial_MSFontService,sans-serif" font-weight="400" font-size="50" transform="matrix(1 0 0 1 602.491 2358)">Canada  22</text></g><g><text font-family="Arial,Arial_MSFontService,sans-serif" font-weight="400" font-size="50" transform="matrix(1 0 0 1 650.227 2301)">Egypt  22</text></g><g><text font-family="Arial,Arial_MSFontService,sans-serif" font-weight="400" font-size="50" transform="matrix(1 0 0 1 498.816 2244)">South Korea  21</text></g><g><text font-family="Arial,Arial_MSFontService,sans-serif" font-weight="400" font-size="50" transform="matrix(1 0 0 1 641.748 2187)">Japan  20</text></g><g><text font-family="Arial,Arial_MSFontService,sans-serif" font-weight="400" font-size="50" transform="matrix(1 0 0 1 588.535 2130)">Uruguay  19</text></g><g><text font-family="Arial,Arial_MSFontService,sans-serif" font-weight="400" font-size="50" transform="matrix(1 0 0 1 563.281 2073)">Paraguay  18</text></g><g><text font-family="Arial,Arial_MSFontService,sans-serif" font-weight="400" font-size="50" transform="matrix(1 0 0 1 566.122 2016)">Colombia  17</text></g><g><text font-family="Arial,Arial_MSFontService,sans-serif" font-weight="400" font-size="50" transform="matrix(1 0 0 1 608.22 1959)">Norway  16</text></g><g><text font-family="Arial,Arial_MSFontService,sans-serif" font-weight="400" font-size="50" transform="matrix(1 0 0 1 619.427 1902)">Mexico  15</text></g><g><text font-family="Arial,Arial_MSFontService,sans-serif" font-weight="400" font-size="50" transform="matrix(1 0 0 1 686.687 1845)">Italy  14</text></g><g><text font-family="Arial,Arial_MSFontService,sans-serif" font-weight="400" font-size="50" transform="matrix(1 0 0 1 476.449 1788)">United States  13</text></g><g><text font-family="Arial,Arial_MSFontService,sans-serif" font-weight="400" font-size="50" transform="matrix(1 0 0 1 591.33 1731)">Portugal  12</text></g><g><text font-family="Arial,Arial_MSFontService,sans-serif" font-weight="400" font-size="50" transform="matrix(1 0 0 1 518.501 1674)">Switzerland  11</text></g><g><text font-family="Arial,Arial_MSFontService,sans-serif" font-weight="400" font-size="50" transform="matrix(1 0 0 1 507.226 1618)">Netherlands  10</text></g><g><text font-family="Arial,Arial_MSFontService,sans-serif" font-weight="400" font-size="50" transform="matrix(1 0 0 1 613.835 1561)">Morocco  9</text></g><g><text font-family="Arial,Arial_MSFontService,sans-serif" font-weight="400" font-size="50" transform="matrix(1 0 0 1 625.018 1504)">Belgium  8</text></g><g><text font-family="Arial,Arial_MSFontService,sans-serif" font-weight="400" font-size="50" transform="matrix(1 0 0 1 644.635 1447)">Croatia  7</text></g><g><text font-family="Arial,Arial_MSFontService,sans-serif" font-weight="400" font-size="50" transform="matrix(1 0 0 1 599.833 1390)">Germany  6</text></g><g><text font-family="Arial,Arial_MSFontService,sans-serif" font-weight="400" font-size="50" transform="matrix(1 0 0 1 681.118 1333)">Brazil  5</text></g><g><text font-family="Arial,Arial_MSFontService,sans-serif" font-weight="400" font-size="50" transform="matrix(1 0 0 1 622.131 1276)">England  4</text></g><g><text font-family="Arial,Arial_MSFontService,sans-serif" font-weight="400" font-size="50" transform="matrix(1 0 0 1 650.25 1219)">France  3</text></g><g><text font-family="Arial,Arial_MSFontService,sans-serif" font-weight="400" font-size="50" transform="matrix(1 0 0 1 678.231 1162)">Spain  2</text></g><g><text font-family="Arial,Arial_MSFontService,sans-serif" font-weight="400" font-size="50" transform="matrix(1 0 0 1 591.33 1105)">Argentina  1</text></g><text font-family="Arial,Arial_MSFontService,sans-serif" font-style="italic" font-weight="700" font-size="50" transform="matrix(1 0 0 1 1466.44 2505)">Zipf Weights</text><text font-family="Arial,Arial_MSFontService,sans-serif" font-style="italic" font-weight="400" font-size="50" transform="matrix(1 0 0 1 1295.43 2566)">Zipf gives weight 1 to gold, </text><text font-family="Arial,Arial_MSFontService,sans-serif" font-style="italic" font-weight="400" font-size="50" transform="matrix(1 0 0 1 1295.43 2626)">½ to silver, ⅓ to bronze, and </text><text font-family="Arial,Arial_MSFontService,sans-serif" font-style="italic" font-weight="400" font-size="50" transform="matrix(1 0 0 1 1295.43 2687)">so on</text><text font-family="Arial,Arial_MSFontService,sans-serif" font-style="italic" font-weight="400" font-size="50" transform="matrix(1 0 0 1 1295.43 2808)">Zipf gives weight 1 to 2026, </text><text font-family="Arial,Arial_MSFontService,sans-serif" font-style="italic" font-weight="400" font-size="50" transform="matrix(1 0 0 1 1295.43 2868)">½ to 2022, ⅓ to 2018, and </text><text font-family="Arial,Arial_MSFontService,sans-serif" font-style="italic" font-weight="400" font-size="50" transform="matrix(1 0 0 1 1295.43 2927)">so on</text></g></svg>