<svg width="1700" height="1089" xmlns="http://www.w3.org/2000/svg" xmlns:xlink="http://www.w3.org/1999/xlink" xml:space="preserve" overflow="hidden"><defs><clipPath id="clip0"><rect x="413" y="1705" width="1700" height="1089"/></clipPath><clipPath id="clip1"><rect x="634" y="1874" width="1381" height="774"/></clipPath><clipPath id="clip2"><rect x="634" y="1874" width="1381" height="774"/></clipPath></defs><g clip-path="url(#clip0)" transform="translate(-413 -1705)"><g clip-path="url(#clip1)"><rect x="634" y="2540" width="758" height="55" fill="#A6A6A6"/></g><g clip-path="url(#clip2)"><path d="M1185.04 2441.08 634 2441.08 634 2386.08 1185.04 2386.08ZM1185.04 2287.07 634 2287.07 634 2232.07 1185.04 2232.07ZM1599.05 2133.07 634 2133.07 634 2079.07 1599.05 2079.07ZM1874.06 1979.06 634 1979.06 634 1925.06 1874.06 1925.06Z"/></g><g><path d="M0 0 0.000360892 770" stroke="#D9D9D9" stroke-width="3.4375" stroke-linejoin="round" stroke-miterlimit="10" fill="none" fill-rule="evenodd" transform="matrix(1 0 0 -1 634.5 2644.5)"/></g><g><text font-family="Arial,Arial_MSFontService,sans-serif" font-weight="400" font-size="50" transform="matrix(1 0 0 1 1419.55 2586)">0.22%</text></g><g><text font-family="Arial,Arial_MSFontService,sans-serif" font-weight="400" font-size="50" transform="matrix(1 0 0 1 1212.88 2432)">0.16%</text></g><g><text font-family="Arial,Arial_MSFontService,sans-serif" font-weight="400" font-size="50" transform="matrix(1 0 0 1 1212.88 2278)">0.16%</text></g><g><text font-family="Arial,Arial_MSFontService,sans-serif" font-weight="400" font-size="50" transform="matrix(1 0 0 1 1626.23 2124)">0.28%</text></g><g><text font-family="Arial,Arial_MSFontService,sans-serif" font-weight="400" font-size="50" transform="matrix(1 0 0 1 1901.8 1970)">0.36%</text></g><g><text font-family="Arial,Arial_MSFontService,sans-serif" font-weight="400" font-size="50" transform="matrix(1 0 0 1 478.752 2584)">Total</text></g><g><text font-family="Arial,Arial_MSFontService,sans-serif" font-weight="400" font-size="50" transform="matrix(1 0 0 1 459.09 2430)">South</text></g><g><text font-family="Arial,Arial_MSFontService,sans-serif" font-weight="400" font-size="50" transform="matrix(1 0 0 1 450.771 2276)">Wales</text></g><g><text font-family="Arial,Arial_MSFontService,sans-serif" font-weight="400" font-size="50" transform="matrix(1 0 0 1 442.292 2122)">Middle</text></g><g><text font-family="Arial,Arial_MSFontService,sans-serif" font-weight="400" font-size="50" transform="matrix(1 0 0 1 467.546 1968)">North</text></g><g><text font-family="Aptos,Aptos_MSFontService,sans-serif" font-weight="700" font-size="64" transform="matrix(1 0 0 1 635.811 1776)">RELATIVE FOOTBALL PAYROLL BY REGION</text></g><path d="M0-3.4375 552.219-3.4375 552.116 389.59 545.241 389.588 545.343-0.000902749 548.781 3.4375 0 3.4375ZM562.527 385.314 548.167 412.5 535.034 384.7Z" fill="#156082" transform="matrix(1 0 0 -1 1413.5 2415)"/><path d="M0-3.4375 294.02-3.4375 294.175 237.427 287.3 237.432 287.147 0.00220854 290.585 3.4375 0 3.4375ZM304.327 232.391 291.5 260.333 276.842 233.306Z" fill="#156082" transform="matrix(1 0 0 -1 1395.5 2414.83)"/><text font-family="Arial,Arial_MSFontService,sans-serif" font-weight="400" font-size="50" transform="matrix(1 0 0 1 1703.62 2310)">1.8x</text><text font-family="Arial,Arial_MSFontService,sans-serif" font-weight="400" font-size="50" transform="matrix(1 0 0 1 1983.7 2227)">2.3x</text><text font-family="Arial,Arial_MSFontService,sans-serif" font-weight="400" font-size="46" transform="matrix(1 0 0 1 482.166 2756)">Source: Staffan Canback (Tellusant) analysis; TelluBase; </text><text font-family="Arial,Arial_MSFontService,sans-serif" font-weight="400" font-size="46" transform="matrix(1 0 0 1 1647.48 2756)">Capology</text><text font-family="Arial,Arial_MSFontService,sans-serif" font-weight="400" font-size="60" transform="matrix(1 0 0 1 450.235 1847)">Premier and Championship Leagues (1</text><text font-family="Arial,Arial_MSFontService,sans-serif" font-weight="400" font-size="40" transform="matrix(1 0 0 1 1489.51 1829)">st</text><text font-family="Arial,Arial_MSFontService,sans-serif" font-weight="400" font-size="60" transform="matrix(1 0 0 1 1537.06 1847)">&amp; 2</text><text font-family="Arial,Arial_MSFontService,sans-serif" font-weight="400" font-size="40" transform="matrix(1 0 0 1 1626.43 1829)">nd</text><text font-family="Arial,Arial_MSFontService,sans-serif" font-weight="400" font-size="60" transform="matrix(1 0 0 1 1687.74 1847)">div.) , 2025</text><text font-family="Arial,Arial_MSFontService,sans-serif" font-weight="400" font-size="60" transform="matrix(1 0 0 1 1978.94 1847)">-</text><text font-family="Arial,Arial_MSFontService,sans-serif" font-weight="400" font-size="60" transform="matrix(1 0 0 1 1998.99 1847)">26</text></g></svg>