<svg width="1649" height="2660" xmlns="http://www.w3.org/2000/svg" xmlns:xlink="http://www.w3.org/1999/xlink" xml:space="preserve" overflow="hidden"><defs><clipPath id="clip0"><rect x="413" y="1034" width="1649" height="2660"/></clipPath></defs><g clip-path="url(#clip0)" transform="translate(-413 -1034)"><rect x="413" y="1221" width="1649" height="2396" fill="#FFFFFF"/><g><path d="M0 0 0.000360892 2279" stroke="#D9D9D9" stroke-width="3.4375" stroke-linejoin="round" stroke-miterlimit="10" fill="none" fill-rule="evenodd" transform="matrix(1 0 0 -1 872.5 3558.5)"/></g><g><path d="M879.5 3529.62 872.5 3529.62M872.5 3519.5 872.5 3540.5" stroke="#BFBFBF" stroke-width="3.4375" stroke-linejoin="round" stroke-miterlimit="10" fill="none"/></g><g><path d="M881.5 3472.61 872.5 3472.61M872.5 3462.5 872.5 3483.5" stroke="#BFBFBF" stroke-width="3.4375" stroke-linejoin="round" stroke-miterlimit="10" fill="none"/></g><g><path d="M882.5 3415.61 872.5 3415.61M872.5 3405.5 872.5 3426.5" stroke="#BFBFBF" stroke-width="3.4375" stroke-linejoin="round" stroke-miterlimit="10" fill="none"/></g><g><path d="M885.5 3358.61 872.5 3358.61M872.5 3348.5 872.5 3369.5" stroke="#BFBFBF" stroke-width="3.4375" stroke-linejoin="round" stroke-miterlimit="10" fill="none"/></g><g><path d="M885.5 3301.61 872.5 3301.61M872.5 3291.5 872.5 3312.5" stroke="#BFBFBF" stroke-width="3.4375" stroke-linejoin="round" stroke-miterlimit="10" fill="none"/></g><g><path d="M885.5 3244.61 872.5 3244.61M872.5 3234.5 872.5 3255.5" stroke="#BFBFBF" stroke-width="3.4375" stroke-linejoin="round" stroke-miterlimit="10" fill="none"/></g><g><path d="M888.5 3187.6 872.5 3187.6M872.5 3177.5 872.5 3198.5" stroke="#BFBFBF" stroke-width="3.4375" stroke-linejoin="round" stroke-miterlimit="10" fill="none"/></g><g><path d="M895.5 3130.6 872.5 3130.6M872.5 3120.5 872.5 3141.5" stroke="#BFBFBF" stroke-width="3.4375" stroke-linejoin="round" stroke-miterlimit="10" fill="none"/></g><g><path d="M896.5 3073.6 872.5 3073.6M872.5 3063.5 872.5 3084.5" stroke="#BFBFBF" stroke-width="3.4375" stroke-linejoin="round" stroke-miterlimit="10" fill="none"/></g><g><path d="M897.5 3016.6 872.5 3016.6M872.5 3006.5 872.5 3027.5" stroke="#BFBFBF" stroke-width="3.4375" stroke-linejoin="round" stroke-miterlimit="10" fill="none"/></g><g><path d="M898.5 2959.6 872.5 2959.6M872.5 2949.5 872.5 2970.5" stroke="#BFBFBF" stroke-width="3.4375" stroke-linejoin="round" stroke-miterlimit="10" fill="none"/></g><g><path d="M900.5 2903.6 872.5 2903.6M872.5 2892.5 872.5 2913.5" stroke="#BFBFBF" stroke-width="3.4375" stroke-linejoin="round" stroke-miterlimit="10" fill="none"/></g><g><path d="M902.5 2846.59 872.5 2846.59M872.5 2835.5 872.5 2856.5" stroke="#BFBFBF" stroke-width="3.4375" stroke-linejoin="round" stroke-miterlimit="10" fill="none"/></g><g><path d="M905.5 2789.59 872.5 2789.59M872.5 2778.5 872.5 2799.5" stroke="#BFBFBF" stroke-width="3.4375" stroke-linejoin="round" stroke-miterlimit="10" fill="none"/></g><g><path d="M906.5 2732.59 872.5 2732.59M872.5 2721.5 872.5 2742.5" stroke="#BFBFBF" stroke-width="3.4375" stroke-linejoin="round" stroke-miterlimit="10" fill="none"/></g><g><path d="M912.5 2675.59 872.5 2675.59M872.5 2664.5 872.5 2685.5" stroke="#BFBFBF" stroke-width="3.4375" stroke-linejoin="round" stroke-miterlimit="10" fill="none"/></g><g><path d="M921.5 2618.59 872.5 2618.59M872.5 2607.5 872.5 2628.5" stroke="#BFBFBF" stroke-width="3.4375" stroke-linejoin="round" stroke-miterlimit="10" fill="none"/></g><g><path d="M923.5 2561.58 872.5 2561.58M872.5 2550.5 872.5 2571.5" stroke="#BFBFBF" stroke-width="3.4375" stroke-linejoin="round" stroke-miterlimit="10" fill="none"/></g><g><path d="M923.5 2504.58 872.5 2504.58M872.5 2493.5 872.5 2514.5" stroke="#BFBFBF" stroke-width="3.4375" stroke-linejoin="round" stroke-miterlimit="10" fill="none"/></g><g><path d="M930.5 2447.58 872.5 2447.58M872.5 2437.5 872.5 2457.5" stroke="#BFBFBF" stroke-width="3.4375" stroke-linejoin="round" stroke-miterlimit="10" fill="none"/></g><g><path d="M933.5 2390.58 872.5 2390.58M872.5 2380.5 872.5 2400.5" stroke="#BFBFBF" stroke-width="3.4375" stroke-linejoin="round" stroke-miterlimit="10" fill="none"/></g><g><path d="M949.5 2333.58 872.5 2333.58M872.5 2323.5 872.5 2343.5" stroke="#BFBFBF" stroke-width="3.4375" stroke-linejoin="round" stroke-miterlimit="10" fill="none"/></g><g><path d="M951.5 2276.57 872.5 2276.57M872.5 2266.5 872.5 2286.5" stroke="#BFBFBF" stroke-width="3.4375" stroke-linejoin="round" stroke-miterlimit="10" fill="none"/></g><g><path d="M965.5 2219.57 872.5 2219.57M872.5 2209.5 872.5 2229.5" stroke="#BFBFBF" stroke-width="3.4375" stroke-linejoin="round" stroke-miterlimit="10" fill="none"/></g><g><path d="M971.5 2162.57 872.5 2162.57M872.5 2152.5 872.5 2172.5" stroke="#BFBFBF" stroke-width="3.4375" stroke-linejoin="round" stroke-miterlimit="10" fill="none"/></g><g><path d="M980.5 2105.57 872.5 2105.57M872.5 2095.5 872.5 2115.5" stroke="#BFBFBF" stroke-width="3.4375" stroke-linejoin="round" stroke-miterlimit="10" fill="none"/></g><g><path d="M983.5 2048.57 872.5 2048.57M872.5 2038.5 872.5 2058.5" stroke="#BFBFBF" stroke-width="3.4375" stroke-linejoin="round" stroke-miterlimit="10" fill="none"/></g><g><path d="M986.5 1991.57 872.5 1991.57M872.5 1981.5 872.5 2001.5" stroke="#BFBFBF" stroke-width="3.4375" stroke-linejoin="round" stroke-miterlimit="10" fill="none"/></g><g><path d="M1026.5 1934.56 872.5 1934.56M872.5 1924.5 872.5 1944.5" stroke="#BFBFBF" stroke-width="3.4375" stroke-linejoin="round" stroke-miterlimit="10" fill="none"/></g><g><path d="M1035.5 1877.56 872.5 1877.56M872.5 1867.5 872.5 1887.5" stroke="#BFBFBF" stroke-width="3.4375" stroke-linejoin="round" stroke-miterlimit="10" fill="none"/></g><g><path d="M1044.5 1820.56 872.5 1820.56M872.5 1810.5 872.5 1830.5" stroke="#BFBFBF" stroke-width="3.4375" stroke-linejoin="round" stroke-miterlimit="10" fill="none"/></g><g><path d="M1048.5 1763.56 872.5 1763.56M872.5 1753.5 872.5 1773.5" stroke="#BFBFBF" stroke-width="3.4375" stroke-linejoin="round" stroke-miterlimit="10" fill="none"/></g><g><path d="M1072.5 1706.56 872.5 1706.56M872.5 1696.5 872.5 1717.5" stroke="#BFBFBF" stroke-width="3.4375" stroke-linejoin="round" stroke-miterlimit="10" fill="none"/></g><g><path d="M1079.5 1649.55 872.5 1649.55M872.5 1639.5 872.5 1660.5" stroke="#BFBFBF" stroke-width="3.4375" stroke-linejoin="round" stroke-miterlimit="10" fill="none"/></g><g><path d="M1148.5 1592.55 872.5 1592.55M872.5 1582.5 872.5 1603.5" stroke="#BFBFBF" stroke-width="3.4375" stroke-linejoin="round" stroke-miterlimit="10" fill="none"/></g><g><path d="M1169.5 1535.55 872.5 1535.55M872.5 1525.5 872.5 1546.5" stroke="#BFBFBF" stroke-width="3.4375" stroke-linejoin="round" stroke-miterlimit="10" fill="none"/></g><g><path d="M1221.5 1478.55 872.5 1478.55M872.5 1468.5 872.5 1489.5" stroke="#BFBFBF" stroke-width="3.4375" stroke-linejoin="round" stroke-miterlimit="10" fill="none"/></g><g><path d="M1466.5 1421.55 872.5 1421.55M872.5 1411.5 872.5 1432.5" stroke="#BFBFBF" stroke-width="3.4375" stroke-linejoin="round" stroke-miterlimit="10" fill="none"/></g><g><path d="M1624.5 1364.54 872.5 1364.54M872.5 1354.5 872.5 1375.5" stroke="#BFBFBF" stroke-width="3.4375" stroke-linejoin="round" stroke-miterlimit="10" fill="none"/></g><g><path d="M1683.5 1307.54 872.5 1307.54M872.5 1297.5 872.5 1318.5" stroke="#BFBFBF" stroke-width="3.4375" stroke-linejoin="round" stroke-miterlimit="10" fill="none"/></g><g><path d="M892.5 3530.37C892.5 3536.72 887.351 3541.87 881 3541.87 874.648 3541.87 869.5 3536.72 869.5 3530.37 869.5 3524.02 874.648 3518.87 881 3518.87 887.351 3518.87 892.5 3524.02 892.5 3530.37Z" stroke="#C00000" stroke-width="16.0417" stroke-linejoin="round" stroke-miterlimit="10" fill="#E97132"/><path d="M893.499 3473.37C893.499 3479.72 888.351 3484.87 881.999 3484.87 875.648 3484.87 870.5 3479.72 870.5 3473.37 870.5 3467.02 875.648 3461.87 881.999 3461.87 888.351 3461.87 893.499 3467.02 893.499 3473.37Z" stroke="#C00000" stroke-width="16.0417" stroke-linejoin="round" stroke-miterlimit="10" fill="#E97132"/><path d="M895.499 3416.37C895.499 3422.72 890.351 3427.87 883.999 3427.87 877.648 3427.87 872.5 3422.72 872.5 3416.37 872.5 3410.02 877.648 3404.87 883.999 3404.87 890.351 3404.87 895.499 3410.02 895.499 3416.37Z" stroke="#C00000" stroke-width="16.0417" stroke-linejoin="round" stroke-miterlimit="10" fill="#E97132"/><path d="M897.499 3359.37C897.499 3365.72 892.351 3370.87 885.999 3370.87 879.648 3370.87 874.5 3365.72 874.5 3359.37 874.5 3353.02 879.648 3347.87 885.999 3347.87 892.351 3347.87 897.499 3353.02 897.499 3359.37Z" stroke="#C00000" stroke-width="16.0417" stroke-linejoin="round" stroke-miterlimit="10" fill="#E97132"/><path d="M897.499 3302.37C897.499 3308.72 892.351 3313.87 885.999 3313.87 879.648 3313.87 874.5 3308.72 874.5 3302.37 874.5 3296.02 879.648 3290.87 885.999 3290.87 892.351 3290.87 897.499 3296.02 897.499 3302.37Z" stroke="#C00000" stroke-width="16.0417" stroke-linejoin="round" stroke-miterlimit="10" fill="#E97132"/><path d="M897.499 3245.37C897.499 3251.72 892.351 3256.87 885.999 3256.87 879.648 3256.87 874.5 3251.72 874.5 3245.37 874.5 3239.02 879.648 3233.87 885.999 3233.87 892.351 3233.87 897.499 3239.02 897.499 3245.37Z" stroke="#C00000" stroke-width="16.0417" stroke-linejoin="round" stroke-miterlimit="10" fill="#E97132"/><path d="M901.499 3188.37C901.499 3194.72 896.351 3199.87 890 3199.87 883.648 3199.87 878.5 3194.72 878.5 3188.37 878.5 3182.02 883.648 3176.87 890 3176.87 896.351 3176.87 901.499 3182.02 901.499 3188.37Z" stroke="#C00000" stroke-width="16.0417" stroke-linejoin="round" stroke-miterlimit="10" fill="#E97132"/><path d="M908.499 3131.37C908.499 3137.72 903.351 3142.87 896.999 3142.87 890.648 3142.87 885.5 3137.72 885.5 3131.37 885.5 3125.02 890.648 3119.87 896.999 3119.87 903.351 3119.87 908.499 3125.02 908.499 3131.37Z" stroke="#C00000" stroke-width="16.0417" stroke-linejoin="round" stroke-miterlimit="10" fill="#E97132"/><path d="M909.499 3074.37C909.499 3080.72 904.351 3085.87 898 3085.87 891.648 3085.87 886.5 3080.72 886.5 3074.37 886.5 3068.02 891.648 3062.87 898 3062.87 904.351 3062.87 909.499 3068.02 909.499 3074.37Z" stroke="#C00000" stroke-width="16.0417" stroke-linejoin="round" stroke-miterlimit="10" fill="#E97132"/><path d="M909.499 3017.37C909.499 3023.72 904.351 3028.87 898 3028.87 891.648 3028.87 886.5 3023.72 886.5 3017.37 886.5 3011.02 891.648 3005.87 898 3005.87 904.351 3005.87 909.499 3011.02 909.499 3017.37Z" stroke="#C00000" stroke-width="16.0417" stroke-linejoin="round" stroke-miterlimit="10" fill="#E97132"/><path d="M910.499 2960.37C910.499 2966.72 905.351 2971.87 899 2971.87 892.648 2971.87 887.5 2966.72 887.5 2960.37 887.5 2954.02 892.648 2948.87 899 2948.87 905.351 2948.87 910.499 2954.02 910.499 2960.37Z" stroke="#C00000" stroke-width="16.0417" stroke-linejoin="round" stroke-miterlimit="10" fill="#E97132"/><path d="M913.5 2903.37C913.5 2909.72 908.351 2914.87 902 2914.87 895.648 2914.87 890.5 2909.72 890.5 2903.37 890.5 2897.02 895.648 2891.87 902 2891.87 908.351 2891.87 913.5 2897.02 913.5 2903.37Z" stroke="#C00000" stroke-width="16.0417" stroke-linejoin="round" stroke-miterlimit="10" fill="#E97132"/><path d="M914.5 2846.37C914.5 2852.72 909.351 2857.87 903 2857.87 896.648 2857.87 891.5 2852.72 891.5 2846.37 891.5 2840.02 896.648 2834.87 903 2834.87 909.351 2834.87 914.5 2840.02 914.5 2846.37Z" stroke="#C00000" stroke-width="16.0417" stroke-linejoin="round" stroke-miterlimit="10" fill="#E97132"/><path d="M917.499 2789.37C917.499 2795.72 912.351 2800.87 905.999 2800.87 899.648 2800.87 894.5 2795.72 894.5 2789.37 894.5 2783.02 899.648 2777.87 905.999 2777.87 912.351 2777.87 917.499 2783.02 917.499 2789.37Z" stroke="#C00000" stroke-width="16.0417" stroke-linejoin="round" stroke-miterlimit="10" fill="#E97132"/><path d="M919.499 2732.37C919.499 2738.72 914.351 2743.87 907.999 2743.87 901.648 2743.87 896.5 2738.72 896.5 2732.37 896.5 2726.02 901.648 2720.87 907.999 2720.87 914.351 2720.87 919.499 2726.02 919.499 2732.37Z" stroke="#C00000" stroke-width="16.0417" stroke-linejoin="round" stroke-miterlimit="10" fill="#E97132"/><path d="M924.5 2675.37C924.5 2681.72 919.351 2686.87 913 2686.87 906.648 2686.87 901.5 2681.72 901.5 2675.37 901.5 2669.02 906.648 2663.87 913 2663.87 919.351 2663.87 924.5 2669.02 924.5 2675.37Z" stroke="#C00000" stroke-width="16.0417" stroke-linejoin="round" stroke-miterlimit="10" fill="#E97132"/><path d="M933.499 2618.37C933.499 2624.72 928.351 2629.87 922 2629.87 915.648 2629.87 910.5 2624.72 910.5 2618.37 910.5 2612.02 915.648 2606.87 922 2606.87 928.351 2606.87 933.499 2612.02 933.499 2618.37Z" stroke="#C00000" stroke-width="16.0417" stroke-linejoin="round" stroke-miterlimit="10" fill="#E97132"/><path d="M936.5 2561.37C936.5 2567.72 931.351 2572.87 925 2572.87 918.648 2572.87 913.5 2567.72 913.5 2561.37 913.5 2555.02 918.648 2549.87 925 2549.87 931.351 2549.87 936.5 2555.02 936.5 2561.37Z" stroke="#C00000" stroke-width="16.0417" stroke-linejoin="round" stroke-miterlimit="10" fill="#E97132"/><path d="M936.5 2504.37C936.5 2510.72 931.351 2515.87 925 2515.87 918.648 2515.87 913.5 2510.72 913.5 2504.37 913.5 2498.02 918.648 2492.87 925 2492.87 931.351 2492.87 936.5 2498.02 936.5 2504.37Z" stroke="#C00000" stroke-width="16.0417" stroke-linejoin="round" stroke-miterlimit="10" fill="#E97132"/><path d="M943.499 2447.37C943.499 2453.72 938.351 2458.87 932 2458.87 925.648 2458.87 920.5 2453.72 920.5 2447.37 920.5 2441.02 925.648 2435.87 932 2435.87 938.351 2435.87 943.499 2441.02 943.499 2447.37Z" stroke="#C00000" stroke-width="16.0417" stroke-linejoin="round" stroke-miterlimit="10" fill="#E97132"/><path d="M945.499 2390.37C945.499 2396.72 940.351 2401.87 934 2401.87 927.648 2401.87 922.5 2396.72 922.5 2390.37 922.5 2384.02 927.648 2378.87 934 2378.87 940.351 2378.87 945.499 2384.02 945.499 2390.37Z" stroke="#C00000" stroke-width="16.0417" stroke-linejoin="round" stroke-miterlimit="10" fill="#E97132"/><path d="M961.499 2333.37C961.499 2339.72 956.351 2344.87 949.999 2344.87 943.648 2344.87 938.5 2339.72 938.5 2333.37 938.5 2327.02 943.648 2321.87 949.999 2321.87 956.351 2321.87 961.499 2327.02 961.499 2333.37Z" stroke="#C00000" stroke-width="16.0417" stroke-linejoin="round" stroke-miterlimit="10" fill="#E97132"/><path d="M963.499 2276.37C963.499 2282.72 958.351 2287.87 951.999 2287.87 945.648 2287.87 940.5 2282.72 940.5 2276.37 940.5 2270.02 945.648 2264.87 951.999 2264.87 958.351 2264.87 963.499 2270.02 963.499 2276.37Z" stroke="#C00000" stroke-width="16.0417" stroke-linejoin="round" stroke-miterlimit="10" fill="#E97132"/><path d="M978.499 2219.37C978.499 2225.72 973.351 2230.87 967 2230.87 960.648 2230.87 955.5 2225.72 955.5 2219.37 955.5 2213.02 960.648 2207.87 967 2207.87 973.351 2207.87 978.499 2213.02 978.499 2219.37Z" stroke="#C00000" stroke-width="16.0417" stroke-linejoin="round" stroke-miterlimit="10" fill="#E97132"/><path d="M983.499 2162.37C983.499 2168.72 978.351 2173.87 971.999 2173.87 965.648 2173.87 960.5 2168.72 960.5 2162.37 960.5 2156.02 965.648 2150.87 971.999 2150.87 978.351 2150.87 983.499 2156.02 983.499 2162.37Z" stroke="#C00000" stroke-width="16.0417" stroke-linejoin="round" stroke-miterlimit="10" fill="#E97132"/><path d="M992.499 2105.37C992.499 2111.72 987.351 2116.87 980.999 2116.87 974.648 2116.87 969.5 2111.72 969.5 2105.37 969.5 2099.02 974.648 2093.87 980.999 2093.87 987.351 2093.87 992.499 2099.02 992.499 2105.37Z" stroke="#C00000" stroke-width="16.0417" stroke-linejoin="round" stroke-miterlimit="10" fill="#E97132"/><path d="M995.499 2049.37C995.499 2055.72 990.351 2060.87 983.999 2060.87 977.648 2060.87 972.5 2055.72 972.5 2049.37 972.5 2043.02 977.648 2037.87 983.999 2037.87 990.351 2037.87 995.499 2043.02 995.499 2049.37Z" stroke="#C00000" stroke-width="16.0417" stroke-linejoin="round" stroke-miterlimit="10" fill="#E97132"/><path d="M999.499 1992.37C999.499 1998.72 994.351 2003.87 988 2003.87 981.648 2003.87 976.5 1998.72 976.5 1992.37 976.5 1986.02 981.648 1980.87 988 1980.87 994.351 1980.87 999.499 1986.02 999.499 1992.37Z" stroke="#C00000" stroke-width="16.0417" stroke-linejoin="round" stroke-miterlimit="10" fill="#E97132"/><path d="M1039.5 1935.37C1039.5 1941.72 1034.35 1946.87 1028 1946.87 1021.65 1946.87 1016.5 1941.72 1016.5 1935.37 1016.5 1929.02 1021.65 1923.87 1028 1923.87 1034.35 1923.87 1039.5 1929.02 1039.5 1935.37Z" stroke="#C00000" stroke-width="16.0417" stroke-linejoin="round" stroke-miterlimit="10" fill="#E97132"/><path d="M1047.5 1878.37C1047.5 1884.72 1042.35 1889.87 1036 1889.87 1029.65 1889.87 1024.5 1884.72 1024.5 1878.37 1024.5 1872.02 1029.65 1866.87 1036 1866.87 1042.35 1866.87 1047.5 1872.02 1047.5 1878.37Z" stroke="#C00000" stroke-width="16.0417" stroke-linejoin="round" stroke-miterlimit="10" fill="#E97132"/><path d="M1056.5 1821.37C1056.5 1827.72 1051.35 1832.87 1045 1832.87 1038.65 1832.87 1033.5 1827.72 1033.5 1821.37 1033.5 1815.02 1038.65 1809.87 1045 1809.87 1051.35 1809.87 1056.5 1815.02 1056.5 1821.37Z" stroke="#C00000" stroke-width="16.0417" stroke-linejoin="round" stroke-miterlimit="10" fill="#E97132"/><path d="M1061.5 1764.37C1061.5 1770.72 1056.35 1775.87 1050 1775.87 1043.65 1775.87 1038.5 1770.72 1038.5 1764.37 1038.5 1758.02 1043.65 1752.87 1050 1752.87 1056.35 1752.87 1061.5 1758.02 1061.5 1764.37Z" stroke="#C00000" stroke-width="16.0417" stroke-linejoin="round" stroke-miterlimit="10" fill="#E97132"/><path d="M1084.5 1707.37C1084.5 1713.72 1079.35 1718.87 1073 1718.87 1066.65 1718.87 1061.5 1713.72 1061.5 1707.37 1061.5 1701.02 1066.65 1695.87 1073 1695.87 1079.35 1695.87 1084.5 1701.02 1084.5 1707.37Z" stroke="#C00000" stroke-width="16.0417" stroke-linejoin="round" stroke-miterlimit="10" fill="#E97132"/><path d="M1092.5 1650.37C1092.5 1656.72 1087.35 1661.87 1081 1661.87 1074.65 1661.87 1069.5 1656.72 1069.5 1650.37 1069.5 1644.02 1074.65 1638.87 1081 1638.87 1087.35 1638.87 1092.5 1644.02 1092.5 1650.37Z" stroke="#C00000" stroke-width="16.0417" stroke-linejoin="round" stroke-miterlimit="10" fill="#E97132"/><path d="M1160.5 1593.37C1160.5 1599.72 1155.35 1604.87 1149 1604.87 1142.65 1604.87 1137.5 1599.72 1137.5 1593.37 1137.5 1587.02 1142.65 1581.87 1149 1581.87 1155.35 1581.87 1160.5 1587.02 1160.5 1593.37Z" stroke="#C00000" stroke-width="16.0417" stroke-linejoin="round" stroke-miterlimit="10" fill="#E97132"/><path d="M1182.5 1536.37C1182.5 1542.72 1177.35 1547.87 1171 1547.87 1164.65 1547.87 1159.5 1542.72 1159.5 1536.37 1159.5 1530.02 1164.65 1524.87 1171 1524.87 1177.35 1524.87 1182.5 1530.02 1182.5 1536.37Z" stroke="#C00000" stroke-width="16.0417" stroke-linejoin="round" stroke-miterlimit="10" fill="#E97132"/><path d="M1233.5 1479.37C1233.5 1485.72 1228.35 1490.87 1222 1490.87 1215.65 1490.87 1210.5 1485.72 1210.5 1479.37 1210.5 1473.02 1215.65 1467.87 1222 1467.87 1228.35 1467.87 1233.5 1473.02 1233.5 1479.37Z" stroke="#C00000" stroke-width="16.0417" stroke-linejoin="round" stroke-miterlimit="10" fill="#E97132"/><path d="M1479.5 1422.37C1479.5 1428.72 1474.35 1433.87 1468 1433.87 1461.65 1433.87 1456.5 1428.72 1456.5 1422.37 1456.5 1416.02 1461.65 1410.87 1468 1410.87 1474.35 1410.87 1479.5 1416.02 1479.5 1422.37Z" stroke="#C00000" stroke-width="16.0417" stroke-linejoin="round" stroke-miterlimit="10" fill="#E97132"/><path d="M1637.5 1365.37C1637.5 1371.72 1632.35 1376.87 1626 1376.87 1619.65 1376.87 1614.5 1371.72 1614.5 1365.37 1614.5 1359.02 1619.65 1353.87 1626 1353.87 1632.35 1353.87 1637.5 1359.02 1637.5 1365.37Z" stroke="#C00000" stroke-width="16.0417" stroke-linejoin="round" stroke-miterlimit="10" fill="#E97132"/><path d="M1696.5 1308.37C1696.5 1314.72 1691.35 1319.87 1685 1319.87 1678.65 1319.87 1673.5 1314.72 1673.5 1308.37 1673.5 1302.02 1678.65 1296.87 1685 1296.87 1691.35 1296.87 1696.5 1302.02 1696.5 1308.37Z" stroke="#C00000" stroke-width="16.0417" stroke-linejoin="round" stroke-miterlimit="10" fill="#E97132"/></g><g><text font-family="Arial,Arial_MSFontService,sans-serif" font-weight="400" font-size="50" transform="matrix(1 0 0 1 907.339 3548)">1.4</text></g><g><text font-family="Arial,Arial_MSFontService,sans-serif" font-weight="400" font-size="50" transform="matrix(1 0 0 1 908.564 3491)">1.6</text></g><g><text font-family="Arial,Arial_MSFontService,sans-serif" font-weight="400" font-size="50" transform="matrix(1 0 0 1 910.28 3434)">1.9</text></g><g><text font-family="Arial,Arial_MSFontService,sans-serif" font-weight="400" font-size="50" transform="matrix(1 0 0 1 912.854 3377)">2.4</text></g><g><text font-family="Arial,Arial_MSFontService,sans-serif" font-weight="400" font-size="50" transform="matrix(1 0 0 1 912.854 3320)">2.4</text></g><g><text font-family="Arial,Arial_MSFontService,sans-serif" font-weight="400" font-size="50" transform="matrix(1 0 0 1 912.854 3263)">2.4</text></g><g><text font-family="Arial,Arial_MSFontService,sans-serif" font-weight="400" font-size="50" transform="matrix(1 0 0 1 916.411 3206)">3.0</text></g><g><text font-family="Arial,Arial_MSFontService,sans-serif" font-weight="400" font-size="50" transform="matrix(1 0 0 1 923.15 3149)">4.3</text></g><g><text font-family="Arial,Arial_MSFontService,sans-serif" font-weight="400" font-size="50" transform="matrix(1 0 0 1 924.498 3092)">4.5</text></g><g><text font-family="Arial,Arial_MSFontService,sans-serif" font-weight="400" font-size="50" transform="matrix(1 0 0 1 924.623 3035)">4.5</text></g><g><text font-family="Arial,Arial_MSFontService,sans-serif" font-weight="400" font-size="50" transform="matrix(1 0 0 1 925.724 2978)">4.7</text></g><g><text font-family="Arial,Arial_MSFontService,sans-serif" font-weight="400" font-size="50" transform="matrix(1 0 0 1 928.275 2921)">5.2</text></g><g><text font-family="Arial,Arial_MSFontService,sans-serif" font-weight="400" font-size="50" transform="matrix(1 0 0 1 929.569 2864)">5.4</text></g><g><text font-family="Arial,Arial_MSFontService,sans-serif" font-weight="400" font-size="50" transform="matrix(1 0 0 1 932.836 2807)">6.0</text></g><g><text font-family="Arial,Arial_MSFontService,sans-serif" font-weight="400" font-size="50" transform="matrix(1 0 0 1 934.304 2750)">6.3</text></g><g><text font-family="Arial,Arial_MSFontService,sans-serif" font-weight="400" font-size="50" transform="matrix(1 0 0 1 939.803 2693)">7.3</text></g><g><text font-family="Arial,Arial_MSFontService,sans-serif" font-weight="400" font-size="50" transform="matrix(1 0 0 1 948.77 2636)">9.0</text></g><g><text font-family="Arial,Arial_MSFontService,sans-serif" font-weight="400" font-size="50" transform="matrix(1 0 0 1 951.463 2579)">9.5</text></g><g><text font-family="Arial,Arial_MSFontService,sans-serif" font-weight="400" font-size="50" transform="matrix(1 0 0 1 951.463 2522)">9.5</text></g><g><text font-family="Arial,Arial_MSFontService,sans-serif" font-weight="400" font-size="50" transform="matrix(1 0 0 1 958.208 2465)">10.7</text></g><g><text font-family="Arial,Arial_MSFontService,sans-serif" font-weight="400" font-size="50" transform="matrix(1 0 0 1 960.533 2408)">11.1</text></g><g><text font-family="Arial,Arial_MSFontService,sans-serif" font-weight="400" font-size="50" transform="matrix(1 0 0 1 976.769 2351)">14.1</text></g><g><text font-family="Arial,Arial_MSFontService,sans-serif" font-weight="400" font-size="50" transform="matrix(1 0 0 1 978.527 2294)">14.4</text></g><g><text font-family="Arial,Arial_MSFontService,sans-serif" font-weight="400" font-size="50" transform="matrix(1 0 0 1 993.26 2237)">17.1</text></g><g><text font-family="Arial,Arial_MSFontService,sans-serif" font-weight="400" font-size="50" transform="matrix(1 0 0 1 998.538 2180)">18.1</text></g><g><text font-family="Arial,Arial_MSFontService,sans-serif" font-weight="400" font-size="50" transform="matrix(1 0 0 1 1007.72 2124)">19.8</text></g><g><text font-family="Arial,Arial_MSFontService,sans-serif" font-weight="400" font-size="50" transform="matrix(1 0 0 1 1010.88 2067)">20.4</text></g><g><text font-family="Arial,Arial_MSFontService,sans-serif" font-weight="400" font-size="50" transform="matrix(1 0 0 1 1014.45 2010)">21.0</text></g><g><text font-family="Arial,Arial_MSFontService,sans-serif" font-weight="400" font-size="50" transform="matrix(1 0 0 1 1054.08 1953)">28.3</text></g><g><text font-family="Arial,Arial_MSFontService,sans-serif" font-weight="400" font-size="50" transform="matrix(1 0 0 1 1062.89 1896)">29.9</text></g><g><text font-family="Arial,Arial_MSFontService,sans-serif" font-weight="400" font-size="50" transform="matrix(1 0 0 1 1071.74 1839)">31.5</text></g><g><text font-family="Arial,Arial_MSFontService,sans-serif" font-weight="400" font-size="50" transform="matrix(1 0 0 1 1076.2 1782)">32.4</text></g><g><text font-family="Arial,Arial_MSFontService,sans-serif" font-weight="400" font-size="50" transform="matrix(1 0 0 1 1099.56 1725)">36.6</text></g><g><text font-family="Arial,Arial_MSFontService,sans-serif" font-weight="400" font-size="50" transform="matrix(1 0 0 1 1107.08 1668)">38.0</text></g><g><text font-family="Arial,Arial_MSFontService,sans-serif" font-weight="400" font-size="50" transform="matrix(1 0 0 1 1175.61 1611)">50.6</text></g><g><text font-family="Arial,Arial_MSFontService,sans-serif" font-weight="400" font-size="50" transform="matrix(1 0 0 1 1197.31 1554)">54.6</text></g><g><text font-family="Arial,Arial_MSFontService,sans-serif" font-weight="400" font-size="50" transform="matrix(1 0 0 1 1248.92 1497)">64.1</text></g><g><text font-family="Arial,Arial_MSFontService,sans-serif" font-weight="400" font-size="50" transform="matrix(1 0 0 1 1494.12 1440)">109.1</text></g><g><text font-family="Arial,Arial_MSFontService,sans-serif" font-weight="400" font-size="50" transform="matrix(1 0 0 1 1652.21 1383)">138.1</text></g><g><text font-family="Arial,Arial_MSFontService,sans-serif" font-weight="400" font-size="50" transform="matrix(1 0 0 1 1711.07 1326)">148.9</text></g><g><text font-family="Arial,Arial_MSFontService,sans-serif" font-weight="400" font-size="50" transform="matrix(1 0 0 1 590.792 3546)">Ireland  40</text></g><g><text font-family="Arial,Arial_MSFontService,sans-serif" font-weight="400" font-size="50" transform="matrix(1 0 0 1 557.174 3489)">Ecuador  39</text></g><g><text font-family="Arial,Arial_MSFontService,sans-serif" font-weight="400" font-size="50" transform="matrix(1 0 0 1 554.401 3432)">Slovakia  38</text></g><g><text font-family="Arial,Arial_MSFontService,sans-serif" font-weight="400" font-size="50" transform="matrix(1 0 0 1 588.019 3375)">Algeria  35</text></g><g><text font-family="Arial,Arial_MSFontService,sans-serif" font-weight="400" font-size="50" transform="matrix(1 0 0 1 579.632 3318)">Greece  35</text></g><g><text font-family="Arial,Arial_MSFontService,sans-serif" font-weight="400" font-size="50" transform="matrix(1 0 0 1 585.223 3261)">Nigeria  35</text></g><g><text font-family="Arial,Arial_MSFontService,sans-serif" font-weight="400" font-size="50" transform="matrix(1 0 0 1 571.221 3204)">Ukraine  34</text></g><g><text font-family="Arial,Arial_MSFontService,sans-serif" font-weight="400" font-size="50" transform="matrix(1 0 0 1 630.072 3147)">Chile  33</text></g><g><text font-family="Arial,Arial_MSFontService,sans-serif" font-weight="400" font-size="50" transform="matrix(1 0 0 1 540.422 3090)">Denmark  32</text></g><g><text font-family="Arial,Arial_MSFontService,sans-serif" font-weight="400" font-size="50" transform="matrix(1 0 0 1 498.392 3033)">Costa Rica  31</text></g><g><text font-family="Arial,Arial_MSFontService,sans-serif" font-weight="400" font-size="50" transform="matrix(1 0 0 1 587.974 2976)">Poland  30</text></g><g><text font-family="Arial,Arial_MSFontService,sans-serif" font-weight="400" font-size="50" transform="matrix(1 0 0 1 593.589 2919)">Ghana  29</text></g><g><text font-family="Arial,Arial_MSFontService,sans-serif" font-weight="400" font-size="50" transform="matrix(1 0 0 1 590.884 2862)">Turkey  28</text></g><g><text font-family="Arial,Arial_MSFontService,sans-serif" font-weight="400" font-size="50" transform="matrix(1 0 0 1 590.861 2806)">Russia  27</text></g><g><text font-family="Arial,Arial_MSFontService,sans-serif" font-weight="400" font-size="50" transform="matrix(1 0 0 1 548.809 2749)">Australia  26</text></g><g><text font-family="Arial,Arial_MSFontService,sans-serif" font-weight="400" font-size="50" transform="matrix(1 0 0 1 559.924 2692)">Senegal  25</text></g><g><text font-family="Arial,Arial_MSFontService,sans-serif" font-weight="400" font-size="50" transform="matrix(1 0 0 1 562.765 2635)">Sweden  24</text></g><g><text font-family="Arial,Arial_MSFontService,sans-serif" font-weight="400" font-size="50" transform="matrix(1 0 0 1 568.334 2578)">Canada  22</text></g><g><text font-family="Arial,Arial_MSFontService,sans-serif" font-weight="400" font-size="50" transform="matrix(1 0 0 1 616.07 2521)">Egypt  22</text></g><g><text font-family="Arial,Arial_MSFontService,sans-serif" font-weight="400" font-size="50" transform="matrix(1 0 0 1 464.659 2464)">South Korea  21</text></g><g><text font-family="Arial,Arial_MSFontService,sans-serif" font-weight="400" font-size="50" transform="matrix(1 0 0 1 607.591 2407)">Japan  20</text></g><g><text font-family="Arial,Arial_MSFontService,sans-serif" font-weight="400" font-size="50" transform="matrix(1 0 0 1 554.378 2350)">Uruguay  19</text></g><g><text font-family="Arial,Arial_MSFontService,sans-serif" font-weight="400" font-size="50" transform="matrix(1 0 0 1 529.124 2293)">Paraguay  18</text></g><g><text font-family="Arial,Arial_MSFontService,sans-serif" font-weight="400" font-size="50" transform="matrix(1 0 0 1 531.965 2236)">Colombia  17</text></g><g><text font-family="Arial,Arial_MSFontService,sans-serif" font-weight="400" font-size="50" transform="matrix(1 0 0 1 574.063 2179)">Norway  16</text></g><g><text font-family="Arial,Arial_MSFontService,sans-serif" font-weight="400" font-size="50" transform="matrix(1 0 0 1 585.27 2122)">Mexico  15</text></g><g><text font-family="Arial,Arial_MSFontService,sans-serif" font-weight="400" font-size="50" transform="matrix(1 0 0 1 652.53 2065)">Italy  14</text></g><g><text font-family="Arial,Arial_MSFontService,sans-serif" font-weight="400" font-size="50" transform="matrix(1 0 0 1 442.292 2008)">United States  13</text></g><g><text font-family="Arial,Arial_MSFontService,sans-serif" font-weight="400" font-size="50" transform="matrix(1 0 0 1 557.173 1951)">Portugal  12</text></g><g><text font-family="Arial,Arial_MSFontService,sans-serif" font-weight="400" font-size="50" transform="matrix(1 0 0 1 484.344 1894)">Switzerland  11</text></g><g><text font-family="Arial,Arial_MSFontService,sans-serif" font-weight="400" font-size="50" transform="matrix(1 0 0 1 473.069 1837)">Netherlands  10</text></g><g><text font-family="Arial,Arial_MSFontService,sans-serif" font-weight="400" font-size="50" transform="matrix(1 0 0 1 579.678 1780)">Morocco  9</text></g><g><text font-family="Arial,Arial_MSFontService,sans-serif" font-weight="400" font-size="50" transform="matrix(1 0 0 1 590.861 1723)">Belgium  8</text></g><g><text font-family="Arial,Arial_MSFontService,sans-serif" font-weight="400" font-size="50" transform="matrix(1 0 0 1 610.478 1666)">Croatia  7</text></g><g><text font-family="Arial,Arial_MSFontService,sans-serif" font-weight="400" font-size="50" transform="matrix(1 0 0 1 565.676 1609)">Germany  6</text></g><g><text font-family="Arial,Arial_MSFontService,sans-serif" font-weight="400" font-size="50" transform="matrix(1 0 0 1 646.961 1552)">Brazil  5</text></g><g><text font-family="Arial,Arial_MSFontService,sans-serif" font-weight="400" font-size="50" transform="matrix(1 0 0 1 587.974 1495)">England  4</text></g><g><text font-family="Arial,Arial_MSFontService,sans-serif" font-weight="400" font-size="50" transform="matrix(1 0 0 1 616.093 1438)">France  3</text></g><g><text font-family="Arial,Arial_MSFontService,sans-serif" font-weight="400" font-size="50" transform="matrix(1 0 0 1 557.173 1381)">Argentina  2</text></g><g><text font-family="Arial,Arial_MSFontService,sans-serif" font-weight="400" font-size="50" transform="matrix(1 0 0 1 644.074 1324)">Spain  1</text></g><text font-family="Arial,Arial_MSFontService,sans-serif" font-weight="700" font-size="64" transform="matrix(1 0 0 1 592.407 1115)">WORLD CUP PERFORMANCE 2002 − 2026</text><text font-family="Arial,Arial_MSFontService,sans-serif" font-weight="400" font-size="60" transform="matrix(1 0 0 1 515.338 1188)">Final 16 countries in 7 cups, ranked by Zipf distribution</text><text font-family="Arial,Arial_MSFontService,sans-serif" font-weight="400" font-size="46" transform="matrix(1 0 0 1 771.187 3656)">Source: </text><text font-family="Arial,Arial_MSFontService,sans-serif" font-weight="400" font-size="46" transform="matrix(1 0 0 1 940.77 3656)">S.Canback</text><text font-family="Arial,Arial_MSFontService,sans-serif" font-weight="400" font-size="46" transform="matrix(1 0 0 1 1176.24 3656)">(Tellusant) analysis; FIFA</text><text font-family="Arial,Arial_MSFontService,sans-serif" font-style="italic" font-weight="700" font-size="50" transform="matrix(1 0 0 1 1466.44 2724)">Zipf Weights</text><text font-family="Arial,Arial_MSFontService,sans-serif" font-style="italic" font-weight="400" font-size="50" transform="matrix(1 0 0 1 1295.43 2785)">Zipf gives weight 1 to gold, </text><text font-family="Arial,Arial_MSFontService,sans-serif" font-style="italic" font-weight="400" font-size="50" transform="matrix(1 0 0 1 1295.43 2845)">½ to silver, ⅓ to bronze, and </text><text font-family="Arial,Arial_MSFontService,sans-serif" font-style="italic" font-weight="400" font-size="50" transform="matrix(1 0 0 1 1295.43 2906)">so on</text><text font-family="Arial,Arial_MSFontService,sans-serif" font-style="italic" font-weight="400" font-size="50" transform="matrix(1 0 0 1 1295.43 3027)">Zipf gives weight 1 to 2026, </text><text font-family="Arial,Arial_MSFontService,sans-serif" font-style="italic" font-weight="400" font-size="50" transform="matrix(1 0 0 1 1295.43 3087)">½ to 2022, ⅓ to 2018, and </text><text font-family="Arial,Arial_MSFontService,sans-serif" font-style="italic" font-weight="400" font-size="50" transform="matrix(1 0 0 1 1295.43 3146)">so on</text></g></svg>