<svg width="1725" height="1292" xmlns="http://www.w3.org/2000/svg" xmlns:xlink="http://www.w3.org/1999/xlink" xml:space="preserve" overflow="hidden"><defs><clipPath id="clip0"><rect x="375" y="1646" width="1725" height="1292"/></clipPath></defs><g clip-path="url(#clip0)" transform="translate(-375 -1646)"><g><path d="M929.531 1918.5 929.531 2680.5M1142.54 1918.5 1142.54 2680.5M1355.54 1918.5 1355.54 2680.5M1567.55 1918.5 1567.55 2680.5M1780.56 1918.5 1780.56 2680.5M1993.5 1918.5 1993.5 2680.5" stroke="#D9D9D9" stroke-width="3.4375" stroke-linejoin="round" stroke-miterlimit="10" fill="none"/></g><g><rect x="717" y="2641" width="18.9999" height="21" fill="#C00000"/></g><g><rect x="717" y="2524" width="284" height="21" fill="#C00000"/></g><g><rect x="717" y="2406" width="301" height="21" fill="#C00000"/></g><g><rect x="717" y="2348" width="383" height="21" fill="#C00000"/></g><g><rect x="717" y="1937" width="1222" height="21" fill="#C00000"/></g><g><path d="M827.027 2603.09 717 2603.09 717 2582.08 827.027 2582.08ZM1014.03 2486.08 717 2486.08 717 2465.08 1014.03 2465.08ZM1134.04 2310.08 717 2310.08 717 2289.08 1134.04 2289.08ZM1137.04 2251.07 717 2251.07 717 2230.07 1137.04 2230.07ZM1237.04 2193.07 717 2193.07 717 2172.07 1237.04 2172.07ZM1243.04 2134.07 717 2134.07 717 2113.07 1243.04 2113.07ZM1307.04 2075.07 717 2075.07 717 2054.07 1307.04 2054.07ZM1403.05 2017.07 717 2017.07 717 1996.07 1403.05 1996.07Z" fill="#156082"/></g><g><path d="M0 0 0.000360892 762" stroke="#D9D9D9" stroke-width="3.4375" stroke-linejoin="round" stroke-miterlimit="10" fill="none" fill-rule="evenodd" transform="matrix(1 0 0 -1 717.5 2680.5)"/></g><g><text font-family="Arial,Arial_MSFontService,sans-serif" font-weight="400" font-size="50" transform="matrix(1 0 0 1 703.26 2757)">0</text></g><g><text font-family="Arial,Arial_MSFontService,sans-serif" font-weight="400" font-size="50" transform="matrix(1 0 0 1 887.898 2757)">200</text></g><g><text font-family="Arial,Arial_MSFontService,sans-serif" font-weight="400" font-size="50" transform="matrix(1 0 0 1 1100.59 2757)">400</text></g><g><text font-family="Arial,Arial_MSFontService,sans-serif" font-weight="400" font-size="50" transform="matrix(1 0 0 1 1313.27 2757)">600</text></g><g><text font-family="Arial,Arial_MSFontService,sans-serif" font-weight="400" font-size="50" transform="matrix(1 0 0 1 1525.96 2757)">800</text></g><g><text font-family="Arial,Arial_MSFontService,sans-serif" font-weight="400" font-size="50" transform="matrix(1 0 0 1 1724.63 2757)">1000</text></g><g><text font-family="Arial,Arial_MSFontService,sans-serif" font-weight="400" font-size="50" transform="matrix(1 0 0 1 1937.31 2757)">1200</text></g><g><text font-family="Arial,Arial_MSFontService,sans-serif" font-weight="400" font-size="50" transform="matrix(1 0 0 1 488.92 2668)">Glossop</text></g><g><text font-family="Arial,Arial_MSFontService,sans-serif" font-weight="400" font-size="50" transform="matrix(1 0 0 1 435.661 2609)">Accrington</text></g><g><text font-family="Arial,Arial_MSFontService,sans-serif" font-weight="400" font-size="50" transform="matrix(1 0 0 1 416.022 2551)">Nottingham</text></g><g><text font-family="Arial,Arial_MSFontService,sans-serif" font-weight="400" font-size="50" transform="matrix(1 0 0 1 502.922 2492)">Burnley</text></g><g><text font-family="Arial,Arial_MSFontService,sans-serif" font-weight="400" font-size="50" transform="matrix(1 0 0 1 544.974 2433)">Stoke</text></g><g><text font-family="Arial,Arial_MSFontService,sans-serif" font-weight="400" font-size="50" transform="matrix(1 0 0 1 539.383 2375)">Derby</text></g><g><text font-family="Arial,Arial_MSFontService,sans-serif" font-weight="400" font-size="50" transform="matrix(1 0 0 1 500.126 2316)">Preston</text></g><g><text font-family="Arial,Arial_MSFontService,sans-serif" font-weight="400" font-size="50" transform="matrix(1 0 0 1 449.664 2257)">Blackburn</text></g><g><text font-family="Arial,Arial_MSFontService,sans-serif" font-weight="400" font-size="50" transform="matrix(1 0 0 1 477.667 2199)">Sheffield</text></g><g><text font-family="Arial,Arial_MSFontService,sans-serif" font-weight="400" font-size="50" transform="matrix(1 0 0 1 441.299 2140)">Newcastle</text></g><g><text font-family="Arial,Arial_MSFontService,sans-serif" font-weight="400" font-size="50" transform="matrix(1 0 0 1 410.43 2081)">Manchester</text></g><g><text font-family="Arial,Arial_MSFontService,sans-serif" font-weight="400" font-size="50" transform="matrix(1 0 0 1 469.234 2023)">Liverpool</text></g><g><text font-family="Arial,Arial_MSFontService,sans-serif" font-weight="400" font-size="50" transform="matrix(1 0 0 1 404.861 1964)">Birmingham</text></g><g><text font-family="Arial,Arial_MSFontService,sans-serif" font-weight="700" font-size="64" transform="matrix(1 0 0 1 788.94 1741)">ENGLISH FOOTBALL ROOTS</text></g><g><text font-family="Arial,Arial_MSFontService,sans-serif" font-weight="400" font-size="60" transform="matrix(1 0 0 1 846.645 1811)">Total points collected by 1900</text></g><g><text font-family="Arial,Arial_MSFontService,sans-serif" font-style="italic" font-weight="400" font-size="55" transform="matrix(1 0 0 1 911.843 1875)">1st division started in 1888</text></g><rect x="1488" y="2183" width="38.9999" height="39.9998" fill="#156082"/><rect x="1488" y="2260" width="38.9999" height="38.9998" fill="#C00000"/><rect x="1488" y="2336" width="38.9999" height="39.9998" fill="#4EA72E"/><text font-family="Arial,Arial_MSFontService,sans-serif" font-weight="400" font-size="50" transform="matrix(1 0 0 1 1594.39 2222)">North</text><text font-family="Arial,Arial_MSFontService,sans-serif" font-weight="400" font-size="50" transform="matrix(1 0 0 1 1594.39 2298)">Middle</text><text font-family="Arial,Arial_MSFontService,sans-serif" font-weight="400" font-size="50" transform="matrix(1 0 0 1 1594.39 2374)">South</text><text font-family="Arial,Arial_MSFontService,sans-serif" font-weight="400" font-size="46" transform="matrix(1 0 0 1 412.868 2900)">Source</text><text font-family="Arial,Arial_MSFontService,sans-serif" font-weight="400" font-size="46" transform="matrix(1 0 0 1 557.243 2900)">: </text><text font-family="Arial,Arial_MSFontService,sans-serif" font-weight="400" font-size="46" transform="matrix(1 0 0 1 582.452 2900)">DataRig</text><text font-family="Arial,Arial_MSFontService,sans-serif" font-weight="400" font-size="46" transform="matrix(1 0 0 1 760.056 2900)">on YouTube</text></g></svg>