<svg width="2076" height="1969" xmlns="http://www.w3.org/2000/svg" xmlns:xlink="http://www.w3.org/1999/xlink" xml:space="preserve" overflow="hidden"><defs><clipPath id="clip0"><rect x="156" y="1311" width="2076" height="1969"/></clipPath></defs><g clip-path="url(#clip0)" transform="translate(-156 -1311)"><g><path d="M430.5 2968.5 2181.5 2968.5M430.5 2820.59 2181.5 2820.59M430.5 2671.59 2181.5 2671.59M430.5 2522.58 2181.5 2522.58M430.5 2374.58 2181.5 2374.58M430.5 2225.57 2181.5 2225.57M430.5 2076.57 2181.5 2076.57M430.5 1927.56 2181.5 1927.56M430.5 1779.56 2181.5 1779.56M430.5 1630.5 2181.5 1630.5" stroke="#D9D9D9" stroke-width="3.4375" stroke-linejoin="round" stroke-miterlimit="10" fill="none"/></g><g><path d="M431 2969 431 2909 458.015 2909 458.015 2969 495.016 2969 495.016 2969 534.018 2969 534.018 2969 556.018 2969 556.018 2969 656.021 2969 656.021 2969 672.022 2969 672.022 2969 685.022 2969 685.022 2969 706.023 2969 706.023 2969 722.024 2969 722.024 2969 780.026 2969 780.026 2969 799.026 2969 799.026 2969 814.027 2969 814.027 2969 1634.05 2969 1634.05 2969 1649.05 2969 1649.05 2969 1661.05 2969 1661.05 2969 1675.05 2969 1675.05 2969 1703.06 2969 1703.06 2969 1721.06 2969 1721.06 2969 1726.06 2969 1726.06 2969 1760.06 2969 1760.06 2969 1870.06 2969 1870.06 2969 1907.06 2969 1907.06 2969 1932.06 2969 1932.06 2969 1968.06 2969 1968.06 2969 2109.07 2969 2109.07 2969 2134.07 2969 2134.07 2969 2140.07 2969 2140.07 2969 2182 2969 2182 2969 2140.07 2969 2140.07 2969 2134.07 2969 2134.07 2969 2109.07 2969 2109.07 2969 1968.06 2969 1968.06 2969 1932.06 2969 1932.06 2969 1907.06 2969 1907.06 2969 1870.06 2969 1870.06 2969 1760.06 2969 1760.06 2969 1726.06 2969 1726.06 2969 1721.06 2969 1721.06 2969 1703.06 2969 1703.06 2969 1675.05 2969 1675.05 2969 1661.05 2969 1661.05 2969 1649.05 2969 1649.05 2969 1634.05 2969 1634.05 2969 814.027 2969 814.027 2969 799.026 2969 799.026 2969 780.026 2969 780.026 2969 722.024 2969 722.024 2969 706.023 2969 706.023 2969 685.022 2969 685.022 2969 672.022 2969 672.022 2969 656.021 2969 656.021 2969 556.018 2969 556.018 2969 534.018 2969 534.018 2969 495.016 2969 495.016 2969 458.015 2969 458.015 2969 431 2969 431 2969Z" fill="#46B1E1"/></g><g><path d="M431 2969 431 2909.1 458.015 2909.1 458.015 2890 495.016 2890 495.016 2969 534.018 2969 534.018 2969 556.018 2969 556.018 2969 656.021 2969 656.021 2969 672.022 2969 672.022 2969 685.022 2969 685.022 2969 706.023 2969 706.023 2969 722.024 2969 722.024 2969 780.026 2969 780.026 2969 799.026 2969 799.026 2969 814.027 2969 814.027 2969 1634.05 2969 1634.05 2969 1649.05 2969 1649.05 2969 1661.05 2969 1661.05 2969 1675.05 2969 1675.05 2969 1703.06 2969 1703.06 2969 1721.06 2969 1721.06 2969 1726.06 2969 1726.06 2969 1760.06 2969 1760.06 2969 1870.06 2969 1870.06 2969 1907.06 2969 1907.06 2969 1932.06 2969 1932.06 2969 1968.06 2969 1968.06 2969 2109.07 2969 2109.07 2969 2134.07 2969 2134.07 2969 2140.07 2969 2140.07 2969 2182 2969 2182 2969 2140.07 2969 2140.07 2969 2134.07 2969 2134.07 2969 2109.07 2969 2109.07 2969 1968.06 2969 1968.06 2969 1932.06 2969 1932.06 2969 1907.06 2969 1907.06 2969 1870.06 2969 1870.06 2969 1760.06 2969 1760.06 2969 1726.06 2969 1726.06 2969 1721.06 2969 1721.06 2969 1703.06 2969 1703.06 2969 1675.05 2969 1675.05 2969 1661.05 2969 1661.05 2969 1649.05 2969 1649.05 2969 1634.05 2969 1634.05 2969 814.027 2969 814.027 2969 799.026 2969 799.026 2969 780.026 2969 780.026 2969 722.024 2969 722.024 2969 706.023 2969 706.023 2969 685.022 2969 685.022 2969 672.022 2969 672.022 2969 656.021 2969 656.021 2969 556.018 2969 556.018 2969 534.018 2969 534.018 2969 495.016 2969 495.016 2969 458.015 2969 458.015 2909.1 431 2909.1 431 2969Z" fill="#B4E5A2"/></g><g><path d="M431 2969 431 2909.1 458.015 2909.1 458.015 2890.09 495.016 2890.09 495.016 2885 534.018 2885 534.018 2969 556.018 2969 556.018 2969 656.021 2969 656.021 2969 672.022 2969 672.022 2969 685.022 2969 685.022 2969 706.023 2969 706.023 2969 722.024 2969 722.024 2969 780.026 2969 780.026 2969 799.026 2969 799.026 2969 814.027 2969 814.027 2969 1634.05 2969 1634.05 2969 1649.05 2969 1649.05 2969 1661.05 2969 1661.05 2969 1675.05 2969 1675.05 2969 1703.06 2969 1703.06 2969 1721.06 2969 1721.06 2969 1726.06 2969 1726.06 2969 1760.06 2969 1760.06 2969 1870.06 2969 1870.06 2969 1907.06 2969 1907.06 2969 1932.06 2969 1932.06 2969 1968.06 2969 1968.06 2969 2109.07 2969 2109.07 2969 2134.07 2969 2134.07 2969 2140.07 2969 2140.07 2969 2182 2969 2182 2969 2140.07 2969 2140.07 2969 2134.07 2969 2134.07 2969 2109.07 2969 2109.07 2969 1968.06 2969 1968.06 2969 1932.06 2969 1932.06 2969 1907.06 2969 1907.06 2969 1870.06 2969 1870.06 2969 1760.06 2969 1760.06 2969 1726.06 2969 1726.06 2969 1721.06 2969 1721.06 2969 1703.06 2969 1703.06 2969 1675.05 2969 1675.05 2969 1661.05 2969 1661.05 2969 1649.05 2969 1649.05 2969 1634.05 2969 1634.05 2969 814.027 2969 814.027 2969 799.026 2969 799.026 2969 780.026 2969 780.026 2969 722.024 2969 722.024 2969 706.023 2969 706.023 2969 685.022 2969 685.022 2969 672.022 2969 672.022 2969 656.021 2969 656.021 2969 556.018 2969 556.018 2969 534.018 2969 534.018 2969 495.016 2969 495.016 2890.09 458.015 2890.09 458.015 2909.1 431 2909.1 431 2969Z" fill="#46B1E1"/></g><g><path d="M431 2969 431 2909.1 458.015 2909.1 458.015 2890.09 495.016 2890.09 495.016 2884.09 534.018 2884.09 534.018 2880 556.018 2880 556.018 2969 656.021 2969 656.021 2969 672.022 2969 672.022 2969 685.022 2969 685.022 2969 706.023 2969 706.023 2969 722.024 2969 722.024 2969 780.026 2969 780.026 2969 799.026 2969 799.026 2969 814.027 2969 814.027 2969 1634.05 2969 1634.05 2969 1649.05 2969 1649.05 2969 1661.05 2969 1661.05 2969 1675.05 2969 1675.05 2969 1703.06 2969 1703.06 2969 1721.06 2969 1721.06 2969 1726.06 2969 1726.06 2969 1760.06 2969 1760.06 2969 1870.06 2969 1870.06 2969 1907.06 2969 1907.06 2969 1932.06 2969 1932.06 2969 1968.06 2969 1968.06 2969 2109.07 2969 2109.07 2969 2134.07 2969 2134.07 2969 2140.07 2969 2140.07 2969 2182 2969 2182 2969 2140.07 2969 2140.07 2969 2134.07 2969 2134.07 2969 2109.07 2969 2109.07 2969 1968.06 2969 1968.06 2969 1932.06 2969 1932.06 2969 1907.06 2969 1907.06 2969 1870.06 2969 1870.06 2969 1760.06 2969 1760.06 2969 1726.06 2969 1726.06 2969 1721.06 2969 1721.06 2969 1703.06 2969 1703.06 2969 1675.05 2969 1675.05 2969 1661.05 2969 1661.05 2969 1649.05 2969 1649.05 2969 1634.05 2969 1634.05 2969 814.027 2969 814.027 2969 799.026 2969 799.026 2969 780.026 2969 780.026 2969 722.024 2969 722.024 2969 706.023 2969 706.023 2969 685.022 2969 685.022 2969 672.022 2969 672.022 2969 656.021 2969 656.021 2969 556.018 2969 556.018 2969 534.018 2969 534.018 2884.09 495.016 2884.09 495.016 2890.09 458.015 2890.09 458.015 2909.1 431 2909.1 431 2969Z" fill="#B4E5A2"/></g><g><path d="M431 2969 431 2909.1 458.015 2909.1 458.015 2890.09 495.016 2890.09 495.016 2884.09 534.018 2884.09 534.018 2880.09 556.018 2880.09 556.018 2859 656.021 2859 656.021 2969 672.022 2969 672.022 2969 685.022 2969 685.022 2969 706.023 2969 706.023 2969 722.024 2969 722.024 2969 780.026 2969 780.026 2969 799.026 2969 799.026 2969 814.027 2969 814.027 2969 1634.05 2969 1634.05 2969 1649.05 2969 1649.05 2969 1661.05 2969 1661.05 2969 1675.05 2969 1675.05 2969 1703.06 2969 1703.06 2969 1721.06 2969 1721.06 2969 1726.06 2969 1726.06 2969 1760.06 2969 1760.06 2969 1870.06 2969 1870.06 2969 1907.06 2969 1907.06 2969 1932.06 2969 1932.06 2969 1968.06 2969 1968.06 2969 2109.07 2969 2109.07 2969 2134.07 2969 2134.07 2969 2140.07 2969 2140.07 2969 2182 2969 2182 2969 2140.07 2969 2140.07 2969 2134.07 2969 2134.07 2969 2109.07 2969 2109.07 2969 1968.06 2969 1968.06 2969 1932.06 2969 1932.06 2969 1907.06 2969 1907.06 2969 1870.06 2969 1870.06 2969 1760.06 2969 1760.06 2969 1726.06 2969 1726.06 2969 1721.06 2969 1721.06 2969 1703.06 2969 1703.06 2969 1675.05 2969 1675.05 2969 1661.05 2969 1661.05 2969 1649.05 2969 1649.05 2969 1634.05 2969 1634.05 2969 814.027 2969 814.027 2969 799.026 2969 799.026 2969 780.026 2969 780.026 2969 722.024 2969 722.024 2969 706.023 2969 706.023 2969 685.022 2969 685.022 2969 672.022 2969 672.022 2969 656.021 2969 656.021 2969 556.018 2969 556.018 2880.09 534.018 2880.09 534.018 2884.09 495.016 2884.09 495.016 2890.09 458.015 2890.09 458.015 2909.1 431 2909.1 431 2969Z" fill="#46B1E1"/></g><g><path d="M431 2969 431 2909.1 458.015 2909.1 458.015 2890.09 495.016 2890.09 495.016 2884.09 534.018 2884.09 534.018 2880.09 556.018 2880.09 556.018 2859.09 656.021 2859.09 656.021 2842 672.022 2842 672.022 2969 685.022 2969 685.022 2969 706.023 2969 706.023 2969 722.024 2969 722.024 2969 780.026 2969 780.026 2969 799.026 2969 799.026 2969 814.027 2969 814.027 2969 1634.05 2969 1634.05 2969 1649.05 2969 1649.05 2969 1661.05 2969 1661.05 2969 1675.05 2969 1675.05 2969 1703.06 2969 1703.06 2969 1721.06 2969 1721.06 2969 1726.06 2969 1726.06 2969 1760.06 2969 1760.06 2969 1870.06 2969 1870.06 2969 1907.06 2969 1907.06 2969 1932.06 2969 1932.06 2969 1968.06 2969 1968.06 2969 2109.07 2969 2109.07 2969 2134.07 2969 2134.07 2969 2140.07 2969 2140.07 2969 2182 2969 2182 2969 2140.07 2969 2140.07 2969 2134.07 2969 2134.07 2969 2109.07 2969 2109.07 2969 1968.06 2969 1968.06 2969 1932.06 2969 1932.06 2969 1907.06 2969 1907.06 2969 1870.06 2969 1870.06 2969 1760.06 2969 1760.06 2969 1726.06 2969 1726.06 2969 1721.06 2969 1721.06 2969 1703.06 2969 1703.06 2969 1675.05 2969 1675.05 2969 1661.05 2969 1661.05 2969 1649.05 2969 1649.05 2969 1634.05 2969 1634.05 2969 814.027 2969 814.027 2969 799.026 2969 799.026 2969 780.026 2969 780.026 2969 722.024 2969 722.024 2969 706.023 2969 706.023 2969 685.022 2969 685.022 2969 672.022 2969 672.022 2969 656.021 2969 656.021 2859.09 556.018 2859.09 556.018 2880.09 534.018 2880.09 534.018 2884.09 495.016 2884.09 495.016 2890.09 458.015 2890.09 458.015 2909.1 431 2909.1 431 2969Z" fill="#B4E5A2"/></g><g><path d="M431 2969 431 2909.1 458.015 2909.1 458.015 2890.09 495.016 2890.09 495.016 2884.09 534.018 2884.09 534.018 2880.09 556.018 2880.09 556.018 2859.09 656.021 2859.09 656.021 2842.09 672.022 2842.09 672.022 2817 685.022 2817 685.022 2969 706.023 2969 706.023 2969 722.024 2969 722.024 2969 780.026 2969 780.026 2969 799.026 2969 799.026 2969 814.027 2969 814.027 2969 1634.05 2969 1634.05 2969 1649.05 2969 1649.05 2969 1661.05 2969 1661.05 2969 1675.05 2969 1675.05 2969 1703.06 2969 1703.06 2969 1721.06 2969 1721.06 2969 1726.06 2969 1726.06 2969 1760.06 2969 1760.06 2969 1870.06 2969 1870.06 2969 1907.06 2969 1907.06 2969 1932.06 2969 1932.06 2969 1968.06 2969 1968.06 2969 2109.07 2969 2109.07 2969 2134.07 2969 2134.07 2969 2140.07 2969 2140.07 2969 2182 2969 2182 2969 2140.07 2969 2140.07 2969 2134.07 2969 2134.07 2969 2109.07 2969 2109.07 2969 1968.06 2969 1968.06 2969 1932.06 2969 1932.06 2969 1907.06 2969 1907.06 2969 1870.06 2969 1870.06 2969 1760.06 2969 1760.06 2969 1726.06 2969 1726.06 2969 1721.06 2969 1721.06 2969 1703.06 2969 1703.06 2969 1675.05 2969 1675.05 2969 1661.05 2969 1661.05 2969 1649.05 2969 1649.05 2969 1634.05 2969 1634.05 2969 814.027 2969 814.027 2969 799.026 2969 799.026 2969 780.026 2969 780.026 2969 722.024 2969 722.024 2969 706.023 2969 706.023 2969 685.022 2969 685.022 2969 672.022 2969 672.022 2842.09 656.021 2842.09 656.021 2859.09 556.018 2859.09 556.018 2880.09 534.018 2880.09 534.018 2884.09 495.016 2884.09 495.016 2890.09 458.015 2890.09 458.015 2909.1 431 2909.1 431 2969Z" fill="#46B1E1"/></g><g><path d="M431 2969 431 2909.1 458.015 2909.1 458.015 2890.09 495.016 2890.09 495.016 2884.09 534.018 2884.09 534.018 2880.09 556.018 2880.09 556.018 2859.09 656.021 2859.09 656.021 2842.09 672.022 2842.09 672.022 2817.09 685.022 2817.09 685.022 2816 706.023 2816 706.023 2969 722.024 2969 722.024 2969 780.026 2969 780.026 2969 799.026 2969 799.026 2969 814.027 2969 814.027 2969 1634.05 2969 1634.05 2969 1649.05 2969 1649.05 2969 1661.05 2969 1661.05 2969 1675.05 2969 1675.05 2969 1703.06 2969 1703.06 2969 1721.06 2969 1721.06 2969 1726.06 2969 1726.06 2969 1760.06 2969 1760.06 2969 1870.06 2969 1870.06 2969 1907.06 2969 1907.06 2969 1932.06 2969 1932.06 2969 1968.06 2969 1968.06 2969 2109.07 2969 2109.07 2969 2134.07 2969 2134.07 2969 2140.07 2969 2140.07 2969 2182 2969 2182 2969 2140.07 2969 2140.07 2969 2134.07 2969 2134.07 2969 2109.07 2969 2109.07 2969 1968.06 2969 1968.06 2969 1932.06 2969 1932.06 2969 1907.06 2969 1907.06 2969 1870.06 2969 1870.06 2969 1760.06 2969 1760.06 2969 1726.06 2969 1726.06 2969 1721.06 2969 1721.06 2969 1703.06 2969 1703.06 2969 1675.05 2969 1675.05 2969 1661.05 2969 1661.05 2969 1649.05 2969 1649.05 2969 1634.05 2969 1634.05 2969 814.027 2969 814.027 2969 799.026 2969 799.026 2969 780.026 2969 780.026 2969 722.024 2969 722.024 2969 706.023 2969 706.023 2969 685.022 2969 685.022 2817.09 672.022 2817.09 672.022 2842.09 656.021 2842.09 656.021 2859.09 556.018 2859.09 556.018 2880.09 534.018 2880.09 534.018 2884.09 495.016 2884.09 495.016 2890.09 458.015 2890.09 458.015 2909.1 431 2909.1 431 2969Z" fill="#B4E5A2"/></g><g><path d="M431 2969 431 2909.1 458.015 2909.1 458.015 2890.09 495.016 2890.09 495.016 2884.09 534.018 2884.09 534.018 2880.09 556.018 2880.09 556.018 2859.09 656.021 2859.09 656.021 2842.09 672.022 2842.09 672.022 2817.09 685.022 2817.09 685.022 2816.09 706.023 2816.09 706.023 2795 722.024 2795 722.024 2969 780.026 2969 780.026 2969 799.026 2969 799.026 2969 814.027 2969 814.027 2969 1634.05 2969 1634.05 2969 1649.05 2969 1649.05 2969 1661.05 2969 1661.05 2969 1675.05 2969 1675.05 2969 1703.06 2969 1703.06 2969 1721.06 2969 1721.06 2969 1726.06 2969 1726.06 2969 1760.06 2969 1760.06 2969 1870.06 2969 1870.06 2969 1907.06 2969 1907.06 2969 1932.06 2969 1932.06 2969 1968.06 2969 1968.06 2969 2109.07 2969 2109.07 2969 2134.07 2969 2134.07 2969 2140.07 2969 2140.07 2969 2182 2969 2182 2969 2140.07 2969 2140.07 2969 2134.07 2969 2134.07 2969 2109.07 2969 2109.07 2969 1968.06 2969 1968.06 2969 1932.06 2969 1932.06 2969 1907.06 2969 1907.06 2969 1870.06 2969 1870.06 2969 1760.06 2969 1760.06 2969 1726.06 2969 1726.06 2969 1721.06 2969 1721.06 2969 1703.06 2969 1703.06 2969 1675.05 2969 1675.05 2969 1661.05 2969 1661.05 2969 1649.05 2969 1649.05 2969 1634.05 2969 1634.05 2969 814.027 2969 814.027 2969 799.026 2969 799.026 2969 780.026 2969 780.026 2969 722.024 2969 722.024 2969 706.023 2969 706.023 2816.09 685.022 2816.09 685.022 2817.09 672.022 2817.09 672.022 2842.09 656.021 2842.09 656.021 2859.09 556.018 2859.09 556.018 2880.09 534.018 2880.09 534.018 2884.09 495.016 2884.09 495.016 2890.09 458.015 2890.09 458.015 2909.1 431 2909.1 431 2969Z" fill="#46B1E1"/></g><g><path d="M431 2969 431 2909.1 458.015 2909.1 458.015 2890.09 495.016 2890.09 495.016 2884.09 534.018 2884.09 534.018 2880.09 556.018 2880.09 556.018 2859.09 656.021 2859.09 656.021 2842.09 672.022 2842.09 672.022 2817.09 685.022 2817.09 685.022 2816.09 706.023 2816.09 706.023 2795.09 722.024 2795.09 722.024 2767 780.026 2767 780.026 2969 799.026 2969 799.026 2969 814.027 2969 814.027 2969 1634.05 2969 1634.05 2969 1649.05 2969 1649.05 2969 1661.05 2969 1661.05 2969 1675.05 2969 1675.05 2969 1703.06 2969 1703.06 2969 1721.06 2969 1721.06 2969 1726.06 2969 1726.06 2969 1760.06 2969 1760.06 2969 1870.06 2969 1870.06 2969 1907.06 2969 1907.06 2969 1932.06 2969 1932.06 2969 1968.06 2969 1968.06 2969 2109.07 2969 2109.07 2969 2134.07 2969 2134.07 2969 2140.07 2969 2140.07 2969 2182 2969 2182 2969 2140.07 2969 2140.07 2969 2134.07 2969 2134.07 2969 2109.07 2969 2109.07 2969 1968.06 2969 1968.06 2969 1932.06 2969 1932.06 2969 1907.06 2969 1907.06 2969 1870.06 2969 1870.06 2969 1760.06 2969 1760.06 2969 1726.06 2969 1726.06 2969 1721.06 2969 1721.06 2969 1703.06 2969 1703.06 2969 1675.05 2969 1675.05 2969 1661.05 2969 1661.05 2969 1649.05 2969 1649.05 2969 1634.05 2969 1634.05 2969 814.027 2969 814.027 2969 799.026 2969 799.026 2969 780.026 2969 780.026 2969 722.024 2969 722.024 2795.09 706.023 2795.09 706.023 2816.09 685.022 2816.09 685.022 2817.09 672.022 2817.09 672.022 2842.09 656.021 2842.09 656.021 2859.09 556.018 2859.09 556.018 2880.09 534.018 2880.09 534.018 2884.09 495.016 2884.09 495.016 2890.09 458.015 2890.09 458.015 2909.1 431 2909.1 431 2969Z" fill="#B4E5A2"/></g><g><path d="M431 2969 431 2909.1 458.015 2909.1 458.015 2890.09 495.016 2890.09 495.016 2884.09 534.018 2884.09 534.018 2880.09 556.018 2880.09 556.018 2859.09 656.021 2859.09 656.021 2842.09 672.022 2842.09 672.022 2817.09 685.022 2817.09 685.022 2816.09 706.023 2816.09 706.023 2795.09 722.024 2795.09 722.024 2767.09 780.026 2767.09 780.026 2750 799.026 2750 799.026 2969 814.027 2969 814.027 2969 1634.05 2969 1634.05 2969 1649.05 2969 1649.05 2969 1661.05 2969 1661.05 2969 1675.05 2969 1675.05 2969 1703.06 2969 1703.06 2969 1721.06 2969 1721.06 2969 1726.06 2969 1726.06 2969 1760.06 2969 1760.06 2969 1870.06 2969 1870.06 2969 1907.06 2969 1907.06 2969 1932.06 2969 1932.06 2969 1968.06 2969 1968.06 2969 2109.07 2969 2109.07 2969 2134.07 2969 2134.07 2969 2140.07 2969 2140.07 2969 2182 2969 2182 2969 2140.07 2969 2140.07 2969 2134.07 2969 2134.07 2969 2109.07 2969 2109.07 2969 1968.06 2969 1968.06 2969 1932.06 2969 1932.06 2969 1907.06 2969 1907.06 2969 1870.06 2969 1870.06 2969 1760.06 2969 1760.06 2969 1726.06 2969 1726.06 2969 1721.06 2969 1721.06 2969 1703.06 2969 1703.06 2969 1675.05 2969 1675.05 2969 1661.05 2969 1661.05 2969 1649.05 2969 1649.05 2969 1634.05 2969 1634.05 2969 814.027 2969 814.027 2969 799.026 2969 799.026 2969 780.026 2969 780.026 2767.09 722.024 2767.09 722.024 2795.09 706.023 2795.09 706.023 2816.09 685.022 2816.09 685.022 2817.09 672.022 2817.09 672.022 2842.09 656.021 2842.09 656.021 2859.09 556.018 2859.09 556.018 2880.09 534.018 2880.09 534.018 2884.09 495.016 2884.09 495.016 2890.09 458.015 2890.09 458.015 2909.1 431 2909.1 431 2969Z" fill="#46B1E1"/></g><g><path d="M431 2969 431 2909.1 458.015 2909.1 458.015 2890.09 495.016 2890.09 495.016 2884.09 534.018 2884.09 534.018 2880.09 556.018 2880.09 556.018 2859.09 656.021 2859.09 656.021 2842.09 672.022 2842.09 672.022 2817.09 685.022 2817.09 685.022 2816.09 706.023 2816.09 706.023 2795.09 722.024 2795.09 722.024 2767.09 780.026 2767.09 780.026 2750.09 799.026 2750.09 799.026 2738 814.027 2738 814.027 2969 1634.05 2969 1634.05 2969 1649.05 2969 1649.05 2969 1661.05 2969 1661.05 2969 1675.05 2969 1675.05 2969 1703.06 2969 1703.06 2969 1721.06 2969 1721.06 2969 1726.06 2969 1726.06 2969 1760.06 2969 1760.06 2969 1870.06 2969 1870.06 2969 1907.06 2969 1907.06 2969 1932.06 2969 1932.06 2969 1968.06 2969 1968.06 2969 2109.07 2969 2109.07 2969 2134.07 2969 2134.07 2969 2140.07 2969 2140.07 2969 2182 2969 2182 2969 2140.07 2969 2140.07 2969 2134.07 2969 2134.07 2969 2109.07 2969 2109.07 2969 1968.06 2969 1968.06 2969 1932.06 2969 1932.06 2969 1907.06 2969 1907.06 2969 1870.06 2969 1870.06 2969 1760.06 2969 1760.06 2969 1726.06 2969 1726.06 2969 1721.06 2969 1721.06 2969 1703.06 2969 1703.06 2969 1675.05 2969 1675.05 2969 1661.05 2969 1661.05 2969 1649.05 2969 1649.05 2969 1634.05 2969 1634.05 2969 814.027 2969 814.027 2969 799.026 2969 799.026 2750.09 780.026 2750.09 780.026 2767.09 722.024 2767.09 722.024 2795.09 706.023 2795.09 706.023 2816.09 685.022 2816.09 685.022 2817.09 672.022 2817.09 672.022 2842.09 656.021 2842.09 656.021 2859.09 556.018 2859.09 556.018 2880.09 534.018 2880.09 534.018 2884.09 495.016 2884.09 495.016 2890.09 458.015 2890.09 458.015 2909.1 431 2909.1 431 2969Z" fill="#B4E5A2"/></g><g><path d="M431 2969 431 2909.1 458.015 2909.1 458.015 2890.09 495.016 2890.09 495.016 2884.09 534.018 2884.09 534.018 2880.09 556.018 2880.09 556.018 2859.09 656.021 2859.09 656.021 2842.09 672.022 2842.09 672.022 2817.09 685.022 2817.09 685.022 2816.09 706.023 2816.09 706.023 2795.09 722.024 2795.09 722.024 2767.09 780.026 2767.09 780.026 2750.09 799.026 2750.09 799.026 2737.09 814.027 2737.09 814.027 2735 1634.05 2735 1634.05 2969 1649.05 2969 1649.05 2969 1661.05 2969 1661.05 2969 1675.05 2969 1675.05 2969 1703.06 2969 1703.06 2969 1721.06 2969 1721.06 2969 1726.06 2969 1726.06 2969 1760.06 2969 1760.06 2969 1870.06 2969 1870.06 2969 1907.06 2969 1907.06 2969 1932.06 2969 1932.06 2969 1968.06 2969 1968.06 2969 2109.07 2969 2109.07 2969 2134.07 2969 2134.07 2969 2140.07 2969 2140.07 2969 2182 2969 2182 2969 2140.07 2969 2140.07 2969 2134.07 2969 2134.07 2969 2109.07 2969 2109.07 2969 1968.06 2969 1968.06 2969 1932.06 2969 1932.06 2969 1907.06 2969 1907.06 2969 1870.06 2969 1870.06 2969 1760.06 2969 1760.06 2969 1726.06 2969 1726.06 2969 1721.06 2969 1721.06 2969 1703.06 2969 1703.06 2969 1675.05 2969 1675.05 2969 1661.05 2969 1661.05 2969 1649.05 2969 1649.05 2969 1634.05 2969 1634.05 2969 814.027 2969 814.027 2737.09 799.026 2737.09 799.026 2750.09 780.026 2750.09 780.026 2767.09 722.024 2767.09 722.024 2795.09 706.023 2795.09 706.023 2816.09 685.022 2816.09 685.022 2817.09 672.022 2817.09 672.022 2842.09 656.021 2842.09 656.021 2859.09 556.018 2859.09 556.018 2880.09 534.018 2880.09 534.018 2884.09 495.016 2884.09 495.016 2890.09 458.015 2890.09 458.015 2909.1 431 2909.1 431 2969Z" fill="#46B1E1"/></g><g><path d="M431 2969 431 2909.1 458.015 2909.1 458.015 2890.09 495.016 2890.09 495.016 2884.09 534.018 2884.09 534.018 2880.09 556.018 2880.09 556.018 2859.09 656.021 2859.09 656.021 2842.09 672.022 2842.09 672.022 2817.09 685.022 2817.09 685.022 2816.09 706.023 2816.09 706.023 2795.09 722.024 2795.09 722.024 2767.09 780.026 2767.09 780.026 2750.09 799.026 2750.09 799.026 2737.09 814.027 2737.09 814.027 2735.09 1634.05 2735.09 1634.05 2734 1649.05 2734 1649.05 2969 1661.05 2969 1661.05 2969 1675.05 2969 1675.05 2969 1703.06 2969 1703.06 2969 1721.06 2969 1721.06 2969 1726.06 2969 1726.06 2969 1760.06 2969 1760.06 2969 1870.06 2969 1870.06 2969 1907.06 2969 1907.06 2969 1932.06 2969 1932.06 2969 1968.06 2969 1968.06 2969 2109.07 2969 2109.07 2969 2134.07 2969 2134.07 2969 2140.07 2969 2140.07 2969 2182 2969 2182 2969 2140.07 2969 2140.07 2969 2134.07 2969 2134.07 2969 2109.07 2969 2109.07 2969 1968.06 2969 1968.06 2969 1932.06 2969 1932.06 2969 1907.06 2969 1907.06 2969 1870.06 2969 1870.06 2969 1760.06 2969 1760.06 2969 1726.06 2969 1726.06 2969 1721.06 2969 1721.06 2969 1703.06 2969 1703.06 2969 1675.05 2969 1675.05 2969 1661.05 2969 1661.05 2969 1649.05 2969 1649.05 2969 1634.05 2969 1634.05 2735.09 814.027 2735.09 814.027 2737.09 799.026 2737.09 799.026 2750.09 780.026 2750.09 780.026 2767.09 722.024 2767.09 722.024 2795.09 706.023 2795.09 706.023 2816.09 685.022 2816.09 685.022 2817.09 672.022 2817.09 672.022 2842.09 656.021 2842.09 656.021 2859.09 556.018 2859.09 556.018 2880.09 534.018 2880.09 534.018 2884.09 495.016 2884.09 495.016 2890.09 458.015 2890.09 458.015 2909.1 431 2909.1 431 2969Z" fill="#B4E5A2"/></g><g><path d="M431 2969 431 2909.1 458.015 2909.1 458.015 2890.09 495.016 2890.09 495.016 2884.09 534.018 2884.09 534.018 2880.09 556.018 2880.09 556.018 2859.09 656.021 2859.09 656.021 2842.09 672.022 2842.09 672.022 2817.09 685.022 2817.09 685.022 2816.09 706.023 2816.09 706.023 2795.09 722.024 2795.09 722.024 2767.09 780.026 2767.09 780.026 2750.09 799.026 2750.09 799.026 2737.09 814.027 2737.09 814.027 2735.09 1634.05 2735.09 1634.05 2734.09 1649.05 2734.09 1649.05 2684 1661.05 2684 1661.05 2969 1675.05 2969 1675.05 2969 1703.06 2969 1703.06 2969 1721.06 2969 1721.06 2969 1726.06 2969 1726.06 2969 1760.06 2969 1760.06 2969 1870.06 2969 1870.06 2969 1907.06 2969 1907.06 2969 1932.06 2969 1932.06 2969 1968.06 2969 1968.06 2969 2109.07 2969 2109.07 2969 2134.07 2969 2134.07 2969 2140.07 2969 2140.07 2969 2182 2969 2182 2969 2140.07 2969 2140.07 2969 2134.07 2969 2134.07 2969 2109.07 2969 2109.07 2969 1968.06 2969 1968.06 2969 1932.06 2969 1932.06 2969 1907.06 2969 1907.06 2969 1870.06 2969 1870.06 2969 1760.06 2969 1760.06 2969 1726.06 2969 1726.06 2969 1721.06 2969 1721.06 2969 1703.06 2969 1703.06 2969 1675.05 2969 1675.05 2969 1661.05 2969 1661.05 2969 1649.05 2969 1649.05 2734.09 1634.05 2734.09 1634.05 2735.09 814.027 2735.09 814.027 2737.09 799.026 2737.09 799.026 2750.09 780.026 2750.09 780.026 2767.09 722.024 2767.09 722.024 2795.09 706.023 2795.09 706.023 2816.09 685.022 2816.09 685.022 2817.09 672.022 2817.09 672.022 2842.09 656.021 2842.09 656.021 2859.09 556.018 2859.09 556.018 2880.09 534.018 2880.09 534.018 2884.09 495.016 2884.09 495.016 2890.09 458.015 2890.09 458.015 2909.1 431 2909.1 431 2969Z" fill="#46B1E1"/></g><g><path d="M431 2969 431 2909.1 458.015 2909.1 458.015 2890.09 495.016 2890.09 495.016 2884.09 534.018 2884.09 534.018 2880.09 556.018 2880.09 556.018 2859.09 656.021 2859.09 656.021 2842.09 672.022 2842.09 672.022 2817.09 685.022 2817.09 685.022 2816.09 706.023 2816.09 706.023 2795.09 722.024 2795.09 722.024 2767.09 780.026 2767.09 780.026 2750.09 799.026 2750.09 799.026 2737.09 814.027 2737.09 814.027 2735.09 1634.05 2735.09 1634.05 2734.09 1649.05 2734.09 1649.05 2684.09 1661.05 2684.09 1661.05 2680 1675.05 2680 1675.05 2969 1703.06 2969 1703.06 2969 1721.06 2969 1721.06 2969 1726.06 2969 1726.06 2969 1760.06 2969 1760.06 2969 1870.06 2969 1870.06 2969 1907.06 2969 1907.06 2969 1932.06 2969 1932.06 2969 1968.06 2969 1968.06 2969 2109.07 2969 2109.07 2969 2134.07 2969 2134.07 2969 2140.07 2969 2140.07 2969 2182 2969 2182 2969 2140.07 2969 2140.07 2969 2134.07 2969 2134.07 2969 2109.07 2969 2109.07 2969 1968.06 2969 1968.06 2969 1932.06 2969 1932.06 2969 1907.06 2969 1907.06 2969 1870.06 2969 1870.06 2969 1760.06 2969 1760.06 2969 1726.06 2969 1726.06 2969 1721.06 2969 1721.06 2969 1703.06 2969 1703.06 2969 1675.05 2969 1675.05 2969 1661.05 2969 1661.05 2684.09 1649.05 2684.09 1649.05 2734.09 1634.05 2734.09 1634.05 2735.09 814.027 2735.09 814.027 2737.09 799.026 2737.09 799.026 2750.09 780.026 2750.09 780.026 2767.09 722.024 2767.09 722.024 2795.09 706.023 2795.09 706.023 2816.09 685.022 2816.09 685.022 2817.09 672.022 2817.09 672.022 2842.09 656.021 2842.09 656.021 2859.09 556.018 2859.09 556.018 2880.09 534.018 2880.09 534.018 2884.09 495.016 2884.09 495.016 2890.09 458.015 2890.09 458.015 2909.1 431 2909.1 431 2969Z" fill="#B4E5A2"/></g><g><path d="M431 2969 431 2909.1 458.015 2909.1 458.015 2890.09 495.016 2890.09 495.016 2884.09 534.018 2884.09 534.018 2880.09 556.018 2880.09 556.018 2859.09 656.021 2859.09 656.021 2842.09 672.022 2842.09 672.022 2817.09 685.022 2817.09 685.022 2816.09 706.023 2816.09 706.023 2795.09 722.024 2795.09 722.024 2767.09 780.026 2767.09 780.026 2750.09 799.026 2750.09 799.026 2737.09 814.027 2737.09 814.027 2735.09 1634.05 2735.09 1634.05 2734.09 1649.05 2734.09 1649.05 2684.09 1661.05 2684.09 1661.05 2680.09 1675.05 2680.09 1675.05 2631 1703.06 2631 1703.06 2969 1721.06 2969 1721.06 2969 1726.06 2969 1726.06 2969 1760.06 2969 1760.06 2969 1870.06 2969 1870.06 2969 1907.06 2969 1907.06 2969 1932.06 2969 1932.06 2969 1968.06 2969 1968.06 2969 2109.07 2969 2109.07 2969 2134.07 2969 2134.07 2969 2140.07 2969 2140.07 2969 2182 2969 2182 2969 2140.07 2969 2140.07 2969 2134.07 2969 2134.07 2969 2109.07 2969 2109.07 2969 1968.06 2969 1968.06 2969 1932.06 2969 1932.06 2969 1907.06 2969 1907.06 2969 1870.06 2969 1870.06 2969 1760.06 2969 1760.06 2969 1726.06 2969 1726.06 2969 1721.06 2969 1721.06 2969 1703.06 2969 1703.06 2969 1675.05 2969 1675.05 2680.09 1661.05 2680.09 1661.05 2684.09 1649.05 2684.09 1649.05 2734.09 1634.05 2734.09 1634.05 2735.09 814.027 2735.09 814.027 2737.09 799.026 2737.09 799.026 2750.09 780.026 2750.09 780.026 2767.09 722.024 2767.09 722.024 2795.09 706.023 2795.09 706.023 2816.09 685.022 2816.09 685.022 2817.09 672.022 2817.09 672.022 2842.09 656.021 2842.09 656.021 2859.09 556.018 2859.09 556.018 2880.09 534.018 2880.09 534.018 2884.09 495.016 2884.09 495.016 2890.09 458.015 2890.09 458.015 2909.1 431 2909.1 431 2969Z" fill="#46B1E1"/></g><g><path d="M431 2969 431 2909.1 458.015 2909.1 458.015 2890.09 495.016 2890.09 495.016 2884.09 534.018 2884.09 534.018 2880.09 556.018 2880.09 556.018 2859.09 656.021 2859.09 656.021 2842.09 672.022 2842.09 672.022 2817.09 685.022 2817.09 685.022 2816.09 706.023 2816.09 706.023 2795.09 722.024 2795.09 722.024 2767.09 780.026 2767.09 780.026 2750.09 799.026 2750.09 799.026 2737.09 814.027 2737.09 814.027 2735.09 1634.05 2735.09 1634.05 2734.09 1649.05 2734.09 1649.05 2684.09 1661.05 2684.09 1661.05 2680.09 1675.05 2680.09 1675.05 2631.09 1703.06 2631.09 1703.06 2620 1721.06 2620 1721.06 2969 1726.06 2969 1726.06 2969 1760.06 2969 1760.06 2969 1870.06 2969 1870.06 2969 1907.06 2969 1907.06 2969 1932.06 2969 1932.06 2969 1968.06 2969 1968.06 2969 2109.07 2969 2109.07 2969 2134.07 2969 2134.07 2969 2140.07 2969 2140.07 2969 2182 2969 2182 2969 2140.07 2969 2140.07 2969 2134.07 2969 2134.07 2969 2109.07 2969 2109.07 2969 1968.06 2969 1968.06 2969 1932.06 2969 1932.06 2969 1907.06 2969 1907.06 2969 1870.06 2969 1870.06 2969 1760.06 2969 1760.06 2969 1726.06 2969 1726.06 2969 1721.06 2969 1721.06 2969 1703.06 2969 1703.06 2631.09 1675.05 2631.09 1675.05 2680.09 1661.05 2680.09 1661.05 2684.09 1649.05 2684.09 1649.05 2734.09 1634.05 2734.09 1634.05 2735.09 814.027 2735.09 814.027 2737.09 799.026 2737.09 799.026 2750.09 780.026 2750.09 780.026 2767.09 722.024 2767.09 722.024 2795.09 706.023 2795.09 706.023 2816.09 685.022 2816.09 685.022 2817.09 672.022 2817.09 672.022 2842.09 656.021 2842.09 656.021 2859.09 556.018 2859.09 556.018 2880.09 534.018 2880.09 534.018 2884.09 495.016 2884.09 495.016 2890.09 458.015 2890.09 458.015 2909.1 431 2909.1 431 2969Z" fill="#B4E5A2"/></g><g><path d="M431 2969 431 2909.1 458.015 2909.1 458.015 2890.09 495.016 2890.09 495.016 2884.09 534.018 2884.09 534.018 2880.09 556.018 2880.09 556.018 2859.09 656.021 2859.09 656.021 2842.09 672.022 2842.09 672.022 2817.09 685.022 2817.09 685.022 2816.09 706.023 2816.09 706.023 2795.09 722.024 2795.09 722.024 2767.09 780.026 2767.09 780.026 2750.09 799.026 2750.09 799.026 2737.09 814.027 2737.09 814.027 2735.09 1634.05 2735.09 1634.05 2734.09 1649.05 2734.09 1649.05 2684.09 1661.05 2684.09 1661.05 2680.09 1675.05 2680.09 1675.05 2631.09 1703.06 2631.09 1703.06 2620.09 1721.06 2620.09 1721.06 2556 1726.06 2556 1726.06 2969 1760.06 2969 1760.06 2969 1870.06 2969 1870.06 2969 1907.06 2969 1907.06 2969 1932.06 2969 1932.06 2969 1968.06 2969 1968.06 2969 2109.07 2969 2109.07 2969 2134.07 2969 2134.07 2969 2140.07 2969 2140.07 2969 2182 2969 2182 2969 2140.07 2969 2140.07 2969 2134.07 2969 2134.07 2969 2109.07 2969 2109.07 2969 1968.06 2969 1968.06 2969 1932.06 2969 1932.06 2969 1907.06 2969 1907.06 2969 1870.06 2969 1870.06 2969 1760.06 2969 1760.06 2969 1726.06 2969 1726.06 2969 1721.06 2969 1721.06 2620.09 1703.06 2620.09 1703.06 2631.09 1675.05 2631.09 1675.05 2680.09 1661.05 2680.09 1661.05 2684.09 1649.05 2684.09 1649.05 2734.09 1634.05 2734.09 1634.05 2735.09 814.027 2735.09 814.027 2737.09 799.026 2737.09 799.026 2750.09 780.026 2750.09 780.026 2767.09 722.024 2767.09 722.024 2795.09 706.023 2795.09 706.023 2816.09 685.022 2816.09 685.022 2817.09 672.022 2817.09 672.022 2842.09 656.021 2842.09 656.021 2859.09 556.018 2859.09 556.018 2880.09 534.018 2880.09 534.018 2884.09 495.016 2884.09 495.016 2890.09 458.015 2890.09 458.015 2909.1 431 2909.1 431 2969Z" fill="#46B1E1"/></g><g><path d="M431 2969 431 2909.1 458.015 2909.1 458.015 2890.09 495.016 2890.09 495.016 2884.09 534.018 2884.09 534.018 2880.09 556.018 2880.09 556.018 2859.09 656.021 2859.09 656.021 2842.09 672.022 2842.09 672.022 2817.09 685.022 2817.09 685.022 2816.09 706.023 2816.09 706.023 2795.09 722.024 2795.09 722.024 2767.09 780.026 2767.09 780.026 2750.09 799.026 2750.09 799.026 2737.09 814.027 2737.09 814.027 2735.09 1634.05 2735.09 1634.05 2734.09 1649.05 2734.09 1649.05 2684.09 1661.05 2684.09 1661.05 2680.09 1675.05 2680.09 1675.05 2631.09 1703.06 2631.09 1703.06 2620.09 1721.06 2620.09 1721.06 2556.08 1726.06 2556.08 1726.06 2529 1760.06 2529 1760.06 2969 1870.06 2969 1870.06 2969 1907.06 2969 1907.06 2969 1932.06 2969 1932.06 2969 1968.06 2969 1968.06 2969 2109.07 2969 2109.07 2969 2134.07 2969 2134.07 2969 2140.07 2969 2140.07 2969 2182 2969 2182 2969 2140.07 2969 2140.07 2969 2134.07 2969 2134.07 2969 2109.07 2969 2109.07 2969 1968.06 2969 1968.06 2969 1932.06 2969 1932.06 2969 1907.06 2969 1907.06 2969 1870.06 2969 1870.06 2969 1760.06 2969 1760.06 2969 1726.06 2969 1726.06 2556.08 1721.06 2556.08 1721.06 2620.09 1703.06 2620.09 1703.06 2631.09 1675.05 2631.09 1675.05 2680.09 1661.05 2680.09 1661.05 2684.09 1649.05 2684.09 1649.05 2734.09 1634.05 2734.09 1634.05 2735.09 814.027 2735.09 814.027 2737.09 799.026 2737.09 799.026 2750.09 780.026 2750.09 780.026 2767.09 722.024 2767.09 722.024 2795.09 706.023 2795.09 706.023 2816.09 685.022 2816.09 685.022 2817.09 672.022 2817.09 672.022 2842.09 656.021 2842.09 656.021 2859.09 556.018 2859.09 556.018 2880.09 534.018 2880.09 534.018 2884.09 495.016 2884.09 495.016 2890.09 458.015 2890.09 458.015 2909.1 431 2909.1 431 2969Z" fill="#B4E5A2"/></g><g><path d="M431 2969 431 2909.1 458.015 2909.1 458.015 2890.09 495.016 2890.09 495.016 2884.09 534.018 2884.09 534.018 2880.09 556.018 2880.09 556.018 2859.09 656.021 2859.09 656.021 2842.09 672.022 2842.09 672.022 2817.09 685.022 2817.09 685.022 2816.09 706.023 2816.09 706.023 2795.09 722.024 2795.09 722.024 2767.09 780.026 2767.09 780.026 2750.09 799.026 2750.09 799.026 2737.09 814.027 2737.09 814.027 2735.09 1634.05 2735.09 1634.05 2734.09 1649.05 2734.09 1649.05 2684.09 1661.05 2684.09 1661.05 2680.09 1675.05 2680.09 1675.05 2631.09 1703.06 2631.09 1703.06 2620.09 1721.06 2620.09 1721.06 2556.08 1726.06 2556.08 1726.06 2529.08 1760.06 2529.08 1760.06 2506 1870.06 2506 1870.06 2969 1907.06 2969 1907.06 2969 1932.06 2969 1932.06 2969 1968.06 2969 1968.06 2969 2109.07 2969 2109.07 2969 2134.07 2969 2134.07 2969 2140.07 2969 2140.07 2969 2182 2969 2182 2969 2140.07 2969 2140.07 2969 2134.07 2969 2134.07 2969 2109.07 2969 2109.07 2969 1968.06 2969 1968.06 2969 1932.06 2969 1932.06 2969 1907.06 2969 1907.06 2969 1870.06 2969 1870.06 2969 1760.06 2969 1760.06 2529.08 1726.06 2529.08 1726.06 2556.08 1721.06 2556.08 1721.06 2620.09 1703.06 2620.09 1703.06 2631.09 1675.05 2631.09 1675.05 2680.09 1661.05 2680.09 1661.05 2684.09 1649.05 2684.09 1649.05 2734.09 1634.05 2734.09 1634.05 2735.09 814.027 2735.09 814.027 2737.09 799.026 2737.09 799.026 2750.09 780.026 2750.09 780.026 2767.09 722.024 2767.09 722.024 2795.09 706.023 2795.09 706.023 2816.09 685.022 2816.09 685.022 2817.09 672.022 2817.09 672.022 2842.09 656.021 2842.09 656.021 2859.09 556.018 2859.09 556.018 2880.09 534.018 2880.09 534.018 2884.09 495.016 2884.09 495.016 2890.09 458.015 2890.09 458.015 2909.1 431 2909.1 431 2969Z" fill="#46B1E1"/></g><g><path d="M431 2969 431 2909.1 458.015 2909.1 458.015 2890.09 495.016 2890.09 495.016 2884.09 534.018 2884.09 534.018 2880.09 556.018 2880.09 556.018 2859.09 656.021 2859.09 656.021 2842.09 672.022 2842.09 672.022 2817.09 685.022 2817.09 685.022 2816.09 706.023 2816.09 706.023 2795.09 722.024 2795.09 722.024 2767.09 780.026 2767.09 780.026 2750.09 799.026 2750.09 799.026 2737.09 814.027 2737.09 814.027 2735.09 1634.05 2735.09 1634.05 2734.09 1649.05 2734.09 1649.05 2684.09 1661.05 2684.09 1661.05 2680.09 1675.05 2680.09 1675.05 2631.09 1703.06 2631.09 1703.06 2620.09 1721.06 2620.09 1721.06 2556.08 1726.06 2556.08 1726.06 2529.08 1760.06 2529.08 1760.06 2506.08 1870.06 2506.08 1870.06 2471 1907.06 2471 1907.06 2969 1932.06 2969 1932.06 2969 1968.06 2969 1968.06 2969 2109.07 2969 2109.07 2969 2134.07 2969 2134.07 2969 2140.07 2969 2140.07 2969 2182 2969 2182 2969 2140.07 2969 2140.07 2969 2134.07 2969 2134.07 2969 2109.07 2969 2109.07 2969 1968.06 2969 1968.06 2969 1932.06 2969 1932.06 2969 1907.06 2969 1907.06 2969 1870.06 2969 1870.06 2506.08 1760.06 2506.08 1760.06 2529.08 1726.06 2529.08 1726.06 2556.08 1721.06 2556.08 1721.06 2620.09 1703.06 2620.09 1703.06 2631.09 1675.05 2631.09 1675.05 2680.09 1661.05 2680.09 1661.05 2684.09 1649.05 2684.09 1649.05 2734.09 1634.05 2734.09 1634.05 2735.09 814.027 2735.09 814.027 2737.09 799.026 2737.09 799.026 2750.09 780.026 2750.09 780.026 2767.09 722.024 2767.09 722.024 2795.09 706.023 2795.09 706.023 2816.09 685.022 2816.09 685.022 2817.09 672.022 2817.09 672.022 2842.09 656.021 2842.09 656.021 2859.09 556.018 2859.09 556.018 2880.09 534.018 2880.09 534.018 2884.09 495.016 2884.09 495.016 2890.09 458.015 2890.09 458.015 2909.1 431 2909.1 431 2969Z" fill="#B4E5A2"/></g><g><path d="M431 2969 431 2909.1 458.015 2909.1 458.015 2890.09 495.016 2890.09 495.016 2884.09 534.018 2884.09 534.018 2880.09 556.018 2880.09 556.018 2859.09 656.021 2859.09 656.021 2842.09 672.022 2842.09 672.022 2817.09 685.022 2817.09 685.022 2816.09 706.023 2816.09 706.023 2795.09 722.024 2795.09 722.024 2767.09 780.026 2767.09 780.026 2750.09 799.026 2750.09 799.026 2737.09 814.027 2737.09 814.027 2735.09 1634.05 2735.09 1634.05 2734.09 1649.05 2734.09 1649.05 2684.09 1661.05 2684.09 1661.05 2680.09 1675.05 2680.09 1675.05 2631.09 1703.06 2631.09 1703.06 2620.09 1721.06 2620.09 1721.06 2556.08 1726.06 2556.08 1726.06 2529.08 1760.06 2529.08 1760.06 2506.08 1870.06 2506.08 1870.06 2471.08 1907.06 2471.08 1907.06 2428 1932.06 2428 1932.06 2969 1968.06 2969 1968.06 2969 2109.07 2969 2109.07 2969 2134.07 2969 2134.07 2969 2140.07 2969 2140.07 2969 2182 2969 2182 2969 2140.07 2969 2140.07 2969 2134.07 2969 2134.07 2969 2109.07 2969 2109.07 2969 1968.06 2969 1968.06 2969 1932.06 2969 1932.06 2969 1907.06 2969 1907.06 2471.08 1870.06 2471.08 1870.06 2506.08 1760.06 2506.08 1760.06 2529.08 1726.06 2529.08 1726.06 2556.08 1721.06 2556.08 1721.06 2620.09 1703.06 2620.09 1703.06 2631.09 1675.05 2631.09 1675.05 2680.09 1661.05 2680.09 1661.05 2684.09 1649.05 2684.09 1649.05 2734.09 1634.05 2734.09 1634.05 2735.09 814.027 2735.09 814.027 2737.09 799.026 2737.09 799.026 2750.09 780.026 2750.09 780.026 2767.09 722.024 2767.09 722.024 2795.09 706.023 2795.09 706.023 2816.09 685.022 2816.09 685.022 2817.09 672.022 2817.09 672.022 2842.09 656.021 2842.09 656.021 2859.09 556.018 2859.09 556.018 2880.09 534.018 2880.09 534.018 2884.09 495.016 2884.09 495.016 2890.09 458.015 2890.09 458.015 2909.1 431 2909.1 431 2969Z" fill="#46B1E1"/></g><g><path d="M431 2969 431 2909.1 458.015 2909.1 458.015 2890.09 495.016 2890.09 495.016 2884.09 534.018 2884.09 534.018 2880.09 556.018 2880.09 556.018 2859.09 656.021 2859.09 656.021 2842.09 672.022 2842.09 672.022 2817.09 685.022 2817.09 685.022 2816.09 706.023 2816.09 706.023 2795.09 722.024 2795.09 722.024 2767.09 780.026 2767.09 780.026 2750.09 799.026 2750.09 799.026 2737.09 814.027 2737.09 814.027 2735.09 1634.05 2735.09 1634.05 2734.09 1649.05 2734.09 1649.05 2684.09 1661.05 2684.09 1661.05 2680.09 1675.05 2680.09 1675.05 2631.09 1703.06 2631.09 1703.06 2620.09 1721.06 2620.09 1721.06 2556.08 1726.06 2556.08 1726.06 2529.08 1760.06 2529.08 1760.06 2506.08 1870.06 2506.08 1870.06 2471.08 1907.06 2471.08 1907.06 2428.08 1932.06 2428.08 1932.06 2314 1968.06 2314 1968.06 2969 2109.07 2969 2109.07 2969 2134.07 2969 2134.07 2969 2140.07 2969 2140.07 2969 2182 2969 2182 2969 2140.07 2969 2140.07 2969 2134.07 2969 2134.07 2969 2109.07 2969 2109.07 2969 1968.06 2969 1968.06 2969 1932.06 2969 1932.06 2428.08 1907.06 2428.08 1907.06 2471.08 1870.06 2471.08 1870.06 2506.08 1760.06 2506.08 1760.06 2529.08 1726.06 2529.08 1726.06 2556.08 1721.06 2556.08 1721.06 2620.09 1703.06 2620.09 1703.06 2631.09 1675.05 2631.09 1675.05 2680.09 1661.05 2680.09 1661.05 2684.09 1649.05 2684.09 1649.05 2734.09 1634.05 2734.09 1634.05 2735.09 814.027 2735.09 814.027 2737.09 799.026 2737.09 799.026 2750.09 780.026 2750.09 780.026 2767.09 722.024 2767.09 722.024 2795.09 706.023 2795.09 706.023 2816.09 685.022 2816.09 685.022 2817.09 672.022 2817.09 672.022 2842.09 656.021 2842.09 656.021 2859.09 556.018 2859.09 556.018 2880.09 534.018 2880.09 534.018 2884.09 495.016 2884.09 495.016 2890.09 458.015 2890.09 458.015 2909.1 431 2909.1 431 2969Z" fill="#B4E5A2"/></g><g><path d="M431 2969 431 2909.1 458.015 2909.1 458.015 2890.09 495.016 2890.09 495.016 2884.09 534.018 2884.09 534.018 2880.09 556.018 2880.09 556.018 2859.09 656.021 2859.09 656.021 2842.09 672.022 2842.09 672.022 2817.09 685.022 2817.09 685.022 2816.09 706.023 2816.09 706.023 2795.09 722.024 2795.09 722.024 2767.09 780.026 2767.09 780.026 2750.09 799.026 2750.09 799.026 2737.09 814.027 2737.09 814.027 2735.09 1634.05 2735.09 1634.05 2734.09 1649.05 2734.09 1649.05 2684.09 1661.05 2684.09 1661.05 2680.09 1675.05 2680.09 1675.05 2631.09 1703.06 2631.09 1703.06 2620.09 1721.06 2620.09 1721.06 2556.08 1726.06 2556.08 1726.06 2529.08 1760.06 2529.08 1760.06 2506.08 1870.06 2506.08 1870.06 2471.08 1907.06 2471.08 1907.06 2428.08 1932.06 2428.08 1932.06 2314.08 1968.06 2314.08 1968.06 2219 2109.07 2219 2109.07 2969 2134.07 2969 2134.07 2969 2140.07 2969 2140.07 2969 2182 2969 2182 2969 2140.07 2969 2140.07 2969 2134.07 2969 2134.07 2969 2109.07 2969 2109.07 2969 1968.06 2969 1968.06 2314.08 1932.06 2314.08 1932.06 2428.08 1907.06 2428.08 1907.06 2471.08 1870.06 2471.08 1870.06 2506.08 1760.06 2506.08 1760.06 2529.08 1726.06 2529.08 1726.06 2556.08 1721.06 2556.08 1721.06 2620.09 1703.06 2620.09 1703.06 2631.09 1675.05 2631.09 1675.05 2680.09 1661.05 2680.09 1661.05 2684.09 1649.05 2684.09 1649.05 2734.09 1634.05 2734.09 1634.05 2735.09 814.027 2735.09 814.027 2737.09 799.026 2737.09 799.026 2750.09 780.026 2750.09 780.026 2767.09 722.024 2767.09 722.024 2795.09 706.023 2795.09 706.023 2816.09 685.022 2816.09 685.022 2817.09 672.022 2817.09 672.022 2842.09 656.021 2842.09 656.021 2859.09 556.018 2859.09 556.018 2880.09 534.018 2880.09 534.018 2884.09 495.016 2884.09 495.016 2890.09 458.015 2890.09 458.015 2909.1 431 2909.1 431 2969Z" fill="#46B1E1"/></g><g><path d="M431 2969 431 2909.1 458.015 2909.1 458.015 2890.09 495.016 2890.09 495.016 2884.09 534.018 2884.09 534.018 2880.09 556.018 2880.09 556.018 2859.09 656.021 2859.09 656.021 2842.09 672.022 2842.09 672.022 2817.09 685.022 2817.09 685.022 2816.09 706.023 2816.09 706.023 2795.09 722.024 2795.09 722.024 2767.09 780.026 2767.09 780.026 2750.09 799.026 2750.09 799.026 2737.09 814.027 2737.09 814.027 2735.09 1634.05 2735.09 1634.05 2734.09 1649.05 2734.09 1649.05 2684.09 1661.05 2684.09 1661.05 2680.09 1675.05 2680.09 1675.05 2631.09 1703.06 2631.09 1703.06 2620.09 1721.06 2620.09 1721.06 2556.08 1726.06 2556.08 1726.06 2529.08 1760.06 2529.08 1760.06 2506.08 1870.06 2506.08 1870.06 2471.08 1907.06 2471.08 1907.06 2428.08 1932.06 2428.08 1932.06 2314.08 1968.06 2314.08 1968.06 2219.07 2109.07 2219.07 2109.07 2198 2134.07 2198 2134.07 2969 2140.07 2969 2140.07 2969 2182 2969 2182 2969 2140.07 2969 2140.07 2969 2134.07 2969 2134.07 2969 2109.07 2969 2109.07 2219.07 1968.06 2219.07 1968.06 2314.08 1932.06 2314.08 1932.06 2428.08 1907.06 2428.08 1907.06 2471.08 1870.06 2471.08 1870.06 2506.08 1760.06 2506.08 1760.06 2529.08 1726.06 2529.08 1726.06 2556.08 1721.06 2556.08 1721.06 2620.09 1703.06 2620.09 1703.06 2631.09 1675.05 2631.09 1675.05 2680.09 1661.05 2680.09 1661.05 2684.09 1649.05 2684.09 1649.05 2734.09 1634.05 2734.09 1634.05 2735.09 814.027 2735.09 814.027 2737.09 799.026 2737.09 799.026 2750.09 780.026 2750.09 780.026 2767.09 722.024 2767.09 722.024 2795.09 706.023 2795.09 706.023 2816.09 685.022 2816.09 685.022 2817.09 672.022 2817.09 672.022 2842.09 656.021 2842.09 656.021 2859.09 556.018 2859.09 556.018 2880.09 534.018 2880.09 534.018 2884.09 495.016 2884.09 495.016 2890.09 458.015 2890.09 458.015 2909.1 431 2909.1 431 2969Z" fill="#B4E5A2"/></g><g><path d="M431 2969 431 2909.1 458.015 2909.1 458.015 2890.09 495.016 2890.09 495.016 2884.09 534.018 2884.09 534.018 2880.09 556.018 2880.09 556.018 2859.09 656.021 2859.09 656.021 2842.09 672.022 2842.09 672.022 2817.09 685.022 2817.09 685.022 2816.09 706.023 2816.09 706.023 2795.09 722.024 2795.09 722.024 2767.09 780.026 2767.09 780.026 2750.09 799.026 2750.09 799.026 2737.09 814.027 2737.09 814.027 2735.09 1634.05 2735.09 1634.05 2734.09 1649.05 2734.09 1649.05 2684.09 1661.05 2684.09 1661.05 2680.09 1675.05 2680.09 1675.05 2631.09 1703.06 2631.09 1703.06 2620.09 1721.06 2620.09 1721.06 2556.08 1726.06 2556.08 1726.06 2529.08 1760.06 2529.08 1760.06 2506.08 1870.06 2506.08 1870.06 2471.08 1907.06 2471.08 1907.06 2428.08 1932.06 2428.08 1932.06 2314.08 1968.06 2314.08 1968.06 2219.07 2109.07 2219.07 2109.07 2198.07 2134.07 2198.07 2134.07 1698 2140.07 1698 2140.07 2969 2182 2969 2182 2969 2140.07 2969 2140.07 2969 2134.07 2969 2134.07 2198.07 2109.07 2198.07 2109.07 2219.07 1968.06 2219.07 1968.06 2314.08 1932.06 2314.08 1932.06 2428.08 1907.06 2428.08 1907.06 2471.08 1870.06 2471.08 1870.06 2506.08 1760.06 2506.08 1760.06 2529.08 1726.06 2529.08 1726.06 2556.08 1721.06 2556.08 1721.06 2620.09 1703.06 2620.09 1703.06 2631.09 1675.05 2631.09 1675.05 2680.09 1661.05 2680.09 1661.05 2684.09 1649.05 2684.09 1649.05 2734.09 1634.05 2734.09 1634.05 2735.09 814.027 2735.09 814.027 2737.09 799.026 2737.09 799.026 2750.09 780.026 2750.09 780.026 2767.09 722.024 2767.09 722.024 2795.09 706.023 2795.09 706.023 2816.09 685.022 2816.09 685.022 2817.09 672.022 2817.09 672.022 2842.09 656.021 2842.09 656.021 2859.09 556.018 2859.09 556.018 2880.09 534.018 2880.09 534.018 2884.09 495.016 2884.09 495.016 2890.09 458.015 2890.09 458.015 2909.1 431 2909.1 431 2969Z" fill="#46B1E1"/></g><g><path d="M431 2969 431 2909.1 458.015 2909.1 458.015 2890.09 495.016 2890.09 495.016 2884.09 534.018 2884.09 534.018 2880.09 556.018 2880.09 556.018 2859.09 656.021 2859.09 656.021 2842.09 672.022 2842.09 672.022 2817.09 685.022 2817.09 685.022 2816.09 706.023 2816.09 706.023 2795.09 722.024 2795.09 722.024 2767.09 780.026 2767.09 780.026 2750.09 799.026 2750.09 799.026 2737.09 814.027 2737.09 814.027 2735.09 1634.05 2735.09 1634.05 2734.09 1649.05 2734.09 1649.05 2684.09 1661.05 2684.09 1661.05 2680.09 1675.05 2680.09 1675.05 2631.09 1703.06 2631.09 1703.06 2620.09 1721.06 2620.09 1721.06 2556.08 1726.06 2556.08 1726.06 2529.08 1760.06 2529.08 1760.06 2506.08 1870.06 2506.08 1870.06 2471.08 1907.06 2471.08 1907.06 2428.08 1932.06 2428.08 1932.06 2314.08 1968.06 2314.08 1968.06 2219.07 2109.07 2219.07 2109.07 2198.07 2134.07 2198.07 2134.07 1698.06 2140.07 1698.06 2140.07 1645 2182 1645 2182 2969 2140.07 2969 2140.07 1698.06 2134.07 1698.06 2134.07 2198.07 2109.07 2198.07 2109.07 2219.07 1968.06 2219.07 1968.06 2314.08 1932.06 2314.08 1932.06 2428.08 1907.06 2428.08 1907.06 2471.08 1870.06 2471.08 1870.06 2506.08 1760.06 2506.08 1760.06 2529.08 1726.06 2529.08 1726.06 2556.08 1721.06 2556.08 1721.06 2620.09 1703.06 2620.09 1703.06 2631.09 1675.05 2631.09 1675.05 2680.09 1661.05 2680.09 1661.05 2684.09 1649.05 2684.09 1649.05 2734.09 1634.05 2734.09 1634.05 2735.09 814.027 2735.09 814.027 2737.09 799.026 2737.09 799.026 2750.09 780.026 2750.09 780.026 2767.09 722.024 2767.09 722.024 2795.09 706.023 2795.09 706.023 2816.09 685.022 2816.09 685.022 2817.09 672.022 2817.09 672.022 2842.09 656.021 2842.09 656.021 2859.09 556.018 2859.09 556.018 2880.09 534.018 2880.09 534.018 2884.09 495.016 2884.09 495.016 2890.09 458.015 2890.09 458.015 2909.1 431 2909.1 431 2969Z" fill="#B4E5A2"/></g><g><text font-family="Arial,Arial_MSFontService,sans-serif" font-weight="400" font-size="50" transform="matrix(1 0 0 1 272.38 2985)">0.0%</text></g><g><text font-family="Arial,Arial_MSFontService,sans-serif" font-weight="400" font-size="50" transform="matrix(1 0 0 1 272.38 2837)">0.1%</text></g><g><text font-family="Arial,Arial_MSFontService,sans-serif" font-weight="400" font-size="50" transform="matrix(1 0 0 1 272.38 2688)">0.2%</text></g><g><text font-family="Arial,Arial_MSFontService,sans-serif" font-weight="400" font-size="50" transform="matrix(1 0 0 1 272.38 2539)">0.3%</text></g><g><text font-family="Arial,Arial_MSFontService,sans-serif" font-weight="400" font-size="50" transform="matrix(1 0 0 1 272.38 2390)">0.4%</text></g><g><text font-family="Arial,Arial_MSFontService,sans-serif" font-weight="400" font-size="50" transform="matrix(1 0 0 1 272.38 2242)">0.5%</text></g><g><text font-family="Arial,Arial_MSFontService,sans-serif" font-weight="400" font-size="50" transform="matrix(1 0 0 1 272.38 2093)">0.6%</text></g><g><text font-family="Arial,Arial_MSFontService,sans-serif" font-weight="400" font-size="50" transform="matrix(1 0 0 1 272.38 1944)">0.7%</text></g><g><text font-family="Arial,Arial_MSFontService,sans-serif" font-weight="400" font-size="50" transform="matrix(1 0 0 1 272.38 1796)">0.8%</text></g><g><text font-family="Arial,Arial_MSFontService,sans-serif" font-weight="400" font-size="50" transform="matrix(1 0 0 1 272.38 1647)">0.9%</text></g><rect x="526" y="1867" width="159" height="56" fill="#FFFFFF"/><text font-family="Arial,Arial_MSFontService,sans-serif" font-weight="400" font-size="46" transform="matrix(1 0 0 1 525.569 1912)">Oxford</text><text font-family="Arial,Arial_MSFontService,sans-serif" font-weight="400" font-size="31" transform="matrix(1 0 0 1 662.496 1922)">S</text><path d="M0 0 9.67841 0 9.67841 980.976" stroke="#000000" stroke-width="2.29167" stroke-miterlimit="8" fill="none" fill-rule="evenodd" transform="matrix(-1 1.22465e-16 1.22465e-16 1 525.678 1895)"/><rect x="818" y="2593" width="350" height="56" fill="#FFFFFF"/><text font-family="Arial,Arial_MSFontService,sans-serif" font-weight="400" font-size="46" transform="matrix(1 0 0 1 817.705 2638)">Middlesborough</text><text font-family="Arial,Arial_MSFontService,sans-serif" font-weight="400" font-size="31" transform="matrix(1 0 0 1 1141.98 2648)">N</text><path d="M0 0 10.8621 0 10.8621 107.979" stroke="#000000" stroke-width="2.29167" stroke-miterlimit="8" fill="none" fill-rule="evenodd" transform="matrix(-1 1.22465e-16 1.22465e-16 1 817.862 2621)"/><rect x="459" y="1706" width="256" height="55" fill="#FFFFFF"/><text font-family="Arial,Arial_MSFontService,sans-serif" font-weight="400" font-size="46" transform="matrix(1 0 0 1 458.707 1751)">Portsmouth</text><text font-family="Arial,Arial_MSFontService,sans-serif" font-weight="400" font-size="31" transform="matrix(1 0 0 1 691.884 1761)">S</text><path d="M0 0 11.7622 0 11.7622 1163.55" stroke="#000000" stroke-width="2.29167" stroke-miterlimit="8" fill="none" fill-rule="evenodd" transform="matrix(-1 1.22465e-16 1.22465e-16 1 458.762 1733)"/><rect x="554" y="1948" width="148" height="56" fill="#FFFFFF"/><text font-family="Arial,Arial_MSFontService,sans-serif" font-weight="400" font-size="46" transform="matrix(1 0 0 1 553.731 1993)">Derby</text><text font-family="Arial,Arial_MSFontService,sans-serif" font-weight="400" font-size="31" transform="matrix(1 0 0 1 675.762 2003)">M</text><path d="M0 0 7.9519 0 7.9519 896.468" stroke="#000000" stroke-width="2.29167" stroke-miterlimit="8" fill="none" fill-rule="evenodd" transform="matrix(-1 1.22465e-16 1.22465e-16 1 553.952 1976)"/><rect x="800" y="2512" width="188" height="56" fill="#FFFFFF"/><text font-family="Arial,Arial_MSFontService,sans-serif" font-weight="400" font-size="46" transform="matrix(1 0 0 1 800.398 2558)">Norwich</text><text font-family="Arial,Arial_MSFontService,sans-serif" font-weight="400" font-size="31" transform="matrix(1 0 0 1 965.971 2568)">S</text><path d="M0 0 9.9581 0 9.9581 200.955" stroke="#000000" stroke-width="2.29167" stroke-miterlimit="8" fill="none" fill-rule="evenodd" transform="matrix(-1 1.22465e-16 1.22465e-16 1 799.958 2540)"/><path d="M0 0 12.668 0 12.668 1068.56" stroke="#000000" stroke-width="2.29167" stroke-miterlimit="8" fill="none" fill-rule="evenodd" transform="matrix(-1 1.22465e-16 1.22465e-16 1 490.668 1814)"/><rect x="490" y="1786" width="150" height="56" fill="#FFFFFF"/><text font-family="Arial,Arial_MSFontService,sans-serif" font-weight="400" font-size="46" transform="matrix(1 0 0 1 490.395 1832)">Bristol</text><text font-family="Arial,Arial_MSFontService,sans-serif" font-weight="400" font-size="31" transform="matrix(1 0 0 1 617.582 1842)">S</text><rect x="618" y="2029" width="148" height="54.9999" fill="#FFFFFF"/><text font-family="Arial,Arial_MSFontService,sans-serif" font-weight="400" font-size="46" transform="matrix(1 0 0 1 618.001 2074)">Leeds</text><text font-family="Arial,Arial_MSFontService,sans-serif" font-weight="400" font-size="31" transform="matrix(1 0 0 1 741.751 2084)">N</text><path d="M0 0 9.67733 0 9.67733 794.18" stroke="#000000" stroke-width="2.29167" stroke-miterlimit="8" fill="none" fill-rule="evenodd" transform="matrix(-1 1.22465e-16 1.22465e-16 1 617.677 2057)"/><rect x="676" y="2109" width="181" height="56" fill="#FFFFFF"/><text font-family="Arial,Arial_MSFontService,sans-serif" font-weight="400" font-size="46" transform="matrix(1 0 0 1 676.172 2154)">Preston</text><text font-family="Arial,Arial_MSFontService,sans-serif" font-weight="400" font-size="31" transform="matrix(1 0 0 1 833.151 2164)">N</text><path d="M0 0 11.2613 0 11.2613 697.593" stroke="#000000" stroke-width="2.29167" stroke-miterlimit="8" fill="none" fill-rule="evenodd" transform="matrix(-1 1.22465e-16 1.22465e-16 1 676.261 2137)"/><rect x="688" y="2190" width="218" height="55" fill="#FFFFFF"/><text font-family="Arial,Arial_MSFontService,sans-serif" font-weight="400" font-size="46" transform="matrix(1 0 0 1 688.386 2235)">Swansea</text><text font-family="Arial,Arial_MSFontService,sans-serif" font-weight="400" font-size="31" transform="matrix(1 0 0 1 875.73 2245)">W</text><path d="M0 0 9.10459 0 9.10459 591.229" stroke="#000000" stroke-width="2.29167" stroke-miterlimit="8" fill="none" fill-rule="evenodd" transform="matrix(-1 1.22465e-16 1.22465e-16 1 688.104 2218)"/><rect x="708" y="2271" width="210" height="55" fill="#FFFFFF"/><text font-family="Arial,Arial_MSFontService,sans-serif" font-weight="400" font-size="46" transform="matrix(1 0 0 1 707.903 2316)">Coventry</text><text font-family="Arial,Arial_MSFontService,sans-serif" font-weight="400" font-size="31" transform="matrix(1 0 0 1 890.663 2326)">M</text><path d="M0 0 11.5626 0 11.5626 510.456" stroke="#000000" stroke-width="2.29167" stroke-miterlimit="8" fill="none" fill-rule="evenodd" transform="matrix(-1 1.22465e-16 1.22465e-16 1 707.563 2298)"/><rect x="727" y="2351" width="143" height="56" fill="#FFFFFF"/><text font-family="Arial,Arial_MSFontService,sans-serif" font-weight="400" font-size="46" transform="matrix(1 0 0 1 726.907 2397)">Stoke</text><text font-family="Arial,Arial_MSFontService,sans-serif" font-weight="400" font-size="31" transform="matrix(1 0 0 1 843.209 2407)">M</text><path d="M0 0 9.67877 0 9.67877 409.847" stroke="#000000" stroke-width="2.29167" stroke-miterlimit="8" fill="none" fill-rule="evenodd" transform="matrix(-1 1.22465e-16 1.22465e-16 1 725.679 2379)"/><rect x="761" y="2433" width="294" height="55" fill="#FFFFFF"/><text font-family="Arial,Arial_MSFontService,sans-serif" font-weight="400" font-size="46" transform="matrix(1 0 0 1 761.427 2478)">Southampton</text><text font-family="Arial,Arial_MSFontService,sans-serif" font-weight="400" font-size="31" transform="matrix(1 0 0 1 1031.84 2488)">S</text><path d="M0 0 9.67733 0 9.67733 296.871" stroke="#000000" stroke-width="2.29167" stroke-miterlimit="8" fill="none" fill-rule="evenodd" transform="matrix(-1 1.22465e-16 1.22465e-16 1 761.677 2461)"/><rect x="1471" y="2415" width="201" height="56" fill="#FFFFFF"/><text font-family="Arial,Arial_MSFontService,sans-serif" font-weight="400" font-size="46" transform="matrix(1 0 0 1 1472.51 2461)">Sheffield</text><text font-family="Arial,Arial_MSFontService,sans-serif" font-weight="400" font-size="31" transform="matrix(1 0 0 1 1649.54 2471)">N</text><path d="M1672 2443 1688.48 2443 1688.48 2624.74" stroke="#000000" stroke-width="2.29167" stroke-miterlimit="8" fill="none" fill-rule="evenodd"/><rect x="1411" y="2572" width="227" height="55" fill="#FFFFFF"/><text font-family="Arial,Arial_MSFontService,sans-serif" font-weight="400" font-size="46" transform="matrix(1 0 0 1 1412.53 2617)">Blackburn</text><text font-family="Arial,Arial_MSFontService,sans-serif" font-weight="400" font-size="31" transform="matrix(1 0 0 1 1615.34 2627)">N</text><path d="M1638 2600 1653.94 2600 1653.94 2675.89" stroke="#000000" stroke-width="2.29167" stroke-miterlimit="8" fill="none" fill-rule="evenodd"/><rect x="1549" y="2494" width="103" height="55" fill="#FFFFFF"/><text font-family="Arial,Arial_MSFontService,sans-serif" font-weight="400" font-size="46" transform="matrix(1 0 0 1 1549.77 2539)">Hull</text><text font-family="Arial,Arial_MSFontService,sans-serif" font-weight="400" font-size="31" transform="matrix(1 0 0 1 1628.83 2549)">N</text><path d="M1653 2521 1666.7 2521 1666.7 2663.77" stroke="#000000" stroke-width="2.29167" stroke-miterlimit="8" fill="none" fill-rule="evenodd"/><rect x="1939" y="1550" width="213" height="56" fill="#FFFFFF"/><text font-family="Arial,Arial_MSFontService,sans-serif" font-weight="400" font-size="46" transform="matrix(1 0 0 1 1943.86 1595)">Liverpool</text><text font-family="Arial,Arial_MSFontService,sans-serif" font-weight="400" font-size="31" transform="matrix(1 0 0 1 2128.91 1605)">N</text><path d="M2152 1578 2161.69 1578 2161.69 1640.7" stroke="#000000" stroke-width="2.29167" stroke-miterlimit="8" fill="none" fill-rule="evenodd"/><rect x="1948" y="1629" width="179" height="55" fill="#FFFFFF"/><text font-family="Arial,Arial_MSFontService,sans-serif" font-weight="400" font-size="46" transform="matrix(1 0 0 1 1949.94 1674)">Burnley</text><text font-family="Arial,Arial_MSFontService,sans-serif" font-weight="400" font-size="31" transform="matrix(1 0 0 1 2104.63 1684)">N</text><path d="M2127 1657 2136.69 1657 2136.69 1693.28" stroke="#000000" stroke-width="2.29167" stroke-miterlimit="8" fill="none" fill-rule="evenodd"/><rect x="1851" y="1707" width="261" height="56" fill="#FFFFFF"/><text font-family="Arial,Arial_MSFontService,sans-serif" font-weight="400" font-size="46" transform="matrix(1 0 0 1 1853.06 1753)">Nottingham</text><text font-family="Arial,Arial_MSFontService,sans-serif" font-weight="400" font-size="31" transform="matrix(1 0 0 1 2086.24 1763)">M</text><path d="M2112 1735 2122.63 1735 2122.63 2191" stroke="#000000" stroke-width="2.29167" stroke-miterlimit="8" fill="none" fill-rule="evenodd"/><rect x="1706" y="1865" width="236" height="55" fill="#FFFFFF"/><text font-family="Arial,Arial_MSFontService,sans-serif" font-weight="400" font-size="46" transform="matrix(1 0 0 1 1707.85 1910)">Newcastle</text><text font-family="Arial,Arial_MSFontService,sans-serif" font-weight="400" font-size="31" transform="matrix(1 0 0 1 1918.68 1920)">N</text><path d="M1942 1893 1949.9 1893 1949.9 2303.23" stroke="#000000" stroke-width="2.29167" stroke-miterlimit="8" fill="none" fill-rule="evenodd"/><rect x="1765" y="1786" width="264" height="56" fill="#FFFFFF"/><text font-family="Arial,Arial_MSFontService,sans-serif" font-weight="400" font-size="46" transform="matrix(1 0 0 1 1767.69 1831)">Manchester</text><text font-family="Arial,Arial_MSFontService,sans-serif" font-weight="400" font-size="31" transform="matrix(1 0 0 1 2006.02 1841)">N</text><path d="M2029 1814 2037.98 1814 2037.98 2210.52" stroke="#000000" stroke-width="2.29167" stroke-miterlimit="8" fill="none" fill-rule="evenodd"/><rect x="1698" y="1943" width="212" height="56" fill="#FFFFFF"/><text font-family="Arial,Arial_MSFontService,sans-serif" font-weight="400" font-size="46" transform="matrix(1 0 0 1 1699.74 1989)">Leicester</text><text font-family="Arial,Arial_MSFontService,sans-serif" font-weight="400" font-size="31" transform="matrix(1 0 0 1 1884.79 1999)">M</text><path d="M1910 1971 1919.56 1971 1919.56 2416.22" stroke="#000000" stroke-width="2.29167" stroke-miterlimit="8" fill="none" fill-rule="evenodd"/><rect x="1687" y="2022" width="192" height="56.0001" fill="#FFFFFF"/><text font-family="Arial,Arial_MSFontService,sans-serif" font-weight="400" font-size="46" transform="matrix(1 0 0 1 1688.66 2068)">Brighton</text><text font-family="Arial,Arial_MSFontService,sans-serif" font-weight="400" font-size="31" transform="matrix(1 0 0 1 1858.24 2078)">S</text><path d="M1879 2050 1888.64 2050 1888.64 2463.53" stroke="#000000" stroke-width="2.29167" stroke-miterlimit="8" fill="none" fill-rule="evenodd"/><rect x="1534" y="2101" width="272" height="56" fill="#FFFFFF"/><text font-family="Arial,Arial_MSFontService,sans-serif" font-weight="400" font-size="46" transform="matrix(1 0 0 1 1536.34 2146)">Birmingham</text><text font-family="Arial,Arial_MSFontService,sans-serif" font-weight="400" font-size="31" transform="matrix(1 0 0 1 1780.4 2156)">M</text><path d="M1806 2129 1817.14 2129 1817.14 2498.89" stroke="#000000" stroke-width="2.29167" stroke-miterlimit="8" fill="none" fill-rule="evenodd"/><rect x="1436" y="2180" width="297" height="55" fill="#FFFFFF"/><text font-family="Arial,Arial_MSFontService,sans-serif" font-weight="400" font-size="46" transform="matrix(1 0 0 1 1438.85 2225)">Bournemouth</text><text font-family="Arial,Arial_MSFontService,sans-serif" font-weight="400" font-size="31" transform="matrix(1 0 0 1 1712.13 2235)">S</text><path d="M1733 2208 1744.26 2208 1744.26 2521.75" stroke="#000000" stroke-width="2.29167" stroke-miterlimit="8" fill="none" fill-rule="evenodd"/><path d="M1706 2286 1723.37 2286 1723.37 2545.04" stroke="#000000" stroke-width="2.29167" stroke-miterlimit="8" fill="none" fill-rule="evenodd"/><rect x="1512" y="2260" width="194" height="53" fill="#FFFFFF"/><text font-family="Arial,Arial_MSFontService,sans-serif" font-weight="400" font-size="46" transform="matrix(1 0 0 1 1481.31 2304)">Wrexham</text><text font-family="Arial,Arial_MSFontService,sans-serif" font-weight="400" font-size="31" transform="matrix(1 0 0 1 1677.25 2314)">W</text><rect x="1523" y="2337" width="175" height="55.9998" fill="#FFFFFF"/><text font-family="Arial,Arial_MSFontService,sans-serif" font-weight="400" font-size="46" transform="matrix(1 0 0 1 1524.36 2382)">Ipswich</text><text font-family="Arial,Arial_MSFontService,sans-serif" font-weight="400" font-size="31" transform="matrix(1 0 0 1 1676.75 2392)">S</text><path d="M1698 2365 1711.95 2365 1711.95 2611.96" stroke="#000000" stroke-width="2.29167" stroke-miterlimit="8" fill="none" fill-rule="evenodd"/><text font-family="Arial,Arial_MSFontService,sans-serif" font-weight="700" font-size="64" transform="matrix(1 0 0 1 357.235 1393)">RELATIVE PAYROLL IN FOOTBALL BY CITY IN </text><text font-family="Arial,Arial_MSFontService,sans-serif" font-weight="700" font-size="64" transform="matrix(1 0 0 1 1797.5 1393)">ENGLAND</text><text font-family="Arial,Arial_MSFontService,sans-serif" font-weight="700" font-size="64" transform="matrix(1 0 0 1 2114.9 1393)">*</text><text font-family="Arial,Arial_MSFontService,sans-serif" font-weight="400" font-size="60" transform="matrix(1 0 0 1 441.065 1466)">Premier and Championship Leagues (1</text><text font-family="Arial,Arial_MSFontService,sans-serif" font-weight="400" font-size="40" transform="matrix(1 0 0 1 1480.34 1448)">st</text><text font-family="Arial,Arial_MSFontService,sans-serif" font-weight="400" font-size="60" transform="matrix(1 0 0 1 1527.89 1466)">&amp; 2</text><text font-family="Arial,Arial_MSFontService,sans-serif" font-weight="400" font-size="40" transform="matrix(1 0 0 1 1617.26 1448)">nd</text><text font-family="Arial,Arial_MSFontService,sans-serif" font-weight="400" font-size="60" transform="matrix(1 0 0 1 1678.56 1466)">div.) , 2025</text><text font-family="Arial,Arial_MSFontService,sans-serif" font-weight="400" font-size="60" transform="matrix(1 0 0 1 1969.77 1466)">-</text><text font-family="Arial,Arial_MSFontService,sans-serif" font-weight="400" font-size="60" transform="matrix(1 0 0 1 1989.82 1466)">26</text><text font-family="Arial,Arial_MSFontService,sans-serif" font-weight="700" font-size="55" transform="matrix(1 0 0 1 918.866 3058)">City middle class income</text><rect x="1155" y="2679" width="174" height="55" fill="#FFFFFF"/><text font-family="Arial,Arial_MSFontService,sans-serif" font-weight="400" font-size="46" transform="matrix(1 0 0 1 1155.16 2724)">London</text><text font-family="Arial,Arial_MSFontService,sans-serif" font-weight="400" font-size="31" transform="matrix(1 0 0 1 1306.41 2734)">S</text><text font-family="Arial,Arial_MSFontService,sans-serif" font-weight="700" font-size="55" transform="matrix(-1.83697e-16 -1 1 -1.83697e-16 225.739 2981)">Football wages as share of city middle class income</text><text font-family="Arial,Arial_MSFontService,sans-serif" font-weight="400" font-size="46" transform="matrix(1 0 0 1 432.48 3132)">* and Wales</text><text font-family="Arial,Arial_MSFontService,sans-serif" font-weight="400" font-size="46" transform="matrix(1 0 0 1 432.48 3187)">Note</text><text font-family="Arial,Arial_MSFontService,sans-serif" font-weight="400" font-size="46" transform="matrix(1 0 0 1 528.73 3187)">: The area of a city block thus is the total payroll in football (</text><text font-family="Arial,Arial_MSFontService,sans-serif" font-style="italic" font-weight="400" font-size="46" transform="matrix(1 0 0 1 1726.13 3187)">x</text><text font-family="Arial,Arial_MSFontService,sans-serif" font-style="italic" font-weight="400" font-size="46" transform="matrix(1 0 0 1 1749.04 3187)">-</text><text font-family="Arial,Arial_MSFontService,sans-serif" font-style="italic" font-weight="400" font-size="46" transform="matrix(1 0 0 1 1764.51 3187)">axis </text><text font-family="Arial,Arial_MSFontService,sans-serif" font-style="italic" font-weight="400" font-size="46" transform="matrix(1 0 0 1 1858.47 3187)">×</text><text font-family="Arial,Arial_MSFontService,sans-serif" font-style="italic" font-weight="400" font-size="46" transform="matrix(1 0 0 1 1898 3187)">y</text><text font-family="Arial,Arial_MSFontService,sans-serif" font-style="italic" font-weight="400" font-size="46" transform="matrix(1 0 0 1 1920.92 3187)">-</text><text font-family="Arial,Arial_MSFontService,sans-serif" font-style="italic" font-weight="400" font-size="46" transform="matrix(1 0 0 1 1936.39 3187)">axis)</text><text font-family="Arial,Arial_MSFontService,sans-serif" font-weight="400" font-size="46" transform="matrix(1 0 0 1 432.48 3242)">Source: Staffan Canback (Tellusant) analysis; TelluBase; </text><text font-family="Arial,Arial_MSFontService,sans-serif" font-weight="400" font-size="46" transform="matrix(1 0 0 1 1597.79 3242)">Capology</text><rect x="1365" y="2651" width="258" height="56" fill="#FFFFFF"/><text font-family="Arial,Arial_MSFontService,sans-serif" font-weight="400" font-size="46" transform="matrix(1 0 0 1 1367.55 2697)">Sunderland</text><text font-family="Arial,Arial_MSFontService,sans-serif" font-weight="400" font-size="31" transform="matrix(1 0 0 1 1600.16 2707)">N</text><path d="M1623 2679 1641.83 2679 1641.83 2725.4" stroke="#000000" stroke-width="2.29167" stroke-miterlimit="8" fill="none" fill-rule="evenodd"/><text font-family="Arial,Arial_MSFontService,sans-serif" font-weight="400" font-size="46" transform="matrix(1 0 0 1 739.029 1582)">N = North   M = Middle   W = Wales   S = South</text></g></svg>