<svg width="1649" height="2660" xmlns="http://www.w3.org/2000/svg" xmlns:xlink="http://www.w3.org/1999/xlink" xml:space="preserve" overflow="hidden"><defs><clipPath id="clip0"><rect x="413" y="815" width="1649" height="2660"/></clipPath></defs><g clip-path="url(#clip0)" transform="translate(-413 -815)"><text font-family="Arial,Arial_MSFontService,sans-serif" font-weight="700" font-size="64" transform="matrix(1 0 0 1 617.341 897)">WORLD CUP PERFORMANCE 2002 − 2026</text><text font-family="Arial,Arial_MSFontService,sans-serif" font-weight="400" font-size="60" transform="matrix(1 0 0 1 540.272 970)">Final 16 countries in 7 cups, ranked by Zipf distribution</text><text font-family="Arial,Arial_MSFontService,sans-serif" font-weight="400" font-size="46" transform="matrix(1 0 0 1 807.691 3437)">Source: </text><text font-family="Arial,Arial_MSFontService,sans-serif" font-weight="400" font-size="46" transform="matrix(1 0 0 1 977.274 3437)">S.Canback</text><text font-family="Arial,Arial_MSFontService,sans-serif" font-weight="400" font-size="46" transform="matrix(1 0 0 1 1212.74 3437)">(Tellusant) analysis; FIFA</text><rect x="413" y="1002" width="1649" height="2396" fill="#FFFFFF"/><g><path d="M0 0 0.000360892 2279" stroke="#D9D9D9" stroke-width="3.4375" stroke-linejoin="round" stroke-miterlimit="10" fill="none" fill-rule="evenodd" transform="matrix(1 0 0 -1 872.5 3339.5)"/></g><g><path d="M882.5 3310.61 872.5 3310.61M872.5 3300.5 872.5 3321.5" stroke="#BFBFBF" stroke-width="3.4375" stroke-linejoin="round" stroke-miterlimit="10" fill="none"/></g><g><path d="M883.5 3253.61 872.5 3253.61M872.5 3243.5 872.5 3264.5" stroke="#BFBFBF" stroke-width="3.4375" stroke-linejoin="round" stroke-miterlimit="10" fill="none"/></g><g><path d="M885.5 3196.6 872.5 3196.6M872.5 3186.5 872.5 3207.5" stroke="#BFBFBF" stroke-width="3.4375" stroke-linejoin="round" stroke-miterlimit="10" fill="none"/></g><g><path d="M889.5 3139.6 872.5 3139.6M872.5 3129.5 872.5 3150.5" stroke="#BFBFBF" stroke-width="3.4375" stroke-linejoin="round" stroke-miterlimit="10" fill="none"/></g><g><path d="M889.5 3082.6 872.5 3082.6M872.5 3072.5 872.5 3093.5" stroke="#BFBFBF" stroke-width="3.4375" stroke-linejoin="round" stroke-miterlimit="10" fill="none"/></g><g><path d="M889.5 3025.6 872.5 3025.6M872.5 3015.5 872.5 3036.5" stroke="#BFBFBF" stroke-width="3.4375" stroke-linejoin="round" stroke-miterlimit="10" fill="none"/></g><g><path d="M893.5 2969.6 872.5 2969.6M872.5 2958.5 872.5 2979.5" stroke="#BFBFBF" stroke-width="3.4375" stroke-linejoin="round" stroke-miterlimit="10" fill="none"/></g><g><path d="M902.5 2912.6 872.5 2912.6M872.5 2901.5 872.5 2922.5" stroke="#BFBFBF" stroke-width="3.4375" stroke-linejoin="round" stroke-miterlimit="10" fill="none"/></g><g><path d="M904.5 2855.59 872.5 2855.59M872.5 2844.5 872.5 2865.5" stroke="#BFBFBF" stroke-width="3.4375" stroke-linejoin="round" stroke-miterlimit="10" fill="none"/></g><g><path d="M904.5 2798.59 872.5 2798.59M872.5 2787.5 872.5 2808.5" stroke="#BFBFBF" stroke-width="3.4375" stroke-linejoin="round" stroke-miterlimit="10" fill="none"/></g><g><path d="M906.5 2741.59 872.5 2741.59M872.5 2730.5 872.5 2751.5" stroke="#BFBFBF" stroke-width="3.4375" stroke-linejoin="round" stroke-miterlimit="10" fill="none"/></g><g><path d="M909.5 2684.59 872.5 2684.59M872.5 2673.5 872.5 2694.5" stroke="#BFBFBF" stroke-width="3.4375" stroke-linejoin="round" stroke-miterlimit="10" fill="none"/></g><g><path d="M911.5 2627.59 872.5 2627.59M872.5 2616.5 872.5 2637.5" stroke="#BFBFBF" stroke-width="3.4375" stroke-linejoin="round" stroke-miterlimit="10" fill="none"/></g><g><path d="M915.5 2570.58 872.5 2570.58M872.5 2560.5 872.5 2580.5" stroke="#BFBFBF" stroke-width="3.4375" stroke-linejoin="round" stroke-miterlimit="10" fill="none"/></g><g><path d="M917.5 2513.58 872.5 2513.58M872.5 2503.5 872.5 2523.5" stroke="#BFBFBF" stroke-width="3.4375" stroke-linejoin="round" stroke-miterlimit="10" fill="none"/></g><g><path d="M924.5 2456.58 872.5 2456.58M872.5 2446.5 872.5 2466.5" stroke="#BFBFBF" stroke-width="3.4375" stroke-linejoin="round" stroke-miterlimit="10" fill="none"/></g><g><path d="M936.5 2399.58 872.5 2399.58M872.5 2389.5 872.5 2409.5" stroke="#BFBFBF" stroke-width="3.4375" stroke-linejoin="round" stroke-miterlimit="10" fill="none"/></g><g><path d="M939.5 2342.58 872.5 2342.58M872.5 2332.5 872.5 2352.5" stroke="#BFBFBF" stroke-width="3.4375" stroke-linejoin="round" stroke-miterlimit="10" fill="none"/></g><g><path d="M939.5 2285.58 872.5 2285.58M872.5 2275.5 872.5 2295.5" stroke="#BFBFBF" stroke-width="3.4375" stroke-linejoin="round" stroke-miterlimit="10" fill="none"/></g><g><path d="M948.5 2228.57 872.5 2228.57M872.5 2218.5 872.5 2238.5" stroke="#BFBFBF" stroke-width="3.4375" stroke-linejoin="round" stroke-miterlimit="10" fill="none"/></g><g><path d="M951.5 2171.57 872.5 2171.57M872.5 2161.5 872.5 2181.5" stroke="#BFBFBF" stroke-width="3.4375" stroke-linejoin="round" stroke-miterlimit="10" fill="none"/></g><g><path d="M972.5 2114.57 872.5 2114.57M872.5 2104.5 872.5 2124.5" stroke="#BFBFBF" stroke-width="3.4375" stroke-linejoin="round" stroke-miterlimit="10" fill="none"/></g><g><path d="M975.5 2057.57 872.5 2057.57M872.5 2047.5 872.5 2067.5" stroke="#BFBFBF" stroke-width="3.4375" stroke-linejoin="round" stroke-miterlimit="10" fill="none"/></g><g><path d="M994.5 2000.57 872.5 2000.57M872.5 1990.5 872.5 2010.5" stroke="#BFBFBF" stroke-width="3.4375" stroke-linejoin="round" stroke-miterlimit="10" fill="none"/></g><g><path d="M1001.5 1943.56 872.5 1943.56M872.5 1933.5 872.5 1953.5" stroke="#BFBFBF" stroke-width="3.4375" stroke-linejoin="round" stroke-miterlimit="10" fill="none"/></g><g><path d="M1013.5 1886.56 872.5 1886.56M872.5 1876.5 872.5 1896.5" stroke="#BFBFBF" stroke-width="3.4375" stroke-linejoin="round" stroke-miterlimit="10" fill="none"/></g><g><path d="M1017.5 1829.56 872.5 1829.56M872.5 1819.5 872.5 1839.5" stroke="#BFBFBF" stroke-width="3.4375" stroke-linejoin="round" stroke-miterlimit="10" fill="none"/></g><g><path d="M1022.5 1772.56 872.5 1772.56M872.5 1762.5 872.5 1783.5" stroke="#BFBFBF" stroke-width="3.4375" stroke-linejoin="round" stroke-miterlimit="10" fill="none"/></g><g><path d="M1074.5 1715.56 872.5 1715.56M872.5 1705.5 872.5 1726.5" stroke="#BFBFBF" stroke-width="3.4375" stroke-linejoin="round" stroke-miterlimit="10" fill="none"/></g><g><path d="M1085.5 1658.55 872.5 1658.55M872.5 1648.5 872.5 1669.5" stroke="#BFBFBF" stroke-width="3.4375" stroke-linejoin="round" stroke-miterlimit="10" fill="none"/></g><g><path d="M1097.5 1601.55 872.5 1601.55M872.5 1591.5 872.5 1612.5" stroke="#BFBFBF" stroke-width="3.4375" stroke-linejoin="round" stroke-miterlimit="10" fill="none"/></g><g><path d="M1102.5 1544.55 872.5 1544.55M872.5 1534.5 872.5 1555.5" stroke="#BFBFBF" stroke-width="3.4375" stroke-linejoin="round" stroke-miterlimit="10" fill="none"/></g><g><path d="M1133.5 1487.55 872.5 1487.55M872.5 1477.5 872.5 1498.5" stroke="#BFBFBF" stroke-width="3.4375" stroke-linejoin="round" stroke-miterlimit="10" fill="none"/></g><g><path d="M1143.5 1430.55 872.5 1430.55M872.5 1420.5 872.5 1441.5" stroke="#BFBFBF" stroke-width="3.4375" stroke-linejoin="round" stroke-miterlimit="10" fill="none"/></g><g><path d="M1232.5 1373.55 872.5 1373.55M872.5 1363.5 872.5 1384.5" stroke="#BFBFBF" stroke-width="3.4375" stroke-linejoin="round" stroke-miterlimit="10" fill="none"/></g><g><path d="M1261.5 1316.54 872.5 1316.54M872.5 1306.5 872.5 1327.5" stroke="#BFBFBF" stroke-width="3.4375" stroke-linejoin="round" stroke-miterlimit="10" fill="none"/></g><g><path d="M1481.5 1259.54 872.5 1259.54M872.5 1249.5 872.5 1270.5" stroke="#BFBFBF" stroke-width="3.4375" stroke-linejoin="round" stroke-miterlimit="10" fill="none"/></g><g><path d="M1543.5 1202.54 872.5 1202.54M872.5 1192.5 872.5 1213.5" stroke="#BFBFBF" stroke-width="3.4375" stroke-linejoin="round" stroke-miterlimit="10" fill="none"/></g><g><path d="M1869.5 1145.54 872.5 1145.54M872.5 1135.5 872.5 1156.5" stroke="#BFBFBF" stroke-width="3.4375" stroke-linejoin="round" stroke-miterlimit="10" fill="none"/></g><g><path d="M1873.5 1089.54 872.5 1089.54M872.5 1078.5 872.5 1099.5" stroke="#BFBFBF" stroke-width="3.4375" stroke-linejoin="round" stroke-miterlimit="10" fill="none"/></g><g><path d="M894.499 3311.53C894.499 3317.88 889.351 3323.03 882.999 3323.03 876.648 3323.03 871.5 3317.88 871.5 3311.53 871.5 3305.18 876.648 3300.03 882.999 3300.03 889.351 3300.03 894.499 3305.18 894.499 3311.53Z" stroke="#C00000" stroke-width="16.0417" stroke-linejoin="round" stroke-miterlimit="10" fill="#C00000"/><path d="M896.499 3254.53C896.499 3260.88 891.351 3266.03 884.999 3266.03 878.648 3266.03 873.5 3260.88 873.5 3254.53 873.5 3248.18 878.648 3243.03 884.999 3243.03 891.351 3243.03 896.499 3248.18 896.499 3254.53Z" stroke="#C00000" stroke-width="16.0417" stroke-linejoin="round" stroke-miterlimit="10" fill="#C00000"/><path d="M898.499 3197.53C898.499 3203.88 893.351 3209.03 887 3209.03 880.648 3209.03 875.5 3203.88 875.5 3197.53 875.5 3191.18 880.648 3186.03 887 3186.03 893.351 3186.03 898.499 3191.18 898.499 3197.53Z" stroke="#C00000" stroke-width="16.0417" stroke-linejoin="round" stroke-miterlimit="10" fill="#C00000"/><path d="M901.499 3140.53C901.499 3146.88 896.351 3152.03 890 3152.03 883.648 3152.03 878.5 3146.88 878.5 3140.53 878.5 3134.18 883.648 3129.03 890 3129.03 896.351 3129.03 901.499 3134.18 901.499 3140.53Z" stroke="#C00000" stroke-width="16.0417" stroke-linejoin="round" stroke-miterlimit="10" fill="#C00000"/><path d="M901.499 3083.53C901.499 3089.88 896.351 3095.03 890 3095.03 883.648 3095.03 878.5 3089.88 878.5 3083.53 878.5 3077.18 883.648 3072.03 890 3072.03 896.351 3072.03 901.499 3077.18 901.499 3083.53Z" stroke="#C00000" stroke-width="16.0417" stroke-linejoin="round" stroke-miterlimit="10" fill="#C00000"/><path d="M901.499 3026.53C901.499 3032.88 896.351 3038.03 890 3038.03 883.648 3038.03 878.5 3032.88 878.5 3026.53 878.5 3020.18 883.648 3015.03 890 3015.03 896.351 3015.03 901.499 3020.18 901.499 3026.53Z" stroke="#C00000" stroke-width="16.0417" stroke-linejoin="round" stroke-miterlimit="10" fill="#C00000"/><path d="M906.499 2969.53C906.499 2975.88 901.351 2981.03 894.999 2981.03 888.648 2981.03 883.5 2975.88 883.5 2969.53 883.5 2963.18 888.648 2958.03 894.999 2958.03 901.351 2958.03 906.499 2963.18 906.499 2969.53Z" stroke="#C00000" stroke-width="16.0417" stroke-linejoin="round" stroke-miterlimit="10" fill="#C00000"/><path d="M915.499 2912.53C915.499 2918.88 910.351 2924.03 903.999 2924.03 897.648 2924.03 892.5 2918.88 892.5 2912.53 892.5 2906.18 897.648 2901.03 903.999 2901.03 910.351 2901.03 915.499 2906.18 915.499 2912.53Z" stroke="#C00000" stroke-width="16.0417" stroke-linejoin="round" stroke-miterlimit="10" fill="#C00000"/><path d="M917.499 2855.53C917.499 2861.88 912.351 2867.03 905.999 2867.03 899.648 2867.03 894.5 2861.88 894.5 2855.53 894.5 2849.18 899.648 2844.03 905.999 2844.03 912.351 2844.03 917.499 2849.18 917.499 2855.53Z" stroke="#C00000" stroke-width="16.0417" stroke-linejoin="round" stroke-miterlimit="10" fill="#C00000"/><path d="M917.499 2798.53C917.499 2804.88 912.351 2810.03 905.999 2810.03 899.648 2810.03 894.5 2804.88 894.5 2798.53 894.5 2792.18 899.648 2787.03 905.999 2787.03 912.351 2787.03 917.499 2792.18 917.499 2798.53Z" stroke="#C00000" stroke-width="16.0417" stroke-linejoin="round" stroke-miterlimit="10" fill="#C00000"/><path d="M918.499 2741.53C918.499 2747.88 913.351 2753.03 906.999 2753.03 900.648 2753.03 895.5 2747.88 895.5 2741.53 895.5 2735.18 900.648 2730.03 906.999 2730.03 913.351 2730.03 918.499 2735.18 918.499 2741.53Z" stroke="#C00000" stroke-width="16.0417" stroke-linejoin="round" stroke-miterlimit="10" fill="#C00000"/><path d="M921.499 2684.53C921.499 2690.88 916.351 2696.03 910 2696.03 903.648 2696.03 898.5 2690.88 898.5 2684.53 898.5 2678.18 903.648 2673.03 910 2673.03 916.351 2673.03 921.499 2678.18 921.499 2684.53Z" stroke="#C00000" stroke-width="16.0417" stroke-linejoin="round" stroke-miterlimit="10" fill="#C00000"/><path d="M923.499 2627.53C923.499 2633.88 918.351 2639.03 912 2639.03 905.648 2639.03 900.5 2633.88 900.5 2627.53 900.5 2621.18 905.648 2616.03 912 2616.03 918.351 2616.03 923.499 2621.18 923.499 2627.53Z" stroke="#C00000" stroke-width="16.0417" stroke-linejoin="round" stroke-miterlimit="10" fill="#C00000"/><path d="M927.499 2570.53C927.499 2576.88 922.351 2582.03 915.999 2582.03 909.648 2582.03 904.5 2576.88 904.5 2570.53 904.5 2564.18 909.648 2559.03 915.999 2559.03 922.351 2559.03 927.499 2564.18 927.499 2570.53Z" stroke="#C00000" stroke-width="16.0417" stroke-linejoin="round" stroke-miterlimit="10" fill="#C00000"/><path d="M929.499 2513.53C929.499 2519.88 924.351 2525.03 917.999 2525.03 911.648 2525.03 906.5 2519.88 906.5 2513.53 906.5 2507.18 911.648 2502.03 917.999 2502.03 924.351 2502.03 929.499 2507.18 929.499 2513.53Z" stroke="#C00000" stroke-width="16.0417" stroke-linejoin="round" stroke-miterlimit="10" fill="#C00000"/><path d="M937.499 2456.53C937.499 2462.88 932.351 2468.03 925.999 2468.03 919.648 2468.03 914.5 2462.88 914.5 2456.53 914.5 2450.18 919.648 2445.03 925.999 2445.03 932.351 2445.03 937.499 2450.18 937.499 2456.53Z" stroke="#C00000" stroke-width="16.0417" stroke-linejoin="round" stroke-miterlimit="10" fill="#C00000"/><path d="M948.499 2399.53C948.499 2405.88 943.351 2411.03 936.999 2411.03 930.648 2411.03 925.5 2405.88 925.5 2399.53 925.5 2393.18 930.648 2388.03 936.999 2388.03 943.351 2388.03 948.499 2393.18 948.499 2399.53Z" stroke="#C00000" stroke-width="16.0417" stroke-linejoin="round" stroke-miterlimit="10" fill="#C00000"/><path d="M952.499 2342.53C952.499 2348.88 947.351 2354.03 940.999 2354.03 934.648 2354.03 929.5 2348.88 929.5 2342.53 929.5 2336.18 934.648 2331.03 940.999 2331.03 947.351 2331.03 952.499 2336.18 952.499 2342.53Z" stroke="#C00000" stroke-width="16.0417" stroke-linejoin="round" stroke-miterlimit="10" fill="#C00000"/><path d="M952.499 2285.53C952.499 2291.88 947.351 2297.03 940.999 2297.03 934.648 2297.03 929.5 2291.88 929.5 2285.53 929.5 2279.18 934.648 2274.03 940.999 2274.03 947.351 2274.03 952.499 2279.18 952.499 2285.53Z" stroke="#C00000" stroke-width="16.0417" stroke-linejoin="round" stroke-miterlimit="10" fill="#C00000"/><path d="M961.499 2228.53C961.499 2234.88 956.351 2240.03 949.999 2240.03 943.648 2240.03 938.5 2234.88 938.5 2228.53 938.5 2222.18 943.648 2217.03 949.999 2217.03 956.351 2217.03 961.499 2222.18 961.499 2228.53Z" stroke="#C00000" stroke-width="16.0417" stroke-linejoin="round" stroke-miterlimit="10" fill="#C00000"/><path d="M964.499 2172.53C964.499 2178.88 959.351 2184.03 953 2184.03 946.648 2184.03 941.5 2178.88 941.5 2172.53 941.5 2166.18 946.648 2161.03 953 2161.03 959.351 2161.03 964.499 2166.18 964.499 2172.53Z" stroke="#C00000" stroke-width="16.0417" stroke-linejoin="round" stroke-miterlimit="10" fill="#C00000"/><path d="M985.499 2115.53C985.499 2121.88 980.351 2127.03 973.999 2127.03 967.648 2127.03 962.5 2121.88 962.5 2115.53 962.5 2109.18 967.648 2104.03 973.999 2104.03 980.351 2104.03 985.499 2109.18 985.499 2115.53Z" stroke="#C00000" stroke-width="16.0417" stroke-linejoin="round" stroke-miterlimit="10" fill="#C00000"/><path d="M987.499 2058.53C987.499 2064.88 982.351 2070.03 976 2070.03 969.648 2070.03 964.5 2064.88 964.5 2058.53 964.5 2052.18 969.648 2047.03 976 2047.03 982.351 2047.03 987.499 2052.18 987.499 2058.53Z" stroke="#C00000" stroke-width="16.0417" stroke-linejoin="round" stroke-miterlimit="10" fill="#C00000"/><path d="M1006.5 2001.53C1006.5 2007.88 1001.35 2013.03 994.999 2013.03 988.648 2013.03 983.5 2007.88 983.5 2001.53 983.5 1995.18 988.648 1990.03 994.999 1990.03 1001.35 1990.03 1006.5 1995.18 1006.5 2001.53Z" stroke="#C00000" stroke-width="16.0417" stroke-linejoin="round" stroke-miterlimit="10" fill="#C00000"/><path d="M1013.5 1944.53C1013.5 1950.88 1008.35 1956.03 1002 1956.03 995.648 1956.03 990.5 1950.88 990.5 1944.53 990.5 1938.18 995.648 1933.03 1002 1933.03 1008.35 1933.03 1013.5 1938.18 1013.5 1944.53Z" stroke="#C00000" stroke-width="16.0417" stroke-linejoin="round" stroke-miterlimit="10" fill="#C00000"/><path d="M1025.5 1887.53C1025.5 1893.88 1020.35 1899.03 1014 1899.03 1007.65 1899.03 1002.5 1893.88 1002.5 1887.53 1002.5 1881.18 1007.65 1876.03 1014 1876.03 1020.35 1876.03 1025.5 1881.18 1025.5 1887.53Z" stroke="#C00000" stroke-width="16.0417" stroke-linejoin="round" stroke-miterlimit="10" fill="#C00000"/><path d="M1030.5 1830.53C1030.5 1836.88 1025.35 1842.03 1019 1842.03 1012.65 1842.03 1007.5 1836.88 1007.5 1830.53 1007.5 1824.18 1012.65 1819.03 1019 1819.03 1025.35 1819.03 1030.5 1824.18 1030.5 1830.53Z" stroke="#C00000" stroke-width="16.0417" stroke-linejoin="round" stroke-miterlimit="10" fill="#C00000"/><path d="M1034.5 1773.53C1034.5 1779.88 1029.35 1785.03 1023 1785.03 1016.65 1785.03 1011.5 1779.88 1011.5 1773.53 1011.5 1767.18 1016.65 1762.03 1023 1762.03 1029.35 1762.03 1034.5 1767.18 1034.5 1773.53Z" stroke="#C00000" stroke-width="16.0417" stroke-linejoin="round" stroke-miterlimit="10" fill="#C00000"/><path d="M1086.5 1716.53C1086.5 1722.88 1081.35 1728.03 1075 1728.03 1068.65 1728.03 1063.5 1722.88 1063.5 1716.53 1063.5 1710.18 1068.65 1705.03 1075 1705.03 1081.35 1705.03 1086.5 1710.18 1086.5 1716.53Z" stroke="#C00000" stroke-width="16.0417" stroke-linejoin="round" stroke-miterlimit="10" fill="#C00000"/><path d="M1098.5 1659.53C1098.5 1665.88 1093.35 1671.03 1087 1671.03 1080.65 1671.03 1075.5 1665.88 1075.5 1659.53 1075.5 1653.18 1080.65 1648.03 1087 1648.03 1093.35 1648.03 1098.5 1653.18 1098.5 1659.53Z" stroke="#C00000" stroke-width="16.0417" stroke-linejoin="round" stroke-miterlimit="10" fill="#C00000"/><path d="M1109.5 1602.53C1109.5 1608.88 1104.35 1614.03 1098 1614.03 1091.65 1614.03 1086.5 1608.88 1086.5 1602.53 1086.5 1596.18 1091.65 1591.03 1098 1591.03 1104.35 1591.03 1109.5 1596.18 1109.5 1602.53Z" stroke="#C00000" stroke-width="16.0417" stroke-linejoin="round" stroke-miterlimit="10" fill="#C00000"/><path d="M1115.5 1545.53C1115.5 1551.88 1110.35 1557.03 1104 1557.03 1097.65 1557.03 1092.5 1551.88 1092.5 1545.53 1092.5 1539.18 1097.65 1534.03 1104 1534.03 1110.35 1534.03 1115.5 1539.18 1115.5 1545.53Z" stroke="#C00000" stroke-width="16.0417" stroke-linejoin="round" stroke-miterlimit="10" fill="#C00000"/><path d="M1146.5 1488.53C1146.5 1494.88 1141.35 1500.03 1135 1500.03 1128.65 1500.03 1123.5 1494.88 1123.5 1488.53 1123.5 1482.18 1128.65 1477.03 1135 1477.03 1141.35 1477.03 1146.5 1482.18 1146.5 1488.53Z" stroke="#C00000" stroke-width="16.0417" stroke-linejoin="round" stroke-miterlimit="10" fill="#C00000"/><path d="M1155.5 1431.53C1155.5 1437.88 1150.35 1443.03 1144 1443.03 1137.65 1443.03 1132.5 1437.88 1132.5 1431.53 1132.5 1425.18 1137.65 1420.03 1144 1420.03 1150.35 1420.03 1155.5 1425.18 1155.5 1431.53Z" stroke="#C00000" stroke-width="16.0417" stroke-linejoin="round" stroke-miterlimit="10" fill="#C00000"/><path d="M1245.5 1374.53C1245.5 1380.88 1240.35 1386.03 1234 1386.03 1227.65 1386.03 1222.5 1380.88 1222.5 1374.53 1222.5 1368.18 1227.65 1363.03 1234 1363.03 1240.35 1363.03 1245.5 1368.18 1245.5 1374.53Z" stroke="#C00000" stroke-width="16.0417" stroke-linejoin="round" stroke-miterlimit="10" fill="#C00000"/><path d="M1273.5 1317.53C1273.5 1323.88 1268.35 1329.03 1262 1329.03 1255.65 1329.03 1250.5 1323.88 1250.5 1317.53 1250.5 1311.18 1255.65 1306.03 1262 1306.03 1268.35 1306.03 1273.5 1311.18 1273.5 1317.53Z" stroke="#C00000" stroke-width="16.0417" stroke-linejoin="round" stroke-miterlimit="10" fill="#C00000"/><path d="M1493.5 1260.53C1493.5 1266.88 1488.35 1272.03 1482 1272.03 1475.65 1272.03 1470.5 1266.88 1470.5 1260.53 1470.5 1254.18 1475.65 1249.03 1482 1249.03 1488.35 1249.03 1493.5 1254.18 1493.5 1260.53Z" stroke="#C00000" stroke-width="16.0417" stroke-linejoin="round" stroke-miterlimit="10" fill="#C00000"/><path d="M1556.5 1203.53C1556.5 1209.88 1551.35 1215.03 1545 1215.03 1538.65 1215.03 1533.5 1209.88 1533.5 1203.53 1533.5 1197.18 1538.65 1192.03 1545 1192.03 1551.35 1192.03 1556.5 1197.18 1556.5 1203.53Z" stroke="#C00000" stroke-width="16.0417" stroke-linejoin="round" stroke-miterlimit="10" fill="#C00000"/><path d="M1882.5 1146.53C1882.5 1152.88 1877.35 1158.03 1871 1158.03 1864.65 1158.03 1859.5 1152.88 1859.5 1146.53 1859.5 1140.18 1864.65 1135.03 1871 1135.03 1877.35 1135.03 1882.5 1140.18 1882.5 1146.53Z" stroke="#C00000" stroke-width="16.0417" stroke-linejoin="round" stroke-miterlimit="10" fill="#C00000"/><path d="M1885.5 1089.53C1885.5 1095.88 1880.35 1101.03 1874 1101.03 1867.65 1101.03 1862.5 1095.88 1862.5 1089.53 1862.5 1083.18 1867.65 1078.03 1874 1078.03 1880.35 1078.03 1885.5 1083.18 1885.5 1089.53Z" stroke="#C00000" stroke-width="16.0417" stroke-linejoin="round" stroke-miterlimit="10" fill="#C00000"/></g><g><text font-family="Arial,Arial_MSFontService,sans-serif" font-weight="400" font-size="50" transform="matrix(1 0 0 1 909.603 3329)">1.4</text></g><g><text font-family="Arial,Arial_MSFontService,sans-serif" font-weight="400" font-size="50" transform="matrix(1 0 0 1 911.206 3272)">1.6</text></g><g><text font-family="Arial,Arial_MSFontService,sans-serif" font-weight="400" font-size="50" transform="matrix(1 0 0 1 913.45 3215)">1.9</text></g><g><text font-family="Arial,Arial_MSFontService,sans-serif" font-weight="400" font-size="50" transform="matrix(1 0 0 1 916.817 3158)">2.4</text></g><g><text font-family="Arial,Arial_MSFontService,sans-serif" font-weight="400" font-size="50" transform="matrix(1 0 0 1 916.817 3101)">2.4</text></g><g><text font-family="Arial,Arial_MSFontService,sans-serif" font-weight="400" font-size="50" transform="matrix(1 0 0 1 916.817 3044)">2.4</text></g><g><text font-family="Arial,Arial_MSFontService,sans-serif" font-weight="400" font-size="50" transform="matrix(1 0 0 1 921.467 2987)">3.0</text></g><g><text font-family="Arial,Arial_MSFontService,sans-serif" font-weight="400" font-size="50" transform="matrix(1 0 0 1 930.281 2930)">4.3</text></g><g><text font-family="Arial,Arial_MSFontService,sans-serif" font-weight="400" font-size="50" transform="matrix(1 0 0 1 932.045 2873)">4.5</text></g><g><text font-family="Arial,Arial_MSFontService,sans-serif" font-weight="400" font-size="50" transform="matrix(1 0 0 1 932.208 2816)">4.5</text></g><g><text font-family="Arial,Arial_MSFontService,sans-serif" font-weight="400" font-size="50" transform="matrix(1 0 0 1 933.648 2759)">4.7</text></g><g><text font-family="Arial,Arial_MSFontService,sans-serif" font-weight="400" font-size="50" transform="matrix(1 0 0 1 936.985 2702)">5.2</text></g><g><text font-family="Arial,Arial_MSFontService,sans-serif" font-weight="400" font-size="50" transform="matrix(1 0 0 1 938.677 2645)">5.4</text></g><g><text font-family="Arial,Arial_MSFontService,sans-serif" font-weight="400" font-size="50" transform="matrix(1 0 0 1 942.95 2588)">6.0</text></g><g><text font-family="Arial,Arial_MSFontService,sans-serif" font-weight="400" font-size="50" transform="matrix(1 0 0 1 944.869 2531)">6.3</text></g><g><text font-family="Arial,Arial_MSFontService,sans-serif" font-weight="400" font-size="50" transform="matrix(1 0 0 1 952.061 2474)">7.3</text></g><g><text font-family="Arial,Arial_MSFontService,sans-serif" font-weight="400" font-size="50" transform="matrix(1 0 0 1 963.789 2417)">9.0</text></g><g><text font-family="Arial,Arial_MSFontService,sans-serif" font-weight="400" font-size="50" transform="matrix(1 0 0 1 967.311 2360)">9.5</text></g><g><text font-family="Arial,Arial_MSFontService,sans-serif" font-weight="400" font-size="50" transform="matrix(1 0 0 1 967.311 2303)">9.5</text></g><g><text font-family="Arial,Arial_MSFontService,sans-serif" font-weight="400" font-size="50" transform="matrix(1 0 0 1 976.132 2246)">10.7</text></g><g><text font-family="Arial,Arial_MSFontService,sans-serif" font-weight="400" font-size="50" transform="matrix(1 0 0 1 979.173 2190)">11.1</text></g><g><text font-family="Arial,Arial_MSFontService,sans-serif" font-weight="400" font-size="50" transform="matrix(1 0 0 1 1000.41 2133)">14.1</text></g><g><text font-family="Arial,Arial_MSFontService,sans-serif" font-weight="400" font-size="50" transform="matrix(1 0 0 1 1002.71 2076)">14.4</text></g><g><text font-family="Arial,Arial_MSFontService,sans-serif" font-weight="400" font-size="50" transform="matrix(1 0 0 1 1021.98 2019)">17.1</text></g><g><text font-family="Arial,Arial_MSFontService,sans-serif" font-weight="400" font-size="50" transform="matrix(1 0 0 1 1028.88 1962)">18.1</text></g><g><text font-family="Arial,Arial_MSFontService,sans-serif" font-weight="400" font-size="50" transform="matrix(1 0 0 1 1040.89 1905)">19.8</text></g><g><text font-family="Arial,Arial_MSFontService,sans-serif" font-weight="400" font-size="50" transform="matrix(1 0 0 1 1045.03 1848)">20.4</text></g><g><text font-family="Arial,Arial_MSFontService,sans-serif" font-weight="400" font-size="50" transform="matrix(1 0 0 1 1049.68 1791)">21.0</text></g><g><text font-family="Arial,Arial_MSFontService,sans-serif" font-weight="400" font-size="50" transform="matrix(1 0 0 1 1101.52 1734)">28.3</text></g><g><text font-family="Arial,Arial_MSFontService,sans-serif" font-weight="400" font-size="50" transform="matrix(1 0 0 1 1113.04 1677)">29.9</text></g><g><text font-family="Arial,Arial_MSFontService,sans-serif" font-weight="400" font-size="50" transform="matrix(1 0 0 1 1124.62 1620)">31.5</text></g><g><text font-family="Arial,Arial_MSFontService,sans-serif" font-weight="400" font-size="50" transform="matrix(1 0 0 1 1130.45 1563)">32.4</text></g><g><text font-family="Arial,Arial_MSFontService,sans-serif" font-weight="400" font-size="50" transform="matrix(1 0 0 1 1161 1506)">36.6</text></g><g><text font-family="Arial,Arial_MSFontService,sans-serif" font-weight="400" font-size="50" transform="matrix(1 0 0 1 1170.83 1449)">38.0</text></g><g><text font-family="Arial,Arial_MSFontService,sans-serif" font-weight="400" font-size="50" transform="matrix(1 0 0 1 1260.47 1392)">50.6</text></g><g><text font-family="Arial,Arial_MSFontService,sans-serif" font-weight="400" font-size="50" transform="matrix(1 0 0 1 1288.84 1335)">54.6</text></g><g><text font-family="Arial,Arial_MSFontService,sans-serif" font-weight="400" font-size="50" transform="matrix(1 0 0 1 1508.7 1278)">85.5</text></g><g><text font-family="Arial,Arial_MSFontService,sans-serif" font-weight="400" font-size="50" transform="matrix(1 0 0 1 1571.43 1221)">94.3</text></g><g><text font-family="Arial,Arial_MSFontService,sans-serif" font-weight="400" font-size="50" transform="matrix(1 0 0 1 1897.1 1164)">140.0</text></g><g><text font-family="Arial,Arial_MSFontService,sans-serif" font-weight="400" font-size="50" transform="matrix(1 0 0 1 1900.72 1107)">140.5</text></g><g><text font-family="Arial,Arial_MSFontService,sans-serif" font-weight="400" font-size="50" transform="matrix(1 0 0 1 590.792 3327)">Ireland  40</text></g><g><text font-family="Arial,Arial_MSFontService,sans-serif" font-weight="400" font-size="50" transform="matrix(1 0 0 1 557.174 3270)">Ecuador  39</text></g><g><text font-family="Arial,Arial_MSFontService,sans-serif" font-weight="400" font-size="50" transform="matrix(1 0 0 1 554.401 3213)">Slovakia  38</text></g><g><text font-family="Arial,Arial_MSFontService,sans-serif" font-weight="400" font-size="50" transform="matrix(1 0 0 1 588.019 3156)">Algeria  35</text></g><g><text font-family="Arial,Arial_MSFontService,sans-serif" font-weight="400" font-size="50" transform="matrix(1 0 0 1 579.632 3099)">Greece  35</text></g><g><text font-family="Arial,Arial_MSFontService,sans-serif" font-weight="400" font-size="50" transform="matrix(1 0 0 1 585.223 3042)">Nigeria  35</text></g><g><text font-family="Arial,Arial_MSFontService,sans-serif" font-weight="400" font-size="50" transform="matrix(1 0 0 1 571.221 2985)">Ukraine  34</text></g><g><text font-family="Arial,Arial_MSFontService,sans-serif" font-weight="400" font-size="50" transform="matrix(1 0 0 1 630.072 2929)">Chile  33</text></g><g><text font-family="Arial,Arial_MSFontService,sans-serif" font-weight="400" font-size="50" transform="matrix(1 0 0 1 540.422 2872)">Denmark  32</text></g><g><text font-family="Arial,Arial_MSFontService,sans-serif" font-weight="400" font-size="50" transform="matrix(1 0 0 1 498.392 2815)">Costa Rica  31</text></g><g><text font-family="Arial,Arial_MSFontService,sans-serif" font-weight="400" font-size="50" transform="matrix(1 0 0 1 587.974 2758)">Poland  30</text></g><g><text font-family="Arial,Arial_MSFontService,sans-serif" font-weight="400" font-size="50" transform="matrix(1 0 0 1 593.589 2701)">Ghana  29</text></g><g><text font-family="Arial,Arial_MSFontService,sans-serif" font-weight="400" font-size="50" transform="matrix(1 0 0 1 590.884 2644)">Turkey  28</text></g><g><text font-family="Arial,Arial_MSFontService,sans-serif" font-weight="400" font-size="50" transform="matrix(1 0 0 1 590.861 2587)">Russia  27</text></g><g><text font-family="Arial,Arial_MSFontService,sans-serif" font-weight="400" font-size="50" transform="matrix(1 0 0 1 548.809 2530)">Australia  26</text></g><g><text font-family="Arial,Arial_MSFontService,sans-serif" font-weight="400" font-size="50" transform="matrix(1 0 0 1 559.924 2473)">Senegal  25</text></g><g><text font-family="Arial,Arial_MSFontService,sans-serif" font-weight="400" font-size="50" transform="matrix(1 0 0 1 562.765 2416)">Sweden  24</text></g><g><text font-family="Arial,Arial_MSFontService,sans-serif" font-weight="400" font-size="50" transform="matrix(1 0 0 1 568.334 2359)">Canada  22</text></g><g><text font-family="Arial,Arial_MSFontService,sans-serif" font-weight="400" font-size="50" transform="matrix(1 0 0 1 616.07 2302)">Egypt  22</text></g><g><text font-family="Arial,Arial_MSFontService,sans-serif" font-weight="400" font-size="50" transform="matrix(1 0 0 1 464.659 2245)">South Korea  21</text></g><g><text font-family="Arial,Arial_MSFontService,sans-serif" font-weight="400" font-size="50" transform="matrix(1 0 0 1 607.591 2188)">Japan  20</text></g><g><text font-family="Arial,Arial_MSFontService,sans-serif" font-weight="400" font-size="50" transform="matrix(1 0 0 1 554.378 2131)">Uruguay  19</text></g><g><text font-family="Arial,Arial_MSFontService,sans-serif" font-weight="400" font-size="50" transform="matrix(1 0 0 1 529.124 2074)">Paraguay  18</text></g><g><text font-family="Arial,Arial_MSFontService,sans-serif" font-weight="400" font-size="50" transform="matrix(1 0 0 1 531.965 2017)">Colombia  17</text></g><g><text font-family="Arial,Arial_MSFontService,sans-serif" font-weight="400" font-size="50" transform="matrix(1 0 0 1 574.063 1960)">Norway  16</text></g><g><text font-family="Arial,Arial_MSFontService,sans-serif" font-weight="400" font-size="50" transform="matrix(1 0 0 1 585.27 1903)">Mexico  15</text></g><g><text font-family="Arial,Arial_MSFontService,sans-serif" font-weight="400" font-size="50" transform="matrix(1 0 0 1 652.53 1846)">Italy  14</text></g><g><text font-family="Arial,Arial_MSFontService,sans-serif" font-weight="400" font-size="50" transform="matrix(1 0 0 1 442.292 1789)">United States  13</text></g><g><text font-family="Arial,Arial_MSFontService,sans-serif" font-weight="400" font-size="50" transform="matrix(1 0 0 1 557.173 1732)">Portugal  12</text></g><g><text font-family="Arial,Arial_MSFontService,sans-serif" font-weight="400" font-size="50" transform="matrix(1 0 0 1 484.344 1675)">Switzerland  11</text></g><g><text font-family="Arial,Arial_MSFontService,sans-serif" font-weight="400" font-size="50" transform="matrix(1 0 0 1 473.069 1618)">Netherlands  10</text></g><g><text font-family="Arial,Arial_MSFontService,sans-serif" font-weight="400" font-size="50" transform="matrix(1 0 0 1 579.678 1561)">Morocco  9</text></g><g><text font-family="Arial,Arial_MSFontService,sans-serif" font-weight="400" font-size="50" transform="matrix(1 0 0 1 590.861 1504)">Belgium  8</text></g><g><text font-family="Arial,Arial_MSFontService,sans-serif" font-weight="400" font-size="50" transform="matrix(1 0 0 1 610.478 1447)">Croatia  7</text></g><g><text font-family="Arial,Arial_MSFontService,sans-serif" font-weight="400" font-size="50" transform="matrix(1 0 0 1 565.676 1390)">Germany  6</text></g><g><text font-family="Arial,Arial_MSFontService,sans-serif" font-weight="400" font-size="50" transform="matrix(1 0 0 1 646.961 1333)">Brazil  5</text></g><g><text font-family="Arial,Arial_MSFontService,sans-serif" font-weight="400" font-size="50" transform="matrix(1 0 0 1 587.974 1276)">England  4</text></g><g><text font-family="Arial,Arial_MSFontService,sans-serif" font-weight="400" font-size="50" transform="matrix(1 0 0 1 644.074 1219)">Spain  3</text></g><g><text font-family="Arial,Arial_MSFontService,sans-serif" font-weight="400" font-size="50" transform="matrix(1 0 0 1 616.093 1162)">France  2</text></g><g><text font-family="Arial,Arial_MSFontService,sans-serif" font-weight="400" font-size="50" transform="matrix(1 0 0 1 557.173 1105)">Argentina  1</text></g><text font-family="Arial,Arial_MSFontService,sans-serif" font-style="italic" font-weight="700" font-size="50" transform="matrix(1 0 0 1 1466.44 2505)">Zipf Weights</text><text font-family="Arial,Arial_MSFontService,sans-serif" font-style="italic" font-weight="400" font-size="50" transform="matrix(1 0 0 1 1295.43 2566)">Zipf gives weight 1 to gold, </text><text font-family="Arial,Arial_MSFontService,sans-serif" font-style="italic" font-weight="400" font-size="50" transform="matrix(1 0 0 1 1295.43 2626)">½ to silver, ⅓ to bronze, and </text><text font-family="Arial,Arial_MSFontService,sans-serif" font-style="italic" font-weight="400" font-size="50" transform="matrix(1 0 0 1 1295.43 2687)">so on</text><text font-family="Arial,Arial_MSFontService,sans-serif" font-style="italic" font-weight="400" font-size="50" transform="matrix(1 0 0 1 1295.43 2808)">Zipf gives weight 1 to 2026, </text><text font-family="Arial,Arial_MSFontService,sans-serif" font-style="italic" font-weight="400" font-size="50" transform="matrix(1 0 0 1 1295.43 2868)">½ to 2022, ⅓ to 2018, and </text><text font-family="Arial,Arial_MSFontService,sans-serif" font-style="italic" font-weight="400" font-size="50" transform="matrix(1 0 0 1 1295.43 2927)">so on</text></g></svg>