<?xml version="1.0" encoding="UTF-8"?>
<!DOCTYPE svg PUBLIC "-//W3C//DTD SVG 1.1//EN" "http://www.w3.org/Graphics/SVG/1.1/DTD/svg11.dtd">
<!-- Creator: CorelDRAW X6 -->
<svg xmlns="http://www.w3.org/2000/svg" xml:space="preserve" width="6.875in" height="6.875in" version="1.1" style="shape-rendering:geometricPrecision; text-rendering:geometricPrecision; image-rendering:optimizeQuality; fill-rule:evenodd; clip-rule:evenodd"
viewBox="0 0 6875 6875"
 xmlns:xlink="http://www.w3.org/1999/xlink">
 <defs>
  <style type="text/css">
   <![CDATA[
    .str0 {stroke:#B9BBBC;stroke-width:3}
    .fil6 {fill:none}
    .fil0 {fill:black}
    .fil5 {fill:#47A4AD}
    .fil4 {fill:#57C5CF}
    .fil2 {fill:#647882}
    .fil3 {fill:white}
    .fil1 {fill:black;fill-rule:nonzero}
   ]]>
  </style>
 </defs>
 <g id="Layer_x0020_1">
  <metadata id="CorelCorpID_0Corel-Layer"/>
  <path class="fil0" d="M3443 3291c87,0 157,93 157,208 0,115 -70,1460 -157,1460 -87,0 -157,-1345 -157,-1460 0,-115 70,-208 157,-208l0 0z"/>
  <path class="fil0" d="M3443 2892c87,0 157,93 157,208 0,115 -70,208 -157,208 -87,0 -157,-93 -157,-208 0,-115 70,-208 157,-208z"/>
  <path class="fil1" d="M3458 2918c0,-2 146,-660 485,-1167l16 11c-232,347 -338,632 -501,1157l0 0z"/>
  <path class="fil0" d="M3983 1714c8,6 2,28 -14,48 -16,21 -35,32 -43,26 -8,-6 -2,-28 14,-48 16,-21 35,-32 43,-26z"/>
  <path class="fil1" d="M3428 2918c0,-2 -146,-660 -485,-1167l-16 11c232,347 338,632 501,1157l0 0z"/>
  <path class="fil0" d="M2902 1714c-8,6 -2,28 14,48 16,21 35,32 43,26 8,-6 2,-28 -14,-48 -16,-21 -35,-32 -43,-26z"/>
  <path class="fil0" d="M3495 3535c234,-761 1282,-2449 2113,-2559 953,-126 1062,1275 899,1922 -157,625 -932,729 -1371,775 155,42 394,110 574,300 257,269 399,905 -41,1383 -263,286 -633,679 -1242,491 -399,-123 -523,-292 -772,-838 -336,-736 -199,-1351 -161,-1475l0 0z"/>
  <path class="fil2" d="M6519 2848c-4,17 -8,34 -12,50 -23,92 -59,172 -106,243 -139,-144 -437,-103 -437,-103 0,0 57,-3 259,-44 199,-40 292,-142 295,-146l0 0z"/>
  <path class="fil2" d="M6568 2240c5,143 -1,283 -16,410 -121,-152 -505,-12 -505,-12 0,0 104,-47 313,-142 198,-90 208,-240 208,-255l0 0z"/>
  <path class="fil2" d="M6484 1674c41,142 66,295 77,447 -266,-124 -654,92 -654,92 0,0 111,-82 345,-224 228,-138 232,-306 232,-315l0 0z"/>
  <path class="fil3" d="M3604 3771c0,0 920,319 1043,377 123,57 66,83 -78,137 -143,54 -228,3 -289,-35 -61,-38 -677,-478 -677,-478l0 0z"/>
  <path class="fil3" d="M3604 3771c0,0 592,465 669,522 77,57 59,183 -28,376 -87,193 -382,-413 -640,-898l0 0z"/>
  <path class="fil4" d="M4475 2255c0,0 537,-1245 858,-1067 321,178 -858,1067 -858,1067l0 0z"/>
  <path class="fil4" d="M4686 2377c115,-226 791,-1224 1022,-932 231,292 -767,844 -1022,932l0 0z"/>
  <path class="fil4" d="M4901 2595c0,0 839,-1124 1047,-718 208,406 -1047,718 -1047,718l0 0z"/>
  <path class="fil4" d="M5033 2832c0,0 951,-888 1075,-466 124,423 -1075,466 -1075,466l0 0z"/>
  <path class="fil4" d="M5122 3018c0,0 1065,-541 1031,-199 -34,342 -1031,199 -1031,199l0 0z"/>
  <path class="fil4" d="M5132 3235c0,0 1056,-340 933,-40 -123,299 -933,40 -933,40l0 0z"/>
  <path class="fil4" d="M5143 3380c0,0 802,-74 645,85 -156,159 -645,-85 -645,-85l0 0z"/>
  <path class="fil4" d="M5286 4101c0,0 608,-57 578,261 -30,319 -578,-261 -578,-261l0 0z"/>
  <path class="fil4" d="M5279 3962c0,0 322,-97 429,79 107,176 -429,-79 -429,-79l0 0z"/>
  <path class="fil4" d="M5234 4369c0,0 692,32 593,288 -99,255 -593,-288 -593,-288l0 0z"/>
  <path class="fil4" d="M5154 4565c0,0 715,113 552,376 -163,264 -552,-376 -552,-376l0 0z"/>
  <path class="fil4" d="M5050 4749c0,0 675,247 455,474 -221,227 -455,-474 -455,-474l0 0z"/>
  <path class="fil4" d="M4905 4931c0,0 596,316 352,514 -245,199 -352,-514 -352,-514l0 0z"/>
  <path class="fil4" d="M4720 5057c0,0 515,436 221,572 -293,136 -221,-572 -221,-572l0 0z"/>
  <path class="fil4" d="M4509 5160c0,0 414,512 134,569 -279,57 -134,-569 -134,-569l0 0z"/>
  <path class="fil4" d="M4307 5216c0,0 308,531 64,539 -244,9 -64,-539 -64,-539l0 0z"/>
  <path class="fil4" d="M4155 5232c0,0 139,474 30,460 -109,-14 -211,-97 -30,-460l0 0z"/>
  <path class="fil4" d="M3994 5222c0,0 49,322 7,317 -42,-5 -126,-116 -109,-174 16,-58 102,-143 102,-143l0 0z"/>
  <path class="fil5" d="M3611 3731c165,-55 1724,-186 1596,258 -128,444 -1250,-242 -1596,-258l0 0z"/>
  <path class="fil5" d="M3588 3783c0,0 25,677 123,1036 99,358 388,427 460,203 72,-224 -475,-755 -583,-1239l0 0z"/>
  <path class="fil3" d="M4761 4146c0,0 417,24 357,138 -60,113 -357,-138 -357,-138l0 0z"/>
  <path class="fil3" d="M4785 4246c-69,-29 -105,11 -188,52 -80,40 -52,76 2,112 54,36 313,216 345,170 79,-113 112,-211 75,-231 -37,-20 -234,-103 -234,-103l0 0z"/>
  <path class="fil3" d="M4317 4302c0,0 644,254 514,431 -130,177 -514,-431 -514,-431l0 0z"/>
  <path class="fil3" d="M4247 4739c16,-65 103,-317 146,-261 43,56 184,227 246,328 62,101 -234,271 -264,229 -53,-72 -144,-231 -128,-296l0 0z"/>
  <path class="fil3" d="M4098 4658c0,0 338,392 217,443 -121,51 -85,-156 -217,-443l0 0z"/>
  <path class="fil3" d="M3615 3650c678,-46 1480,-19 1406,-369 -73,-350 -602,-70 -1406,369l0 0z"/>
  <path class="fil3" d="M3615 3650c0,0 789,-794 852,-1039 63,-246 -215,-292 -345,-149 -130,143 -419,725 -507,1189l0 0z"/>
  <path class="fil3" d="M3803 3500c0,0 488,-203 524,-291 37,-88 17,-247 -10,-254 -27,-7 -283,286 -515,545l0 0z"/>
  <path class="fil3" d="M4372 2871c5,-54 272,-294 305,-259 33,34 284,337 208,389 -76,52 -510,256 -514,162 -4,-94 -6,-238 0,-292l0 0z"/>
  <path class="fil3" d="M6416 1639c-3,-30 -23,-53 -44,-51 -21,2 -35,29 -32,59 3,30 23,53 44,51 21,-2 35,-29 32,-59z"/>
  <path class="fil3" d="M6483 2873c12,-28 5,-57 -15,-65 -20,-8 -45,8 -56,36 -12,28 -5,57 15,65 20,8 45,-8 56,-36z"/>
  <path class="fil3" d="M6427 2326c5,-19 20,-32 33,-28 13,3 20,22 15,41 -5,19 -20,32 -33,28 -13,-3 -20,-22 -15,-41z"/>
  <path class="fil3" d="M6058 3247c19,-6 38,0 42,13 4,13 -8,29 -27,35 -19,6 -38,0 -42,-13 -4,-13 8,-29 27,-35z"/>
  <path class="fil3" d="M6399 2096c-8,-28 2,-55 21,-60 19,-5 41,13 49,41 8,28 -2,54 -21,60 -19,5 -41,-13 -49,-41z"/>
  <path class="fil3" d="M6238 3101c20,-21 47,-27 62,-14 15,14 11,42 -9,63 -19,21 -47,27 -62,14 -15,-14 -11,-42 9,-63z"/>
  <path class="fil3" d="M6463 1977c-14,-14 -33,-18 -43,-8 -10,10 -6,29 8,43 14,14 33,18 43,8 10,-10 6,-29 -8,-43z"/>
  <path class="fil3" d="M6372 3092c4,-19 -3,-38 -16,-41 -13,-3 -28,10 -32,29 -5,19 3,38 16,41 13,3 28,-10 32,-29z"/>
  <path class="fil3" d="M6302 1561c-5,-25 -22,-42 -40,-39 -17,3 -28,26 -23,51 5,25 22,42 40,39 17,-3 28,-26 23,-51z"/>
  <path class="fil3" d="M6419 2750c8,-24 1,-48 -16,-53 -17,-5 -37,10 -44,34 -8,24 -1,48 16,53 17,5 37,-10 44,-34z"/>
  <path class="fil3" d="M6481 2277c5,-16 18,-25 29,-22 11,4 15,19 10,35 -5,16 -19,25 -29,22 -11,-4 -15,-19 -10,-35z"/>
  <path class="fil3" d="M6128 3267c16,-4 31,2 34,13 3,11 -8,23 -24,27 -16,4 -31,-2 -34,-13 -3,-11 8,-23 24,-27z"/>
  <path class="fil3" d="M6493 2538c5,-16 19,-25 29,-22 11,4 15,19 10,35 -5,16 -19,25 -29,22 -11,-4 -15,-19 -10,-35z"/>
  <path class="fil3" d="M5913 3416c16,-4 31,2 34,13 3,11 -8,23 -24,27 -16,4 -31,-2 -34,-13 -3,-11 8,-23 24,-27z"/>
  <path class="fil3" d="M6391 1963c-12,-11 -29,-13 -36,-4 -8,9 -4,24 9,35 13,11 29,13 36,4 8,-9 3,-24 -9,-35z"/>
  <path class="fil3" d="M6346 3024c3,-16 -5,-31 -16,-33 -11,-2 -23,10 -25,26 -3,16 5,31 16,33 11,2 23,-10 25,-26z"/>
  <path class="fil3" d="M6420 2221c5,-14 17,-23 27,-19 10,3 14,18 9,32 -5,14 -17,23 -27,19 -10,-3 -14,-17 -9,-32z"/>
  <path class="fil3" d="M6143 3186c15,-3 28,2 31,12 2,10 -8,21 -22,24 -15,3 -28,-2 -31,-12 -2,-10 7,-21 22,-24z"/>
  <path class="fil3" d="M6379 1877c-2,-15 6,-28 16,-29 10,-1 20,10 21,25 2,15 -5,28 -16,29 -10,1 -20,-10 -21,-25z"/>
  <path class="fil3" d="M6336 3064c6,-14 18,-22 28,-18 10,4 13,18 7,32 -6,14 -18,22 -28,18 -10,-4 -13,-18 -7,-32z"/>
  <path class="fil3" d="M6481 2134c5,-14 17,-23 27,-19 10,3 14,17 9,32 -5,14 -17,23 -27,19 -10,-3 -14,-18 -9,-32z"/>
  <path class="fil3" d="M6250 3191c15,-3 28,2 31,12 2,10 -8,21 -22,24 -15,3 -28,-2 -31,-12 -2,-10 7,-21 22,-24z"/>
  <path class="fil3" d="M6397 1772c-2,-15 6,-28 16,-29 10,-1 20,10 21,25 2,15 -6,28 -16,29 -10,1 -20,-10 -22,-25z"/>
  <path class="fil3" d="M6403 2981c6,-14 18,-22 28,-18 10,4 13,18 7,32 -6,14 -18,22 -28,18 -10,-4 -13,-18 -7,-32z"/>
  <path class="fil3" d="M6505 2620c-19,-2 -37,22 -41,53 -3,31 9,59 29,61 19,2 37,-22 41,-53 3,-31 -9,-59 -29,-61z"/>
  <path class="fil3" d="M6519 2420c16,7 26,18 23,26 -3,7 -19,8 -34,1 -16,-7 -26,-18 -23,-26 3,-7 19,-8 34,-1z"/>
  <path class="fil3" d="M6028 3375c3,17 -2,32 -10,33 -8,1 -17,-12 -19,-29 -3,-17 2,-32 10,-33 8,-1 17,12 19,29z"/>
  <path class="fil3" d="M5533 5354c16,-26 15,-56 -3,-67 -18,-11 -45,1 -62,26 -16,26 -15,56 3,67 18,11 45,-1 62,-26z"/>
  <path class="fil3" d="M5301 5655c25,-17 35,-46 23,-63 -12,-17 -42,-17 -67,0 -25,17 -35,46 -23,63 12,17 42,17 67,0z"/>
  <path class="fil3" d="M5591 5236c16,-12 35,-13 44,-2 8,11 2,30 -13,42 -16,12 -35,13 -44,2 -8,-11 -2,-30 14,-42z"/>
  <path class="fil3" d="M4742 5742c19,5 32,20 28,33 -4,13 -22,20 -41,15 -19,-5 -32,-20 -28,-33 4,-13 22,-20 41,-15z"/>
  <path class="fil3" d="M5711 5038c11,-26 35,-42 54,-34 18,8 24,36 13,62 -11,26 -35,42 -54,34 -18,-8 -24,-36 -13,-62z"/>
  <path class="fil3" d="M4972 5716c28,-7 55,2 60,22 5,19 -13,41 -41,48 -28,7 -54,-2 -60,-22 -5,-19 13,-41 41,-48z"/>
  <path class="fil3" d="M5834 4984c-2,-20 -15,-34 -29,-33 -14,2 -23,19 -21,39 2,20 15,34 29,33 14,-2 23,-19 21,-39z"/>
  <path class="fil3" d="M5090 5780c14,-14 18,-33 8,-43 -10,-10 -29,-7 -43,7 -14,14 -18,33 -8,43 10,10 29,7 43,-7z"/>
  <path class="fil3" d="M5920 4698c12,-22 9,-47 -7,-55 -16,-8 -38,3 -49,26 -12,22 -9,47 7,55 16,8 38,-3 49,-26z"/>
  <path class="fil3" d="M5314 5517c20,-16 26,-40 15,-54 -11,-14 -36,-12 -56,5 -20,16 -26,40 -15,54 11,14 36,12 56,-5z"/>
  <path class="fil3" d="M5663 5231c14,-9 30,-8 36,1 6,10 0,25 -14,34 -14,9 -30,8 -36,-1 -6,-10 0,-25 14,-34z"/>
  <path class="fil3" d="M4790 5797c16,5 25,19 21,30 -4,11 -20,15 -35,10 -16,-6 -25,-19 -21,-30 4,-11 20,-15 35,-10z"/>
  <path class="fil3" d="M5511 5444c14,-9 30,-8 36,1 6,10 0,25 -14,34 -14,9 -30,8 -36,-1 -6,-10 0,-25 14,-34z"/>
  <path class="fil3" d="M4529 5807c16,5 25,19 21,30 -4,11 -20,15 -35,10 -16,-6 -25,-19 -21,-30 4,-11 20,-15 35,-10z"/>
  <path class="fil3" d="M5787 4928c-3,-16 -15,-28 -26,-25 -11,2 -18,17 -15,33 3,16 15,28 26,25 11,-2 18,-17 15,-33z"/>
  <path class="fil3" d="M5105 5709c11,-12 13,-29 4,-36 -9,-8 -24,-4 -35,9 -11,12 -13,29 -4,36 9,8 24,4 35,-9z"/>
  <path class="fil3" d="M5650 5150c13,-8 27,-8 33,1 6,9 0,22 -12,30 -13,8 -27,8 -33,-1 -6,-9 0,-22 12,-30z"/>
  <path class="fil3" d="M4847 5736c14,5 23,17 19,27 -3,10 -18,14 -32,9 -14,-5 -23,-17 -19,-27 3,-10 18,-14 32,-9z"/>
  <path class="fil3" d="M5830 4853c8,-13 22,-18 30,-13 9,6 9,20 2,33 -8,13 -21,18 -30,13 -9,-6 -9,-20 -2,-33z"/>
  <path class="fil3" d="M5074 5738c12,-9 27,-9 33,0 6,8 1,22 -11,31 -12,9 -27,9 -33,0 -6,-9 -1,-22 11,-31z"/>
  <path class="fil3" d="M5752 5119c13,-8 27,-8 33,1 6,9 0,22 -13,30 -13,8 -27,8 -33,-1 -6,-9 0,-22 12,-30z"/>
  <path class="fil3" d="M4934 5798c14,5 23,17 19,27 -3,10 -18,14 -32,9 -14,-5 -23,-17 -19,-27 3,-10 18,-14 32,-9z"/>
  <path class="fil3" d="M5873 4896c8,-13 21,-18 30,-13 9,5 9,20 2,33 -8,13 -21,18 -30,13 -9,-6 -9,-20 -2,-33z"/>
  <path class="fil3" d="M5176 5703c12,-9 27,-9 33,0 6,8 1,22 -11,31 -12,9 -27,9 -33,0 -6,-8 -1,-22 11,-31z"/>
  <path class="fil3" d="M5457 5454c-15,-12 -43,-2 -63,23 -20,25 -24,54 -9,66 15,12 43,2 63,-23 20,-25 24,-54 9,-66z"/>
  <path class="fil3" d="M5605 5366c8,15 9,31 2,34 -7,4 -20,-5 -28,-20 -8,-15 -9,-31 -2,-34 7,-4 20,5 28,20z"/>
  <path class="fil3" d="M4648 5833c-7,16 -19,26 -26,23 -7,-3 -8,-19 -1,-35 7,-16 19,-26 26,-23 7,3 8,19 1,34z"/>
  <path class="fil2" d="M6141 1105c146,113 249,286 317,485 -319,-204 -759,185 -759,185 0,0 135,-116 309,-278 171,-159 134,-385 133,-393l0 0z"/>
  <path class="fil2" d="M6227 1428c-14,-14 -17,-34 -7,-43 10,-10 29,-6 43,8 14,14 17,34 7,43 -10,10 -29,6 -43,-8l0 0z"/>
  <path class="fil2" d="M6213 1228c-5,-25 -22,-42 -40,-39 -17,3 -28,26 -23,51 5,25 22,42 40,39 17,-3 28,-26 23,-51l0 0z"/>
  <path class="fil2" d="M6214 1356c-11,-13 -12,-29 -3,-36 9,-7 25,-3 35,10 11,13 12,29 3,36 -9,7 -25,3 -35,-10l0 0z"/>
  <path class="fil2" d="M6135 1379c-10,-11 -11,-26 -3,-33 8,-7 22,-3 32,9 10,11 11,26 3,33 -8,7 -22,3 -32,-9l0 0z"/>
  <path class="fil2" d="M6316 1405c18,-7 42,10 54,40 12,29 7,59 -10,66 -18,7 -42,-10 -54,-40 -12,-29 -7,-59 10,-66l0 0z"/>
  <path class="fil2" d="M6289 1533c-8,-9 -17,-13 -27,-12 -6,1 -11,5 -15,10 14,0 28,1 42,2l0 0z"/>
  <path class="fil2" d="M5505 997c35,-10 69,-17 103,-22 148,-19 276,-2 386,44 -353,68 -643,446 -643,446 0,0 69,-91 149,-243 41,-78 28,-162 5,-225l0 0z"/>
  <path class="fil2" d="M5590 1024c-20,-3 -37,6 -39,20 -2,14 13,27 32,30 20,3 37,-6 39,-20 2,-14 -13,-27 -32,-30l0 0z"/>
  <path class="fil2" d="M5688 979c-20,-3 -37,6 -39,20 -2,14 13,27 32,30 20,3 37,-6 39,-20 2,-14 -13,-27 -32,-30l0 0z"/>
  <path class="fil2" d="M5810 1052c0,9 7,18 17,24 31,-14 63,-27 95,-37 -8,-14 -30,-24 -56,-23 -32,1 -57,17 -56,36l0 0z"/>
  <path class="fil3" d="M6227 1428c-14,-14 -17,-34 -7,-43 10,-10 29,-6 43,8 14,14 17,34 7,43 -10,10 -29,6 -43,-8z"/>
  <path class="fil3" d="M6213 1228c-5,-25 -22,-42 -40,-39 -17,3 -28,26 -23,51 5,25 22,42 40,39 17,-3 28,-26 23,-51z"/>
  <path class="fil3" d="M6214 1356c-11,-13 -12,-29 -3,-36 9,-7 25,-3 35,10 11,13 12,29 3,36 -9,7 -25,3 -35,-10z"/>
  <path class="fil3" d="M6135 1379c-10,-11 -11,-26 -3,-33 8,-7 22,-3 32,9 10,11 11,26 3,33 -8,7 -22,3 -32,-9z"/>
  <path class="fil3" d="M6092 1281c-10,-11 -11,-26 -3,-33 8,-7 22,-3 32,9 10,11 11,26 3,33 -8,7 -22,3 -32,-9z"/>
  <path class="fil3" d="M6316 1405c-18,7 -22,37 -10,66 12,29 36,47 54,40 18,-7 22,-37 10,-66 -12,-29 -36,-47 -54,-40z"/>
  <path class="fil3" d="M5590 1024c-20,-3 -37,6 -39,20 -2,14 13,27 32,30 20,3 37,-6 39,-20 2,-14 -13,-27 -32,-30z"/>
  <path class="fil3" d="M5688 979c-20,-3 -37,6 -39,20 -2,14 13,27 32,30 20,3 37,-6 39,-20 2,-14 -13,-27 -32,-30z"/>
  <path class="fil3" d="M5974 1128c-25,6 -48,-3 -52,-20 -4,-17 12,-36 37,-42 25,-6 48,3 52,20 4,17 -12,36 -37,42z"/>
  <path class="fil3" d="M5464 1050c-15,-2 -28,5 -29,16 -1,10 10,20 25,22 15,2 28,-5 29,-16 1,-10 -10,-20 -25,-22z"/>
  <path class="fil3" d="M5810 1052c-1,-19 25,-36 56,-36 32,-1 58,14 58,33 1,19 -25,36 -56,37 -32,1 -58,-14 -58,-33z"/>
  <path class="fil3" d="M6029 1143c-8,-29 2,-58 22,-63 20,-6 43,14 51,43 8,29 -2,57 -22,63 -20,6 -43,-14 -51,-43z"/>
  <path class="fil0" d="M3390 3535c-234,-761 -1282,-2449 -2113,-2559 -953,-126 -1062,1275 -899,1922 157,625 932,729 1371,775 -155,42 -394,110 -574,300 -257,269 -399,905 41,1383 263,286 633,679 1242,491 399,-123 523,-292 772,-838 336,-736 199,-1351 161,-1475l0 0z"/>
  <path class="fil2" d="M366 2848c4,17 8,34 12,50 23,92 59,172 106,243 139,-144 437,-103 437,-103 0,0 -57,-3 -259,-44 -199,-40 -292,-142 -295,-146l0 0z"/>
  <path class="fil2" d="M317 2240c-5,143 1,283 16,410 121,-152 505,-12 505,-12 0,0 -104,-47 -313,-142 -198,-90 -208,-240 -208,-255l0 0z"/>
  <path class="fil2" d="M401 1674c-41,142 -66,295 -77,447 266,-124 654,92 654,92 0,0 -111,-82 -345,-224 -228,-138 -232,-306 -232,-315l0 0z"/>
  <path class="fil3" d="M3282 3771c0,0 -920,319 -1043,377 -123,57 -66,83 78,137 143,54 228,3 289,-35 61,-38 677,-478 677,-478l0 0z"/>
  <path class="fil3" d="M3282 3771c0,0 -592,465 -669,522 -77,57 -59,183 28,376 87,193 382,-413 640,-898l0 0z"/>
  <path class="fil4" d="M2410 2255c0,0 -537,-1245 -858,-1067 -321,178 858,1067 858,1067l0 0z"/>
  <path class="fil4" d="M2200 2377c-115,-226 -791,-1224 -1022,-932 -231,292 767,844 1022,932l0 0z"/>
  <path class="fil4" d="M1985 2595c0,0 -839,-1124 -1047,-718 -208,406 1047,718 1047,718l0 0z"/>
  <path class="fil4" d="M1853 2832c0,0 -951,-888 -1075,-466 -124,423 1075,466 1075,466l0 0z"/>
  <path class="fil4" d="M1763 3018c0,0 -1065,-541 -1031,-199 34,342 1031,199 1031,199l0 0z"/>
  <path class="fil4" d="M1753 3235c0,0 -1056,-340 -933,-40 123,299 933,40 933,40l0 0z"/>
  <path class="fil4" d="M1742 3380c0,0 -802,-74 -645,85 156,159 645,-85 645,-85l0 0z"/>
  <path class="fil4" d="M1600 4101c0,0 -608,-57 -578,261 30,319 578,-261 578,-261l0 0z"/>
  <path class="fil4" d="M1606 3962c0,0 -322,-97 -429,79 -107,176 429,-79 429,-79l0 0z"/>
  <path class="fil4" d="M1651 4369c0,0 -692,32 -593,288 99,255 593,-288 593,-288l0 0z"/>
  <path class="fil4" d="M1731 4565c0,0 -715,113 -552,376 163,264 552,-376 552,-376l0 0z"/>
  <path class="fil4" d="M1836 4749c0,0 -675,247 -455,474 221,227 455,-474 455,-474l0 0z"/>
  <path class="fil4" d="M1980 4931c0,0 -596,316 -352,514 245,199 352,-514 352,-514l0 0z"/>
  <path class="fil4" d="M2165 5057c0,0 -515,436 -221,572 293,136 221,-572 221,-572l0 0z"/>
  <path class="fil4" d="M2377 5160c0,0 -414,512 -134,569 279,57 134,-569 134,-569l0 0z"/>
  <path class="fil4" d="M2579 5216c0,0 -308,531 -64,539 244,9 64,-539 64,-539l0 0z"/>
  <path class="fil4" d="M2731 5232c0,0 -139,474 -30,460 109,-14 211,-97 30,-460l0 0z"/>
  <path class="fil4" d="M2891 5222c0,0 -49,322 -7,317 42,-5 126,-116 109,-174 -16,-58 -102,-143 -102,-143l0 0z"/>
  <path class="fil5" d="M3275 3731c-165,-55 -1724,-186 -1596,258 128,444 1250,-242 1596,-258l0 0z"/>
  <path class="fil5" d="M3297 3783c0,0 -25,677 -123,1036 -99,358 -388,427 -460,203 -72,-224 475,-755 583,-1239l0 0z"/>
  <path class="fil3" d="M2124 4146c0,0 -417,24 -357,138 60,113 357,-138 357,-138l0 0z"/>
  <path class="fil3" d="M2100 4246c68,-29 105,11 188,52 80,40 52,76 -2,112 -54,36 -313,216 -345,170 -79,-113 -112,-211 -75,-231 37,-20 234,-103 234,-103l0 0z"/>
  <path class="fil3" d="M2568 4302c0,0 -644,254 -514,431 130,177 514,-431 514,-431l0 0z"/>
  <path class="fil3" d="M2638 4739c-16,-65 -103,-317 -146,-261 -43,56 -184,227 -246,328 -62,101 234,271 264,229 53,-72 144,-231 128,-296l0 0z"/>
  <path class="fil3" d="M2787 4658c0,0 -338,392 -217,443 121,51 85,-156 217,-443l0 0z"/>
  <path class="fil3" d="M3271 3650c-678,-46 -1480,-19 -1406,-369 73,-350 602,-70 1406,369l0 0z"/>
  <path class="fil3" d="M3271 3650c0,0 -789,-794 -852,-1039 -63,-246 215,-292 345,-149 130,143 419,725 507,1189l0 0z"/>
  <path class="fil3" d="M3083 3500c0,0 -488,-203 -524,-291 -37,-88 -17,-247 10,-254 27,-7 283,286 515,545l0 0z"/>
  <path class="fil3" d="M2514 2871c-5,-54 -272,-294 -305,-259 -33,34 -284,337 -208,389 76,52 510,256 514,162 4,-94 6,-238 0,-292l0 0z"/>
  <path class="fil3" d="M469 1639c3,-30 23,-53 44,-51 21,2 35,29 32,59 -3,30 -23,53 -44,51 -21,-2 -35,-29 -32,-59z"/>
  <path class="fil3" d="M403 2873c-12,-28 -5,-57 15,-65 20,-8 45,8 56,36 12,28 5,57 -15,65 -20,8 -45,-8 -56,-36z"/>
  <path class="fil3" d="M459 2326c-5,-19 -20,-32 -33,-28 -13,3 -20,22 -15,41 5,19 20,32 33,28 13,-3 20,-22 15,-41z"/>
  <path class="fil3" d="M827 3247c-19,-6 -38,0 -42,13 -4,13 8,29 27,35 19,6 38,0 42,-13 4,-13 -8,-29 -27,-35z"/>
  <path class="fil3" d="M487 2096c8,-28 -2,-55 -21,-60 -19,-5 -41,13 -49,41 -8,28 2,54 21,60 19,5 41,-13 49,-41z"/>
  <path class="fil3" d="M647 3101c-19,-21 -47,-27 -62,-14 -15,14 -11,42 9,63 19,21 47,27 62,14 15,-14 11,-42 -9,-63z"/>
  <path class="fil3" d="M423 1977c14,-14 33,-18 43,-8 10,10 6,29 -8,43 -14,14 -33,18 -43,8 -10,-10 -6,-29 8,-43z"/>
  <path class="fil3" d="M513 3092c-5,-19 3,-38 16,-41 13,-3 28,10 33,29 4,19 -3,38 -16,41 -13,3 -28,-10 -32,-29z"/>
  <path class="fil3" d="M584 1561c5,-25 22,-42 40,-39 17,3 28,26 23,51 -5,25 -22,42 -40,39 -17,-3 -28,-26 -23,-51z"/>
  <path class="fil3" d="M466 2750c-8,-24 -1,-48 16,-53 17,-5 37,10 44,34 8,24 1,48 -16,53 -17,5 -37,-10 -44,-34z"/>
  <path class="fil3" d="M404 2277c-5,-16 -18,-25 -29,-22 -11,4 -15,19 -10,35 5,16 19,25 29,22 11,-4 15,-19 10,-35z"/>
  <path class="fil3" d="M757 3267c-16,-4 -31,2 -34,13 -3,11 8,23 24,27 16,4 31,-2 34,-13 3,-11 -8,-23 -24,-27z"/>
  <path class="fil3" d="M392 2538c-5,-16 -19,-25 -29,-22 -11,4 -15,19 -10,35 5,16 18,25 29,22 11,-4 15,-19 10,-35z"/>
  <path class="fil3" d="M972 3416c-16,-4 -31,2 -34,13 -3,11 8,23 24,27 16,4 31,-2 34,-13 3,-11 -8,-23 -24,-27z"/>
  <path class="fil3" d="M495 1963c13,-11 29,-13 36,-4 8,9 3,24 -9,35 -12,11 -29,13 -36,4 -8,-9 -3,-24 9,-35z"/>
  <path class="fil3" d="M539 3024c-3,-16 5,-31 16,-33 11,-2 23,10 25,26 3,16 -5,31 -16,33 -11,2 -23,-10 -25,-26z"/>
  <path class="fil3" d="M466 2221c-5,-14 -17,-23 -27,-19 -10,3 -14,18 -9,32 5,14 17,23 27,19 10,-3 14,-17 9,-32z"/>
  <path class="fil3" d="M743 3186c-15,-3 -28,2 -31,12 -2,10 7,21 22,24 14,3 28,-2 31,-12 2,-10 -7,-21 -22,-24z"/>
  <path class="fil3" d="M507 1877c2,-15 -6,-28 -16,-29 -10,-1 -20,10 -22,25 -2,15 6,28 16,29 10,1 20,-10 22,-25z"/>
  <path class="fil3" d="M550 3064c-6,-14 -18,-22 -28,-18 -10,4 -13,18 -7,32 6,14 18,22 28,18 10,-4 13,-18 7,-32z"/>
  <path class="fil3" d="M404 2134c-5,-14 -17,-23 -27,-19 -10,3 -14,17 -9,32 5,14 17,23 27,19 10,-3 14,-18 9,-32z"/>
  <path class="fil3" d="M636 3191c-15,-3 -28,2 -31,12 -2,10 7,21 22,24 14,3 28,-2 31,-12 2,-10 -7,-21 -22,-24z"/>
  <path class="fil3" d="M488 1772c2,-15 -6,-28 -16,-29 -10,-1 -20,10 -22,25 -2,15 6,28 16,29 10,1 20,-10 22,-25z"/>
  <path class="fil3" d="M483 2981c-6,-14 -18,-22 -28,-18 -10,4 -13,18 -7,32 6,14 18,22 28,18 10,-4 13,-18 7,-32z"/>
  <path class="fil3" d="M380 2620c19,-2 37,22 41,53 3,31 -9,59 -29,61 -19,2 -37,-22 -41,-53 -3,-31 9,-59 29,-61z"/>
  <path class="fil3" d="M367 2420c-16,7 -26,18 -23,26 3,7 19,8 34,1 16,-7 26,-18 23,-26 -3,-7 -19,-8 -34,-1z"/>
  <path class="fil3" d="M858 3375c-3,17 2,32 10,33 8,1 17,-12 19,-29 3,-17 -2,-32 -10,-33 -8,-1 -17,12 -19,29z"/>
  <path class="fil3" d="M1352 5354c-16,-26 -15,-56 3,-67 18,-11 45,1 62,26 16,26 15,56 -3,67 -18,11 -45,-1 -62,-26z"/>
  <path class="fil3" d="M1584 5655c-25,-17 -35,-46 -23,-63 12,-17 42,-17 67,0 25,17 35,46 23,63 -12,17 -42,17 -67,0z"/>
  <path class="fil3" d="M1295 5236c-16,-12 -35,-13 -44,-2 -8,11 -2,30 13,42 16,12 35,13 44,2 8,-11 2,-30 -13,-42z"/>
  <path class="fil3" d="M2143 5742c-19,5 -32,20 -28,33 4,13 22,20 41,15 19,-5 32,-20 28,-33 -4,-13 -22,-20 -41,-15z"/>
  <path class="fil3" d="M1175 5038c-11,-26 -35,-42 -54,-34 -18,8 -24,36 -13,62 11,26 35,42 54,34 18,-8 24,-36 13,-62z"/>
  <path class="fil3" d="M1913 5716c-28,-7 -55,2 -60,22 -5,19 13,41 41,48 28,7 54,-2 60,-22 5,-19 -13,-41 -41,-48z"/>
  <path class="fil3" d="M1051 4984c2,-20 15,-34 29,-33 14,2 23,19 21,39 -2,20 -15,34 -29,33 -14,-2 -23,-19 -21,-39z"/>
  <path class="fil3" d="M1795 5780c-14,-14 -18,-33 -8,-43 10,-10 29,-7 43,7 14,14 18,33 8,43 -10,10 -29,7 -43,-7z"/>
  <path class="fil3" d="M966 4698c-12,-22 -9,-47 7,-55 16,-8 38,3 49,26 12,22 9,47 -7,55 -16,8 -38,-3 -49,-26z"/>
  <path class="fil3" d="M1571 5517c-20,-16 -26,-40 -15,-54 11,-14 36,-12 56,5 19,16 26,40 15,54 -11,14 -36,12 -56,-5z"/>
  <path class="fil3" d="M1222 5231c-14,-9 -30,-8 -36,1 -6,10 0,25 14,34 14,9 30,8 36,-1 6,-10 0,-25 -14,-34z"/>
  <path class="fil3" d="M2095 5797c-16,5 -25,19 -21,30 4,11 20,15 35,10 16,-6 25,-19 21,-30 -4,-11 -20,-15 -35,-10z"/>
  <path class="fil3" d="M1374 5444c-14,-9 -30,-8 -36,1 -6,10 0,25 14,34 14,9 30,8 36,-1 6,-10 0,-25 -14,-34z"/>
  <path class="fil3" d="M2357 5807c-16,5 -25,19 -21,30 4,11 20,15 35,10 16,-6 25,-19 21,-30 -4,-11 -20,-15 -35,-10z"/>
  <path class="fil3" d="M1099 4928c3,-16 15,-28 26,-25 11,2 18,17 15,33 -3,16 -15,28 -26,25 -11,-2 -18,-17 -15,-33z"/>
  <path class="fil3" d="M1780 5709c-11,-12 -13,-29 -4,-36 9,-8 24,-4 35,9 11,12 13,29 4,36 -9,8 -24,4 -35,-9z"/>
  <path class="fil3" d="M1236 5150c-13,-8 -27,-8 -33,1 -6,9 0,22 12,30 12,8 27,8 33,-1 6,-9 0,-22 -12,-30z"/>
  <path class="fil3" d="M2039 5736c-14,5 -23,17 -19,27 3,10 18,14 32,9 14,-5 23,-17 19,-27 -3,-10 -18,-14 -32,-9z"/>
  <path class="fil3" d="M1055 4853c-8,-13 -22,-18 -30,-13 -9,6 -9,20 -2,33 8,13 21,18 30,13 9,-6 9,-20 2,-33z"/>
  <path class="fil3" d="M1811 5738c-12,-9 -27,-9 -33,0 -6,8 -1,22 11,31 12,9 27,9 33,0 6,-9 1,-22 -11,-31z"/>
  <path class="fil3" d="M1133 5119c-13,-8 -27,-8 -33,1 -6,9 0,22 12,30 13,8 27,8 33,-1 6,-9 0,-22 -12,-30z"/>
  <path class="fil3" d="M1952 5798c-14,5 -23,17 -19,27 3,10 18,14 32,9 14,-5 23,-17 19,-27 -3,-10 -18,-14 -32,-9z"/>
  <path class="fil3" d="M1013 4896c-8,-13 -21,-18 -30,-13 -9,5 -9,20 -1,33 8,13 21,18 30,13 9,-6 9,-20 2,-33z"/>
  <path class="fil3" d="M1710 5703c-12,-9 -27,-9 -33,0 -6,8 -1,22 11,31 12,9 27,9 33,0 6,-8 1,-22 -11,-31z"/>
  <path class="fil3" d="M1429 5454c15,-12 43,-2 63,23 20,25 24,54 9,66 -15,12 -43,2 -63,-23 -20,-25 -24,-54 -9,-66z"/>
  <path class="fil3" d="M1281 5366c-8,15 -9,31 -2,34 7,4 20,-5 28,-20 8,-15 9,-31 2,-34 -7,-4 -20,5 -28,20z"/>
  <path class="fil3" d="M2238 5833c7,16 19,26 26,23 7,-3 8,-19 1,-35 -7,-16 -19,-26 -26,-23 -7,3 -8,19 -1,34z"/>
  <path class="fil2" d="M745 1105c-146,113 -249,286 -317,485 319,-204 759,185 759,185 0,0 -135,-116 -309,-278 -171,-159 -134,-385 -133,-393l0 0z"/>
  <path class="fil2" d="M658 1428c14,-14 17,-34 7,-43 -10,-10 -29,-6 -43,8 -14,14 -17,34 -7,43 10,10 29,6 43,-8l0 0z"/>
  <path class="fil2" d="M673 1228c5,-25 22,-42 40,-39 17,3 28,26 23,51 -5,25 -22,42 -40,39 -17,-3 -28,-26 -23,-51l0 0z"/>
  <path class="fil2" d="M671 1356c11,-13 12,-29 3,-36 -9,-7 -25,-3 -35,10 -11,13 -12,29 -3,36 9,7 25,3 35,-10l0 0z"/>
  <path class="fil2" d="M751 1379c10,-11 11,-26 3,-33 -8,-7 -22,-3 -32,9 -10,11 -11,26 -3,33 8,7 22,3 32,-9l0 0z"/>
  <path class="fil2" d="M570 1405c-18,-7 -42,10 -54,40 -12,29 -7,59 10,66 18,7 42,-10 54,-40 12,-29 7,-59 -10,-66l0 0z"/>
  <path class="fil2" d="M596 1533c8,-9 17,-13 27,-12 6,1 11,5 15,10 -14,0 -28,1 -42,2l0 0z"/>
  <path class="fil2" d="M1380 997c-35,-10 -69,-17 -103,-22 -148,-19 -276,-2 -386,44 353,68 643,446 643,446 0,0 -69,-91 -150,-243 -41,-78 -28,-162 -5,-225l0 0z"/>
  <path class="fil2" d="M1296 1024c20,-3 37,6 39,20 2,14 -13,27 -32,30 -20,3 -37,-6 -39,-20 -2,-14 13,-27 32,-30l0 0z"/>
  <path class="fil2" d="M1197 979c20,-3 37,6 39,20 2,14 -13,27 -32,30 -20,3 -37,-6 -39,-20 -2,-14 13,-27 32,-30l0 0z"/>
  <path class="fil2" d="M1075 1052c0,9 -7,18 -17,24 -31,-14 -63,-27 -95,-37 8,-14 30,-24 55,-23 32,1 57,17 56,36l0 0z"/>
  <path class="fil3" d="M658 1428c14,-14 17,-34 7,-43 -10,-10 -29,-6 -43,8 -14,14 -17,34 -7,43 10,10 29,6 43,-8z"/>
  <path class="fil3" d="M673 1228c5,-25 22,-42 40,-39 17,3 28,26 23,51 -5,25 -22,42 -40,39 -17,-3 -28,-26 -23,-51z"/>
  <path class="fil3" d="M671 1356c11,-13 12,-29 3,-36 -9,-7 -25,-3 -35,10 -11,13 -12,29 -3,36 9,7 25,3 35,-10z"/>
  <path class="fil3" d="M751 1379c10,-11 11,-26 3,-33 -8,-7 -22,-3 -32,9 -10,11 -11,26 -3,33 8,7 22,3 32,-9z"/>
  <path class="fil3" d="M794 1281c10,-11 11,-26 3,-33 -8,-7 -22,-3 -32,9 -10,11 -11,26 -3,33 8,7 22,3 32,-9z"/>
  <path class="fil3" d="M570 1405c18,7 22,37 10,66 -12,29 -36,47 -54,40 -18,-7 -22,-37 -10,-66 12,-29 36,-47 54,-40z"/>
  <path class="fil3" d="M1296 1024c20,-3 37,6 39,20 2,14 -13,27 -32,30 -20,3 -37,-6 -39,-20 -2,-14 13,-27 32,-30z"/>
  <path class="fil3" d="M1197 979c20,-3 37,6 39,20 2,14 -13,27 -32,30 -20,3 -37,-6 -39,-20 -2,-14 13,-27 32,-30z"/>
  <path class="fil3" d="M912 1128c25,6 48,-3 52,-20 4,-17 -12,-36 -37,-42 -25,-6 -48,3 -52,20 -4,17 12,36 37,42z"/>
  <path class="fil3" d="M1421 1050c15,-2 28,5 29,16 1,10 -10,20 -25,22 -15,2 -28,-5 -29,-16 -1,-10 10,-20 25,-22z"/>
  <path class="fil3" d="M1075 1052c1,-19 -25,-36 -56,-36 -32,-1 -58,14 -58,33 -1,19 25,36 56,37 32,1 58,-14 58,-33z"/>
  <path class="fil3" d="M856 1143c8,-29 -2,-58 -22,-63 -20,-6 -43,14 -51,43 -8,29 2,57 22,63 20,6 43,-14 51,-43z"/>
  <polygon class="fil6 str0" points="1,6873 6884,6873 6884,-9 1,-9 "/>
 </g>
</svg>
