<svg width="2874" height="552" xmlns="http://www.w3.org/2000/svg" xmlns:xlink="http://www.w3.org/1999/xlink" xml:space="preserve" overflow="hidden"><defs><clipPath id="clip0"><rect x="765" y="588" width="2874" height="552"/></clipPath></defs><g clip-path="url(#clip0)" transform="translate(-765 -588)"><rect x="1480.5" y="612.5" width="495" height="459" stroke="#000000" stroke-width="6.875" stroke-miterlimit="8" fill="none"/><rect x="1550.5" y="591.5" width="495" height="501" stroke="#FFFFFF" stroke-width="6.875" stroke-miterlimit="8" fill="#FFFFFF"/><rect x="0" y="0" width="495" height="459" stroke="#000000" stroke-width="6.875" stroke-miterlimit="8" fill="none" transform="matrix(-1 0 0 1 3635.5 612.5)"/><rect x="0" y="0" width="495" height="501" stroke="#FFFFFF" stroke-width="6.875" stroke-miterlimit="8" fill="#FFFFFF" transform="matrix(-1 0 0 1 3565.5 591.5)"/><rect x="765" y="659" width="495" height="365" fill="#3B7D23"/><text fill="#FFFFFF" font-family="Arial,Arial_MSFontService,sans-serif" font-weight="700" font-size="64" transform="matrix(1 0 0 1 886.289 865)">Demand</text><rect x="3093" y="659" width="495" height="365" fill="#C04F15"/><text fill="#FFFFFF" font-family="Arial,Arial_MSFontService,sans-serif" font-weight="700" font-size="64" transform="matrix(1 0 0 1 3174.24 826)">Timeseries</text><text fill="#FFFFFF" font-family="Arial,Arial_MSFontService,sans-serif" font-weight="400" font-size="64" transform="matrix(1 0 0 1 3236.12 903)">(Arima)</text><rect x="1515" y="659" width="495" height="365" fill="#156082"/><text fill="#FFFFFF" font-family="Arial,Arial_MSFontService,sans-serif" font-weight="700" font-size="64" transform="matrix(1 0 0 1 1698.4 788)">Low</text><text fill="#FFFFFF" font-family="Arial,Arial_MSFontService,sans-serif" font-weight="700" font-size="64" transform="matrix(1 0 0 1 1609.59 865)">frequency</text><text fill="#FFFFFF" font-family="Arial,Arial_MSFontService,sans-serif" font-weight="400" font-size="64" transform="matrix(1 0 0 1 1694.96 942)">(L/T)</text><rect x="2305" y="659" width="495" height="365" fill="#156082"/><text fill="#FFFFFF" font-family="Arial,Arial_MSFontService,sans-serif" font-weight="700" font-size="64" transform="matrix(1 0 0 1 2481.59 788)">High </text><text fill="#FFFFFF" font-family="Arial,Arial_MSFontService,sans-serif" font-weight="700" font-size="64" transform="matrix(1 0 0 1 2399.94 865)">frequency</text><text fill="#FFFFFF" font-family="Arial,Arial_MSFontService,sans-serif" font-weight="400" font-size="64" transform="matrix(1 0 0 1 2481.59 942)">(S/T)</text><text font-family="Arial,Arial_MSFontService,sans-serif" font-weight="400" font-size="110" transform="matrix(1 0 0 1 1319 882)">= f</text><text font-family="Arial,Arial_MSFontService,sans-serif" font-weight="400" font-size="110" transform="matrix(1 0 0 1 2135.86 882)">+</text><text font-family="Arial,Arial_MSFontService,sans-serif" font-weight="400" font-size="110" transform="matrix(1 0 0 1 2924.19 882)">+</text><text font-family="Aptos,Aptos_MSFontService,sans-serif" font-weight="400" font-size="55" transform="matrix(1 0 0 1 2501.98 1091)">L ≥ 0</text><text font-family="Aptos,Aptos_MSFontService,sans-serif" font-weight="400" font-size="55" transform="matrix(1 0 0 1 1707 1091)">L = 0</text></g></svg>