<svg width="2877" height="508" xmlns="http://www.w3.org/2000/svg" xmlns:xlink="http://www.w3.org/1999/xlink" xml:space="preserve" overflow="hidden"><g transform="translate(-773 -825)"><rect x="1491.5" y="849.5" width="495" height="459" stroke="#000000" stroke-width="6.875" stroke-miterlimit="8" fill="none"/><rect x="1561.5" y="828.5" width="495" height="501" stroke="#FFFFFF" stroke-width="6.875" stroke-miterlimit="8" fill="#FFFFFF"/><rect x="0" y="0" width="495" height="459" stroke="#000000" stroke-width="6.875" stroke-miterlimit="8" fill="none" transform="matrix(-1 0 0 1 3646.5 849.5)"/><rect x="0" y="0" width="495" height="501" stroke="#FFFFFF" stroke-width="6.875" stroke-miterlimit="8" fill="#FFFFFF" transform="matrix(-1 0 0 1 3576.5 828.5)"/><rect x="776.5" y="896.5" width="495" height="365" stroke="#042433" stroke-width="6.875" stroke-miterlimit="8" fill="#3B7D23"/><text fill="#FFFFFF" font-family="Arial,Arial_MSFontService,sans-serif" font-weight="700" font-size="64" transform="matrix(1 0 0 1 897.282 1102)">Demand</text><rect x="3104.5" y="896.5" width="495" height="365" stroke="#042433" stroke-width="6.875" stroke-miterlimit="8" fill="#C04F15"/><text fill="#FFFFFF" font-family="Arial,Arial_MSFontService,sans-serif" font-weight="700" font-size="64" transform="matrix(1 0 0 1 3185.24 1064)">Timeseries</text><text fill="#FFFFFF" font-family="Arial,Arial_MSFontService,sans-serif" font-weight="400" font-size="64" transform="matrix(1 0 0 1 3247.11 1141)">(Arima)</text><rect x="1526.5" y="896.5" width="495" height="365" stroke="#042433" stroke-width="6.875" stroke-miterlimit="8" fill="#156082"/><text fill="#FFFFFF" font-family="Arial,Arial_MSFontService,sans-serif" font-weight="700" font-size="64" transform="matrix(1 0 0 1 1709.39 1025)">Low</text><text fill="#FFFFFF" font-family="Arial,Arial_MSFontService,sans-serif" font-weight="700" font-size="64" transform="matrix(1 0 0 1 1620.59 1102)">frequency</text><text fill="#FFFFFF" font-family="Arial,Arial_MSFontService,sans-serif" font-weight="400" font-size="64" transform="matrix(1 0 0 1 1705.95 1179)">(L/T)</text><rect x="2316.5" y="896.5" width="495" height="365" stroke="#042433" stroke-width="6.875" stroke-miterlimit="8" fill="#156082"/><text fill="#FFFFFF" font-family="Arial,Arial_MSFontService,sans-serif" font-weight="700" font-size="64" transform="matrix(1 0 0 1 2492.58 1025)">High </text><text fill="#FFFFFF" font-family="Arial,Arial_MSFontService,sans-serif" font-weight="700" font-size="64" transform="matrix(1 0 0 1 2410.93 1102)">frequency</text><text fill="#FFFFFF" font-family="Arial,Arial_MSFontService,sans-serif" font-weight="400" font-size="64" transform="matrix(1 0 0 1 2492.58 1179)">(S/T)</text><text font-family="Arial,Arial_MSFontService,sans-serif" font-weight="400" font-size="110" transform="matrix(1 0 0 1 1329.99 1119)">= f</text><text font-family="Arial,Arial_MSFontService,sans-serif" font-weight="400" font-size="110" transform="matrix(1 0 0 1 2146.85 1119)">+</text><text font-family="Arial,Arial_MSFontService,sans-serif" font-weight="400" font-size="110" transform="matrix(1 0 0 1 2935.18 1119)">+</text></g></svg>