<svg width="454" height="236" xmlns="http://www.w3.org/2000/svg" xmlns:xlink="http://www.w3.org/1999/xlink" xml:space="preserve" overflow="hidden"><defs><clipPath id="clip0"><rect x="110" y="341" width="454" height="236"/></clipPath></defs><g clip-path="url(#clip0)" transform="translate(-110 -341)"><path d="M37.9144 430.029 556.743 430.029 556.743 709.398 37.9144 709.398Z" fill="#FFFFFF" transform="matrix(1.00314 0 0 1 5.50941 -89.0292)"/><path d="M300.322 592.662 177.599 592.662 177.599 562.73 300.322 562.73ZM438.011 535.79 177.599 535.79 177.599 505.858 438.011 505.858Z" fill="#006AA7" transform="matrix(1.00314 0 0 1 5.50941 -89.0292)"/><path d="M0 0 0.000104751 113.743" stroke="#D9D9D9" stroke-width="0.997748" stroke-linejoin="round" stroke-miterlimit="10" fill="none" fill-rule="evenodd" transform="matrix(1.00314 0 0 -1 183.165 517.102)"/><text font-family="Arial,Arial_MSFontService,sans-serif" font-weight="400" font-size="15" transform="matrix(1.00088 0 0 0.997747 319.158 495)">30 000 </text><text font-family="Arial,Arial_MSFontService,sans-serif" font-weight="400" font-size="15" transform="matrix(1.00088 0 0 0.997747 456.979 438)">63 400 </text><text font-family="Arial,Arial_MSFontService,sans-serif" font-weight="400" font-size="15" transform="matrix(1.00088 0 0 0.997747 120.869 493)">Sverige</text><text font-family="Arial,Arial_MSFontService,sans-serif" font-weight="400" font-size="15" transform="matrix(1.00088 0 0 0.997747 140.472 437)">USA</text><text fill="#C00000" font-family="Arial,Arial_MSFontService,sans-serif" font-weight="700" font-size="17" transform="matrix(1.00088 0 0 0.997747 190.175 367)">Disponibel</text><text fill="#C00000" font-family="Arial,Arial_MSFontService,sans-serif" font-weight="700" font-size="17" transform="matrix(1.00088 0 0 0.997747 283.657 367)">inkomst</text><text font-family="Arial,Arial_MSFontService,sans-serif" font-weight="700" font-size="17" transform="matrix(1.00088 0 0 0.997747 354.986 367)">/ </text><text font-family="Arial,Arial_MSFontService,sans-serif" font-weight="700" font-size="17" transform="matrix(1.00088 0 0 0.997747 364.622 367)">invånare</text><text font-family="Arial,Arial_MSFontService,sans-serif" font-weight="400" font-size="16" transform="matrix(1.00088 0 0 0.997747 237.864 386)">USD</text><text font-family="Arial,Arial_MSFontService,sans-serif" font-weight="400" font-size="16" transform="matrix(1.00088 0 0 0.997747 271.674 386)">, </text><text font-family="Arial,Arial_MSFontService,sans-serif" font-weight="400" font-size="16" transform="matrix(1.00088 0 0 0.997747 280.573 386)">2025 </text><text font-family="Arial,Arial_MSFontService,sans-serif" font-weight="400" font-size="16" transform="matrix(1.00088 0 0 0.997747 320.656 386)">växelkurs</text><text font-family="Arial,Arial_MSFontService,sans-serif" font-weight="400" font-size="12" transform="matrix(1.00088 0 0 0.997747 182.3 546)">Disponibel</text><text font-family="Arial,Arial_MSFontService,sans-serif" font-weight="400" font-size="12" transform="matrix(1.00088 0 0 0.997747 241.686 546)">inkomst</text><text font-family="Arial,Arial_MSFontService,sans-serif" font-weight="400" font-size="12" transform="matrix(1.00088 0 0 0.997747 286.391 546)">= </text><text font-family="Arial,Arial_MSFontService,sans-serif" font-weight="400" font-size="12" transform="matrix(1.00088 0 0 0.997747 296.734 546)">Inkomst</text><text font-family="Arial,Arial_MSFontService,sans-serif" font-weight="400" font-size="12" transform="matrix(1.00088 0 0 0.997747 342.107 546)">efter</text><text font-family="Arial,Arial_MSFontService,sans-serif" font-weight="400" font-size="12" transform="matrix(1.00088 0 0 0.997747 369.464 546)">skatt</text><text font-family="Arial,Arial_MSFontService,sans-serif" font-weight="400" font-size="12" transform="matrix(1.00088 0 0 0.997747 398.156 546)">(</text><text font-family="Arial,Arial_MSFontService,sans-serif" font-weight="400" font-size="12" transform="matrix(1.00088 0 0 0.997747 402.156 546)">och </text><text font-family="Arial,Arial_MSFontService,sans-serif" font-weight="400" font-size="12" transform="matrix(1.00088 0 0 0.997747 424.847 546)">vissa</text><text font-family="Arial,Arial_MSFontService,sans-serif" font-weight="400" font-size="12" transform="matrix(1.00088 0 0 0.997747 455.54 546)">andra</text><text font-family="Arial,Arial_MSFontService,sans-serif" font-weight="400" font-size="12" transform="matrix(1.00088 0 0 0.997747 489.57 546)">justeringar</text><text font-family="Arial,Arial_MSFontService,sans-serif" font-weight="400" font-size="12" transform="matrix(1.00088 0 0 0.997747 545.619 546)">)</text><text font-family="Arial,Arial_MSFontService,sans-serif" font-weight="400" font-size="12" transform="matrix(1.00088 0 0 0.997747 182.3 560)">Källa</text><text font-family="Arial,Arial_MSFontService,sans-serif" font-weight="400" font-size="12" transform="matrix(1.00088 0 0 0.997747 209.007 560)">: </text><text font-family="Arial,Arial_MSFontService,sans-serif" font-weight="400" font-size="12" transform="matrix(1.00088 0 0 0.997747 215.663 560)">S</text><text font-family="Arial,Arial_MSFontService,sans-serif" font-weight="400" font-size="12" transform="matrix(1.00088 0 0 0.997747 223.674 560)">.</text><text font-family="Arial,Arial_MSFontService,sans-serif" font-weight="400" font-size="12" transform="matrix(1.00088 0 0 0.997747 227.011 560)">Canbäck</text><text font-family="Arial,Arial_MSFontService,sans-serif" font-weight="400" font-size="12" transform="matrix(1.00088 0 0 0.997747 277.718 560)">(</text><text font-family="Arial,Arial_MSFontService,sans-serif" font-weight="400" font-size="12" transform="matrix(1.00088 0 0 0.997747 281.717 560)">Tellusant</text><text font-family="Arial,Arial_MSFontService,sans-serif" font-weight="400" font-size="12" transform="matrix(1.00088 0 0 0.997747 329.12 560)">) </text><text font-family="Arial,Arial_MSFontService,sans-serif" font-weight="400" font-size="12" transform="matrix(1.00088 0 0 0.997747 337.77 560)">analys</text><text font-family="Arial,Arial_MSFontService,sans-serif" font-weight="400" font-size="12" transform="matrix(1.00088 0 0 0.997747 372.467 560)">; </text><text font-family="Arial,Arial_MSFontService,sans-serif" font-weight="400" font-size="12" transform="matrix(1.00088 0 0 0.997747 379.141 560)">TelluBase</text><path d="M0 0.997747-0.498894 0.997747 0.498854 0 0.498854 39.2447-0.498894 38.247 40.9076 38.247 40.9076 40.2425-1.49664 40.2425-1.49664-0.997747 0-0.997747ZM39.5773 35.2537 47.5593 39.2447 39.5773 43.2357Z" transform="matrix(-1.00314 1.22465e-16 1.22849e-16 1 474.588 449.754)"/><text font-family="Calibri,Calibri_MSFontService,sans-serif" font-weight="700" font-size="15" transform="matrix(1.00088 0 0 0.997747 483.734 474)">−</text><text font-family="Arial,Arial_MSFontService,sans-serif" font-weight="700" font-size="15" transform="matrix(1.00088 0 0 0.997747 491.074 474)">53</text><text font-family="Arial,Arial_MSFontService,sans-serif" font-weight="700" font-size="15" transform="matrix(1.00088 0 0 0.997747 507.773 474)">%</text></g></svg>