<svg width="1649" height="962" xmlns="http://www.w3.org/2000/svg" xmlns:xlink="http://www.w3.org/1999/xlink" xml:space="preserve" overflow="hidden"><defs><clipPath id="clip0"><rect x="287" y="425" width="1649" height="962"/></clipPath></defs><g clip-path="url(#clip0)" transform="translate(-287 -425)"><rect x="287" y="425" width="1649" height="962" fill="#FFFFFF"/><g><path d="M1390.05 985.032 730 985.032 730 882.029 1390.05 882.029ZM1692.06 791.026 730 791.026 730 688.023 1692.06 688.023Z" fill="#006AA7"/></g><g><path d="M0 0 0.000360892 388" stroke="#D9D9D9" stroke-width="3.4375" stroke-linejoin="round" stroke-miterlimit="10" fill="none" fill-rule="evenodd" transform="matrix(1 0 0 -1 729.5 1030.5)"/></g><g><text font-family="Arial,Arial_MSFontService,sans-serif" font-weight="400" font-size="50" transform="matrix(1 0 0 1 1417.7 951)">55,400</text></g><g><text font-family="Arial,Arial_MSFontService,sans-serif" font-weight="400" font-size="50" transform="matrix(1 0 0 1 1719.34 757)">80,700</text></g><g><text font-family="Arial,Arial_MSFontService,sans-serif" font-weight="400" font-size="50" transform="matrix(1 0 0 1 515.342 950)">Sverige</text></g><g><text font-family="Arial,Arial_MSFontService,sans-serif" font-weight="400" font-size="50" transform="matrix(1 0 0 1 582.671 756)">USA</text></g><g><text font-family="Arial,Arial_MSFontService,sans-serif" font-weight="700" font-size="60" transform="matrix(1 0 0 1 1039.14 515)">BNP / capita</text></g><g><text font-family="Arial,Arial_MSFontService,sans-serif" font-weight="400" font-size="55" transform="matrix(1 0 0 1 954.095 579)">USD, 2023 växelkurs</text></g></g></svg>