<svg width="516" height="220" xmlns="http://www.w3.org/2000/svg" xmlns:xlink="http://www.w3.org/1999/xlink" xml:space="preserve" overflow="hidden"><defs><clipPath id="clip0"><rect x="102" y="108" width="516" height="220"/></clipPath></defs><g clip-path="url(#clip0)" transform="translate(-102 -108)"><path d="M21.9693 148.792 591.173 148.792 591.173 427.402 21.9693 427.402Z" fill="#FFFFFF" transform="matrix(1 0 0 1.00368 1.86188 -41.3391)"/><path d="M430.398 310.566 174.756 310.566 174.756 281.606 430.398 281.606ZM530.258 254.644 174.756 254.644 174.756 224.686 530.258 224.686Z" fill="#006AA7" transform="matrix(1 0 0 1.00368 1.86188 -41.3391)"/><path d="M0 0 0.00010484 112.842" stroke="#D9D9D9" stroke-width="0.998603" stroke-linejoin="round" stroke-miterlimit="10" fill="none" fill-rule="evenodd" transform="matrix(1 0 0 -1.00368 177.117 283.899)"/><text font-family="Arial,Arial_MSFontService,sans-serif" font-weight="400" font-size="15" transform="matrix(0.998603 0 0 1.00228 444.751 261)">62 800 </text><text font-family="Arial,Arial_MSFontService,sans-serif" font-weight="400" font-size="15" transform="matrix(0.998603 0 0 1.00228 543.74 205)">87 100 </text><text font-family="Arial,Arial_MSFontService,sans-serif" font-weight="400" font-size="15" transform="matrix(0.998603 0 0 1.00228 114.598 260)">Sverige</text><text font-family="Arial,Arial_MSFontService,sans-serif" font-weight="400" font-size="15" transform="matrix(0.998603 0 0 1.00228 134.158 203)">USA</text><text font-family="Arial,Arial_MSFontService,sans-serif" font-weight="700" font-size="17" transform="matrix(0.998603 0 0 1.00228 212.307 135)">Bruttonationalprodukt</text><text font-family="Arial,Arial_MSFontService,sans-serif" font-weight="700" font-size="17" transform="matrix(0.998603 0 0 1.00228 399.79 135)">/ </text><text font-family="Arial,Arial_MSFontService,sans-serif" font-weight="700" font-size="17" transform="matrix(0.998603 0 0 1.00228 409.404 135)">invånare</text><text font-family="Arial,Arial_MSFontService,sans-serif" font-weight="400" font-size="16" transform="matrix(0.998603 0 0 1.00228 271.404 154)">USD</text><text font-family="Arial,Arial_MSFontService,sans-serif" font-weight="400" font-size="16" transform="matrix(0.998603 0 0 1.00228 305.138 154)">, </text><text font-family="Arial,Arial_MSFontService,sans-serif" font-weight="400" font-size="16" transform="matrix(0.998603 0 0 1.00228 314.016 154)">2025 </text><text font-family="Arial,Arial_MSFontService,sans-serif" font-weight="400" font-size="16" transform="matrix(0.998603 0 0 1.00228 354.008 154)">växelkurs</text><path d="M0 0.998603-0.499322 0.998603 0.499282 0 0.499282 39.2784-0.499322 38.2798 40.9427 38.2798 40.9427 40.277-1.49792 40.277-1.49792-0.998603 0-0.998603ZM39.6113 35.2839 47.6001 39.2784 39.6113 43.2728Z" transform="matrix(-1 1.22915e-16 1.22465e-16 1.00368 561.746 216.246)"/><text font-family="Calibri,Calibri_MSFontService,sans-serif" font-weight="700" font-size="15" transform="matrix(0.998603 0 0 1.00228 571.007 241)">−</text><text font-family="Arial,Arial_MSFontService,sans-serif" font-weight="700" font-size="15" transform="matrix(0.998603 0 0 1.00228 578.329 241)">28</text><text font-family="Arial,Arial_MSFontService,sans-serif" font-weight="700" font-size="15" transform="matrix(0.998603 0 0 1.00228 594.641 241)">%</text><text font-family="Arial,Arial_MSFontService,sans-serif" font-weight="400" font-size="12" transform="matrix(0.998603 0 0 1.00228 175.65 311)">Källa</text><text font-family="Arial,Arial_MSFontService,sans-serif" font-weight="400" font-size="12" transform="matrix(0.998603 0 0 1.00228 202.296 311)">: </text><text font-family="Arial,Arial_MSFontService,sans-serif" font-weight="400" font-size="12" transform="matrix(0.998603 0 0 1.00228 208.936 311)">S</text><text font-family="Arial,Arial_MSFontService,sans-serif" font-weight="400" font-size="12" transform="matrix(0.998603 0 0 1.00228 216.929 311)">.</text><text font-family="Arial,Arial_MSFontService,sans-serif" font-weight="400" font-size="12" transform="matrix(0.998603 0 0 1.00228 220.258 311)">Canbäck</text><text font-family="Arial,Arial_MSFontService,sans-serif" font-weight="400" font-size="12" transform="matrix(0.998603 0 0 1.00228 270.85 311)">(</text><text font-family="Arial,Arial_MSFontService,sans-serif" font-weight="400" font-size="12" transform="matrix(0.998603 0 0 1.00228 274.84 311)">Tellusant</text><text font-family="Arial,Arial_MSFontService,sans-serif" font-weight="400" font-size="12" transform="matrix(0.998603 0 0 1.00228 322.135 311)">) </text><text font-family="Arial,Arial_MSFontService,sans-serif" font-weight="400" font-size="12" transform="matrix(0.998603 0 0 1.00228 330.766 311)">analys</text><text font-family="Arial,Arial_MSFontService,sans-serif" font-weight="400" font-size="12" transform="matrix(0.998603 0 0 1.00228 365.384 311)">; </text><text font-family="Arial,Arial_MSFontService,sans-serif" font-weight="400" font-size="12" transform="matrix(0.998603 0 0 1.00228 372.043 311)">TelluBase</text></g></svg>