<svg width="524" height="231" xmlns="http://www.w3.org/2000/svg" xmlns:xlink="http://www.w3.org/1999/xlink" xml:space="preserve" overflow="hidden"><defs><clipPath id="clip0"><rect x="103" y="583" width="524" height="231"/></clipPath></defs><g clip-path="url(#clip0)" transform="translate(-103 -583)"><path d="M21.9862 714.552 599.624 714.552 599.624 995.375 21.9862 995.375Z" fill="#FFFFFF" transform="matrix(1.0006 0 0 1 13.0172 -131.552)"/><path d="M168.894 847.468 358.775 847.468 358.775 877.449 168.894 877.449Z" fill="#006AA7" transform="matrix(1.0006 0 0 1 13.0172 -131.552)"/><path d="M168.894 791.503 527.669 791.503 527.669 821.484 168.894 821.484Z" fill="#006AA7" transform="matrix(1.0006 0 0 1 13.0172 -131.552)"/><path d="M0 0 0.000104921 112.929" stroke="#D9D9D9" stroke-width="0.999373" stroke-linejoin="round" stroke-miterlimit="10" fill="none" fill-rule="evenodd" transform="matrix(1.0006 0 0 -1 182.512 759.389)"/><text font-family="Arial,Arial_MSFontService,sans-serif" font-weight="400" font-size="15" transform="matrix(0.999972 0 0 0.999373 383.793 737)">33 500 </text><text font-family="Arial,Arial_MSFontService,sans-serif" font-weight="400" font-size="15" transform="matrix(0.999972 0 0 0.999373 552.747 680)">63 400 </text><text font-family="Arial,Arial_MSFontService,sans-serif" font-weight="400" font-size="15" transform="matrix(0.999972 0 0 0.999373 120.066 736)">Sverige</text><text font-family="Arial,Arial_MSFontService,sans-serif" font-weight="400" font-size="15" transform="matrix(0.999972 0 0 0.999373 139.652 679)">USA</text><text fill="#C00000" font-family="Arial,Arial_MSFontService,sans-serif" font-weight="700" font-size="17" transform="matrix(0.999972 0 0 0.999373 133.066 609)">Köpkraftsparitet</text><text font-family="Arial,Arial_MSFontService,sans-serif" font-weight="700" font-size="17" transform="matrix(0.999972 0 0 0.999373 271.755 609)">disponibel</text><text font-family="Arial,Arial_MSFontService,sans-serif" font-weight="700" font-size="17" transform="matrix(0.999972 0 0 0.999373 363.219 609)">inkomst</text><text font-family="Arial,Arial_MSFontService,sans-serif" font-weight="700" font-size="17" transform="matrix(0.999972 0 0 0.999373 434.484 609)">/ </text><text font-family="Arial,Arial_MSFontService,sans-serif" font-weight="700" font-size="17" transform="matrix(0.999972 0 0 0.999373 444.11 609)">invånare</text><text font-family="Arial,Arial_MSFontService,sans-serif" font-weight="400" font-size="16" transform="matrix(0.999972 0 0 0.999373 185.944 628)">PPP</text><text font-family="Arial,Arial_MSFontService,sans-serif" font-weight="400" font-size="16" transform="matrix(0.999972 0 0 0.999373 217.959 628)">$, </text><text font-family="Arial,Arial_MSFontService,sans-serif" font-weight="400" font-size="16" transform="matrix(0.999972 0 0 0.999373 235.756 628)">framskriven</text><text font-family="Arial,Arial_MSFontService,sans-serif" font-weight="400" font-size="16" transform="matrix(0.999972 0 0 0.999373 322.881 628)">växelkurs</text><text font-family="Arial,Arial_MSFontService,sans-serif" font-weight="400" font-size="16" transform="matrix(0.999972 0 0 0.999373 394.906 628)">från</text><text font-family="Arial,Arial_MSFontService,sans-serif" font-weight="400" font-size="16" transform="matrix(0.999972 0 0 0.999373 426.925 628)">2021</text><path d="M0 0.999373-0.499706 0.999373 0.499666 0 0.499666 39.3086-0.499706 38.3093 40.9743 38.3093 40.9743 40.308-1.49908 40.308-1.49908-0.999373 0-0.999373ZM39.6418 35.3111 47.6368 39.3086 39.6418 43.3061Z" transform="matrix(-1.0006 1.22465e-16 1.22538e-16 1 570.669 691.932)"/><text font-family="Calibri,Calibri_MSFontService,sans-serif" font-weight="700" font-size="15" transform="matrix(0.999972 0 0 0.999373 580.601 717)">−</text><text font-family="Arial,Arial_MSFontService,sans-serif" font-weight="700" font-size="15" transform="matrix(0.999972 0 0 0.999373 587.934 717)">47</text><text font-family="Arial,Arial_MSFontService,sans-serif" font-weight="700" font-size="15" transform="matrix(0.999972 0 0 0.999373 604.267 717)">%</text><text font-family="Arial,Arial_MSFontService,sans-serif" font-weight="400" font-size="12" transform="matrix(0.999972 0 0 0.999373 186.437 788)">Köpkraftsparitet</text><text font-family="Arial,Arial_MSFontService,sans-serif" font-weight="400" font-size="12" transform="matrix(0.999972 0 0 0.999373 273.768 788)">(</text><text font-family="Arial,Arial_MSFontService,sans-serif" font-weight="400" font-size="12" transform="matrix(0.999972 0 0 0.999373 277.764 788)">KKP</text><text font-family="Arial,Arial_MSFontService,sans-serif" font-weight="400" font-size="12" transform="matrix(0.999972 0 0 0.999373 301.775 788)">) = </text><text font-family="Arial,Arial_MSFontService,sans-serif" font-weight="400" font-size="12" transform="matrix(0.999972 0 0 0.999373 319.446 788)">Purchasing Power Parity i </text><text font-family="Arial,Arial_MSFontService,sans-serif" font-weight="400" font-size="12" transform="matrix(0.999972 0 0 0.999373 460.097 788)">enlighet</text><text font-family="Arial,Arial_MSFontService,sans-serif" font-weight="400" font-size="12" transform="matrix(0.999972 0 0 0.999373 505.428 788)">med WB ICP</text><text font-family="Arial,Arial_MSFontService,sans-serif" font-weight="400" font-size="12" transform="matrix(0.999972 0 0 0.999373 186.437 802)">Källa</text><text font-family="Arial,Arial_MSFontService,sans-serif" font-weight="400" font-size="12" transform="matrix(0.999972 0 0 0.999373 213.104 802)">: </text><text font-family="Arial,Arial_MSFontService,sans-serif" font-weight="400" font-size="12" transform="matrix(0.999972 0 0 0.999373 219.769 802)">S</text><text font-family="Arial,Arial_MSFontService,sans-serif" font-weight="400" font-size="12" transform="matrix(0.999972 0 0 0.999373 227.773 802)">.</text><text font-family="Arial,Arial_MSFontService,sans-serif" font-weight="400" font-size="12" transform="matrix(0.999972 0 0 0.999373 231.107 802)">Canbäck</text><text font-family="Arial,Arial_MSFontService,sans-serif" font-weight="400" font-size="12" transform="matrix(0.999972 0 0 0.999373 281.768 802)">(</text><text font-family="Arial,Arial_MSFontService,sans-serif" font-weight="400" font-size="12" transform="matrix(0.999972 0 0 0.999373 285.764 802)">Tellusant</text><text font-family="Arial,Arial_MSFontService,sans-serif" font-weight="400" font-size="12" transform="matrix(0.999972 0 0 0.999373 333.124 802)">) </text><text font-family="Arial,Arial_MSFontService,sans-serif" font-weight="400" font-size="12" transform="matrix(0.999972 0 0 0.999373 341.766 802)">analys</text><text font-family="Arial,Arial_MSFontService,sans-serif" font-weight="400" font-size="12" transform="matrix(0.999972 0 0 0.999373 376.432 802)">; </text><text font-family="Arial,Arial_MSFontService,sans-serif" font-weight="400" font-size="12" transform="matrix(0.999972 0 0 0.999373 383.1 802)">TelluBase</text></g></svg>