<svg width="527" height="223" xmlns="http://www.w3.org/2000/svg" xmlns:xlink="http://www.w3.org/1999/xlink" xml:space="preserve" overflow="hidden"><defs><clipPath id="clip0"><rect x="103" y="79" width="527" height="223"/></clipPath></defs><g clip-path="url(#clip0)" transform="translate(-103 -79)"><path d="M21.9994 148.996 591.983 148.996 591.983 427.988 21.9994 427.988Z" fill="#FFFFFF" transform="matrix(1 0 0 1.00137 13.0179 -70.2003)"/><path d="M430.987 310.991 174.995 310.991 174.995 281.992 430.987 281.992ZM530.985 254.993 174.995 254.993 174.995 224.993 530.985 224.993Z" fill="#006AA7" transform="matrix(1 0 0 1.00137 13.0179 -70.2003)"/><path d="M0 0 0.000104984 112.997" stroke="#D9D9D9" stroke-linejoin="round" stroke-miterlimit="10" fill="none" fill-rule="evenodd" transform="matrix(1 0 0 -1.00137 188.513 254.736)"/><text font-family="Arial,Arial_MSFontService,sans-serif" font-weight="400" font-size="15" transform="matrix(0.999971 0 0 1.00134 456.514 232)">62 800 </text><text font-family="Arial,Arial_MSFontService,sans-serif" font-weight="400" font-size="15" transform="matrix(0.999971 0 0 1.00134 555.638 176)">87 100 </text><text font-family="Arial,Arial_MSFontService,sans-serif" font-weight="400" font-size="15" transform="matrix(0.999971 0 0 1.00134 125.909 231)">Sverige</text><text font-family="Arial,Arial_MSFontService,sans-serif" font-weight="400" font-size="15" transform="matrix(0.999971 0 0 1.00134 145.495 174)">USA</text><text font-family="Arial,Arial_MSFontService,sans-serif" font-weight="700" font-size="17" transform="matrix(0.999971 0 0 1.00134 265.083 104)">Bruttonationalprodukt</text><text font-family="Arial,Arial_MSFontService,sans-serif" font-weight="700" font-size="17" transform="matrix(0.999971 0 0 1.00134 452.824 104)">/ </text><text font-family="Arial,Arial_MSFontService,sans-serif" font-weight="700" font-size="17" transform="matrix(0.999971 0 0 1.00134 462.45 104)">invånare</text><text font-family="Arial,Arial_MSFontService,sans-serif" font-weight="400" font-size="16" transform="matrix(0.999971 0 0 1.00134 324.261 123)">USD</text><text font-family="Arial,Arial_MSFontService,sans-serif" font-weight="400" font-size="16" transform="matrix(0.999971 0 0 1.00134 358.041 123)">, </text><text font-family="Arial,Arial_MSFontService,sans-serif" font-weight="400" font-size="16" transform="matrix(0.999971 0 0 1.00134 366.932 123)">2025 </text><text font-family="Arial,Arial_MSFontService,sans-serif" font-weight="400" font-size="16" transform="matrix(0.999971 0 0 1.00134 406.978 123)">växelkurs</text><path d="M0 0.999971-0.500005 0.999971 0.499965 0 0.499965 39.3322-0.500005 38.3322 40.9988 38.3322 40.9988 40.3321-1.49998 40.3321-1.49998-0.999971 0-0.999971ZM39.6655 35.3323 47.6653 39.3322 39.6655 43.332Z" transform="matrix(-1 1.22633e-16 1.22465e-16 1.00137 573.669 187.145)"/><text font-family="Calibri,Calibri_MSFontService,sans-serif" font-weight="700" font-size="15" transform="matrix(0.999971 0 0 1.00134 582.942 212)">−</text><text font-family="Arial,Arial_MSFontService,sans-serif" font-weight="700" font-size="15" transform="matrix(0.999971 0 0 1.00134 590.275 212)">28</text><text font-family="Arial,Arial_MSFontService,sans-serif" font-weight="700" font-size="15" transform="matrix(0.999971 0 0 1.00134 606.609 212)">%</text><text font-family="Arial,Arial_MSFontService,sans-serif" font-weight="400" font-size="12" transform="matrix(0.999971 0 0 1.00134 187.044 282)">Källa</text><text font-family="Arial,Arial_MSFontService,sans-serif" font-weight="400" font-size="12" transform="matrix(0.999971 0 0 1.00134 213.727 282)">: </text><text font-family="Arial,Arial_MSFontService,sans-serif" font-weight="400" font-size="12" transform="matrix(0.999971 0 0 1.00134 220.376 282)">S</text><text font-family="Arial,Arial_MSFontService,sans-serif" font-weight="400" font-size="12" transform="matrix(0.999971 0 0 1.00134 228.38 282)">.</text><text font-family="Arial,Arial_MSFontService,sans-serif" font-weight="400" font-size="12" transform="matrix(0.999971 0 0 1.00134 231.713 282)">Canbäck</text><text font-family="Arial,Arial_MSFontService,sans-serif" font-weight="400" font-size="12" transform="matrix(0.999971 0 0 1.00134 282.374 282)">(</text><text font-family="Arial,Arial_MSFontService,sans-serif" font-weight="400" font-size="12" transform="matrix(0.999971 0 0 1.00134 286.37 282)">Tellusant</text><text font-family="Arial,Arial_MSFontService,sans-serif" font-weight="400" font-size="12" transform="matrix(0.999971 0 0 1.00134 333.73 282)">) </text><text font-family="Arial,Arial_MSFontService,sans-serif" font-weight="400" font-size="12" transform="matrix(0.999971 0 0 1.00134 342.372 282)">analys</text><text font-family="Arial,Arial_MSFontService,sans-serif" font-weight="400" font-size="12" transform="matrix(0.999971 0 0 1.00134 377.038 282)">; </text><text font-family="Arial,Arial_MSFontService,sans-serif" font-weight="400" font-size="12" transform="matrix(0.999971 0 0 1.00134 383.706 282)">TelluBase</text></g></svg>