<svg width="554" height="240" xmlns="http://www.w3.org/2000/svg" xmlns:xlink="http://www.w3.org/1999/xlink" xml:space="preserve" overflow="hidden"><defs><clipPath id="clip0"><rect x="101" y="105" width="554" height="240"/></clipPath></defs><g clip-path="url(#clip0)" transform="translate(-101 -105)"><path d="M15.0057 72.0271 643.242 72.0271 643.242 352.133 15.0057 352.133Z" fill="#FFFFFF" transform="matrix(1.00031 0 0 1 5.55627 32.9729)"/><path d="M175.066 205.077 435.164 205.077 435.164 235.089 175.066 235.089Z" fill="#FECC02" transform="matrix(1.00031 0 0 1 5.55627 32.9729)"/><path d="M175.066 149.056 554.209 149.056 554.209 179.067 175.066 179.067Z" fill="#FECC02" transform="matrix(1.00031 0 0 1 5.55627 32.9729)"/><path d="M0 0 0.000105027 113.043" stroke="#D9D9D9" stroke-width="1.00038" stroke-linejoin="round" stroke-miterlimit="10" fill="none" fill-rule="evenodd" transform="matrix(1.00031 0 0 -1 180.176 281.566)"/><text font-family="Arial,Arial_MSFontService,sans-serif" font-weight="400" font-size="15" transform="matrix(1.00068 0 0 1.00038 453.183 259)">72 800 </text><text font-family="Arial,Arial_MSFontService,sans-serif" font-weight="400" font-size="15" transform="matrix(1.00068 0 0 1.00038 572.516 202)">106 100 </text><text font-family="Arial,Arial_MSFontService,sans-serif" font-weight="400" font-size="15" transform="matrix(1.00068 0 0 1.00038 117.815 258)">Sverige</text><text font-family="Arial,Arial_MSFontService,sans-serif" font-weight="400" font-size="15" transform="matrix(1.00068 0 0 1.00038 137.415 201)">USA</text><text font-family="Arial,Arial_MSFontService,sans-serif" font-weight="700" font-size="17" transform="matrix(1.00068 0 0 1.00038 156.259 131)">STIK</text><text font-family="Arial,Arial_MSFontService,sans-serif" font-weight="700" font-size="17" transform="matrix(1.00068 0 0 1.00038 195.766 131)">-</text><text font-family="Arial,Arial_MSFontService,sans-serif" font-weight="700" font-size="17" transform="matrix(1.00068 0 0 1.00038 201.543 131)">justerad</text><text font-family="Arial,Arial_MSFontService,sans-serif" font-weight="700" font-size="17" transform="matrix(1.00068 0 0 1.00038 273.833 131)">KKP </text><text font-family="Arial,Arial_MSFontService,sans-serif" font-weight="700" font-size="17" transform="matrix(1.00068 0 0 1.00038 314.961 131)">disponibel</text><text font-family="Arial,Arial_MSFontService,sans-serif" font-weight="700" font-size="17" transform="matrix(1.00068 0 0 1.00038 406.49 131)">inkomst</text><text font-family="Arial,Arial_MSFontService,sans-serif" font-weight="700" font-size="17" transform="matrix(1.00068 0 0 1.00038 477.805 131)">/ </text><text fill="#C00000" font-family="Arial,Arial_MSFontService,sans-serif" font-weight="700" font-size="17" transform="matrix(1.00068 0 0 1.00038 487.439 131)">HH</text><text fill="#C00000" font-family="Arial,Arial_MSFontService,sans-serif" font-weight="700" font-size="17" transform="matrix(1.00068 0 0 1.00038 512.496 131)">-</text><text fill="#C00000" font-family="Arial,Arial_MSFontService,sans-serif" font-weight="700" font-size="17" transform="matrix(1.00068 0 0 1.00038 518.273 131)">ekv</text><text font-family="Arial,Arial_MSFontService,sans-serif" font-weight="400" font-size="16" transform="matrix(1.00068 0 0 1.00038 213.351 150)">PPP</text><text font-family="Arial,Arial_MSFontService,sans-serif" font-weight="400" font-size="16" transform="matrix(1.00068 0 0 1.00038 245.389 150)">$, </text><text font-family="Arial,Arial_MSFontService,sans-serif" font-weight="400" font-size="16" transform="matrix(1.00068 0 0 1.00038 263.198 150)">framskriven</text><text font-family="Arial,Arial_MSFontService,sans-serif" font-weight="400" font-size="16" transform="matrix(1.00068 0 0 1.00038 350.385 150)">växelkurs</text><text font-family="Arial,Arial_MSFontService,sans-serif" font-weight="400" font-size="16" transform="matrix(1.00068 0 0 1.00038 422.461 150)">från</text><text font-family="Arial,Arial_MSFontService,sans-serif" font-weight="400" font-size="16" transform="matrix(1.00068 0 0 1.00038 454.503 150)">2021</text><text font-family="Arial,Arial_MSFontService,sans-serif" font-weight="400" font-size="12" transform="matrix(1.00068 0 0 1.00038 181.234 312)">HH</text><text font-family="Arial,Arial_MSFontService,sans-serif" font-weight="400" font-size="12" transform="matrix(1.00068 0 0 1.00038 198.579 312)">-</text><text font-family="Arial,Arial_MSFontService,sans-serif" font-weight="400" font-size="12" transform="matrix(1.00068 0 0 1.00038 202.582 312)">ekv</text><text font-family="Arial,Arial_MSFontService,sans-serif" font-weight="400" font-size="12" transform="matrix(1.00068 0 0 1.00038 224.597 312)">= </text><text font-family="Arial,Arial_MSFontService,sans-serif" font-weight="400" font-size="12" transform="matrix(1.00068 0 0 1.00038 234.937 312)">hushållsekvivalent</text><text font-family="Arial,Arial_MSFontService,sans-serif" font-weight="400" font-size="12" transform="matrix(1.00068 0 0 1.00038 335.673 312)">= </text><text font-family="Arial,Arial_MSFontService,sans-serif" font-weight="400" font-size="12" transform="matrix(1.00068 0 0 1.00038 346.013 312)">korrektion</text><text font-family="Arial,Arial_MSFontService,sans-serif" font-weight="400" font-size="12" transform="matrix(1.00068 0 0 1.00038 402.051 312)">för </text><text font-family="Arial,Arial_MSFontService,sans-serif" font-weight="400" font-size="12" transform="matrix(1.00068 0 0 1.00038 419.397 312)">hushållsstorlek</text><text font-family="Arial,Arial_MSFontService,sans-serif" font-weight="400" font-size="12" transform="matrix(1.00068 0 0 1.00038 181.234 326)">Källa</text><text font-family="Arial,Arial_MSFontService,sans-serif" font-weight="400" font-size="12" transform="matrix(1.00068 0 0 1.00038 207.936 326)">: </text><text font-family="Arial,Arial_MSFontService,sans-serif" font-weight="400" font-size="12" transform="matrix(1.00068 0 0 1.00038 214.59 326)">S</text><text font-family="Arial,Arial_MSFontService,sans-serif" font-weight="400" font-size="12" transform="matrix(1.00068 0 0 1.00038 222.599 326)">.</text><text font-family="Arial,Arial_MSFontService,sans-serif" font-weight="400" font-size="12" transform="matrix(1.00068 0 0 1.00038 225.936 326)">Canbäck</text><text font-family="Arial,Arial_MSFontService,sans-serif" font-weight="400" font-size="12" transform="matrix(1.00068 0 0 1.00038 276.632 326)">(</text><text font-family="Arial,Arial_MSFontService,sans-serif" font-weight="400" font-size="12" transform="matrix(1.00068 0 0 1.00038 280.631 326)">Tellusant</text><text font-family="Arial,Arial_MSFontService,sans-serif" font-weight="400" font-size="12" transform="matrix(1.00068 0 0 1.00038 328.025 326)">) </text><text font-family="Arial,Arial_MSFontService,sans-serif" font-weight="400" font-size="12" transform="matrix(1.00068 0 0 1.00038 336.673 326)">analys</text><text font-family="Arial,Arial_MSFontService,sans-serif" font-weight="400" font-size="12" transform="matrix(1.00068 0 0 1.00038 371.364 326)">; </text><text font-family="Arial,Arial_MSFontService,sans-serif" font-weight="400" font-size="12" transform="matrix(1.00068 0 0 1.00038 378.037 326)">TelluBase</text><path d="M0 1.00038-0.308236 1.00038 0.692141 0 0.692141 39.3481-0.308236 38.3477 22.7163 38.3477 22.7163 40.3485-1.30861 40.3485-1.30861-1.00038 0-1.00038ZM21.3825 35.3466 29.3855 39.3481 21.3825 43.3496Z" transform="matrix(-1.00031 1.22465e-16 1.22503e-16 1 600.337 215.041)"/><text font-family="Calibri,Calibri_MSFontService,sans-serif" font-weight="700" font-size="15" transform="matrix(1.00068 0 0 1.00038 609.866 240)">−</text><text font-family="Calibri,Calibri_MSFontService,sans-serif" font-weight="700" font-size="15" transform="matrix(1.00068 0 0 1.00038 617.204 240)">35</text><text font-family="Arial,Arial_MSFontService,sans-serif" font-weight="700" font-size="15" transform="matrix(1.00068 0 0 1.00038 632.214 240)">%</text></g></svg>