<svg width="628" height="237" xmlns="http://www.w3.org/2000/svg" xmlns:xlink="http://www.w3.org/1999/xlink" xml:space="preserve" overflow="hidden"><defs><clipPath id="clip0"><rect x="24" y="200" width="628" height="237"/></clipPath></defs><g clip-path="url(#clip0)" transform="translate(-24 -200)"><path d="M14.9957 71.9795 642.817 71.9795 642.817 351.9 14.9957 351.9Z" fill="#FFFFFF" transform="matrix(1.00029 0 0 1 9 128.021)"/><path d="M174.95 204.942 434.876 204.942 434.876 234.933 174.95 234.933Z" fill="#FECC02" transform="matrix(1.00029 0 0 1 9 128.021)"/><path d="M174.95 148.958 553.842 148.958 553.842 178.949 174.95 178.949Z" fill="#FECC02" transform="matrix(1.00029 0 0 1 9 128.021)"/><path d="M0 0 0.000104957 112.968" stroke="#D9D9D9" stroke-width="0.999715" stroke-linejoin="round" stroke-miterlimit="10" fill="none" fill-rule="evenodd" transform="matrix(1.00029 0 0 -1 183.5 376.45)"/><text font-family="Arial,Arial_MSFontService,sans-serif" font-weight="400" font-size="15" transform="matrix(1 0 0 0.999715 456.321 354)">72 800 </text><text font-family="Arial,Arial_MSFontService,sans-serif" font-weight="400" font-size="15" transform="matrix(1 0 0 0.999715 575.572 297)">106 100 </text><text font-family="Arial,Arial_MSFontService,sans-serif" font-weight="400" font-size="15" transform="matrix(1 0 0 0.999715 121.182 353)">Sverige</text><text font-family="Arial,Arial_MSFontService,sans-serif" font-weight="400" font-size="15" transform="matrix(1 0 0 0.999715 140.769 296)">USA</text><text font-family="Arial,Arial_MSFontService,sans-serif" font-weight="700" font-size="17" transform="matrix(1 0 0 0.999715 142.266 226)">STIK</text><text font-family="Arial,Arial_MSFontService,sans-serif" font-weight="700" font-size="17" transform="matrix(1 0 0 0.999715 181.746 226)">-</text><text font-family="Arial,Arial_MSFontService,sans-serif" font-weight="700" font-size="17" transform="matrix(1 0 0 0.999715 187.52 226)">justerad KKP disponibel inkomst </text><text font-family="Arial,Arial_MSFontService,sans-serif" font-weight="700" font-size="17" transform="matrix(1 0 0 0.999715 458.308 226)">/ </text><text fill="#C00000" font-family="Arial,Arial_MSFontService,sans-serif" font-weight="700" font-size="17" transform="matrix(1 0 0 0.999715 473.22 226)">HH</text><text fill="#C00000" font-family="Arial,Arial_MSFontService,sans-serif" font-weight="700" font-size="17" transform="matrix(1 0 0 0.999715 498.26 226)">-</text><text fill="#C00000" font-family="Arial,Arial_MSFontService,sans-serif" font-weight="700" font-size="17" transform="matrix(1 0 0 0.999715 504.033 226)">ekv</text><text font-family="Arial,Arial_MSFontService,sans-serif" font-weight="400" font-size="16" transform="matrix(1 0 0 0.999715 199.32 245)">PPP</text><text font-family="Arial,Arial_MSFontService,sans-serif" font-weight="400" font-size="16" transform="matrix(1 0 0 0.999715 231.336 245)">$, </text><text font-family="Arial,Arial_MSFontService,sans-serif" font-weight="400" font-size="16" transform="matrix(1 0 0 0.999715 249.125 245)">framskriven växelkurs från </text><text font-family="Arial,Arial_MSFontService,sans-serif" font-weight="400" font-size="16" transform="matrix(1 0 0 0.999715 440.289 245)">2021</text><text font-family="Arial,Arial_MSFontService,sans-serif" font-weight="400" font-size="12" transform="matrix(1 0 0 0.999715 184.558 407)">HH</text><text font-family="Arial,Arial_MSFontService,sans-serif" font-weight="400" font-size="12" transform="matrix(1 0 0 0.999715 201.891 407)">-</text><text font-family="Arial,Arial_MSFontService,sans-serif" font-weight="400" font-size="12" transform="matrix(1 0 0 0.999715 205.891 407)">ekv</text><text font-family="Arial,Arial_MSFontService,sans-serif" font-weight="400" font-size="12" transform="matrix(1 0 0 0.999715 227.891 407)">= </text><text font-family="Arial,Arial_MSFontService,sans-serif" font-weight="400" font-size="12" transform="matrix(1 0 0 0.999715 238.224 407)">h</text><text font-family="Arial,Arial_MSFontService,sans-serif" font-weight="400" font-size="12" transform="matrix(1 0 0 0.999715 244.891 407)">ushållsekvivalent</text><text font-family="Arial,Arial_MSFontService,sans-serif" font-weight="400" font-size="12" transform="matrix(1 0 0 0.999715 338.891 407)">= </text><text font-family="Arial,Arial_MSFontService,sans-serif" font-weight="400" font-size="12" transform="matrix(1 0 0 0.999715 349.224 407)">korrektion</text><text font-family="Arial,Arial_MSFontService,sans-serif" font-weight="400" font-size="12" transform="matrix(1 0 0 0.999715 405.224 407)">för </text><text font-family="Arial,Arial_MSFontService,sans-serif" font-weight="400" font-size="12" transform="matrix(1 0 0 0.999715 422.558 407)">hushållsstorlek</text><text font-family="Arial,Arial_MSFontService,sans-serif" font-weight="400" font-size="12" transform="matrix(1 0 0 0.999715 184.558 421)">Källa</text><text font-family="Arial,Arial_MSFontService,sans-serif" font-weight="400" font-size="12" transform="matrix(1 0 0 0.999715 211.224 421)">: </text><text font-family="Arial,Arial_MSFontService,sans-serif" font-weight="400" font-size="12" transform="matrix(1 0 0 0.999715 217.891 421)">S</text><text font-family="Arial,Arial_MSFontService,sans-serif" font-weight="400" font-size="12" transform="matrix(1 0 0 0.999715 225.895 421)">.</text><text font-family="Arial,Arial_MSFontService,sans-serif" font-weight="400" font-size="12" transform="matrix(1 0 0 0.999715 229.229 421)">Canbäck</text><text font-family="Arial,Arial_MSFontService,sans-serif" font-weight="400" font-size="12" transform="matrix(1 0 0 0.999715 279.891 421)">(</text><text font-family="Arial,Arial_MSFontService,sans-serif" font-weight="400" font-size="12" transform="matrix(1 0 0 0.999715 283.887 421)">Tellusant</text><text font-family="Arial,Arial_MSFontService,sans-serif" font-weight="400" font-size="12" transform="matrix(1 0 0 0.999715 331.248 421)">) </text><text font-family="Arial,Arial_MSFontService,sans-serif" font-weight="400" font-size="12" transform="matrix(1 0 0 0.999715 339.891 421)">analys</text><text font-family="Arial,Arial_MSFontService,sans-serif" font-weight="400" font-size="12" transform="matrix(1 0 0 0.999715 374.558 421)">; </text><text font-family="Arial,Arial_MSFontService,sans-serif" font-weight="400" font-size="12" transform="matrix(1 0 0 0.999715 381.226 421)">TelluBase</text><path d="M0 0.999715-0.308032 0.999715 0.691683 0 0.691683 39.3221-0.308032 38.3224 22.7012 38.3224 22.7012 40.3218-1.30775 40.3218-1.30775-0.999715 0-0.999715ZM21.3683 35.3232 29.366 39.3221 21.3683 43.3209Z" transform="matrix(-1.00029 1.22465e-16 1.225e-16 1 603.374 309.969)"/><text font-family="Calibri,Calibri_MSFontService,sans-serif" font-weight="700" font-size="15" transform="matrix(1 0 0 0.999715 612.897 335)">35</text><text font-family="Arial,Arial_MSFontService,sans-serif" font-weight="700" font-size="15" transform="matrix(1 0 0 0.999715 627.897 335)">%</text></g></svg>