<svg width="489" height="189" xmlns="http://www.w3.org/2000/svg" xmlns:xlink="http://www.w3.org/1999/xlink" xml:space="preserve" overflow="hidden"><defs><clipPath id="clip0"><rect x="99" y="655" width="489" height="189"/></clipPath></defs><g clip-path="url(#clip0)" transform="translate(-99 -655)"><path d="M54 923 543 923 543 1204 54 1204Z" fill="#FFFFFF" transform="matrix(1 0 0 1.00265 45 -270.446)"/><path d="M363 1086 176 1086 176 1056 363 1056ZM439 1029 176 1029 176 999 439 999Z" fill="#006AA7" transform="matrix(1 0 0 1.00265 45 -270.446)"/><path d="M0 0 0.000104987 113" stroke="#D9D9D9" stroke-linejoin="round" stroke-miterlimit="10" fill="none" fill-rule="evenodd" transform="matrix(1 0 0 -1.00265 221.5 830.965)"/><text fill="#404040" font-family="Arial,Arial_MSFontService,sans-serif" font-weight="400" font-size="15" transform="matrix(1 0 0 1.00265 419.801 808)">49 600 </text><text fill="#404040" font-family="Arial,Arial_MSFontService,sans-serif" font-weight="400" font-size="15" transform="matrix(1 0 0 1.00265 496.573 751)">70 000 </text><text font-family="Arial,Arial_MSFontService,sans-serif" font-weight="400" font-size="15" transform="matrix(1 0 0 1.00265 158.706 807)">Sverige</text><text font-family="Arial,Arial_MSFontService,sans-serif" font-weight="400" font-size="15" transform="matrix(1 0 0 1.00265 178.293 750)">USA</text><text font-family="Arial,Arial_MSFontService,sans-serif" font-weight="700" font-size="17" transform="matrix(1 0 0 1.00265 183.261 681)">Justerad</text><text font-family="Arial,Arial_MSFontService,sans-serif" font-weight="700" font-size="17" transform="matrix(1 0 0 1.00265 260.328 681)">disponibel</text><text font-family="Arial,Arial_MSFontService,sans-serif" font-weight="700" font-size="17" transform="matrix(1 0 0 1.00265 351.795 681)">inkomst</text><text font-family="Arial,Arial_MSFontService,sans-serif" font-weight="700" font-size="17" transform="matrix(1 0 0 1.00265 423.061 681)">/ </text><text font-family="Arial,Arial_MSFontService,sans-serif" font-weight="700" font-size="17" transform="matrix(1 0 0 1.00265 432.688 681)">invånare</text><text fill="#C00000" font-family="Arial,Arial_MSFontService,sans-serif" font-weight="400" font-size="16" transform="matrix(1 0 0 1.00265 205.328 700)">PPP</text><text fill="#C00000" font-family="Arial,Arial_MSFontService,sans-serif" font-weight="400" font-size="16" transform="matrix(1 0 0 1.00265 237.344 700)">$</text><text font-family="Arial,Arial_MSFontService,sans-serif" font-weight="400" font-size="16" transform="matrix(1 0 0 1.00265 246.248 700)">, </text><text font-family="Arial,Arial_MSFontService,sans-serif" font-weight="400" font-size="16" transform="matrix(1 0 0 1.00265 255.141 700)">framskriven</text><text font-family="Arial,Arial_MSFontService,sans-serif" font-weight="400" font-size="16" transform="matrix(1 0 0 1.00265 342.268 700)">växelkurs</text><text font-family="Arial,Arial_MSFontService,sans-serif" font-weight="400" font-size="16" transform="matrix(1 0 0 1.00265 414.295 700)">från</text><text font-family="Arial,Arial_MSFontService,sans-serif" font-weight="400" font-size="16" transform="matrix(1 0 0 1.00265 446.315 700)">2021</text><path d="M0 1-0.50002 1 0.49998 0 0.49998 39.3333-0.50002 38.3333 41 38.3333 41 40.3333-1.50002 40.3333-1.50002-1 0-1ZM39.6667 35.3333 47.6667 39.3333 39.6667 43.3333Z" transform="matrix(-1 1.2279e-16 1.22465e-16 1.00265 513.667 764.289)"/><text font-family="Calibri,Calibri_MSFontService,sans-serif" font-weight="700" font-size="15" transform="matrix(1 0 0 1.00265 523.523 789)">−</text><text font-family="Arial,Arial_MSFontService,sans-serif" font-weight="700" font-size="15" transform="matrix(1 0 0 1.00265 530.856 789)">2</text><text font-family="Arial,Arial_MSFontService,sans-serif" font-weight="700" font-size="15" transform="matrix(1 0 0 1.00265 539.023 789)">9</text><text font-family="Arial,Arial_MSFontService,sans-serif" font-weight="700" font-size="15" transform="matrix(1 0 0 1.00265 547.189 789)">%</text></g></svg>