<svg width="2036" height="964" xmlns="http://www.w3.org/2000/svg" xmlns:xlink="http://www.w3.org/1999/xlink" xml:space="preserve" overflow="hidden"><defs><clipPath id="clip0"><rect x="76" y="2458" width="2036" height="964"/></clipPath><clipPath id="clip1"><rect x="582" y="2675" width="1363" height="393"/></clipPath><clipPath id="clip2"><rect x="582" y="2675" width="1363" height="393"/></clipPath></defs><g clip-path="url(#clip0)" transform="translate(-76 -2458)"><rect x="76" y="2458" width="1988" height="964" fill="#FFFFFF"/><g clip-path="url(#clip1)"><rect x="582" y="2916" width="651" height="103" fill="#006AA7"/></g><g clip-path="url(#clip2)"><rect x="582" y="2722" width="1232" height="103" fill="#006AA7"/></g><g><path d="M0 0 0.000360892 390" stroke="#D9D9D9" stroke-width="3.4375" stroke-linejoin="round" stroke-miterlimit="10" fill="none" fill-rule="evenodd" transform="matrix(1 0 0 -1 582.5 3065.5)"/></g><g><text font-family="Arial,Arial_MSFontService,sans-serif" font-weight="400" font-size="50" transform="matrix(1 0 0 1 1274.58 2986)">33 500 </text></g><g><text font-family="Arial,Arial_MSFontService,sans-serif" font-weight="400" font-size="50" transform="matrix(1 0 0 1 1855.37 2791)">63 400 </text></g><g><text font-family="Arial,Arial_MSFontService,sans-serif" font-weight="400" font-size="50" transform="matrix(1 0 0 1 367.99 2984)">Sverige</text></g><g><text font-family="Arial,Arial_MSFontService,sans-serif" font-weight="400" font-size="50" transform="matrix(1 0 0 1 435.319 2790)">USA</text></g><g><text fill="#C00000" font-family="Arial,Arial_MSFontService,sans-serif" font-weight="700" font-size="60" transform="matrix(1 0 0 1 412.679 2549)">Köpkraftsparitet</text></g><g><text font-family="Arial,Arial_MSFontService,sans-serif" font-weight="700" font-size="60" transform="matrix(1 0 0 1 889.438 2549)">disponibel</text></g><g><text font-family="Arial,Arial_MSFontService,sans-serif" font-weight="700" font-size="60" transform="matrix(1 0 0 1 1203.85 2549)">inkomst</text></g><g><text font-family="Arial,Arial_MSFontService,sans-serif" font-weight="700" font-size="60" transform="matrix(1 0 0 1 1448.83 2549)">/ </text></g><g><text font-family="Arial,Arial_MSFontService,sans-serif" font-weight="700" font-size="60" transform="matrix(1 0 0 1 1481.92 2549)">invånare</text></g><g><text font-family="Arial,Arial_MSFontService,sans-serif" font-weight="400" font-size="55" transform="matrix(1 0 0 1 594.454 2613)">PPP$, </text></g><g><text font-family="Arial,Arial_MSFontService,sans-serif" font-weight="400" font-size="55" transform="matrix(1 0 0 1 765.688 2613)">framskriven</text></g><g><text font-family="Arial,Arial_MSFontService,sans-serif" font-weight="400" font-size="55" transform="matrix(1 0 0 1 1065.19 2613)">växelkurs</text></g><g><text font-family="Arial,Arial_MSFontService,sans-serif" font-weight="400" font-size="55" transform="matrix(1 0 0 1 1312.78 2613)">från</text></g><g><text font-family="Arial,Arial_MSFontService,sans-serif" font-weight="400" font-size="55" transform="matrix(1 0 0 1 1422.85 2613)">2021</text></g><path d="M0 3.4375-1.71882 3.4375 1.71868 0 1.71868 135.208-1.71882 131.771 140.938 131.771 140.938 138.646-5.15632 138.646-5.15632-3.4375 0-3.4375ZM136.354 121.458 163.854 135.208 136.354 148.958Z" transform="matrix(-1 1.22465e-16 1.22465e-16 1 1918.35 2832.5)"/><text font-family="Calibri,Calibri_MSFontService,sans-serif" font-weight="700" font-size="50" transform="matrix(1 0 0 1 1951.12 2917)">−</text><text font-family="Arial,Arial_MSFontService,sans-serif" font-weight="700" font-size="50" transform="matrix(1 0 0 1 1976.33 2917)">47</text><text font-family="Arial,Arial_MSFontService,sans-serif" font-weight="700" font-size="50" transform="matrix(1 0 0 1 2032.48 2917)">%</text><text font-family="Arial,Arial_MSFontService,sans-serif" font-weight="400" font-size="41" transform="matrix(1 0 0 1 596.148 3161)">Köpkraftsparitet</text><text font-family="Arial,Arial_MSFontService,sans-serif" font-weight="400" font-size="41" transform="matrix(1 0 0 1 896.356 3161)">(KKP) = Purchasing Power Parity i </text><text font-family="Arial,Arial_MSFontService,sans-serif" font-weight="400" font-size="41" transform="matrix(1 0 0 1 1536.88 3161)">enlighet</text><text font-family="Arial,Arial_MSFontService,sans-serif" font-weight="400" font-size="41" transform="matrix(1 0 0 1 1692.71 3161)">med WB ICP</text><text font-family="Arial,Arial_MSFontService,sans-serif" font-weight="400" font-size="41" transform="matrix(1 0 0 1 596.148 3211)">Källa</text><text font-family="Arial,Arial_MSFontService,sans-serif" font-weight="400" font-size="41" transform="matrix(1 0 0 1 687.815 3211)">: </text><text font-family="Arial,Arial_MSFontService,sans-serif" font-weight="400" font-size="41" transform="matrix(1 0 0 1 710.731 3211)">S.Canbäck</text><text font-family="Arial,Arial_MSFontService,sans-serif" font-weight="400" font-size="41" transform="matrix(1 0 0 1 923.856 3211)">(Tellusant) </text><text font-family="Arial,Arial_MSFontService,sans-serif" font-weight="400" font-size="41" transform="matrix(1 0 0 1 1130.11 3211)">analys</text><text font-family="Arial,Arial_MSFontService,sans-serif" font-weight="400" font-size="41" transform="matrix(1 0 0 1 1249.27 3211)">; TelluBase</text></g></svg>