<svg width="608" height="194" xmlns="http://www.w3.org/2000/svg" xmlns:xlink="http://www.w3.org/1999/xlink" xml:space="preserve" overflow="hidden"><defs><clipPath id="clip0"><rect x="30" y="69" width="608" height="194"/></clipPath></defs><g clip-path="url(#clip0)" transform="translate(-30 -69)"><path d="M25.9745 112.889 622.388 112.889 622.388 393.613 25.9745 393.613Z" fill="#FFFFFF" transform="matrix(1.00098 0 0 1 4 -43.889)"/><path d="M177.825 246.757 422.585 246.757 422.585 276.728 177.825 276.728Z" fill="#FECC02" transform="matrix(1.00098 0 0 1 4 -43.889)"/><path d="M177.825 189.813 556.453 189.813 556.453 219.784 177.825 219.784Z" fill="#FECC02" transform="matrix(1.00098 0 0 1 4 -43.889)"/><path d="M0 0 0.000104884 113.888" stroke="#D9D9D9" stroke-width="0.999018" stroke-linejoin="round" stroke-miterlimit="10" fill="none" fill-rule="evenodd" transform="matrix(1.00098 0 0 -1 181.5 246.326)"/><text font-family="Arial,Arial_MSFontService,sans-serif" font-weight="400" font-size="15" transform="matrix(1 0 0 0.999018 438.774 223)">72 000 </text><g><text font-family="Arial,Arial_MSFontService,sans-serif" font-weight="400" font-size="15" transform="matrix(1 0 0 0.999018 569.47 167)">111 500 </text></g><text font-family="Arial,Arial_MSFontService,sans-serif" font-weight="400" font-size="15" transform="matrix(1 0 0 0.999018 119.345 222)">Sverige</text><text font-family="Arial,Arial_MSFontService,sans-serif" font-weight="400" font-size="15" transform="matrix(1 0 0 0.999018 138.931 165)">USA</text><text font-family="Arial,Arial_MSFontService,sans-serif" font-weight="700" font-size="17" transform="matrix(1 0 0 0.999018 173.517 95)">Justerad</text><text font-family="Arial,Arial_MSFontService,sans-serif" font-weight="700" font-size="17" transform="matrix(1 0 0 0.999018 250.584 95)">disponibel</text><text font-family="Arial,Arial_MSFontService,sans-serif" font-weight="700" font-size="17" transform="matrix(1 0 0 0.999018 342.051 95)">inkomst</text><text font-family="Arial,Arial_MSFontService,sans-serif" font-weight="700" font-size="17" transform="matrix(1 0 0 0.999018 413.317 95)">/ </text><text fill="#C00000" font-family="Arial,Arial_MSFontService,sans-serif" font-weight="700" font-size="17" transform="matrix(1 0 0 0.999018 422.944 95)">HH</text><text fill="#C00000" font-family="Arial,Arial_MSFontService,sans-serif" font-weight="700" font-size="17" transform="matrix(1 0 0 0.999018 447.984 95)">-</text><text fill="#C00000" font-family="Arial,Arial_MSFontService,sans-serif" font-weight="700" font-size="17" transform="matrix(1 0 0 0.999018 453.757 95)">ekv</text><text font-family="Arial,Arial_MSFontService,sans-serif" font-weight="400" font-size="16" transform="matrix(1 0 0 0.999018 199.137 114)">PPP</text><text font-family="Arial,Arial_MSFontService,sans-serif" font-weight="400" font-size="16" transform="matrix(1 0 0 0.999018 231.153 114)">$, </text><text font-family="Arial,Arial_MSFontService,sans-serif" font-weight="400" font-size="16" transform="matrix(1 0 0 0.999018 248.942 114)">2021 </text><text font-family="Arial,Arial_MSFontService,sans-serif" font-weight="400" font-size="16" transform="matrix(1 0 0 0.999018 288.997 114)">växelkurs</text><text font-family="Arial,Arial_MSFontService,sans-serif" font-weight="400" font-size="16" transform="matrix(1 0 0 0.999018 361.024 114)">RER</text><text font-family="Arial,Arial_MSFontService,sans-serif" font-weight="400" font-size="16" transform="matrix(1 0 0 0.999018 394.804 114)">-</text><text font-family="Arial,Arial_MSFontService,sans-serif" font-weight="400" font-size="16" transform="matrix(1 0 0 0.999018 400.131 114)">justerad</text><path d="M0 0.999018-0.307817 0.999018 0.691201 0 0.691201 39.2947-0.307817 38.2957 22.6854 38.2957 22.6854 40.2937-1.30684 40.2937-1.30684-0.999018 0-0.999018ZM21.3534 35.2986 29.3456 39.2947 21.3534 43.2908Z" transform="matrix(-1.00098 1.22465e-16 1.22585e-16 1 590.374 176.894)"/><text font-family="Calibri,Calibri_MSFontService,sans-serif" font-weight="700" font-size="15" transform="matrix(1 0 0 0.999018 600.43 202)">3</text><text font-family="Calibri,Calibri_MSFontService,sans-serif" font-weight="700" font-size="15" transform="matrix(1 0 0 0.999018 607.93 202)">5</text><text font-family="Arial,Arial_MSFontService,sans-serif" font-weight="700" font-size="15" transform="matrix(1 0 0 0.999018 615.43 202)">%</text></g></svg>