<svg width="2044" height="963" xmlns="http://www.w3.org/2000/svg" xmlns:xlink="http://www.w3.org/1999/xlink" xml:space="preserve" overflow="hidden"><defs><clipPath id="clip0"><rect x="76" y="510" width="2044" height="963"/></clipPath><clipPath id="clip1"><rect x="602" y="727" width="1406" height="392"/></clipPath></defs><g clip-path="url(#clip0)" transform="translate(-76 -510)"><rect x="76" y="510" width="1960" height="963" fill="#FFFFFF"/><g clip-path="url(#clip1)"><path d="M1483.05 1071.04 602 1071.04 602 968.032 1483.05 968.032ZM1824.06 876.029 602 876.029 602 773.025 1824.06 773.025Z" fill="#006AA7"/></g><g><path d="M0 0 0.000360892 389" stroke="#D9D9D9" stroke-width="3.4375" stroke-linejoin="round" stroke-miterlimit="10" fill="none" fill-rule="evenodd" transform="matrix(1 0 0 -1 602.5 1116.5)"/></g><g><text font-family="Arial,Arial_MSFontService,sans-serif" font-weight="400" font-size="50" transform="matrix(1 0 0 1 1524.56 1037)">62 800 </text></g><g><text font-family="Arial,Arial_MSFontService,sans-serif" font-weight="400" font-size="50" transform="matrix(1 0 0 1 1865.31 843)">87 100 </text></g><g><text font-family="Arial,Arial_MSFontService,sans-serif" font-weight="400" font-size="50" transform="matrix(1 0 0 1 388.075 1036)">Sverige</text></g><g><text font-family="Arial,Arial_MSFontService,sans-serif" font-weight="400" font-size="50" transform="matrix(1 0 0 1 455.404 841)">USA</text></g><g><text font-family="Arial,Arial_MSFontService,sans-serif" font-weight="700" font-size="60" transform="matrix(1 0 0 1 866.498 600)">Bruttonationalprodukt</text></g><g><text font-family="Arial,Arial_MSFontService,sans-serif" font-weight="700" font-size="60" transform="matrix(1 0 0 1 1511.88 600)">/ </text></g><g><text font-family="Arial,Arial_MSFontService,sans-serif" font-weight="700" font-size="60" transform="matrix(1 0 0 1 1544.97 600)">invånare</text></g><g><text font-family="Arial,Arial_MSFontService,sans-serif" font-weight="400" font-size="55" transform="matrix(1 0 0 1 1069.93 664)">USD, 2025 </text></g><g><text font-family="Arial,Arial_MSFontService,sans-serif" font-weight="400" font-size="55" transform="matrix(1 0 0 1 1354.28 664)">växelkurs</text></g><path d="M0 3.4375-1.71882 3.4375 1.71868 0 1.71868 135.208-1.71882 131.771 140.938 131.771 140.938 138.646-5.15632 138.646-5.15632-3.4375 0-3.4375ZM136.354 121.458 163.854 135.208 136.354 148.958Z" transform="matrix(-1 1.22465e-16 1.22465e-16 1 1926.35 883.5)"/><text font-family="Calibri,Calibri_MSFontService,sans-serif" font-weight="700" font-size="50" transform="matrix(1 0 0 1 1959.17 968)">−</text><text font-family="Arial,Arial_MSFontService,sans-serif" font-weight="700" font-size="50" transform="matrix(1 0 0 1 1984.38 968)">28%</text><text font-family="Arial,Arial_MSFontService,sans-serif" font-weight="400" font-size="41" transform="matrix(1 0 0 1 598.231 1209)">Källa: </text><text font-family="Arial,Arial_MSFontService,sans-serif" font-weight="400" font-size="41" transform="matrix(1 0 0 1 712.814 1209)">S.Canbäck</text><text font-family="Arial,Arial_MSFontService,sans-serif" font-weight="400" font-size="41" transform="matrix(1 0 0 1 925.939 1209)">(Tellusant) </text><text font-family="Arial,Arial_MSFontService,sans-serif" font-weight="400" font-size="41" transform="matrix(1 0 0 1 1132.19 1209)">analys</text><text font-family="Arial,Arial_MSFontService,sans-serif" font-weight="400" font-size="41" transform="matrix(1 0 0 1 1251.36 1209)">; TelluBase</text></g></svg>