<svg width="598" height="190" xmlns="http://www.w3.org/2000/svg" xmlns:xlink="http://www.w3.org/1999/xlink" xml:space="preserve" overflow="hidden"><defs><clipPath id="clip0"><rect x="30" y="276" width="598" height="190"/></clipPath></defs><g clip-path="url(#clip0)" transform="translate(-30 -276)"><path d="M24.8791 326.414 619.988 326.414 619.988 608.046 24.8791 608.046Z" fill="#FFFFFF" transform="matrix(1.00486 0 0 1 5 -50.4141)"/><path d="M413.989 489.621 176.144 489.621 176.144 459.766 413.989 459.766ZM510.52 432.897 176.144 432.897 176.144 403.042 510.52 403.042Z" fill="#5FAF4A" transform="matrix(1.00486 0 0 1 5 -50.4141)"/><path d="M0 0 0.000104479 113.449" stroke="#D9D9D9" stroke-width="0.995165" stroke-linejoin="round" stroke-miterlimit="10" fill="none" fill-rule="evenodd" transform="matrix(1.00486 0 0 -1 182.5 452.642)"/><text fill="#404040" font-family="Arial,Arial_MSFontService,sans-serif" font-weight="400" font-size="15" transform="matrix(1 0 0 0.995165 432.833 430)">60 500 </text><text fill="#404040" font-family="Arial,Arial_MSFontService,sans-serif" font-weight="400" font-size="15" transform="matrix(1 0 0 0.995165 529.729 374)">85 100 </text><text font-family="Arial,Arial_MSFontService,sans-serif" font-weight="400" font-size="15" transform="matrix(1 0 0 0.995165 120.098 429)">Sverige</text><text font-family="Arial,Arial_MSFontService,sans-serif" font-weight="400" font-size="15" transform="matrix(1 0 0 0.995165 139.684 372)">USA</text><text font-family="Arial,Arial_MSFontService,sans-serif" font-weight="700" font-size="17" transform="matrix(1 0 0 0.995165 144.012 302)">Justerad disponibel </text><text fill="#C00000" font-family="Arial,Arial_MSFontService,sans-serif" font-weight="700" font-size="17" transform="matrix(1 0 0 0.995165 312.545 302)">median</text><text font-family="Arial,Arial_MSFontService,sans-serif" font-weight="700" font-size="17" transform="matrix(1 0 0 0.995165 373.225 302)">inkomst </text><text font-family="Arial,Arial_MSFontService,sans-serif" font-weight="700" font-size="17" transform="matrix(1 0 0 0.995165 443.126 302)">/ </text><text font-family="Arial,Arial_MSFontService,sans-serif" font-weight="700" font-size="17" transform="matrix(1 0 0 0.995165 452.572 302)">HH</text><text font-family="Arial,Arial_MSFontService,sans-serif" font-weight="700" font-size="17" transform="matrix(1 0 0 0.995165 479.158 302)">-</text><text font-family="Arial,Arial_MSFontService,sans-serif" font-weight="700" font-size="17" transform="matrix(1 0 0 0.995165 484.932 302)">ekv</text><text font-family="Arial,Arial_MSFontService,sans-serif" font-weight="400" font-size="16" transform="matrix(1 0 0 0.995165 199.972 321)">PPP</text><text font-family="Arial,Arial_MSFontService,sans-serif" font-weight="400" font-size="16" transform="matrix(1 0 0 0.995165 231.988 321)">$; </text><text font-family="Arial,Arial_MSFontService,sans-serif" font-weight="400" font-size="16" transform="matrix(1 0 0 0.995165 249.777 321)">2021 </text><text font-family="Arial,Arial_MSFontService,sans-serif" font-weight="400" font-size="16" transform="matrix(1 0 0 0.995165 289.816 321)">växelkurs RER</text><text font-family="Arial,Arial_MSFontService,sans-serif" font-weight="400" font-size="16" transform="matrix(1 0 0 0.995165 395.638 321)">-</text><text font-family="Arial,Arial_MSFontService,sans-serif" font-weight="400" font-size="16" transform="matrix(1 0 0 0.995165 400.965 321)">justerad</text><path d="M0 0.995165-0.30663 0.995165 0.688535 0 0.688535 39.1431-0.30663 38.148 22.5979 38.148 22.5979 40.1383-1.3018 40.1383-1.3018-0.995165 0-0.995165ZM21.2711 35.1625 29.2324 39.1431 21.2711 43.1238Z" transform="matrix(-1.00486 1.22465e-16 1.2306e-16 1 543.374 385.468)"/><text font-family="Calibri,Calibri_MSFontService,sans-serif" font-weight="700" font-size="15" transform="matrix(1 0 0 0.995165 552.766 410)">29</text><text font-family="Arial,Arial_MSFontService,sans-serif" font-weight="700" font-size="15" transform="matrix(1 0 0 0.995165 567.766 410)">%</text></g></svg>