<svg width="554" height="239" xmlns="http://www.w3.org/2000/svg" xmlns:xlink="http://www.w3.org/1999/xlink" xml:space="preserve" overflow="hidden"><defs><clipPath id="clip0"><rect x="123" y="500" width="554" height="239"/></clipPath></defs><g clip-path="url(#clip0)" transform="translate(-123 -500)"><path d="M14.9963 71.9825 642.843 71.9825 642.843 351.914 14.9963 351.914Z" fill="#FFFFFF" transform="matrix(1 0 0 1.00164 28.1581 427.899)"/><path d="M174.957 204.95 434.894 204.95 434.894 234.943 174.957 234.943Z" fill="#FECC02" transform="matrix(1 0 0 1.00164 28.1581 427.899)"/><path d="M174.957 148.964 553.865 148.964 553.865 178.956 174.957 178.956Z" fill="#FECC02" transform="matrix(1 0 0 1.00164 28.1581 427.899)"/><path d="M0 0 0.000104961 112.972" stroke="#D9D9D9" stroke-width="0.999756" stroke-linejoin="round" stroke-miterlimit="10" fill="none" fill-rule="evenodd" transform="matrix(1 0 0 -1.00164 202.616 676.747)"/><text font-family="Arial,Arial_MSFontService,sans-serif" font-weight="400" font-size="15" transform="matrix(0.999756 0 0 1.0014 475.37 654)">72 800 </text><text font-family="Arial,Arial_MSFontService,sans-serif" font-weight="400" font-size="15" transform="matrix(0.999756 0 0 1.0014 594.592 597)">106 100 </text><text font-family="Arial,Arial_MSFontService,sans-serif" font-weight="400" font-size="15" transform="matrix(0.999756 0 0 1.0014 140.313 653)">Sverige</text><text font-family="Arial,Arial_MSFontService,sans-serif" font-weight="400" font-size="15" transform="matrix(0.999756 0 0 1.0014 159.895 596)">USA</text><text font-family="Arial,Arial_MSFontService,sans-serif" font-weight="700" font-size="17" transform="matrix(0.999756 0 0 1.0014 197.383 526)">STIK</text><text font-family="Arial,Arial_MSFontService,sans-serif" font-weight="700" font-size="17" transform="matrix(0.999756 0 0 1.0014 236.853 526)">-</text><text font-family="Arial,Arial_MSFontService,sans-serif" font-weight="700" font-size="17" transform="matrix(0.999756 0 0 1.0014 242.626 526)">justerad</text><text font-family="Arial,Arial_MSFontService,sans-serif" font-weight="700" font-size="17" transform="matrix(0.999756 0 0 1.0014 314.848 526)">KKP </text><text font-family="Arial,Arial_MSFontService,sans-serif" font-weight="700" font-size="17" transform="matrix(0.999756 0 0 1.0014 355.938 526)">disponibel</text><text font-family="Arial,Arial_MSFontService,sans-serif" font-weight="700" font-size="17" transform="matrix(0.999756 0 0 1.0014 447.382 526)">inkomst</text><text font-family="Arial,Arial_MSFontService,sans-serif" font-weight="700" font-size="17" transform="matrix(0.999756 0 0 1.0014 518.632 526)">/ </text><text fill="#C00000" font-family="Arial,Arial_MSFontService,sans-serif" font-weight="700" font-size="17" transform="matrix(0.999756 0 0 1.0014 528.256 526)">HH</text><text fill="#C00000" font-family="Arial,Arial_MSFontService,sans-serif" font-weight="700" font-size="17" transform="matrix(0.999756 0 0 1.0014 553.29 526)">-</text><text fill="#C00000" font-family="Arial,Arial_MSFontService,sans-serif" font-weight="700" font-size="17" transform="matrix(0.999756 0 0 1.0014 559.062 526)">ekv</text><text font-family="Arial,Arial_MSFontService,sans-serif" font-weight="400" font-size="16" transform="matrix(0.999756 0 0 1.0014 254.423 545)">PPP</text><text font-family="Arial,Arial_MSFontService,sans-serif" font-weight="400" font-size="16" transform="matrix(0.999756 0 0 1.0014 286.431 545)">$, </text><text font-family="Arial,Arial_MSFontService,sans-serif" font-weight="400" font-size="16" transform="matrix(0.999756 0 0 1.0014 304.224 545)">framskriven</text><text font-family="Arial,Arial_MSFontService,sans-serif" font-weight="400" font-size="16" transform="matrix(0.999756 0 0 1.0014 391.33 545)">växelkurs</text><text font-family="Arial,Arial_MSFontService,sans-serif" font-weight="400" font-size="16" transform="matrix(0.999756 0 0 1.0014 463.338 545)">från</text><text font-family="Arial,Arial_MSFontService,sans-serif" font-weight="400" font-size="16" transform="matrix(0.999756 0 0 1.0014 495.35 545)">2021</text><text font-family="Arial,Arial_MSFontService,sans-serif" font-weight="400" font-size="12" transform="matrix(0.999756 0 0 1.0014 203.673 707)">HH</text><text font-family="Arial,Arial_MSFontService,sans-serif" font-weight="400" font-size="12" transform="matrix(0.999756 0 0 1.0014 221.002 707)">-</text><text font-family="Arial,Arial_MSFontService,sans-serif" font-weight="400" font-size="12" transform="matrix(0.999756 0 0 1.0014 225.001 707)">ekv</text><text font-family="Arial,Arial_MSFontService,sans-serif" font-weight="400" font-size="12" transform="matrix(0.999756 0 0 1.0014 246.996 707)">= </text><text font-family="Arial,Arial_MSFontService,sans-serif" font-weight="400" font-size="12" transform="matrix(0.999756 0 0 1.0014 257.326 707)">hushållsekvivalent</text><text font-family="Arial,Arial_MSFontService,sans-serif" font-weight="400" font-size="12" transform="matrix(0.999756 0 0 1.0014 357.969 707)">= </text><text font-family="Arial,Arial_MSFontService,sans-serif" font-weight="400" font-size="12" transform="matrix(0.999756 0 0 1.0014 368.299 707)">korrektion</text><text font-family="Arial,Arial_MSFontService,sans-serif" font-weight="400" font-size="12" transform="matrix(0.999756 0 0 1.0014 424.286 707)">för </text><text font-family="Arial,Arial_MSFontService,sans-serif" font-weight="400" font-size="12" transform="matrix(0.999756 0 0 1.0014 441.615 707)">hushållsstorlek</text><text font-family="Arial,Arial_MSFontService,sans-serif" font-weight="400" font-size="12" transform="matrix(0.999756 0 0 1.0014 203.673 721)">Källa</text><text font-family="Arial,Arial_MSFontService,sans-serif" font-weight="400" font-size="12" transform="matrix(0.999756 0 0 1.0014 230.35 721)">: </text><text font-family="Arial,Arial_MSFontService,sans-serif" font-weight="400" font-size="12" transform="matrix(0.999756 0 0 1.0014 236.998 721)">S</text><text font-family="Arial,Arial_MSFontService,sans-serif" font-weight="400" font-size="12" transform="matrix(0.999756 0 0 1.0014 245 721)">.</text><text font-family="Arial,Arial_MSFontService,sans-serif" font-weight="400" font-size="12" transform="matrix(0.999756 0 0 1.0014 248.333 721)">Canbäck</text><text font-family="Arial,Arial_MSFontService,sans-serif" font-weight="400" font-size="12" transform="matrix(0.999756 0 0 1.0014 298.983 721)">(</text><text font-family="Arial,Arial_MSFontService,sans-serif" font-weight="400" font-size="12" transform="matrix(0.999756 0 0 1.0014 302.978 721)">Tellusant</text><text font-family="Arial,Arial_MSFontService,sans-serif" font-weight="400" font-size="12" transform="matrix(0.999756 0 0 1.0014 350.328 721)">) </text><text font-family="Arial,Arial_MSFontService,sans-serif" font-weight="400" font-size="12" transform="matrix(0.999756 0 0 1.0014 358.969 721)">analys</text><text font-family="Arial,Arial_MSFontService,sans-serif" font-weight="400" font-size="12" transform="matrix(0.999756 0 0 1.0014 393.627 721)">; </text><text font-family="Arial,Arial_MSFontService,sans-serif" font-weight="400" font-size="12" transform="matrix(0.999756 0 0 1.0014 400.293 721)">TelluBase</text><path d="M0 0.999756-0.308045 0.999756 0.691711 0 0.691711 39.3237-0.308045 38.324 22.7022 38.324 22.7022 40.3235-1.3078 40.3235-1.3078-0.999756 0-0.999756ZM21.3692 35.3247 29.3672 39.3237 21.3692 43.3227Z" transform="matrix(-1 1.22666e-16 1.22465e-16 1.00164 622.387 610.154)"/><text font-family="Calibri,Calibri_MSFontService,sans-serif" font-weight="700" font-size="15" transform="matrix(0.999756 0 0 1.0014 631.908 635)">−</text><text font-family="Calibri,Calibri_MSFontService,sans-serif" font-weight="700" font-size="15" transform="matrix(0.999756 0 0 1.0014 639.239 635)">35</text><text font-family="Arial,Arial_MSFontService,sans-serif" font-weight="700" font-size="15" transform="matrix(0.999756 0 0 1.0014 654.236 635)">%</text></g></svg>