<svg width="1788" height="965" xmlns="http://www.w3.org/2000/svg" xmlns:xlink="http://www.w3.org/1999/xlink" xml:space="preserve" overflow="hidden"><defs><clipPath id="clip0"><rect x="130" y="1480" width="1788" height="965"/></clipPath></defs><g clip-path="url(#clip0)" transform="translate(-130 -1480)"><rect x="130" y="1480" width="1788" height="965" fill="#FFFFFF"/><g><path d="M1036.03 2042.07 611 2042.07 611 1939.06 1036.03 1939.06ZM1509.05 1847.06 611 1847.06 611 1744.06 1509.05 1744.06Z" fill="#006AA7"/></g><g><path d="M0 0 0.000360892 389" stroke="#D9D9D9" stroke-width="3.4375" stroke-linejoin="round" stroke-miterlimit="10" fill="none" fill-rule="evenodd" transform="matrix(1 0 0 -1 610.5 2087.5)"/></g><g><text font-family="Arial,Arial_MSFontService,sans-serif" font-weight="400" font-size="50" transform="matrix(1 0 0 1 1077.22 2008)">30 000 </text></g><g><text font-family="Arial,Arial_MSFontService,sans-serif" font-weight="400" font-size="50" transform="matrix(1 0 0 1 1550.56 1813)">63 400 </text></g><g><text font-family="Arial,Arial_MSFontService,sans-serif" font-weight="400" font-size="50" transform="matrix(1 0 0 1 396.198 2007)">Sverige</text></g><g><text font-family="Arial,Arial_MSFontService,sans-serif" font-weight="400" font-size="50" transform="matrix(1 0 0 1 463.527 1812)">USA</text></g><g><text fill="#C00000" font-family="Arial,Arial_MSFontService,sans-serif" font-weight="700" font-size="60" transform="matrix(1 0 0 1 602.147 1571)">Disponibel</text></g><g><text fill="#C00000" font-family="Arial,Arial_MSFontService,sans-serif" font-weight="700" font-size="60" transform="matrix(1 0 0 1 923.21 1571)">inkomst</text></g><g><text font-family="Arial,Arial_MSFontService,sans-serif" font-weight="700" font-size="60" transform="matrix(1 0 0 1 1168.19 1571)">/ </text></g><g><text font-family="Arial,Arial_MSFontService,sans-serif" font-weight="700" font-size="60" transform="matrix(1 0 0 1 1201.28 1571)">invånare</text></g><g><text font-family="Arial,Arial_MSFontService,sans-serif" font-weight="400" font-size="55" transform="matrix(1 0 0 1 765.933 1635)">USD, 2025 </text></g><g><text font-family="Arial,Arial_MSFontService,sans-serif" font-weight="400" font-size="55" transform="matrix(1 0 0 1 1050.28 1635)">växelkurs</text></g><g><text font-family="Arial,Arial_MSFontService,sans-serif" font-weight="400" font-size="41" transform="matrix(1 0 0 1 607.184 2184)">Disponibel</text></g><g><text font-family="Arial,Arial_MSFontService,sans-serif" font-weight="400" font-size="41" transform="matrix(1 0 0 1 811.142 2184)">inkomst</text></g><g><text font-family="Arial,Arial_MSFontService,sans-serif" font-weight="400" font-size="41" transform="matrix(1 0 0 1 964.684 2184)">= </text></g><g><text font-family="Arial,Arial_MSFontService,sans-serif" font-weight="400" font-size="41" transform="matrix(1 0 0 1 1000.2 2184)">Inkomst</text></g><g><text font-family="Arial,Arial_MSFontService,sans-serif" font-weight="400" font-size="41" transform="matrix(1 0 0 1 1156.04 2184)">efter</text></g><g><text font-family="Arial,Arial_MSFontService,sans-serif" font-weight="400" font-size="41" transform="matrix(1 0 0 1 1250 2184)">skatt</text></g><g><text font-family="Arial,Arial_MSFontService,sans-serif" font-weight="400" font-size="41" transform="matrix(1 0 0 1 1348.54 2184)">(och </text></g><g><text font-family="Arial,Arial_MSFontService,sans-serif" font-weight="400" font-size="41" transform="matrix(1 0 0 1 1440.2 2184)">vissa</text></g><g><text font-family="Arial,Arial_MSFontService,sans-serif" font-weight="400" font-size="41" transform="matrix(1 0 0 1 1545.62 2184)">andra</text></g><g><text font-family="Arial,Arial_MSFontService,sans-serif" font-weight="400" font-size="41" transform="matrix(1 0 0 1 1662.5 2184)">justeringar</text></g><g><text font-family="Arial,Arial_MSFontService,sans-serif" font-weight="400" font-size="41" transform="matrix(1 0 0 1 1855 2184)">)</text></g><g><text font-family="Arial,Arial_MSFontService,sans-serif" font-weight="400" font-size="41" transform="matrix(1 0 0 1 607.184 2234)">Källa: </text></g><g><text font-family="Arial,Arial_MSFontService,sans-serif" font-weight="400" font-size="41" transform="matrix(1 0 0 1 721.767 2234)">S.Canbäck</text></g><g><text font-family="Arial,Arial_MSFontService,sans-serif" font-weight="400" font-size="41" transform="matrix(1 0 0 1 934.892 2234)">(Tellusant) </text></g><g><text font-family="Arial,Arial_MSFontService,sans-serif" font-weight="400" font-size="41" transform="matrix(1 0 0 1 1141.14 2234)">analys</text></g><g><text font-family="Arial,Arial_MSFontService,sans-serif" font-weight="400" font-size="41" transform="matrix(1 0 0 1 1260.31 2234)">; TelluBase</text></g><path d="M0 3.4375-1.71882 3.4375 1.71868 0 1.71868 135.208-1.71882 131.771 140.938 131.771 140.938 138.646-5.15632 138.646-5.15632-3.4375 0-3.4375ZM136.354 121.458 163.854 135.208 136.354 148.958Z" transform="matrix(-1 1.22465e-16 1.22465e-16 1 1610.35 1855.5)"/><text font-family="Calibri,Calibri_MSFontService,sans-serif" font-weight="700" font-size="50" transform="matrix(1 0 0 1 1642.46 1940)">−</text><text font-family="Arial,Arial_MSFontService,sans-serif" font-weight="700" font-size="50" transform="matrix(1 0 0 1 1667.66 1940)">53</text><text font-family="Arial,Arial_MSFontService,sans-serif" font-weight="700" font-size="50" transform="matrix(1 0 0 1 1723.81 1940)">%</text></g></svg>