<svg width="527" height="240" xmlns="http://www.w3.org/2000/svg" xmlns:xlink="http://www.w3.org/1999/xlink" xml:space="preserve" overflow="hidden"><defs><clipPath id="clip0"><rect x="120" y="500" width="527" height="240"/></clipPath></defs><g clip-path="url(#clip0)" transform="translate(-120 -500)"><path d="M26.9952 416.926 654.884 416.926 654.884 696.877 26.9952 696.877Z" fill="#FFFFFF" transform="matrix(1 0 0 1.00055 18.6438 82.8429)"/><path d="M449.921 579.898 186.967 579.898 186.967 549.903 449.921 549.903ZM534.906 522.908 186.967 522.908 186.967 492.913 534.906 492.913Z" fill="#5FAF4A" transform="matrix(1 0 0 1.00055 18.6438 82.8429)"/><path d="M0 0 0.000104968 113.98" stroke="#D9D9D9" stroke-width="0.999824" stroke-linejoin="round" stroke-miterlimit="10" fill="none" fill-rule="evenodd" transform="matrix(1 0 0 -1.00055 206.111 676.567)"/><text fill="#404040" font-family="Arial,Arial_MSFontService,sans-serif" font-weight="400" font-size="15" transform="matrix(0.999824 0 0 1.00038 480.848 653)">61 200 </text><text fill="#404040" font-family="Arial,Arial_MSFontService,sans-serif" font-weight="400" font-size="15" transform="matrix(0.999824 0 0 1.00038 565.881 597)">81 000 </text><text font-family="Arial,Arial_MSFontService,sans-serif" font-weight="400" font-size="15" transform="matrix(0.999824 0 0 1.00038 143.599 652)">Sverige</text><text font-family="Arial,Arial_MSFontService,sans-serif" font-weight="400" font-size="15" transform="matrix(0.999824 0 0 1.00038 163.181 596)">USA</text><text font-family="Arial,Arial_MSFontService,sans-serif" font-weight="700" font-size="17" transform="matrix(0.999824 0 0 1.00038 139.605 526)">STIK</text><text font-family="Arial,Arial_MSFontService,sans-serif" font-weight="700" font-size="17" transform="matrix(0.999824 0 0 1.00038 179.079 526)">-</text><text font-family="Arial,Arial_MSFontService,sans-serif" font-weight="700" font-size="17" transform="matrix(0.999824 0 0 1.00038 184.852 526)">justerad KKP disponibel </text><text fill="#C00000" font-family="Arial,Arial_MSFontService,sans-serif" font-weight="700" font-size="17" transform="matrix(0.999824 0 0 1.00038 389.621 526)">median</text><text font-family="Arial,Arial_MSFontService,sans-serif" font-weight="700" font-size="17" transform="matrix(0.999824 0 0 1.00038 450.291 526)">inkomst </text><text font-family="Arial,Arial_MSFontService,sans-serif" font-weight="700" font-size="17" transform="matrix(0.999824 0 0 1.00038 520.179 526)">/ </text><text font-family="Arial,Arial_MSFontService,sans-serif" font-weight="700" font-size="17" transform="matrix(0.999824 0 0 1.00038 529.624 526)">HH</text><text font-family="Arial,Arial_MSFontService,sans-serif" font-weight="700" font-size="17" transform="matrix(0.999824 0 0 1.00038 556.206 526)">-</text><text font-family="Arial,Arial_MSFontService,sans-serif" font-weight="700" font-size="17" transform="matrix(0.999824 0 0 1.00038 561.978 526)">ekv</text><text font-family="Arial,Arial_MSFontService,sans-serif" font-weight="400" font-size="16" transform="matrix(0.999824 0 0 1.00038 226.977 545)">PPP</text><text font-family="Arial,Arial_MSFontService,sans-serif" font-weight="400" font-size="16" transform="matrix(0.999824 0 0 1.00038 258.987 545)">$; </text><text font-family="Arial,Arial_MSFontService,sans-serif" font-weight="400" font-size="16" transform="matrix(0.999824 0 0 1.00038 276.773 545)">framskriven växelkurs från </text><text font-family="Arial,Arial_MSFontService,sans-serif" font-weight="400" font-size="16" transform="matrix(0.999824 0 0 1.00038 467.903 545)">2021</text><text font-family="Arial,Arial_MSFontService,sans-serif" font-weight="400" font-size="12" transform="matrix(0.999824 0 0 1.00038 203.769 706)">Medianinkomst</text><text font-family="Arial,Arial_MSFontService,sans-serif" font-weight="400" font-size="12" transform="matrix(0.999824 0 0 1.00038 287.754 706)">är</text><text font-family="Arial,Arial_MSFontService,sans-serif" font-weight="400" font-size="12" transform="matrix(0.999824 0 0 1.00038 301.752 706)">den </text><text font-family="Arial,Arial_MSFontService,sans-serif" font-weight="400" font-size="12" transform="matrix(0.999824 0 0 1.00038 325.081 706)">mittersta</text><text font-family="Arial,Arial_MSFontService,sans-serif" font-weight="400" font-size="12" transform="matrix(0.999824 0 0 1.00038 374.405 706)">inkomsten</text><text font-family="Arial,Arial_MSFontService,sans-serif" font-weight="400" font-size="12" transform="matrix(0.999824 0 0 1.00038 432.395 706)">(</text><text font-family="Arial,Arial_MSFontService,sans-serif" font-weight="400" font-size="12" transform="matrix(0.999824 0 0 1.00038 436.39 706)">till </text><text font-family="Arial,Arial_MSFontService,sans-serif" font-weight="400" font-size="12" transform="matrix(0.999824 0 0 1.00038 451.059 706)">skillnad</text><text font-family="Arial,Arial_MSFontService,sans-serif" font-weight="400" font-size="12" transform="matrix(0.999824 0 0 1.00038 494.384 706)">från</text><text font-family="Arial,Arial_MSFontService,sans-serif" font-weight="400" font-size="12" transform="matrix(0.999824 0 0 1.00038 518.38 706)">medelinkomsten</text><text font-family="Arial,Arial_MSFontService,sans-serif" font-weight="400" font-size="12" transform="matrix(0.999824 0 0 1.00038 605.698 706)">)</text><text font-family="Arial,Arial_MSFontService,sans-serif" font-weight="400" font-size="12" transform="matrix(0.999824 0 0 1.00038 203.769 721)">Källa</text><text font-family="Arial,Arial_MSFontService,sans-serif" font-weight="400" font-size="12" transform="matrix(0.999824 0 0 1.00038 230.448 721)">: </text><text font-family="Arial,Arial_MSFontService,sans-serif" font-weight="400" font-size="12" transform="matrix(0.999824 0 0 1.00038 237.096 721)">S</text><text font-family="Arial,Arial_MSFontService,sans-serif" font-weight="400" font-size="12" transform="matrix(0.999824 0 0 1.00038 245.099 721)">.</text><text font-family="Arial,Arial_MSFontService,sans-serif" font-weight="400" font-size="12" transform="matrix(0.999824 0 0 1.00038 248.432 721)">Canbäck</text><text font-family="Arial,Arial_MSFontService,sans-serif" font-weight="400" font-size="12" transform="matrix(0.999824 0 0 1.00038 299.085 721)">(</text><text font-family="Arial,Arial_MSFontService,sans-serif" font-weight="400" font-size="12" transform="matrix(0.999824 0 0 1.00038 303.081 721)">Tellusant</text><text font-family="Arial,Arial_MSFontService,sans-serif" font-weight="400" font-size="12" transform="matrix(0.999824 0 0 1.00038 350.434 721)">) </text><text font-family="Arial,Arial_MSFontService,sans-serif" font-weight="400" font-size="12" transform="matrix(0.999824 0 0 1.00038 359.075 721)">analys</text><text font-family="Arial,Arial_MSFontService,sans-serif" font-weight="400" font-size="12" transform="matrix(0.999824 0 0 1.00038 393.736 721)">; </text><text font-family="Arial,Arial_MSFontService,sans-serif" font-weight="400" font-size="12" transform="matrix(0.999824 0 0 1.00038 400.402 721)">TelluBase</text><path d="M0 0.999824-0.308066 0.999824 0.691758 0 0.691758 39.3264-0.308066 38.3265 22.7037 38.3265 22.7037 40.3262-1.30789 40.3262-1.30789-0.999824 0-0.999824ZM21.3706 35.3271 29.3692 39.3264 21.3706 43.3257Z" transform="matrix(-1 1.22533e-16 1.22465e-16 1.00055 583.918 610.041)"/><text font-family="Calibri,Calibri_MSFontService,sans-serif" font-weight="700" font-size="15" transform="matrix(0.999824 0 0 1.00038 593.398 634)">−</text><text font-family="Calibri,Calibri_MSFontService,sans-serif" font-weight="700" font-size="15" transform="matrix(0.999824 0 0 1.00038 600.731 634)">24</text><text font-family="Arial,Arial_MSFontService,sans-serif" font-weight="700" font-size="15" transform="matrix(0.999824 0 0 1.00038 615.729 634)">%</text></g></svg>