<svg width="469" height="232" xmlns="http://www.w3.org/2000/svg" xmlns:xlink="http://www.w3.org/1999/xlink" xml:space="preserve" overflow="hidden"><defs><clipPath id="clip0"><rect x="110" y="839" width="469" height="232"/></clipPath></defs><g clip-path="url(#clip0)" transform="translate(-110 -839)"><path d="M60.8078 996.85 579.17 996.85 579.17 1275.97 60.8078 1275.97Z" fill="#FFFFFF" transform="matrix(1.00474 0 0 1 -7.92199 -157.85)"/><path d="M414.689 1159.34 193.389 1159.34 193.389 1129.43 414.689 1129.43ZM497.428 1102.52 193.389 1102.52 193.389 1072.61 497.428 1072.61Z" fill="#006AA7" transform="matrix(1.00474 0 0 1 -7.92199 -157.85)"/><path d="M0 0 0.000104656 113.641" stroke="#D9D9D9" stroke-width="0.99685" stroke-linejoin="round" stroke-miterlimit="10" fill="none" fill-rule="evenodd" transform="matrix(1.00474 0 0 -1 185.882 1014.94)"/><text fill="#404040" font-family="Arial,Arial_MSFontService,sans-serif" font-weight="400" font-size="15" transform="matrix(1.00157 0 0 0.99685 421.15 992)">50 100 </text><text fill="#404040" font-family="Arial,Arial_MSFontService,sans-serif" font-weight="400" font-size="15" transform="matrix(1.00157 0 0 0.99685 504.394 936)">68 800 </text><text font-family="Arial,Arial_MSFontService,sans-serif" font-weight="400" font-size="15" transform="matrix(1.00157 0 0 0.99685 123.577 991)">Sverige</text><text font-family="Arial,Arial_MSFontService,sans-serif" font-weight="400" font-size="15" transform="matrix(1.00157 0 0 0.99685 143.194 935)">USA</text><text fill="#C00000" font-family="Arial,Arial_MSFontService,sans-serif" font-weight="700" font-size="17" transform="matrix(1.00157 0 0 0.99685 134.974 866)">STIK</text><text fill="#C00000" font-family="Arial,Arial_MSFontService,sans-serif" font-weight="700" font-size="17" transform="matrix(1.00157 0 0 0.99685 174.517 866)">-</text><text fill="#C00000" font-family="Arial,Arial_MSFontService,sans-serif" font-weight="700" font-size="17" transform="matrix(1.00157 0 0 0.99685 180.299 866)">justerad</text><text font-family="Arial,Arial_MSFontService,sans-serif" font-weight="700" font-size="17" transform="matrix(1.00157 0 0 0.99685 252.652 866)">KKP </text><text font-family="Arial,Arial_MSFontService,sans-serif" font-weight="700" font-size="17" transform="matrix(1.00157 0 0 0.99685 293.817 866)">disponibel</text><text font-family="Arial,Arial_MSFontService,sans-serif" font-weight="700" font-size="17" transform="matrix(1.00157 0 0 0.99685 385.428 866)">inkomst</text><text font-family="Arial,Arial_MSFontService,sans-serif" font-weight="700" font-size="17" transform="matrix(1.00157 0 0 0.99685 456.806 866)">/ </text><text font-family="Arial,Arial_MSFontService,sans-serif" font-weight="700" font-size="17" transform="matrix(1.00157 0 0 0.99685 466.448 866)">invånare</text><text font-family="Arial,Arial_MSFontService,sans-serif" font-weight="400" font-size="16" transform="matrix(1.00157 0 0 0.99685 197.899 885)">PPP</text><text font-family="Arial,Arial_MSFontService,sans-serif" font-weight="400" font-size="16" transform="matrix(1.00157 0 0 0.99685 229.965 885)">$, </text><text font-family="Arial,Arial_MSFontService,sans-serif" font-weight="400" font-size="16" transform="matrix(1.00157 0 0 0.99685 247.792 885)">framskriven</text><text font-family="Arial,Arial_MSFontService,sans-serif" font-weight="400" font-size="16" transform="matrix(1.00157 0 0 0.99685 335.055 885)">växelkurs</text><text font-family="Arial,Arial_MSFontService,sans-serif" font-weight="400" font-size="16" transform="matrix(1.00157 0 0 0.99685 407.195 885)">från</text><text font-family="Arial,Arial_MSFontService,sans-serif" font-weight="400" font-size="16" transform="matrix(1.00157 0 0 0.99685 439.266 885)">2021</text><text font-family="Arial,Arial_MSFontService,sans-serif" font-weight="400" font-size="12" transform="matrix(1.00157 0 0 0.99685 185.521 1041)">STIK </text><text font-family="Arial,Arial_MSFontService,sans-serif" font-weight="400" font-size="12" transform="matrix(1.00157 0 0 0.99685 215.574 1041)">= </text><text font-family="Arial,Arial_MSFontService,sans-serif" font-weight="400" font-size="12" transform="matrix(1.00157 0 0 0.99685 225.932 1041)">Social transfers in kind </text><text font-family="Arial,Arial_MSFontService,sans-serif" font-weight="400" font-size="12" transform="matrix(1.00157 0 0 0.99685 350.182 1041)">(</text><text font-family="Arial,Arial_MSFontService,sans-serif" font-weight="400" font-size="12" transform="matrix(1.00157 0 0 0.99685 354.184 1041)">OECD</text><text font-family="Arial,Arial_MSFontService,sans-serif" font-weight="400" font-size="12" transform="matrix(1.00157 0 0 0.99685 388.909 1041)">)</text><text font-family="Arial,Arial_MSFontService,sans-serif" font-weight="400" font-size="12" transform="matrix(1.00157 0 0 0.99685 185.521 1055)">Källa</text><text font-family="Arial,Arial_MSFontService,sans-serif" font-weight="400" font-size="12" transform="matrix(1.00157 0 0 0.99685 212.246 1055)">: </text><text font-family="Arial,Arial_MSFontService,sans-serif" font-weight="400" font-size="12" transform="matrix(1.00157 0 0 0.99685 218.906 1055)">S</text><text font-family="Arial,Arial_MSFontService,sans-serif" font-weight="400" font-size="12" transform="matrix(1.00157 0 0 0.99685 226.923 1055)">.</text><text font-family="Arial,Arial_MSFontService,sans-serif" font-weight="400" font-size="12" transform="matrix(1.00157 0 0 0.99685 230.262 1055)">Canbäck</text><text font-family="Arial,Arial_MSFontService,sans-serif" font-weight="400" font-size="12" transform="matrix(1.00157 0 0 0.99685 281.004 1055)">(</text><text font-family="Arial,Arial_MSFontService,sans-serif" font-weight="400" font-size="12" transform="matrix(1.00157 0 0 0.99685 285.006 1055)">Tellusant</text><text font-family="Arial,Arial_MSFontService,sans-serif" font-weight="400" font-size="12" transform="matrix(1.00157 0 0 0.99685 332.442 1055)">) </text><text font-family="Arial,Arial_MSFontService,sans-serif" font-weight="400" font-size="12" transform="matrix(1.00157 0 0 0.99685 341.098 1055)">analys</text><text font-family="Arial,Arial_MSFontService,sans-serif" font-weight="400" font-size="12" transform="matrix(1.00157 0 0 0.99685 375.82 1055)">; </text><text font-family="Arial,Arial_MSFontService,sans-serif" font-weight="400" font-size="12" transform="matrix(1.00157 0 0 0.99685 382.498 1055)">TelluBase</text><path d="M0 0.99685-0.498445 0.99685 0.498405 0 0.498405 39.2094-0.498445 38.2125 40.8708 38.2125 40.8708 40.2062-1.49529 40.2062-1.49529-0.99685 0-0.99685ZM39.5417 35.222 47.5165 39.2094 39.5417 43.1968Z" transform="matrix(-1.00474 1.22465e-16 1.23045e-16 1 522.578 946.66)"/><text font-family="Calibri,Calibri_MSFontService,sans-serif" font-weight="700" font-size="15" transform="matrix(1.00157 0 0 0.99685 532.321 972)">−</text><text font-family="Arial,Arial_MSFontService,sans-serif" font-weight="700" font-size="15" transform="matrix(1.00157 0 0 0.99685 539.665 972)">27</text><text font-family="Arial,Arial_MSFontService,sans-serif" font-weight="700" font-size="15" transform="matrix(1.00157 0 0 0.99685 556.024 972)">%</text></g></svg>