<svg width="523" height="233" xmlns="http://www.w3.org/2000/svg" xmlns:xlink="http://www.w3.org/1999/xlink" xml:space="preserve" overflow="hidden"><defs><clipPath id="clip0"><rect x="128" y="773" width="523" height="233"/></clipPath></defs><g clip-path="url(#clip0)" transform="translate(-128 -773)"><path d="M26.9615 416.406 654.067 416.406 654.067 696.007 26.9615 696.007Z" fill="#FFFFFF" transform="matrix(1.00244 0 0 1 24.0339 356.594)"/><path d="M449.359 579.174 186.734 579.174 186.734 549.216 449.359 549.216ZM534.238 522.255 186.734 522.255 186.734 492.298 534.238 492.298Z" fill="#5FAF4A" transform="matrix(1.00244 0 0 1 24.0339 356.594)"/><path d="M0 0 0.000104837 113.838" stroke="#D9D9D9" stroke-width="0.998575" stroke-linejoin="round" stroke-miterlimit="10" fill="none" fill-rule="evenodd" transform="matrix(1.00244 0 0 -1 211.724 949.249)"/><text fill="#404040" font-family="Arial,Arial_MSFontService,sans-serif" font-weight="400" font-size="15" transform="matrix(1.00101 0 0 0.998575 486.788 926)">61 200 </text><text fill="#404040" font-family="Arial,Arial_MSFontService,sans-serif" font-weight="400" font-size="15" transform="matrix(1.00101 0 0 0.998575 571.922 870)">81 000 </text><text font-family="Arial,Arial_MSFontService,sans-serif" font-weight="400" font-size="15" transform="matrix(1.00101 0 0 0.998575 149.137 925)">Sverige</text><text font-family="Arial,Arial_MSFontService,sans-serif" font-weight="400" font-size="15" transform="matrix(1.00101 0 0 0.998575 168.743 869)">USA</text><text font-family="Arial,Arial_MSFontService,sans-serif" font-weight="700" font-size="17" transform="matrix(1.00101 0 0 0.998575 145.139 799)">STIK</text><text font-family="Arial,Arial_MSFontService,sans-serif" font-weight="700" font-size="17" transform="matrix(1.00101 0 0 0.998575 184.659 799)">-</text><text font-family="Arial,Arial_MSFontService,sans-serif" font-weight="700" font-size="17" transform="matrix(1.00101 0 0 0.998575 190.439 799)">justerad</text><text font-family="Arial,Arial_MSFontService,sans-serif" font-weight="700" font-size="17" transform="matrix(1.00101 0 0 0.998575 262.752 799)">KKP </text><text font-family="Arial,Arial_MSFontService,sans-serif" font-weight="700" font-size="17" transform="matrix(1.00101 0 0 0.998575 303.894 799)">disponibel</text><text fill="#C00000" font-family="Arial,Arial_MSFontService,sans-serif" font-weight="700" font-size="17" transform="matrix(1.00101 0 0 0.998575 395.453 799)">median</text><text font-family="Arial,Arial_MSFontService,sans-serif" font-weight="700" font-size="17" transform="matrix(1.00101 0 0 0.998575 456.194 799)">inkomst</text><text font-family="Arial,Arial_MSFontService,sans-serif" font-weight="700" font-size="17" transform="matrix(1.00101 0 0 0.998575 527.533 799)">/ </text><text font-family="Arial,Arial_MSFontService,sans-serif" font-weight="700" font-size="17" transform="matrix(1.00101 0 0 0.998575 536.989 799)">HH</text><text font-family="Arial,Arial_MSFontService,sans-serif" font-weight="700" font-size="17" transform="matrix(1.00101 0 0 0.998575 562.235 799)">-</text><text font-family="Arial,Arial_MSFontService,sans-serif" font-weight="700" font-size="17" transform="matrix(1.00101 0 0 0.998575 568.014 799)">ekv</text><text font-family="Arial,Arial_MSFontService,sans-serif" font-weight="400" font-size="16" transform="matrix(1.00101 0 0 0.998575 232.615 818)">PPP</text><text font-family="Arial,Arial_MSFontService,sans-serif" font-weight="400" font-size="16" transform="matrix(1.00101 0 0 0.998575 264.663 818)">$; </text><text font-family="Arial,Arial_MSFontService,sans-serif" font-weight="400" font-size="16" transform="matrix(1.00101 0 0 0.998575 282.478 818)">framskriven</text><text font-family="Arial,Arial_MSFontService,sans-serif" font-weight="400" font-size="16" transform="matrix(1.00101 0 0 0.998575 369.694 818)">växelkurs</text><text font-family="Arial,Arial_MSFontService,sans-serif" font-weight="400" font-size="16" transform="matrix(1.00101 0 0 0.998575 441.794 818)">från</text><text font-family="Arial,Arial_MSFontService,sans-serif" font-weight="400" font-size="16" transform="matrix(1.00101 0 0 0.998575 473.846 818)">2021</text><text font-family="Arial,Arial_MSFontService,sans-serif" font-weight="400" font-size="12" transform="matrix(1.00101 0 0 0.998575 209.379 979)">Medianinkomst</text><text font-family="Arial,Arial_MSFontService,sans-serif" font-weight="400" font-size="12" transform="matrix(1.00101 0 0 0.998575 293.464 979)">är</text><text font-family="Arial,Arial_MSFontService,sans-serif" font-weight="400" font-size="12" transform="matrix(1.00101 0 0 0.998575 307.479 979)">den </text><text font-family="Arial,Arial_MSFontService,sans-serif" font-weight="400" font-size="12" transform="matrix(1.00101 0 0 0.998575 330.835 979)">mittersta</text><text font-family="Arial,Arial_MSFontService,sans-serif" font-weight="400" font-size="12" transform="matrix(1.00101 0 0 0.998575 380.218 979)">inkomsten</text><text font-family="Arial,Arial_MSFontService,sans-serif" font-weight="400" font-size="12" transform="matrix(1.00101 0 0 0.998575 438.277 979)">(</text><text font-family="Arial,Arial_MSFontService,sans-serif" font-weight="400" font-size="12" transform="matrix(1.00101 0 0 0.998575 442.277 979)">till </text><text font-family="Arial,Arial_MSFontService,sans-serif" font-weight="400" font-size="12" transform="matrix(1.00101 0 0 0.998575 456.963 979)">skillnad</text><text font-family="Arial,Arial_MSFontService,sans-serif" font-weight="400" font-size="12" transform="matrix(1.00101 0 0 0.998575 500.34 979)">från</text><text font-family="Arial,Arial_MSFontService,sans-serif" font-weight="400" font-size="12" transform="matrix(1.00101 0 0 0.998575 524.364 979)">medelinkomsten</text><text font-family="Arial,Arial_MSFontService,sans-serif" font-weight="400" font-size="12" transform="matrix(1.00101 0 0 0.998575 611.786 979)">)</text><text font-family="Arial,Arial_MSFontService,sans-serif" font-weight="400" font-size="12" transform="matrix(1.00101 0 0 0.998575 209.379 994)">Källa</text><text font-family="Arial,Arial_MSFontService,sans-serif" font-weight="400" font-size="12" transform="matrix(1.00101 0 0 0.998575 236.09 994)">: </text><text font-family="Arial,Arial_MSFontService,sans-serif" font-weight="400" font-size="12" transform="matrix(1.00101 0 0 0.998575 242.746 994)">S</text><text font-family="Arial,Arial_MSFontService,sans-serif" font-weight="400" font-size="12" transform="matrix(1.00101 0 0 0.998575 250.758 994)">.</text><text font-family="Arial,Arial_MSFontService,sans-serif" font-weight="400" font-size="12" transform="matrix(1.00101 0 0 0.998575 254.096 994)">Canbäck</text><text font-family="Arial,Arial_MSFontService,sans-serif" font-weight="400" font-size="12" transform="matrix(1.00101 0 0 0.998575 304.809 994)">(</text><text font-family="Arial,Arial_MSFontService,sans-serif" font-weight="400" font-size="12" transform="matrix(1.00101 0 0 0.998575 308.809 994)">Tellusant</text><text font-family="Arial,Arial_MSFontService,sans-serif" font-weight="400" font-size="12" transform="matrix(1.00101 0 0 0.998575 356.218 994)">) </text><text font-family="Arial,Arial_MSFontService,sans-serif" font-weight="400" font-size="12" transform="matrix(1.00101 0 0 0.998575 364.87 994)">analys</text><text font-family="Arial,Arial_MSFontService,sans-serif" font-weight="400" font-size="12" transform="matrix(1.00101 0 0 0.998575 399.572 994)">; </text><text font-family="Arial,Arial_MSFontService,sans-serif" font-weight="400" font-size="12" transform="matrix(1.00101 0 0 0.998575 406.247 994)">TelluBase</text><path d="M0 0.998575-0.307681 0.998575 0.690894 0 0.690894 39.2773-0.307681 38.2787 22.6754 38.2787 22.6754 40.2758-1.30626 40.2758-1.30626-0.998575 0-0.998575ZM21.344 35.283 29.3326 39.2773 21.344 43.2716Z" transform="matrix(-1.00244 1.22465e-16 1.22764e-16 1 589.98 882.843)"/><text font-family="Calibri,Calibri_MSFontService,sans-serif" font-weight="700" font-size="15" transform="matrix(1.00101 0 0 0.998575 599.472 907)">−</text><text font-family="Calibri,Calibri_MSFontService,sans-serif" font-weight="700" font-size="15" transform="matrix(1.00101 0 0 0.998575 606.813 907)">24</text><text font-family="Arial,Arial_MSFontService,sans-serif" font-weight="700" font-size="15" transform="matrix(1.00101 0 0 0.998575 621.829 907)">%</text></g></svg>