<svg width="1539" height="1376" xmlns="http://www.w3.org/2000/svg" xmlns:xlink="http://www.w3.org/1999/xlink" xml:space="preserve" overflow="hidden"><g transform="translate(-535 -880)"><rect x="536.5" y="1054.5" width="1536" height="1084" stroke="#EAF2F3" stroke-width="2.63993" stroke-miterlimit="8" fill="#EAF2F3"/><rect x="875.5" y="1152.5" width="1089" height="875" stroke="#D9D9D9" stroke-width="2.63993" stroke-miterlimit="8" fill="#FFFFFF"/><path d="M0 0 1089 0" stroke="#D9D9D9" stroke-width="3.96007" stroke-miterlimit="8" fill="none" fill-rule="evenodd" transform="matrix(1 0 0 -1 875 1880)"/><path d="M0 0 1089 0" stroke="#D9D9D9" stroke-width="3.96007" stroke-miterlimit="8" fill="none" fill-rule="evenodd" transform="matrix(1 0 0 -1 875 1605)"/><path d="M0 0 1089 0" stroke="#D9D9D9" stroke-width="3.96007" stroke-miterlimit="8" fill="none" fill-rule="evenodd" transform="matrix(1 0 0 -1 875 1329)"/><path d="M1422 1978 1422 1978 1411.12 1962.28 1397.17 1946.51 1375.91 1930.73 1353.97 1915.01 1333.56 1899.24 1311.9 1883.47 1290.75 1867.75 1260.42 1851.97 1228.56 1836.2 1191.03 1820.48 1155.71 1804.71 1122.31 1788.93 1090.62 1773.21 1061.31 1757.44 1026.22 1741.66 994.47 1725.95 972.246 1710.17 960 1694.4 949 1678.68 949.17 1662.9 960.847 1647.13 981.148 1631.41 1011.99 1615.63 1045.61 1599.86 1085.29 1584.14 1120.61 1568.37 1155.14 1552.65 1190.18 1536.87 1227.99 1521.1 1246.87 1505.38 1249.88 1489.6 1256.28 1473.83 1263.26 1458.11 1273.97 1442.34 1283.16 1426.56 1294.38 1410.84 1299.48 1395.07 1305.44 1379.29 1309.81 1363.58 1319.78 1347.8 1335.71 1332.03 1352.95 1316.31 1368.03 1300.53 1383.17 1284.76 1401.25 1269.04 1406.07 1253.27 1408.45 1237.49 1412.25 1221.77 1417.3 1206 1426.71 1206 1431.81 1221.77 1435.55 1237.49 1437.99 1253.27 1442.75 1269.04 1460.83 1284.76 1475.98 1300.53 1491.05 1316.31 1508.29 1332.03 1524.28 1347.8 1534.2 1363.58 1538.57 1379.29 1544.57 1395.07 1549.62 1410.84 1560.9 1426.56 1570.03 1442.34 1580.75 1458.11 1587.72 1473.83 1594.18 1489.6 1597.18 1505.38 1616.01 1521.1 1653.82 1536.87 1688.86 1552.65 1723.39 1568.37 1758.76 1584.14 1798.39 1599.86 1832.07 1615.63 1862.91 1631.41 1883.15 1647.13 1894.89 1662.9 1895 1678.68 1884.01 1694.4 1871.76 1710.17 1849.59 1725.95 1817.79 1741.66 1782.69 1757.44 1753.38 1773.21 1721.74 1788.93 1688.29 1804.71 1652.97 1820.48 1615.44 1836.2 1583.58 1851.97 1553.25 1867.75 1532.16 1883.47 1510.45 1899.24 1490.04 1915.01 1468.1 1930.73 1446.89 1946.51 1432.89 1962.28 1422 1978 1422 1978Z" stroke="#1A476F" stroke-width="3.96007" stroke-linecap="round" stroke-miterlimit="8" fill="#AFBFCD" fill-rule="evenodd"/><path d="M1412 1644.5C1412 1638.7 1416.48 1634 1422 1634 1427.52 1634 1432 1638.7 1432 1644.5 1432 1650.3 1427.52 1655 1422 1655 1416.48 1655 1412 1650.3 1412 1644.5Z" stroke="#1A476F" stroke-width="3.96007" stroke-miterlimit="8" fill="#FFFFFF" fill-rule="evenodd"/><path d="M1412 1644.5C1412 1638.7 1416.48 1634 1422 1634 1427.52 1634 1432 1638.7 1432 1644.5 1432 1650.3 1427.52 1655 1422 1655 1416.48 1655 1412 1650.3 1412 1644.5Z" fill="#B31942" fill-rule="evenodd"/><path d="M1412 1845C1412 1839.48 1416.48 1835 1422 1835 1427.52 1835 1432 1839.48 1432 1845 1432 1850.52 1427.52 1855 1422 1855 1416.48 1855 1412 1850.52 1412 1845Z" stroke="#FECC02" stroke-width="3.96007" stroke-miterlimit="8" fill="#FECC02" fill-rule="evenodd"/><text font-family="Arial,Arial_MSFontService,sans-serif" font-weight="400" font-size="50" transform="matrix(1 0 0 1 1334.94 1815)">Sverige</text><text font-family="Arial,Arial_MSFontService,sans-serif" font-weight="400" font-size="50" transform="matrix(1 0 0 1 1368.78 1613)">USA</text><text font-family="Arial,Arial_MSFontService,sans-serif" font-weight="400" font-size="50" transform="matrix(1 0 0 1 1501.98 1976)">Mississippi</text><text font-family="Arial,Arial_MSFontService,sans-serif" font-weight="400" font-size="50" transform="matrix(1 0 0 1 1487.06 1247)">Massachusetts</text><text font-family="Arial,Arial_MSFontService,sans-serif" font-weight="400" font-size="50" transform="matrix(-1.83697e-16 -1 1 -1.83697e-16 826.525 1950)">60 000</text><text font-family="Arial,Arial_MSFontService,sans-serif" font-weight="400" font-size="50" transform="matrix(-1.83697e-16 -1 1 -1.83697e-16 830.563 1674)">80 000</text><text font-family="Arial,Arial_MSFontService,sans-serif" font-weight="400" font-size="50" transform="matrix(-1.83697e-16 -1 1 -1.83697e-16 830.297 1420)">100 000</text><text fill="#595959" font-family="Arial,Arial_MSFontService,sans-serif" font-weight="700" font-size="55" transform="matrix(-1.83697e-16 -1 1 -1.83697e-16 683.775 1985)">STIK</text><text fill="#595959" font-family="Arial,Arial_MSFontService,sans-serif" font-weight="700" font-size="55" transform="matrix(-1.83697e-16 -1 1 -1.83697e-16 683.775 1860)">-</text><text fill="#595959" font-family="Arial,Arial_MSFontService,sans-serif" font-weight="700" font-size="55" transform="matrix(-1.83697e-16 -1 1 -1.83697e-16 683.775 1842)">justerad</text><text fill="#595959" font-family="Arial,Arial_MSFontService,sans-serif" font-weight="700" font-size="55" transform="matrix(-1.83697e-16 -1 1 -1.83697e-16 683.775 1612)">KKP </text><text fill="#595959" font-family="Arial,Arial_MSFontService,sans-serif" font-weight="700" font-size="55" transform="matrix(-1.83697e-16 -1 1 -1.83697e-16 683.775 1482)">disponibel</text><text fill="#595959" font-family="Arial,Arial_MSFontService,sans-serif" font-weight="700" font-size="55" transform="matrix(-1.83697e-16 -1 1 -1.83697e-16 749.775 1907)">medianinkomst</text><text fill="#595959" font-family="Arial,Arial_MSFontService,sans-serif" font-weight="700" font-size="55" transform="matrix(-1.83697e-16 -1 1 -1.83697e-16 749.775 1488)">/ HH</text><text fill="#595959" font-family="Arial,Arial_MSFontService,sans-serif" font-weight="700" font-size="55" transform="matrix(-1.83697e-16 -1 1 -1.83697e-16 749.775 1378)">-</text><text fill="#595959" font-family="Arial,Arial_MSFontService,sans-serif" font-weight="700" font-size="55" transform="matrix(-1.83697e-16 -1 1 -1.83697e-16 749.775 1360)">ekv</text><text fill="#595959" font-family="Arial,Arial_MSFontService,sans-serif" font-weight="700" font-size="55" transform="matrix(1 0 0 1 1027.35 950)">AMERIKANSKA </text><text fill="#595959" font-family="Arial,Arial_MSFontService,sans-serif" font-weight="700" font-size="55" transform="matrix(1 0 0 1 1452.14 950)">DEL</text><text fill="#595959" font-family="Arial,Arial_MSFontService,sans-serif" font-weight="700" font-size="55" transform="matrix(1 0 0 1 1562.14 950)">STATERS</text><text fill="#595959" font-family="Arial,Arial_MSFontService,sans-serif" font-weight="700" font-size="55" transform="matrix(1 0 0 1 1061.5 1016)">INKOMSTFÖRDELING 2025</text><text fill="#595959" font-family="Arial,Arial_MSFontService,sans-serif" font-weight="700" font-size="55" transform="matrix(1 0 0 1 1301.84 2107)">Dels</text><text fill="#595959" font-family="Arial,Arial_MSFontService,sans-serif" font-weight="700" font-size="55" transform="matrix(1 0 0 1 1417.57 2107)">tater</text><text font-family="Arial,Arial_MSFontService,sans-serif" font-weight="400" font-size="41" transform="matrix(1 0 0 1 888.442 2222)">Källa: </text><text font-family="Arial,Arial_MSFontService,sans-serif" font-weight="400" font-size="41" transform="matrix(1 0 0 1 1003.03 2222)">S.Canbäck</text><text font-family="Arial,Arial_MSFontService,sans-serif" font-weight="400" font-size="41" transform="matrix(1 0 0 1 1216.15 2222)">(Tellusant) </text><text font-family="Arial,Arial_MSFontService,sans-serif" font-weight="400" font-size="41" transform="matrix(1 0 0 1 1422.4 2222)">analys</text><text font-family="Arial,Arial_MSFontService,sans-serif" font-weight="400" font-size="41" transform="matrix(1 0 0 1 1541.57 2222)">; TelluBase</text></g></svg>