<svg width="1934" height="964" xmlns="http://www.w3.org/2000/svg" xmlns:xlink="http://www.w3.org/1999/xlink" xml:space="preserve" overflow="hidden"><defs><clipPath id="clip0"><rect x="41" y="521" width="1934" height="964"/></clipPath><clipPath id="clip1"><rect x="538" y="739" width="1329" height="392"/></clipPath><clipPath id="clip2"><rect x="40" y="521" width="1852" height="963"/></clipPath></defs><g clip-path="url(#clip0)" transform="translate(-41 -521)"><text font-family="Arial,Arial_MSFontService,sans-serif" font-weight="700" font-size="64" transform="matrix(1 0 0 1 911.71 603)">BNP / </text><text font-family="Arial,Arial_MSFontService,sans-serif" font-weight="700" font-size="64" transform="matrix(1 0 0 1 1099.6 603)">invånare</text><text font-family="Arial,Arial_MSFontService,sans-serif" font-weight="400" font-size="60" transform="matrix(1 0 0 1 856.985 676)">USD, 2023 </text><text font-family="Arial,Arial_MSFontService,sans-serif" font-weight="400" font-size="60" transform="matrix(1 0 0 1 1165.21 676)">växelkurs</text><rect x="40.9999" y="522" width="1852" height="963" fill="#FFFFFF"/><g clip-path="url(#clip1)"><path d="M1381.05 1082.04 538 1082.04 538 979.032 1381.05 979.032ZM1713.06 888.029 538 888.029 538 785.026 1713.06 785.026Z" fill="#006AA7"/></g><g><path d="M0 0 0.000360892 389" stroke="#D9D9D9" stroke-width="3.4375" stroke-linejoin="round" stroke-miterlimit="10" fill="none" fill-rule="evenodd" transform="matrix(1 0 0 -1 538.5 1128.5)"/></g><g><text font-family="Arial,Arial_MSFontService,sans-serif" font-weight="400" font-size="50" transform="matrix(1 0 0 1 1422.78 1049)">63 600 </text></g><g clip-path="url(#clip2)"><text font-family="Arial,Arial_MSFontService,sans-serif" font-weight="400" font-size="50" transform="matrix(1 0 0 1 1724.85 854)">88 600 </text></g><g><text font-family="Arial,Arial_MSFontService,sans-serif" font-weight="400" font-size="50" transform="matrix(1 0 0 1 323.984 1047)">Sverige</text></g><g><text font-family="Arial,Arial_MSFontService,sans-serif" font-weight="400" font-size="50" transform="matrix(1 0 0 1 391.313 853)">USA</text></g><g><text font-family="Arial,Arial_MSFontService,sans-serif" font-weight="700" font-size="60" transform="matrix(1 0 0 1 837.286 611)">BNP / invånare</text></g><g><text font-family="Arial,Arial_MSFontService,sans-serif" font-weight="400" font-size="55" transform="matrix(1 0 0 1 788.68 675)">USD, 2025 växelkurs</text></g><path d="M0 3.4375-1.71882 3.4375 1.71868 0 1.71868 135.208-1.71882 131.771 140.938 131.771 140.938 138.646-5.15632 138.646-5.15632-3.4375 0-3.4375ZM136.354 121.458 163.854 135.208 136.354 148.958Z" transform="matrix(-1 1.22465e-16 1.22465e-16 1 1781.35 898.5)"/><text font-family="Calibri,Calibri_MSFontService,sans-serif" font-weight="700" font-size="50" transform="matrix(1 0 0 1 1814.34 983)">−</text><text font-family="Arial,Arial_MSFontService,sans-serif" font-weight="700" font-size="50" transform="matrix(1 0 0 1 1839.55 983)">2</text><text font-family="Arial,Arial_MSFontService,sans-serif" font-weight="700" font-size="50" transform="matrix(1 0 0 1 1867.62 983)">8</text><text font-family="Arial,Arial_MSFontService,sans-serif" font-weight="700" font-size="50" transform="matrix(1 0 0 1 1895.69 983)">%</text></g></svg>