<svg width="482" height="232" xmlns="http://www.w3.org/2000/svg" xmlns:xlink="http://www.w3.org/1999/xlink" xml:space="preserve" overflow="hidden"><defs><clipPath id="clip0"><rect x="124" y="843" width="482" height="232"/></clipPath></defs><g clip-path="url(#clip0)" transform="translate(-124 -843)"><path d="M61.0376 1000.62 581.358 1000.62 581.358 1280.79 61.0376 1280.79Z" fill="#FFFFFF" transform="matrix(1 0 0 1.00308 19.639 -160.696)"/><path d="M416.256 1163.72 194.12 1163.72 194.12 1133.7 416.256 1133.7ZM499.307 1106.68 194.12 1106.68 194.12 1076.66 499.307 1076.66Z" fill="#006AA7" transform="matrix(1 0 0 1.00308 19.639 -160.696)"/><path d="M0 0 0.000105052 114.07" stroke="#D9D9D9" stroke-width="1.00062" stroke-linejoin="round" stroke-miterlimit="10" fill="none" fill-rule="evenodd" transform="matrix(1 0 0 -1.00308 213.258 1020.15)"/><text fill="#404040" font-family="Arial,Arial_MSFontService,sans-serif" font-weight="400" font-size="15" transform="matrix(1.00062 0 0 1.0037 448.301 997)">50 100 </text><text fill="#404040" font-family="Arial,Arial_MSFontService,sans-serif" font-weight="400" font-size="15" transform="matrix(1.00062 0 0 1.0037 531.465 940)">68 800 </text><text font-family="Arial,Arial_MSFontService,sans-serif" font-weight="400" font-size="15" transform="matrix(1.00062 0 0 1.0037 151.012 996)">Sverige</text><text font-family="Arial,Arial_MSFontService,sans-serif" font-weight="400" font-size="15" transform="matrix(1.00062 0 0 1.0037 170.611 939)">USA</text><text fill="#C00000" font-family="Arial,Arial_MSFontService,sans-serif" font-weight="700" font-size="17" transform="matrix(1.00062 0 0 1.0037 139.718 869)">STIK</text><text fill="#C00000" font-family="Arial,Arial_MSFontService,sans-serif" font-weight="700" font-size="17" transform="matrix(1.00062 0 0 1.0037 179.222 869)">-</text><text fill="#C00000" font-family="Arial,Arial_MSFontService,sans-serif" font-weight="700" font-size="17" transform="matrix(1.00062 0 0 1.0037 184.999 869)">justerad</text><text font-family="Arial,Arial_MSFontService,sans-serif" font-weight="700" font-size="17" transform="matrix(1.00062 0 0 1.0037 257.283 869)">KKP </text><text font-family="Arial,Arial_MSFontService,sans-serif" font-weight="700" font-size="17" transform="matrix(1.00062 0 0 1.0037 298.409 869)">disponibel</text><text font-family="Arial,Arial_MSFontService,sans-serif" font-weight="700" font-size="17" transform="matrix(1.00062 0 0 1.0037 389.932 869)">inkomst</text><text font-family="Arial,Arial_MSFontService,sans-serif" font-weight="700" font-size="17" transform="matrix(1.00062 0 0 1.0037 461.243 869)">/ </text><text font-family="Arial,Arial_MSFontService,sans-serif" font-weight="700" font-size="17" transform="matrix(1.00062 0 0 1.0037 470.875 869)">invånare</text><text font-family="Arial,Arial_MSFontService,sans-serif" font-weight="400" font-size="16" transform="matrix(1.00062 0 0 1.0037 202.584 888)">PPP</text><text font-family="Arial,Arial_MSFontService,sans-serif" font-weight="400" font-size="16" transform="matrix(1.00062 0 0 1.0037 234.619 888)">$, </text><text font-family="Arial,Arial_MSFontService,sans-serif" font-weight="400" font-size="16" transform="matrix(1.00062 0 0 1.0037 252.427 888)">framskriven</text><text font-family="Arial,Arial_MSFontService,sans-serif" font-weight="400" font-size="16" transform="matrix(1.00062 0 0 1.0037 339.608 888)">växelkurs</text><text font-family="Arial,Arial_MSFontService,sans-serif" font-weight="400" font-size="16" transform="matrix(1.00062 0 0 1.0037 411.678 888)">från</text><text font-family="Arial,Arial_MSFontService,sans-serif" font-weight="400" font-size="16" transform="matrix(1.00062 0 0 1.0037 443.718 888)">2021</text><text font-family="Arial,Arial_MSFontService,sans-serif" font-weight="400" font-size="12" transform="matrix(1.00062 0 0 1.0037 212.897 1047)">STIK </text><text font-family="Arial,Arial_MSFontService,sans-serif" font-weight="400" font-size="12" transform="matrix(1.00062 0 0 1.0037 242.921 1047)">= </text><text font-family="Arial,Arial_MSFontService,sans-serif" font-weight="400" font-size="12" transform="matrix(1.00062 0 0 1.0037 253.269 1047)">Social transfers in kind </text><text font-family="Arial,Arial_MSFontService,sans-serif" font-weight="400" font-size="12" transform="matrix(1.00062 0 0 1.0037 377.401 1047)">(</text><text font-family="Arial,Arial_MSFontService,sans-serif" font-weight="400" font-size="12" transform="matrix(1.00062 0 0 1.0037 381.399 1047)">OECD</text><text font-family="Arial,Arial_MSFontService,sans-serif" font-weight="400" font-size="12" transform="matrix(1.00062 0 0 1.0037 416.09 1047)">)</text><text font-family="Arial,Arial_MSFontService,sans-serif" font-weight="400" font-size="12" transform="matrix(1.00062 0 0 1.0037 212.897 1061)">Källa</text><text font-family="Arial,Arial_MSFontService,sans-serif" font-weight="400" font-size="12" transform="matrix(1.00062 0 0 1.0037 239.58 1061)">: </text><text font-family="Arial,Arial_MSFontService,sans-serif" font-weight="400" font-size="12" transform="matrix(1.00062 0 0 1.0037 246.251 1061)">S</text><text font-family="Arial,Arial_MSFontService,sans-serif" font-weight="400" font-size="12" transform="matrix(1.00062 0 0 1.0037 254.259 1061)">.</text><text font-family="Arial,Arial_MSFontService,sans-serif" font-weight="400" font-size="12" transform="matrix(1.00062 0 0 1.0037 257.595 1061)">Canbäck</text><text font-family="Arial,Arial_MSFontService,sans-serif" font-weight="400" font-size="12" transform="matrix(1.00062 0 0 1.0037 308.289 1061)">(</text><text font-family="Arial,Arial_MSFontService,sans-serif" font-weight="400" font-size="12" transform="matrix(1.00062 0 0 1.0037 312.287 1061)">Tellusant</text><text font-family="Arial,Arial_MSFontService,sans-serif" font-weight="400" font-size="12" transform="matrix(1.00062 0 0 1.0037 359.678 1061)">) </text><text font-family="Arial,Arial_MSFontService,sans-serif" font-weight="400" font-size="12" transform="matrix(1.00062 0 0 1.0037 368.326 1061)">analys</text><text font-family="Arial,Arial_MSFontService,sans-serif" font-weight="400" font-size="12" transform="matrix(1.00062 0 0 1.0037 403.014 1061)">; </text><text font-family="Arial,Arial_MSFontService,sans-serif" font-weight="400" font-size="12" transform="matrix(1.00062 0 0 1.0037 409.686 1061)">TelluBase</text><path d="M0 1.00062-0.500328 1.00062 0.500288 0 0.500288 39.3575-0.500328 38.3569 41.0253 38.3569 41.0253 40.3582-1.50094 40.3582-1.50094-1.00062 0-1.00062ZM39.6911 35.3551 47.6961 39.3575 39.6911 43.36Z" transform="matrix(-1 1.22842e-16 1.22465e-16 1.00308 549.632 951.399)"/><text font-family="Calibri,Calibri_MSFontService,sans-serif" font-weight="700" font-size="15" transform="matrix(1.00062 0 0 1.0037 559.365 976)">−</text><text font-family="Arial,Arial_MSFontService,sans-serif" font-weight="700" font-size="15" transform="matrix(1.00062 0 0 1.0037 566.703 976)">27</text><text font-family="Arial,Arial_MSFontService,sans-serif" font-weight="700" font-size="15" transform="matrix(1.00062 0 0 1.0037 583.046 976)">%</text></g></svg>