<svg width="516" height="236" xmlns="http://www.w3.org/2000/svg" xmlns:xlink="http://www.w3.org/1999/xlink" xml:space="preserve" overflow="hidden"><defs><clipPath id="clip0"><rect x="88" y="590" width="516" height="236"/></clipPath></defs><g clip-path="url(#clip0)" transform="translate(-88 -590)"><path d="M21.9505 713.393 598.651 713.393 598.651 993.761 21.9505 993.761Z" fill="#FFFFFF" transform="matrix(1.00085 0 0 1 -9.14293 -123.393)"/><path d="M168.62 846.094 358.193 846.094 358.193 876.026 168.62 876.026Z" fill="#006AA7" transform="matrix(1.00085 0 0 1 -9.14293 -123.393)"/><path d="M168.62 790.219 526.813 790.219 526.813 820.152 168.62 820.152Z" fill="#006AA7" transform="matrix(1.00085 0 0 1 -9.14293 -123.393)"/><path d="M0 0 0.000104751 112.746" stroke="#D9D9D9" stroke-width="0.997752" stroke-linejoin="round" stroke-miterlimit="10" fill="none" fill-rule="evenodd" transform="matrix(1.00085 0 0 -1 160.12 766.103)"/><text font-family="Arial,Arial_MSFontService,sans-serif" font-weight="400" font-size="15" transform="matrix(0.998604 0 0 0.997752 361.125 744)">33 500 </text><text font-family="Arial,Arial_MSFontService,sans-serif" font-weight="400" font-size="15" transform="matrix(0.998604 0 0 0.997752 529.849 687)">63 400 </text><text font-family="Arial,Arial_MSFontService,sans-serif" font-weight="400" font-size="15" transform="matrix(0.998604 0 0 0.997752 97.7596 743)">Sverige</text><text font-family="Arial,Arial_MSFontService,sans-serif" font-weight="400" font-size="15" transform="matrix(0.998604 0 0 0.997752 117.318 686)">USA</text><text fill="#C00000" font-family="Arial,Arial_MSFontService,sans-serif" font-weight="700" font-size="17" transform="matrix(0.998604 0 0 0.997752 148.022 616)">Köpkraftsparitet</text><text font-family="Arial,Arial_MSFontService,sans-serif" font-weight="700" font-size="17" transform="matrix(0.998604 0 0 0.997752 286.523 616)">disponibel</text><text font-family="Arial,Arial_MSFontService,sans-serif" font-weight="700" font-size="17" transform="matrix(0.998604 0 0 0.997752 377.861 616)">inkomst</text><text font-family="Arial,Arial_MSFontService,sans-serif" font-weight="700" font-size="17" transform="matrix(0.998604 0 0 0.997752 449.029 616)">/ </text><text font-family="Arial,Arial_MSFontService,sans-serif" font-weight="700" font-size="17" transform="matrix(0.998604 0 0 0.997752 458.642 616)">invånare</text><text font-family="Arial,Arial_MSFontService,sans-serif" font-weight="400" font-size="16" transform="matrix(0.998604 0 0 0.997752 200.829 635)">PPP</text><text font-family="Arial,Arial_MSFontService,sans-serif" font-weight="400" font-size="16" transform="matrix(0.998604 0 0 0.997752 232.799 635)">$, </text><text font-family="Arial,Arial_MSFontService,sans-serif" font-weight="400" font-size="16" transform="matrix(0.998604 0 0 0.997752 250.573 635)">framskriven</text><text font-family="Arial,Arial_MSFontService,sans-serif" font-weight="400" font-size="16" transform="matrix(0.998604 0 0 0.997752 337.577 635)">växelkurs</text><text font-family="Arial,Arial_MSFontService,sans-serif" font-weight="400" font-size="16" transform="matrix(0.998604 0 0 0.997752 409.504 635)">från</text><text font-family="Arial,Arial_MSFontService,sans-serif" font-weight="400" font-size="16" transform="matrix(0.998604 0 0 0.997752 441.479 635)">2021</text><path d="M0 0.997752-0.498896 0.997752 0.498856 0 0.498856 39.2449-0.498896 38.2471 40.9078 38.2471 40.9078 40.2426-1.49665 40.2426-1.49665-0.997752 0-0.997752ZM39.5775 35.2539 47.5595 39.2449 39.5775 43.2359Z" transform="matrix(-1.00085 1.22465e-16 1.2257e-16 1 547.746 698.755)"/><text font-family="Calibri,Calibri_MSFontService,sans-serif" font-weight="700" font-size="15" transform="matrix(0.998604 0 0 0.997752 557.665 724)">−</text><text font-family="Arial,Arial_MSFontService,sans-serif" font-weight="700" font-size="15" transform="matrix(0.998604 0 0 0.997752 564.988 724)">47</text><text font-family="Arial,Arial_MSFontService,sans-serif" font-weight="700" font-size="15" transform="matrix(0.998604 0 0 0.997752 581.298 724)">%</text><text font-family="Arial,Arial_MSFontService,sans-serif" font-weight="400" font-size="12" transform="matrix(0.998604 0 0 0.997752 164.04 795)">Köpkraftsparitet</text><text font-family="Arial,Arial_MSFontService,sans-serif" font-weight="400" font-size="12" transform="matrix(0.998604 0 0 0.997752 251.251 795)">(</text><text font-family="Arial,Arial_MSFontService,sans-serif" font-weight="400" font-size="12" transform="matrix(0.998604 0 0 0.997752 255.242 795)">KKP</text><text font-family="Arial,Arial_MSFontService,sans-serif" font-weight="400" font-size="12" transform="matrix(0.998604 0 0 0.997752 279.22 795)">) = </text><text font-family="Arial,Arial_MSFontService,sans-serif" font-weight="400" font-size="12" transform="matrix(0.998604 0 0 0.997752 296.867 795)">Purchasing Power Parity i </text><text font-family="Arial,Arial_MSFontService,sans-serif" font-weight="400" font-size="12" transform="matrix(0.998604 0 0 0.997752 437.325 795)">enlighet</text><text font-family="Arial,Arial_MSFontService,sans-serif" font-weight="400" font-size="12" transform="matrix(0.998604 0 0 0.997752 482.595 795)">med WB ICP</text><text font-family="Arial,Arial_MSFontService,sans-serif" font-weight="400" font-size="12" transform="matrix(0.998604 0 0 0.997752 164.04 809)">Källa</text><text font-family="Arial,Arial_MSFontService,sans-serif" font-weight="400" font-size="12" transform="matrix(0.998604 0 0 0.997752 190.686 809)">: </text><text font-family="Arial,Arial_MSFontService,sans-serif" font-weight="400" font-size="12" transform="matrix(0.998604 0 0 0.997752 197.326 809)">S</text><text font-family="Arial,Arial_MSFontService,sans-serif" font-weight="400" font-size="12" transform="matrix(0.998604 0 0 0.997752 205.319 809)">.</text><text font-family="Arial,Arial_MSFontService,sans-serif" font-weight="400" font-size="12" transform="matrix(0.998604 0 0 0.997752 208.649 809)">Canbäck</text><text font-family="Arial,Arial_MSFontService,sans-serif" font-weight="400" font-size="12" transform="matrix(0.998604 0 0 0.997752 259.24 809)">(</text><text font-family="Arial,Arial_MSFontService,sans-serif" font-weight="400" font-size="12" transform="matrix(0.998604 0 0 0.997752 263.23 809)">Tellusant</text><text font-family="Arial,Arial_MSFontService,sans-serif" font-weight="400" font-size="12" transform="matrix(0.998604 0 0 0.997752 310.526 809)">) </text><text font-family="Arial,Arial_MSFontService,sans-serif" font-weight="400" font-size="12" transform="matrix(0.998604 0 0 0.997752 319.156 809)">analys</text><text font-family="Arial,Arial_MSFontService,sans-serif" font-weight="400" font-size="12" transform="matrix(0.998604 0 0 0.997752 353.775 809)">; </text><text font-family="Arial,Arial_MSFontService,sans-serif" font-weight="400" font-size="12" transform="matrix(0.998604 0 0 0.997752 360.433 809)">TelluBase</text></g></svg>