<svg width="547" height="189" xmlns="http://www.w3.org/2000/svg" xmlns:xlink="http://www.w3.org/1999/xlink" xml:space="preserve" overflow="hidden"><defs><clipPath id="clip0"><rect x="76" y="424" width="547" height="189"/></clipPath></defs><g clip-path="url(#clip0)" transform="translate(-76 -424)"><path d="M31 654 578 654 578 935 31 935Z" fill="#FFFFFF" transform="matrix(1 0 0 1.00265 45 -231.733)"/><path d="M170 788 333 788 333 818 170 818Z" fill="#006AA7" transform="matrix(1 0 0 1.00265 45 -231.733)"/><path d="M170 731 440 731 440 761 170 761Z" fill="#006AA7" transform="matrix(1 0 0 1.00265 45 -231.733)"/><path d="M0 0 0.000104987 114" stroke="#D9D9D9" stroke-linejoin="round" stroke-miterlimit="10" fill="none" fill-rule="evenodd" transform="matrix(1 0 0 -1.00265 214.5 601.97)"/><text fill="#404040" font-family="Arial,Arial_MSFontService,sans-serif" font-weight="400" font-size="15" transform="matrix(1 0 0 1.00265 389.972 578)">42 200 </text><text fill="#404040" font-family="Arial,Arial_MSFontService,sans-serif" font-weight="400" font-size="15" transform="matrix(1 0 0 1.00265 497.314 522)">70 000 </text><text font-family="Arial,Arial_MSFontService,sans-serif" font-weight="400" font-size="15" transform="matrix(1 0 0 1.00265 152.596 577)">Sverige</text><text font-family="Arial,Arial_MSFontService,sans-serif" font-weight="400" font-size="15" transform="matrix(1 0 0 1.00265 172.183 520)">USA</text><text fill="#C00000" font-family="Arial,Arial_MSFontService,sans-serif" font-weight="700" font-size="17" transform="matrix(1 0 0 1.00265 188.764 450)">Justerad</text><text font-family="Arial,Arial_MSFontService,sans-serif" font-weight="700" font-size="17" transform="matrix(1 0 0 1.00265 265.831 450)">disponibel</text><text font-family="Arial,Arial_MSFontService,sans-serif" font-weight="700" font-size="17" transform="matrix(1 0 0 1.00265 357.298 450)">inkomst</text><text font-family="Arial,Arial_MSFontService,sans-serif" font-weight="700" font-size="17" transform="matrix(1 0 0 1.00265 428.564 450)">/ </text><text font-family="Arial,Arial_MSFontService,sans-serif" font-weight="700" font-size="17" transform="matrix(1 0 0 1.00265 438.191 450)">invånare</text><text font-family="Arial,Arial_MSFontService,sans-serif" font-weight="400" font-size="16" transform="matrix(1 0 0 1.00265 273.978 469)">USD</text><text font-family="Arial,Arial_MSFontService,sans-serif" font-weight="400" font-size="16" transform="matrix(1 0 0 1.00265 307.759 469)">, </text><text font-family="Arial,Arial_MSFontService,sans-serif" font-weight="400" font-size="16" transform="matrix(1 0 0 1.00265 316.65 469)">2025 </text><text font-family="Arial,Arial_MSFontService,sans-serif" font-weight="400" font-size="16" transform="matrix(1 0 0 1.00265 356.698 469)">växelkurs</text><path d="M0 1-0.50002 1 0.49998 0 0.49998 39.3333-0.50002 38.3333 41 38.3333 41 40.3333-1.50002 40.3333-1.50002-1 0-1ZM39.6667 35.3333 47.6667 39.3333 39.6667 43.3333Z" transform="matrix(-1 1.2279e-16 1.22465e-16 1.00265 512.667 533.289)"/><text font-family="Calibri,Calibri_MSFontService,sans-serif" font-weight="700" font-size="15" transform="matrix(1 0 0 1.00265 522.466 558)">−</text><text font-family="Arial,Arial_MSFontService,sans-serif" font-weight="700" font-size="15" transform="matrix(1 0 0 1.00265 529.8 558)">40</text><text font-family="Arial,Arial_MSFontService,sans-serif" font-weight="700" font-size="15" transform="matrix(1 0 0 1.00265 546.133 558)">%</text></g></svg>