<svg width="489" height="188" xmlns="http://www.w3.org/2000/svg" xmlns:xlink="http://www.w3.org/1999/xlink" xml:space="preserve" overflow="hidden"><defs><clipPath id="clip0"><rect x="83" y="217" width="489" height="188"/></clipPath></defs><g clip-path="url(#clip0)" transform="translate(-83 -217)"><path d="M35.9044 421.877 523.606 421.877 523.606 702.131 35.9044 702.131Z" fill="#FFFFFF" transform="matrix(1.00266 0 0 1 47 -204.877)"/><path d="M279.257 585.442 166.557 585.442 166.557 555.521 279.257 555.521ZM405.92 528.593 166.557 528.593 166.557 498.673 405.92 498.673Z" fill="#006AA7" transform="matrix(1.00266 0 0 1 47 -204.877)"/><path d="M0 0 0.000104708 113.697" stroke="#D9D9D9" stroke-width="0.997345" stroke-linejoin="round" stroke-miterlimit="10" fill="none" fill-rule="evenodd" transform="matrix(1.00266 0 0 -1 214.5 394.029)"/><text fill="#404040" font-family="Arial,Arial_MSFontService,sans-serif" font-weight="400" font-size="15" transform="matrix(1 0 0 0.997345 339.404 371)">30 400 </text><text fill="#404040" font-family="Arial,Arial_MSFontService,sans-serif" font-weight="400" font-size="15" transform="matrix(1 0 0 0.997345 466.457 315)">64 500 </text><text font-family="Arial,Arial_MSFontService,sans-serif" font-weight="400" font-size="15" transform="matrix(1 0 0 0.997345 151.704 370)">Sverige</text><text font-family="Arial,Arial_MSFontService,sans-serif" font-weight="400" font-size="15" transform="matrix(1 0 0 0.997345 171.29 313)">USA</text><text fill="#C00000" font-family="Arial,Arial_MSFontService,sans-serif" font-weight="700" font-size="17" transform="matrix(1 0 0 0.997345 204.41 243)">Disponibel</text><text fill="#C00000" font-family="Arial,Arial_MSFontService,sans-serif" font-weight="700" font-size="17" transform="matrix(1 0 0 0.997345 297.81 243)">inkomst</text><text font-family="Arial,Arial_MSFontService,sans-serif" font-weight="700" font-size="17" transform="matrix(1 0 0 0.997345 369.077 243)">/ </text><text font-family="Arial,Arial_MSFontService,sans-serif" font-weight="700" font-size="17" transform="matrix(1 0 0 0.997345 378.704 243)">invånare</text><text font-family="Arial,Arial_MSFontService,sans-serif" font-weight="400" font-size="16" transform="matrix(1 0 0 0.997345 252.05 262)">USD</text><text font-family="Arial,Arial_MSFontService,sans-serif" font-weight="400" font-size="16" transform="matrix(1 0 0 0.997345 285.831 262)">, </text><text font-family="Arial,Arial_MSFontService,sans-serif" font-weight="400" font-size="16" transform="matrix(1 0 0 0.997345 294.722 262)">2025 </text><text font-family="Arial,Arial_MSFontService,sans-serif" font-weight="400" font-size="16" transform="matrix(1 0 0 0.997345 334.77 262)">växelkurs</text><path d="M0 0.997345-0.498693 0.997345 0.498653 0 0.498653 39.2289-0.498693 38.2315 40.8912 38.2315 40.8912 40.2262-1.49604 40.2262-1.49604-0.997345 0-0.997345ZM39.5614 35.2395 47.5402 39.2289 39.5614 43.2183Z" transform="matrix(-1.00266 1.22465e-16 1.22791e-16 1 483.667 325.711)"/><text font-family="Calibri,Calibri_MSFontService,sans-serif" font-weight="700" font-size="15" transform="matrix(1 0 0 0.997345 492.805 351)">−</text><text font-family="Arial,Arial_MSFontService,sans-serif" font-weight="700" font-size="15" transform="matrix(1 0 0 0.997345 500.138 351)">53</text><text font-family="Arial,Arial_MSFontService,sans-serif" font-weight="700" font-size="15" transform="matrix(1 0 0 0.997345 516.472 351)">%</text></g></svg>