<svg width="563" height="191" xmlns="http://www.w3.org/2000/svg" xmlns:xlink="http://www.w3.org/1999/xlink" xml:space="preserve" overflow="hidden"><defs><clipPath id="clip0"><rect x="69" y="16" width="563" height="191"/></clipPath><clipPath id="clip1"><rect x="68" y="16" width="539" height="280"/></clipPath></defs><g clip-path="url(#clip0)" transform="translate(-69 -16)"><text font-family="Arial,Arial_MSFontService,sans-serif" font-weight="700" font-size="19" transform="matrix(1 0 0 0.998201 322.225 40)">BNP </text><text font-family="Arial,Arial_MSFontService,sans-serif" font-weight="700" font-size="19" transform="matrix(1 0 0 0.998201 367.276 40)">/ </text><text font-family="Arial,Arial_MSFontService,sans-serif" font-weight="700" font-size="19" transform="matrix(1 0 0 0.998201 376.885 40)">invånare</text><text font-family="Arial,Arial_MSFontService,sans-serif" font-weight="400" font-size="17" transform="matrix(1 0 0 0.998201 306.305 61)">USD</text><text font-family="Arial,Arial_MSFontService,sans-serif" font-weight="400" font-size="17" transform="matrix(1 0 0 0.998201 342.198 61)">, </text><text font-family="Arial,Arial_MSFontService,sans-serif" font-weight="400" font-size="17" transform="matrix(1 0 0 0.998201 351.644 61)">2023 </text><text font-family="Arial,Arial_MSFontService,sans-serif" font-weight="400" font-size="17" transform="matrix(1 0 0 0.998201 395.971 61)">växelkurs</text><path d="M11.9784 151.727 550.009 151.727 550.009 431.223 11.9784 431.223Z" fill="#FFFFFF" transform="matrix(1.0018 0 0 1 57 -134.728)"/><path d="M401.277 314.433 156.718 314.433 156.718 284.487 401.277 284.487ZM497.104 257.536 156.718 257.536 156.718 227.59 497.104 227.59Z" fill="#006AA7" transform="matrix(1.0018 0 0 1 57 -134.728)"/><path d="M0 0 0.000104798 112.797" stroke="#D9D9D9" stroke-width="0.998202" stroke-linejoin="round" stroke-miterlimit="10" fill="none" fill-rule="evenodd" transform="matrix(1.0018 0 0 -1 213.5 193.181)"/><text font-family="Arial,Arial_MSFontService,sans-serif" font-weight="400" font-size="15" transform="matrix(1 0 0 0.998201 470.9 170)">63 600 </text><g clip-path="url(#clip1)"><text font-family="Arial,Arial_MSFontService,sans-serif" font-weight="400" font-size="15" transform="matrix(1 0 0 0.998201 558.775 114)">88 600 </text></g><text font-family="Arial,Arial_MSFontService,sans-serif" font-weight="400" font-size="15" transform="matrix(1 0 0 0.998201 151.25 169)">Sverige</text><text font-family="Arial,Arial_MSFontService,sans-serif" font-weight="400" font-size="15" transform="matrix(1 0 0 0.998201 170.836 113)">USA</text><text font-family="Arial,Arial_MSFontService,sans-serif" font-weight="700" font-size="17" transform="matrix(1 0 0 0.998201 300.574 43)">BNP </text><text font-family="Arial,Arial_MSFontService,sans-serif" font-weight="700" font-size="17" transform="matrix(1 0 0 0.998201 340.883 43)">/ </text><text font-family="Arial,Arial_MSFontService,sans-serif" font-weight="700" font-size="17" transform="matrix(1 0 0 0.998201 350.329 43)">invånare</text><text font-family="Arial,Arial_MSFontService,sans-serif" font-weight="400" font-size="16" transform="matrix(1 0 0 0.998201 286.434 62)">USD</text><text font-family="Arial,Arial_MSFontService,sans-serif" font-weight="400" font-size="16" transform="matrix(1 0 0 0.998201 320.215 62)">, </text><text font-family="Arial,Arial_MSFontService,sans-serif" font-weight="400" font-size="16" transform="matrix(1 0 0 0.998201 329.106 62)">2025 </text><text font-family="Arial,Arial_MSFontService,sans-serif" font-weight="400" font-size="16" transform="matrix(1 0 0 0.998201 369.145 62)">växelkurs</text><path d="M0 0.998201-0.499121 0.998201 0.499081 0 0.499081 39.2626-0.499121 38.2644 40.9263 38.2644 40.9263 40.2608-1.49732 40.2608-1.49732-0.998201 0-0.998201ZM39.5954 35.2698 47.581 39.2626 39.5954 43.2554Z" transform="matrix(-1.0018 1.22465e-16 1.22686e-16 1 575.667 125.802)"/><text font-family="Calibri,Calibri_MSFontService,sans-serif" font-weight="700" font-size="15" transform="matrix(1 0 0 0.998201 584.808 151)">−</text><text font-family="Arial,Arial_MSFontService,sans-serif" font-weight="700" font-size="15" transform="matrix(1 0 0 0.998201 592.141 151)">2</text><text font-family="Arial,Arial_MSFontService,sans-serif" font-weight="700" font-size="15" transform="matrix(1 0 0 0.998201 600.308 151)">8</text><text font-family="Arial,Arial_MSFontService,sans-serif" font-weight="700" font-size="15" transform="matrix(1 0 0 0.998201 608.474 151)">%</text></g></svg>