<svg width="1746" height="658" xmlns="http://www.w3.org/2000/svg" xmlns:xlink="http://www.w3.org/1999/xlink" xml:space="preserve" overflow="hidden"><defs><clipPath id="clip0"><rect x="317" y="1241" width="1746" height="658"/></clipPath></defs><g clip-path="url(#clip0)" transform="translate(-317 -1241)"><path d="M0 3.4375-1.71882 3.4375 1.71868 0 1.71868 135.208-1.71882 131.771 140.938 131.771 140.938 138.646-5.15632 138.646-5.15632-3.4375 0-3.4375ZM136.354 121.458 163.854 135.208 136.354 148.958Z" transform="matrix(-1 1.22465e-16 1.22465e-16 1 1869.35 1610.5)"/><text font-family="Calibri,Calibri_MSFontService,sans-serif" font-weight="700" font-size="50" transform="matrix(1 0 0 1 1902.06 1695)">−</text><text font-family="Arial,Arial_MSFontService,sans-serif" font-weight="700" font-size="50" transform="matrix(1 0 0 1 1927.27 1695)">49%</text><g><path d="M1179.04 1799.06 561 1799.06 561 1689.06 1179.04 1689.06ZM1775.06 1590.05 561 1590.05 561 1480.05 1775.06 1480.05Z" fill="#006AA7"/></g><g><path d="M0 0 0.000360892 418" stroke="#D9D9D9" stroke-width="3.4375" stroke-linejoin="round" stroke-miterlimit="10" fill="none" fill-rule="evenodd" transform="matrix(1 0 0 -1 560.5 1848.5)"/></g><g><text font-family="Arial,Arial_MSFontService,sans-serif" font-weight="400" font-size="50" transform="matrix(1 0 0 1 1206.1 1762)">31,900</text></g><g><text font-family="Arial,Arial_MSFontService,sans-serif" font-weight="400" font-size="50" transform="matrix(1 0 0 1 1798.76 1553)">62,700</text></g><g><text font-family="Arial,Arial_MSFontService,sans-serif" font-weight="400" font-size="50" transform="matrix(1 0 0 1 346.551 1760)">Sverige</text></g><g><text font-family="Arial,Arial_MSFontService,sans-serif" font-weight="400" font-size="50" transform="matrix(1 0 0 1 413.88 1551)">USA</text></g><text font-family="Arial,Arial_MSFontService,sans-serif" font-weight="700" font-size="64" transform="matrix(1 0 0 1 688.869 1323)">Disponibel</text><text font-family="Arial,Arial_MSFontService,sans-serif" font-weight="700" font-size="64" transform="matrix(1 0 0 1 1033.19 1323)">inkomst</text><text font-family="Arial,Arial_MSFontService,sans-serif" font-weight="700" font-size="64" transform="matrix(1 0 0 1 1296.16 1323)">/ </text><text font-family="Arial,Arial_MSFontService,sans-serif" font-weight="700" font-size="64" transform="matrix(1 0 0 1 1331.68 1323)">invånare</text><text font-family="Arial,Arial_MSFontService,sans-serif" font-weight="400" font-size="60" transform="matrix(1 0 0 1 861.592 1396)">USD, 2023 </text><text font-family="Arial,Arial_MSFontService,sans-serif" font-weight="400" font-size="60" transform="matrix(1 0 0 1 1169.82 1396)">växelkurs</text></g></svg>