<svg width="493" height="254" xmlns="http://www.w3.org/2000/svg" xmlns:xlink="http://www.w3.org/1999/xlink" xml:space="preserve" overflow="hidden"><defs><clipPath id="clip0"><rect x="124" y="312" width="493" height="254"/></clipPath></defs><g clip-path="url(#clip0)" transform="translate(-124 -312)"><path d="M40.7141 461.784 597.855 461.784 597.855 761.783 40.7141 761.783Z" fill="#FFFFFF" transform="matrix(1.00149 0 0 1 18.2552 -149.784)"/><path d="M322.499 636.426 190.714 636.426 190.714 604.283 322.499 604.283ZM470.355 575.355 190.714 575.355 190.714 543.212 470.355 543.212Z" fill="#006AA7" transform="matrix(1.00149 0 0 1 18.2552 -149.784)"/><path d="M0 0 0.000112486 122.142" stroke="#D9D9D9" stroke-width="1.07142" stroke-linejoin="round" stroke-miterlimit="10" fill="none" fill-rule="evenodd" transform="matrix(1.00149 0 0 -1 208.716 501.106)"/><text font-family="Arial,Arial_MSFontService,sans-serif" font-weight="400" font-size="15" transform="matrix(1.07302 0 0 1.07142 354.51 477)">30 000 </text><text font-family="Arial,Arial_MSFontService,sans-serif" font-weight="400" font-size="15" transform="matrix(1.07302 0 0 1.07142 502.265 416)">63 400 </text><text font-family="Arial,Arial_MSFontService,sans-serif" font-weight="400" font-size="15" transform="matrix(1.07302 0 0 1.07142 141.929 475)">Sverige</text><text font-family="Arial,Arial_MSFontService,sans-serif" font-weight="400" font-size="15" transform="matrix(1.07302 0 0 1.07142 162.945 415)">USA</text><text fill="#C00000" font-family="Arial,Arial_MSFontService,sans-serif" font-weight="700" font-size="17" transform="matrix(1.07302 0 0 1.07142 206.216 340)">Disponibel inkomst</text><text font-family="Arial,Arial_MSFontService,sans-serif" font-weight="700" font-size="17" transform="matrix(1.07302 0 0 1.07142 382.907 340)">/ </text><text font-family="Arial,Arial_MSFontService,sans-serif" font-weight="700" font-size="17" transform="matrix(1.07302 0 0 1.07142 393.043 340)">invånare</text><text font-family="Arial,Arial_MSFontService,sans-serif" font-weight="400" font-size="16" transform="matrix(1.07302 0 0 1.07142 257.342 360)">USD</text><text font-family="Arial,Arial_MSFontService,sans-serif" font-weight="400" font-size="16" transform="matrix(1.07302 0 0 1.07142 293.59 360)">, </text><text font-family="Arial,Arial_MSFontService,sans-serif" font-weight="400" font-size="16" transform="matrix(1.07302 0 0 1.07142 303.13 360)">2025 </text><text font-family="Arial,Arial_MSFontService,sans-serif" font-weight="400" font-size="16" transform="matrix(1.07302 0 0 1.07142 346.093 360)">växelkurs</text><text font-family="Arial,Arial_MSFontService,sans-serif" font-weight="400" font-size="12" transform="matrix(1.07302 0 0 1.07142 207.788 532)">Disponibel</text><text font-family="Arial,Arial_MSFontService,sans-serif" font-weight="400" font-size="12" transform="matrix(1.07302 0 0 1.07142 271.455 532)">inkomst</text><text font-family="Arial,Arial_MSFontService,sans-serif" font-weight="400" font-size="12" transform="matrix(1.07302 0 0 1.07142 319.382 532)">= </text><text font-family="Arial,Arial_MSFontService,sans-serif" font-weight="400" font-size="12" transform="matrix(1.07302 0 0 1.07142 330.471 532)">Inkomst</text><text font-family="Arial,Arial_MSFontService,sans-serif" font-weight="400" font-size="12" transform="matrix(1.07302 0 0 1.07142 379.114 532)">efter</text><text font-family="Arial,Arial_MSFontService,sans-serif" font-weight="400" font-size="12" transform="matrix(1.07302 0 0 1.07142 408.443 532)">skatt</text><text font-family="Arial,Arial_MSFontService,sans-serif" font-weight="400" font-size="12" transform="matrix(1.07302 0 0 1.07142 439.203 532)">(</text><text font-family="Arial,Arial_MSFontService,sans-serif" font-weight="400" font-size="12" transform="matrix(1.07302 0 0 1.07142 443.491 532)">och </text><text font-family="Arial,Arial_MSFontService,sans-serif" font-weight="400" font-size="12" transform="matrix(1.07302 0 0 1.07142 467.817 532)">vissa</text><text font-family="Arial,Arial_MSFontService,sans-serif" font-weight="400" font-size="12" transform="matrix(1.07302 0 0 1.07142 500.722 532)">andra</text><text font-family="Arial,Arial_MSFontService,sans-serif" font-weight="400" font-size="12" transform="matrix(1.07302 0 0 1.07142 537.205 532)">justeringar</text><text font-family="Arial,Arial_MSFontService,sans-serif" font-weight="400" font-size="12" transform="matrix(1.07302 0 0 1.07142 597.294 532)">)</text><text font-family="Arial,Arial_MSFontService,sans-serif" font-weight="400" font-size="12" transform="matrix(1.07302 0 0 1.07142 207.788 547)">Källa</text><text font-family="Arial,Arial_MSFontService,sans-serif" font-weight="400" font-size="12" transform="matrix(1.07302 0 0 1.07142 236.42 547)">: </text><text font-family="Arial,Arial_MSFontService,sans-serif" font-weight="400" font-size="12" transform="matrix(1.07302 0 0 1.07142 243.556 547)">S</text><text font-family="Arial,Arial_MSFontService,sans-serif" font-weight="400" font-size="12" transform="matrix(1.07302 0 0 1.07142 252.144 547)">.</text><text font-family="Arial,Arial_MSFontService,sans-serif" font-weight="400" font-size="12" transform="matrix(1.07302 0 0 1.07142 255.722 547)">Canbäck</text><text font-family="Arial,Arial_MSFontService,sans-serif" font-weight="400" font-size="12" transform="matrix(1.07302 0 0 1.07142 310.083 547)">(</text><text font-family="Arial,Arial_MSFontService,sans-serif" font-weight="400" font-size="12" transform="matrix(1.07302 0 0 1.07142 314.371 547)">Tellusant</text><text font-family="Arial,Arial_MSFontService,sans-serif" font-weight="400" font-size="12" transform="matrix(1.07302 0 0 1.07142 365.191 547)">) </text><text font-family="Arial,Arial_MSFontService,sans-serif" font-weight="400" font-size="12" transform="matrix(1.07302 0 0 1.07142 374.464 547)">analys</text><text font-family="Arial,Arial_MSFontService,sans-serif" font-weight="400" font-size="12" transform="matrix(1.07302 0 0 1.07142 411.662 547)">; </text><text font-family="Arial,Arial_MSFontService,sans-serif" font-weight="400" font-size="12" transform="matrix(1.07302 0 0 1.07142 418.817 547)">TelluBase</text><path d="M0 1.07142-0.535734 1.07142 0.535691 0 0.535691 42.1427-0.535734 41.0712 43.9284 41.0712 43.9284 43.2141-1.60716 43.2141-1.60716-1.07142 0-1.07142ZM42.4999 37.857 51.0713 42.1427 42.4999 46.4284Z" transform="matrix(-1.00149 1.22465e-16 1.22647e-16 1 521.144 428.785)"/><text font-family="Calibri,Calibri_MSFontService,sans-serif" font-weight="700" font-size="15" transform="matrix(1.07302 0 0 1.07142 530.949 454)">−</text><text font-family="Arial,Arial_MSFontService,sans-serif" font-weight="700" font-size="15" transform="matrix(1.07302 0 0 1.07142 538.818 454)">53</text><text font-family="Arial,Arial_MSFontService,sans-serif" font-weight="700" font-size="15" transform="matrix(1.07302 0 0 1.07142 556.344 454)">%</text></g></svg>