<svg width="1743" height="662" xmlns="http://www.w3.org/2000/svg" xmlns:xlink="http://www.w3.org/1999/xlink" xml:space="preserve" overflow="hidden"><defs><clipPath id="clip0"><rect x="310" y="2712" width="1743" height="662"/></clipPath></defs><g clip-path="url(#clip0)" transform="translate(-310 -2712)"><path d="M0 3.4375-1.05916 3.4375 2.37834 0 2.37834 135.208-1.05916 131.771 78.0578 131.771 78.0578 138.646-4.49666 138.646-4.49666-3.4375 0-3.4375ZM73.4744 121.458 100.974 135.208 73.4744 148.958Z" transform="matrix(-1 1.22465e-16 1.22465e-16 1 1863.47 3083.5)"/><text font-family="Calibri,Calibri_MSFontService,sans-serif" font-weight="700" font-size="50" transform="matrix(1 0 0 1 1895.58 3167)">−</text><text font-family="Arial,Arial_MSFontService,sans-serif" font-weight="700" font-size="50" transform="matrix(1 0 0 1 1920.79 3167)">22%</text><g><path d="M1506.05 3274.11 554 3274.11 554 3164.1 1506.05 3164.1ZM1778.06 3066.1 554 3066.1 554 2955.1 1778.06 2955.1Z" fill="#006AA7"/></g><g><path d="M0 0 0.000360892 417" stroke="#D9D9D9" stroke-width="3.4375" stroke-linejoin="round" stroke-miterlimit="10" fill="none" fill-rule="evenodd" transform="matrix(1 0 0 -1 553.5 3323.5)"/></g><g><text font-family="Arial,Arial_MSFontService,sans-serif" font-weight="400" font-size="50" transform="matrix(1 0 0 1 1534.02 3237)">52,700</text></g><g><text font-family="Arial,Arial_MSFontService,sans-serif" font-weight="400" font-size="50" transform="matrix(1 0 0 1 1805.15 3029)">67,700</text></g><g><text font-family="Arial,Arial_MSFontService,sans-serif" font-weight="400" font-size="50" transform="matrix(1 0 0 1 339.583 3236)">Sverige</text></g><g><text font-family="Arial,Arial_MSFontService,sans-serif" font-weight="400" font-size="50" transform="matrix(1 0 0 1 406.913 3027)">USA</text></g><text font-family="Arial,Arial_MSFontService,sans-serif" font-weight="700" font-size="64" transform="matrix(1 0 0 1 564.868 2794)">Justerad</text><text font-family="Arial,Arial_MSFontService,sans-serif" font-weight="700" font-size="64" transform="matrix(1 0 0 1 849.034 2794)">disponibel</text><text font-family="Arial,Arial_MSFontService,sans-serif" font-weight="700" font-size="64" transform="matrix(1 0 0 1 1185.91 2794)">inkomst</text><text font-family="Arial,Arial_MSFontService,sans-serif" font-weight="700" font-size="64" transform="matrix(1 0 0 1 1448.88 2794)">/ </text><text font-family="Arial,Arial_MSFontService,sans-serif" font-weight="700" font-size="64" transform="matrix(1 0 0 1 1484.4 2794)">invånare</text><text font-family="Arial,Arial_MSFontService,sans-serif" font-weight="400" font-size="60" transform="matrix(1 0 0 1 640.218 2867)">PPP$, </text><text font-family="Arial,Arial_MSFontService,sans-serif" font-weight="400" font-size="60" transform="matrix(1 0 0 1 825.27 2867)">framskriven</text><text font-family="Arial,Arial_MSFontService,sans-serif" font-weight="400" font-size="60" transform="matrix(1 0 0 1 1150.69 2867)">växelkurs</text><text font-family="Arial,Arial_MSFontService,sans-serif" font-weight="400" font-size="60" transform="matrix(1 0 0 1 1419.38 2867)">från</text><text font-family="Arial,Arial_MSFontService,sans-serif" font-weight="400" font-size="60" transform="matrix(1 0 0 1 1539.12 2867)">2021</text></g></svg>