<svg width="2013" height="1480" xmlns="http://www.w3.org/2000/svg" xmlns:xlink="http://www.w3.org/1999/xlink" xml:space="preserve" overflow="hidden"><defs><clipPath id="clip0"><rect x="231" y="623" width="2013" height="1480"/></clipPath></defs><g clip-path="url(#clip0)" transform="translate(-231 -623)"><rect x="231" y="623" width="2013" height="1343" fill="#FFFFFF"/><g><path d="M882.529 1041.5 882.529 1841.5M1065.54 1041.5 1065.54 1841.5M1248.54 1041.5 1248.54 1841.5M1431.55 1041.5 1431.55 1841.5M1614.55 1041.5 1614.55 1841.5M1797.56 1041.5 1797.56 1841.5M1979.57 1041.5 1979.57 1841.5M2162.5 1041.5 2162.5 1841.5" stroke="#D9D9D9" stroke-width="3.4375" stroke-linejoin="round" stroke-miterlimit="10" fill="none"/></g><g><path d="M0 0 0.000360892 800" stroke="#D9D9D9" stroke-width="3.4375" stroke-linejoin="round" stroke-miterlimit="10" fill="none" fill-rule="evenodd" transform="matrix(1 0 0 -1 699.5 1841.5)"/></g><g><path d="M1195.5 1801.56 699.5 1801.56M699.5 1791.5 699.5 1812.5" stroke="#D9D9D9" stroke-width="3.4375" stroke-linejoin="round" stroke-miterlimit="10" fill="none"/></g><g><path d="M1402.5 1721.56 699.5 1721.56M699.5 1711.5 699.5 1732.5" stroke="#D9D9D9" stroke-width="3.4375" stroke-linejoin="round" stroke-miterlimit="10" fill="none"/></g><g><path d="M1162.5 1641.55 699.5 1641.55M699.5 1631.5 699.5 1652.5" stroke="#D9D9D9" stroke-width="3.4375" stroke-linejoin="round" stroke-miterlimit="10" fill="none"/></g><g><path d="M1330.5 1561.55 699.5 1561.55M699.5 1551.5 699.5 1572.5" stroke="#D9D9D9" stroke-width="3.4375" stroke-linejoin="round" stroke-miterlimit="10" fill="none"/></g><g><path d="M1872.5 1481.55 699.5 1481.55M699.5 1471.5 699.5 1492.5" stroke="#D9D9D9" stroke-width="3.4375" stroke-linejoin="round" stroke-miterlimit="10" fill="none"/></g><g><path d="M1319.5 1401.55 699.5 1401.55M699.5 1391.5 699.5 1412.5" stroke="#D9D9D9" stroke-width="3.4375" stroke-linejoin="round" stroke-miterlimit="10" fill="none"/></g><g><path d="M1337.5 1321.54 699.5 1321.54M699.5 1311.5 699.5 1332.5" stroke="#D9D9D9" stroke-width="3.4375" stroke-linejoin="round" stroke-miterlimit="10" fill="none"/></g><g><path d="M1734.5 1241.54 699.5 1241.54M699.5 1231.5 699.5 1252.5" stroke="#D9D9D9" stroke-width="3.4375" stroke-linejoin="round" stroke-miterlimit="10" fill="none"/></g><g><path d="M1411.5 1161.54 699.5 1161.54M699.5 1151.5 699.5 1172.5" stroke="#D9D9D9" stroke-width="3.4375" stroke-linejoin="round" stroke-miterlimit="10" fill="none"/></g><g><path d="M1801.5 1081.54 699.5 1081.54M699.5 1071.5 699.5 1092.5" stroke="#D9D9D9" stroke-width="3.4375" stroke-linejoin="round" stroke-miterlimit="10" fill="none"/></g><g><path d="M1097.5 1801.56 699.5 1801.56M699.5 1791.5 699.5 1812.5" stroke="#D9D9D9" stroke-width="3.4375" stroke-linejoin="round" stroke-miterlimit="10" fill="none"/></g><g><path d="M1237.5 1721.56 699.5 1721.56M699.5 1711.5 699.5 1732.5" stroke="#D9D9D9" stroke-width="3.4375" stroke-linejoin="round" stroke-miterlimit="10" fill="none"/></g><g><path d="M1361.5 1641.55 699.5 1641.55M699.5 1631.5 699.5 1652.5" stroke="#D9D9D9" stroke-width="3.4375" stroke-linejoin="round" stroke-miterlimit="10" fill="none"/></g><g><path d="M1177.5 1561.55 699.5 1561.55M699.5 1551.5 699.5 1572.5" stroke="#D9D9D9" stroke-width="3.4375" stroke-linejoin="round" stroke-miterlimit="10" fill="none"/></g><g><path d="M1683.5 1481.55 699.5 1481.55M699.5 1471.5 699.5 1492.5" stroke="#D9D9D9" stroke-width="3.4375" stroke-linejoin="round" stroke-miterlimit="10" fill="none"/></g><g><path d="M1430.5 1401.55 699.5 1401.55M699.5 1391.5 699.5 1412.5" stroke="#D9D9D9" stroke-width="3.4375" stroke-linejoin="round" stroke-miterlimit="10" fill="none"/></g><g><path d="M1572.5 1321.54 699.5 1321.54M699.5 1311.5 699.5 1332.5" stroke="#D9D9D9" stroke-width="3.4375" stroke-linejoin="round" stroke-miterlimit="10" fill="none"/></g><g><path d="M2018.5 1241.54 699.5 1241.54M699.5 1231.5 699.5 1252.5" stroke="#D9D9D9" stroke-width="3.4375" stroke-linejoin="round" stroke-miterlimit="10" fill="none"/></g><g><path d="M1853.5 1161.54 699.5 1161.54M699.5 1151.5 699.5 1172.5" stroke="#D9D9D9" stroke-width="3.4375" stroke-linejoin="round" stroke-miterlimit="10" fill="none"/></g><g><path d="M1273.5 1081.54 699.5 1081.54M699.5 1071.5 699.5 1092.5" stroke="#D9D9D9" stroke-width="3.4375" stroke-linejoin="round" stroke-miterlimit="10" fill="none"/></g><g><path d="M1079.6 1801.7C1079.6 1807.77 1074.68 1812.7 1068.6 1812.7 1062.53 1812.7 1057.6 1807.77 1057.6 1801.7 1057.6 1795.62 1062.53 1790.7 1068.6 1790.7 1074.68 1790.7 1079.6 1795.62 1079.6 1801.7Z" stroke="#E97132" stroke-width="11.4583" stroke-linejoin="round" stroke-miterlimit="10" fill="#C00000"/><path d="M1090.6 1721.7C1090.6 1727.77 1085.68 1732.7 1079.6 1732.7 1073.53 1732.7 1068.6 1727.77 1068.6 1721.7 1068.6 1715.62 1073.53 1710.7 1079.6 1710.7 1085.68 1710.7 1090.6 1715.62 1090.6 1721.7Z" stroke="#E97132" stroke-width="11.4583" stroke-linejoin="round" stroke-miterlimit="10" fill="#C00000"/><path d="M1112.6 1641.7C1112.6 1647.77 1107.68 1652.7 1101.6 1652.7 1095.53 1652.7 1090.6 1647.77 1090.6 1641.7 1090.6 1635.62 1095.53 1630.7 1101.6 1630.7 1107.68 1630.7 1112.6 1635.62 1112.6 1641.7Z" stroke="#E97132" stroke-width="11.4583" stroke-linejoin="round" stroke-miterlimit="10" fill="#C00000"/><path d="M1180.6 1561.7C1180.6 1567.77 1175.68 1572.7 1169.6 1572.7 1163.53 1572.7 1158.6 1567.77 1158.6 1561.7 1158.6 1555.62 1163.53 1550.7 1169.6 1550.7 1175.68 1550.7 1180.6 1555.62 1180.6 1561.7Z" stroke="#E97132" stroke-width="11.4583" stroke-linejoin="round" stroke-miterlimit="10" fill="#C00000"/><path d="M1191.6 1481.7C1191.6 1487.77 1186.68 1492.7 1180.6 1492.7 1174.53 1492.7 1169.6 1487.77 1169.6 1481.7 1169.6 1475.62 1174.53 1470.7 1180.6 1470.7 1186.68 1470.7 1191.6 1475.62 1191.6 1481.7Z" stroke="#E97132" stroke-width="11.4583" stroke-linejoin="round" stroke-miterlimit="10" fill="#C00000"/><path d="M1212.6 1401.7C1212.6 1407.77 1207.68 1412.7 1201.6 1412.7 1195.53 1412.7 1190.6 1407.77 1190.6 1401.7 1190.6 1395.62 1195.53 1390.7 1201.6 1390.7 1207.68 1390.7 1212.6 1395.62 1212.6 1401.7Z" stroke="#E97132" stroke-width="11.4583" stroke-linejoin="round" stroke-miterlimit="10" fill="#C00000"/><path d="M1240.6 1321.7C1240.6 1327.77 1235.68 1332.7 1229.6 1332.7 1223.53 1332.7 1218.6 1327.77 1218.6 1321.7 1218.6 1315.62 1223.53 1310.7 1229.6 1310.7 1235.68 1310.7 1240.6 1315.62 1240.6 1321.7Z" stroke="#E97132" stroke-width="11.4583" stroke-linejoin="round" stroke-miterlimit="10" fill="#C00000"/><path d="M1452.6 1241.7C1452.6 1247.77 1447.68 1252.7 1441.6 1252.7 1435.53 1252.7 1430.6 1247.77 1430.6 1241.7 1430.6 1235.62 1435.53 1230.7 1441.6 1230.7 1447.68 1230.7 1452.6 1235.62 1452.6 1241.7Z" stroke="#E97132" stroke-width="11.4583" stroke-linejoin="round" stroke-miterlimit="10" fill="#C00000"/><path d="M1667.6 1161.7C1667.6 1167.77 1662.68 1172.7 1656.6 1172.7 1650.53 1172.7 1645.6 1167.77 1645.6 1161.7 1645.6 1155.62 1650.53 1150.7 1656.6 1150.7 1662.68 1150.7 1667.6 1155.62 1667.6 1161.7Z" stroke="#E97132" stroke-width="11.4583" stroke-linejoin="round" stroke-miterlimit="10" fill="#C00000"/><path d="M1734.6 1081.7C1734.6 1087.77 1729.68 1092.7 1723.6 1092.7 1717.53 1092.7 1712.6 1087.77 1712.6 1081.7 1712.6 1075.62 1717.53 1070.7 1723.6 1070.7 1729.68 1070.7 1734.6 1075.62 1734.6 1081.7Z" stroke="#E97132" stroke-width="11.4583" stroke-linejoin="round" stroke-miterlimit="10" fill="#C00000"/></g><g><path d="M1206.6 1801.7C1206.6 1807.77 1201.68 1812.7 1195.6 1812.7 1189.53 1812.7 1184.6 1807.77 1184.6 1801.7 1184.6 1795.62 1189.53 1790.7 1195.6 1790.7 1201.68 1790.7 1206.6 1795.62 1206.6 1801.7Z" stroke="#002060" stroke-width="11.4583" stroke-linejoin="round" stroke-miterlimit="10" fill="#002060"/><path d="M1413.6 1721.7C1413.6 1727.77 1408.68 1732.7 1402.6 1732.7 1396.53 1732.7 1391.6 1727.77 1391.6 1721.7 1391.6 1715.62 1396.53 1710.7 1402.6 1710.7 1408.68 1710.7 1413.6 1715.62 1413.6 1721.7Z" stroke="#002060" stroke-width="11.4583" stroke-linejoin="round" stroke-miterlimit="10" fill="#002060"/><path d="M1173.6 1641.7C1173.6 1647.77 1168.68 1652.7 1162.6 1652.7 1156.53 1652.7 1151.6 1647.77 1151.6 1641.7 1151.6 1635.62 1156.53 1630.7 1162.6 1630.7 1168.68 1630.7 1173.6 1635.62 1173.6 1641.7Z" stroke="#002060" stroke-width="11.4583" stroke-linejoin="round" stroke-miterlimit="10" fill="#002060"/><path d="M1341.6 1561.7C1341.6 1567.77 1336.68 1572.7 1330.6 1572.7 1324.53 1572.7 1319.6 1567.77 1319.6 1561.7 1319.6 1555.62 1324.53 1550.7 1330.6 1550.7 1336.68 1550.7 1341.6 1555.62 1341.6 1561.7Z" stroke="#002060" stroke-width="11.4583" stroke-linejoin="round" stroke-miterlimit="10" fill="#002060"/><path d="M1883.6 1481.7C1883.6 1487.77 1878.68 1492.7 1872.6 1492.7 1866.53 1492.7 1861.6 1487.77 1861.6 1481.7 1861.6 1475.62 1866.53 1470.7 1872.6 1470.7 1878.68 1470.7 1883.6 1475.62 1883.6 1481.7Z" stroke="#002060" stroke-width="11.4583" stroke-linejoin="round" stroke-miterlimit="10" fill="#002060"/><path d="M1330.6 1401.7C1330.6 1407.77 1325.68 1412.7 1319.6 1412.7 1313.53 1412.7 1308.6 1407.77 1308.6 1401.7 1308.6 1395.62 1313.53 1390.7 1319.6 1390.7 1325.68 1390.7 1330.6 1395.62 1330.6 1401.7Z" stroke="#002060" stroke-width="11.4583" stroke-linejoin="round" stroke-miterlimit="10" fill="#002060"/><path d="M1348.6 1321.7C1348.6 1327.77 1343.68 1332.7 1337.6 1332.7 1331.53 1332.7 1326.6 1327.77 1326.6 1321.7 1326.6 1315.62 1331.53 1310.7 1337.6 1310.7 1343.68 1310.7 1348.6 1315.62 1348.6 1321.7Z" stroke="#002060" stroke-width="11.4583" stroke-linejoin="round" stroke-miterlimit="10" fill="#002060"/><path d="M1745.6 1241.7C1745.6 1247.77 1740.68 1252.7 1734.6 1252.7 1728.53 1252.7 1723.6 1247.77 1723.6 1241.7 1723.6 1235.62 1728.53 1230.7 1734.6 1230.7 1740.68 1230.7 1745.6 1235.62 1745.6 1241.7Z" stroke="#002060" stroke-width="11.4583" stroke-linejoin="round" stroke-miterlimit="10" fill="#002060"/><path d="M1422.6 1161.7C1422.6 1167.77 1417.68 1172.7 1411.6 1172.7 1405.53 1172.7 1400.6 1167.77 1400.6 1161.7 1400.6 1155.62 1405.53 1150.7 1411.6 1150.7 1417.68 1150.7 1422.6 1155.62 1422.6 1161.7Z" stroke="#002060" stroke-width="11.4583" stroke-linejoin="round" stroke-miterlimit="10" fill="#002060"/><path d="M1812.6 1081.7C1812.6 1087.77 1807.68 1092.7 1801.6 1092.7 1795.53 1092.7 1790.6 1087.77 1790.6 1081.7 1790.6 1075.62 1795.53 1070.7 1801.6 1070.7 1807.68 1070.7 1812.6 1075.62 1812.6 1081.7Z" stroke="#002060" stroke-width="11.4583" stroke-linejoin="round" stroke-miterlimit="10" fill="#002060"/></g><g><path d="M1108.6 1801.7C1108.6 1807.77 1103.68 1812.7 1097.6 1812.7 1091.53 1812.7 1086.6 1807.77 1086.6 1801.7 1086.6 1795.62 1091.53 1790.7 1097.6 1790.7 1103.68 1790.7 1108.6 1795.62 1108.6 1801.7Z" stroke="#00B050" stroke-width="11.4583" stroke-linejoin="round" stroke-miterlimit="10" fill="#00B050"/><path d="M1248.6 1721.7C1248.6 1727.77 1243.68 1732.7 1237.6 1732.7 1231.53 1732.7 1226.6 1727.77 1226.6 1721.7 1226.6 1715.62 1231.53 1710.7 1237.6 1710.7 1243.68 1710.7 1248.6 1715.62 1248.6 1721.7Z" stroke="#00B050" stroke-width="11.4583" stroke-linejoin="round" stroke-miterlimit="10" fill="#00B050"/><path d="M1372.6 1641.7C1372.6 1647.77 1367.68 1652.7 1361.6 1652.7 1355.53 1652.7 1350.6 1647.77 1350.6 1641.7 1350.6 1635.62 1355.53 1630.7 1361.6 1630.7 1367.68 1630.7 1372.6 1635.62 1372.6 1641.7Z" stroke="#00B050" stroke-width="11.4583" stroke-linejoin="round" stroke-miterlimit="10" fill="#00B050"/><path d="M1188.6 1561.7C1188.6 1567.77 1183.68 1572.7 1177.6 1572.7 1171.53 1572.7 1166.6 1567.77 1166.6 1561.7 1166.6 1555.62 1171.53 1550.7 1177.6 1550.7 1183.68 1550.7 1188.6 1555.62 1188.6 1561.7Z" stroke="#00B050" stroke-width="11.4583" stroke-linejoin="round" stroke-miterlimit="10" fill="#00B050"/><path d="M1694.6 1481.7C1694.6 1487.77 1689.68 1492.7 1683.6 1492.7 1677.53 1492.7 1672.6 1487.77 1672.6 1481.7 1672.6 1475.62 1677.53 1470.7 1683.6 1470.7 1689.68 1470.7 1694.6 1475.62 1694.6 1481.7Z" stroke="#00B050" stroke-width="11.4583" stroke-linejoin="round" stroke-miterlimit="10" fill="#00B050"/><path d="M1441.6 1401.7C1441.6 1407.77 1436.68 1412.7 1430.6 1412.7 1424.53 1412.7 1419.6 1407.77 1419.6 1401.7 1419.6 1395.62 1424.53 1390.7 1430.6 1390.7 1436.68 1390.7 1441.6 1395.62 1441.6 1401.7Z" stroke="#00B050" stroke-width="11.4583" stroke-linejoin="round" stroke-miterlimit="10" fill="#00B050"/><path d="M1583.6 1321.7C1583.6 1327.77 1578.68 1332.7 1572.6 1332.7 1566.53 1332.7 1561.6 1327.77 1561.6 1321.7 1561.6 1315.62 1566.53 1310.7 1572.6 1310.7 1578.68 1310.7 1583.6 1315.62 1583.6 1321.7Z" stroke="#00B050" stroke-width="11.4583" stroke-linejoin="round" stroke-miterlimit="10" fill="#00B050"/><path d="M2029.6 1241.7C2029.6 1247.77 2024.68 1252.7 2018.6 1252.7 2012.53 1252.7 2007.6 1247.77 2007.6 1241.7 2007.6 1235.62 2012.53 1230.7 2018.6 1230.7 2024.68 1230.7 2029.6 1235.62 2029.6 1241.7Z" stroke="#00B050" stroke-width="11.4583" stroke-linejoin="round" stroke-miterlimit="10" fill="#00B050"/><path d="M1864.6 1161.7C1864.6 1167.77 1859.68 1172.7 1853.6 1172.7 1847.53 1172.7 1842.6 1167.77 1842.6 1161.7 1842.6 1155.62 1847.53 1150.7 1853.6 1150.7 1859.68 1150.7 1864.6 1155.62 1864.6 1161.7Z" stroke="#00B050" stroke-width="11.4583" stroke-linejoin="round" stroke-miterlimit="10" fill="#00B050"/><path d="M1284.6 1081.7C1284.6 1087.77 1279.68 1092.7 1273.6 1092.7 1267.53 1092.7 1262.6 1087.77 1262.6 1081.7 1262.6 1075.62 1267.53 1070.7 1273.6 1070.7 1279.68 1070.7 1284.6 1075.62 1284.6 1081.7Z" stroke="#00B050" stroke-width="11.4583" stroke-linejoin="round" stroke-miterlimit="10" fill="#00B050"/></g><g><text font-family="Arial,Arial_MSFontService,sans-serif" font-weight="400" font-size="55" transform="matrix(1 0 0 1 684.3 1925)">0</text></g><g><text font-family="Arial,Arial_MSFontService,sans-serif" font-weight="400" font-size="55" transform="matrix(1 0 0 1 851.914 1925)">10</text></g><g><text font-family="Arial,Arial_MSFontService,sans-serif" font-weight="400" font-size="55" transform="matrix(1 0 0 1 1034.83 1925)">20</text></g><g><text font-family="Arial,Arial_MSFontService,sans-serif" font-weight="400" font-size="55" transform="matrix(1 0 0 1 1217.74 1925)">30</text></g><g><text font-family="Arial,Arial_MSFontService,sans-serif" font-weight="400" font-size="55" transform="matrix(1 0 0 1 1400.65 1925)">40</text></g><g><text font-family="Arial,Arial_MSFontService,sans-serif" font-weight="400" font-size="55" transform="matrix(1 0 0 1 1583.56 1925)">50</text></g><g><text font-family="Arial,Arial_MSFontService,sans-serif" font-weight="400" font-size="55" transform="matrix(1 0 0 1 1766.47 1925)">60</text></g><g><text font-family="Arial,Arial_MSFontService,sans-serif" font-weight="400" font-size="55" transform="matrix(1 0 0 1 1949.38 1925)">70</text></g><g><text font-family="Arial,Arial_MSFontService,sans-serif" font-weight="400" font-size="55" transform="matrix(1 0 0 1 2132.29 1925)">80</text></g><g><text font-family="Arial,Arial_MSFontService,sans-serif" font-weight="400" font-size="55" transform="matrix(1 0 0 1 429.148 1823)">Denmark</text></g><g><text font-family="Arial,Arial_MSFontService,sans-serif" font-weight="400" font-size="55" transform="matrix(1 0 0 1 260.893 1750)">United Kingdom</text></g><g><text font-family="Arial,Arial_MSFontService,sans-serif" font-weight="400" font-size="55" transform="matrix(1 0 0 1 453.486 1678)">Sweden</text></g><g><text font-family="Arial,Arial_MSFontService,sans-serif" font-weight="400" font-size="55" transform="matrix(1 0 0 1 322.035 1605)">United States</text></g><g><text font-family="Arial,Arial_MSFontService,sans-serif" font-weight="400" font-size="55" transform="matrix(1 0 0 1 426.077 1532)">Germany</text></g><g><text font-family="Arial,Arial_MSFontService,sans-serif" font-weight="400" font-size="55" transform="matrix(1 0 0 1 465.838 1459)">Norway</text></g><g><text font-family="Arial,Arial_MSFontService,sans-serif" font-weight="400" font-size="55" transform="matrix(1 0 0 1 471.865 1387)">Finland</text></g><g><text font-family="Arial,Arial_MSFontService,sans-serif" font-weight="400" font-size="55" transform="matrix(1 0 0 1 481.078 1314)">France</text></g><g><text font-family="Arial,Arial_MSFontService,sans-serif" font-weight="400" font-size="55" transform="matrix(1 0 0 1 514.742 1241)">Brazil</text></g><g><text font-family="Arial,Arial_MSFontService,sans-serif" font-weight="400" font-size="55" transform="matrix(1 0 0 1 532.984 1169)">India</text></g><g><text font-family="Arial,Arial_MSFontService,sans-serif" font-weight="400" font-size="55" transform="matrix(1 0 0 1 508.555 1096)">China</text></g><g><text font-family="Arial,Arial_MSFontService,sans-serif" font-weight="700" font-size="64" transform="matrix(1 0 0 1 800.25 718)">CULTURAL DIMENSIONS OF </text></g><g><text font-family="Arial,Arial_MSFontService,sans-serif" font-weight="700" font-size="64" transform="matrix(1 0 0 1 740.804 792)">IMPORTANT EXPORT MARKETS</text></g><g><text font-family="Arial,Arial_MSFontService,sans-serif" font-weight="400" font-size="60" transform="matrix(1 0 0 1 990.779 861)">Min = 0 Max = 100</text></g><g><text fill="#595959" font-family="Arial,Arial_MSFontService,sans-serif" font-weight="400" font-size="50" transform="matrix(1 0 0 1 738.454 966)">CultDist1</text></g><g><path d="M1020 949C1020 955.075 1015.08 959.999 1009 959.999 1002.93 959.999 998 955.075 998 949 998 942.924 1002.93 938 1009 938 1015.08 938 1020 942.924 1020 949Z" stroke="#E97132" stroke-width="11.4583" stroke-linejoin="round" stroke-miterlimit="10" fill="#C00000"/></g><g><text fill="#595959" font-family="Arial,Arial_MSFontService,sans-serif" font-weight="400" font-size="50" transform="matrix(1 0 0 1 1033.1 966)">Structure</text></g><g><path d="M1315 949C1315 955.075 1310.08 959.999 1304 959.999 1297.93 959.999 1293 955.075 1293 949 1293 942.924 1297.93 938 1304 938 1310.08 938 1315 942.924 1315 949Z" stroke="#002060" stroke-width="11.4583" stroke-linejoin="round" stroke-miterlimit="10" fill="#002060"/></g><g><text fill="#595959" font-family="Arial,Arial_MSFontService,sans-serif" font-weight="400" font-size="50" transform="matrix(1 0 0 1 1327.76 966)">Planning</text></g><g><path d="M1601 949C1601 955.075 1596.08 959.999 1590 959.999 1583.93 959.999 1579 955.075 1579 949 1579 942.924 1583.93 938 1590 938 1596.08 938 1601 942.924 1601 949Z" stroke="#00B050" stroke-width="11.4583" stroke-linejoin="round" stroke-miterlimit="10" fill="#00B050"/></g><g><text fill="#595959" font-family="Arial,Arial_MSFontService,sans-serif" font-weight="400" font-size="50" transform="matrix(1 0 0 1 1614.13 966)">Stability</text></g><rect x="501" y="943" width="265" height="102" fill="#FFFFFF"/><text font-family="Arial,Arial_MSFontService,sans-serif" font-weight="400" font-size="46" transform="matrix(1 0 0 1 697.365 2065)">Source</text><text font-family="Arial,Arial_MSFontService,sans-serif" font-weight="400" font-size="46" transform="matrix(1 0 0 1 841.74 2065)">: </text><text font-family="Arial,Arial_MSFontService,sans-serif" font-weight="400" font-size="46" transform="matrix(1 0 0 1 866.948 2065)">TelluBase (cultural markers section)</text></g></svg>