<svg width="1394" height="1506" xmlns="http://www.w3.org/2000/svg" xmlns:xlink="http://www.w3.org/1999/xlink" xml:space="preserve" overflow="hidden"><defs><clipPath id="clip0"><rect x="580" y="1219" width="1394" height="1506"/></clipPath></defs><g clip-path="url(#clip0)" transform="translate(-580 -1219)"><rect x="580" y="1219" width="1394" height="1245" fill="#FFFFFF"/><g><path d="M1333.04 2423.08 1034 2423.08 1034 2381.08 1333.04 2381.08ZM1382.05 2347.08 1034 2347.08 1034 2304.08 1382.05 2304.08ZM1455.05 2270.07 1034 2270.07 1034 2228.07 1455.05 2228.07ZM1649.05 2194.07 1034 2194.07 1034 2151.07 1649.05 2151.07ZM1815.06 2117.07 1034 2117.07 1034 2075.07 1815.06 2075.07ZM1303.04 1964.06 1034 1964.06 1034 1922.06 1303.04 1922.06ZM1465.05 1888.06 1034 1888.06 1034 1845.06 1465.05 1845.06ZM1229.04 1811.06 1034 1811.06 1034 1769.06 1229.04 1769.06ZM1159.04 1735.06 1034 1735.06 1034 1692.06 1159.04 1692.06ZM1272.04 1658.05 1034 1658.05 1034 1616.05 1272.04 1616.05ZM1351.04 1582.05 1034 1582.05 1034 1539.05 1351.04 1539.05ZM1091.04 1505.05 1034 1505.05 1034 1463.05 1091.04 1463.05Z" fill="#C15F8C"/></g><g><path d="M0 0 0.000360892 995" stroke="#D9D9D9" stroke-width="3.4375" stroke-linejoin="round" stroke-miterlimit="10" fill="none" fill-rule="evenodd" transform="matrix(1 0 0 -1 1033.5 2440.5)"/></g><g><text fill="#404040" font-family="Arial,Arial_MSFontService,sans-serif" font-weight="400" font-size="50" transform="matrix(1 0 0 1 1360.48 2420)">0.8%</text></g><g><text fill="#404040" font-family="Arial,Arial_MSFontService,sans-serif" font-weight="400" font-size="50" transform="matrix(1 0 0 1 1409.44 2344)">1.0%</text></g><g><text fill="#404040" font-family="Arial,Arial_MSFontService,sans-serif" font-weight="400" font-size="50" transform="matrix(1 0 0 1 1482.1 2267)">1.2%</text></g><g><text fill="#404040" font-family="Arial,Arial_MSFontService,sans-serif" font-weight="400" font-size="50" transform="matrix(1 0 0 1 1676.62 2191)">1.7%</text></g><g><text fill="#404040" font-family="Arial,Arial_MSFontService,sans-serif" font-weight="400" font-size="50" transform="matrix(1 0 0 1 1842.85 2114)">2.2%</text></g><g><text fill="#404040" font-family="Arial,Arial_MSFontService,sans-serif" font-weight="400" font-size="50" transform="matrix(1 0 0 1 1330.31 1961)">0.8%</text></g><g><text fill="#404040" font-family="Arial,Arial_MSFontService,sans-serif" font-weight="400" font-size="50" transform="matrix(1 0 0 1 1492.93 1885)">1.2%</text></g><g><text fill="#404040" font-family="Arial,Arial_MSFontService,sans-serif" font-weight="400" font-size="50" transform="matrix(1 0 0 1 1256.14 1808)">0.5%</text></g><g><text fill="#404040" font-family="Arial,Arial_MSFontService,sans-serif" font-weight="400" font-size="50" transform="matrix(1 0 0 1 1186.61 1732)">0.4%</text></g><g><text fill="#404040" font-family="Arial,Arial_MSFontService,sans-serif" font-weight="400" font-size="50" transform="matrix(1 0 0 1 1299.19 1655)">0.7%</text></g><g><text fill="#404040" font-family="Arial,Arial_MSFontService,sans-serif" font-weight="400" font-size="50" transform="matrix(1 0 0 1 1378.9 1579)">0.9%</text></g><g><text fill="#404040" font-family="Arial,Arial_MSFontService,sans-serif" font-weight="400" font-size="50" transform="matrix(1 0 0 1 1118.7 1502)">0.2%</text></g><g><text font-family="Arial,Arial_MSFontService,sans-serif" font-weight="400" font-size="50" transform="matrix(1 0 0 1 867.083 2419)">Japan</text></g><g><text font-family="Arial,Arial_MSFontService,sans-serif" font-weight="400" font-size="50" transform="matrix(1 0 0 1 900.839 2342)">USA</text></g><g><text font-family="Arial,Arial_MSFontService,sans-serif" font-weight="400" font-size="50" transform="matrix(1 0 0 1 934.458 2266)">EU</text></g><g><text font-family="Arial,Arial_MSFontService,sans-serif" font-weight="400" font-size="50" transform="matrix(1 0 0 1 867.083 2189)">Indien</text></g><g><text font-family="Arial,Arial_MSFontService,sans-serif" font-weight="400" font-size="50" transform="matrix(1 0 0 1 903.566 2113)">Kina</text></g><g><text font-family="Arial,Arial_MSFontService,sans-serif" font-weight="400" font-size="50" transform="matrix(1 0 0 1 830.668 1960)">Världen</text></g><g><text font-family="Arial,Arial_MSFontService,sans-serif" font-weight="400" font-size="50" transform="matrix(1 0 0 1 841.874 1883)">Europa</text></g><g><text font-family="Arial,Arial_MSFontService,sans-serif" font-weight="400" font-size="50" transform="matrix(1 0 0 1 738.13 1807)">Nordeuropa</text></g><g><text font-family="Arial,Arial_MSFontService,sans-serif" font-weight="400" font-size="50" transform="matrix(1 0 0 1 690.509 1730)">Storbritannien</text></g><g><text font-family="Arial,Arial_MSFontService,sans-serif" font-weight="400" font-size="50" transform="matrix(1 0 0 1 676.621 1654)">Nordic-Baltic 8</text></g><g><text font-family="Arial,Arial_MSFontService,sans-serif" font-weight="400" font-size="50" transform="matrix(1 0 0 1 799.914 1577)">Danmark</text></g><g><text font-family="Arial,Arial_MSFontService,sans-serif" font-weight="400" font-size="50" transform="matrix(1 0 0 1 833.509 1501)">Sverige</text></g><g><text font-family="Arial,Arial_MSFontService,sans-serif" font-weight="700" font-size="64" transform="matrix(1 0 0 1 751.203 1313)">STRUKTURPRODUKTIVITET (TFP)</text></g><g><text font-family="Arial,Arial_MSFontService,sans-serif" font-weight="400" font-size="60" transform="matrix(1 0 0 1 975.558 1383)">Årlig</text></g><g><text font-family="Arial,Arial_MSFontService,sans-serif" font-weight="400" font-size="60" transform="matrix(1 0 0 1 1111.32 1383)">tillväxt</text></g><g><text font-family="Arial,Arial_MSFontService,sans-serif" font-weight="400" font-size="60" transform="matrix(1 0 0 1 1293.41 1383)">2015</text></g><g><text font-family="Arial,Arial_MSFontService,sans-serif" font-weight="400" font-size="60" transform="matrix(1 0 0 1 1425.96 1383)">-</text></g><g><text font-family="Arial,Arial_MSFontService,sans-serif" font-weight="400" font-size="60" transform="matrix(1 0 0 1 1445.81 1383)">2025</text></g><text font-family="Arial,Arial_MSFontService,sans-serif" font-weight="400" font-size="46" transform="matrix(1 0 0 1 615.412 2577)">TFP = Solow residual = BNP </text><text font-family="Arial,Arial_MSFontService,sans-serif" font-weight="400" font-size="46" transform="matrix(1 0 0 1 1209.53 2577)">bidrag</text><text font-family="Arial,Arial_MSFontService,sans-serif" font-weight="400" font-size="46" transform="matrix(1 0 0 1 1348.75 2577)">utöver</text><text font-family="Arial,Arial_MSFontService,sans-serif" font-weight="400" font-size="46" transform="matrix(1 0 0 1 1487.96 2577)">arbete</text><text font-family="Arial,Arial_MSFontService,sans-serif" font-weight="400" font-size="46" transform="matrix(1 0 0 1 1629.47 2577)">och </text><text font-family="Arial,Arial_MSFontService,sans-serif" font-weight="400" font-size="46" transform="matrix(1 0 0 1 1715.41 2577)">kapital</text><text font-family="Arial,Arial_MSFontService,sans-serif" font-weight="400" font-size="46" transform="matrix(1 0 0 1 615.412 2632)">t ex </text><text font-family="Arial,Arial_MSFontService,sans-serif" font-weight="400" font-size="46" transform="matrix(1 0 0 1 701.35 2632)">bättre</text><text font-family="Arial,Arial_MSFontService,sans-serif" font-weight="400" font-size="46" transform="matrix(1 0 0 1 830.256 2632)">utbildning</text><text font-family="Arial,Arial_MSFontService,sans-serif" font-weight="400" font-size="46" transform="matrix(1 0 0 1 1025.05 2632)">; </text><text font-family="Arial,Arial_MSFontService,sans-serif" font-weight="400" font-size="46" transform="matrix(1 0 0 1 1050.26 2632)">teknikutveckling</text><text font-family="Arial,Arial_MSFontService,sans-serif" font-weight="400" font-size="46" transform="matrix(1 0 0 1 1372.24 2632)">; </text><text font-family="Arial,Arial_MSFontService,sans-serif" font-weight="400" font-size="46" transform="matrix(1 0 0 1 1397.44 2632)">bättre</text><text font-family="Arial,Arial_MSFontService,sans-serif" font-weight="400" font-size="46" transform="matrix(1 0 0 1 1526.35 2632)">ledarskap</text><text font-family="Arial,Arial_MSFontService,sans-serif" font-weight="400" font-size="46" transform="matrix(1 0 0 1 615.412 2687)">Källa: </text><text font-family="Arial,Arial_MSFontService,sans-serif" font-weight="400" font-size="46" transform="matrix(1 0 0 1 742.027 2687)">S. Canbäck (Tellusant) </text><text font-family="Arial,Arial_MSFontService,sans-serif" font-weight="400" font-size="46" transform="matrix(1 0 0 1 1218.69 2687)">analys</text><text font-family="Arial,Arial_MSFontService,sans-serif" font-weight="400" font-size="46" transform="matrix(1 0 0 1 1363.07 2687)">; </text><text font-family="Arial,Arial_MSFontService,sans-serif" font-weight="400" font-size="46" transform="matrix(1 0 0 1 1388.28 2687)">TelluBase</text><path d="M1089.5 1485.5 1089.5 2391.9" stroke="#C15F8C" stroke-width="1.14583" stroke-miterlimit="8" stroke-dasharray="9.16667 3.4375" fill="none" fill-rule="evenodd"/></g></svg>