<svg width="2113" height="435" xmlns="http://www.w3.org/2000/svg" xmlns:xlink="http://www.w3.org/1999/xlink" xml:space="preserve" overflow="hidden"><g transform="translate(-145 -619)"><rect x="409" y="619" width="264" height="264" fill="#006AA7"/><rect x="1465" y="619" width="264" height="264" fill="#FECC02"/><rect x="673" y="619" width="264" height="264" fill="#3C9ED9"/><rect x="1993" y="619" width="264" height="264" fill="#C84C65"/><rect x="1201" y="619" width="264" height="264" fill="#9CCB47"/><rect x="145" y="619" width="264" height="264" fill="#B96AD6"/><rect x="937" y="619" width="264" height="264" fill="#4A9B45"/><rect x="1729" y="619" width="264" height="264" fill="#F08A5A"/><text font-family="Arial,Arial_MSFontService,sans-serif" font-weight="400" font-size="50" transform="matrix(1 0 0 1 1013.21 951)">Gran</text><text font-family="Arial,Arial_MSFontService,sans-serif" font-weight="400" font-size="50" transform="matrix(1 0 0 1 956.489 1012)">#BD77DA</text><text font-family="Arial,Arial_MSFontService,sans-serif" font-weight="400" font-size="50" transform="matrix(1 0 0 1 237.547 951)">Lila</text><text font-family="Aptos,Aptos_MSFontService,sans-serif" font-weight="400" font-size="50" transform="matrix(1 0 0 1 175.947 1009)">#B96AD6</text><text font-family="Arial,Arial_MSFontService,sans-serif" font-weight="400" font-size="50" transform="matrix(1 0 0 1 443.958 951)">Flaggblå</text><text font-family="Aptos,Aptos_MSFontService,sans-serif" font-weight="400" font-size="50" transform="matrix(1 0 0 1 443.958 1009)">#006AA7</text><text font-family="Arial,Arial_MSFontService,sans-serif" font-weight="400" font-size="50" transform="matrix(1 0 0 1 760.082 951)">Hav</text><text font-family="Aptos,Aptos_MSFontService,sans-serif" font-weight="400" font-size="50" transform="matrix(1 0 0 1 702.515 1009)">#3C9ED9</text><text font-family="Arial,Arial_MSFontService,sans-serif" font-weight="400" font-size="50" transform="matrix(1 0 0 1 2049.16 951)">Lingon</text><text font-family="Aptos,Aptos_MSFontService,sans-serif" font-weight="400" font-size="50" transform="matrix(1 0 0 1 2022.8 1009)">#C84C65</text><text font-family="Arial,Arial_MSFontService,sans-serif" font-weight="400" font-size="50" transform="matrix(1 0 0 1 1764.24 951)">Rönnbär</text><text font-family="Aptos,Aptos_MSFontService,sans-serif" font-weight="400" font-size="50" transform="matrix(1 0 0 1 1764.24 1009)">#F08A5A</text><text font-family="Arial,Arial_MSFontService,sans-serif" font-weight="400" font-size="50" transform="matrix(1 0 0 1 1275.49 951)">Björk</text><text font-family="Aptos,Aptos_MSFontService,sans-serif" font-weight="400" font-size="50" transform="matrix(1 0 0 1 1229.08 1009)">#9CCB47</text><text font-family="Arial,Arial_MSFontService,sans-serif" font-weight="400" font-size="50" transform="matrix(1 0 0 1 1513.99 951)">Flaggul</text><text font-family="Aptos,Aptos_MSFontService,sans-serif" font-weight="400" font-size="50" transform="matrix(1 0 0 1 1494.51 1009)">#FECC02</text></g></svg>