<svg width="1315" height="1506" xmlns="http://www.w3.org/2000/svg" xmlns:xlink="http://www.w3.org/1999/xlink" xml:space="preserve" overflow="hidden"><defs><clipPath id="clip0"><rect x="580" y="1219" width="1315" height="1506"/></clipPath><clipPath id="clip1"><rect x="1008" y="1445" width="844" height="999"/></clipPath></defs><g clip-path="url(#clip0)" transform="translate(-580 -1219)"><rect x="580" y="1219" width="1315" height="1245" fill="#FFFFFF"/><g clip-path="url(#clip1)"><path d="M1290.04 2423.08 1008 2423.08 1008 2381.08 1290.04 2381.08ZM1336.04 2347.08 1008 2347.08 1008 2304.08 1336.04 2304.08ZM1405.05 2270.07 1008 2270.07 1008 2228.07 1405.05 2228.07ZM1589.05 2194.07 1008 2194.07 1008 2151.07 1589.05 2151.07ZM1745.06 2117.07 1008 2117.07 1008 2075.07 1745.06 2075.07ZM1262.04 1964.06 1008 1964.06 1008 1922.06 1262.04 1922.06ZM1415.05 1888.06 1008 1888.06 1008 1845.06 1415.05 1845.06ZM1192.04 1811.06 1008 1811.06 1008 1769.06 1192.04 1769.06ZM1126.04 1735.06 1008 1735.06 1008 1692.06 1126.04 1692.06ZM1232.04 1658.05 1008 1658.05 1008 1616.05 1232.04 1616.05ZM1308.04 1582.05 1008 1582.05 1008 1539.05 1308.04 1539.05ZM1062.03 1505.05 1008 1505.05 1008 1463.05 1062.03 1463.05Z" fill="#C15F8C"/></g><g><path d="M0 0 0.000360892 995" stroke="#D9D9D9" stroke-width="3.4375" stroke-linejoin="round" stroke-miterlimit="10" fill="none" fill-rule="evenodd" transform="matrix(1 0 0 -1 1008.5 2440.5)"/></g><g><text fill="#404040" font-family="Arial,Arial_MSFontService,sans-serif" font-weight="400" font-size="50" transform="matrix(1 0 0 1 1317.85 2420)">0.8%</text></g><g><text fill="#404040" font-family="Arial,Arial_MSFontService,sans-serif" font-weight="400" font-size="50" transform="matrix(1 0 0 1 1364.03 2344)">1.0%</text></g><g><text fill="#404040" font-family="Arial,Arial_MSFontService,sans-serif" font-weight="400" font-size="50" transform="matrix(1 0 0 1 1432.58 2267)">1.2%</text></g><g><text fill="#404040" font-family="Arial,Arial_MSFontService,sans-serif" font-weight="400" font-size="50" transform="matrix(1 0 0 1 1616.09 2191)">1.7%</text></g><g><text fill="#404040" font-family="Arial,Arial_MSFontService,sans-serif" font-weight="400" font-size="50" transform="matrix(1 0 0 1 1766.3 2114)">2.2%</text></g><g><text fill="#404040" font-family="Arial,Arial_MSFontService,sans-serif" font-weight="400" font-size="50" transform="matrix(1 0 0 1 1289.39 1961)">0.8%</text></g><g><text fill="#404040" font-family="Arial,Arial_MSFontService,sans-serif" font-weight="400" font-size="50" transform="matrix(1 0 0 1 1442.8 1885)">1.2%</text></g><g><text fill="#404040" font-family="Arial,Arial_MSFontService,sans-serif" font-weight="400" font-size="50" transform="matrix(1 0 0 1 1219.42 1808)">0.5%</text></g><g><text fill="#404040" font-family="Arial,Arial_MSFontService,sans-serif" font-weight="400" font-size="50" transform="matrix(1 0 0 1 1153.82 1732)">0.4%</text></g><g><text fill="#404040" font-family="Arial,Arial_MSFontService,sans-serif" font-weight="400" font-size="50" transform="matrix(1 0 0 1 1260.03 1655)">0.7%</text></g><g><text fill="#404040" font-family="Arial,Arial_MSFontService,sans-serif" font-weight="400" font-size="50" transform="matrix(1 0 0 1 1335.23 1579)">0.9%</text></g><g><text fill="#404040" font-family="Arial,Arial_MSFontService,sans-serif" font-weight="400" font-size="50" transform="matrix(1 0 0 1 1089.76 1502)">0.2%</text></g><g><text font-family="Arial,Arial_MSFontService,sans-serif" font-weight="400" font-size="50" transform="matrix(1 0 0 1 841.392 2419)">Japan</text></g><g><text font-family="Arial,Arial_MSFontService,sans-serif" font-weight="400" font-size="50" transform="matrix(1 0 0 1 875.148 2342)">USA</text></g><g><text font-family="Arial,Arial_MSFontService,sans-serif" font-weight="400" font-size="50" transform="matrix(1 0 0 1 908.767 2266)">EU</text></g><g><text font-family="Arial,Arial_MSFontService,sans-serif" font-weight="400" font-size="50" transform="matrix(1 0 0 1 841.392 2189)">Indien</text></g><g><text font-family="Arial,Arial_MSFontService,sans-serif" font-weight="400" font-size="50" transform="matrix(1 0 0 1 877.875 2113)">Kina</text></g><g><text font-family="Arial,Arial_MSFontService,sans-serif" font-weight="400" font-size="50" transform="matrix(1 0 0 1 804.977 1960)">Världen</text></g><g><text font-family="Arial,Arial_MSFontService,sans-serif" font-weight="400" font-size="50" transform="matrix(1 0 0 1 816.184 1883)">Europa</text></g><g><text font-family="Arial,Arial_MSFontService,sans-serif" font-weight="400" font-size="50" transform="matrix(1 0 0 1 712.44 1807)">Nordeuropa</text></g><g><text font-family="Arial,Arial_MSFontService,sans-serif" font-weight="400" font-size="50" transform="matrix(1 0 0 1 664.818 1730)">Storbritannien</text></g><g><text font-family="Arial,Arial_MSFontService,sans-serif" font-weight="400" font-size="50" transform="matrix(1 0 0 1 650.93 1654)">Nordic-Baltic 8</text></g><g><text font-family="Arial,Arial_MSFontService,sans-serif" font-weight="400" font-size="50" transform="matrix(1 0 0 1 774.223 1577)">Danmark</text></g><g><text font-family="Arial,Arial_MSFontService,sans-serif" font-weight="400" font-size="50" transform="matrix(1 0 0 1 807.819 1501)">Sverige</text></g><g><text font-family="Arial,Arial_MSFontService,sans-serif" font-weight="700" font-size="60" transform="matrix(1 0 0 1 749.283 1309)">STRUKTURPRODUKTIVITET (TFP)</text></g><g><text font-family="Arial,Arial_MSFontService,sans-serif" font-weight="400" font-size="55" transform="matrix(1 0 0 1 959.268 1373)">Årlig tillväxt 2015</text></g><g><text font-family="Arial,Arial_MSFontService,sans-serif" font-weight="400" font-size="55" transform="matrix(1 0 0 1 1375.05 1373)">-</text></g><g><text font-family="Arial,Arial_MSFontService,sans-serif" font-weight="400" font-size="55" transform="matrix(1 0 0 1 1393.36 1373)">2025</text></g><text font-family="Arial,Arial_MSFontService,sans-serif" font-weight="400" font-size="46" transform="matrix(1 0 0 1 615.277 2577)">TFP = Solow residual = BNP </text><text font-family="Arial,Arial_MSFontService,sans-serif" font-weight="400" font-size="46" transform="matrix(1 0 0 1 1209.39 2577)">bidrag</text><text font-family="Arial,Arial_MSFontService,sans-serif" font-weight="400" font-size="46" transform="matrix(1 0 0 1 1348.61 2577)">utöver</text><text font-family="Arial,Arial_MSFontService,sans-serif" font-weight="400" font-size="46" transform="matrix(1 0 0 1 1487.83 2577)">arbete</text><text font-family="Arial,Arial_MSFontService,sans-serif" font-weight="400" font-size="46" transform="matrix(1 0 0 1 1629.34 2577)">och </text><text font-family="Arial,Arial_MSFontService,sans-serif" font-weight="400" font-size="46" transform="matrix(1 0 0 1 1715.28 2577)">kapital</text><text font-family="Arial,Arial_MSFontService,sans-serif" font-weight="400" font-size="46" transform="matrix(1 0 0 1 615.277 2632)">t ex </text><text font-family="Arial,Arial_MSFontService,sans-serif" font-weight="400" font-size="46" transform="matrix(1 0 0 1 701.215 2632)">bättre</text><text font-family="Arial,Arial_MSFontService,sans-serif" font-weight="400" font-size="46" transform="matrix(1 0 0 1 830.121 2632)">utbildning</text><text font-family="Arial,Arial_MSFontService,sans-serif" font-weight="400" font-size="46" transform="matrix(1 0 0 1 1024.91 2632)">; </text><text font-family="Arial,Arial_MSFontService,sans-serif" font-weight="400" font-size="46" transform="matrix(1 0 0 1 1050.12 2632)">teknikutveckling</text><text font-family="Arial,Arial_MSFontService,sans-serif" font-weight="400" font-size="46" transform="matrix(1 0 0 1 1372.1 2632)">; </text><text font-family="Arial,Arial_MSFontService,sans-serif" font-weight="400" font-size="46" transform="matrix(1 0 0 1 1397.31 2632)">bättre</text><text font-family="Arial,Arial_MSFontService,sans-serif" font-weight="400" font-size="46" transform="matrix(1 0 0 1 1526.21 2632)">ledarskap</text><text font-family="Arial,Arial_MSFontService,sans-serif" font-weight="400" font-size="46" transform="matrix(1 0 0 1 615.277 2687)">Källa: TelluBase; S. Canbäck (Tellusant) </text><text font-family="Arial,Arial_MSFontService,sans-serif" font-weight="400" font-size="46" transform="matrix(1 0 0 1 1446.58 2687)">analys</text><path d="M1060.5 1485.5 1060.5 2391.9" stroke="#C15F8C" stroke-width="1.14583" stroke-miterlimit="8" stroke-dasharray="9.16667 3.4375" fill="none" fill-rule="evenodd"/></g></svg>