<svg width="1362" height="1200" xmlns="http://www.w3.org/2000/svg" xmlns:xlink="http://www.w3.org/1999/xlink" xml:space="preserve" overflow="hidden"><defs><clipPath id="clip0"><rect x="803" y="2427" width="1362" height="1200"/></clipPath></defs><g clip-path="url(#clip0)" transform="translate(-803 -2427)"><rect x="803" y="2427" width="1362" height="990" fill="#FFFFFF"/><g><path d="M1363.04 3354.11 1176 3354.11 1176 3320.11 1363.04 3320.11ZM1470.05 3294.11 1176 3294.11 1176 3261.11 1470.05 3261.11ZM1484.05 3234.11 1176 3234.11 1176 3201.1 1484.05 3201.1ZM1862.06 3175.1 1176 3175.1 1176 3141.1 1862.06 3141.1ZM1998.07 3115.1 1176 3115.1 1176 3082.1 1998.07 3082.1ZM1415.05 2995.1 1176 2995.1 1176 2962.1 1415.05 2962.1ZM1489.05 2936.1 1176 2936.1 1176 2903.1 1489.05 2903.1ZM1344.04 2876.09 1176 2876.09 1176 2843.09 1344.04 2843.09ZM1269.04 2816.09 1176 2816.09 1176 2783.09 1269.04 2783.09ZM1419.05 2757.09 1176 2757.09 1176 2724.09 1419.05 2724.09ZM1195.04 2697.09 1176 2697.09 1176 2664.09 1195.04 2664.09Z" fill="#C15F8C"/></g><g><path d="M0 0 0.000360892 716" stroke="#D9D9D9" stroke-width="3.4375" stroke-linejoin="round" stroke-miterlimit="10" fill="none" fill-rule="evenodd" transform="matrix(1 0 0 -1 1176.5 3366.5)"/></g><g><text font-family="Arial,Arial_MSFontService,sans-serif" font-weight="400" font-size="50" transform="matrix(1 0 0 1 1390.49 3355)">0.8%</text></g><g><text font-family="Arial,Arial_MSFontService,sans-serif" font-weight="400" font-size="50" transform="matrix(1 0 0 1 1497.53 3295)">1.3%</text></g><g><text font-family="Arial,Arial_MSFontService,sans-serif" font-weight="400" font-size="50" transform="matrix(1 0 0 1 1511.72 3236)">1.3%</text></g><g><text font-family="Arial,Arial_MSFontService,sans-serif" font-weight="400" font-size="50" transform="matrix(1 0 0 1 1889.97 3176)">2.9%</text></g><g><text font-family="Arial,Arial_MSFontService,sans-serif" font-weight="400" font-size="50" transform="matrix(1 0 0 1 2026.04 3116)">3.5%</text></g><g><text font-family="Arial,Arial_MSFontService,sans-serif" font-weight="400" font-size="50" transform="matrix(1 0 0 1 1443.03 2997)">1.0%</text></g><g><text font-family="Arial,Arial_MSFontService,sans-serif" font-weight="400" font-size="50" transform="matrix(1 0 0 1 1516.14 2937)">1.3%</text></g><g><text font-family="Arial,Arial_MSFontService,sans-serif" font-weight="400" font-size="50" transform="matrix(1 0 0 1 1371.75 2878)">0.7%</text></g><g><text font-family="Arial,Arial_MSFontService,sans-serif" font-weight="400" font-size="50" transform="matrix(1 0 0 1 1296.99 2818)">0.4%</text></g><g><text font-family="Arial,Arial_MSFontService,sans-serif" font-weight="400" font-size="50" transform="matrix(1 0 0 1 1446.42 2758)">1.0%</text></g><g><text font-family="Arial,Arial_MSFontService,sans-serif" font-weight="400" font-size="50" transform="matrix(1 0 0 1 1222.06 2699)">0.1%</text></g><g><text fill="#595959" font-family="Arial,Arial_MSFontService,sans-serif" font-weight="400" font-size="50" transform="matrix(1 0 0 1 1009.66 3353)">Japan</text></g><g><text fill="#595959" font-family="Arial,Arial_MSFontService,sans-serif" font-weight="400" font-size="50" transform="matrix(1 0 0 1 1077.03 3294)">EU</text></g><g><text fill="#595959" font-family="Arial,Arial_MSFontService,sans-serif" font-weight="400" font-size="50" transform="matrix(1 0 0 1 1043.41 3234)">USA</text></g><g><text fill="#595959" font-family="Arial,Arial_MSFontService,sans-serif" font-weight="400" font-size="50" transform="matrix(1 0 0 1 1009.65 3174)">Indien</text></g><g><text fill="#595959" font-family="Arial,Arial_MSFontService,sans-serif" font-weight="400" font-size="50" transform="matrix(1 0 0 1 1046.14 3115)">Kina</text></g><g><text fill="#595959" font-family="Arial,Arial_MSFontService,sans-serif" font-weight="400" font-size="50" transform="matrix(1 0 0 1 973.24 2995)">Världen</text></g><g><text fill="#595959" font-family="Arial,Arial_MSFontService,sans-serif" font-weight="400" font-size="50" transform="matrix(1 0 0 1 984.447 2936)">Europa</text></g><g><text fill="#595959" font-family="Arial,Arial_MSFontService,sans-serif" font-weight="400" font-size="50" transform="matrix(1 0 0 1 880.703 2876)">Nordeuropa</text></g><g><text fill="#595959" font-family="Arial,Arial_MSFontService,sans-serif" font-weight="400" font-size="50" transform="matrix(1 0 0 1 833.081 2816)">Storbritannien</text></g><g><text fill="#595959" font-family="Arial,Arial_MSFontService,sans-serif" font-weight="400" font-size="50" transform="matrix(1 0 0 1 942.486 2757)">Danmark</text></g><g><text fill="#595959" font-family="Arial,Arial_MSFontService,sans-serif" font-weight="400" font-size="50" transform="matrix(1 0 0 1 976.082 2697)">Sverige</text></g><g><text font-family="Arial,Arial_MSFontService,sans-serif" font-weight="700" font-size="60" transform="matrix(1 0 0 1 1017.85 2518)">TOTAL FAKTORPRODUKTIVITET</text></g><g><text font-family="Arial,Arial_MSFontService,sans-serif" font-weight="400" font-size="55" transform="matrix(1 0 0 1 1205.81 2582)">Årlig</text></g><g><text font-family="Arial,Arial_MSFontService,sans-serif" font-weight="400" font-size="55" transform="matrix(1 0 0 1 1331.12 2582)">tillväxt</text></g><g><text font-family="Arial,Arial_MSFontService,sans-serif" font-weight="400" font-size="55" transform="matrix(1 0 0 1 1499.21 2582)">2015</text></g><g><text font-family="Arial,Arial_MSFontService,sans-serif" font-weight="400" font-size="55" transform="matrix(1 0 0 1 1621.59 2582)">-</text></g><g><text font-family="Arial,Arial_MSFontService,sans-serif" font-weight="400" font-size="55" transform="matrix(1 0 0 1 1639.9 2582)">2025</text></g><text font-family="Arial,Arial_MSFontService,sans-serif" font-weight="400" font-size="46" transform="matrix(1 0 0 1 861.81 3479)">TFP = Solow residual = BNP </text><text font-family="Arial,Arial_MSFontService,sans-serif" font-weight="400" font-size="46" transform="matrix(1 0 0 1 1455.92 3479)">bidrag</text><text font-family="Arial,Arial_MSFontService,sans-serif" font-weight="400" font-size="46" transform="matrix(1 0 0 1 1595.14 3479)">utöver</text><text font-family="Arial,Arial_MSFontService,sans-serif" font-weight="400" font-size="46" transform="matrix(1 0 0 1 1734.36 3479)">arbete</text><text font-family="Arial,Arial_MSFontService,sans-serif" font-weight="400" font-size="46" transform="matrix(1 0 0 1 1875.87 3479)">och </text><text font-family="Arial,Arial_MSFontService,sans-serif" font-weight="400" font-size="46" transform="matrix(1 0 0 1 1961.81 3479)">kapital</text><text font-family="Arial,Arial_MSFontService,sans-serif" font-weight="400" font-size="46" transform="matrix(1 0 0 1 861.81 3534)">(t ex </text><text font-family="Arial,Arial_MSFontService,sans-serif" font-weight="400" font-size="46" transform="matrix(1 0 0 1 963.216 3534)">bättre</text><text font-family="Arial,Arial_MSFontService,sans-serif" font-weight="400" font-size="46" transform="matrix(1 0 0 1 1092.12 3534)">utbildning</text><text font-family="Arial,Arial_MSFontService,sans-serif" font-weight="400" font-size="46" transform="matrix(1 0 0 1 1286.91 3534)">; </text><text font-family="Arial,Arial_MSFontService,sans-serif" font-weight="400" font-size="46" transform="matrix(1 0 0 1 1312.12 3534)">teknikutveckling</text><text font-family="Arial,Arial_MSFontService,sans-serif" font-weight="400" font-size="46" transform="matrix(1 0 0 1 1634.1 3534)">; </text><text font-family="Arial,Arial_MSFontService,sans-serif" font-weight="400" font-size="46" transform="matrix(1 0 0 1 1659.31 3534)">bättre</text><text font-family="Arial,Arial_MSFontService,sans-serif" font-weight="400" font-size="46" transform="matrix(1 0 0 1 1788.22 3534)">ledarskap</text><text font-family="Arial,Arial_MSFontService,sans-serif" font-weight="400" font-size="46" transform="matrix(1 0 0 1 861.81 3589)">Källa: TelluBase; S. Canbäck (Tellusant) </text><text font-family="Arial,Arial_MSFontService,sans-serif" font-weight="400" font-size="46" transform="matrix(1 0 0 1 1693.11 3589)">analys</text></g></svg>