<svg width="1789" height="1940" xmlns="http://www.w3.org/2000/svg" xmlns:xlink="http://www.w3.org/1999/xlink" xml:space="preserve" overflow="hidden"><g transform="translate(-1417 -250)"><rect x="1419.5" y="252.5" width="1784" height="1926" stroke="#EAF2F3" stroke-width="4.59488" stroke-miterlimit="8" fill="#EAF2F3"/><rect x="1560.5" y="468.5" width="1483" height="1599" stroke="#FFFFFF" stroke-width="4.59488" stroke-miterlimit="8" fill="#FFFFFF"/><path d="M2295.3 1966.5 2295.3 1966.5 2285.47 1936.78 2271.45 1906.97 2246.73 1877.24 2195.47 1847.43 2122.27 1817.7 2043.27 1787.98 1961.59 1758.17 1892.74 1728.44 1830.39 1698.71 1784.04 1668.91 1741.73 1639.18 1708.54 1609.45 1676.13 1579.65 1646.5 1549.92 1655.53 1520.19 1700.38 1490.39 1750.84 1460.66 1820.48 1430.85 1875.71 1401.12 1950.03 1371.4 2011.35 1341.59 2048.82 1311.86 2093.58 1282.13 2140.41 1252.32 2172.02 1222.6 2201.26 1192.87 2219.8 1163.06 2240.32 1133.33 2257.58 1103.61 2260.04 1073.8 2259.41 1044.07 2260.2 1014.34 2261.63 984.537 2264.08 954.813 2270.66 925.007 2278.58 895.277 2292.13 865.547 2301.24 835.741 2306.24 806.017 2307.5 776.287 2304.97 746.481 2302.51 716.75 2301.32 687.026 2298.15 657.221 2295.93 627.49 2296.33 597.76 2299.42 567.954 2301.32 538.23 2303.07 508.5 2311.94 508.5 2313.68 538.23 2315.58 567.954 2318.67 597.76 2319.07 627.49 2316.85 657.221 2313.68 687.026 2312.49 716.75 2310.04 746.481 2307.5 776.287 2308.77 806.017 2313.76 835.741 2322.87 865.547 2336.42 895.277 2344.34 925.007 2350.92 954.813 2353.38 984.537 2354.8 1014.34 2355.59 1044.07 2354.96 1073.8 2357.42 1103.61 2374.77 1133.33 2395.21 1163.06 2413.74 1192.87 2442.98 1222.6 2474.6 1252.32 2521.42 1282.13 2566.18 1311.86 2603.74 1341.59 2665.06 1371.4 2739.29 1401.12 2794.52 1430.85 2864.24 1460.66 2914.63 1490.39 2959.47 1520.19 2968.5 1549.92 2938.87 1579.65 2906.47 1609.45 2873.27 1639.18 2831.04 1668.91 2784.61 1698.71 2722.34 1728.44 2653.41 1758.17 2571.73 1787.98 2492.73 1817.7 2419.53 1847.43 2368.35 1877.24 2343.55 1906.97 2329.53 1936.78 2319.78 1966.5 2295.3 1966.5Z" stroke="#1A476F" stroke-width="6.89232" stroke-linecap="round" stroke-miterlimit="8" fill="#AFBFCD" fill-rule="evenodd"/><rect x="2252.5" y="1413.5" width="110" height="235" stroke="#1A476F" stroke-width="6.89232" stroke-miterlimit="8" fill="#486C8C"/><rect x="2252.5" y="1413.5" width="110" height="235" stroke="#1A476F" stroke-width="6.89232" stroke-miterlimit="8" fill="#486C8C"/><rect x="2252.5" y="1413.5" width="110" height="235" stroke="#1A476F" stroke-width="6.89232" stroke-miterlimit="8" fill="#486C8C"/><rect x="2252.5" y="1413.5" width="110" height="235" stroke="#1A476F" stroke-width="6.89232" stroke-miterlimit="8" fill="#486C8C"/><rect x="2252.5" y="1413.5" width="110" height="235" stroke="#1A476F" stroke-width="6.89232" stroke-miterlimit="8" fill="#486C8C"/><rect x="2252.5" y="1413.5" width="110" height="235" stroke="#1A476F" stroke-width="6.89232" stroke-miterlimit="8" fill="#486C8C"/><rect x="2252.5" y="1413.5" width="110" height="235" stroke="#1A476F" stroke-width="6.89232" stroke-miterlimit="8" fill="#486C8C"/><rect x="2252.5" y="1413.5" width="110" height="235" stroke="#1A476F" stroke-width="6.89232" stroke-miterlimit="8" fill="#486C8C"/><rect x="2252.5" y="1413.5" width="110" height="235" stroke="#1A476F" stroke-width="6.89232" stroke-miterlimit="8" fill="#486C8C"/><path d="M2293.5 1534.5C2293.5 1526.77 2299.77 1520.5 2307.5 1520.5 2315.23 1520.5 2321.5 1526.77 2321.5 1534.5 2321.5 1542.23 2315.23 1548.5 2307.5 1548.5 2299.77 1548.5 2293.5 1542.23 2293.5 1534.5Z" stroke="#1A476F" stroke-width="6.89232" stroke-miterlimit="8" fill="#FFFFFF" fill-rule="evenodd"/><path d="M2293.5 1534.5C2293.5 1526.77 2299.77 1520.5 2307.5 1520.5 2315.23 1520.5 2321.5 1526.77 2321.5 1534.5 2321.5 1542.23 2315.23 1548.5 2307.5 1548.5 2299.77 1548.5 2293.5 1542.23 2293.5 1534.5Z" stroke="#1A476F" stroke-width="6.89232" stroke-miterlimit="8" fill="#FFFFFF" fill-rule="evenodd"/><path d="M2293.5 1534.5C2293.5 1526.77 2299.77 1520.5 2307.5 1520.5 2315.23 1520.5 2321.5 1526.77 2321.5 1534.5 2321.5 1542.23 2315.23 1548.5 2307.5 1548.5 2299.77 1548.5 2293.5 1542.23 2293.5 1534.5Z" stroke="#1A476F" stroke-width="6.89232" stroke-miterlimit="8" fill="#FFFFFF" fill-rule="evenodd"/><path d="M2293.5 1534.5C2293.5 1526.77 2299.77 1520.5 2307.5 1520.5 2315.23 1520.5 2321.5 1526.77 2321.5 1534.5 2321.5 1542.23 2315.23 1548.5 2307.5 1548.5 2299.77 1548.5 2293.5 1542.23 2293.5 1534.5Z" stroke="#1A476F" stroke-width="6.89232" stroke-miterlimit="8" fill="#FFFFFF" fill-rule="evenodd"/><path d="M2293.5 1534.5C2293.5 1526.77 2299.77 1520.5 2307.5 1520.5 2315.23 1520.5 2321.5 1526.77 2321.5 1534.5 2321.5 1542.23 2315.23 1548.5 2307.5 1548.5 2299.77 1548.5 2293.5 1542.23 2293.5 1534.5Z" stroke="#1A476F" stroke-width="6.89232" stroke-miterlimit="8" fill="#FFFFFF" fill-rule="evenodd"/><path d="M2293.5 1534.5C2293.5 1526.77 2299.77 1520.5 2307.5 1520.5 2315.23 1520.5 2321.5 1526.77 2321.5 1534.5 2321.5 1542.23 2315.23 1548.5 2307.5 1548.5 2299.77 1548.5 2293.5 1542.23 2293.5 1534.5Z" stroke="#1A476F" stroke-width="6.89232" stroke-miterlimit="8" fill="#FFFFFF" fill-rule="evenodd"/><path d="M2293.5 1534.5C2293.5 1526.77 2299.77 1520.5 2307.5 1520.5 2315.23 1520.5 2321.5 1526.77 2321.5 1534.5 2321.5 1542.23 2315.23 1548.5 2307.5 1548.5 2299.77 1548.5 2293.5 1542.23 2293.5 1534.5Z" stroke="#1A476F" stroke-width="6.89232" stroke-miterlimit="8" fill="#FFFFFF" fill-rule="evenodd"/><path d="M2293.5 1534.5C2293.5 1526.77 2299.77 1520.5 2307.5 1520.5 2315.23 1520.5 2321.5 1526.77 2321.5 1534.5 2321.5 1542.23 2315.23 1548.5 2307.5 1548.5 2299.77 1548.5 2293.5 1542.23 2293.5 1534.5Z" stroke="#1A476F" stroke-width="6.89232" stroke-miterlimit="8" fill="#FFFFFF" fill-rule="evenodd"/><path d="M2293.5 1534.5C2293.5 1526.77 2299.77 1520.5 2307.5 1520.5 2315.23 1520.5 2321.5 1526.77 2321.5 1534.5 2321.5 1542.23 2315.23 1548.5 2307.5 1548.5 2299.77 1548.5 2293.5 1542.23 2293.5 1534.5Z" stroke="#1A476F" stroke-width="6.89232" stroke-miterlimit="8" fill="#FFFFFF" fill-rule="evenodd"/><path d="M2307.5 1413.5 2307.5 1064.5" stroke="#1A476F" stroke-width="6.89232" stroke-miterlimit="8" fill="none" fill-rule="evenodd"/><path d="M2307.5 1914.5 2307.5 1648.5" stroke="#1A476F" stroke-width="6.89232" stroke-miterlimit="8" fill="none" fill-rule="evenodd"/><text font-family="Arial,Arial_MSFontService,sans-serif" font-weight="700" font-size="55" transform="matrix(1 0 0 1 2196.39 2143)">Inkomst</text><text font-family="Arial,Arial_MSFontService,sans-serif" font-weight="700" font-size="55" transform="matrix(-1.83697e-16 -1 1 -1.83697e-16 1502.34 1510)">Inkomst</text><text font-family="Arial,Arial_MSFontService,sans-serif" font-weight="700" font-size="55" transform="matrix(-1.83697e-16 -1 1 -1.83697e-16 1502.34 1284)">per capita</text><text font-family="Arial,Arial_MSFontService,sans-serif" font-weight="700" font-size="55" transform="matrix(1 0 0 1 1642.92 347)">GEOGRAFISK INKOMSTDISTRIBUTION I</text><text font-family="Arial,Arial_MSFontService,sans-serif" font-weight="700" font-size="55" transform="matrix(1 0 0 1 2720 347)">SVERIGE</text><text font-family="Arial,Arial_MSFontService,sans-serif" font-weight="400" font-size="55" transform="matrix(1 0 0 1 1851.67 413)">Viktad</text><text font-family="Arial,Arial_MSFontService,sans-serif" font-weight="400" font-size="55" transform="matrix(1 0 0 1 2018.55 413)">e</text><text font-family="Arial,Arial_MSFontService,sans-serif" font-weight="400" font-size="55" transform="matrix(1 0 0 1 2048.91 413)">f</text><text font-family="Arial,Arial_MSFontService,sans-serif" font-weight="400" font-size="55" transform="matrix(1 0 0 1 2064.38 413)">ter</text><text font-family="Arial,Arial_MSFontService,sans-serif" font-weight="400" font-size="55" transform="matrix(1 0 0 1 2144.02 413)">kommunernas</text><text font-family="Arial,Arial_MSFontService,sans-serif" font-weight="400" font-size="55" transform="matrix(1 0 0 1 2506.67 413)">befolkning</text><text font-family="Arial,Arial_MSFontService,sans-serif" font-weight="400" font-size="50" transform="matrix(1 0 0 1 2383.05 572)">Knivsta</text><text font-family="Arial,Arial_MSFontService,sans-serif" font-weight="400" font-size="50" transform="matrix(1 0 0 1 2383.05 1932)">Högsby</text><text font-family="Arial,Arial_MSFontService,sans-serif" font-weight="400" font-size="50" transform="matrix(1 0 0 1 2383.05 1552)">Forshaga</text><text font-family="Arial,Arial_MSFontService,sans-serif" font-weight="400" font-size="50" transform="matrix(1 0 0 1 2383.05 1667)">Ödeshög</text><text font-family="Arial,Arial_MSFontService,sans-serif" font-weight="400" font-size="50" transform="matrix(1 0 0 1 2383.05 1433)">Halmstad</text><text font-family="Arial,Arial_MSFontService,sans-serif" font-weight="400" font-size="50" transform="matrix(1 0 0 1 2383.05 1090)">Storgöteborg</text></g></svg>