<svg width="1411" height="1146" xmlns="http://www.w3.org/2000/svg" xmlns:xlink="http://www.w3.org/1999/xlink" xml:space="preserve" overflow="hidden"><defs><clipPath id="clip0"><rect x="1121" y="5324" width="1411" height="1146"/></clipPath></defs><g clip-path="url(#clip0)" transform="translate(-1121 -5324)"><rect x="1121" y="5324" width="1411" height="1146" fill="#FFFFFF"/><g><rect x="1393.5" y="5485.5" width="1058" height="882" stroke="#BFBFBF" stroke-width="3.4375" stroke-linejoin="round" stroke-miterlimit="10" fill="none"/></g><g><path d="M1414 5692.19 1454.05 5753.19 1495.05 5758.19 1536.05 5763.19 1576.05 5698.19 1617.05 5677.19 1658.05 5642 1698.06 5679.19 1739.06 5826.19 1780.06 5992.2 1820.06 5903.19 1861.06 5907.19 1902.06 5971.2 1943.06 5992.2 1983.07 5990.2 2024.07 5954.2 2065.07 5988.2 2105.07 6029.2 2146.07 6065.2 2187.07 6073.2 2227.07 6210.2 2268.07 6136.2 2309.08 6188.2 2349.08 6245.21 2390.08 6272.21 2431 6306.21 2431 6367 2390.08 6367 2349.08 6367 2309.08 6367 2268.07 6367 2227.07 6367 2187.07 6367 2146.07 6367 2105.07 6367 2065.07 6367 2024.07 6367 1983.07 6367 1943.06 6367 1902.06 6367 1861.06 6367 1820.06 6367 1780.06 6367 1739.06 6367 1698.06 6367 1658.05 6367 1617.05 6367 1576.05 6367 1536.05 6367 1495.05 6367 1454.05 6367 1414 6367Z" fill="#F2F2F2"/></g><g><path d="M0 0 0.000360892 882" stroke="#BFBFBF" stroke-width="3.4375" stroke-linejoin="round" stroke-miterlimit="10" fill="none" fill-rule="evenodd" transform="matrix(1 0 0 -1 1393.5 6367.5)"/></g><g><path d="M1393.5 6367.5 2451.5 6367.5" stroke="#BFBFBF" stroke-width="3.4375" stroke-linejoin="round" stroke-miterlimit="10" fill="none" fill-rule="evenodd"/></g><g><path d="M1413.5 5692.69 1454.55 5753.69 1494.55 5758.69 1535.55 5762.69 1576.55 5698.69 1617.55 5676.69 1657.55 5642.5 1698.56 5679.69 1739.56 5825.69 1779.56 5992.7 1820.56 5902.69 1861.56 5907.69 1901.56 5971.7 1942.56 5991.7 1983.57 5990.7 2023.57 5954.7 2064.57 5988.7 2105.57 6028.7 2146.57 6064.7 2186.57 6072.7 2227.57 6209.7 2268.57 6135.7 2308.58 6187.7 2349.58 6244.71 2390.58 6272.71 2430.5 6306.5" stroke="#5FAF4A" stroke-width="20.625" stroke-linecap="round" stroke-linejoin="round" stroke-miterlimit="10" fill="none"/></g><g><path d="M1413.5 5684.5 1454.55 5727.69 1494.55 5772.69 1535.55 5807.69 1576.55 5793.69 1617.55 5794.69 1657.55 5779.69 1698.56 5792.69 1739.56 5872.69 1779.56 6034.5 1820.56 5990.7 1861.56 5973.7 1901.56 5994.7 1942.56 5991.7 1983.57 5950.7 2023.57 5897.69 2064.57 5867.69 2105.57 5825.69 2146.57 5811.69 2186.57 5812.69 2227.57 6026.7 2268.57 5883.69 2308.58 5842.69 2349.58 5861.69 2390.58 5860.69 2430.5 5861.69" stroke="#006AA7" stroke-width="4.58333" stroke-linecap="round" stroke-linejoin="round" stroke-miterlimit="10" fill="none"/></g><g><path d="M1413.5 5686.5 1454.55 5753.69 1494.55 5795.69 1535.55 5814.69 1576.55 5800.69 1617.55 5803.69 1657.55 5810.69 1698.56 5828.69 1739.56 5901.69 1779.56 6030.7 1820.56 5969.7 1861.56 5957.7 1901.56 5954.7 1942.56 5944.69 1983.57 5923.69 2023.57 5897.69 2064.57 5892.69 2105.57 5873.69 2146.57 5866.69 2186.57 5878.69 2227.57 6052.5 2268.57 5934.69 2308.58 5922.69 2349.58 5927.69 2390.58 5929.69 2430.5 5932.69" stroke="#C00000" stroke-width="4.58333" stroke-linecap="round" stroke-linejoin="round" stroke-miterlimit="10" fill="none"/></g><g><text font-family="Arial,Arial_MSFontService,sans-serif" font-weight="400" font-size="50" transform="matrix(1 0 0 1 1255.7 6384)">40 ¢</text></g><g><text font-family="Arial,Arial_MSFontService,sans-serif" font-weight="400" font-size="50" transform="matrix(1 0 0 1 1255.7 5649)">50 ¢</text></g><g><text font-family="Arial,Arial_MSFontService,sans-serif" font-weight="400" font-size="50" transform="matrix(1 0 0 1 1357.56 6430)">2000</text></g><g><text font-family="Arial,Arial_MSFontService,sans-serif" font-weight="400" font-size="50" transform="matrix(1 0 0 1 1561.01 6430)">2005</text></g><g><text font-family="Arial,Arial_MSFontService,sans-serif" font-weight="400" font-size="50" transform="matrix(1 0 0 1 1764.46 6430)">2010</text></g><g><text font-family="Arial,Arial_MSFontService,sans-serif" font-weight="400" font-size="50" transform="matrix(1 0 0 1 1967.91 6430)">2015</text></g><g><text font-family="Arial,Arial_MSFontService,sans-serif" font-weight="400" font-size="50" transform="matrix(1 0 0 1 2171.35 6430)">2020</text></g><g><text font-family="Arial,Arial_MSFontService,sans-serif" font-weight="400" font-size="50" transform="matrix(1 0 0 1 2374.8 6430)">2025</text></g><g><text fill="#595959" font-family="Arial,Arial_MSFontService,sans-serif" font-weight="700" font-size="55" transform="matrix(6.12323e-17 -1 1 6.12323e-17 1218.66 6417)">BNP skapad av 1 dollar av kapital</text></g><g><text font-family="Arial,Arial_MSFontService,sans-serif" font-weight="700" font-size="60" transform="matrix(1 0 0 1 1560.65 5419)">KAPITALPRODUKTIVITET</text></g><text font-family="Arial,Arial_MSFontService,sans-serif" font-style="italic" font-weight="700" font-size="46" transform="matrix(1 0 0 1 1836.71 5589)">Årlig tillväxt 2015 </text><text font-family="Calibri,Calibri_MSFontService,sans-serif" font-weight="700" font-size="50" transform="matrix(1 0 0 1 2222.9 5589)">–</text><text font-family="Arial,Arial_MSFontService,sans-serif" font-style="italic" font-weight="700" font-size="46" transform="matrix(1 0 0 1 2248.02 5589)">2025</text><text font-family="Arial,Arial_MSFontService,sans-serif" font-style="italic" font-weight="400" font-size="46" transform="matrix(1 0 0 1 1836.71 5651)">Sverige</text><text font-family="Calibri,Calibri_MSFontService,sans-serif" font-style="italic" font-weight="400" font-size="50" transform="matrix(1 0 0 1 2166.71 5651)">−</text><text font-family="Arial,Arial_MSFontService,sans-serif" font-style="italic" font-weight="400" font-size="46" transform="matrix(1 0 0 1 2191.83 5651)">1.1%</text><text font-family="Arial,Arial_MSFontService,sans-serif" font-style="italic" font-weight="400" font-size="46" transform="matrix(1 0 0 1 1836.71 5707)">EU</text><text font-family="Arial,Arial_MSFontService,sans-serif" font-style="italic" font-weight="400" font-size="46" transform="matrix(1 0 0 1 2166.71 5707)">+0.1%</text><g><text font-family="Arial,Arial_MSFontService,sans-serif" font-style="italic" font-weight="400" font-size="46" transform="matrix(1 0 0 1 1836.71 5765)">Världen</text></g><g><text font-family="Calibri,Calibri_MSFontService,sans-serif" font-style="italic" font-weight="400" font-size="50" transform="matrix(1 0 0 1 2166.71 5765)">−</text></g><g><text font-family="Arial,Arial_MSFontService,sans-serif" font-style="italic" font-weight="400" font-size="46" transform="matrix(1 0 0 1 2191.83 5765)">0.5%</text></g></g></svg>