<svg width="1649" height="1552" xmlns="http://www.w3.org/2000/svg" xmlns:xlink="http://www.w3.org/1999/xlink" xml:space="preserve" overflow="hidden"><defs><clipPath id="clip0"><rect x="314" y="2102" width="1649" height="1552"/></clipPath></defs><g clip-path="url(#clip0)" transform="translate(-314 -2102)"><text font-family="Arial,Arial_MSFontService,sans-serif" font-weight="400" font-size="46" transform="matrix(1 0 0 1 557.641 3561)">BNP = </text><text font-family="Arial,Arial_MSFontService,sans-serif" font-weight="400" font-size="46" transform="matrix(1 0 0 1 703.735 3561)">Bruttonationalprodukt</text><text font-family="Arial,Arial_MSFontService,sans-serif" font-weight="400" font-size="46" transform="matrix(1 0 0 1 1136.29 3561)">; AFB = </text><text font-family="Arial,Arial_MSFontService,sans-serif" font-weight="400" font-size="46" transform="matrix(1 0 0 1 1302.43 3561)">Arbetsför</text><text font-family="Arial,Arial_MSFontService,sans-serif" font-weight="400" font-size="46" transform="matrix(1 0 0 1 1500.09 3561)">befolkning</text><text font-family="Arial,Arial_MSFontService,sans-serif" font-weight="400" font-size="46" transform="matrix(1 0 0 1 557.641 3616)">Källa: TelluBase; S. Canbäck (Tellusant) </text><text font-family="Arial,Arial_MSFontService,sans-serif" font-weight="400" font-size="46" transform="matrix(1 0 0 1 1388.94 3616)">tabulering</text><rect x="314" y="2102" width="1649" height="1398" fill="#FFFFFF"/><g><path d="M0 0 0.000360892 1121" stroke="#D9D9D9" stroke-width="3.4375" stroke-linejoin="round" stroke-miterlimit="10" fill="none" fill-rule="evenodd" transform="matrix(1 0 0 -1 905.5 3447.5)"/></g><g><path d="M1118 3415 905 3415" stroke="#BFBFBF" stroke-width="10.3125" stroke-linejoin="round" stroke-miterlimit="10" fill="none"/></g><g><path d="M1229 3349 905 3349" stroke="#BFBFBF" stroke-width="10.3125" stroke-linejoin="round" stroke-miterlimit="10" fill="none"/></g><g><path d="M1252 3283 905 3283" stroke="#BFBFBF" stroke-width="10.3125" stroke-linejoin="round" stroke-miterlimit="10" fill="none"/></g><g><path d="M1522 3217 905 3217" stroke="#BFBFBF" stroke-width="10.3125" stroke-linejoin="round" stroke-miterlimit="10" fill="none"/></g><g><path d="M1721 3151 905 3151" stroke="#BFBFBF" stroke-width="10.3125" stroke-linejoin="round" stroke-miterlimit="10" fill="none"/></g><g><path d="M1216 3019 905 3019" stroke="#BFBFBF" stroke-width="10.3125" stroke-linejoin="round" stroke-miterlimit="10" fill="none"/></g><g><path d="M1349 2953 905 2953" stroke="#BFBFBF" stroke-width="10.3125" stroke-linejoin="round" stroke-miterlimit="10" fill="none"/></g><g><path d="M1180 2887 905 2887" stroke="#BFBFBF" stroke-width="10.3125" stroke-linejoin="round" stroke-miterlimit="10" fill="none"/></g><g><path d="M1212 2821 905 2821" stroke="#BFBFBF" stroke-width="10.3125" stroke-linejoin="round" stroke-miterlimit="10" fill="none"/></g><g><path d="M1251 2689 905 2689" stroke="#BFBFBF" stroke-width="10.3125" stroke-linejoin="round" stroke-miterlimit="10" fill="none"/></g><g><path d="M1157 2623 905 2623" stroke="#BFBFBF" stroke-width="10.3125" stroke-linejoin="round" stroke-miterlimit="10" fill="none"/></g><g><path d="M1091 2557 905 2557" stroke="#BFBFBF" stroke-width="10.3125" stroke-linejoin="round" stroke-miterlimit="10" fill="none"/></g><g><path d="M1153 2491 905 2491" stroke="#BFBFBF" stroke-width="10.3125" stroke-linejoin="round" stroke-miterlimit="10" fill="none"/></g><g><path d="M1196 2425 905 2425" stroke="#BFBFBF" stroke-width="10.3125" stroke-linejoin="round" stroke-miterlimit="10" fill="none"/></g><g><path d="M1064 2359 905 2359" stroke="#BFBFBF" stroke-width="10.3125" stroke-linejoin="round" stroke-miterlimit="10" fill="none"/></g><g><path d="M1129 3414.33C1129 3420.4 1124.07 3425.33 1118 3425.33 1111.92 3425.33 1107 3420.4 1107 3414.33 1107 3408.25 1111.92 3403.33 1118 3403.33 1124.07 3403.33 1129 3408.25 1129 3414.33Z" stroke="#006AA7" stroke-width="22.9167" stroke-linejoin="round" stroke-miterlimit="10" fill="#006AA7"/><path d="M1240 3348.33C1240 3354.4 1235.07 3359.33 1229 3359.33 1222.92 3359.33 1218 3354.4 1218 3348.33 1218 3342.25 1222.92 3337.33 1229 3337.33 1235.07 3337.33 1240 3342.25 1240 3348.33Z" stroke="#006AA7" stroke-width="22.9167" stroke-linejoin="round" stroke-miterlimit="10" fill="#006AA7"/><path d="M1264 3282.33C1264 3288.4 1259.07 3293.33 1253 3293.33 1246.92 3293.33 1242 3288.4 1242 3282.33 1242 3276.25 1246.92 3271.33 1253 3271.33 1259.07 3271.33 1264 3276.25 1264 3282.33Z" stroke="#006AA7" stroke-width="22.9167" stroke-linejoin="round" stroke-miterlimit="10" fill="#006AA7"/><path d="M1534 3216.33C1534 3222.4 1529.07 3227.33 1523 3227.33 1516.92 3227.33 1512 3222.4 1512 3216.33 1512 3210.25 1516.92 3205.33 1523 3205.33 1529.07 3205.33 1534 3210.25 1534 3216.33Z" stroke="#006AA7" stroke-width="22.9167" stroke-linejoin="round" stroke-miterlimit="10" fill="#006AA7"/><path d="M1733 3150.33C1733 3156.4 1728.07 3161.33 1722 3161.33 1715.92 3161.33 1711 3156.4 1711 3150.33 1711 3144.25 1715.92 3139.33 1722 3139.33 1728.07 3139.33 1733 3144.25 1733 3150.33Z" stroke="#006AA7" stroke-width="22.9167" stroke-linejoin="round" stroke-miterlimit="10" fill="#006AA7"/><path d="M1227 3018.33C1227 3024.4 1222.07 3029.33 1216 3029.33 1209.92 3029.33 1205 3024.4 1205 3018.33 1205 3012.25 1209.92 3007.33 1216 3007.33 1222.07 3007.33 1227 3012.25 1227 3018.33Z" stroke="#006AA7" stroke-width="22.9167" stroke-linejoin="round" stroke-miterlimit="10" fill="#006AA7"/><path d="M1360 2953.33C1360 2959.4 1355.07 2964.33 1349 2964.33 1342.92 2964.33 1338 2959.4 1338 2953.33 1338 2947.25 1342.92 2942.33 1349 2942.33 1355.07 2942.33 1360 2947.25 1360 2953.33Z" stroke="#006AA7" stroke-width="22.9167" stroke-linejoin="round" stroke-miterlimit="10" fill="#006AA7"/><path d="M1192 2887.33C1192 2893.4 1187.07 2898.33 1181 2898.33 1174.92 2898.33 1170 2893.4 1170 2887.33 1170 2881.25 1174.92 2876.33 1181 2876.33 1187.07 2876.33 1192 2881.25 1192 2887.33Z" stroke="#006AA7" stroke-width="22.9167" stroke-linejoin="round" stroke-miterlimit="10" fill="#006AA7"/><path d="M1223 2821.33C1223 2827.4 1218.07 2832.33 1212 2832.33 1205.92 2832.33 1201 2827.4 1201 2821.33 1201 2815.25 1205.92 2810.33 1212 2810.33 1218.07 2810.33 1223 2815.25 1223 2821.33Z" stroke="#006AA7" stroke-width="22.9167" stroke-linejoin="round" stroke-miterlimit="10" fill="#006AA7"/><path d="M1263 2689.33C1263 2695.4 1258.07 2700.33 1252 2700.33 1245.92 2700.33 1241 2695.4 1241 2689.33 1241 2683.25 1245.92 2678.33 1252 2678.33 1258.07 2678.33 1263 2683.25 1263 2689.33Z" stroke="#006AA7" stroke-width="22.9167" stroke-linejoin="round" stroke-miterlimit="10" fill="#006AA7"/><path d="M1169 2623.33C1169 2629.4 1164.07 2634.33 1158 2634.33 1151.92 2634.33 1147 2629.4 1147 2623.33 1147 2617.25 1151.92 2612.33 1158 2612.33 1164.07 2612.33 1169 2617.25 1169 2623.33Z" stroke="#006AA7" stroke-width="22.9167" stroke-linejoin="round" stroke-miterlimit="10" fill="#006AA7"/><path d="M1103 2557.33C1103 2563.4 1098.07 2568.33 1092 2568.33 1085.92 2568.33 1081 2563.4 1081 2557.33 1081 2551.25 1085.92 2546.33 1092 2546.33 1098.07 2546.33 1103 2551.25 1103 2557.33Z" stroke="#006AA7" stroke-width="22.9167" stroke-linejoin="round" stroke-miterlimit="10" fill="#006AA7"/><path d="M1165 2491.33C1165 2497.4 1160.07 2502.33 1154 2502.33 1147.92 2502.33 1143 2497.4 1143 2491.33 1143 2485.25 1147.92 2480.33 1154 2480.33 1160.07 2480.33 1165 2485.25 1165 2491.33Z" stroke="#006AA7" stroke-width="22.9167" stroke-linejoin="round" stroke-miterlimit="10" fill="#006AA7"/><path d="M1207 2425.33C1207 2431.4 1202.07 2436.33 1196 2436.33 1189.92 2436.33 1185 2431.4 1185 2425.33 1185 2419.25 1189.92 2414.33 1196 2414.33 1202.07 2414.33 1207 2419.25 1207 2425.33Z" stroke="#006AA7" stroke-width="22.9167" stroke-linejoin="round" stroke-miterlimit="10" fill="#006AA7"/></g><g><path d="M1074 2359C1074 2365.07 1069.08 2370 1063 2370 1056.93 2370 1052 2365.07 1052 2359 1052 2352.92 1056.93 2348 1063 2348 1069.08 2348 1074 2352.92 1074 2359Z" stroke="#006AA7" stroke-width="22.9167" stroke-linejoin="round" stroke-miterlimit="10" fill="#FECC02"/></g><g><text font-family="Arial,Arial_MSFontService,sans-serif" font-weight="400" font-size="50" transform="matrix(1 0 0 1 1156.48 3433)">1.3%</text></g><g><text font-family="Arial,Arial_MSFontService,sans-serif" font-weight="400" font-size="50" transform="matrix(1 0 0 1 1267.78 3367)">1.9%</text></g><g><text font-family="Arial,Arial_MSFontService,sans-serif" font-weight="400" font-size="50" transform="matrix(1 0 0 1 1291.34 3301)">2.1%</text></g><g><text font-family="Arial,Arial_MSFontService,sans-serif" font-weight="400" font-size="50" transform="matrix(1 0 0 1 1561.19 3235)">3.7%</text></g><g><text font-family="Arial,Arial_MSFontService,sans-serif" font-weight="400" font-size="50" transform="matrix(1 0 0 1 1760.02 3169)">4.9%</text></g><g><text font-family="Arial,Arial_MSFontService,sans-serif" font-weight="400" font-size="50" transform="matrix(1 0 0 1 1254.55 3037)">1.8%</text></g><g><text font-family="Arial,Arial_MSFontService,sans-serif" font-weight="400" font-size="50" transform="matrix(1 0 0 1 1387.73 2971)">2.6%</text></g><g><text font-family="Arial,Arial_MSFontService,sans-serif" font-weight="400" font-size="50" transform="matrix(1 0 0 1 1219.4 2905)">1.6%</text></g><g><text font-family="Arial,Arial_MSFontService,sans-serif" font-weight="400" font-size="50" transform="matrix(1 0 0 1 1250.67 2839)">1.8%</text></g><g><text font-family="Arial,Arial_MSFontService,sans-serif" font-weight="400" font-size="50" transform="matrix(1 0 0 1 1290.32 2707)">2.1%</text></g><g><text font-family="Arial,Arial_MSFontService,sans-serif" font-weight="400" font-size="50" transform="matrix(1 0 0 1 1196.42 2641)">1.5%</text></g><g><text font-family="Arial,Arial_MSFontService,sans-serif" font-weight="400" font-size="50" transform="matrix(1 0 0 1 1130.44 2575)">1.1%</text></g><g><text font-family="Arial,Arial_MSFontService,sans-serif" font-weight="400" font-size="50" transform="matrix(1 0 0 1 1192.18 2509)">1.5%</text></g><g><text font-family="Arial,Arial_MSFontService,sans-serif" font-weight="400" font-size="50" transform="matrix(1 0 0 1 1234.65 2443)">1.7%</text></g><g><text font-family="Arial,Arial_MSFontService,sans-serif" font-weight="400" font-size="50" transform="matrix(1 0 0 1 1102.89 2378)">0.9%</text></g><g><text font-family="Arial,Arial_MSFontService,sans-serif" font-weight="400" font-size="50" transform="matrix(1 0 0 1 724.489 3431)">Japan</text></g><g><text font-family="Arial,Arial_MSFontService,sans-serif" font-weight="400" font-size="50" transform="matrix(1 0 0 1 791.863 3365)">EU</text></g><g><text font-family="Arial,Arial_MSFontService,sans-serif" font-weight="400" font-size="50" transform="matrix(1 0 0 1 758.244 3299)">USA</text></g><g><text font-family="Arial,Arial_MSFontService,sans-serif" font-weight="400" font-size="50" transform="matrix(1 0 0 1 724.488 3233)">Indien</text></g><g><text font-family="Arial,Arial_MSFontService,sans-serif" font-weight="400" font-size="50" transform="matrix(1 0 0 1 760.971 3167)">Kina</text></g><g><text font-family="Arial,Arial_MSFontService,sans-serif" font-weight="400" font-size="50" transform="matrix(1 0 0 1 343.292 3035)">Avancerade ekonomier</text></g><g><text font-family="Arial,Arial_MSFontService,sans-serif" font-weight="400" font-size="50" transform="matrix(1 0 0 1 564.804 2969)">Tillväxtländer</text></g><g><text font-family="Arial,Arial_MSFontService,sans-serif" font-weight="400" font-size="50" transform="matrix(1 0 0 1 553.529 2903)">Fattiga länder</text></g><g><text font-family="Arial,Arial_MSFontService,sans-serif" font-weight="400" font-size="50" transform="matrix(1 0 0 1 688.073 2837)">Världen</text></g><g><text font-family="Arial,Arial_MSFontService,sans-serif" font-weight="400" font-size="50" transform="matrix(1 0 0 1 699.28 2706)">Europa</text></g><g><text font-family="Arial,Arial_MSFontService,sans-serif" font-weight="400" font-size="50" transform="matrix(1 0 0 1 595.536 2640)">Nordeuropa</text></g><g><text font-family="Arial,Arial_MSFontService,sans-serif" font-weight="400" font-size="50" transform="matrix(1 0 0 1 547.914 2574)">Storbritannien</text></g><g><text font-family="Arial,Arial_MSFontService,sans-serif" font-weight="400" font-size="50" transform="matrix(1 0 0 1 534.026 2508)">Nordic-Baltic 8</text></g><g><text font-family="Arial,Arial_MSFontService,sans-serif" font-weight="400" font-size="50" transform="matrix(1 0 0 1 657.319 2442)">Danmark</text></g><g><text font-family="Arial,Arial_MSFontService,sans-serif" font-weight="400" font-size="50" transform="matrix(1 0 0 1 690.915 2376)">Sverige</text></g><g><text font-family="Arial,Arial_MSFontService,sans-serif" font-weight="700" font-size="60" transform="matrix(1 0 0 1 814.424 2209)">ARBETSPRODUKTIVITET</text></g><g><text font-family="Arial,Arial_MSFontService,sans-serif" font-weight="400" font-size="55" transform="matrix(1 0 0 1 766.276 2273)">Årlig tillväxt 2015</text></g><g><text font-family="Arial,Arial_MSFontService,sans-serif" font-weight="400" font-size="55" transform="matrix(1 0 0 1 1182.05 2273)">-</text></g><g><text font-family="Arial,Arial_MSFontService,sans-serif" font-weight="400" font-size="55" transform="matrix(1 0 0 1 1200.36 2273)">2025 i BNP/AFB</text></g><path d="M1063 2361 1063 3415.17" stroke="#156082" stroke-width="2.29167" stroke-miterlimit="8" stroke-dasharray="18.3333 6.875" fill="none" fill-rule="evenodd"/></g></svg>