<svg width="1471" height="1300" xmlns="http://www.w3.org/2000/svg" xmlns:xlink="http://www.w3.org/1999/xlink" xml:space="preserve" overflow="hidden"><defs><clipPath id="clip0"><rect x="498" y="1236" width="1471" height="1300"/></clipPath></defs><g clip-path="url(#clip0)" transform="translate(-498 -1236)"><text font-family="Arial,Arial_MSFontService,sans-serif" font-weight="400" font-size="46" transform="matrix(1 0 0 1 531.148 2443)">Kapital =</text><path d="M725.285 2403.42 750.049 2403.42 750.049 2406.83 730.27 2406.83 742.422 2422.96 729.429 2440.07 750.249 2440.07 750.249 2443.42 724.945 2443.42 724.945 2439.53 737.357 2423.13 725.285 2407.06Z"/><text fill="#000000" fill-opacity="0" font-family="Arial,Arial_MSFontService,sans-serif" font-size="40" x="724.945" y="2438.42">∑ </text><text font-family="Arial,Arial_MSFontService,sans-serif" font-weight="400" font-size="46" transform="matrix(1 0 0 1 763.179 2443)">Årlig</text><text font-family="Arial,Arial_MSFontService,sans-serif" font-weight="400" font-size="46" transform="matrix(1 0 0 1 867.45 2443)">fast</text><text font-family="Arial,Arial_MSFontService,sans-serif" font-weight="400" font-size="46" transform="matrix(1 0 0 1 953.388 2443)">&amp; </text><text font-family="Arial,Arial_MSFontService,sans-serif" font-weight="400" font-size="46" transform="matrix(1 0 0 1 996.356 2443)">FoU</text><text font-family="Arial,Arial_MSFontService,sans-serif" font-weight="400" font-size="46" transform="matrix(1 0 0 1 1095.47 2443)">kapitalinvestering</text><text font-family="Arial,Arial_MSFontService,sans-serif" font-weight="400" font-size="46" transform="matrix(1 0 0 1 1460.42 2443)">avskriven</text><text font-family="Arial,Arial_MSFontService,sans-serif" font-weight="400" font-size="46" transform="matrix(1 0 0 1 1666.1 2443)">över</text><text font-family="Arial,Arial_MSFontService,sans-serif" font-weight="400" font-size="46" transform="matrix(1 0 0 1 1767.5 2443)">20 </text><text font-family="Arial,Arial_MSFontService,sans-serif" font-weight="400" font-size="46" transform="matrix(1 0 0 1 1830.52 2443)">/ 7 </text><text font-family="Arial,Arial_MSFontService,sans-serif" font-weight="400" font-size="46" transform="matrix(1 0 0 1 1893.54 2443)">år</text><text font-family="Arial,Arial_MSFontService,sans-serif" font-weight="400" font-size="46" transform="matrix(1 0 0 1 531.148 2498)">Källa: TelluBase; S. Canbäck (Tellusant) </text><text font-family="Arial,Arial_MSFontService,sans-serif" font-weight="400" font-size="46" transform="matrix(1 0 0 1 1362.45 2498)">analys</text><rect x="505" y="1236" width="1457" height="1146" fill="#FFFFFF"/><g><rect x="776.5" y="1397.5" width="1106" height="881" stroke="#BFBFBF" stroke-width="3.4375" stroke-linejoin="round" stroke-miterlimit="10" fill="none"/></g><g><path d="M798 1604.05 840.028 1665.05 883.029 1670.05 926.03 1674.05 968.032 1610.05 1011.03 1588.05 1053.03 1554 1096.04 1591.05 1138.04 1737.06 1181.04 1904.06 1223.04 1814.06 1266.04 1819.06 1308.04 1883.06 1351.04 1903.06 1394.05 1902.06 1436.05 1866.06 1479.05 1900.06 1521.05 1941.06 1564.05 1977.06 1606.05 1985.07 1649.05 2121.07 1691.06 2048.07 1734.06 2099.07 1776.06 2156.07 1819.06 2184.07 1862 2218.07 1862 2279 1819.06 2279 1776.06 2279 1734.06 2279 1691.06 2279 1649.05 2279 1606.05 2279 1564.05 2279 1521.05 2279 1479.05 2279 1436.05 2279 1394.05 2279 1351.04 2279 1308.04 2279 1266.04 2279 1223.04 2279 1181.04 2279 1138.04 2279 1096.04 2279 1053.03 2279 1011.03 2279 968.032 2279 926.03 2279 883.029 2279 840.028 2279 798 2279Z" fill="#F2F2F2"/></g><g><path d="M0 0 0.000360892 881" stroke="#BFBFBF" stroke-width="3.4375" stroke-linejoin="round" stroke-miterlimit="10" fill="none" fill-rule="evenodd" transform="matrix(1 0 0 -1 776.5 2278.5)"/></g><g><path d="M776.5 2278.5 1882.5 2278.5" stroke="#BFBFBF" stroke-width="3.4375" stroke-linejoin="round" stroke-miterlimit="10" fill="none" fill-rule="evenodd"/></g><g><path d="M798 1604.05 840.028 1665.05 883.029 1670.05 926.03 1674.05 968.032 1610.05 1011.03 1588.05 1053.03 1554 1096.04 1591.05 1138.04 1737.06 1181.04 1904.06 1223.04 1814.06 1266.04 1819.06 1308.04 1883.06 1351.04 1903.06 1394.05 1902.06 1436.05 1866.06 1479.05 1900.06 1521.05 1941.06 1564.05 1977.06 1606.05 1985.07 1649.05 2121.07 1691.06 2048.07 1734.06 2099.07 1776.06 2156.07 1819.06 2184.07 1862 2218" stroke="#5FAF4A" stroke-width="10.3125" stroke-linecap="round" stroke-linejoin="round" stroke-miterlimit="10" fill="none"/></g><g><path d="M797.5 1596.5 840.528 1638.55 883.529 1684.56 925.531 1718.56 968.532 1704.56 1010.53 1706.56 1053.53 1690.56 1095.54 1703.56 1138.54 1783.56 1180.54 1945.5 1223.54 1901.56 1265.54 1885.56 1308.54 1906.56 1351.54 1903.56 1393.55 1862.56 1436.55 1809.56 1478.55 1779.56 1521.55 1737.56 1563.55 1722.56 1606.55 1724.56 1648.55 1938.56 1691.56 1794.56 1733.56 1754.56 1776.56 1772.56 1818.56 1772.56 1861.5 1773.56" stroke="#006AA7" stroke-width="4.58333" stroke-linecap="round" stroke-linejoin="round" stroke-miterlimit="10" fill="none"/></g><g><path d="M797.5 1597.5 840.528 1664.55 883.529 1707.56 925.531 1726.56 968.532 1711.56 1010.53 1715.56 1053.53 1721.56 1095.54 1739.56 1138.54 1813.56 1180.54 1942.56 1223.54 1881.56 1265.54 1869.56 1308.54 1865.56 1351.54 1856.56 1393.55 1835.56 1436.55 1809.56 1478.55 1804.56 1521.55 1785.56 1563.55 1778.56 1606.55 1790.56 1648.55 1964.5 1691.56 1846.56 1733.56 1833.56 1776.56 1838.56 1818.56 1840.56 1861.5 1844.56" stroke="#C00000" stroke-width="4.58333" stroke-linecap="round" stroke-linejoin="round" stroke-miterlimit="10" fill="none"/></g><g><text font-family="Arial,Arial_MSFontService,sans-serif" font-weight="400" font-size="50" transform="matrix(1 0 0 1 639.059 2295)">40 ¢</text></g><g><text font-family="Arial,Arial_MSFontService,sans-serif" font-weight="400" font-size="50" transform="matrix(1 0 0 1 639.059 1561)">50 ¢</text></g><g><text font-family="Arial,Arial_MSFontService,sans-serif" font-weight="400" font-size="50" transform="matrix(1 0 0 1 741.847 2342)">2000</text></g><g><text font-family="Arial,Arial_MSFontService,sans-serif" font-weight="400" font-size="50" transform="matrix(1 0 0 1 954.578 2342)">2005</text></g><g><text font-family="Arial,Arial_MSFontService,sans-serif" font-weight="400" font-size="50" transform="matrix(1 0 0 1 1167.31 2342)">2010</text></g><g><text font-family="Arial,Arial_MSFontService,sans-serif" font-weight="400" font-size="50" transform="matrix(1 0 0 1 1380.04 2342)">2015</text></g><g><text font-family="Arial,Arial_MSFontService,sans-serif" font-weight="400" font-size="50" transform="matrix(1 0 0 1 1592.77 2342)">2020</text></g><g><text font-family="Arial,Arial_MSFontService,sans-serif" font-weight="400" font-size="50" transform="matrix(1 0 0 1 1805.5 2342)">2025</text></g><g><text fill="#595959" font-family="Arial,Arial_MSFontService,sans-serif" font-weight="700" font-size="55" transform="matrix(6.12323e-17 -1 1 6.12323e-17 603.306 2329)">BNP </text></g><g><text fill="#595959" font-family="Arial,Arial_MSFontService,sans-serif" font-weight="700" font-size="55" transform="matrix(6.12323e-17 -1 1 6.12323e-17 603.306 2198)">skapad</text></g><g><text fill="#595959" font-family="Arial,Arial_MSFontService,sans-serif" font-weight="700" font-size="55" transform="matrix(6.12323e-17 -1 1 6.12323e-17 603.306 1993)">av 1 dollar av </text></g><g><text fill="#595959" font-family="Arial,Arial_MSFontService,sans-serif" font-weight="700" font-size="55" transform="matrix(6.12323e-17 -1 1 6.12323e-17 603.306 1630)">kapital</text></g><g><text font-family="Arial,Arial_MSFontService,sans-serif" font-weight="700" font-size="60" transform="matrix(1 0 0 1 958.299 1331)">KAPITALPRODUKTIVITET</text></g><text font-family="Arial,Arial_MSFontService,sans-serif" font-style="italic" font-weight="700" font-size="46" transform="matrix(1 0 0 1 1242.98 1499)">Årlig tillväxt 2015 </text><text font-family="Aptos,Aptos_MSFontService,sans-serif" font-weight="700" font-size="50" transform="matrix(1 0 0 1 1626.84 1499)">–</text><text font-family="Arial,Arial_MSFontService,sans-serif" font-style="italic" font-weight="700" font-size="46" transform="matrix(1 0 0 1 1649.75 1499)">2025</text><text font-family="Arial,Arial_MSFontService,sans-serif" font-style="italic" font-weight="400" font-size="46" transform="matrix(1 0 0 1 1242.98 1559)">Sverige</text><text font-family="Aptos,Aptos_MSFontService,sans-serif" font-style="italic" font-weight="400" font-size="50" transform="matrix(1 0 0 1 1407.98 1559)">−</text><text font-family="Arial,Arial_MSFontService,sans-serif" font-style="italic" font-weight="400" font-size="46" transform="matrix(1 0 0 1 1434.91 1559)">1.3%</text><text font-family="Arial,Arial_MSFontService,sans-serif" font-style="italic" font-weight="400" font-size="46" transform="matrix(1 0 0 1 1242.98 1618)">EU</text><text font-family="Arial,Arial_MSFontService,sans-serif" font-style="italic" font-weight="400" font-size="46" transform="matrix(1 0 0 1 1471 1618)">0%</text><text font-family="Arial,Arial_MSFontService,sans-serif" font-style="italic" font-weight="400" font-size="46" transform="matrix(1 0 0 1 1242.98 1675)">Världen</text><text font-family="Aptos,Aptos_MSFontService,sans-serif" font-style="italic" font-weight="400" font-size="50" transform="matrix(1 0 0 1 1407.98 1675)">−</text><text font-family="Arial,Arial_MSFontService,sans-serif" font-style="italic" font-weight="400" font-size="46" transform="matrix(1 0 0 1 1434.91 1675)">0.6%</text></g></svg>