<svg width="1470" height="1321" xmlns="http://www.w3.org/2000/svg" xmlns:xlink="http://www.w3.org/1999/xlink" xml:space="preserve" overflow="hidden"><defs><clipPath id="clip0"><rect x="748" y="1034" width="1470" height="1321"/></clipPath></defs><g clip-path="url(#clip0)" transform="translate(-748 -1034)"><rect x="773" y="1034" width="1420" height="1152" fill="#FFFFFF"/><g><rect x="1045.5" y="1196.5" width="1067" height="886" stroke="#BFBFBF" stroke-width="3.4375" stroke-linejoin="round" stroke-miterlimit="10" fill="none"/></g><g><path d="M1066 1404.05 1107.04 1465.05 1148.04 1470.05 1189.04 1475.05 1230.04 1410.05 1271.04 1388.05 1312.04 1353 1353.04 1391.05 1394.05 1538.05 1435.05 1706.06 1476.05 1615.05 1517.05 1620.05 1558.05 1684.06 1599.05 1705.06 1640.05 1703.06 1681.06 1667.05 1722.06 1702.06 1763.06 1742.06 1805.06 1779.06 1846.06 1787.06 1887.06 1924.06 1928.06 1850.06 1969.06 1902.06 2010.07 1960.06 2051.07 1987.07 2092 2021.07 2092 2083 2051.07 2083 2010.07 2083 1969.06 2083 1928.06 2083 1887.06 2083 1846.06 2083 1805.06 2083 1763.06 2083 1722.06 2083 1681.06 2083 1640.05 2083 1599.05 2083 1558.05 2083 1517.05 2083 1476.05 2083 1435.05 2083 1394.05 2083 1353.04 2083 1312.04 2083 1271.04 2083 1230.04 2083 1189.04 2083 1148.04 2083 1107.04 2083 1066 2083Z" fill="#F2F2F2"/></g><g><path d="M0 0 0.000360892 886" stroke="#BFBFBF" stroke-width="3.4375" stroke-linejoin="round" stroke-miterlimit="10" fill="none" fill-rule="evenodd" transform="matrix(1 0 0 -1 1045.5 2082.5)"/></g><g><path d="M1045.5 2082.5 2112.5 2082.5" stroke="#BFBFBF" stroke-width="3.4375" stroke-linejoin="round" stroke-miterlimit="10" fill="none" fill-rule="evenodd"/></g><g><path d="M1066 1404.05 1107.04 1465.05 1148.04 1470.05 1189.04 1475.05 1230.04 1410.05 1271.04 1388.05 1312.04 1353 1353.04 1391.05 1394.05 1538.05 1435.05 1706.06 1476.05 1615.05 1517.05 1620.05 1558.05 1684.06 1599.05 1705.06 1640.05 1703.06 1681.06 1667.05 1722.06 1702.06 1763.06 1742.06 1805.06 1779.06 1846.06 1787.06 1887.06 1924.06 1928.06 1850.06 1969.06 1902.06 2010.07 1960.06 2051.07 1987.07 2092 2021" stroke="#5FAF4A" stroke-width="13.75" stroke-linecap="round" stroke-linejoin="round" stroke-miterlimit="10" fill="none"/></g><g><path d="M1065.5 1396.5 1106.54 1438.55 1147.54 1484.55 1188.54 1519.55 1229.54 1505.55 1270.54 1506.55 1311.54 1491.55 1352.54 1504.55 1394.55 1584.55 1435.55 1747.5 1476.55 1703.56 1517.55 1686.56 1558.55 1707.56 1599.55 1704.56 1640.55 1663.55 1681.56 1610.55 1722.56 1580.55 1763.56 1537.55 1804.56 1523.55 1845.56 1525.55 1886.56 1740.56 1927.56 1595.55 1968.56 1554.55 2009.57 1573.55 2050.57 1572.55 2091.5 1573.55" stroke="#006AA7" stroke-width="4.58333" stroke-linecap="round" stroke-linejoin="round" stroke-miterlimit="10" fill="none"/></g><g><path d="M1065.5 1397.5 1106.54 1465.55 1147.54 1507.55 1188.54 1526.55 1229.54 1512.55 1270.54 1515.55 1311.54 1522.55 1352.54 1540.55 1394.55 1614.55 1435.55 1743.56 1476.55 1683.56 1517.55 1670.56 1558.55 1667.55 1599.55 1657.55 1640.55 1636.55 1681.56 1610.55 1722.56 1605.55 1763.56 1586.55 1804.56 1579.55 1845.56 1590.55 1886.56 1766.5 1927.56 1647.55 1968.56 1634.55 2009.57 1640.55 2050.57 1642.55 2091.5 1645.55" stroke="#C00000" stroke-width="4.58333" stroke-linecap="round" stroke-linejoin="round" stroke-miterlimit="10" fill="none"/></g><g><text font-family="Arial,Arial_MSFontService,sans-serif" font-weight="400" font-size="50" transform="matrix(1 0 0 1 907.54 2099)">40 ¢</text></g><g><text font-family="Arial,Arial_MSFontService,sans-serif" font-weight="400" font-size="50" transform="matrix(1 0 0 1 907.54 1360)">50 ¢</text></g><g><text font-family="Arial,Arial_MSFontService,sans-serif" font-weight="400" font-size="50" transform="matrix(1 0 0 1 1009.58 2146)">2000</text></g><g><text font-family="Arial,Arial_MSFontService,sans-serif" font-weight="400" font-size="50" transform="matrix(1 0 0 1 1214.82 2146)">2005</text></g><g><text font-family="Arial,Arial_MSFontService,sans-serif" font-weight="400" font-size="50" transform="matrix(1 0 0 1 1420.07 2146)">2010</text></g><g><text font-family="Arial,Arial_MSFontService,sans-serif" font-weight="400" font-size="50" transform="matrix(1 0 0 1 1625.31 2146)">2015</text></g><g><text font-family="Arial,Arial_MSFontService,sans-serif" font-weight="400" font-size="50" transform="matrix(1 0 0 1 1830.56 2146)">2020</text></g><g><text font-family="Arial,Arial_MSFontService,sans-serif" font-weight="400" font-size="50" transform="matrix(1 0 0 1 2035.8 2146)">2025</text></g><g><text fill="#595959" font-family="Arial,Arial_MSFontService,sans-serif" font-weight="700" font-size="55" transform="matrix(6.12323e-17 -1 1 6.12323e-17 870.746 2128)">BNP skapad av 1 dollar av kapital</text></g><g><text font-family="Arial,Arial_MSFontService,sans-serif" font-weight="700" font-size="60" transform="matrix(1 0 0 1 1141.92 1130)">KAPITALPRODUKTIVITET</text></g><text font-family="Arial,Arial_MSFontService,sans-serif" font-style="italic" font-weight="700" font-size="46" transform="matrix(1 0 0 1 1492.98 1299)">Årlig</text><text font-family="Arial,Arial_MSFontService,sans-serif" font-style="italic" font-weight="700" font-size="46" transform="matrix(1 0 0 1 1609.86 1299)">tillväxt</text><text font-family="Arial,Arial_MSFontService,sans-serif" font-style="italic" font-weight="700" font-size="46" transform="matrix(1 0 0 1 1766.84 1299)">2015 </text><text font-family="Aptos,Aptos_MSFontService,sans-serif" font-weight="700" font-size="50" transform="matrix(1 0 0 1 1876.84 1299)">–</text><text font-family="Arial,Arial_MSFontService,sans-serif" font-style="italic" font-weight="700" font-size="46" transform="matrix(1 0 0 1 1899.75 1299)">2025</text><text font-family="Arial,Arial_MSFontService,sans-serif" font-style="italic" font-weight="400" font-size="46" transform="matrix(1 0 0 1 1492.98 1359)">Sverige</text><text font-family="Aptos,Aptos_MSFontService,sans-serif" font-style="italic" font-weight="400" font-size="50" transform="matrix(1 0 0 1 1657.98 1359)">−</text><text font-family="Arial,Arial_MSFontService,sans-serif" font-style="italic" font-weight="400" font-size="46" transform="matrix(1 0 0 1 1684.91 1359)">1.3%</text><text font-family="Arial,Arial_MSFontService,sans-serif" font-style="italic" font-weight="400" font-size="46" transform="matrix(1 0 0 1 1492.98 1418)">EU</text><text font-family="Arial,Arial_MSFontService,sans-serif" font-style="italic" font-weight="400" font-size="46" transform="matrix(1 0 0 1 1721 1418)">0%</text><text font-family="Arial,Arial_MSFontService,sans-serif" font-style="italic" font-weight="400" font-size="46" transform="matrix(1 0 0 1 1492.98 1475)">Världen</text><text font-family="Aptos,Aptos_MSFontService,sans-serif" font-style="italic" font-weight="400" font-size="50" transform="matrix(1 0 0 1 1657.98 1475)">−</text><text font-family="Arial,Arial_MSFontService,sans-serif" font-style="italic" font-weight="400" font-size="46" transform="matrix(1 0 0 1 1684.91 1475)">0.6%</text><text font-family="Arial,Arial_MSFontService,sans-serif" font-weight="400" font-size="46" transform="matrix(1 0 0 1 780.531 2262)">Kapital =</text><path d="M974.668 2221.51 999.433 2221.51 999.433 2224.92 979.653 2224.92 991.805 2241.05 978.812 2258.16 999.633 2258.16 999.633 2261.51 974.328 2261.51 974.328 2257.62 986.74 2241.22 974.668 2225.15Z"/><text fill="#000000" fill-opacity="0" font-family="Arial,Arial_MSFontService,sans-serif" font-size="40" x="974.328" y="2256.51">∑ </text><text font-family="Arial,Arial_MSFontService,sans-serif" font-weight="400" font-size="46" transform="matrix(1 0 0 1 1012.56 2262)">Årlig</text><text font-family="Arial,Arial_MSFontService,sans-serif" font-weight="400" font-size="46" transform="matrix(1 0 0 1 1116.83 2262)">fast &amp; </text><text font-family="Arial,Arial_MSFontService,sans-serif" font-weight="400" font-size="46" transform="matrix(1 0 0 1 1245.74 2262)">FoU</text><text font-family="Arial,Arial_MSFontService,sans-serif" font-weight="400" font-size="46" transform="matrix(1 0 0 1 1344.85 2262)">kapitalinvestering</text><text font-family="Arial,Arial_MSFontService,sans-serif" font-weight="400" font-size="46" transform="matrix(1 0 0 1 1709.8 2262)">avskriven</text><text font-family="Arial,Arial_MSFontService,sans-serif" font-weight="400" font-size="46" transform="matrix(1 0 0 1 1915.48 2262)">över</text><text font-family="Arial,Arial_MSFontService,sans-serif" font-weight="400" font-size="46" transform="matrix(1 0 0 1 2016.89 2262)">20 / 7 </text><text font-family="Arial,Arial_MSFontService,sans-serif" font-weight="400" font-size="46" transform="matrix(1 0 0 1 2142.93 2262)">år</text><text font-family="Arial,Arial_MSFontService,sans-serif" font-weight="400" font-size="46" transform="matrix(1 0 0 1 780.531 2317)">Källa: TelluBase; S. Canbäck (Tellusant) </text><text font-family="Arial,Arial_MSFontService,sans-serif" font-weight="400" font-size="46" transform="matrix(1 0 0 1 1611.83 2317)">analys</text></g></svg>