<svg width="1563" height="756" xmlns="http://www.w3.org/2000/svg" xmlns:xlink="http://www.w3.org/1999/xlink" xml:space="preserve" overflow="hidden"><defs><clipPath id="clip0"><rect x="372" y="3065" width="1563" height="756"/></clipPath></defs><g clip-path="url(#clip0)" transform="translate(-372 -3065)"><rect x="372" y="3065" width="1563" height="619" fill="#FFFFFF"/><g><path d="M513.017 3444.11 696.023 3444.11 696.023 3560 513.017 3560ZM879.029 3347.11 1062.03 3347.11 1062.03 3560 879.029 3560ZM1245.04 3445.11 1427.05 3445.11 1427.05 3560 1245.04 3560ZM1610.05 3478.11 1793.06 3478.11 1793.06 3560 1610.05 3560Z" fill="#FECC02"/></g><g><path d="M421.5 3559.5 1884.5 3559.5" stroke="#D9D9D9" stroke-width="3.4375" stroke-linejoin="round" stroke-miterlimit="10" fill="none" fill-rule="evenodd"/></g><g><text font-family="Arial,Arial_MSFontService,sans-serif" font-weight="400" font-size="50" transform="matrix(1 0 0 1 547.307 3412)">1.3%</text></g><g><text font-family="Arial,Arial_MSFontService,sans-serif" font-weight="400" font-size="50" transform="matrix(1 0 0 1 912.904 3315)">2.5%</text></g><g><text font-family="Arial,Arial_MSFontService,sans-serif" font-weight="400" font-size="50" transform="matrix(1 0 0 1 1278.5 3414)">1.3%</text></g><g><text font-family="Arial,Arial_MSFontService,sans-serif" font-weight="400" font-size="50" transform="matrix(1 0 0 1 1644.1 3446)">0.9%</text></g><g><text font-family="Arial,Arial_MSFontService,sans-serif" font-weight="400" font-size="55" transform="matrix(1 0 0 1 534.428 3643)">85-95</text></g><g><text font-family="Arial,Arial_MSFontService,sans-serif" font-weight="400" font-size="55" transform="matrix(1 0 0 1 900.025 3643)">95-05</text></g><g><text font-family="Arial,Arial_MSFontService,sans-serif" font-weight="400" font-size="55" transform="matrix(1 0 0 1 1265.62 3643)">05-15</text></g><g><text font-family="Arial,Arial_MSFontService,sans-serif" font-weight="400" font-size="55" transform="matrix(1 0 0 1 1631.22 3643)">15-25</text></g><g><text font-family="Arial,Arial_MSFontService,sans-serif" font-weight="700" font-size="64" transform="matrix(1 0 0 1 551.215 3160)">SVERIGES TILLVÄXT PER DECENNIUM </text></g><g><text font-family="Arial,Arial_MSFontService,sans-serif" font-weight="400" font-size="60" transform="matrix(1 0 0 1 921.937 3230)">GDP / AFB per </text></g><g><text font-family="Arial,Arial_MSFontService,sans-serif" font-weight="400" font-size="60" transform="matrix(1 0 0 1 1331.41 3230)">år</text></g><text font-family="Arial,Arial_MSFontService,sans-serif" font-weight="400" font-size="46" transform="matrix(1 0 0 1 826.632 3783)">Källa: TelluBase; S. Canbäck </text><text font-family="Arial,Arial_MSFontService,sans-serif" font-weight="400" font-size="46" transform="matrix(1 0 0 1 1429.34 3783)">tabulering</text></g></svg>