<svg width="1980" height="512" xmlns="http://www.w3.org/2000/svg" xmlns:xlink="http://www.w3.org/1999/xlink" xml:space="preserve" overflow="hidden"><defs><clipPath id="clip0"><rect x="247" y="2273" width="1980" height="512"/></clipPath></defs><g clip-path="url(#clip0)" transform="translate(-247 -2273)"><rect x="577" y="2273" width="331" height="330" fill="#006AA7"/><rect x="1237" y="2273" width="331" height="330" fill="#FECC02"/><rect x="907" y="2273" width="331" height="330" fill="#5FAF4A"/><path d="M1897 2273 2227 2273 2227 2603 1897 2603Z" fill="#D76479" fill-rule="evenodd"/><rect x="1567" y="2273" width="331" height="330" fill="#F08A5A"/><rect x="247" y="2273" width="331" height="330" fill="#B96AD6"/><text font-family="Arial,Arial_MSFontService,sans-serif" font-weight="400" font-size="55" transform="matrix(1 0 0 1 637.635 2672)">Flaggblå</text><text font-family="Arial,Arial_MSFontService,sans-serif" font-weight="400" font-size="55" transform="matrix(1 0 0 1 629.889 2738)">#006AA7</text><text font-family="Arial,Arial_MSFontService,sans-serif" font-weight="400" font-size="55" transform="matrix(1 0 0 1 1312.73 2672)">Flaggul</text><text font-family="Arial,Arial_MSFontService,sans-serif" font-weight="400" font-size="55" transform="matrix(1 0 0 1 1282.09 2738)">#FECC02</text><text font-family="Arial,Arial_MSFontService,sans-serif" font-weight="400" font-size="55" transform="matrix(1 0 0 1 944.388 2672)">Ormbunke</text><text font-family="Arial,Arial_MSFontService,sans-serif" font-weight="400" font-size="55" transform="matrix(1 0 0 1 957.932 2739)">#5FAF4A</text><text font-family="Arial,Arial_MSFontService,sans-serif" font-weight="400" font-size="55" transform="matrix(1 0 0 1 1952.57 2672)">Rallarros</text><text font-family="Arial,Arial_MSFontService,sans-serif" font-weight="400" font-size="55" transform="matrix(1 0 0 1 1951.12 2739)">#D76479</text><text font-family="Arial,Arial_MSFontService,sans-serif" font-weight="400" font-size="55" transform="matrix(1 0 0 1 1627.54 2672)">Rönnbär</text><text font-family="Arial,Arial_MSFontService,sans-serif" font-weight="400" font-size="55" transform="matrix(1 0 0 1 1618.07 2739)">#F08A5A</text><text font-family="Arial,Arial_MSFontService,sans-serif" font-weight="400" font-size="55" transform="matrix(1 0 0 1 370.115 2672)">Lila</text><text font-family="Arial,Arial_MSFontService,sans-serif" font-weight="400" font-size="55" transform="matrix(1 0 0 1 295.338 2739)">#B96AD6</text></g></svg>