<svg width="1708" height="1610" xmlns="http://www.w3.org/2000/svg" xmlns:xlink="http://www.w3.org/1999/xlink" xml:space="preserve" overflow="hidden"><defs><clipPath id="clip0"><rect x="426" y="697" width="1708" height="1610"/></clipPath></defs><g clip-path="url(#clip0)" transform="translate(-426 -697)"><text font-family="Arial,Arial_MSFontService,sans-serif" font-weight="400" font-size="46" transform="matrix(1 0 0 1 699.419 2214)">BNP = </text><text font-family="Arial,Arial_MSFontService,sans-serif" font-weight="400" font-size="46" transform="matrix(1 0 0 1 845.513 2214)">Bruttonationalprodukt</text><text font-family="Arial,Arial_MSFontService,sans-serif" font-weight="400" font-size="46" transform="matrix(1 0 0 1 1278.06 2214)">; AFB = </text><text font-family="Arial,Arial_MSFontService,sans-serif" font-weight="400" font-size="46" transform="matrix(1 0 0 1 1444.21 2214)">Arbetsför</text><text font-family="Arial,Arial_MSFontService,sans-serif" font-weight="400" font-size="46" transform="matrix(1 0 0 1 1641.87 2214)">befolkning</text><text font-family="Arial,Arial_MSFontService,sans-serif" font-weight="400" font-size="46" transform="matrix(1 0 0 1 699.419 2269)">Källa: TelluBase; S. Canbäck (Tellusant) </text><text font-family="Arial,Arial_MSFontService,sans-serif" font-weight="400" font-size="46" transform="matrix(1 0 0 1 1530.72 2269)">tabulering</text><rect x="426" y="697" width="1708" height="1455" fill="#FFFFFF"/><g><path d="M0 0 0.000360892 1166" stroke="#FFFFFF" stroke-width="3.4375" stroke-linejoin="round" stroke-miterlimit="10" fill="none" fill-rule="evenodd" transform="matrix(1 0 0 -1 1251.5 2101.5)"/></g><g><path d="M1242.5 2074.5 1368.5 2074.5" stroke="#BFBFBF" stroke-width="11.4583" stroke-linejoin="round" stroke-miterlimit="10" fill="none"/></g><g><path d="M1295.5 2018.5 1368.5 2018.5" stroke="#BFBFBF" stroke-width="11.4583" stroke-linejoin="round" stroke-miterlimit="10" fill="none"/></g><g><path d="M1452.5 1963.5 1368.5 1963.5" stroke="#BFBFBF" stroke-width="11.4583" stroke-linejoin="round" stroke-miterlimit="10" fill="none"/></g><g><path d="M1512.5 1907.5 1368.5 1907.5" stroke="#BFBFBF" stroke-width="11.4583" stroke-linejoin="round" stroke-miterlimit="10" fill="none"/></g><g><path d="M1539.5 1852.5 1368.5 1852.5" stroke="#BFBFBF" stroke-width="11.4583" stroke-linejoin="round" stroke-miterlimit="10" fill="none"/></g><g><path d="M1459.5 1740.5 1368.5 1740.5" stroke="#BFBFBF" stroke-width="11.4583" stroke-linejoin="round" stroke-miterlimit="10" fill="none"/></g><g><path d="M1523.5 1685.5 1368.5 1685.5" stroke="#BFBFBF" stroke-width="11.4583" stroke-linejoin="round" stroke-miterlimit="10" fill="none"/></g><g><path d="M1549.5 1629.5 1368.5 1629.5" stroke="#BFBFBF" stroke-width="11.4583" stroke-linejoin="round" stroke-miterlimit="10" fill="none"/></g><g><path d="M1751.5 1574.5 1368.5 1574.5" stroke="#BFBFBF" stroke-width="11.4583" stroke-linejoin="round" stroke-miterlimit="10" fill="none"/></g><g><path d="M1867.5 1518.5 1368.5 1518.5" stroke="#BFBFBF" stroke-width="11.4583" stroke-linejoin="round" stroke-miterlimit="10" fill="none"/></g><g><path d="M1525.5 1407.5 1368.5 1407.5" stroke="#BFBFBF" stroke-width="11.4583" stroke-linejoin="round" stroke-miterlimit="10" fill="none"/></g><g><path d="M1617.5 1352.5 1368.5 1352.5" stroke="#BFBFBF" stroke-width="11.4583" stroke-linejoin="round" stroke-miterlimit="10" fill="none"/></g><g><path d="M1517.5 1296.5 1368.5 1296.5" stroke="#BFBFBF" stroke-width="11.4583" stroke-linejoin="round" stroke-miterlimit="10" fill="none"/></g><g><path d="M1536.5 1185.5 1368.5 1185.5" stroke="#BFBFBF" stroke-width="11.4583" stroke-linejoin="round" stroke-miterlimit="10" fill="none"/></g><g><path d="M1485.5 1130.5 1368.5 1130.5" stroke="#BFBFBF" stroke-width="11.4583" stroke-linejoin="round" stroke-miterlimit="10" fill="none"/></g><g><path d="M1444.5 1074.5 1368.5 1074.5" stroke="#BFBFBF" stroke-width="11.4583" stroke-linejoin="round" stroke-miterlimit="10" fill="none"/></g><g><path d="M1514.5 1019.5 1368.5 1019.5" stroke="#BFBFBF" stroke-width="11.4583" stroke-linejoin="round" stroke-miterlimit="10" fill="none"/></g><g><path d="M1427.5 963.5 1368.5 963.5" stroke="#BFBFBF" stroke-width="11.4583" stroke-linejoin="round" stroke-miterlimit="10" fill="none"/></g><g><path d="M1253.6 2074.47C1253.6 2080.55 1248.67 2085.47 1242.6 2085.47 1236.52 2085.47 1231.6 2080.55 1231.6 2074.47 1231.6 2068.4 1236.52 2063.47 1242.6 2063.47 1248.67 2063.47 1253.6 2068.4 1253.6 2074.47Z" stroke="#0070C0" stroke-width="22.9167" stroke-linejoin="round" stroke-miterlimit="10" fill="#0070C0"/><path d="M1306.6 2018.47C1306.6 2024.55 1301.67 2029.47 1295.6 2029.47 1289.52 2029.47 1284.6 2024.55 1284.6 2018.47 1284.6 2012.4 1289.52 2007.47 1295.6 2007.47 1301.67 2007.47 1306.6 2012.4 1306.6 2018.47Z" stroke="#0070C0" stroke-width="22.9167" stroke-linejoin="round" stroke-miterlimit="10" fill="#0070C0"/><path d="M1463.6 1963.47C1463.6 1969.55 1458.67 1974.47 1452.6 1974.47 1446.52 1974.47 1441.6 1969.55 1441.6 1963.47 1441.6 1957.4 1446.52 1952.47 1452.6 1952.47 1458.67 1952.47 1463.6 1957.4 1463.6 1963.47Z" stroke="#0070C0" stroke-width="22.9167" stroke-linejoin="round" stroke-miterlimit="10" fill="#0070C0"/><path d="M1523.6 1907.47C1523.6 1913.55 1518.67 1918.47 1512.6 1918.47 1506.52 1918.47 1501.6 1913.55 1501.6 1907.47 1501.6 1901.4 1506.52 1896.47 1512.6 1896.47 1518.67 1896.47 1523.6 1901.4 1523.6 1907.47Z" stroke="#0070C0" stroke-width="22.9167" stroke-linejoin="round" stroke-miterlimit="10" fill="#0070C0"/><path d="M1550.6 1852.47C1550.6 1858.55 1545.67 1863.47 1539.6 1863.47 1533.52 1863.47 1528.6 1858.55 1528.6 1852.47 1528.6 1846.4 1533.52 1841.47 1539.6 1841.47 1545.67 1841.47 1550.6 1846.4 1550.6 1852.47Z" stroke="#0070C0" stroke-width="22.9167" stroke-linejoin="round" stroke-miterlimit="10" fill="#0070C0"/><path d="M1470.6 1740.47C1470.6 1746.55 1465.67 1751.47 1459.6 1751.47 1453.52 1751.47 1448.6 1746.55 1448.6 1740.47 1448.6 1734.4 1453.52 1729.47 1459.6 1729.47 1465.67 1729.47 1470.6 1734.4 1470.6 1740.47Z" stroke="#0070C0" stroke-width="22.9167" stroke-linejoin="round" stroke-miterlimit="10" fill="#0070C0"/><path d="M1534.6 1685.47C1534.6 1691.55 1529.67 1696.47 1523.6 1696.47 1517.52 1696.47 1512.6 1691.55 1512.6 1685.47 1512.6 1679.4 1517.52 1674.47 1523.6 1674.47 1529.67 1674.47 1534.6 1679.4 1534.6 1685.47Z" stroke="#0070C0" stroke-width="22.9167" stroke-linejoin="round" stroke-miterlimit="10" fill="#0070C0"/><path d="M1560.6 1629.47C1560.6 1635.55 1555.67 1640.47 1549.6 1640.47 1543.52 1640.47 1538.6 1635.55 1538.6 1629.47 1538.6 1623.4 1543.52 1618.47 1549.6 1618.47 1555.67 1618.47 1560.6 1623.4 1560.6 1629.47Z" stroke="#0070C0" stroke-width="22.9167" stroke-linejoin="round" stroke-miterlimit="10" fill="#0070C0"/><path d="M1762.6 1574.47C1762.6 1580.55 1757.67 1585.47 1751.6 1585.47 1745.52 1585.47 1740.6 1580.55 1740.6 1574.47 1740.6 1568.4 1745.52 1563.47 1751.6 1563.47 1757.67 1563.47 1762.6 1568.4 1762.6 1574.47Z" stroke="#0070C0" stroke-width="22.9167" stroke-linejoin="round" stroke-miterlimit="10" fill="#0070C0"/><path d="M1878.6 1518.47C1878.6 1524.55 1873.67 1529.47 1867.6 1529.47 1861.52 1529.47 1856.6 1524.55 1856.6 1518.47 1856.6 1512.4 1861.52 1507.47 1867.6 1507.47 1873.67 1507.47 1878.6 1512.4 1878.6 1518.47Z" stroke="#0070C0" stroke-width="22.9167" stroke-linejoin="round" stroke-miterlimit="10" fill="#0070C0"/><path d="M1536.6 1407.47C1536.6 1413.55 1531.67 1418.47 1525.6 1418.47 1519.52 1418.47 1514.6 1413.55 1514.6 1407.47 1514.6 1401.4 1519.52 1396.47 1525.6 1396.47 1531.67 1396.47 1536.6 1401.4 1536.6 1407.47Z" stroke="#0070C0" stroke-width="22.9167" stroke-linejoin="round" stroke-miterlimit="10" fill="#0070C0"/><path d="M1628.6 1352.47C1628.6 1358.55 1623.67 1363.47 1617.6 1363.47 1611.52 1363.47 1606.6 1358.55 1606.6 1352.47 1606.6 1346.4 1611.52 1341.47 1617.6 1341.47 1623.67 1341.47 1628.6 1346.4 1628.6 1352.47Z" stroke="#0070C0" stroke-width="22.9167" stroke-linejoin="round" stroke-miterlimit="10" fill="#0070C0"/><path d="M1547.6 1185.47C1547.6 1191.55 1542.67 1196.47 1536.6 1196.47 1530.52 1196.47 1525.6 1191.55 1525.6 1185.47 1525.6 1179.4 1530.52 1174.47 1536.6 1174.47 1542.67 1174.47 1547.6 1179.4 1547.6 1185.47Z" stroke="#0070C0" stroke-width="22.9167" stroke-linejoin="round" stroke-miterlimit="10" fill="#0070C0"/><path d="M1496.6 1130.47C1496.6 1136.55 1491.67 1141.47 1485.6 1141.47 1479.52 1141.47 1474.6 1136.55 1474.6 1130.47 1474.6 1124.4 1479.52 1119.47 1485.6 1119.47 1491.67 1119.47 1496.6 1124.4 1496.6 1130.47Z" stroke="#0070C0" stroke-width="22.9167" stroke-linejoin="round" stroke-miterlimit="10" fill="#0070C0"/><path d="M1455.6 1074.47C1455.6 1080.55 1450.67 1085.47 1444.6 1085.47 1438.52 1085.47 1433.6 1080.55 1433.6 1074.47 1433.6 1068.4 1438.52 1063.47 1444.6 1063.47 1450.67 1063.47 1455.6 1068.4 1455.6 1074.47Z" stroke="#0070C0" stroke-width="22.9167" stroke-linejoin="round" stroke-miterlimit="10" fill="#0070C0"/><path d="M1525.6 1019.47C1525.6 1025.55 1520.67 1030.47 1514.6 1030.47 1508.52 1030.47 1503.6 1025.55 1503.6 1019.47 1503.6 1013.4 1508.52 1008.47 1514.6 1008.47 1520.67 1008.47 1525.6 1013.4 1525.6 1019.47Z" stroke="#0070C0" stroke-width="22.9167" stroke-linejoin="round" stroke-miterlimit="10" fill="#0070C0"/><path d="M1438.6 963.471C1438.6 969.546 1433.67 974.471 1427.6 974.471 1421.52 974.471 1416.6 969.546 1416.6 963.471 1416.6 957.397 1421.52 952.472 1427.6 952.472 1433.67 952.472 1438.6 957.397 1438.6 963.471Z" stroke="#0070C0" stroke-width="22.9167" stroke-linejoin="round" stroke-miterlimit="10" fill="#0070C0"/></g><g><path d="M1528 1296C1528 1302.07 1523.08 1307 1517 1307 1510.93 1307 1506 1302.07 1506 1296 1506 1289.92 1510.93 1285 1517 1285 1523.08 1285 1528 1289.92 1528 1296Z" stroke="#0070C0" stroke-width="22.9167" stroke-linejoin="round" stroke-miterlimit="10" fill="#006AA7"/></g><g><text font-family="Arial,Arial_MSFontService,sans-serif" font-weight="400" font-size="50" transform="matrix(1 0 0 1 1063.49 2092)">-</text></g><g><text font-family="Arial,Arial_MSFontService,sans-serif" font-weight="400" font-size="50" transform="matrix(1 0 0 1 1080.29 2092)">1.4%</text></g><g><text font-family="Arial,Arial_MSFontService,sans-serif" font-weight="400" font-size="50" transform="matrix(1 0 0 1 1116.36 2032)">-</text></g><g><text font-family="Arial,Arial_MSFontService,sans-serif" font-weight="400" font-size="50" transform="matrix(1 0 0 1 1133.16 2032)">0.8%</text></g><g><text font-family="Arial,Arial_MSFontService,sans-serif" font-weight="400" font-size="50" transform="matrix(1 0 0 1 1491.18 1981)">1.0%</text></g><g><text font-family="Arial,Arial_MSFontService,sans-serif" font-weight="400" font-size="50" transform="matrix(1 0 0 1 1551.02 1926)">1.6%</text></g><g><text font-family="Arial,Arial_MSFontService,sans-serif" font-weight="400" font-size="50" transform="matrix(1 0 0 1 1578.37 1870)">2.0%</text></g><g><text font-family="Arial,Arial_MSFontService,sans-serif" font-weight="400" font-size="50" transform="matrix(1 0 0 1 1498.84 1759)">1.0%</text></g><g><text font-family="Arial,Arial_MSFontService,sans-serif" font-weight="400" font-size="50" transform="matrix(1 0 0 1 1561.97 1703)">1.8%</text></g><g><text font-family="Arial,Arial_MSFontService,sans-serif" font-weight="400" font-size="50" transform="matrix(1 0 0 1 1588.24 1648)">2.1%</text></g><g><text font-family="Arial,Arial_MSFontService,sans-serif" font-weight="400" font-size="50" transform="matrix(1 0 0 1 1790.07 1592)">4.4%</text></g><g><text font-family="Arial,Arial_MSFontService,sans-serif" font-weight="400" font-size="50" transform="matrix(1 0 0 1 1906.42 1537)">5.7%</text></g><g><text font-family="Arial,Arial_MSFontService,sans-serif" font-weight="400" font-size="50" transform="matrix(1 0 0 1 1564.15 1426)">1.8%</text></g><g><text font-family="Arial,Arial_MSFontService,sans-serif" font-weight="400" font-size="50" transform="matrix(1 0 0 1 1656.01 1370)">2.8%</text></g><g><text font-family="Arial,Arial_MSFontService,sans-serif" font-weight="400" font-size="50" transform="matrix(1 0 0 1 1556.01 1315)">1.7%</text></g><g><text font-family="Arial,Arial_MSFontService,sans-serif" font-weight="400" font-size="50" transform="matrix(1 0 0 1 1575.85 1204)">1.9%</text></g><g><text font-family="Arial,Arial_MSFontService,sans-serif" font-weight="400" font-size="50" transform="matrix(1 0 0 1 1524.78 1148)">1.3%</text></g><g><text font-family="Arial,Arial_MSFontService,sans-serif" font-weight="400" font-size="50" transform="matrix(1 0 0 1 1483.57 1093)">0.9%</text></g><g><text font-family="Arial,Arial_MSFontService,sans-serif" font-weight="400" font-size="50" transform="matrix(1 0 0 1 1553.59 1037)">1.7%</text></g><g><text font-family="Arial,Arial_MSFontService,sans-serif" font-weight="400" font-size="50" transform="matrix(1 0 0 1 1466.77 981)">0.7%</text></g><g><text fill="#FFFFFF" font-family="Aptos,Aptos_MSFontService,sans-serif" font-weight="400" font-size="14" transform="matrix(1 0 0 1 1000.54 922)">-4.0%</text></g><g><text fill="#FFFFFF" font-family="Aptos,Aptos_MSFontService,sans-serif" font-weight="400" font-size="14" transform="matrix(1 0 0 1 1175.73 922)">-2.0%</text></g><g><text fill="#FFFFFF" font-family="Aptos,Aptos_MSFontService,sans-serif" font-weight="400" font-size="14" transform="matrix(1 0 0 1 1353.27 922)">0.0%</text></g><g><text fill="#FFFFFF" font-family="Aptos,Aptos_MSFontService,sans-serif" font-weight="400" font-size="14" transform="matrix(1 0 0 1 1528.46 922)">2.0%</text></g><g><text fill="#FFFFFF" font-family="Aptos,Aptos_MSFontService,sans-serif" font-weight="400" font-size="14" transform="matrix(1 0 0 1 1703.65 922)">4.0%</text></g><g><text fill="#FFFFFF" font-family="Aptos,Aptos_MSFontService,sans-serif" font-weight="400" font-size="14" transform="matrix(1 0 0 1 1878.85 922)">6.0%</text></g><g><text fill="#FFFFFF" font-family="Aptos,Aptos_MSFontService,sans-serif" font-weight="400" font-size="14" transform="matrix(1 0 0 1 2054.04 922)">8.0%</text></g><g><text font-family="Arial,Arial_MSFontService,sans-serif" font-weight="400" font-size="50" transform="matrix(1 0 0 1 890.435 2091)">Irak</text></g><g><text font-family="Arial,Arial_MSFontService,sans-serif" font-weight="400" font-size="50" transform="matrix(1 0 0 1 764.302 2035)">Sydafrika</text></g><g><text font-family="Arial,Arial_MSFontService,sans-serif" font-weight="400" font-size="50" transform="matrix(1 0 0 1 781.1 1979)">Brasilien</text></g><g><text font-family="Arial,Arial_MSFontService,sans-serif" font-weight="400" font-size="50" transform="matrix(1 0 0 1 781.1 1924)">Pakistan</text></g><g><text font-family="Arial,Arial_MSFontService,sans-serif" font-weight="400" font-size="50" transform="matrix(1 0 0 1 781.031 1868)">Thailand</text></g><g><text font-family="Arial,Arial_MSFontService,sans-serif" font-weight="400" font-size="50" transform="matrix(1 0 0 1 837.086 1757)">Japan</text></g><g><text font-family="Arial,Arial_MSFontService,sans-serif" font-weight="400" font-size="50" transform="matrix(1 0 0 1 904.461 1702)">EU</text></g><g><text font-family="Arial,Arial_MSFontService,sans-serif" font-weight="400" font-size="50" transform="matrix(1 0 0 1 870.842 1646)">USA</text></g><g><text font-family="Arial,Arial_MSFontService,sans-serif" font-weight="400" font-size="50" transform="matrix(1 0 0 1 837.086 1591)">Indien</text></g><g><text font-family="Arial,Arial_MSFontService,sans-serif" font-weight="400" font-size="50" transform="matrix(1 0 0 1 873.569 1535)">Kina</text></g><g><text font-family="Arial,Arial_MSFontService,sans-serif" font-weight="400" font-size="50" transform="matrix(1 0 0 1 455.889 1424)">Avancerade ekonomier</text></g><g><text font-family="Arial,Arial_MSFontService,sans-serif" font-weight="400" font-size="50" transform="matrix(1 0 0 1 677.401 1369)">Tillväxtländer</text></g><g><text font-family="Arial,Arial_MSFontService,sans-serif" font-weight="400" font-size="50" transform="matrix(1 0 0 1 800.671 1313)">Världen</text></g><g><text font-family="Arial,Arial_MSFontService,sans-serif" font-weight="400" font-size="50" transform="matrix(1 0 0 1 811.877 1202)">Europa</text></g><g><text font-family="Arial,Arial_MSFontService,sans-serif" font-weight="400" font-size="50" transform="matrix(1 0 0 1 708.133 1146)">Nordeuropa</text></g><g><text font-family="Arial,Arial_MSFontService,sans-serif" font-weight="400" font-size="50" transform="matrix(1 0 0 1 660.512 1091)">Storbritannien</text></g><g><text font-family="Arial,Arial_MSFontService,sans-serif" font-weight="400" font-size="50" transform="matrix(1 0 0 1 769.917 1035)">Danmark</text></g><g><text font-family="Arial,Arial_MSFontService,sans-serif" font-weight="400" font-size="50" transform="matrix(1 0 0 1 803.512 980)">Sverige</text></g><g><text font-family="Arial,Arial_MSFontService,sans-serif" font-weight="700" font-size="60" transform="matrix(1 0 0 1 917.793 787)">ARBETSPRODUKTIVITET</text></g><g><text font-family="Arial,Arial_MSFontService,sans-serif" font-weight="400" font-size="55" transform="matrix(1 0 0 1 871.891 860)">Årlig tillväxt 2015</text></g><g><text font-family="Arial,Arial_MSFontService,sans-serif" font-weight="400" font-size="55" transform="matrix(1 0 0 1 1287.67 860)">-</text></g><g><text font-family="Arial,Arial_MSFontService,sans-serif" font-weight="400" font-size="55" transform="matrix(1 0 0 1 1305.98 860)">2025 i BNP/AFB</text></g><path d="M1368 926 1368 2099.33" stroke="#D9D9D9" stroke-width="2.29167" stroke-miterlimit="8" fill="none" fill-rule="evenodd"/></g></svg>