<svg width="1789" height="2165" xmlns="http://www.w3.org/2000/svg" xmlns:xlink="http://www.w3.org/1999/xlink" xml:space="preserve" overflow="hidden"><g transform="translate(-1414 -250)"><rect x="1416.5" y="252.5" width="1784" height="1926" stroke="#EAF2F3" stroke-width="4.59488" stroke-miterlimit="8" fill="#EAF2F3"/><rect x="1558.5" y="468.5" width="1482" height="1599" stroke="#FFFFFF" stroke-width="4.59488" stroke-miterlimit="8" fill="#FFFFFF"/><path d="M2292.3 1966.5 2292.3 1966.5 2282.47 1936.78 2268.45 1906.97 2243.73 1877.24 2192.47 1847.43 2119.27 1817.7 2040.27 1787.98 1958.59 1758.17 1889.74 1728.44 1827.39 1698.71 1781.04 1668.91 1738.73 1639.18 1705.54 1609.45 1673.13 1579.65 1643.5 1549.92 1652.53 1520.19 1697.38 1490.39 1747.84 1460.66 1817.48 1430.85 1872.71 1401.12 1947.03 1371.4 2008.35 1341.59 2045.82 1311.86 2090.58 1282.13 2137.41 1252.32 2169.02 1222.6 2198.26 1192.87 2216.8 1163.06 2237.32 1133.33 2254.58 1103.61 2257.04 1073.8 2256.41 1044.07 2257.2 1014.34 2258.63 984.537 2261.08 954.813 2267.66 925.007 2275.58 895.277 2289.13 865.547 2298.24 835.741 2303.24 806.017 2304.5 776.287 2301.97 746.481 2299.51 716.75 2298.32 687.026 2295.15 657.221 2292.93 627.49 2293.33 597.76 2296.42 567.954 2298.32 538.23 2300.07 508.5 2308.94 508.5 2310.68 538.23 2312.58 567.954 2315.67 597.76 2316.07 627.49 2313.85 657.221 2310.68 687.026 2309.49 716.75 2307.04 746.481 2304.5 776.287 2305.77 806.017 2310.76 835.741 2319.87 865.547 2333.42 895.277 2341.34 925.007 2347.92 954.813 2350.38 984.537 2351.8 1014.34 2352.59 1044.07 2351.96 1073.8 2354.42 1103.61 2371.77 1133.33 2392.21 1163.06 2410.74 1192.87 2439.98 1222.6 2471.6 1252.32 2518.42 1282.13 2563.18 1311.86 2600.74 1341.59 2662.06 1371.4 2736.29 1401.12 2791.52 1430.85 2861.24 1460.66 2911.62 1490.39 2956.47 1520.19 2965.5 1549.92 2935.87 1579.65 2903.47 1609.45 2870.27 1639.18 2828.04 1668.91 2781.61 1698.71 2719.34 1728.44 2650.41 1758.17 2568.73 1787.98 2489.73 1817.7 2416.53 1847.43 2365.35 1877.24 2340.55 1906.97 2326.53 1936.78 2316.78 1966.5 2292.3 1966.5Z" stroke="#1A476F" stroke-width="6.89232" stroke-linecap="round" stroke-miterlimit="8" fill="#AFBFCD" fill-rule="evenodd"/><rect x="2249.5" y="1413.5" width="110" height="235" stroke="#1A476F" stroke-width="6.89232" stroke-miterlimit="8" fill="#486C8C"/><rect x="2249.5" y="1413.5" width="110" height="235" stroke="#1A476F" stroke-width="6.89232" stroke-miterlimit="8" fill="#486C8C"/><rect x="2249.5" y="1413.5" width="110" height="235" stroke="#1A476F" stroke-width="6.89232" stroke-miterlimit="8" fill="#486C8C"/><rect x="2249.5" y="1413.5" width="110" height="235" stroke="#1A476F" stroke-width="6.89232" stroke-miterlimit="8" fill="#486C8C"/><rect x="2249.5" y="1413.5" width="110" height="235" stroke="#1A476F" stroke-width="6.89232" stroke-miterlimit="8" fill="#486C8C"/><rect x="2249.5" y="1413.5" width="110" height="235" stroke="#1A476F" stroke-width="6.89232" stroke-miterlimit="8" fill="#486C8C"/><rect x="2249.5" y="1413.5" width="110" height="235" stroke="#1A476F" stroke-width="6.89232" stroke-miterlimit="8" fill="#486C8C"/><rect x="2249.5" y="1413.5" width="110" height="235" stroke="#1A476F" stroke-width="6.89232" stroke-miterlimit="8" fill="#486C8C"/><rect x="2249.5" y="1413.5" width="110" height="235" stroke="#1A476F" stroke-width="6.89232" stroke-miterlimit="8" fill="#486C8C"/><path d="M2290.5 1534.5C2290.5 1526.77 2296.77 1520.5 2304.5 1520.5 2312.23 1520.5 2318.5 1526.77 2318.5 1534.5 2318.5 1542.23 2312.23 1548.5 2304.5 1548.5 2296.77 1548.5 2290.5 1542.23 2290.5 1534.5Z" stroke="#1A476F" stroke-width="6.89232" stroke-miterlimit="8" fill="#FFFFFF" fill-rule="evenodd"/><path d="M2290.5 1534.5C2290.5 1526.77 2296.77 1520.5 2304.5 1520.5 2312.23 1520.5 2318.5 1526.77 2318.5 1534.5 2318.5 1542.23 2312.23 1548.5 2304.5 1548.5 2296.77 1548.5 2290.5 1542.23 2290.5 1534.5Z" stroke="#1A476F" stroke-width="6.89232" stroke-miterlimit="8" fill="#FFFFFF" fill-rule="evenodd"/><path d="M2290.5 1534.5C2290.5 1526.77 2296.77 1520.5 2304.5 1520.5 2312.23 1520.5 2318.5 1526.77 2318.5 1534.5 2318.5 1542.23 2312.23 1548.5 2304.5 1548.5 2296.77 1548.5 2290.5 1542.23 2290.5 1534.5Z" stroke="#1A476F" stroke-width="6.89232" stroke-miterlimit="8" fill="#FFFFFF" fill-rule="evenodd"/><path d="M2290.5 1534.5C2290.5 1526.77 2296.77 1520.5 2304.5 1520.5 2312.23 1520.5 2318.5 1526.77 2318.5 1534.5 2318.5 1542.23 2312.23 1548.5 2304.5 1548.5 2296.77 1548.5 2290.5 1542.23 2290.5 1534.5Z" stroke="#1A476F" stroke-width="6.89232" stroke-miterlimit="8" fill="#FFFFFF" fill-rule="evenodd"/><path d="M2290.5 1534.5C2290.5 1526.77 2296.77 1520.5 2304.5 1520.5 2312.23 1520.5 2318.5 1526.77 2318.5 1534.5 2318.5 1542.23 2312.23 1548.5 2304.5 1548.5 2296.77 1548.5 2290.5 1542.23 2290.5 1534.5Z" stroke="#1A476F" stroke-width="6.89232" stroke-miterlimit="8" fill="#FFFFFF" fill-rule="evenodd"/><path d="M2290.5 1534.5C2290.5 1526.77 2296.77 1520.5 2304.5 1520.5 2312.23 1520.5 2318.5 1526.77 2318.5 1534.5 2318.5 1542.23 2312.23 1548.5 2304.5 1548.5 2296.77 1548.5 2290.5 1542.23 2290.5 1534.5Z" stroke="#1A476F" stroke-width="6.89232" stroke-miterlimit="8" fill="#FFFFFF" fill-rule="evenodd"/><path d="M2290.5 1534.5C2290.5 1526.77 2296.77 1520.5 2304.5 1520.5 2312.23 1520.5 2318.5 1526.77 2318.5 1534.5 2318.5 1542.23 2312.23 1548.5 2304.5 1548.5 2296.77 1548.5 2290.5 1542.23 2290.5 1534.5Z" stroke="#1A476F" stroke-width="6.89232" stroke-miterlimit="8" fill="#FFFFFF" fill-rule="evenodd"/><path d="M2290.5 1534.5C2290.5 1526.77 2296.77 1520.5 2304.5 1520.5 2312.23 1520.5 2318.5 1526.77 2318.5 1534.5 2318.5 1542.23 2312.23 1548.5 2304.5 1548.5 2296.77 1548.5 2290.5 1542.23 2290.5 1534.5Z" stroke="#1A476F" stroke-width="6.89232" stroke-miterlimit="8" fill="#FFFFFF" fill-rule="evenodd"/><path d="M2290.5 1534.5C2290.5 1526.77 2296.77 1520.5 2304.5 1520.5 2312.23 1520.5 2318.5 1526.77 2318.5 1534.5 2318.5 1542.23 2312.23 1548.5 2304.5 1548.5 2296.77 1548.5 2290.5 1542.23 2290.5 1534.5Z" stroke="#1A476F" stroke-width="6.89232" stroke-miterlimit="8" fill="#FFFFFF" fill-rule="evenodd"/><path d="M2304.5 1413.5 2304.5 1064.5" stroke="#1A476F" stroke-width="6.89232" stroke-miterlimit="8" fill="none" fill-rule="evenodd"/><path d="M2304.5 1914.5 2304.5 1648.5" stroke="#1A476F" stroke-width="6.89232" stroke-miterlimit="8" fill="none" fill-rule="evenodd"/><text font-family="Arial,Arial_MSFontService,sans-serif" font-weight="700" font-size="55" transform="matrix(1 0 0 1 2193.59 2143)">Inkomst</text><text font-family="Arial,Arial_MSFontService,sans-serif" font-weight="700" font-size="55" transform="matrix(-1.83697e-16 -1 1 -1.83697e-16 1499.54 1510)">Inkomst</text><text font-family="Arial,Arial_MSFontService,sans-serif" font-weight="700" font-size="55" transform="matrix(-1.83697e-16 -1 1 -1.83697e-16 1499.54 1284)">per capita</text><text font-family="Arial,Arial_MSFontService,sans-serif" font-weight="700" font-size="55" transform="matrix(1 0 0 1 1640.11 347)">GEOGRAFISK INKOMSTDISTRIBUTION I SVERIGE</text><text font-family="Arial,Arial_MSFontService,sans-serif" font-weight="400" font-size="55" transform="matrix(1 0 0 1 1848.86 413)">Viktad</text><text font-family="Arial,Arial_MSFontService,sans-serif" font-weight="400" font-size="55" transform="matrix(1 0 0 1 2015.74 413)">efter</text><text font-family="Arial,Arial_MSFontService,sans-serif" font-weight="400" font-size="55" transform="matrix(1 0 0 1 2141.21 413)">kommunernas</text><text font-family="Arial,Arial_MSFontService,sans-serif" font-weight="400" font-size="55" transform="matrix(1 0 0 1 2503.87 413)">befolkning</text><text font-family="Arial,Arial_MSFontService,sans-serif" font-weight="400" font-size="50" transform="matrix(1 0 0 1 2380.25 572)">Knivsta</text><text font-family="Arial,Arial_MSFontService,sans-serif" font-weight="400" font-size="50" transform="matrix(1 0 0 1 2380.25 1932)">Högsby</text><text font-family="Arial,Arial_MSFontService,sans-serif" font-weight="400" font-size="50" transform="matrix(1 0 0 1 2380.25 1552)">Forshaga</text><text font-family="Arial,Arial_MSFontService,sans-serif" font-weight="400" font-size="50" transform="matrix(1 0 0 1 2380.25 1667)">Ödeshög</text><text font-family="Arial,Arial_MSFontService,sans-serif" font-weight="400" font-size="50" transform="matrix(1 0 0 1 2380.25 1433)">Halmstad</text><text font-family="Arial,Arial_MSFontService,sans-serif" font-weight="400" font-size="50" transform="matrix(1 0 0 1 2380.25 1090)">Storgöteborg</text><text font-family="Arial,Arial_MSFontService,sans-serif" font-weight="400" font-size="50" transform="matrix(1 0 0 1 1492.2 2252)">Boxen </text><text font-family="Arial,Arial_MSFontService,sans-serif" font-weight="400" font-size="50" transform="matrix(1 0 0 1 1649.18 2252)">täcker</text><text font-family="Arial,Arial_MSFontService,sans-serif" font-weight="400" font-size="50" transform="matrix(1 0 0 1 1799.85 2252)">andra</text><text font-family="Arial,Arial_MSFontService,sans-serif" font-weight="400" font-size="50" transform="matrix(1 0 0 1 1942.51 2252)">och </text><text font-family="Arial,Arial_MSFontService,sans-serif" font-weight="400" font-size="50" transform="matrix(1 0 0 1 2037.61 2252)">tredje</text><text font-family="Arial,Arial_MSFontService,sans-serif" font-weight="400" font-size="50" transform="matrix(1 0 0 1 2177.4 2252)">kvartilen</text><text font-family="Arial,Arial_MSFontService,sans-serif" font-weight="400" font-size="50" transform="matrix(1 0 0 1 2379.07 2252)">(</text><text font-family="Arial,Arial_MSFontService,sans-serif" font-weight="400" font-size="50" transform="matrix(1 0 0 1 2395.69 2252)">från</text><text font-family="Arial,Arial_MSFontService,sans-serif" font-weight="400" font-size="50" transform="matrix(1 0 0 1 2495.95 2252)">Ödeshög</text><text font-family="Arial,Arial_MSFontService,sans-serif" font-weight="400" font-size="50" transform="matrix(1 0 0 1 2714.23 2252)">till</text><text font-family="Arial,Arial_MSFontService,sans-serif" font-weight="400" font-size="50" transform="matrix(1 0 0 1 2776.1 2252)">Halmstad</text><text font-family="Arial,Arial_MSFontService,sans-serif" font-weight="400" font-size="50" transform="matrix(1 0 0 1 2989.23 2252)">)</text><text font-family="Arial,Arial_MSFontService,sans-serif" font-weight="400" font-size="50" transform="matrix(1 0 0 1 1492.2 2313)">Morrhåren</text><text font-family="Arial,Arial_MSFontService,sans-serif" font-weight="400" font-size="50" transform="matrix(1 0 0 1 1737.98 2313)">går</text><text font-family="Arial,Arial_MSFontService,sans-serif" font-weight="400" font-size="50" transform="matrix(1 0 0 1 1824.49 2313)">till Halmstad + 1.5</text><text font-family="Arial,Arial_MSFontService,sans-serif" font-weight="400" font-size="50" transform="matrix(1 0 0 1 2226.1 2313)">×</text><text font-family="Arial,Arial_MSFontService,sans-serif" font-weight="400" font-size="50" transform="matrix(1 0 0 1 2255.32 2313)">(Halmstad−</text><text font-family="Arial,Arial_MSFontService,sans-serif" font-weight="400" font-size="50" transform="matrix(1 0 0 1 2514.28 2313)">Ödeshög</text><text font-family="Arial,Arial_MSFontService,sans-serif" font-weight="400" font-size="50" transform="matrix(1 0 0 1 2718.81 2313)">) och</text><text font-family="Arial,Arial_MSFontService,sans-serif" font-weight="400" font-size="50" transform="matrix(1 0 0 1 1492.2 2373)">min[</text><text font-family="Arial,Arial_MSFontService,sans-serif" font-weight="400" font-size="50" transform="matrix(1 0 0 1 1587.3 2373)">Ödeshög</text><text font-family="Arial,Arial_MSFontService,sans-serif" font-weight="400" font-size="50" transform="matrix(1 0 0 1 1805.58 2373)">− </text><text font-family="Arial,Arial_MSFontService,sans-serif" font-weight="400" font-size="50" transform="matrix(1 0 0 1 1848.55 2373)">1.5</text><text font-family="Arial,Arial_MSFontService,sans-serif" font-weight="400" font-size="50" transform="matrix(1 0 0 1 1918.45 2373)">×</text><text font-family="Arial,Arial_MSFontService,sans-serif" font-weight="400" font-size="50" transform="matrix(1 0 0 1 1947.67 2373)">(Halmstad−</text><text font-family="Arial,Arial_MSFontService,sans-serif" font-weight="400" font-size="50" transform="matrix(1 0 0 1 2206.62 2373)">Ödeshög</text><text font-family="Arial,Arial_MSFontService,sans-serif" font-weight="400" font-size="50" transform="matrix(1 0 0 1 2411.15 2373)">), </text><text font-family="Arial,Arial_MSFontService,sans-serif" font-weight="400" font-size="50" transform="matrix(1 0 0 1 2455.27 2373)">Högsby</text><text font-family="Arial,Arial_MSFontService,sans-serif" font-weight="400" font-size="50" transform="matrix(1 0 0 1 2626.57 2373)">] (Stata </text><text font-family="Arial,Arial_MSFontService,sans-serif" font-weight="400" font-size="50" transform="matrix(1 0 0 1 2801.88 2373)">konventioner</text><text font-family="Arial,Arial_MSFontService,sans-serif" font-weight="400" font-size="50" transform="matrix(1 0 0 1 3090.63 2373)">}</text></g></svg>