<svg width="1313" height="531" xmlns="http://www.w3.org/2000/svg" xmlns:xlink="http://www.w3.org/1999/xlink" xml:space="preserve" overflow="hidden"><defs><clipPath id="clip0"><rect x="1074" y="813" width="1313" height="531"/></clipPath></defs><g clip-path="url(#clip0)" transform="translate(-1074 -813)"><path d="M1074 813 1404 813 1404 1143 1074 1143Z" fill="#006AA7" fill-rule="evenodd"/><text font-family="Arial,Arial_MSFontService,sans-serif" font-weight="400" font-size="60" transform="matrix(1 0 0 1 1124.72 1214)">Flaggblå</text><text font-family="Arial,Arial_MSFontService,sans-serif" font-weight="400" font-size="60" transform="matrix(1 0 0 1 1116.69 1285)">#006AA7</text><path d="M1398 813 1728 813 1728 1143 1398 1143Z" fill="#FECC02" fill-rule="evenodd"/><text font-family="Arial,Arial_MSFontService,sans-serif" font-weight="400" font-size="60" transform="matrix(1 0 0 1 1465.28 1214)">Flaggul</text><text font-family="Arial,Arial_MSFontService,sans-serif" font-weight="400" font-size="60" transform="matrix(1 0 0 1 1433.38 1287)">#</text><text font-family="Aptos,Aptos_MSFontService,sans-serif" font-weight="400" font-size="64" transform="matrix(1 0 0 1 1466.61 1287)">FECC02</text><path d="M1728 813 2058 813 2058 1143 1728 1143Z" fill="#5FAF4A" fill-rule="evenodd"/><text font-family="Arial,Arial_MSFontService,sans-serif" font-weight="400" font-size="60" transform="matrix(1 0 0 1 1784.79 1214)">Lövgrön</text><text font-family="Calibri,Calibri_MSFontService,sans-serif" font-weight="400" font-size="64" transform="matrix(1 0 0 1 1779.43 1287)">#5FAF4A</text><path d="M2057 813 2387 813 2387 1143 2057 1143Z" fill="#C15F8C" fill-rule="evenodd"/><text font-family="Arial,Arial_MSFontService,sans-serif" font-weight="400" font-size="60" transform="matrix(1 0 0 1 2093.94 1214)">Hallonröd</text><text font-family="Calibri,Calibri_MSFontService,sans-serif" font-weight="400" font-size="64" transform="matrix(1 0 0 1 2107.69 1287)">#C15F8C</text></g></svg>