<svg width="1515" height="1347" xmlns="http://www.w3.org/2000/svg" xmlns:xlink="http://www.w3.org/1999/xlink" xml:space="preserve" overflow="hidden"><defs><clipPath id="clip0"><rect x="541" y="1020" width="1515" height="1347"/></clipPath></defs><g clip-path="url(#clip0)" transform="translate(-541 -1020)"><rect x="541" y="1020" width="1515" height="1155" fill="#FFFFFF"/><g><rect x="812.5" y="1287.5" width="1165" height="784" stroke="#BFBFBF" stroke-width="3.4375" stroke-linejoin="round" stroke-miterlimit="10" fill="none"/></g><g><path d="M835 1587.05 880.029 1610.05 925.03 1605.05 970.032 1608.05 1014.03 1568.05 1059.03 1558.05 1104.04 1531 1149.04 1553.05 1194.04 1644.05 1238.04 1749.06 1283.04 1690.06 1328.04 1691.06 1373.05 1742.06 1418.05 1760.06 1462.05 1763.06 1507.05 1740.06 1552.05 1761.06 1597.05 1789.06 1642.05 1815.06 1686.06 1819.06 1731.06 1896.06 1776.06 1858.06 1821.06 1892.06 1866.06 1934.06 1910.06 1953.06 1955 1974.06 1955 2072 1910.06 2072 1866.06 2072 1821.06 2072 1776.06 2072 1731.06 2072 1686.06 2072 1642.05 2072 1597.05 2072 1552.05 2072 1507.05 2072 1462.05 2072 1418.05 2072 1373.05 2072 1328.04 2072 1283.04 2072 1238.04 2072 1194.04 2072 1149.04 2072 1104.04 2072 1059.03 2072 1014.03 2072 970.032 2072 925.03 2072 880.029 2072 835 2072Z" fill="#F2F2F2"/></g><g><path d="M0 0 0.000360892 784" stroke="#BFBFBF" stroke-width="3.4375" stroke-linejoin="round" stroke-miterlimit="10" fill="none" fill-rule="evenodd" transform="matrix(1 0 0 -1 812.5 2071.5)"/></g><g><path d="M812.5 2071.5 1977.5 2071.5" stroke="#BFBFBF" stroke-width="3.4375" stroke-linejoin="round" stroke-miterlimit="10" fill="none" fill-rule="evenodd"/></g><g><path d="M835 1587.05 880.029 1610.05 925.03 1605.05 970.032 1608.05 1014.03 1568.05 1059.03 1558.05 1104.04 1531 1149.04 1553.05 1194.04 1644.05 1238.04 1749.06 1283.04 1690.06 1328.04 1691.06 1373.05 1742.06 1418.05 1760.06 1462.05 1763.06 1507.05 1740.06 1552.05 1761.06 1597.05 1789.06 1642.05 1815.06 1686.06 1819.06 1731.06 1896.06 1776.06 1858.06 1821.06 1892.06 1866.06 1934.06 1910.06 1953.06 1955 1974" stroke="#5FAF4A" stroke-width="10.3125" stroke-linecap="round" stroke-linejoin="round" stroke-miterlimit="10" fill="none"/></g><g><path d="M835.5 1641.5 880.529 1654.55 924.531 1676.56 969.532 1698.56 1014.53 1690.56 1059.53 1694.56 1104.54 1677.56 1148.54 1678.56 1193.54 1718.56 1238.54 1811.56 1283.54 1787.56 1328.54 1772.56 1372.55 1792.56 1417.55 1796.56 1462.55 1774.56 1507.55 1745.56 1551.55 1726.56 1596.55 1699.56 1641.55 1691.56 1686.56 1693.56 1731.56 1821.5 1775.56 1741.56 1820.56 1715.56 1865.56 1735.56 1910.56 1736.56 1955.5 1733.56" stroke="#006AA7" stroke-width="4.58333" stroke-linecap="round" stroke-linejoin="round" stroke-miterlimit="10" fill="none"/></g><g><path d="M835.5 1694.56 880.529 1710.56 924.531 1716.56 969.532 1712.56 1014.53 1692.56 1059.53 1686.56 1104.54 1681.5 1148.54 1684.56 1193.54 1724.56 1238.54 1800.56 1283.54 1782.56 1328.54 1792.56 1372.55 1811.56 1417.55 1828.56 1462.55 1840.56 1507.55 1849.56 1551.55 1862.56 1596.55 1866.56 1641.55 1874.56 1686.56 1891.56 1731.56 1989.5 1775.56 1939.56 1820.56 1939.56 1865.56 1942.56 1910.56 1946.56 1955.5 1951.56" stroke="#C00000" stroke-width="4.58333" stroke-linecap="round" stroke-linejoin="round" stroke-miterlimit="10" fill="none"/></g><g><text font-family="Arial,Arial_MSFontService,sans-serif" font-weight="400" font-size="50" transform="matrix(1 0 0 1 675.322 2088)">40 ¢</text></g><g><text font-family="Arial,Arial_MSFontService,sans-serif" font-weight="400" font-size="50" transform="matrix(1 0 0 1 675.322 1696)">50 ¢</text></g><g><text font-family="Arial,Arial_MSFontService,sans-serif" font-weight="400" font-size="50" transform="matrix(1 0 0 1 675.322 1304)">60 ¢</text></g><g><text font-family="Arial,Arial_MSFontService,sans-serif" font-weight="400" font-size="50" transform="matrix(1 0 0 1 779.234 2135)">2000</text></g><g><text font-family="Arial,Arial_MSFontService,sans-serif" font-weight="400" font-size="50" transform="matrix(1 0 0 1 1003.21 2135)">2005</text></g><g><text font-family="Arial,Arial_MSFontService,sans-serif" font-weight="400" font-size="50" transform="matrix(1 0 0 1 1227.18 2135)">2010</text></g><g><text font-family="Arial,Arial_MSFontService,sans-serif" font-weight="400" font-size="50" transform="matrix(1 0 0 1 1451.15 2135)">2015</text></g><g><text font-family="Arial,Arial_MSFontService,sans-serif" font-weight="400" font-size="50" transform="matrix(1 0 0 1 1675.12 2135)">2020</text></g><g><text font-family="Arial,Arial_MSFontService,sans-serif" font-weight="400" font-size="50" transform="matrix(1 0 0 1 1899.09 2135)">2025</text></g><g><text fill="#595959" font-family="Arial,Arial_MSFontService,sans-serif" font-weight="700" font-size="55" transform="matrix(6.12323e-17 -1 1 6.12323e-17 641.13 2114)">BNP skapad av 1 dollar av kapital</text></g><g><text font-family="Arial,Arial_MSFontService,sans-serif" font-weight="700" font-size="60" transform="matrix(1 0 0 1 931.571 1110)">KAPITALPRODUKTIVITET</text></g><g><rect x="801" y="1185" width="88" height="23" fill="#F2F2F2"/></g><g><text font-family="Arial,Arial_MSFontService,sans-serif" font-weight="400" font-size="46" transform="matrix(1 0 0 1 898.435 1211)">Area</text></g><g><path d="M1045 1196 1133 1196" stroke="#5FAF4A" stroke-width="10.3125" stroke-linecap="round" stroke-linejoin="round" stroke-miterlimit="10" fill="none" fill-rule="evenodd"/></g><g><text font-family="Arial,Arial_MSFontService,sans-serif" font-weight="400" font-size="46" transform="matrix(1 0 0 1 1141.79 1211)">Sverige</text></g><g><path d="M1346.5 1196.5 1434.5 1196.5" stroke="#006AA7" stroke-width="4.58333" stroke-linecap="round" stroke-linejoin="round" stroke-miterlimit="10" fill="none" fill-rule="evenodd"/></g><g><text font-family="Arial,Arial_MSFontService,sans-serif" font-weight="400" font-size="46" transform="matrix(1 0 0 1 1443.71 1211)">EU</text></g><g><path d="M1556.5 1196.5 1644.5 1196.5" stroke="#C00000" stroke-width="4.58333" stroke-linecap="round" stroke-linejoin="round" stroke-miterlimit="10" fill="none" fill-rule="evenodd"/></g><g><text font-family="Arial,Arial_MSFontService,sans-serif" font-weight="400" font-size="46" transform="matrix(1 0 0 1 1653.92 1211)">Världen</text></g><text font-family="Arial,Arial_MSFontService,sans-serif" font-style="italic" font-weight="700" font-size="46" transform="matrix(1 0 0 1 1295.59 1415)">Årlig tillväxt 2015 </text><text font-family="Aptos,Aptos_MSFontService,sans-serif" font-weight="700" font-size="50" transform="matrix(1 0 0 1 1679.44 1415)">–</text><text font-family="Arial,Arial_MSFontService,sans-serif" font-style="italic" font-weight="700" font-size="46" transform="matrix(1 0 0 1 1702.36 1415)">2025</text><text font-family="Arial,Arial_MSFontService,sans-serif" font-style="italic" font-weight="400" font-size="46" transform="matrix(1 0 0 1 1295.59 1475)">Sverige</text><text font-family="Aptos,Aptos_MSFontService,sans-serif" font-style="italic" font-weight="400" font-size="50" transform="matrix(1 0 0 1 1460.59 1475)">−</text><text font-family="Arial,Arial_MSFontService,sans-serif" font-style="italic" font-weight="400" font-size="46" transform="matrix(1 0 0 1 1487.52 1475)">1.3%</text><text font-family="Arial,Arial_MSFontService,sans-serif" font-style="italic" font-weight="400" font-size="46" transform="matrix(1 0 0 1 1295.59 1534)">EU</text><text font-family="Arial,Arial_MSFontService,sans-serif" font-style="italic" font-weight="400" font-size="46" transform="matrix(1 0 0 1 1460.59 1534)">+0.1%</text><text font-family="Arial,Arial_MSFontService,sans-serif" font-style="italic" font-weight="400" font-size="46" transform="matrix(1 0 0 1 1295.59 1591)">Världen</text><text font-family="Aptos,Aptos_MSFontService,sans-serif" font-style="italic" font-weight="400" font-size="50" transform="matrix(1 0 0 1 1460.59 1591)">−</text><text font-family="Arial,Arial_MSFontService,sans-serif" font-style="italic" font-weight="400" font-size="46" transform="matrix(1 0 0 1 1487.52 1591)">0.6%</text><rect x="807" y="1163" width="226" height="66" fill="#FFFFFF"/><text font-family="Arial,Arial_MSFontService,sans-serif" font-weight="400" font-size="46" transform="matrix(1 0 0 1 690.673 2274)">Kapital =</text><path d="M884.81 2233.85 909.574 2233.85 909.574 2237.26 889.795 2237.26 901.947 2253.39 888.954 2270.5 909.775 2270.5 909.775 2273.85 884.47 2273.85 884.47 2269.95 896.882 2253.55 884.81 2237.49Z"/><text fill="#000000" fill-opacity="0" font-family="Arial,Arial_MSFontService,sans-serif" font-size="40" x="884.47" y="2268.85">∑ </text><text font-family="Arial,Arial_MSFontService,sans-serif" font-weight="400" font-size="46" transform="matrix(1 0 0 1 922.705 2274)">Årlig</text><text font-family="Arial,Arial_MSFontService,sans-serif" font-weight="400" font-size="46" transform="matrix(1 0 0 1 1026.98 2274)">fast </text><text font-family="Arial,Arial_MSFontService,sans-serif" font-weight="400" font-size="46" transform="matrix(1 0 0 1 1112.91 2274)">kapitalinvestering</text><text font-family="Arial,Arial_MSFontService,sans-serif" font-weight="400" font-size="46" transform="matrix(1 0 0 1 1477.86 2274)">avskrivet</text><text font-family="Arial,Arial_MSFontService,sans-serif" font-weight="400" font-size="46" transform="matrix(1 0 0 1 1670.93 2274)">över</text><text font-family="Arial,Arial_MSFontService,sans-serif" font-weight="400" font-size="46" transform="matrix(1 0 0 1 1772.34 2274)">20 </text><text font-family="Arial,Arial_MSFontService,sans-serif" font-weight="400" font-size="46" transform="matrix(1 0 0 1 1835.36 2274)">år</text><text font-family="Arial,Arial_MSFontService,sans-serif" font-weight="400" font-size="46" transform="matrix(1 0 0 1 690.673 2329)">Källa: TelluBase; S. Canbäck (Tellusant) </text><text font-family="Arial,Arial_MSFontService,sans-serif" font-weight="400" font-size="46" transform="matrix(1 0 0 1 1521.98 2329)">analys</text></g></svg>