<svg width="1695" height="1547" xmlns="http://www.w3.org/2000/svg" xmlns:xlink="http://www.w3.org/1999/xlink" xml:space="preserve" overflow="hidden"><defs><clipPath id="clip0"><rect x="350" y="771" width="1695" height="1547"/></clipPath></defs><g clip-path="url(#clip0)" transform="translate(-350 -771)"><rect x="350" y="771" width="1695" height="1375" fill="#FFFFFF"/><g><path d="M0 0 0.000360892 1090" stroke="#D9D9D9" stroke-width="3.4375" stroke-linejoin="round" stroke-miterlimit="10" fill="none" fill-rule="evenodd" transform="matrix(1 0 0 -1 1204.5 2095.5)"/></g><g><path d="M1090.5 2069.5 1204.5 2069.5" stroke="#BFBFBF" stroke-width="11.4583" stroke-linejoin="round" stroke-miterlimit="10" fill="none"/></g><g><path d="M1167.5 2017.5 1204.5 2017.5" stroke="#BFBFBF" stroke-width="11.4583" stroke-linejoin="round" stroke-miterlimit="10" fill="none"/></g><g><path d="M1356.5 1965.5 1204.5 1965.5" stroke="#BFBFBF" stroke-width="11.4583" stroke-linejoin="round" stroke-miterlimit="10" fill="none"/></g><g><path d="M1413.5 1913.5 1204.5 1913.5" stroke="#BFBFBF" stroke-width="11.4583" stroke-linejoin="round" stroke-miterlimit="10" fill="none"/></g><g><path d="M1464.5 1861.5 1204.5 1861.5" stroke="#BFBFBF" stroke-width="11.4583" stroke-linejoin="round" stroke-miterlimit="10" fill="none"/></g><g><path d="M1370.5 1758.5 1204.5 1758.5" stroke="#BFBFBF" stroke-width="11.4583" stroke-linejoin="round" stroke-miterlimit="10" fill="none"/></g><g><path d="M1459.5 1706.5 1204.5 1706.5" stroke="#BFBFBF" stroke-width="11.4583" stroke-linejoin="round" stroke-miterlimit="10" fill="none"/></g><g><path d="M1476.5 1654.5 1204.5 1654.5" stroke="#BFBFBF" stroke-width="11.4583" stroke-linejoin="round" stroke-miterlimit="10" fill="none"/></g><g><path d="M1688.5 1602.5 1204.5 1602.5" stroke="#BFBFBF" stroke-width="11.4583" stroke-linejoin="round" stroke-miterlimit="10" fill="none"/></g><g><path d="M1843.5 1550.5 1204.5 1550.5" stroke="#BFBFBF" stroke-width="11.4583" stroke-linejoin="round" stroke-miterlimit="10" fill="none"/></g><g><path d="M1450.5 1446.5 1204.5 1446.5" stroke="#BFBFBF" stroke-width="11.4583" stroke-linejoin="round" stroke-miterlimit="10" fill="none"/></g><g><path d="M1522.5 1394.5 1204.5 1394.5" stroke="#BFBFBF" stroke-width="11.4583" stroke-linejoin="round" stroke-miterlimit="10" fill="none"/></g><g><path d="M1452.5 1342.5 1204.5 1342.5" stroke="#BFBFBF" stroke-width="11.4583" stroke-linejoin="round" stroke-miterlimit="10" fill="none"/></g><g><path d="M1476.5 1239.5 1204.5 1239.5" stroke="#BFBFBF" stroke-width="11.4583" stroke-linejoin="round" stroke-miterlimit="10" fill="none"/></g><g><path d="M1400.5 1187.5 1204.5 1187.5" stroke="#BFBFBF" stroke-width="11.4583" stroke-linejoin="round" stroke-miterlimit="10" fill="none"/></g><g><path d="M1350.5 1135.5 1204.5 1135.5" stroke="#BFBFBF" stroke-width="11.4583" stroke-linejoin="round" stroke-miterlimit="10" fill="none"/></g><g><path d="M1432.5 1083.5 1204.5 1083.5" stroke="#BFBFBF" stroke-width="11.4583" stroke-linejoin="round" stroke-miterlimit="10" fill="none"/></g><g><path d="M1328.5 1031.5 1204.5 1031.5" stroke="#BFBFBF" stroke-width="11.4583" stroke-linejoin="round" stroke-miterlimit="10" fill="none"/></g><g><path d="M1101.07 2069.96C1101.07 2076.03 1096.15 2080.96 1090.07 2080.96 1084 2080.96 1079.07 2076.03 1079.07 2069.96 1079.07 2063.88 1084 2058.96 1090.07 2058.96 1096.15 2058.96 1101.07 2063.88 1101.07 2069.96Z" stroke="#0070C0" stroke-width="22.9167" stroke-linejoin="round" stroke-miterlimit="10" fill="#0070C0"/><path d="M1178.07 2017.96C1178.07 2024.03 1173.15 2028.96 1167.07 2028.96 1161 2028.96 1156.07 2024.03 1156.07 2017.96 1156.07 2011.88 1161 2006.96 1167.07 2006.96 1173.15 2006.96 1178.07 2011.88 1178.07 2017.96Z" stroke="#0070C0" stroke-width="22.9167" stroke-linejoin="round" stroke-miterlimit="10" fill="#0070C0"/><path d="M1367.07 1965.96C1367.07 1972.03 1362.15 1976.96 1356.07 1976.96 1350 1976.96 1345.07 1972.03 1345.07 1965.96 1345.07 1959.88 1350 1954.96 1356.07 1954.96 1362.15 1954.96 1367.07 1959.88 1367.07 1965.96Z" stroke="#0070C0" stroke-width="22.9167" stroke-linejoin="round" stroke-miterlimit="10" fill="#0070C0"/><path d="M1424.07 1913.96C1424.07 1920.03 1419.15 1924.96 1413.07 1924.96 1407 1924.96 1402.07 1920.03 1402.07 1913.96 1402.07 1907.88 1407 1902.96 1413.07 1902.96 1419.15 1902.96 1424.07 1907.88 1424.07 1913.96Z" stroke="#0070C0" stroke-width="22.9167" stroke-linejoin="round" stroke-miterlimit="10" fill="#0070C0"/><path d="M1475.07 1861.96C1475.07 1868.03 1470.15 1872.96 1464.07 1872.96 1458 1872.96 1453.07 1868.03 1453.07 1861.96 1453.07 1855.88 1458 1850.96 1464.07 1850.96 1470.15 1850.96 1475.07 1855.88 1475.07 1861.96Z" stroke="#0070C0" stroke-width="22.9167" stroke-linejoin="round" stroke-miterlimit="10" fill="#0070C0"/><path d="M1381.07 1758.96C1381.07 1765.03 1376.15 1769.96 1370.07 1769.96 1364 1769.96 1359.07 1765.03 1359.07 1758.96 1359.07 1752.88 1364 1747.96 1370.07 1747.96 1376.15 1747.96 1381.07 1752.88 1381.07 1758.96Z" stroke="#0070C0" stroke-width="22.9167" stroke-linejoin="round" stroke-miterlimit="10" fill="#0070C0"/><path d="M1470.07 1706.96C1470.07 1713.03 1465.15 1717.96 1459.07 1717.96 1453 1717.96 1448.07 1713.03 1448.07 1706.96 1448.07 1700.88 1453 1695.96 1459.07 1695.96 1465.15 1695.96 1470.07 1700.88 1470.07 1706.96Z" stroke="#0070C0" stroke-width="22.9167" stroke-linejoin="round" stroke-miterlimit="10" fill="#0070C0"/><path d="M1487.07 1654.96C1487.07 1661.03 1482.15 1665.96 1476.07 1665.96 1470 1665.96 1465.07 1661.03 1465.07 1654.96 1465.07 1648.88 1470 1643.96 1476.07 1643.96 1482.15 1643.96 1487.07 1648.88 1487.07 1654.96Z" stroke="#0070C0" stroke-width="22.9167" stroke-linejoin="round" stroke-miterlimit="10" fill="#0070C0"/><path d="M1699.07 1602.96C1699.07 1609.03 1694.15 1613.96 1688.07 1613.96 1682 1613.96 1677.07 1609.03 1677.07 1602.96 1677.07 1596.88 1682 1591.96 1688.07 1591.96 1694.15 1591.96 1699.07 1596.88 1699.07 1602.96Z" stroke="#0070C0" stroke-width="22.9167" stroke-linejoin="round" stroke-miterlimit="10" fill="#0070C0"/><path d="M1854.07 1550.96C1854.07 1557.03 1849.15 1561.96 1843.07 1561.96 1837 1561.96 1832.07 1557.03 1832.07 1550.96 1832.07 1544.88 1837 1539.96 1843.07 1539.96 1849.15 1539.96 1854.07 1544.88 1854.07 1550.96Z" stroke="#0070C0" stroke-width="22.9167" stroke-linejoin="round" stroke-miterlimit="10" fill="#0070C0"/><path d="M1461.07 1446.96C1461.07 1453.03 1456.15 1457.96 1450.07 1457.96 1444 1457.96 1439.07 1453.03 1439.07 1446.96 1439.07 1440.88 1444 1435.96 1450.07 1435.96 1456.15 1435.96 1461.07 1440.88 1461.07 1446.96Z" stroke="#0070C0" stroke-width="22.9167" stroke-linejoin="round" stroke-miterlimit="10" fill="#0070C0"/><path d="M1533.07 1394.96C1533.07 1401.03 1528.15 1405.96 1522.07 1405.96 1516 1405.96 1511.07 1401.03 1511.07 1394.96 1511.07 1388.88 1516 1383.96 1522.07 1383.96 1528.15 1383.96 1533.07 1388.88 1533.07 1394.96Z" stroke="#0070C0" stroke-width="22.9167" stroke-linejoin="round" stroke-miterlimit="10" fill="#0070C0"/><path d="M1487.07 1239.96C1487.07 1246.03 1482.15 1250.96 1476.07 1250.96 1470 1250.96 1465.07 1246.03 1465.07 1239.96 1465.07 1233.88 1470 1228.96 1476.07 1228.96 1482.15 1228.96 1487.07 1233.88 1487.07 1239.96Z" stroke="#0070C0" stroke-width="22.9167" stroke-linejoin="round" stroke-miterlimit="10" fill="#0070C0"/><path d="M1411.07 1187.96C1411.07 1194.03 1406.15 1198.96 1400.07 1198.96 1394 1198.96 1389.07 1194.03 1389.07 1187.96 1389.07 1181.88 1394 1176.96 1400.07 1176.96 1406.15 1176.96 1411.07 1181.88 1411.07 1187.96Z" stroke="#0070C0" stroke-width="22.9167" stroke-linejoin="round" stroke-miterlimit="10" fill="#0070C0"/><path d="M1361.07 1135.96C1361.07 1142.03 1356.15 1146.96 1350.07 1146.96 1344 1146.96 1339.07 1142.03 1339.07 1135.96 1339.07 1129.88 1344 1124.96 1350.07 1124.96 1356.15 1124.96 1361.07 1129.88 1361.07 1135.96Z" stroke="#0070C0" stroke-width="22.9167" stroke-linejoin="round" stroke-miterlimit="10" fill="#0070C0"/><path d="M1443.07 1083.96C1443.07 1090.03 1438.15 1094.96 1432.07 1094.96 1426 1094.96 1421.07 1090.03 1421.07 1083.96 1421.07 1077.88 1426 1072.96 1432.07 1072.96 1438.15 1072.96 1443.07 1077.88 1443.07 1083.96Z" stroke="#0070C0" stroke-width="22.9167" stroke-linejoin="round" stroke-miterlimit="10" fill="#0070C0"/><path d="M1339.07 1031.96C1339.07 1038.03 1334.15 1042.96 1328.07 1042.96 1322 1042.96 1317.07 1038.03 1317.07 1031.96 1317.07 1025.88 1322 1020.96 1328.07 1020.96 1334.15 1020.96 1339.07 1025.88 1339.07 1031.96Z" stroke="#0070C0" stroke-width="22.9167" stroke-linejoin="round" stroke-miterlimit="10" fill="#0070C0"/></g><g><path d="M1463.02 1342.5C1463.02 1348.31 1458.31 1353.02 1452.5 1353.02 1446.69 1353.02 1441.98 1348.31 1441.98 1342.5 1441.98 1336.69 1446.69 1331.98 1452.5 1331.98 1458.31 1331.98 1463.02 1336.69 1463.02 1342.5Z" stroke="#0070C0" stroke-width="22.9167" stroke-linejoin="round" stroke-miterlimit="10" fill="#006AA7"/></g><g><text font-family="Arial,Arial_MSFontService,sans-serif" font-weight="400" font-size="50" transform="matrix(1 0 0 1 912.604 2088)">-</text></g><g><text font-family="Arial,Arial_MSFontService,sans-serif" font-weight="400" font-size="50" transform="matrix(1 0 0 1 929.402 2088)">0.9%</text></g><g><text font-family="Arial,Arial_MSFontService,sans-serif" font-weight="400" font-size="50" transform="matrix(1 0 0 1 989.629 2031)">-</text></g><g><text font-family="Arial,Arial_MSFontService,sans-serif" font-weight="400" font-size="50" transform="matrix(1 0 0 1 1006.43 2031)">0.3%</text></g><g><text font-family="Arial,Arial_MSFontService,sans-serif" font-weight="400" font-size="50" transform="matrix(1 0 0 1 1395.75 1984)">1.2%</text></g><g><text font-family="Arial,Arial_MSFontService,sans-serif" font-weight="400" font-size="50" transform="matrix(1 0 0 1 1452.85 1932)">1.6%</text></g><g><text font-family="Arial,Arial_MSFontService,sans-serif" font-weight="400" font-size="50" transform="matrix(1 0 0 1 1503.53 1880)">2.0%</text></g><g><text font-family="Arial,Arial_MSFontService,sans-serif" font-weight="400" font-size="50" transform="matrix(1 0 0 1 1409.9 1776)">1.3%</text></g><g><text font-family="Arial,Arial_MSFontService,sans-serif" font-weight="400" font-size="50" transform="matrix(1 0 0 1 1498.83 1724)">1.9%</text></g><g><text font-family="Arial,Arial_MSFontService,sans-serif" font-weight="400" font-size="50" transform="matrix(1 0 0 1 1515.59 1672)">2.1%</text></g><g><text font-family="Arial,Arial_MSFontService,sans-serif" font-weight="400" font-size="50" transform="matrix(1 0 0 1 1727.07 1620)">3.7%</text></g><g><text font-family="Arial,Arial_MSFontService,sans-serif" font-weight="400" font-size="50" transform="matrix(1 0 0 1 1882.88 1568)">4.9%</text></g><g><text font-family="Arial,Arial_MSFontService,sans-serif" font-weight="400" font-size="50" transform="matrix(1 0 0 1 1489.04 1465)">1.9%</text></g><g><text font-family="Arial,Arial_MSFontService,sans-serif" font-weight="400" font-size="50" transform="matrix(1 0 0 1 1561.59 1413)">2.4%</text></g><g><text font-family="Arial,Arial_MSFontService,sans-serif" font-weight="400" font-size="50" transform="matrix(1 0 0 1 1491.19 1361)">1.9%</text></g><g><text font-family="Arial,Arial_MSFontService,sans-serif" font-weight="400" font-size="50" transform="matrix(1 0 0 1 1515.32 1257)">2.1%</text></g><g><text font-family="Arial,Arial_MSFontService,sans-serif" font-weight="400" font-size="50" transform="matrix(1 0 0 1 1439.4 1205)">1.5%</text></g><g><text font-family="Arial,Arial_MSFontService,sans-serif" font-weight="400" font-size="50" transform="matrix(1 0 0 1 1389.49 1153)">1.1%</text></g><g><text font-family="Arial,Arial_MSFontService,sans-serif" font-weight="400" font-size="50" transform="matrix(1 0 0 1 1471.16 1101)">1.7%</text></g><g><text font-family="Arial,Arial_MSFontService,sans-serif" font-weight="400" font-size="50" transform="matrix(1 0 0 1 1367.9 1049)">0.9%</text></g><g><text font-family="Arial,Arial_MSFontService,sans-serif" font-weight="400" font-size="50" transform="matrix(1 0 0 1 813.912 2086)">Irak</text></g><g><text font-family="Arial,Arial_MSFontService,sans-serif" font-weight="400" font-size="50" transform="matrix(1 0 0 1 687.779 2034)">Sydafrika</text></g><g><text font-family="Arial,Arial_MSFontService,sans-serif" font-weight="400" font-size="50" transform="matrix(1 0 0 1 704.576 1982)">Brasilien</text></g><g><text font-family="Arial,Arial_MSFontService,sans-serif" font-weight="400" font-size="50" transform="matrix(1 0 0 1 704.577 1930)">Pakistan</text></g><g><text font-family="Arial,Arial_MSFontService,sans-serif" font-weight="400" font-size="50" transform="matrix(1 0 0 1 704.508 1878)">Thailand</text></g><g><text font-family="Arial,Arial_MSFontService,sans-serif" font-weight="400" font-size="50" transform="matrix(1 0 0 1 760.563 1774)">Japan</text></g><g><text font-family="Arial,Arial_MSFontService,sans-serif" font-weight="400" font-size="50" transform="matrix(1 0 0 1 827.937 1723)">EU</text></g><g><text font-family="Arial,Arial_MSFontService,sans-serif" font-weight="400" font-size="50" transform="matrix(1 0 0 1 794.318 1671)">USA</text></g><g><text font-family="Arial,Arial_MSFontService,sans-serif" font-weight="400" font-size="50" transform="matrix(1 0 0 1 760.562 1619)">Indien</text></g><g><text font-family="Arial,Arial_MSFontService,sans-serif" font-weight="400" font-size="50" transform="matrix(1 0 0 1 797.046 1567)">Kina</text></g><g><text font-family="Arial,Arial_MSFontService,sans-serif" font-weight="400" font-size="50" transform="matrix(1 0 0 1 379.366 1463)">Avancerade ekonomier</text></g><g><text font-family="Arial,Arial_MSFontService,sans-serif" font-weight="400" font-size="50" transform="matrix(1 0 0 1 600.878 1411)">Tillväxtländer</text></g><g><text font-family="Arial,Arial_MSFontService,sans-serif" font-weight="400" font-size="50" transform="matrix(1 0 0 1 724.148 1359)">Världen</text></g><g><text font-family="Arial,Arial_MSFontService,sans-serif" font-weight="400" font-size="50" transform="matrix(1 0 0 1 735.354 1255)">Europa</text></g><g><text font-family="Arial,Arial_MSFontService,sans-serif" font-weight="400" font-size="50" transform="matrix(1 0 0 1 631.61 1203)">Nordeuropa</text></g><g><text font-family="Arial,Arial_MSFontService,sans-serif" font-weight="400" font-size="50" transform="matrix(1 0 0 1 583.988 1152)">Storbritannien</text></g><g><text font-family="Arial,Arial_MSFontService,sans-serif" font-weight="400" font-size="50" transform="matrix(1 0 0 1 693.393 1100)">Danmark</text></g><g><text font-family="Arial,Arial_MSFontService,sans-serif" font-weight="400" font-size="50" transform="matrix(1 0 0 1 726.989 1048)">Sverige</text></g><g><text font-family="Arial,Arial_MSFontService,sans-serif" font-weight="700" font-size="60" transform="matrix(1 0 0 1 834.712 862)">ARBETSPRODUKTIVITET</text></g><g><text font-family="Arial,Arial_MSFontService,sans-serif" font-weight="400" font-size="55" transform="matrix(1 0 0 1 788.81 935)">Årlig tillväxt 2015</text></g><g><text font-family="Arial,Arial_MSFontService,sans-serif" font-weight="400" font-size="55" transform="matrix(1 0 0 1 1204.59 935)">-</text></g><g><text font-family="Arial,Arial_MSFontService,sans-serif" font-weight="400" font-size="55" transform="matrix(1 0 0 1 1222.9 935)">2025 i BNP/AFB</text></g><text font-family="Arial,Arial_MSFontService,sans-serif" font-weight="400" font-size="46" transform="matrix(1 0 0 1 616.339 2225)">BNP = </text><text font-family="Arial,Arial_MSFontService,sans-serif" font-weight="400" font-size="46" transform="matrix(1 0 0 1 762.432 2225)">Bruttonationalprodukt</text><text font-family="Arial,Arial_MSFontService,sans-serif" font-weight="400" font-size="46" transform="matrix(1 0 0 1 1194.98 2225)">; AFB = </text><text font-family="Arial,Arial_MSFontService,sans-serif" font-weight="400" font-size="46" transform="matrix(1 0 0 1 1361.13 2225)">Arbetsför</text><text font-family="Arial,Arial_MSFontService,sans-serif" font-weight="400" font-size="46" transform="matrix(1 0 0 1 1558.79 2225)">befolkning</text><text font-family="Arial,Arial_MSFontService,sans-serif" font-weight="400" font-size="46" transform="matrix(1 0 0 1 616.339 2280)">Källa: TelluBase; S. Canbäck (Tellusant) </text><text font-family="Arial,Arial_MSFontService,sans-serif" font-weight="400" font-size="46" transform="matrix(1 0 0 1 1447.64 2280)">tabulering</text></g></svg>