<svg width="2113" height="435" xmlns="http://www.w3.org/2000/svg" xmlns:xlink="http://www.w3.org/1999/xlink" xml:space="preserve" overflow="hidden"><g transform="translate(-149 -619)"><rect x="678" y="619" width="264" height="264" fill="#006AA7"/><rect x="1734" y="619" width="264" height="264" fill="#FECC02"/><rect x="942" y="619" width="264" height="264" fill="#3C9ED9"/><rect x="150" y="619" width="264" height="264" fill="#C84C65"/><rect x="1470" y="619" width="264" height="264" fill="#9CCB47"/><rect x="414" y="619" width="264" height="264" fill="#B96AD6"/><rect x="1206" y="619" width="264" height="264" fill="#4A9B45"/><rect x="1998" y="619" width="264" height="264" fill="#F08A5A"/><text font-family="Arial,Arial_MSFontService,sans-serif" font-weight="400" font-size="50" transform="matrix(1 0 0 1 1282.1 951)">Gran</text><text font-family="Arial,Arial_MSFontService,sans-serif" font-weight="400" font-size="50" transform="matrix(1 0 0 1 1225.38 1012)">#</text><text font-family="Arial,Arial_MSFontService,sans-serif" font-weight="400" font-size="50" transform="matrix(1 0 0 1 1253.45 1012)">BD77DA</text><text font-family="Arial,Arial_MSFontService,sans-serif" font-weight="400" font-size="50" transform="matrix(1 0 0 1 506.436 951)">Lila</text><text font-family="Aptos,Aptos_MSFontService,sans-serif" font-weight="400" font-size="50" transform="matrix(1 0 0 1 444.836 1009)">#</text><text font-family="Aptos,Aptos_MSFontService,sans-serif" font-weight="400" font-size="50" transform="matrix(1 0 0 1 471.763 1009)">B96AD6</text><text font-family="Arial,Arial_MSFontService,sans-serif" font-weight="400" font-size="50" transform="matrix(1 0 0 1 712.846 951)">Flaggbl</text><text font-family="Arial,Arial_MSFontService,sans-serif" font-weight="400" font-size="50" transform="matrix(1 0 0 1 878.992 951)">å</text><text font-family="Aptos,Aptos_MSFontService,sans-serif" font-weight="400" font-size="50" transform="matrix(1 0 0 1 712.846 1009)">#</text><text font-family="Aptos,Aptos_MSFontService,sans-serif" font-weight="400" font-size="50" transform="matrix(1 0 0 1 739.773 1009)">006AA7</text><text font-family="Arial,Arial_MSFontService,sans-serif" font-weight="400" font-size="50" transform="matrix(1 0 0 1 1028.97 951)">Hav</text><text font-family="Aptos,Aptos_MSFontService,sans-serif" font-weight="400" font-size="50" transform="matrix(1 0 0 1 971.403 1009)">#</text><text font-family="Aptos,Aptos_MSFontService,sans-serif" font-weight="400" font-size="50" transform="matrix(1 0 0 1 998.33 1009)">3C9ED9</text><text font-family="Arial,Arial_MSFontService,sans-serif" font-weight="400" font-size="50" transform="matrix(1 0 0 1 206.044 951)">Lingon</text><text font-family="Aptos,Aptos_MSFontService,sans-serif" font-weight="400" font-size="50" transform="matrix(1 0 0 1 179.69 1009)">#</text><text font-family="Aptos,Aptos_MSFontService,sans-serif" font-weight="400" font-size="50" transform="matrix(1 0 0 1 206.617 1009)">C84C65</text><text font-family="Arial,Arial_MSFontService,sans-serif" font-weight="400" font-size="50" transform="matrix(1 0 0 1 2033.13 951)">Rönnbär</text><text font-family="Aptos,Aptos_MSFontService,sans-serif" font-weight="400" font-size="50" transform="matrix(1 0 0 1 2033.13 1009)">#F08A5A</text><text font-family="Arial,Arial_MSFontService,sans-serif" font-weight="400" font-size="50" transform="matrix(1 0 0 1 1544.38 951)">Björ</text><text font-family="Arial,Arial_MSFontService,sans-serif" font-weight="400" font-size="50" transform="matrix(1 0 0 1 1634.33 951)">k</text><text font-family="Aptos,Aptos_MSFontService,sans-serif" font-weight="400" font-size="50" transform="matrix(1 0 0 1 1497.97 1009)">#9CCB47</text><text font-family="Arial,Arial_MSFontService,sans-serif" font-weight="400" font-size="50" transform="matrix(1 0 0 1 1782.88 951)">Flaggul</text><text font-family="Aptos,Aptos_MSFontService,sans-serif" font-weight="400" font-size="50" transform="matrix(1 0 0 1 1763.4 1009)">#FECC02</text></g></svg>