<svg width="1313" height="505" xmlns="http://www.w3.org/2000/svg" xmlns:xlink="http://www.w3.org/1999/xlink" xml:space="preserve" overflow="hidden"><defs><clipPath id="clip0"><rect x="1074" y="813" width="1313" height="505"/></clipPath></defs><g clip-path="url(#clip0)" transform="translate(-1074 -813)"><rect x="1074" y="813" width="330" height="302" fill="#006AA7"/><text font-family="Arial,Arial_MSFontService,sans-serif" font-weight="400" font-size="60" transform="matrix(1 0 0 1 1124.72 1188)">Flaggblå</text><text font-family="Arial,Arial_MSFontService,sans-serif" font-weight="400" font-size="60" transform="matrix(1 0 0 1 1116.69 1259)">#006AA7</text><rect x="1398" y="813" width="330" height="302" fill="#FECC02"/><text font-family="Arial,Arial_MSFontService,sans-serif" font-weight="400" font-size="60" transform="matrix(1 0 0 1 1465.28 1188)">Flaggul</text><text font-family="Arial,Arial_MSFontService,sans-serif" font-weight="400" font-size="60" transform="matrix(1 0 0 1 1433.38 1261)">#</text><text font-family="Aptos,Aptos_MSFontService,sans-serif" font-weight="400" font-size="64" transform="matrix(1 0 0 1 1466.61 1261)">FECC02</text><rect x="1728" y="813" width="330" height="302" fill="#5FAF4A"/><text font-family="Arial,Arial_MSFontService,sans-serif" font-weight="400" font-size="60" transform="matrix(1 0 0 1 1784.79 1188)">Lövgrön</text><text font-family="Calibri,Calibri_MSFontService,sans-serif" font-weight="400" font-size="64" transform="matrix(1 0 0 1 1779.43 1261)">#5FAF4A</text><rect x="2057" y="813" width="330" height="300" fill="#C15F8C"/><text font-family="Arial,Arial_MSFontService,sans-serif" font-weight="400" font-size="60" transform="matrix(1 0 0 1 2093.94 1188)">Hallonröd</text><text font-family="Calibri,Calibri_MSFontService,sans-serif" font-weight="400" font-size="64" transform="matrix(1 0 0 1 2107.69 1261)">#C15F8C</text></g></svg>