<svg width="2310" height="507" xmlns="http://www.w3.org/2000/svg" xmlns:xlink="http://www.w3.org/1999/xlink" xml:space="preserve" overflow="hidden"><defs><clipPath id="clip0"><rect x="85" y="2925" width="2310" height="507"/></clipPath></defs><g clip-path="url(#clip0)" transform="translate(-85 -2925)"><path d="M415 2925 745 2925 745 3255 415 3255Z" fill="#006AA7" fill-rule="evenodd"/><path d="M1405 2925 1735 2925 1735 3255 1405 3255Z" fill="#FECC02" fill-rule="evenodd"/><path d="M2065 2925 2395 2925 2395 3255 2065 3255Z" fill="#D76479" fill-rule="evenodd"/><path d="M1735 2925 2065 2925 2065 3255 1735 3255Z" fill="#F08A5A" fill-rule="evenodd"/><rect x="84.9999" y="2925" width="331" height="330" fill="#B96AD6"/><path d="M745 2925 1075 2925 1075 3255 745 3255Z" fill="#00AEAF" fill-rule="evenodd"/><path d="M1075 2925 1405 2925 1405 3255 1075 3255Z" fill="#53B153" fill-rule="evenodd"/><text font-family="Arial,Arial_MSFontService,sans-serif" font-weight="400" font-size="55" transform="matrix(1 0 0 1 475.491 3320)">Flaggblå</text><text font-family="Arial,Arial_MSFontService,sans-serif" font-weight="400" font-size="55" transform="matrix(1 0 0 1 467.745 3386)">#006AA7</text><text font-family="Arial,Arial_MSFontService,sans-serif" font-weight="400" font-size="55" transform="matrix(1 0 0 1 1480.57 3320)">Flaggul</text><text font-family="Arial,Arial_MSFontService,sans-serif" font-weight="400" font-size="55" transform="matrix(1 0 0 1 1449.93 3386)">#FECC02</text><text font-family="Arial,Arial_MSFontService,sans-serif" font-weight="400" font-size="55" transform="matrix(1 0 0 1 2120.77 3320)">Rallarros</text><text font-family="Arial,Arial_MSFontService,sans-serif" font-weight="400" font-size="55" transform="matrix(1 0 0 1 2119.33 3387)">#D76479</text><text font-family="Arial,Arial_MSFontService,sans-serif" font-weight="400" font-size="55" transform="matrix(1 0 0 1 1795.38 3320)">Rönnbär</text><text font-family="Arial,Arial_MSFontService,sans-serif" font-weight="400" font-size="55" transform="matrix(1 0 0 1 1785.92 3387)">#F08A5A</text><text font-family="Arial,Arial_MSFontService,sans-serif" font-weight="400" font-size="55" transform="matrix(1 0 0 1 207.965 3320)">Lila</text><text font-family="Arial,Arial_MSFontService,sans-serif" font-weight="400" font-size="55" transform="matrix(1 0 0 1 133.188 3387)">#B96AD6</text><text font-family="Arial,Arial_MSFontService,sans-serif" font-weight="400" font-size="55" transform="matrix(1 0 0 1 870.765 3320)">Sjö</text><text font-family="Arial,Arial_MSFontService,sans-serif" font-weight="400" font-size="55" transform="matrix(1 0 0 1 792.848 3387)">#00AEAF</text><text font-family="Arial,Arial_MSFontService,sans-serif" font-weight="400" font-size="55" transform="matrix(1 0 0 1 1188.72 3320)">Lind</text><text font-family="Arial,Arial_MSFontService,sans-serif" font-weight="400" font-size="55" transform="matrix(1 0 0 1 1123.11 3387)">#53B153 </text></g></svg>