<svg width="1640" height="531" xmlns="http://www.w3.org/2000/svg" xmlns:xlink="http://www.w3.org/1999/xlink" xml:space="preserve" overflow="hidden"><defs><clipPath id="clip0"><rect x="677" y="140" width="1640" height="531"/></clipPath></defs><g clip-path="url(#clip0)" transform="translate(-677 -140)"><path d="M677 140 1007 140 1007 470 677 470Z" fill="#006AA7" fill-rule="evenodd"/><text font-family="Arial,Arial_MSFontService,sans-serif" font-weight="400" font-size="60" transform="matrix(1 0 0 1 727.503 541)">Flaggblå</text><text font-family="Arial,Arial_MSFontService,sans-serif" font-weight="400" font-size="60" transform="matrix(1 0 0 1 719.482 612)">#006AA7</text><path d="M1657 140 1987 140 1987 470 1657 470Z" fill="#FECC02" fill-rule="evenodd"/><text font-family="Arial,Arial_MSFontService,sans-serif" font-weight="400" font-size="60" transform="matrix(1 0 0 1 1724.18 541)">Flaggul</text><text font-family="Arial,Arial_MSFontService,sans-serif" font-weight="400" font-size="60" transform="matrix(1 0 0 1 1692.28 614)">#</text><text font-family="Aptos,Aptos_MSFontService,sans-serif" font-weight="400" font-size="64" transform="matrix(1 0 0 1 1725.51 614)">FECC02</text><path d="M1987 140 2317 140 2317 470 1987 470Z" fill="#5FAF4A" fill-rule="evenodd"/><text font-family="Arial,Arial_MSFontService,sans-serif" font-weight="400" font-size="60" transform="matrix(1 0 0 1 2043.69 541)">Lövgrön</text><text font-family="Calibri,Calibri_MSFontService,sans-serif" font-weight="400" font-size="64" transform="matrix(1 0 0 1 2038.33 614)">#5FAF4A</text><path d="M1001 140 1331 140 1331 470 1001 470Z" fill="#BD77DA" fill-rule="evenodd"/><text font-family="Arial,Arial_MSFontService,sans-serif" font-weight="400" font-size="60" transform="matrix(1 0 0 1 1040.16 541)">Plommon</text><text font-family="Aptos,Aptos_MSFontService,sans-serif" font-weight="400" font-size="64" transform="matrix(1 0 0 1 1032.78 614)">#BD77DA</text><path d="M1327 140 1657 140 1657 470 1327 470Z" fill="#EA6B68" fill-rule="evenodd"/><text font-family="Arial,Arial_MSFontService,sans-serif" font-weight="400" font-size="60" transform="matrix(1 0 0 1 1405.94 541)">Nypon</text><text font-family="Calibri,Calibri_MSFontService,sans-serif" font-weight="400" font-size="64" transform="matrix(1 0 0 1 1378.14 614)">#C15F8C</text></g></svg>