<svg width="1980" height="578" xmlns="http://www.w3.org/2000/svg" xmlns:xlink="http://www.w3.org/1999/xlink" xml:space="preserve" overflow="hidden"><defs><clipPath id="clip0"><rect x="36" y="1979" width="1980" height="578"/></clipPath></defs><g clip-path="url(#clip0)" transform="translate(-36 -1979)"><path d="M696 1979 1026 1979 1026 2309 696 2309Z" fill="#006AA7" fill-rule="evenodd"/><path d="M1356 1979 1686 1979 1686 2309 1356 2309Z" fill="#FECC02" fill-rule="evenodd"/><path d="M1026 1979 1356 1979 1356 2309 1026 2309Z" fill="#5FAF4A" fill-rule="evenodd"/><path d="M36.0001 1979 366 1979 366 2309 36.0001 2309Z" fill="#D76479" fill-rule="evenodd"/><path d="M1686 1979 2016 1979 2016 2309 1686 2309Z" fill="#F08A5A" fill-rule="evenodd"/><path d="M366 1979 696 1979 696 2309 366 2309Z" fill="#B96AD6" fill-rule="evenodd"/><text font-family="Arial,Arial_MSFontService,sans-serif" font-weight="400" font-size="55" transform="matrix(1 0 0 1 756.489 2379)">Flaggblå</text><text font-family="Arial,Arial_MSFontService,sans-serif" font-weight="400" font-size="55" transform="matrix(1 0 0 1 748.743 2445)">#006AA7</text><text font-family="Arial,Arial_MSFontService,sans-serif" font-weight="400" font-size="55" transform="matrix(1 0 0 1 804.889 2511)">247</text><text font-family="Arial,Arial_MSFontService,sans-serif" font-weight="400" font-size="55" transform="matrix(1 0 0 1 895.983 2511)">°</text><text font-family="Arial,Arial_MSFontService,sans-serif" font-weight="400" font-size="55" transform="matrix(1 0 0 1 1431.65 2379)">Flaggul</text><text font-family="Arial,Arial_MSFontService,sans-serif" font-weight="400" font-size="55" transform="matrix(1 0 0 1 1401.01 2445)">#FECC02</text><text font-family="Arial,Arial_MSFontService,sans-serif" font-weight="400" font-size="55" transform="matrix(1 0 0 1 1480.07 2511)">92</text><text font-family="Arial,Arial_MSFontService,sans-serif" font-weight="400" font-size="55" transform="matrix(1 0 0 1 1540.8 2511)">°</text><text font-family="Arial,Arial_MSFontService,sans-serif" font-weight="400" font-size="55" transform="matrix(1 0 0 1 1063.27 2379)">Ormbunke</text><text font-family="Arial,Arial_MSFontService,sans-serif" font-weight="400" font-size="55" transform="matrix(1 0 0 1 1076.82 2446)">#5FAF4A</text><text font-family="Arial,Arial_MSFontService,sans-serif" font-weight="400" font-size="55" transform="matrix(1 0 0 1 1134.89 2512)">170</text><text font-family="Arial,Arial_MSFontService,sans-serif" font-weight="400" font-size="55" transform="matrix(1 0 0 1 1225.98 2512)">°</text><text font-family="Arial,Arial_MSFontService,sans-serif" font-weight="400" font-size="55" transform="matrix(1 0 0 1 91.9056 2379)">Rallarros</text><text font-family="Arial,Arial_MSFontService,sans-serif" font-weight="400" font-size="55" transform="matrix(1 0 0 1 90.4618 2446)">#D76479</text><text font-family="Arial,Arial_MSFontService,sans-serif" font-weight="400" font-size="55" transform="matrix(1 0 0 1 144.889 2512)">350</text><text font-family="Arial,Arial_MSFontService,sans-serif" font-weight="400" font-size="55" transform="matrix(1 0 0 1 235.983 2512)">°</text><text font-family="Arial,Arial_MSFontService,sans-serif" font-weight="400" font-size="55" transform="matrix(1 0 0 1 1746.49 2379)">Rönnbär</text><text font-family="Arial,Arial_MSFontService,sans-serif" font-weight="400" font-size="55" transform="matrix(1 0 0 1 1737.02 2446)">#F08A5A</text><text font-family="Arial,Arial_MSFontService,sans-serif" font-weight="400" font-size="55" transform="matrix(1 0 0 1 1810.08 2512)">41</text><text font-family="Arial,Arial_MSFontService,sans-serif" font-weight="400" font-size="55" transform="matrix(1 0 0 1 1870.81 2512)">°</text><text font-family="Arial,Arial_MSFontService,sans-serif" font-weight="400" font-size="55" transform="matrix(1 0 0 1 415.603 2379)">Plommon</text><text font-family="Arial,Arial_MSFontService,sans-serif" font-weight="400" font-size="55" transform="matrix(1 0 0 1 414.16 2446)">#B96AD6</text><text font-family="Arial,Arial_MSFontService,sans-serif" font-weight="400" font-size="55" transform="matrix(1 0 0 1 474.889 2512)">298</text><text font-family="Arial,Arial_MSFontService,sans-serif" font-weight="400" font-size="55" transform="matrix(1 0 0 1 565.983 2512)">°</text></g></svg>