<svg width="2310" height="507" xmlns="http://www.w3.org/2000/svg" xmlns:xlink="http://www.w3.org/1999/xlink" xml:space="preserve" overflow="hidden"><defs><clipPath id="clip0"><rect x="83" y="2928" width="2310" height="507"/></clipPath></defs><g clip-path="url(#clip0)" transform="translate(-83 -2928)"><rect x="742" y="2928" width="331" height="330" fill="#006AA7"/><rect x="1732" y="2928" width="331" height="330" fill="#FECC02"/><path d="M82.9998 2928 413 2928 413 3258 82.9998 3258Z" fill="#D76479" fill-rule="evenodd"/><rect x="2062" y="2928" width="331" height="330" fill="#F08A5A"/><rect x="412" y="2928" width="331" height="330" fill="#B96AD6"/><rect x="1072" y="2928" width="331" height="330" fill="#00AEAF"/><rect x="1402" y="2928" width="331" height="330" fill="#53B153"/><text font-family="Arial,Arial_MSFontService,sans-serif" font-weight="400" font-size="55" transform="matrix(1 0 0 1 802.591 3323)">Flaggblå</text><text font-family="Arial,Arial_MSFontService,sans-serif" font-weight="400" font-size="55" transform="matrix(1 0 0 1 794.869 3389)">#006AA7</text><text font-family="Arial,Arial_MSFontService,sans-serif" font-weight="400" font-size="55" transform="matrix(1 0 0 1 1807.88 3323)">Flaggul</text><text font-family="Arial,Arial_MSFontService,sans-serif" font-weight="400" font-size="55" transform="matrix(1 0 0 1 1777.21 3389)">#FECC02</text><text font-family="Arial,Arial_MSFontService,sans-serif" font-weight="400" font-size="55" transform="matrix(1 0 0 1 138.061 3323)">Rallarros</text><text font-family="Arial,Arial_MSFontService,sans-serif" font-weight="400" font-size="55" transform="matrix(1 0 0 1 136.64 3390)">#D76479</text><text font-family="Arial,Arial_MSFontService,sans-serif" font-weight="400" font-size="55" transform="matrix(1 0 0 1 2122.67 3323)">Rönnbär</text><text font-family="Arial,Arial_MSFontService,sans-serif" font-weight="400" font-size="55" transform="matrix(1 0 0 1 2113.2 3390)">#F08A5A</text><text font-family="Arial,Arial_MSFontService,sans-serif" font-weight="400" font-size="55" transform="matrix(1 0 0 1 535.089 3323)">Lila</text><text font-family="Arial,Arial_MSFontService,sans-serif" font-weight="400" font-size="55" transform="matrix(1 0 0 1 460.312 3390)">#B96AD6</text><text font-family="Arial,Arial_MSFontService,sans-serif" font-weight="400" font-size="55" transform="matrix(1 0 0 1 1197.89 3323)">Sjö</text><text font-family="Arial,Arial_MSFontService,sans-serif" font-weight="400" font-size="55" transform="matrix(1 0 0 1 1119.97 3390)">#00AEAF</text><text font-family="Arial,Arial_MSFontService,sans-serif" font-weight="400" font-size="55" transform="matrix(1 0 0 1 1515.84 3323)">Lind</text><text font-family="Arial,Arial_MSFontService,sans-serif" font-weight="400" font-size="55" transform="matrix(1 0 0 1 1450.23 3390)">#53B153 </text></g></svg>