<svg width="1723" height="643" xmlns="http://www.w3.org/2000/svg" xmlns:xlink="http://www.w3.org/1999/xlink" xml:space="preserve" overflow="hidden"><g transform="translate(-1401 -828)"><g><g><g><path d="M1859.81 1142.8C1857.13 1142.8 1855.12 1142.8 1852.44 1143.47 1850.43 1135.43 1845.07 1128.07 1836.36 1124.72L1779.43 1101.94 1742.59 1016.88 1742.59 1016.88C1735.23 996.788 1715.8 982.052 1692.36 982.052 1680.3 982.052 1669.59 986.071 1660.88 992.099L1660.88 992.099 1570.46 1053.05C1565.1 1057.07 1561.08 1062.43 1559.07 1069.12L1538.98 1156.2C1535.63 1170.93 1544.34 1185 1559.07 1188.35 1561.08 1189.02 1563.09 1189.02 1565.1 1189.02 1577.16 1189.02 1588.54 1180.31 1591.22 1168.25L1608.64 1091.9 1625.38 1080.51C1618.68 1126.06 1618.01 1162.23 1618.01 1168.25L1611.31 1285.47 1585.19 1404.02C1581.84 1418.76 1591.22 1432.82 1605.29 1436.17 1607.3 1436.84 1609.31 1436.84 1611.31 1436.84 1623.37 1436.84 1634.76 1428.13 1637.44 1416.08L1664.23 1295.51C1664.23 1294.17 1664.9 1292.84 1664.9 1291.5L1668.25 1225.86 1711.78 1274.08 1717.81 1398.66C1718.48 1412.73 1730.54 1424.11 1744.6 1424.11 1745.27 1424.11 1745.27 1424.11 1745.94 1424.11 1760.68 1423.44 1772.06 1410.72 1771.39 1395.98L1764.7 1262.03C1764.7 1256 1762.02 1249.97 1758 1245.28L1711.11 1193.71 1711.11 1085.2C1711.11 1085.2 1711.78 1085.2 1711.78 1084.53L1733.22 1133.43C1735.9 1140.12 1741.25 1144.81 1747.95 1147.49L1814.26 1174.28C1812.25 1178.97 1811.58 1184.33 1811.58 1189.69 1811.58 1204.42 1818.28 1217.15 1829 1225.86 1829 1225.86 1829.67 1226.53 1829.67 1226.53 1831.68 1228.54 1835.03 1229.88 1838.37 1229.88 1845.74 1229.88 1851.77 1223.85 1851.77 1216.48 1851.77 1211.79 1849.76 1207.77 1846.41 1205.76 1843.06 1201.74 1839.71 1196.39 1839.71 1189.69 1839.71 1178.3 1848.42 1169.59 1859.81 1169.59 1871.19 1169.59 1879.9 1178.3 1879.9 1189.69L1879.9 1231.88 1879.9 1249.97 1879.9 1424.11C1879.9 1431.48 1885.93 1437.51 1893.3 1437.51 1900.66 1437.51 1906.69 1431.48 1906.69 1424.11L1906.69 1189.69C1906.69 1163.57 1885.93 1142.8 1859.81 1142.8Z" fill="#156082"/><path d="M1782.78 921.771C1782.78 951.364 1758.79 975.354 1729.2 975.354 1699.6 975.354 1675.61 951.364 1675.61 921.771 1675.61 892.178 1699.6 868.188 1729.2 868.188 1758.79 868.188 1782.78 892.178 1782.78 921.771Z" fill="#156082"/></g></g></g><g><g><g><path d="M260.813 100.313C260.813 126.166 239.854 147.125 214 147.125 188.146 147.125 167.188 126.166 167.188 100.313 167.188 74.4587 188.146 53.5 214 53.5 239.854 53.5 260.813 74.4587 260.813 100.313Z" fill="#196B24" transform="matrix(1 0 0 1.00156 2482 828)"/><path d="M474.813 100.313C474.813 126.166 453.854 147.125 428 147.125 402.146 147.125 381.188 126.166 381.188 100.313 381.188 74.4587 402.146 53.5 428 53.5 453.854 53.5 474.813 74.4587 474.813 100.313Z" fill="#196B24" transform="matrix(1 0 0 1.00156 2482 828)"/><path d="M554.394 348.419 516.275 207.313C514.938 203.3 512.931 199.288 510.256 196.613 497.55 183.238 481.5 173.206 464.113 167.188 452.744 162.506 440.706 160.5 428 160.5 415.294 160.5 403.256 162.506 391.888 166.519 373.831 172.538 358.45 182.569 345.744 195.944 343.069 199.288 341.063 202.631 339.725 206.644L321 276.863 302.275 207.313C300.938 203.3 298.931 199.288 296.256 196.613 283.55 183.238 267.5 173.206 250.113 167.188 238.744 162.506 226.706 160.5 214 160.5 201.294 160.5 189.256 162.506 177.888 166.519 159.831 172.538 144.45 182.569 131.744 195.944 129.069 199.288 127.063 202.631 125.725 206.644L88.275 347.75C85.6 358.45 90.95 370.488 102.319 373.163 103.656 374.5 104.994 374.5 107 374.5 115.694 374.5 123.719 368.481 126.394 359.788L160.5 231.388 160.5 381.188 160.5 588.5 200.625 588.5 200.625 381.188 227.375 381.188 227.375 588.5 267.5 588.5 267.5 381.188 267.5 231.388 301.606 359.119C304.281 367.813 312.306 373.831 321 373.831 323.006 373.831 324.344 373.831 326.35 373.163 332.369 371.156 337.05 366.475 339.056 361.125 339.725 361.125 374.5 231.388 374.5 231.388L374.5 285.556 336.381 428 374.5 428 374.5 588.5 414.625 588.5 414.625 428 441.375 428 441.375 588.5 481.5 588.5 481.5 428 519.619 428 481.5 285.556 481.5 231.388 515.606 359.119C518.281 367.813 526.306 373.831 535 373.831 537.006 373.831 538.344 373.831 540.35 373.163 551.05 370.488 557.069 359.119 554.394 348.419Z" fill="#196B24" transform="matrix(1 0 0 1.00156 2482 828)"/></g></g></g><g><g><g><path d="M2547.83 1071.13 2513 1058.41 2513 985.401 2547.83 970.666 2312.06 883.593 2025.39 984.062C1997.93 997.457 1997.26 1034.3 1997.26 1064.44 1997.26 1074.48 1998.6 1084.53 2000.61 1093.91 1977.84 1108.64 1977.17 1142.8 1977.17 1171.6 1977.17 1195.05 1982.53 1216.48 1997.26 1229.88 1993.91 1241.26 1995.92 1255.33 1995.92 1272.07 1995.92 1302.21 2003.96 1329.67 2030.75 1339.05L2216.95 1416.08 2546.49 1279.44 2511.66 1266.71 2511.66 1193.04 2546.49 1178.3 2492.91 1158.21 2492.91 1093.91 2547.83 1071.13ZM2033.43 1030.95 2219.63 1103.95 2486.88 996.118 2486.88 1053.72 2219.63 1164.91 2033.43 1091.23 2033.43 1030.95ZM2485.54 1262.03 2218.29 1372.54 2031.42 1298.86 2031.42 1246.62 2198.2 1314.94 2486.21 1201.07 2485.54 1262.03ZM2466.79 1161.56 2199.54 1272.07 2013.34 1198.39 2013.34 1138.11 2204.9 1214.47 2467.46 1104.62 2467.46 1161.56Z" fill="#E97132"/></g></g></g></g></svg>