<svg width="2521" height="2259" xmlns="http://www.w3.org/2000/svg" xmlns:xlink="http://www.w3.org/1999/xlink" xml:space="preserve" overflow="hidden"><defs><clipPath id="clip0"><rect x="734" y="61" width="2521" height="2259"/></clipPath><clipPath id="clip1"><rect x="801" y="1579" width="189" height="62"/></clipPath><clipPath id="clip2"><rect x="801" y="1314" width="189" height="62"/></clipPath><clipPath id="clip3"><rect x="693" y="1048" width="378" height="62"/></clipPath><clipPath id="clip4"><rect x="693" y="783" width="378" height="62"/></clipPath><clipPath id="clip5"><rect x="693" y="517" width="378" height="62"/></clipPath><clipPath id="clip6"><rect x="693" y="252" width="378" height="62"/></clipPath></defs><g clip-path="url(#clip0)" transform="translate(-734 -61)"><rect x="735" y="62" width="2518" height="1760" fill="#000000" fill-opacity="0"/><g><path d="M939.5 1344.5 3223.5 1344.5" stroke="#D9D9D9" stroke-width="3.4375" stroke-miterlimit="2" fill="none"/><path d="M939.5 1079.5 3223.5 1079.5" stroke="#D9D9D9" stroke-width="3.4375" stroke-miterlimit="2" fill="none"/><path d="M939.5 813.5 3223.5 813.5" stroke="#D9D9D9" stroke-width="3.4375" stroke-miterlimit="2" fill="none"/><path d="M939.5 548.5 3223.5 548.5" stroke="#D9D9D9" stroke-width="3.4375" stroke-miterlimit="2" fill="none"/><path d="M939.5 282.5 3223.5 282.5" stroke="#D9D9D9" stroke-width="3.4375" stroke-miterlimit="2" fill="none"/><rect x="937" y="1505" width="458" height="105" fill="#DCEAF7"/><rect x="1396" y="1186" width="456" height="424" fill="#DCEAF7"/><rect x="1853" y="867" width="455" height="743" fill="#DCEAF7"/><rect x="2309" y="443" width="456" height="1167" fill="#DCEAF7"/><rect x="2766" y="1398" width="455" height="212" fill="#DCEAF7"/></g><path d="M939.5 1610.5 3223.5 1610.5" stroke="#D9D9D9" stroke-width="3.4375" stroke-linejoin="round" stroke-miterlimit="10" fill="none"/><g><text font-family="Arial,Arial_MSFontService,sans-serif" font-weight="700" font-size="55" transform="translate(1818.33 1784)">University rank</text></g><g><text font-family="Arial,Arial_MSFontService,sans-serif" font-weight="700" font-size="55" transform="translate(2213.65 1784)">-</text></g><g><text font-family="Arial,Arial_MSFontService,sans-serif" font-weight="700" font-size="55" transform="translate(2231.98 1784)">bins</text></g><g><text font-family="Arial,Arial_MSFontService,sans-serif" font-weight="400" font-size="50" transform="translate(1083.85 1689)">[15, 90]</text></g><g><text font-family="Arial,Arial_MSFontService,sans-serif" font-weight="400" font-size="50" transform="translate(1525.28 1689)">(90, 164]</text></g><g><text font-family="Arial,Arial_MSFontService,sans-serif" font-weight="400" font-size="50" transform="translate(1968.15 1689)">(164, 239]</text></g><g><text font-family="Arial,Arial_MSFontService,sans-serif" font-weight="400" font-size="50" transform="translate(2425.05 1689)">(239, 313]</text></g><g><text font-family="Arial,Arial_MSFontService,sans-serif" font-weight="400" font-size="50" transform="translate(2881.96 1689)">(313, 388]</text></g><path d="M939.5 1610.5 939.5 282.5" stroke="#D9D9D9" stroke-width="3.4375" stroke-linejoin="round" stroke-miterlimit="10" fill="none"/><g><text font-family="Arial,Arial_MSFontService,sans-serif" font-weight="700" font-size="55" transform="matrix(-1.83697e-16 -1 1 -1.83697e-16 812.085 1314)">Number of companies in bin</text></g><g clip-path="url(#clip1)"><text font-family="Aptos,Aptos_MSFontService,sans-serif" font-weight="400" font-size="50" transform="translate(882.279 1627)">0</text></g><g clip-path="url(#clip2)"><text font-family="Aptos,Aptos_MSFontService,sans-serif" font-weight="400" font-size="50" transform="translate(882.279 1362)">5</text></g><g clip-path="url(#clip3)"><text font-family="Aptos,Aptos_MSFontService,sans-serif" font-weight="400" font-size="50" transform="translate(855.217 1096)">10</text></g><g clip-path="url(#clip4)"><text font-family="Aptos,Aptos_MSFontService,sans-serif" font-weight="400" font-size="50" transform="translate(855.217 831)">15</text></g><g clip-path="url(#clip5)"><text font-family="Aptos,Aptos_MSFontService,sans-serif" font-weight="400" font-size="50" transform="translate(855.217 565)">20</text></g><g clip-path="url(#clip6)"><text font-family="Aptos,Aptos_MSFontService,sans-serif" font-weight="400" font-size="50" transform="translate(855.217 300)">25</text></g><g><text font-family="Arial,Arial_MSFontService,sans-serif" font-weight="700" font-size="64" transform="translate(1076.49 148)">AVERAGE UNIVERSITY RANKING OF </text></g><g><text font-family="Arial,Arial_MSFontService,sans-serif" font-weight="700" font-size="64" transform="translate(2239.52 148)">SENIOR EXECUTIVES </text></g><g><text font-family="Arial,Arial_MSFontService,sans-serif" font-weight="400" font-size="60" transform="translate(1451.18 221)">844 executives at U.S. top 50 companies</text></g><path d="M735 61.9999 3254.47 61.9999 3254.47 1823.06 735 1823.06Z" fill="#000000" fill-rule="evenodd" fill-opacity="0"/><text font-family="Arial,Arial_MSFontService,sans-serif" font-style="italic" font-weight="400" font-size="46" transform="matrix(1 0 0 1 964.854 1742)">◄</text><text font-family="Arial,Arial_MSFontService,sans-serif" font-style="italic" font-weight="400" font-size="46" transform="matrix(1 0 0 1 1022.72 1742)">Higher ranking</text><path d="M1213.5 730.168C1213.5 692.244 1244.24 661.5 1282.17 661.5L1510.42 661.5 1510.42 661.5 1637.67 661.5 1653.83 661.5C1691.76 661.5 1722.5 692.244 1722.5 730.168L1722.5 901.833 1722.5 901.833 1722.5 1004.83 1722.5 1004.83C1722.5 1042.76 1691.76 1073.5 1653.83 1073.5L1637.67 1073.5 1567.28 1125 1510.42 1073.5 1282.17 1073.5C1244.24 1073.5 1213.5 1042.76 1213.5 1004.83L1213.5 1004.83 1213.5 901.833 1213.5 901.833Z" stroke="#D9D9D9" stroke-width="3.4375" stroke-miterlimit="8" fill="#FFFFCC" fill-rule="evenodd"/><text font-family="Arial,Arial_MSFontService,sans-serif" font-weight="400" font-size="46" transform="matrix(1 0 0 1 1285.27 747)">E.g., 8 companies </text><text font-family="Arial,Arial_MSFontService,sans-serif" font-weight="400" font-size="46" transform="matrix(1 0 0 1 1329.68 802)">have average </text><text font-family="Arial,Arial_MSFontService,sans-serif" font-weight="400" font-size="46" transform="matrix(1 0 0 1 1289.85 857)">university ranking </text><text font-family="Arial,Arial_MSFontService,sans-serif" font-weight="400" font-size="46" transform="matrix(1 0 0 1 1305.89 912)">between 90 and </text><text font-family="Arial,Arial_MSFontService,sans-serif" font-weight="400" font-size="46" transform="matrix(1 0 0 1 1316.78 967)">164, listed with </text><text font-family="Arial,Arial_MSFontService,sans-serif" font-weight="400" font-size="46" transform="matrix(1 0 0 1 1280.41 1022)">highest</text><text font-family="Arial,Arial_MSFontService,sans-serif" font-weight="400" font-size="46" transform="matrix(1 0 0 1 1439.68 1022)">rank at top</text><text font-family="Arial,Arial_MSFontService,sans-serif" font-style="italic" font-weight="400" font-size="46" transform="matrix(1 0 0 1 2841.04 1742)">Lower ranking </text><text font-family="Arial,Arial_MSFontService,sans-serif" font-style="italic" font-weight="400" font-size="46" transform="matrix(1 0 0 1 3140.1 1742)">►</text><text font-family="Arial,Arial_MSFontService,sans-serif" font-style="italic" font-weight="400" font-size="46" transform="matrix(1 0 0 1 1765.3 417)">Average university rank: 248 </text><text font-family="Arial,Arial_MSFontService,sans-serif" font-style="italic" font-weight="400" font-size="46" transform="matrix(1 0 0 1 2355.4 417)">▼</text><g><path d="M1711.06 2269.07 1369 2269.07 1369 2258.07 1711.06 2258.07ZM1716.06 2204.07 1369 2204.07 1369 2193.07 1716.06 2193.07ZM1728.06 2138.07 1369 2138.07 1369 2127.07 1728.06 2127.07ZM1779.06 2073.07 1369 2073.07 1369 2062.07 1779.06 2062.07ZM1779.06 2007.07 1369 2007.07 1369 1996.07 1779.06 1996.07Z" fill="#D9D9D9"/></g><g><path d="M0 0 0.000360892 327" stroke="#D9D9D9" stroke-width="3.4375" stroke-linejoin="round" stroke-miterlimit="10" fill="none" fill-rule="evenodd" transform="matrix(1 0 0 -1 1369.5 2296.5)"/></g><g><path d="M1721.8 2263.19C1721.8 2269.27 1716.87 2274.19 1710.8 2274.19 1704.72 2274.19 1699.8 2269.27 1699.8 2263.19 1699.8 2257.12 1704.72 2252.19 1710.8 2252.19 1716.87 2252.19 1721.8 2257.12 1721.8 2263.19Z" stroke="#0E2841" stroke-width="22.9167" stroke-linejoin="round" stroke-miterlimit="10" fill="#0E2841"/><path d="M1726.8 2198.19C1726.8 2204.27 1721.87 2209.19 1715.8 2209.19 1709.72 2209.19 1704.8 2204.27 1704.8 2198.19 1704.8 2192.12 1709.72 2187.19 1715.8 2187.19 1721.87 2187.19 1726.8 2192.12 1726.8 2198.19Z" stroke="#0E2841" stroke-width="22.9167" stroke-linejoin="round" stroke-miterlimit="10" fill="#0E2841"/><path d="M1738.8 2132.19C1738.8 2138.27 1733.87 2143.19 1727.8 2143.19 1721.72 2143.19 1716.8 2138.27 1716.8 2132.19 1716.8 2126.12 1721.72 2121.19 1727.8 2121.19 1733.87 2121.19 1738.8 2126.12 1738.8 2132.19Z" stroke="#0E2841" stroke-width="22.9167" stroke-linejoin="round" stroke-miterlimit="10" fill="#0E2841"/><path d="M1790.8 2067.19C1790.8 2073.27 1785.87 2078.19 1779.8 2078.19 1773.72 2078.19 1768.8 2073.27 1768.8 2067.19 1768.8 2061.12 1773.72 2056.19 1779.8 2056.19 1785.87 2056.19 1790.8 2061.12 1790.8 2067.19Z" stroke="#0E2841" stroke-width="22.9167" stroke-linejoin="round" stroke-miterlimit="10" fill="#0E2841"/><path d="M1790.8 2001.19C1790.8 2007.27 1785.87 2012.19 1779.8 2012.19 1773.72 2012.19 1768.8 2007.27 1768.8 2001.19 1768.8 1995.12 1773.72 1990.19 1779.8 1990.19 1785.87 1990.19 1790.8 1995.12 1790.8 2001.19Z" stroke="#0E2841" stroke-width="22.9167" stroke-linejoin="round" stroke-miterlimit="10" fill="#0E2841"/></g><g><text font-family="Arial,Arial_MSFontService,sans-serif" font-weight="400" font-size="46" transform="matrix(1 0 0 1 1749.65 2281)">83%</text></g><g><text font-family="Arial,Arial_MSFontService,sans-serif" font-weight="400" font-size="46" transform="matrix(1 0 0 1 1754.91 2215)">85%</text></g><g><text font-family="Arial,Arial_MSFontService,sans-serif" font-weight="400" font-size="46" transform="matrix(1 0 0 1 1766.74 2150)">88%</text></g><g><text font-family="Arial,Arial_MSFontService,sans-serif" font-weight="400" font-size="46" transform="matrix(1 0 0 1 1817.98 2084)">100%</text></g><g><text font-family="Arial,Arial_MSFontService,sans-serif" font-weight="400" font-size="46" transform="matrix(1 0 0 1 1817.98 2019)">100%</text></g><g><text font-family="Arial,Arial_MSFontService,sans-serif" font-weight="400" font-size="46" transform="matrix(1 0 0 1 1161.52 2279)">Amazon</text></g><g><text font-family="Arial,Arial_MSFontService,sans-serif" font-weight="400" font-size="46" transform="matrix(1 0 0 1 1212.48 2213)">Pfizer</text></g><g><text font-family="Arial,Arial_MSFontService,sans-serif" font-weight="400" font-size="46" transform="matrix(1 0 0 1 1115.69 2148)">McKesson</text></g><g><text font-family="Arial,Arial_MSFontService,sans-serif" font-weight="400" font-size="46" transform="matrix(1 0 0 1 973.098 2083)">American Airlines</text></g><g><text font-family="Arial,Arial_MSFontService,sans-serif" font-weight="400" font-size="46" transform="matrix(1 0 0 1 1212.48 2017)">AT&amp;T</text></g><g><path d="M2688.09 2274.07 2535 2274.07 2535 2264.07 2688.09 2264.07ZM2688.09 2209.07 2535 2209.07 2535 2198.07 2688.09 2198.07ZM2677.09 2143.07 2535 2143.07 2535 2133.07 2677.09 2133.07ZM2670.09 2078.07 2535 2078.07 2535 2067.07 2670.09 2067.07ZM2655.09 2013.07 2535 2013.07 2535 2002.07 2655.09 2002.07Z" fill="#D9D9D9"/></g><g><path d="M0 0 0.000360892 327" stroke="#D9D9D9" stroke-width="3.4375" stroke-linejoin="round" stroke-miterlimit="10" fill="none" fill-rule="evenodd" transform="matrix(1 0 0 -1 2534.5 2301.5)"/></g><g><path d="M2699.29 2269.35C2699.29 2275.42 2694.37 2280.35 2688.29 2280.35 2682.22 2280.35 2677.29 2275.42 2677.29 2269.35 2677.29 2263.27 2682.22 2258.35 2688.29 2258.35 2694.37 2258.35 2699.29 2263.27 2699.29 2269.35Z" stroke="#0E2841" stroke-width="22.9167" stroke-linejoin="round" stroke-miterlimit="10" fill="#70AD47"/><path d="M2699.29 2203.35C2699.29 2209.42 2694.37 2214.35 2688.29 2214.35 2682.22 2214.35 2677.29 2209.42 2677.29 2203.35 2677.29 2197.27 2682.22 2192.35 2688.29 2192.35 2694.37 2192.35 2699.29 2197.27 2699.29 2203.35Z" stroke="#0E2841" stroke-width="22.9167" stroke-linejoin="round" stroke-miterlimit="10" fill="#70AD47"/><path d="M2688.29 2138.35C2688.29 2144.42 2683.37 2149.35 2677.29 2149.35 2671.22 2149.35 2666.29 2144.42 2666.29 2138.35 2666.29 2132.27 2671.22 2127.35 2677.29 2127.35 2683.37 2127.35 2688.29 2132.27 2688.29 2138.35Z" stroke="#0E2841" stroke-width="22.9167" stroke-linejoin="round" stroke-miterlimit="10" fill="#70AD47"/><path d="M2681.29 2072.35C2681.29 2078.42 2676.37 2083.35 2670.29 2083.35 2664.22 2083.35 2659.29 2078.42 2659.29 2072.35 2659.29 2066.27 2664.22 2061.35 2670.29 2061.35 2676.37 2061.35 2681.29 2066.27 2681.29 2072.35Z" stroke="#0E2841" stroke-width="22.9167" stroke-linejoin="round" stroke-miterlimit="10" fill="#70AD47"/><path d="M2665.29 2007.35C2665.29 2013.42 2660.37 2018.35 2654.29 2018.35 2648.22 2018.35 2643.29 2013.42 2643.29 2007.35 2643.29 2001.27 2648.22 1996.35 2654.29 1996.35 2660.37 1996.35 2665.29 2001.27 2665.29 2007.35Z" stroke="#0E2841" stroke-width="22.9167" stroke-linejoin="round" stroke-miterlimit="10" fill="#70AD47"/></g><g><text font-family="Arial,Arial_MSFontService,sans-serif" font-weight="400" font-size="46" transform="matrix(1 0 0 1 2727.46 2286)">40%</text></g><g><text font-family="Arial,Arial_MSFontService,sans-serif" font-weight="400" font-size="46" transform="matrix(1 0 0 1 2727.46 2220)">40%</text></g><g><text font-family="Arial,Arial_MSFontService,sans-serif" font-weight="400" font-size="46" transform="matrix(1 0 0 1 2716.09 2155)">37%</text></g><g><text font-family="Arial,Arial_MSFontService,sans-serif" font-weight="400" font-size="46" transform="matrix(1 0 0 1 2709.4 2089)">35%</text></g><g><text font-family="Arial,Arial_MSFontService,sans-serif" font-weight="400" font-size="46" transform="matrix(1 0 0 1 2693.87 2024)">31%</text></g><g><text font-family="Arial,Arial_MSFontService,sans-serif" font-weight="400" font-size="46" transform="matrix(1 0 0 1 2416.52 2284)">AIG</text></g><g><text font-family="Arial,Arial_MSFontService,sans-serif" font-weight="400" font-size="46" transform="matrix(1 0 0 1 2258.63 2219)">ExxonMobil</text></g><g><text font-family="Arial,Arial_MSFontService,sans-serif" font-weight="400" font-size="46" transform="matrix(1 0 0 1 2169.48 2153)">General Electric</text></g><g><text font-family="Arial,Arial_MSFontService,sans-serif" font-weight="400" font-size="46" transform="matrix(1 0 0 1 2340.12 2088)">Verizon</text></g><g><text font-family="Arial,Arial_MSFontService,sans-serif" font-weight="400" font-size="46" transform="matrix(1 0 0 1 2352.86 2022)">Costco</text></g><text font-family="Arial,Arial_MSFontService,sans-serif" font-weight="700" font-size="50" transform="matrix(1 0 0 1 1312.28 1888)">GRADUATE DEGREE SHARE AMONG </text><text font-family="Arial,Arial_MSFontService,sans-serif" font-weight="700" font-size="50" transform="matrix(1 0 0 1 2238.69 1888)">SENIOR EXECUTIVES</text><text font-family="Arial,Arial_MSFontService,sans-serif" font-weight="400" font-size="46" transform="matrix(1 0 0 1 1813.31 1944)">5 highest and 5 lowest</text><g><text font-family="Arial,Arial_MSFontService,sans-serif" font-weight="400" font-size="41" transform="matrix(1 0 0 1 1000.09 1548)">Amazon</text></g><g><text font-family="Arial,Arial_MSFontService,sans-serif" font-weight="400" font-size="41" transform="matrix(1 0 0 1 1000.09 1598)">American Airlines</text></g><g><text font-family="Arial,Arial_MSFontService,sans-serif" font-weight="400" font-size="41" transform="matrix(1 0 0 1 1429.66 1251)">Alphabet</text></g><g><text font-family="Arial,Arial_MSFontService,sans-serif" font-weight="400" font-size="41" transform="matrix(1 0 0 1 1429.66 1301)">JP Morgan Chase</text></g><g><text font-family="Arial,Arial_MSFontService,sans-serif" font-weight="400" font-size="41" transform="matrix(1 0 0 1 1429.66 1350)">HP</text></g><g><text font-family="Arial,Arial_MSFontService,sans-serif" font-weight="400" font-size="41" transform="matrix(1 0 0 1 1429.66 1400)">Microsoft</text></g><g><text font-family="Arial,Arial_MSFontService,sans-serif" font-weight="400" font-size="41" transform="matrix(1 0 0 1 1429.66 1449)">Wells Fargo</text></g><g><text font-family="Arial,Arial_MSFontService,sans-serif" font-weight="400" font-size="41" transform="matrix(1 0 0 1 1429.66 1499)">Berkshire Hathaway</text></g><g><text font-family="Arial,Arial_MSFontService,sans-serif" font-weight="400" font-size="41" transform="matrix(1 0 0 1 1429.66 1548)">Prudential Financial</text></g><g><text font-family="Arial,Arial_MSFontService,sans-serif" font-weight="400" font-size="41" transform="matrix(1 0 0 1 1429.66 1598)">Chevron</text></g><g><text font-family="Arial,Arial_MSFontService,sans-serif" font-weight="400" font-size="41" transform="matrix(1 0 0 1 1901.29 905)">Johnson &amp; Johnson</text></g><g><text font-family="Arial,Arial_MSFontService,sans-serif" font-weight="400" font-size="41" transform="matrix(1 0 0 1 1901.29 954)">IBM</text></g><g><text font-family="Arial,Arial_MSFontService,sans-serif" font-weight="400" font-size="41" transform="matrix(1 0 0 1 1901.29 1004)">Bank of America</text></g><g><text font-family="Arial,Arial_MSFontService,sans-serif" font-weight="400" font-size="41" transform="matrix(1 0 0 1 1901.29 1053)">ExxonMobil</text></g><g><text font-family="Arial,Arial_MSFontService,sans-serif" font-weight="400" font-size="41" transform="matrix(1 0 0 1 1901.29 1103)">Cisco Systems</text></g><g><text font-family="Arial,Arial_MSFontService,sans-serif" font-weight="400" font-size="41" transform="matrix(1 0 0 1 1901.29 1152)">Target</text></g><g><text font-family="Arial,Arial_MSFontService,sans-serif" font-weight="400" font-size="41" transform="matrix(1 0 0 1 1901.29 1202)">AIG</text></g><g><text font-family="Arial,Arial_MSFontService,sans-serif" font-weight="400" font-size="41" transform="matrix(1 0 0 1 1901.29 1251)">Intel</text></g><g><text font-family="Arial,Arial_MSFontService,sans-serif" font-weight="400" font-size="41" transform="matrix(1 0 0 1 1901.29 1301)">Amerisource </text></g><g><text font-family="Arial,Arial_MSFontService,sans-serif" font-weight="400" font-size="41" transform="matrix(1 0 0 1 1901.29 1350)">Bergen</text></g><g><text font-family="Arial,Arial_MSFontService,sans-serif" font-weight="400" font-size="41" transform="matrix(1 0 0 1 1901.29 1400)">Boeing</text></g><g><text font-family="Arial,Arial_MSFontService,sans-serif" font-weight="400" font-size="41" transform="matrix(1 0 0 1 1901.29 1449)">PepsiCo</text></g><g><text font-family="Arial,Arial_MSFontService,sans-serif" font-weight="400" font-size="41" transform="matrix(1 0 0 1 1901.29 1499)">Apple</text></g><g><text font-family="Arial,Arial_MSFontService,sans-serif" font-weight="400" font-size="41" transform="matrix(1 0 0 1 1901.29 1548)">Costco</text></g><g><text font-family="Arial,Arial_MSFontService,sans-serif" font-weight="400" font-size="41" transform="matrix(1 0 0 1 1901.29 1598)">Walgreens</text></g><g><text font-family="Arial,Arial_MSFontService,sans-serif" font-weight="400" font-size="41" transform="matrix(1 0 0 1 2338.17 558)">Cardinal Health</text></g><g><text font-family="Arial,Arial_MSFontService,sans-serif" font-weight="400" font-size="41" transform="matrix(1 0 0 1 2338.17 608)">MetLife</text></g><g><text font-family="Arial,Arial_MSFontService,sans-serif" font-weight="400" font-size="41" transform="matrix(1 0 0 1 2338.17 657)">Comcast </text></g><g><text font-family="Arial,Arial_MSFontService,sans-serif" font-weight="400" font-size="41" transform="matrix(1 0 0 1 2338.17 707)">Ford Motor</text></g><g><text font-family="Arial,Arial_MSFontService,sans-serif" font-weight="400" font-size="41" transform="matrix(1 0 0 1 2338.17 756)">CitiGroup</text></g><g><text font-family="Arial,Arial_MSFontService,sans-serif" font-weight="400" font-size="41" transform="matrix(1 0 0 1 2338.17 806)">McKesson</text></g><g><text font-family="Arial,Arial_MSFontService,sans-serif" font-weight="400" font-size="41" transform="matrix(1 0 0 1 2338.17 855)">Disney</text></g><g><text font-family="Arial,Arial_MSFontService,sans-serif" font-weight="400" font-size="41" transform="matrix(1 0 0 1 2338.17 905)">CVS Health</text></g><g><text font-family="Arial,Arial_MSFontService,sans-serif" font-weight="400" font-size="41" transform="matrix(1 0 0 1 2338.17 954)">AT&amp;T</text></g><g><text font-family="Arial,Arial_MSFontService,sans-serif" font-weight="400" font-size="41" transform="matrix(1 0 0 1 2338.17 1004)">Pfizer</text></g><g><text font-family="Arial,Arial_MSFontService,sans-serif" font-weight="400" font-size="41" transform="matrix(1 0 0 1 2338.17 1053)">Procter &amp; Gamble</text></g><g><text font-family="Arial,Arial_MSFontService,sans-serif" font-weight="400" font-size="41" transform="matrix(1 0 0 1 2338.17 1103)">Anthem </text></g><g><text font-family="Arial,Arial_MSFontService,sans-serif" font-weight="400" font-size="41" transform="matrix(1 0 0 1 2338.17 1152)">Fannie Mae</text></g><g><text font-family="Arial,Arial_MSFontService,sans-serif" font-weight="400" font-size="41" transform="matrix(1 0 0 1 2338.17 1202)">Lowe's</text></g><g><text font-family="Arial,Arial_MSFontService,sans-serif" font-weight="400" font-size="41" transform="matrix(1 0 0 1 2338.17 1251)">Delta Airlines</text></g><g><text font-family="Arial,Arial_MSFontService,sans-serif" font-weight="400" font-size="41" transform="matrix(1 0 0 1 2338.17 1301)">Express Scripts H.</text></g><g><text font-family="Arial,Arial_MSFontService,sans-serif" font-weight="400" font-size="41" transform="matrix(1 0 0 1 2338.17 1350)">Walmart</text></g><g><text font-family="Arial,Arial_MSFontService,sans-serif" font-weight="400" font-size="41" transform="matrix(1 0 0 1 2338.17 1400)">General Electric</text></g><g><text font-family="Arial,Arial_MSFontService,sans-serif" font-weight="400" font-size="41" transform="matrix(1 0 0 1 2338.17 1449)">General Motors</text></g><g><text font-family="Arial,Arial_MSFontService,sans-serif" font-weight="400" font-size="41" transform="matrix(1 0 0 1 2338.17 1499)">United Technologies</text></g><g><text font-family="Arial,Arial_MSFontService,sans-serif" font-weight="400" font-size="41" transform="matrix(1 0 0 1 2338.17 1548)">UnitedHealth Group</text></g><g><text font-family="Arial,Arial_MSFontService,sans-serif" font-weight="400" font-size="41" transform="matrix(1 0 0 1 2338.17 1598)">Home Depot</text></g><g><text font-family="Arial,Arial_MSFontService,sans-serif" font-weight="400" font-size="37" transform="matrix(1 0 0 1 2818.19 1461)">Kroger</text></g><g><text font-family="Arial,Arial_MSFontService,sans-serif" font-weight="400" font-size="41" transform="matrix(1 0 0 1 2818.19 1510)">Caterpillar</text></g><g><text font-family="Arial,Arial_MSFontService,sans-serif" font-weight="400" font-size="37" transform="matrix(1 0 0 1 2818.19 1554)">HCA Holdings</text></g><g><text font-family="Arial,Arial_MSFontService,sans-serif" font-weight="400" font-size="37" transform="matrix(1 0 0 1 2818.19 1598)">Verizon</text></g></g></svg>