<svg width="1888" height="2232" xmlns="http://www.w3.org/2000/svg" xmlns:xlink="http://www.w3.org/1999/xlink" xml:space="preserve" overflow="hidden"><defs><clipPath id="clip0"><rect x="269" y="1134" width="1888" height="2232"/></clipPath><clipPath id="clip1"><rect x="632" y="1268" width="1420" height="1671"/></clipPath><clipPath id="clip2"><rect x="632" y="1268" width="1420" height="1672"/></clipPath></defs><g clip-path="url(#clip0)" transform="translate(-269 -1134)"><text font-family="Arial,Arial_MSFontService,sans-serif" font-weight="400" font-size="46" transform="matrix(1 0 0 1 321.939 3136)">Country GDP is the sum of all value</text><text font-family="Arial,Arial_MSFontService,sans-serif" font-weight="400" font-size="46" transform="matrix(1 0 0 1 1044.39 3136)">–</text><text font-family="Arial,Arial_MSFontService,sans-serif" font-weight="400" font-size="46" transform="matrix(1 0 0 1 1069.59 3136)">added in the country. GDP contribution by a </text><text font-family="Arial,Arial_MSFontService,sans-serif" font-weight="400" font-size="46" transform="matrix(1 0 0 1 321.939 3191)">company is its value</text><text font-family="Arial,Arial_MSFontService,sans-serif" font-weight="400" font-size="46" transform="matrix(1 0 0 1 732.72 3191)">–</text><text font-family="Arial,Arial_MSFontService,sans-serif" font-weight="400" font-size="46" transform="matrix(1 0 0 1 757.928 3191)">added. Thus</text><text font-family="Arial,Arial_MSFontService,sans-serif" font-weight="700" font-size="46" transform="matrix(1 0 0 1 1010.58 3191)">, countries and companies are directly </text><text font-family="Arial,Arial_MSFontService,sans-serif" font-weight="700" font-size="46" transform="matrix(1 0 0 1 321.939 3246)">comparable in the graph.</text><text font-family="Arial,Arial_MSFontService,sans-serif" font-weight="400" font-size="46" transform="matrix(1 0 0 1 321.939 3328)">Source: </text><text font-family="Arial,Arial_MSFontService,sans-serif" font-weight="400" font-size="46" transform="matrix(1 0 0 1 491.522 3328)">S.Canback</text><text font-family="Arial,Arial_MSFontService,sans-serif" font-weight="400" font-size="46" transform="matrix(1 0 0 1 726.991 3328)">(Tellusant) analysis; TelluBase; Company 10</text><text font-family="Arial,Arial_MSFontService,sans-serif" font-weight="400" font-size="46" transform="matrix(1 0 0 1 1632.2 3328)">-</text><text font-family="Arial,Arial_MSFontService,sans-serif" font-weight="400" font-size="46" transform="matrix(1 0 0 1 1647.67 3328)">K; </text><text font-family="Arial,Arial_MSFontService,sans-serif" font-weight="400" font-size="46" transform="matrix(1 0 0 1 1703.24 3328)">MacroTrends</text><g clip-path="url(#clip1)"><g clip-path="url(#clip2)"><g><path d="M0 0 3226.62 0 3226.62 2151.08 0 2151.08Z" stroke="#FFFFFF" stroke-width="4.30216" fill="#FFFFFF" transform="matrix(1.00002 0 0 1 -387.666 1268)"/><path d="M1067 75.3251 2410.39 75.3251 2410.39 1668.39 1067 1668.39Z" stroke="#FFFFFF" stroke-width="4.30216" fill="#FFFFFF" transform="matrix(1.00002 0 0 1 -387.666 1268)"/><path d="M1067 1620.99 2410.39 1620.99" stroke="#EAF2F3" stroke-width="6.45323" fill="none" transform="matrix(1.00002 0 0 1 -387.666 1268)"/><path d="M1067 1371.33 2410.39 1371.33" stroke="#EAF2F3" stroke-width="6.45323" fill="none" transform="matrix(1.00002 0 0 1 -387.666 1268)"/><path d="M1067 1121.57 2410.39 1121.57" stroke="#EAF2F3" stroke-width="6.45323" fill="none" transform="matrix(1.00002 0 0 1 -387.666 1268)"/><path d="M1067 871.806 2410.39 871.806" stroke="#EAF2F3" stroke-width="6.45323" fill="none" transform="matrix(1.00002 0 0 1 -387.666 1268)"/><path d="M1067 622.042 2410.39 622.042" stroke="#EAF2F3" stroke-width="6.45323" fill="none" transform="matrix(1.00002 0 0 1 -387.666 1268)"/><path d="M1067 372.375 2410.39 372.375" stroke="#EAF2F3" stroke-width="6.45323" fill="none" transform="matrix(1.00002 0 0 1 -387.666 1268)"/><path d="M1067 122.611 2410.39 122.611" stroke="#EAF2F3" stroke-width="6.45323" fill="none" transform="matrix(1.00002 0 0 1 -387.666 1268)"/><path d="M1330.37 1584.9 1320.68 1601.69 1340.07 1601.69Z" stroke="#1A476F" stroke-width="6.45323" fill="#1A476F" transform="matrix(1.00002 0 0 1 -387.666 1268)"/><path d="M1330.37 1559.89 1320.68 1576.68 1340.07 1576.68Z" stroke="#1A476F" stroke-width="6.45323" fill="#1A476F" transform="matrix(1.00002 0 0 1 -387.666 1268)"/><path d="M1330.37 1460.07 1320.68 1476.86 1340.07 1476.86Z" stroke="#1A476F" stroke-width="6.45323" fill="#1A476F" transform="matrix(1.00002 0 0 1 -387.666 1268)"/><path d="M1303.85 1410.05 1294.16 1426.84 1313.55 1426.84Z" stroke="#1A476F" stroke-width="6.45323" fill="#1A476F" transform="matrix(1.00002 0 0 1 -387.666 1268)"/><path d="M1330.37 1410.05 1320.68 1426.84 1340.07 1426.84Z" stroke="#1A476F" stroke-width="6.45323" fill="#1A476F" transform="matrix(1.00002 0 0 1 -387.666 1268)"/><path d="M1356.99 1410.05 1347.3 1426.84 1366.69 1426.84Z" stroke="#1A476F" stroke-width="6.45323" fill="#1A476F" transform="matrix(1.00002 0 0 1 -387.666 1268)"/><path d="M1330.37 1385.14 1320.68 1401.93 1340.07 1401.93Z" stroke="#1A476F" stroke-width="6.45323" fill="#1A476F" transform="matrix(1.00002 0 0 1 -387.666 1268)"/><path d="M1330.37 1360.14 1320.68 1376.93 1340.07 1376.93Z" stroke="#1A476F" stroke-width="6.45323" fill="#1A476F" transform="matrix(1.00002 0 0 1 -387.666 1268)"/><path d="M1330.37 1335.13 1320.68 1351.92 1340.07 1351.92Z" stroke="#1A476F" stroke-width="6.45323" fill="#1A476F" transform="matrix(1.00002 0 0 1 -387.666 1268)"/><path d="M1317.17 1310.23 1307.47 1327.02 1326.86 1327.02Z" stroke="#1A476F" stroke-width="6.45323" fill="#1A476F" transform="matrix(1.00002 0 0 1 -387.666 1268)"/><path d="M1343.68 1310.23 1333.99 1327.02 1353.38 1327.02Z" stroke="#1A476F" stroke-width="6.45323" fill="#1A476F" transform="matrix(1.00002 0 0 1 -387.666 1268)"/><path d="M1317.17 1285.22 1307.47 1302.01 1326.86 1302.01Z" stroke="#1A476F" stroke-width="6.45323" fill="#1A476F" transform="matrix(1.00002 0 0 1 -387.666 1268)"/><path d="M1343.68 1285.22 1333.99 1302.01 1353.38 1302.01Z" stroke="#1A476F" stroke-width="6.45323" fill="#1A476F" transform="matrix(1.00002 0 0 1 -387.666 1268)"/><path d="M1290.55 1260.22 1280.85 1277 1300.24 1277Z" stroke="#1A476F" stroke-width="6.45323" fill="#1A476F" transform="matrix(1.00002 0 0 1 -387.666 1268)"/><path d="M1317.17 1260.22 1307.47 1277 1326.86 1277Z" stroke="#1A476F" stroke-width="6.45323" fill="#1A476F" transform="matrix(1.00002 0 0 1 -387.666 1268)"/><path d="M1343.68 1260.22 1333.99 1277 1353.38 1277Z" stroke="#1A476F" stroke-width="6.45323" fill="#1A476F" transform="matrix(1.00002 0 0 1 -387.666 1268)"/><path d="M1370.21 1260.22 1360.51 1277 1379.89 1277Z" stroke="#1A476F" stroke-width="6.45323" fill="#1A476F" transform="matrix(1.00002 0 0 1 -387.666 1268)"/><path d="M1290.55 1235.31 1280.85 1252.1 1300.24 1252.1Z" stroke="#1A476F" stroke-width="6.45323" fill="#1A476F" transform="matrix(1.00002 0 0 1 -387.666 1268)"/><path d="M1317.17 1235.31 1307.47 1252.1 1326.86 1252.1Z" stroke="#1A476F" stroke-width="6.45323" fill="#1A476F" transform="matrix(1.00002 0 0 1 -387.666 1268)"/><path d="M1343.68 1235.31 1333.99 1252.1 1353.38 1252.1Z" stroke="#1A476F" stroke-width="6.45323" fill="#1A476F" transform="matrix(1.00002 0 0 1 -387.666 1268)"/><path d="M1370.21 1235.31 1360.51 1252.1 1379.89 1252.1Z" stroke="#1A476F" stroke-width="6.45323" fill="#1A476F" transform="matrix(1.00002 0 0 1 -387.666 1268)"/><path d="M1303.85 1210.3 1294.16 1227.09 1313.55 1227.09Z" stroke="#1A476F" stroke-width="6.45323" fill="#1A476F" transform="matrix(1.00002 0 0 1 -387.666 1268)"/><path d="M1330.37 1210.3 1320.68 1227.09 1340.07 1227.09Z" stroke="#1A476F" stroke-width="6.45323" fill="#1A476F" transform="matrix(1.00002 0 0 1 -387.666 1268)"/><path d="M1356.99 1210.3 1347.3 1227.09 1366.69 1227.09Z" stroke="#1A476F" stroke-width="6.45323" fill="#1A476F" transform="matrix(1.00002 0 0 1 -387.666 1268)"/><path d="M1290.55 1185.3 1280.85 1202.09 1300.24 1202.09Z" stroke="#1A476F" stroke-width="6.45323" fill="#1A476F" transform="matrix(1.00002 0 0 1 -387.666 1268)"/><path d="M1317.17 1185.3 1307.47 1202.09 1326.86 1202.09Z" stroke="#1A476F" stroke-width="6.45323" fill="#1A476F" transform="matrix(1.00002 0 0 1 -387.666 1268)"/><path d="M1343.68 1185.3 1333.99 1202.09 1353.38 1202.09Z" stroke="#1A476F" stroke-width="6.45323" fill="#1A476F" transform="matrix(1.00002 0 0 1 -387.666 1268)"/><path d="M1370.21 1185.3 1360.51 1202.09 1379.89 1202.09Z" stroke="#1A476F" stroke-width="6.45323" fill="#1A476F" transform="matrix(1.00002 0 0 1 -387.666 1268)"/><path d="M1290.55 1160.39 1280.85 1177.18 1300.24 1177.18Z" stroke="#1A476F" stroke-width="6.45323" fill="#1A476F" transform="matrix(1.00002 0 0 1 -387.666 1268)"/><path d="M1317.17 1160.39 1307.47 1177.18 1326.86 1177.18Z" stroke="#1A476F" stroke-width="6.45323" fill="#1A476F" transform="matrix(1.00002 0 0 1 -387.666 1268)"/><path d="M1343.68 1160.39 1333.99 1177.18 1353.38 1177.18Z" stroke="#1A476F" stroke-width="6.45323" fill="#1A476F" transform="matrix(1.00002 0 0 1 -387.666 1268)"/><path d="M1370.21 1160.39 1360.51 1177.18 1379.89 1177.18Z" stroke="#1A476F" stroke-width="6.45323" fill="#1A476F" transform="matrix(1.00002 0 0 1 -387.666 1268)"/><path d="M1250.72 1135.38 1241.02 1152.17 1260.41 1152.17Z" stroke="#1A476F" stroke-width="6.45323" fill="#1A476F" transform="matrix(1.00002 0 0 1 -387.666 1268)"/><path d="M1277.34 1135.38 1267.64 1152.17 1287.03 1152.17Z" stroke="#1A476F" stroke-width="6.45323" fill="#1A476F" transform="matrix(1.00002 0 0 1 -387.666 1268)"/><path d="M1303.85 1135.38 1294.16 1152.17 1313.55 1152.17Z" stroke="#1A476F" stroke-width="6.45323" fill="#1A476F" transform="matrix(1.00002 0 0 1 -387.666 1268)"/><path d="M1330.37 1135.38 1320.68 1152.17 1340.07 1152.17Z" stroke="#1A476F" stroke-width="6.45323" fill="#1A476F" transform="matrix(1.00002 0 0 1 -387.666 1268)"/><path d="M1356.99 1135.38 1347.3 1152.17 1366.69 1152.17Z" stroke="#1A476F" stroke-width="6.45323" fill="#1A476F" transform="matrix(1.00002 0 0 1 -387.666 1268)"/><path d="M1383.52 1135.38 1373.82 1152.17 1393.2 1152.17Z" stroke="#1A476F" stroke-width="6.45323" fill="#1A476F" transform="matrix(1.00002 0 0 1 -387.666 1268)"/><path d="M1410.03 1135.38 1400.34 1152.17 1419.73 1152.17Z" stroke="#1A476F" stroke-width="6.45323" fill="#1A476F" transform="matrix(1.00002 0 0 1 -387.666 1268)"/><path d="M1277.34 1110.37 1267.64 1127.16 1287.03 1127.16Z" stroke="#1A476F" stroke-width="6.45323" fill="#1A476F" transform="matrix(1.00002 0 0 1 -387.666 1268)"/><path d="M1303.85 1110.37 1294.16 1127.16 1313.55 1127.16Z" stroke="#1A476F" stroke-width="6.45323" fill="#1A476F" transform="matrix(1.00002 0 0 1 -387.666 1268)"/><path d="M1330.37 1110.37 1320.68 1127.16 1340.07 1127.16Z" stroke="#1A476F" stroke-width="6.45323" fill="#1A476F" transform="matrix(1.00002 0 0 1 -387.666 1268)"/><path d="M1356.99 1110.37 1347.3 1127.16 1366.69 1127.16Z" stroke="#1A476F" stroke-width="6.45323" fill="#1A476F" transform="matrix(1.00002 0 0 1 -387.666 1268)"/><path d="M1383.52 1110.37 1373.82 1127.16 1393.2 1127.16Z" stroke="#1A476F" stroke-width="6.45323" fill="#1A476F" transform="matrix(1.00002 0 0 1 -387.666 1268)"/><path d="M1264.03 1085.47 1254.33 1102.26 1273.72 1102.26Z" stroke="#1A476F" stroke-width="6.45323" fill="#1A476F" transform="matrix(1.00002 0 0 1 -387.666 1268)"/><path d="M1290.55 1085.47 1280.85 1102.26 1300.24 1102.26Z" stroke="#1A476F" stroke-width="6.45323" fill="#1A476F" transform="matrix(1.00002 0 0 1 -387.666 1268)"/><path d="M1317.17 1085.47 1307.47 1102.26 1326.86 1102.26Z" stroke="#1A476F" stroke-width="6.45323" fill="#1A476F" transform="matrix(1.00002 0 0 1 -387.666 1268)"/><path d="M1343.68 1085.47 1333.99 1102.26 1353.38 1102.26Z" stroke="#1A476F" stroke-width="6.45323" fill="#1A476F" transform="matrix(1.00002 0 0 1 -387.666 1268)"/><path d="M1370.21 1085.47 1360.51 1102.26 1379.89 1102.26Z" stroke="#1A476F" stroke-width="6.45323" fill="#1A476F" transform="matrix(1.00002 0 0 1 -387.666 1268)"/><path d="M1396.83 1085.47 1387.13 1102.26 1406.51 1102.26Z" stroke="#1A476F" stroke-width="6.45323" fill="#1A476F" transform="matrix(1.00002 0 0 1 -387.666 1268)"/><path d="M1303.85 1060.47 1294.16 1077.25 1313.55 1077.25Z" stroke="#1A476F" stroke-width="6.45323" fill="#1A476F" transform="matrix(1.00002 0 0 1 -387.666 1268)"/><path d="M1330.37 1060.47 1320.68 1077.25 1340.07 1077.25Z" stroke="#1A476F" stroke-width="6.45323" fill="#1A476F" transform="matrix(1.00002 0 0 1 -387.666 1268)"/><path d="M1356.99 1060.47 1347.3 1077.25 1366.69 1077.25Z" stroke="#1A476F" stroke-width="6.45323" fill="#1A476F" transform="matrix(1.00002 0 0 1 -387.666 1268)"/><path d="M1303.85 1035.46 1294.16 1052.24 1313.55 1052.24Z" stroke="#1A476F" stroke-width="6.45323" fill="#1A476F" transform="matrix(1.00002 0 0 1 -387.666 1268)"/><path d="M1330.37 1035.46 1320.68 1052.24 1340.07 1052.24Z" stroke="#1A476F" stroke-width="6.45323" fill="#1A476F" transform="matrix(1.00002 0 0 1 -387.666 1268)"/><path d="M1356.99 1035.46 1347.3 1052.24 1366.69 1052.24Z" stroke="#1A476F" stroke-width="6.45323" fill="#1A476F" transform="matrix(1.00002 0 0 1 -387.666 1268)"/><path d="M1290.55 1010.55 1280.85 1027.34 1300.24 1027.34Z" stroke="#1A476F" stroke-width="6.45323" fill="#1A476F" transform="matrix(1.00002 0 0 1 -387.666 1268)"/><path d="M1317.17 1010.55 1307.47 1027.34 1326.86 1027.34Z" stroke="#1A476F" stroke-width="6.45323" fill="#1A476F" transform="matrix(1.00002 0 0 1 -387.666 1268)"/><path d="M1343.68 1010.55 1333.99 1027.34 1353.38 1027.34Z" stroke="#1A476F" stroke-width="6.45323" fill="#1A476F" transform="matrix(1.00002 0 0 1 -387.666 1268)"/><path d="M1370.21 1010.55 1360.51 1027.34 1379.89 1027.34Z" stroke="#1A476F" stroke-width="6.45323" fill="#1A476F" transform="matrix(1.00002 0 0 1 -387.666 1268)"/><path d="M1317.17 985.544 1307.47 1002.33 1326.86 1002.33Z" stroke="#1A476F" stroke-width="6.45323" fill="#1A476F" transform="matrix(1.00002 0 0 1 -387.666 1268)"/><path d="M1343.68 985.544 1333.99 1002.33 1353.38 1002.33Z" stroke="#1A476F" stroke-width="6.45323" fill="#1A476F" transform="matrix(1.00002 0 0 1 -387.666 1268)"/><path d="M1210.88 960.538 1201.2 977.329 1220.58 977.329Z" stroke="#1A476F" stroke-width="6.45323" fill="#1A476F" transform="matrix(1.00002 0 0 1 -387.666 1268)"/><path d="M1237.41 960.538 1227.71 977.329 1247.1 977.329Z" stroke="#1A476F" stroke-width="6.45323" fill="#1A476F" transform="matrix(1.00002 0 0 1 -387.666 1268)"/><path d="M1264.03 960.538 1254.33 977.329 1273.72 977.329Z" stroke="#1A476F" stroke-width="6.45323" fill="#1A476F" transform="matrix(1.00002 0 0 1 -387.666 1268)"/><path d="M1290.55 960.538 1280.85 977.329 1300.24 977.329Z" stroke="#1A476F" stroke-width="6.45323" fill="#1A476F" transform="matrix(1.00002 0 0 1 -387.666 1268)"/><path d="M1317.17 960.538 1307.47 977.329 1326.86 977.329Z" stroke="#1A476F" stroke-width="6.45323" fill="#1A476F" transform="matrix(1.00002 0 0 1 -387.666 1268)"/><path d="M1343.68 960.538 1333.99 977.329 1353.38 977.329Z" stroke="#1A476F" stroke-width="6.45323" fill="#1A476F" transform="matrix(1.00002 0 0 1 -387.666 1268)"/><path d="M1370.21 960.538 1360.51 977.329 1379.89 977.329Z" stroke="#1A476F" stroke-width="6.45323" fill="#1A476F" transform="matrix(1.00002 0 0 1 -387.666 1268)"/><path d="M1396.83 960.538 1387.13 977.329 1406.51 977.329Z" stroke="#1A476F" stroke-width="6.45323" fill="#1A476F" transform="matrix(1.00002 0 0 1 -387.666 1268)"/><path d="M1423.34 960.538 1413.65 977.329 1433.04 977.329Z" stroke="#1A476F" stroke-width="6.45323" fill="#1A476F" transform="matrix(1.00002 0 0 1 -387.666 1268)"/><path d="M1449.86 960.538 1440.17 977.329 1459.55 977.329Z" stroke="#1A476F" stroke-width="6.45323" fill="#1A476F" transform="matrix(1.00002 0 0 1 -387.666 1268)"/><path d="M1237.41 935.629 1227.71 952.419 1247.1 952.419Z" stroke="#1A476F" stroke-width="6.45323" fill="#1A476F" transform="matrix(1.00002 0 0 1 -387.666 1268)"/><path d="M1264.03 935.629 1254.33 952.419 1273.72 952.419Z" stroke="#1A476F" stroke-width="6.45323" fill="#1A476F" transform="matrix(1.00002 0 0 1 -387.666 1268)"/><path d="M1290.55 935.629 1280.85 952.419 1300.24 952.419Z" stroke="#1A476F" stroke-width="6.45323" fill="#1A476F" transform="matrix(1.00002 0 0 1 -387.666 1268)"/><path d="M1317.17 935.629 1307.47 952.419 1326.86 952.419Z" stroke="#1A476F" stroke-width="6.45323" fill="#1A476F" transform="matrix(1.00002 0 0 1 -387.666 1268)"/><path d="M1343.68 935.629 1333.99 952.419 1353.38 952.419Z" stroke="#1A476F" stroke-width="6.45323" fill="#1A476F" transform="matrix(1.00002 0 0 1 -387.666 1268)"/><path d="M1370.21 935.629 1360.51 952.419 1379.89 952.419Z" stroke="#1A476F" stroke-width="6.45323" fill="#1A476F" transform="matrix(1.00002 0 0 1 -387.666 1268)"/><path d="M1396.83 935.629 1387.13 952.419 1406.51 952.419Z" stroke="#1A476F" stroke-width="6.45323" fill="#1A476F" transform="matrix(1.00002 0 0 1 -387.666 1268)"/><path d="M1423.34 935.629 1413.65 952.419 1433.04 952.419Z" stroke="#1A476F" stroke-width="6.45323" fill="#1A476F" transform="matrix(1.00002 0 0 1 -387.666 1268)"/><path d="M1171.06 910.623 1161.37 927.413 1180.75 927.413Z" stroke="#1A476F" stroke-width="6.45323" fill="#1A476F" transform="matrix(1.00002 0 0 1 -387.666 1268)"/><path d="M1197.58 910.623 1187.89 927.413 1207.27 927.413Z" stroke="#1A476F" stroke-width="6.45323" fill="#1A476F" transform="matrix(1.00002 0 0 1 -387.666 1268)"/><path d="M1224.2 910.623 1214.51 927.413 1233.89 927.413Z" stroke="#1A476F" stroke-width="6.45323" fill="#1A476F" transform="matrix(1.00002 0 0 1 -387.666 1268)"/><path d="M1250.72 910.623 1241.02 927.413 1260.41 927.413Z" stroke="#1A476F" stroke-width="6.45323" fill="#1A476F" transform="matrix(1.00002 0 0 1 -387.666 1268)"/><path d="M1277.34 910.623 1267.64 927.413 1287.03 927.413Z" stroke="#1A476F" stroke-width="6.45323" fill="#1A476F" transform="matrix(1.00002 0 0 1 -387.666 1268)"/><path d="M1303.85 910.623 1294.16 927.413 1313.55 927.413Z" stroke="#1A476F" stroke-width="6.45323" fill="#1A476F" transform="matrix(1.00002 0 0 1 -387.666 1268)"/><path d="M1330.37 910.623 1320.68 927.413 1340.07 927.413Z" stroke="#1A476F" stroke-width="6.45323" fill="#1A476F" transform="matrix(1.00002 0 0 1 -387.666 1268)"/><path d="M1356.99 910.623 1347.3 927.413 1366.69 927.413Z" stroke="#1A476F" stroke-width="6.45323" fill="#1A476F" transform="matrix(1.00002 0 0 1 -387.666 1268)"/><path d="M1383.52 910.623 1373.82 927.413 1393.2 927.413Z" stroke="#1A476F" stroke-width="6.45323" fill="#1A476F" transform="matrix(1.00002 0 0 1 -387.666 1268)"/><path d="M1410.03 910.623 1400.34 927.413 1419.73 927.413Z" stroke="#1A476F" stroke-width="6.45323" fill="#1A476F" transform="matrix(1.00002 0 0 1 -387.666 1268)"/><path d="M1436.65 910.623 1426.96 927.413 1446.35 927.413Z" stroke="#1A476F" stroke-width="6.45323" fill="#1A476F" transform="matrix(1.00002 0 0 1 -387.666 1268)"/><path d="M1463.17 910.623 1453.48 927.413 1472.86 927.413Z" stroke="#1A476F" stroke-width="6.45323" fill="#1A476F" transform="matrix(1.00002 0 0 1 -387.666 1268)"/><path d="M1489.69 910.623 1479.99 927.413 1499.38 927.413Z" stroke="#1A476F" stroke-width="6.45323" fill="#1A476F" transform="matrix(1.00002 0 0 1 -387.666 1268)"/><path d="M1210.88 885.616 1201.2 902.407 1220.58 902.407Z" stroke="#1A476F" stroke-width="6.45323" fill="#1A476F" transform="matrix(1.00002 0 0 1 -387.666 1268)"/><path d="M1237.41 885.616 1227.71 902.407 1247.1 902.407Z" stroke="#1A476F" stroke-width="6.45323" fill="#1A476F" transform="matrix(1.00002 0 0 1 -387.666 1268)"/><path d="M1264.03 885.616 1254.33 902.407 1273.72 902.407Z" stroke="#1A476F" stroke-width="6.45323" fill="#1A476F" transform="matrix(1.00002 0 0 1 -387.666 1268)"/><path d="M1290.55 885.616 1280.85 902.407 1300.24 902.407Z" stroke="#1A476F" stroke-width="6.45323" fill="#1A476F" transform="matrix(1.00002 0 0 1 -387.666 1268)"/><path d="M1317.17 885.616 1307.47 902.407 1326.86 902.407Z" stroke="#1A476F" stroke-width="6.45323" fill="#1A476F" transform="matrix(1.00002 0 0 1 -387.666 1268)"/><path d="M1343.68 885.616 1333.99 902.407 1353.38 902.407Z" stroke="#1A476F" stroke-width="6.45323" fill="#1A476F" transform="matrix(1.00002 0 0 1 -387.666 1268)"/><path d="M1370.21 885.616 1360.51 902.407 1379.89 902.407Z" stroke="#1A476F" stroke-width="6.45323" fill="#1A476F" transform="matrix(1.00002 0 0 1 -387.666 1268)"/><path d="M1396.83 885.616 1387.13 902.407 1406.51 902.407Z" stroke="#1A476F" stroke-width="6.45323" fill="#1A476F" transform="matrix(1.00002 0 0 1 -387.666 1268)"/><path d="M1423.34 885.616 1413.65 902.407 1433.04 902.407Z" stroke="#1A476F" stroke-width="6.45323" fill="#1A476F" transform="matrix(1.00002 0 0 1 -387.666 1268)"/><path d="M1449.86 885.616 1440.17 902.407 1459.55 902.407Z" stroke="#1A476F" stroke-width="6.45323" fill="#1A476F" transform="matrix(1.00002 0 0 1 -387.666 1268)"/><path d="M1210.88 860.715 1201.2 877.505 1220.58 877.505Z" stroke="#1A476F" stroke-width="6.45323" fill="#1A476F" transform="matrix(1.00002 0 0 1 -387.666 1268)"/><path d="M1237.41 860.715 1227.71 877.505 1247.1 877.505Z" stroke="#1A476F" stroke-width="6.45323" fill="#1A476F" transform="matrix(1.00002 0 0 1 -387.666 1268)"/><path d="M1264.03 860.715 1254.33 877.505 1273.72 877.505Z" stroke="#1A476F" stroke-width="6.45323" fill="#1A476F" transform="matrix(1.00002 0 0 1 -387.666 1268)"/><path d="M1290.55 860.715 1280.85 877.505 1300.24 877.505Z" stroke="#1A476F" stroke-width="6.45323" fill="#1A476F" transform="matrix(1.00002 0 0 1 -387.666 1268)"/><path d="M1317.17 860.715 1307.47 877.505 1326.86 877.505Z" stroke="#1A476F" stroke-width="6.45323" fill="#1A476F" transform="matrix(1.00002 0 0 1 -387.666 1268)"/><path d="M1343.68 860.715 1333.99 877.505 1353.38 877.505Z" stroke="#1A476F" stroke-width="6.45323" fill="#1A476F" transform="matrix(1.00002 0 0 1 -387.666 1268)"/><path d="M1370.21 860.715 1360.51 877.505 1379.89 877.505Z" stroke="#1A476F" stroke-width="6.45323" fill="#1A476F" transform="matrix(1.00002 0 0 1 -387.666 1268)"/><path d="M1396.83 860.715 1387.13 877.505 1406.51 877.505Z" stroke="#1A476F" stroke-width="6.45323" fill="#1A476F" transform="matrix(1.00002 0 0 1 -387.666 1268)"/><path d="M1423.34 860.715 1413.65 877.505 1433.04 877.505Z" stroke="#1A476F" stroke-width="6.45323" fill="#1A476F" transform="matrix(1.00002 0 0 1 -387.666 1268)"/><path d="M1449.86 860.715 1440.17 877.505 1459.55 877.505Z" stroke="#1A476F" stroke-width="6.45323" fill="#1A476F" transform="matrix(1.00002 0 0 1 -387.666 1268)"/><path d="M1250.72 835.708 1241.02 852.499 1260.41 852.499Z" stroke="#1A476F" stroke-width="6.45323" fill="#1A476F" transform="matrix(1.00002 0 0 1 -387.666 1268)"/><path d="M1277.34 835.708 1267.64 852.499 1287.03 852.499Z" stroke="#1A476F" stroke-width="6.45323" fill="#1A476F" transform="matrix(1.00002 0 0 1 -387.666 1268)"/><path d="M1303.85 835.708 1294.16 852.499 1313.55 852.499Z" stroke="#1A476F" stroke-width="6.45323" fill="#1A476F" transform="matrix(1.00002 0 0 1 -387.666 1268)"/><path d="M1330.37 835.708 1320.68 852.499 1340.07 852.499Z" stroke="#1A476F" stroke-width="6.45323" fill="#1A476F" transform="matrix(1.00002 0 0 1 -387.666 1268)"/><path d="M1356.99 835.708 1347.3 852.499 1366.69 852.499Z" stroke="#1A476F" stroke-width="6.45323" fill="#1A476F" transform="matrix(1.00002 0 0 1 -387.666 1268)"/><path d="M1383.52 835.708 1373.82 852.499 1393.2 852.499Z" stroke="#1A476F" stroke-width="6.45323" fill="#1A476F" transform="matrix(1.00002 0 0 1 -387.666 1268)"/><path d="M1410.03 835.708 1400.34 852.499 1419.73 852.499Z" stroke="#1A476F" stroke-width="6.45323" fill="#1A476F" transform="matrix(1.00002 0 0 1 -387.666 1268)"/><path d="M1210.88 810.702 1201.2 827.485 1220.58 827.485Z" stroke="#1A476F" stroke-width="6.45323" fill="#1A476F" transform="matrix(1.00002 0 0 1 -387.666 1268)"/><path d="M1237.41 810.702 1227.71 827.485 1247.1 827.485Z" stroke="#1A476F" stroke-width="6.45323" fill="#1A476F" transform="matrix(1.00002 0 0 1 -387.666 1268)"/><path d="M1264.03 810.702 1254.33 827.485 1273.72 827.485Z" stroke="#1A476F" stroke-width="6.45323" fill="#1A476F" transform="matrix(1.00002 0 0 1 -387.666 1268)"/><path d="M1290.55 810.702 1280.85 827.485 1300.24 827.485Z" stroke="#1A476F" stroke-width="6.45323" fill="#1A476F" transform="matrix(1.00002 0 0 1 -387.666 1268)"/><path d="M1317.17 810.702 1307.47 827.485 1326.86 827.485Z" stroke="#1A476F" stroke-width="6.45323" fill="#1A476F" transform="matrix(1.00002 0 0 1 -387.666 1268)"/><path d="M1343.68 810.702 1333.99 827.485 1353.38 827.485Z" stroke="#1A476F" stroke-width="6.45323" fill="#1A476F" transform="matrix(1.00002 0 0 1 -387.666 1268)"/><path d="M1370.21 810.702 1360.51 827.485 1379.89 827.485Z" stroke="#1A476F" stroke-width="6.45323" fill="#1A476F" transform="matrix(1.00002 0 0 1 -387.666 1268)"/><path d="M1396.83 810.702 1387.13 827.485 1406.51 827.485Z" stroke="#1A476F" stroke-width="6.45323" fill="#1A476F" transform="matrix(1.00002 0 0 1 -387.666 1268)"/><path d="M1423.34 810.702 1413.65 827.485 1433.04 827.485Z" stroke="#1A476F" stroke-width="6.45323" fill="#1A476F" transform="matrix(1.00002 0 0 1 -387.666 1268)"/><path d="M1449.86 810.702 1440.17 827.485 1459.55 827.485Z" stroke="#1A476F" stroke-width="6.45323" fill="#1A476F" transform="matrix(1.00002 0 0 1 -387.666 1268)"/><path d="M1264.03 785.793 1254.33 802.583 1273.72 802.583Z" stroke="#1A476F" stroke-width="6.45323" fill="#1A476F" transform="matrix(1.00002 0 0 1 -387.666 1268)"/><path d="M1290.55 785.793 1280.85 802.583 1300.24 802.583Z" stroke="#1A476F" stroke-width="6.45323" fill="#1A476F" transform="matrix(1.00002 0 0 1 -387.666 1268)"/><path d="M1317.17 785.793 1307.47 802.583 1326.86 802.583Z" stroke="#1A476F" stroke-width="6.45323" fill="#1A476F" transform="matrix(1.00002 0 0 1 -387.666 1268)"/><path d="M1343.68 785.793 1333.99 802.583 1353.38 802.583Z" stroke="#1A476F" stroke-width="6.45323" fill="#1A476F" transform="matrix(1.00002 0 0 1 -387.666 1268)"/><path d="M1370.21 785.793 1360.51 802.583 1379.89 802.583Z" stroke="#1A476F" stroke-width="6.45323" fill="#1A476F" transform="matrix(1.00002 0 0 1 -387.666 1268)"/><path d="M1396.83 785.793 1387.13 802.583 1406.51 802.583Z" stroke="#1A476F" stroke-width="6.45323" fill="#1A476F" transform="matrix(1.00002 0 0 1 -387.666 1268)"/><path d="M1237.41 760.787 1227.71 777.577 1247.1 777.577Z" stroke="#1A476F" stroke-width="6.45323" fill="#1A476F" transform="matrix(1.00002 0 0 1 -387.666 1268)"/><path d="M1264.03 760.787 1254.33 777.577 1273.72 777.577Z" stroke="#1A476F" stroke-width="6.45323" fill="#1A476F" transform="matrix(1.00002 0 0 1 -387.666 1268)"/><path d="M1290.55 760.787 1280.85 777.577 1300.24 777.577Z" stroke="#1A476F" stroke-width="6.45323" fill="#1A476F" transform="matrix(1.00002 0 0 1 -387.666 1268)"/><path d="M1317.17 760.787 1307.47 777.577 1326.86 777.577Z" stroke="#1A476F" stroke-width="6.45323" fill="#1A476F" transform="matrix(1.00002 0 0 1 -387.666 1268)"/><path d="M1343.68 760.787 1333.99 777.577 1353.38 777.577Z" stroke="#1A476F" stroke-width="6.45323" fill="#1A476F" transform="matrix(1.00002 0 0 1 -387.666 1268)"/><path d="M1370.21 760.787 1360.51 777.577 1379.89 777.577Z" stroke="#1A476F" stroke-width="6.45323" fill="#1A476F" transform="matrix(1.00002 0 0 1 -387.666 1268)"/><path d="M1396.83 760.787 1387.13 777.577 1406.51 777.577Z" stroke="#1A476F" stroke-width="6.45323" fill="#1A476F" transform="matrix(1.00002 0 0 1 -387.666 1268)"/><path d="M1423.34 760.787 1413.65 777.577 1433.04 777.577Z" stroke="#1A476F" stroke-width="6.45323" fill="#1A476F" transform="matrix(1.00002 0 0 1 -387.666 1268)"/><path d="M1250.72 735.781 1241.02 752.571 1260.41 752.571Z" stroke="#1A476F" stroke-width="6.45323" fill="#1A476F" transform="matrix(1.00002 0 0 1 -387.666 1268)"/><path d="M1277.34 735.781 1267.64 752.571 1287.03 752.571Z" stroke="#1A476F" stroke-width="6.45323" fill="#1A476F" transform="matrix(1.00002 0 0 1 -387.666 1268)"/><path d="M1303.85 735.781 1294.16 752.571 1313.55 752.571Z" stroke="#1A476F" stroke-width="6.45323" fill="#1A476F" transform="matrix(1.00002 0 0 1 -387.666 1268)"/><path d="M1330.37 735.781 1320.68 752.571 1340.07 752.571Z" stroke="#1A476F" stroke-width="6.45323" fill="#1A476F" transform="matrix(1.00002 0 0 1 -387.666 1268)"/><path d="M1356.99 735.781 1347.3 752.571 1366.69 752.571Z" stroke="#1A476F" stroke-width="6.45323" fill="#1A476F" transform="matrix(1.00002 0 0 1 -387.666 1268)"/><path d="M1383.52 735.781 1373.82 752.571 1393.2 752.571Z" stroke="#1A476F" stroke-width="6.45323" fill="#1A476F" transform="matrix(1.00002 0 0 1 -387.666 1268)"/><path d="M1410.03 735.781 1400.34 752.571 1419.73 752.571Z" stroke="#1A476F" stroke-width="6.45323" fill="#1A476F" transform="matrix(1.00002 0 0 1 -387.666 1268)"/><path d="M1250.72 710.879 1241.02 727.662 1260.41 727.662Z" stroke="#1A476F" stroke-width="6.45323" fill="#1A476F" transform="matrix(1.00002 0 0 1 -387.666 1268)"/><path d="M1277.34 710.879 1267.64 727.662 1287.03 727.662Z" stroke="#1A476F" stroke-width="6.45323" fill="#1A476F" transform="matrix(1.00002 0 0 1 -387.666 1268)"/><path d="M1303.85 710.879 1294.16 727.662 1313.55 727.662Z" stroke="#1A476F" stroke-width="6.45323" fill="#1A476F" transform="matrix(1.00002 0 0 1 -387.666 1268)"/><path d="M1330.37 710.879 1320.68 727.662 1340.07 727.662Z" stroke="#1A476F" stroke-width="6.45323" fill="#1A476F" transform="matrix(1.00002 0 0 1 -387.666 1268)"/><path d="M1356.99 710.879 1347.3 727.662 1366.69 727.662Z" stroke="#1A476F" stroke-width="6.45323" fill="#1A476F" transform="matrix(1.00002 0 0 1 -387.666 1268)"/><path d="M1383.52 710.879 1373.82 727.662 1393.2 727.662Z" stroke="#1A476F" stroke-width="6.45323" fill="#1A476F" transform="matrix(1.00002 0 0 1 -387.666 1268)"/><path d="M1410.03 710.879 1400.34 727.662 1419.73 727.662Z" stroke="#1A476F" stroke-width="6.45323" fill="#1A476F" transform="matrix(1.00002 0 0 1 -387.666 1268)"/><path d="M1237.41 685.865 1227.71 702.655 1247.1 702.655Z" stroke="#1A476F" stroke-width="6.45323" fill="#1A476F" transform="matrix(1.00002 0 0 1 -387.666 1268)"/><path d="M1264.03 685.865 1254.33 702.655 1273.72 702.655Z" stroke="#1A476F" stroke-width="6.45323" fill="#1A476F" transform="matrix(1.00002 0 0 1 -387.666 1268)"/><path d="M1290.55 685.865 1280.85 702.655 1300.24 702.655Z" stroke="#1A476F" stroke-width="6.45323" fill="#1A476F" transform="matrix(1.00002 0 0 1 -387.666 1268)"/><path d="M1317.17 685.865 1307.47 702.655 1326.86 702.655Z" stroke="#1A476F" stroke-width="6.45323" fill="#1A476F" transform="matrix(1.00002 0 0 1 -387.666 1268)"/><path d="M1343.68 685.865 1333.99 702.655 1353.38 702.655Z" stroke="#1A476F" stroke-width="6.45323" fill="#1A476F" transform="matrix(1.00002 0 0 1 -387.666 1268)"/><path d="M1370.21 685.865 1360.51 702.655 1379.89 702.655Z" stroke="#1A476F" stroke-width="6.45323" fill="#1A476F" transform="matrix(1.00002 0 0 1 -387.666 1268)"/><path d="M1396.83 685.865 1387.13 702.655 1406.51 702.655Z" stroke="#1A476F" stroke-width="6.45323" fill="#1A476F" transform="matrix(1.00002 0 0 1 -387.666 1268)"/><path d="M1423.34 685.865 1413.65 702.655 1433.04 702.655Z" stroke="#1A476F" stroke-width="6.45323" fill="#1A476F" transform="matrix(1.00002 0 0 1 -387.666 1268)"/><path d="M1224.2 660.859 1214.51 677.649 1233.89 677.649Z" stroke="#1A476F" stroke-width="6.45323" fill="#1A476F" transform="matrix(1.00002 0 0 1 -387.666 1268)"/><path d="M1250.72 660.859 1241.02 677.649 1260.41 677.649Z" stroke="#1A476F" stroke-width="6.45323" fill="#1A476F" transform="matrix(1.00002 0 0 1 -387.666 1268)"/><path d="M1277.34 660.859 1267.64 677.649 1287.03 677.649Z" stroke="#1A476F" stroke-width="6.45323" fill="#1A476F" transform="matrix(1.00002 0 0 1 -387.666 1268)"/><path d="M1303.85 660.859 1294.16 677.649 1313.55 677.649Z" stroke="#1A476F" stroke-width="6.45323" fill="#1A476F" transform="matrix(1.00002 0 0 1 -387.666 1268)"/><path d="M1330.37 660.859 1320.68 677.649 1340.07 677.649Z" stroke="#1A476F" stroke-width="6.45323" fill="#1A476F" transform="matrix(1.00002 0 0 1 -387.666 1268)"/><path d="M1356.99 660.859 1347.3 677.649 1366.69 677.649Z" stroke="#1A476F" stroke-width="6.45323" fill="#1A476F" transform="matrix(1.00002 0 0 1 -387.666 1268)"/><path d="M1383.52 660.859 1373.82 677.649 1393.2 677.649Z" stroke="#1A476F" stroke-width="6.45323" fill="#1A476F" transform="matrix(1.00002 0 0 1 -387.666 1268)"/><path d="M1410.03 660.859 1400.34 677.649 1419.73 677.649Z" stroke="#1A476F" stroke-width="6.45323" fill="#1A476F" transform="matrix(1.00002 0 0 1 -387.666 1268)"/><path d="M1436.65 660.859 1426.96 677.649 1446.35 677.649Z" stroke="#1A476F" stroke-width="6.45323" fill="#1A476F" transform="matrix(1.00002 0 0 1 -387.666 1268)"/><path d="M1264.03 635.957 1254.33 652.747 1273.72 652.747Z" stroke="#1A476F" stroke-width="6.45323" fill="#1A476F" transform="matrix(1.00002 0 0 1 -387.666 1268)"/><path d="M1290.55 635.957 1280.85 652.747 1300.24 652.747Z" stroke="#1A476F" stroke-width="6.45323" fill="#1A476F" transform="matrix(1.00002 0 0 1 -387.666 1268)"/><path d="M1317.17 635.957 1307.47 652.747 1326.86 652.747Z" stroke="#1A476F" stroke-width="6.45323" fill="#1A476F" transform="matrix(1.00002 0 0 1 -387.666 1268)"/><path d="M1343.68 635.957 1333.99 652.747 1353.38 652.747Z" stroke="#1A476F" stroke-width="6.45323" fill="#1A476F" transform="matrix(1.00002 0 0 1 -387.666 1268)"/><path d="M1370.21 635.957 1360.51 652.747 1379.89 652.747Z" stroke="#1A476F" stroke-width="6.45323" fill="#1A476F" transform="matrix(1.00002 0 0 1 -387.666 1268)"/><path d="M1396.83 635.957 1387.13 652.747 1406.51 652.747Z" stroke="#1A476F" stroke-width="6.45323" fill="#1A476F" transform="matrix(1.00002 0 0 1 -387.666 1268)"/><path d="M1277.34 610.951 1267.64 627.741 1287.03 627.741Z" stroke="#1A476F" stroke-width="6.45323" fill="#1A476F" transform="matrix(1.00002 0 0 1 -387.666 1268)"/><path d="M1303.85 610.951 1294.16 627.741 1313.55 627.741Z" stroke="#1A476F" stroke-width="6.45323" fill="#1A476F" transform="matrix(1.00002 0 0 1 -387.666 1268)"/><path d="M1330.37 610.951 1320.68 627.741 1340.07 627.741Z" stroke="#1A476F" stroke-width="6.45323" fill="#1A476F" transform="matrix(1.00002 0 0 1 -387.666 1268)"/><path d="M1356.99 610.951 1347.3 627.741 1366.69 627.741Z" stroke="#1A476F" stroke-width="6.45323" fill="#1A476F" transform="matrix(1.00002 0 0 1 -387.666 1268)"/><path d="M1383.52 610.951 1373.82 627.741 1393.2 627.741Z" stroke="#1A476F" stroke-width="6.45323" fill="#1A476F" transform="matrix(1.00002 0 0 1 -387.666 1268)"/><path d="M1250.72 585.945 1241.02 602.727 1260.41 602.727Z" stroke="#1A476F" stroke-width="6.45323" fill="#1A476F" transform="matrix(1.00002 0 0 1 -387.666 1268)"/><path d="M1277.34 585.945 1267.64 602.727 1287.03 602.727Z" stroke="#1A476F" stroke-width="6.45323" fill="#1A476F" transform="matrix(1.00002 0 0 1 -387.666 1268)"/><path d="M1303.85 585.945 1294.16 602.727 1313.55 602.727Z" stroke="#1A476F" stroke-width="6.45323" fill="#1A476F" transform="matrix(1.00002 0 0 1 -387.666 1268)"/><path d="M1330.37 585.945 1320.68 602.727 1340.07 602.727Z" stroke="#1A476F" stroke-width="6.45323" fill="#1A476F" transform="matrix(1.00002 0 0 1 -387.666 1268)"/><path d="M1356.99 585.945 1347.3 602.727 1366.69 602.727Z" stroke="#1A476F" stroke-width="6.45323" fill="#1A476F" transform="matrix(1.00002 0 0 1 -387.666 1268)"/><path d="M1383.52 585.945 1373.82 602.727 1393.2 602.727Z" stroke="#1A476F" stroke-width="6.45323" fill="#1A476F" transform="matrix(1.00002 0 0 1 -387.666 1268)"/><path d="M1410.03 585.945 1400.34 602.727 1419.73 602.727Z" stroke="#1A476F" stroke-width="6.45323" fill="#1A476F" transform="matrix(1.00002 0 0 1 -387.666 1268)"/><path d="M1317.17 561.035 1307.47 577.826 1326.86 577.826Z" stroke="#1A476F" stroke-width="6.45323" fill="#1A476F" transform="matrix(1.00002 0 0 1 -387.666 1268)"/><path d="M1343.68 561.035 1333.99 577.826 1353.38 577.826Z" stroke="#1A476F" stroke-width="6.45323" fill="#1A476F" transform="matrix(1.00002 0 0 1 -387.666 1268)"/><path d="M1317.17 536.029 1307.47 552.819 1326.86 552.819Z" stroke="#1A476F" stroke-width="6.45323" fill="#1A476F" transform="matrix(1.00002 0 0 1 -387.666 1268)"/><path d="M1343.68 536.029 1333.99 552.819 1353.38 552.819Z" stroke="#1A476F" stroke-width="6.45323" fill="#1A476F" transform="matrix(1.00002 0 0 1 -387.666 1268)"/><path d="M1303.85 511.023 1294.16 527.813 1313.55 527.813Z" stroke="#1A476F" stroke-width="6.45323" fill="#1A476F" transform="matrix(1.00002 0 0 1 -387.666 1268)"/><path d="M1330.37 511.023 1320.68 527.813 1340.07 527.813Z" stroke="#1A476F" stroke-width="6.45323" fill="#1A476F" transform="matrix(1.00002 0 0 1 -387.666 1268)"/><path d="M1356.99 511.023 1347.3 527.813 1366.69 527.813Z" stroke="#1A476F" stroke-width="6.45323" fill="#1A476F" transform="matrix(1.00002 0 0 1 -387.666 1268)"/><path d="M1317.17 486.121 1307.47 502.904 1326.86 502.904Z" stroke="#1A476F" stroke-width="6.45323" fill="#1A476F" transform="matrix(1.00002 0 0 1 -387.666 1268)"/><path d="M1343.68 486.121 1333.99 502.904 1353.38 502.904Z" stroke="#1A476F" stroke-width="6.45323" fill="#1A476F" transform="matrix(1.00002 0 0 1 -387.666 1268)"/><path d="M1303.85 461.107 1294.16 477.898 1313.55 477.898Z" stroke="#1A476F" stroke-width="6.45323" fill="#1A476F" transform="matrix(1.00002 0 0 1 -387.666 1268)"/><path d="M1330.37 461.107 1320.68 477.898 1340.07 477.898Z" stroke="#1A476F" stroke-width="6.45323" fill="#1A476F" transform="matrix(1.00002 0 0 1 -387.666 1268)"/><path d="M1356.99 461.107 1347.3 477.898 1366.69 477.898Z" stroke="#1A476F" stroke-width="6.45323" fill="#1A476F" transform="matrix(1.00002 0 0 1 -387.666 1268)"/><path d="M1290.55 436.101 1280.85 452.891 1300.24 452.891Z" stroke="#1A476F" stroke-width="6.45323" fill="#1A476F" transform="matrix(1.00002 0 0 1 -387.666 1268)"/><path d="M1317.17 436.101 1307.47 452.891 1326.86 452.891Z" stroke="#1A476F" stroke-width="6.45323" fill="#1A476F" transform="matrix(1.00002 0 0 1 -387.666 1268)"/><path d="M1343.68 436.101 1333.99 452.891 1353.38 452.891Z" stroke="#1A476F" stroke-width="6.45323" fill="#1A476F" transform="matrix(1.00002 0 0 1 -387.666 1268)"/><path d="M1370.21 436.101 1360.51 452.891 1379.89 452.891Z" stroke="#1A476F" stroke-width="6.45323" fill="#1A476F" transform="matrix(1.00002 0 0 1 -387.666 1268)"/><path d="M1330.37 411.199 1320.68 427.99 1340.07 427.99Z" stroke="#1A476F" stroke-width="6.45323" fill="#1A476F" transform="matrix(1.00002 0 0 1 -387.666 1268)"/><path d="M1330.37 336.278 1320.68 353.068 1340.07 353.068Z" stroke="#1A476F" stroke-width="6.45323" fill="#1A476F" transform="matrix(1.00002 0 0 1 -387.666 1268)"/><path d="M1330.37 236.357 1320.68 253.14 1340.07 253.14Z" stroke="#1A476F" stroke-width="6.45323" fill="#1A476F" transform="matrix(1.00002 0 0 1 -387.666 1268)"/><path d="M1330.37 211.343 1320.68 228.134 1340.07 228.134Z" stroke="#1A476F" stroke-width="6.45323" fill="#1A476F" transform="matrix(1.00002 0 0 1 -387.666 1268)"/><path d="M2038.62 1321.42C2038.62 1327.6 2033.61 1332.61 2027.43 1332.61 2021.25 1332.61 2016.24 1327.6 2016.24 1321.42 2016.24 1315.24 2021.25 1310.23 2027.43 1310.23 2033.61 1310.23 2038.62 1315.24 2038.62 1321.42Z" stroke="#8C0028" stroke-width="6.45323" fill="none" transform="matrix(1.00002 0 0 1 -387.666 1268)"/><path d="M2025.31 1221.5C2025.31 1227.68 2020.3 1232.69 2014.12 1232.69 2007.94 1232.69 2002.93 1227.68 2002.93 1221.5 2002.93 1215.32 2007.94 1210.31 2014.12 1210.31 2020.3 1210.31 2025.31 1215.32 2025.31 1221.5Z" stroke="#8C0028" stroke-width="6.45323" fill="none" transform="matrix(1.00002 0 0 1 -387.666 1268)"/><path d="M2051.92 1221.5C2051.92 1227.68 2046.91 1232.69 2040.73 1232.69 2034.55 1232.69 2029.54 1227.68 2029.54 1221.5 2029.54 1215.32 2034.55 1210.31 2040.73 1210.31 2046.91 1210.31 2051.92 1215.32 2051.92 1221.5Z" stroke="#8C0028" stroke-width="6.45323" fill="none" transform="matrix(1.00002 0 0 1 -387.666 1268)"/><path d="M2025.31 1196.49C2025.31 1202.67 2020.3 1207.68 2014.12 1207.68 2007.94 1207.68 2002.93 1202.67 2002.93 1196.49 2002.93 1190.31 2007.94 1185.3 2014.12 1185.3 2020.3 1185.3 2025.31 1190.31 2025.31 1196.49Z" stroke="#8C0028" stroke-width="6.45323" fill="none" transform="matrix(1.00002 0 0 1 -387.666 1268)"/><path d="M2051.92 1196.49C2051.92 1202.67 2046.91 1207.68 2040.73 1207.68 2034.55 1207.68 2029.54 1202.67 2029.54 1196.49 2029.54 1190.31 2034.55 1185.3 2040.73 1185.3 2046.91 1185.3 2051.92 1190.31 2051.92 1196.49Z" stroke="#8C0028" stroke-width="6.45323" fill="none" transform="matrix(1.00002 0 0 1 -387.666 1268)"/><path d="M2025.31 1146.58C2025.31 1152.76 2020.3 1157.77 2014.12 1157.77 2007.94 1157.77 2002.93 1152.76 2002.93 1146.58 2002.93 1140.4 2007.94 1135.39 2014.12 1135.39 2020.3 1135.39 2025.31 1140.4 2025.31 1146.58Z" stroke="#8C0028" stroke-width="6.45323" fill="none" transform="matrix(1.00002 0 0 1 -387.666 1268)"/><path d="M2051.92 1146.58C2051.92 1152.76 2046.91 1157.77 2040.73 1157.77 2034.55 1157.77 2029.54 1152.76 2029.54 1146.58 2029.54 1140.4 2034.55 1135.39 2040.73 1135.39 2046.91 1135.39 2051.92 1140.4 2051.92 1146.58Z" stroke="#8C0028" stroke-width="6.45323" fill="none" transform="matrix(1.00002 0 0 1 -387.666 1268)"/><path d="M1945.64 1121.57C1945.64 1127.75 1940.63 1132.76 1934.45 1132.76 1928.27 1132.76 1923.26 1127.75 1923.26 1121.57 1923.26 1115.39 1928.27 1110.38 1934.45 1110.38 1940.63 1110.38 1945.64 1115.39 1945.64 1121.57Z" stroke="#8C0028" stroke-width="6.45323" fill="none" transform="matrix(1.00002 0 0 1 -387.666 1268)"/><path d="M1972.26 1121.57C1972.26 1127.75 1967.25 1132.76 1961.07 1132.76 1954.89 1132.76 1949.88 1127.75 1949.88 1121.57 1949.88 1115.39 1954.89 1110.38 1961.07 1110.38 1967.25 1110.38 1972.26 1115.39 1972.26 1121.57Z" stroke="#8C0028" stroke-width="6.45323" fill="none" transform="matrix(1.00002 0 0 1 -387.666 1268)"/><path d="M1998.78 1121.57C1998.78 1127.75 1993.77 1132.76 1987.6 1132.76 1981.42 1132.76 1976.41 1127.75 1976.41 1121.57 1976.41 1115.39 1981.42 1110.38 1987.6 1110.38 1993.77 1110.38 1998.78 1115.39 1998.78 1121.57Z" stroke="#8C0028" stroke-width="6.45323" fill="none" transform="matrix(1.00002 0 0 1 -387.666 1268)"/><path d="M2025.31 1121.57C2025.31 1127.75 2020.3 1132.76 2014.12 1132.76 2007.94 1132.76 2002.93 1127.75 2002.93 1121.57 2002.93 1115.39 2007.94 1110.38 2014.12 1110.38 2020.3 1110.38 2025.31 1115.39 2025.31 1121.57Z" stroke="#8C0028" stroke-width="6.45323" fill="none" transform="matrix(1.00002 0 0 1 -387.666 1268)"/><path d="M2051.92 1121.57C2051.92 1127.75 2046.91 1132.76 2040.73 1132.76 2034.55 1132.76 2029.54 1127.75 2029.54 1121.57 2029.54 1115.39 2034.55 1110.38 2040.73 1110.38 2046.91 1110.38 2051.92 1115.39 2051.92 1121.57Z" stroke="#8C0028" stroke-width="6.45323" fill="none" transform="matrix(1.00002 0 0 1 -387.666 1268)"/><path d="M2078.44 1121.57C2078.44 1127.75 2073.43 1132.76 2067.25 1132.76 2061.07 1132.76 2056.06 1127.75 2056.06 1121.57 2056.06 1115.39 2061.07 1110.38 2067.25 1110.38 2073.43 1110.38 2078.44 1115.39 2078.44 1121.57Z" stroke="#8C0028" stroke-width="6.45323" fill="none" transform="matrix(1.00002 0 0 1 -387.666 1268)"/><path d="M2104.96 1121.57C2104.96 1127.75 2099.95 1132.76 2093.78 1132.76 2087.6 1132.76 2082.59 1127.75 2082.59 1121.57 2082.59 1115.39 2087.6 1110.38 2093.78 1110.38 2099.95 1110.38 2104.96 1115.39 2104.96 1121.57Z" stroke="#8C0028" stroke-width="6.45323" fill="none" transform="matrix(1.00002 0 0 1 -387.666 1268)"/><path d="M2131.58 1121.57C2131.58 1127.75 2126.57 1132.76 2120.39 1132.76 2114.22 1132.76 2109.21 1127.75 2109.21 1121.57 2109.21 1115.39 2114.22 1110.38 2120.39 1110.38 2126.57 1110.38 2131.58 1115.39 2131.58 1121.57Z" stroke="#8C0028" stroke-width="6.45323" fill="none" transform="matrix(1.00002 0 0 1 -387.666 1268)"/><path d="M1879.3 1096.66C1879.3 1102.84 1874.29 1107.85 1868.11 1107.85 1861.93 1107.85 1856.92 1102.84 1856.92 1096.66 1856.92 1090.48 1861.93 1085.47 1868.11 1085.47 1874.29 1085.47 1879.3 1090.48 1879.3 1096.66Z" stroke="#8C0028" stroke-width="6.45323" fill="none" transform="matrix(1.00002 0 0 1 -387.666 1268)"/><path d="M1905.82 1096.66C1905.82 1102.84 1900.81 1107.85 1894.63 1107.85 1888.45 1107.85 1883.44 1102.84 1883.44 1096.66 1883.44 1090.48 1888.45 1085.47 1894.63 1085.47 1900.81 1085.47 1905.82 1090.48 1905.82 1096.66Z" stroke="#8C0028" stroke-width="6.45323" fill="none" transform="matrix(1.00002 0 0 1 -387.666 1268)"/><path d="M1932.34 1096.66C1932.34 1102.84 1927.33 1107.85 1921.15 1107.85 1914.97 1107.85 1909.96 1102.84 1909.96 1096.66 1909.96 1090.48 1914.97 1085.47 1921.15 1085.47 1927.33 1085.47 1932.34 1090.48 1932.34 1096.66Z" stroke="#8C0028" stroke-width="6.45323" fill="none" transform="matrix(1.00002 0 0 1 -387.666 1268)"/><path d="M1958.96 1096.66C1958.96 1102.84 1953.95 1107.85 1947.77 1107.85 1941.59 1107.85 1936.58 1102.84 1936.58 1096.66 1936.58 1090.48 1941.59 1085.47 1947.77 1085.47 1953.95 1085.47 1958.96 1090.48 1958.96 1096.66Z" stroke="#8C0028" stroke-width="6.45323" fill="none" transform="matrix(1.00002 0 0 1 -387.666 1268)"/><path d="M1985.47 1096.66C1985.47 1102.84 1980.46 1107.85 1974.29 1107.85 1968.11 1107.85 1963.1 1102.84 1963.1 1096.66 1963.1 1090.48 1968.11 1085.47 1974.29 1085.47 1980.46 1085.47 1985.47 1090.48 1985.47 1096.66Z" stroke="#8C0028" stroke-width="6.45323" fill="none" transform="matrix(1.00002 0 0 1 -387.666 1268)"/><path d="M2012.09 1096.66C2012.09 1102.84 2007.08 1107.85 2000.91 1107.85 1994.73 1107.85 1989.72 1102.84 1989.72 1096.66 1989.72 1090.48 1994.73 1085.47 2000.91 1085.47 2007.08 1085.47 2012.09 1090.48 2012.09 1096.66Z" stroke="#8C0028" stroke-width="6.45323" fill="none" transform="matrix(1.00002 0 0 1 -387.666 1268)"/><path d="M2038.62 1096.66C2038.62 1102.84 2033.61 1107.85 2027.43 1107.85 2021.25 1107.85 2016.24 1102.84 2016.24 1096.66 2016.24 1090.48 2021.25 1085.47 2027.43 1085.47 2033.61 1085.47 2038.62 1090.48 2038.62 1096.66Z" stroke="#8C0028" stroke-width="6.45323" fill="none" transform="matrix(1.00002 0 0 1 -387.666 1268)"/><path d="M2065.13 1096.66C2065.13 1102.84 2060.12 1107.85 2053.94 1107.85 2047.76 1107.85 2042.75 1102.84 2042.75 1096.66 2042.75 1090.48 2047.76 1085.47 2053.94 1085.47 2060.12 1085.47 2065.13 1090.48 2065.13 1096.66Z" stroke="#8C0028" stroke-width="6.45323" fill="none" transform="matrix(1.00002 0 0 1 -387.666 1268)"/><path d="M2091.75 1096.66C2091.75 1102.84 2086.74 1107.85 2080.56 1107.85 2074.38 1107.85 2069.37 1102.84 2069.37 1096.66 2069.37 1090.48 2074.38 1085.47 2080.56 1085.47 2086.74 1085.47 2091.75 1090.48 2091.75 1096.66Z" stroke="#8C0028" stroke-width="6.45323" fill="none" transform="matrix(1.00002 0 0 1 -387.666 1268)"/><path d="M2118.27 1096.66C2118.27 1102.84 2113.26 1107.85 2107.08 1107.85 2100.9 1107.85 2095.89 1102.84 2095.89 1096.66 2095.89 1090.48 2100.9 1085.47 2107.08 1085.47 2113.26 1085.47 2118.27 1090.48 2118.27 1096.66Z" stroke="#8C0028" stroke-width="6.45323" fill="none" transform="matrix(1.00002 0 0 1 -387.666 1268)"/><path d="M2144.79 1096.66C2144.79 1102.84 2139.78 1107.85 2133.6 1107.85 2127.42 1107.85 2122.41 1102.84 2122.41 1096.66 2122.41 1090.48 2127.42 1085.47 2133.6 1085.47 2139.78 1085.47 2144.79 1090.48 2144.79 1096.66Z" stroke="#8C0028" stroke-width="6.45323" fill="none" transform="matrix(1.00002 0 0 1 -387.666 1268)"/><path d="M2171.41 1096.66C2171.41 1102.84 2166.4 1107.85 2160.22 1107.85 2154.04 1107.85 2149.03 1102.84 2149.03 1096.66 2149.03 1090.48 2154.04 1085.47 2160.22 1085.47 2166.4 1085.47 2171.41 1090.48 2171.41 1096.66Z" stroke="#8C0028" stroke-width="6.45323" fill="none" transform="matrix(1.00002 0 0 1 -387.666 1268)"/><path d="M2197.92 1096.66C2197.92 1102.84 2192.91 1107.85 2186.73 1107.85 2180.56 1107.85 2175.55 1102.84 2175.55 1096.66 2175.55 1090.48 2180.56 1085.47 2186.73 1085.47 2192.91 1085.47 2197.92 1090.48 2197.92 1096.66Z" stroke="#8C0028" stroke-width="6.45323" fill="none" transform="matrix(1.00002 0 0 1 -387.666 1268)"/><path d="M1759.81 1071.65C1759.81 1077.83 1754.8 1082.84 1748.62 1082.84 1742.44 1082.84 1737.44 1077.83 1737.44 1071.65 1737.44 1065.48 1742.44 1060.47 1748.62 1060.47 1754.8 1060.47 1759.81 1065.48 1759.81 1071.65Z" stroke="#8C0028" stroke-width="6.45323" fill="none" transform="matrix(1.00002 0 0 1 -387.666 1268)"/><path d="M1786.34 1071.65C1786.34 1077.83 1781.33 1082.84 1775.15 1082.84 1768.97 1082.84 1763.96 1077.83 1763.96 1071.65 1763.96 1065.48 1768.97 1060.47 1775.15 1060.47 1781.33 1060.47 1786.34 1065.48 1786.34 1071.65Z" stroke="#8C0028" stroke-width="6.45323" fill="none" transform="matrix(1.00002 0 0 1 -387.666 1268)"/><path d="M1812.85 1071.65C1812.85 1077.83 1807.84 1082.84 1801.66 1082.84 1795.48 1082.84 1790.47 1077.83 1790.47 1071.65 1790.47 1065.48 1795.48 1060.47 1801.66 1060.47 1807.84 1060.47 1812.85 1065.48 1812.85 1071.65Z" stroke="#8C0028" stroke-width="6.45323" fill="none" transform="matrix(1.00002 0 0 1 -387.666 1268)"/><path d="M1839.47 1071.65C1839.47 1077.83 1834.46 1082.84 1828.28 1082.84 1822.1 1082.84 1817.09 1077.83 1817.09 1071.65 1817.09 1065.48 1822.1 1060.47 1828.28 1060.47 1834.46 1060.47 1839.47 1065.48 1839.47 1071.65Z" stroke="#8C0028" stroke-width="6.45323" fill="none" transform="matrix(1.00002 0 0 1 -387.666 1268)"/><path d="M1865.98 1071.65C1865.98 1077.83 1860.98 1082.84 1854.8 1082.84 1848.62 1082.84 1843.61 1077.83 1843.61 1071.65 1843.61 1065.48 1848.62 1060.47 1854.8 1060.47 1860.98 1060.47 1865.98 1065.48 1865.98 1071.65Z" stroke="#8C0028" stroke-width="6.45323" fill="none" transform="matrix(1.00002 0 0 1 -387.666 1268)"/><path d="M1892.51 1071.65C1892.51 1077.83 1887.5 1082.84 1881.32 1082.84 1875.14 1082.84 1870.13 1077.83 1870.13 1071.65 1870.13 1065.48 1875.14 1060.47 1881.32 1060.47 1887.5 1060.47 1892.51 1065.48 1892.51 1071.65Z" stroke="#8C0028" stroke-width="6.45323" fill="none" transform="matrix(1.00002 0 0 1 -387.666 1268)"/><path d="M1919.13 1071.65C1919.13 1077.83 1914.12 1082.84 1907.94 1082.84 1901.76 1082.84 1896.75 1077.83 1896.75 1071.65 1896.75 1065.48 1901.76 1060.47 1907.94 1060.47 1914.12 1060.47 1919.13 1065.48 1919.13 1071.65Z" stroke="#8C0028" stroke-width="6.45323" fill="none" transform="matrix(1.00002 0 0 1 -387.666 1268)"/><path d="M1945.64 1071.65C1945.64 1077.83 1940.63 1082.84 1934.45 1082.84 1928.27 1082.84 1923.26 1077.83 1923.26 1071.65 1923.26 1065.48 1928.27 1060.47 1934.45 1060.47 1940.63 1060.47 1945.64 1065.48 1945.64 1071.65Z" stroke="#8C0028" stroke-width="6.45323" fill="none" transform="matrix(1.00002 0 0 1 -387.666 1268)"/><path d="M1972.26 1071.65C1972.26 1077.83 1967.25 1082.84 1961.07 1082.84 1954.89 1082.84 1949.88 1077.83 1949.88 1071.65 1949.88 1065.48 1954.89 1060.47 1961.07 1060.47 1967.25 1060.47 1972.26 1065.48 1972.26 1071.65Z" stroke="#8C0028" stroke-width="6.45323" fill="none" transform="matrix(1.00002 0 0 1 -387.666 1268)"/><path d="M1998.78 1071.65C1998.78 1077.83 1993.77 1082.84 1987.6 1082.84 1981.42 1082.84 1976.41 1077.83 1976.41 1071.65 1976.41 1065.48 1981.42 1060.47 1987.6 1060.47 1993.77 1060.47 1998.78 1065.48 1998.78 1071.65Z" stroke="#8C0028" stroke-width="6.45323" fill="none" transform="matrix(1.00002 0 0 1 -387.666 1268)"/><path d="M2025.31 1071.65C2025.31 1077.83 2020.3 1082.84 2014.12 1082.84 2007.94 1082.84 2002.93 1077.83 2002.93 1071.65 2002.93 1065.48 2007.94 1060.47 2014.12 1060.47 2020.3 1060.47 2025.31 1065.48 2025.31 1071.65Z" stroke="#8C0028" stroke-width="6.45323" fill="none" transform="matrix(1.00002 0 0 1 -387.666 1268)"/><path d="M2051.92 1071.65C2051.92 1077.83 2046.91 1082.84 2040.73 1082.84 2034.55 1082.84 2029.54 1077.83 2029.54 1071.65 2029.54 1065.48 2034.55 1060.47 2040.73 1060.47 2046.91 1060.47 2051.92 1065.48 2051.92 1071.65Z" stroke="#8C0028" stroke-width="6.45323" fill="none" transform="matrix(1.00002 0 0 1 -387.666 1268)"/><path d="M2078.44 1071.65C2078.44 1077.83 2073.43 1082.84 2067.25 1082.84 2061.07 1082.84 2056.06 1077.83 2056.06 1071.65 2056.06 1065.48 2061.07 1060.47 2067.25 1060.47 2073.43 1060.47 2078.44 1065.48 2078.44 1071.65Z" stroke="#8C0028" stroke-width="6.45323" fill="none" transform="matrix(1.00002 0 0 1 -387.666 1268)"/><path d="M2104.96 1071.65C2104.96 1077.83 2099.95 1082.84 2093.78 1082.84 2087.6 1082.84 2082.59 1077.83 2082.59 1071.65 2082.59 1065.48 2087.6 1060.47 2093.78 1060.47 2099.95 1060.47 2104.96 1065.48 2104.96 1071.65Z" stroke="#8C0028" stroke-width="6.45323" fill="none" transform="matrix(1.00002 0 0 1 -387.666 1268)"/><path d="M2131.58 1071.65C2131.58 1077.83 2126.57 1082.84 2120.39 1082.84 2114.22 1082.84 2109.21 1077.83 2109.21 1071.65 2109.21 1065.48 2114.22 1060.47 2120.39 1060.47 2126.57 1060.47 2131.58 1065.48 2131.58 1071.65Z" stroke="#8C0028" stroke-width="6.45323" fill="none" transform="matrix(1.00002 0 0 1 -387.666 1268)"/><path d="M2158.1 1071.65C2158.1 1077.83 2153.09 1082.84 2146.91 1082.84 2140.73 1082.84 2135.72 1077.83 2135.72 1071.65 2135.72 1065.48 2140.73 1060.47 2146.91 1060.47 2153.09 1060.47 2158.1 1065.48 2158.1 1071.65Z" stroke="#8C0028" stroke-width="6.45323" fill="none" transform="matrix(1.00002 0 0 1 -387.666 1268)"/><path d="M2184.62 1071.65C2184.62 1077.83 2179.61 1082.84 2173.43 1082.84 2167.25 1082.84 2162.24 1077.83 2162.24 1071.65 2162.24 1065.48 2167.25 1060.47 2173.43 1060.47 2179.61 1060.47 2184.62 1065.48 2184.62 1071.65Z" stroke="#8C0028" stroke-width="6.45323" fill="none" transform="matrix(1.00002 0 0 1 -387.666 1268)"/><path d="M2211.24 1071.65C2211.24 1077.83 2206.23 1082.84 2200.05 1082.84 2193.87 1082.84 2188.86 1077.83 2188.86 1071.65 2188.86 1065.48 2193.87 1060.47 2200.05 1060.47 2206.23 1060.47 2211.24 1065.48 2211.24 1071.65Z" stroke="#8C0028" stroke-width="6.45323" fill="none" transform="matrix(1.00002 0 0 1 -387.666 1268)"/><path d="M2237.76 1071.65C2237.76 1077.83 2232.75 1082.84 2226.57 1082.84 2220.39 1082.84 2215.38 1077.83 2215.38 1071.65 2215.38 1065.48 2220.39 1060.47 2226.57 1060.47 2232.75 1060.47 2237.76 1065.48 2237.76 1071.65Z" stroke="#8C0028" stroke-width="6.45323" fill="none" transform="matrix(1.00002 0 0 1 -387.666 1268)"/><path d="M2264.27 1071.65C2264.27 1077.83 2259.26 1082.84 2253.08 1082.84 2246.9 1082.84 2241.89 1077.83 2241.89 1071.65 2241.89 1065.48 2246.9 1060.47 2253.08 1060.47 2259.26 1060.47 2264.27 1065.48 2264.27 1071.65Z" stroke="#8C0028" stroke-width="6.45323" fill="none" transform="matrix(1.00002 0 0 1 -387.666 1268)"/><path d="M2290.9 1071.65C2290.9 1077.83 2285.89 1082.84 2279.71 1082.84 2273.53 1082.84 2268.52 1077.83 2268.52 1071.65 2268.52 1065.48 2273.53 1060.47 2279.71 1060.47 2285.89 1060.47 2290.9 1065.48 2290.9 1071.65Z" stroke="#8C0028" stroke-width="6.45323" fill="none" transform="matrix(1.00002 0 0 1 -387.666 1268)"/><path d="M2317.41 1071.65C2317.41 1077.83 2312.4 1082.84 2306.22 1082.84 2300.04 1082.84 2295.04 1077.83 2295.04 1071.65 2295.04 1065.48 2300.04 1060.47 2306.22 1060.47 2312.4 1060.47 2317.41 1065.48 2317.41 1071.65Z" stroke="#8C0028" stroke-width="6.45323" fill="none" transform="matrix(1.00002 0 0 1 -387.666 1268)"/><path d="M1852.68 1046.65C1852.68 1052.83 1847.67 1057.84 1841.49 1057.84 1835.31 1057.84 1830.31 1052.83 1830.31 1046.65 1830.31 1040.47 1835.31 1035.46 1841.49 1035.46 1847.67 1035.46 1852.68 1040.47 1852.68 1046.65Z" stroke="#8C0028" stroke-width="6.45323" fill="none" transform="matrix(1.00002 0 0 1 -387.666 1268)"/><path d="M1879.3 1046.65C1879.3 1052.83 1874.29 1057.84 1868.11 1057.84 1861.93 1057.84 1856.92 1052.83 1856.92 1046.65 1856.92 1040.47 1861.93 1035.46 1868.11 1035.46 1874.29 1035.46 1879.3 1040.47 1879.3 1046.65Z" stroke="#8C0028" stroke-width="6.45323" fill="none" transform="matrix(1.00002 0 0 1 -387.666 1268)"/><path d="M1905.82 1046.65C1905.82 1052.83 1900.81 1057.84 1894.63 1057.84 1888.45 1057.84 1883.44 1052.83 1883.44 1046.65 1883.44 1040.47 1888.45 1035.46 1894.63 1035.46 1900.81 1035.46 1905.82 1040.47 1905.82 1046.65Z" stroke="#8C0028" stroke-width="6.45323" fill="none" transform="matrix(1.00002 0 0 1 -387.666 1268)"/><path d="M1932.34 1046.65C1932.34 1052.83 1927.33 1057.84 1921.15 1057.84 1914.97 1057.84 1909.96 1052.83 1909.96 1046.65 1909.96 1040.47 1914.97 1035.46 1921.15 1035.46 1927.33 1035.46 1932.34 1040.47 1932.34 1046.65Z" stroke="#8C0028" stroke-width="6.45323" fill="none" transform="matrix(1.00002 0 0 1 -387.666 1268)"/><path d="M1958.96 1046.65C1958.96 1052.83 1953.95 1057.84 1947.77 1057.84 1941.59 1057.84 1936.58 1052.83 1936.58 1046.65 1936.58 1040.47 1941.59 1035.46 1947.77 1035.46 1953.95 1035.46 1958.96 1040.47 1958.96 1046.65Z" stroke="#8C0028" stroke-width="6.45323" fill="none" transform="matrix(1.00002 0 0 1 -387.666 1268)"/><path d="M1985.47 1046.65C1985.47 1052.83 1980.46 1057.84 1974.29 1057.84 1968.11 1057.84 1963.1 1052.83 1963.1 1046.65 1963.1 1040.47 1968.11 1035.46 1974.29 1035.46 1980.46 1035.46 1985.47 1040.47 1985.47 1046.65Z" stroke="#8C0028" stroke-width="6.45323" fill="none" transform="matrix(1.00002 0 0 1 -387.666 1268)"/><path d="M2012.09 1046.65C2012.09 1052.83 2007.08 1057.84 2000.91 1057.84 1994.73 1057.84 1989.72 1052.83 1989.72 1046.65 1989.72 1040.47 1994.73 1035.46 2000.91 1035.46 2007.08 1035.46 2012.09 1040.47 2012.09 1046.65Z" stroke="#8C0028" stroke-width="6.45323" fill="none" transform="matrix(1.00002 0 0 1 -387.666 1268)"/><path d="M2038.62 1046.65C2038.62 1052.83 2033.61 1057.84 2027.43 1057.84 2021.25 1057.84 2016.24 1052.83 2016.24 1046.65 2016.24 1040.47 2021.25 1035.46 2027.43 1035.46 2033.61 1035.46 2038.62 1040.47 2038.62 1046.65Z" stroke="#8C0028" stroke-width="6.45323" fill="none" transform="matrix(1.00002 0 0 1 -387.666 1268)"/><path d="M2065.13 1046.65C2065.13 1052.83 2060.12 1057.84 2053.94 1057.84 2047.76 1057.84 2042.75 1052.83 2042.75 1046.65 2042.75 1040.47 2047.76 1035.46 2053.94 1035.46 2060.12 1035.46 2065.13 1040.47 2065.13 1046.65Z" stroke="#8C0028" stroke-width="6.45323" fill="none" transform="matrix(1.00002 0 0 1 -387.666 1268)"/><path d="M2091.75 1046.65C2091.75 1052.83 2086.74 1057.84 2080.56 1057.84 2074.38 1057.84 2069.37 1052.83 2069.37 1046.65 2069.37 1040.47 2074.38 1035.46 2080.56 1035.46 2086.74 1035.46 2091.75 1040.47 2091.75 1046.65Z" stroke="#8C0028" stroke-width="6.45323" fill="none" transform="matrix(1.00002 0 0 1 -387.666 1268)"/><path d="M2118.27 1046.65C2118.27 1052.83 2113.26 1057.84 2107.08 1057.84 2100.9 1057.84 2095.89 1052.83 2095.89 1046.65 2095.89 1040.47 2100.9 1035.46 2107.08 1035.46 2113.26 1035.46 2118.27 1040.47 2118.27 1046.65Z" stroke="#8C0028" stroke-width="6.45323" fill="none" transform="matrix(1.00002 0 0 1 -387.666 1268)"/><path d="M2144.79 1046.65C2144.79 1052.83 2139.78 1057.84 2133.6 1057.84 2127.42 1057.84 2122.41 1052.83 2122.41 1046.65 2122.41 1040.47 2127.42 1035.46 2133.6 1035.46 2139.78 1035.46 2144.79 1040.47 2144.79 1046.65Z" stroke="#8C0028" stroke-width="6.45323" fill="none" transform="matrix(1.00002 0 0 1 -387.666 1268)"/><path d="M2171.41 1046.65C2171.41 1052.83 2166.4 1057.84 2160.22 1057.84 2154.04 1057.84 2149.03 1052.83 2149.03 1046.65 2149.03 1040.47 2154.04 1035.46 2160.22 1035.46 2166.4 1035.46 2171.41 1040.47 2171.41 1046.65Z" stroke="#8C0028" stroke-width="6.45323" fill="none" transform="matrix(1.00002 0 0 1 -387.666 1268)"/><path d="M2197.92 1046.65C2197.92 1052.83 2192.91 1057.84 2186.73 1057.84 2180.56 1057.84 2175.55 1052.83 2175.55 1046.65 2175.55 1040.47 2180.56 1035.46 2186.73 1035.46 2192.91 1035.46 2197.92 1040.47 2197.92 1046.65Z" stroke="#8C0028" stroke-width="6.45323" fill="none" transform="matrix(1.00002 0 0 1 -387.666 1268)"/><path d="M2224.45 1046.65C2224.45 1052.83 2219.44 1057.84 2213.26 1057.84 2207.08 1057.84 2202.07 1052.83 2202.07 1046.65 2202.07 1040.47 2207.08 1035.46 2213.26 1035.46 2219.44 1035.46 2224.45 1040.47 2224.45 1046.65Z" stroke="#8C0028" stroke-width="6.45323" fill="none" transform="matrix(1.00002 0 0 1 -387.666 1268)"/><path d="M1919.13 1021.75C1919.13 1027.93 1914.12 1032.94 1907.94 1032.94 1901.76 1032.94 1896.75 1027.93 1896.75 1021.75 1896.75 1015.57 1901.76 1010.56 1907.94 1010.56 1914.12 1010.56 1919.13 1015.57 1919.13 1021.75Z" stroke="#8C0028" stroke-width="6.45323" fill="none" transform="matrix(1.00002 0 0 1 -387.666 1268)"/><path d="M1945.64 1021.75C1945.64 1027.93 1940.63 1032.94 1934.45 1032.94 1928.27 1032.94 1923.26 1027.93 1923.26 1021.75 1923.26 1015.57 1928.27 1010.56 1934.45 1010.56 1940.63 1010.56 1945.64 1015.57 1945.64 1021.75Z" stroke="#8C0028" stroke-width="6.45323" fill="none" transform="matrix(1.00002 0 0 1 -387.666 1268)"/><path d="M1972.26 1021.75C1972.26 1027.93 1967.25 1032.94 1961.07 1032.94 1954.89 1032.94 1949.88 1027.93 1949.88 1021.75 1949.88 1015.57 1954.89 1010.56 1961.07 1010.56 1967.25 1010.56 1972.26 1015.57 1972.26 1021.75Z" stroke="#8C0028" stroke-width="6.45323" fill="none" transform="matrix(1.00002 0 0 1 -387.666 1268)"/><path d="M1998.78 1021.75C1998.78 1027.93 1993.77 1032.94 1987.6 1032.94 1981.42 1032.94 1976.41 1027.93 1976.41 1021.75 1976.41 1015.57 1981.42 1010.56 1987.6 1010.56 1993.77 1010.56 1998.78 1015.57 1998.78 1021.75Z" stroke="#8C0028" stroke-width="6.45323" fill="none" transform="matrix(1.00002 0 0 1 -387.666 1268)"/><path d="M2025.31 1021.75C2025.31 1027.93 2020.3 1032.94 2014.12 1032.94 2007.94 1032.94 2002.93 1027.93 2002.93 1021.75 2002.93 1015.57 2007.94 1010.56 2014.12 1010.56 2020.3 1010.56 2025.31 1015.57 2025.31 1021.75Z" stroke="#8C0028" stroke-width="6.45323" fill="none" transform="matrix(1.00002 0 0 1 -387.666 1268)"/><path d="M2051.92 1021.75C2051.92 1027.93 2046.91 1032.94 2040.73 1032.94 2034.55 1032.94 2029.54 1027.93 2029.54 1021.75 2029.54 1015.57 2034.55 1010.56 2040.73 1010.56 2046.91 1010.56 2051.92 1015.57 2051.92 1021.75Z" stroke="#8C0028" stroke-width="6.45323" fill="none" transform="matrix(1.00002 0 0 1 -387.666 1268)"/><path d="M2078.44 1021.75C2078.44 1027.93 2073.43 1032.94 2067.25 1032.94 2061.07 1032.94 2056.06 1027.93 2056.06 1021.75 2056.06 1015.57 2061.07 1010.56 2067.25 1010.56 2073.43 1010.56 2078.44 1015.57 2078.44 1021.75Z" stroke="#8C0028" stroke-width="6.45323" fill="none" transform="matrix(1.00002 0 0 1 -387.666 1268)"/><path d="M2104.96 1021.75C2104.96 1027.93 2099.95 1032.94 2093.78 1032.94 2087.6 1032.94 2082.59 1027.93 2082.59 1021.75 2082.59 1015.57 2087.6 1010.56 2093.78 1010.56 2099.95 1010.56 2104.96 1015.57 2104.96 1021.75Z" stroke="#8C0028" stroke-width="6.45323" fill="none" transform="matrix(1.00002 0 0 1 -387.666 1268)"/><path d="M2131.58 1021.75C2131.58 1027.93 2126.57 1032.94 2120.39 1032.94 2114.22 1032.94 2109.21 1027.93 2109.21 1021.75 2109.21 1015.57 2114.22 1010.56 2120.39 1010.56 2126.57 1010.56 2131.58 1015.57 2131.58 1021.75Z" stroke="#8C0028" stroke-width="6.45323" fill="none" transform="matrix(1.00002 0 0 1 -387.666 1268)"/><path d="M2158.1 1021.75C2158.1 1027.93 2153.09 1032.94 2146.91 1032.94 2140.73 1032.94 2135.72 1027.93 2135.72 1021.75 2135.72 1015.57 2140.73 1010.56 2146.91 1010.56 2153.09 1010.56 2158.1 1015.57 2158.1 1021.75Z" stroke="#8C0028" stroke-width="6.45323" fill="none" transform="matrix(1.00002 0 0 1 -387.666 1268)"/><path d="M1919.13 996.741C1919.13 1002.92 1914.12 1007.93 1907.94 1007.93 1901.76 1007.93 1896.75 1002.92 1896.75 996.741 1896.75 990.561 1901.76 985.552 1907.94 985.552 1914.12 985.552 1919.13 990.561 1919.13 996.741Z" stroke="#8C0028" stroke-width="6.45323" fill="none" transform="matrix(1.00002 0 0 1 -387.666 1268)"/><path d="M1945.64 996.741C1945.64 1002.92 1940.63 1007.93 1934.45 1007.93 1928.27 1007.93 1923.26 1002.92 1923.26 996.741 1923.26 990.561 1928.27 985.552 1934.45 985.552 1940.63 985.552 1945.64 990.561 1945.64 996.741Z" stroke="#8C0028" stroke-width="6.45323" fill="none" transform="matrix(1.00002 0 0 1 -387.666 1268)"/><path d="M1972.26 996.741C1972.26 1002.92 1967.25 1007.93 1961.07 1007.93 1954.89 1007.93 1949.88 1002.92 1949.88 996.741 1949.88 990.561 1954.89 985.552 1961.07 985.552 1967.25 985.552 1972.26 990.561 1972.26 996.741Z" stroke="#8C0028" stroke-width="6.45323" fill="none" transform="matrix(1.00002 0 0 1 -387.666 1268)"/><path d="M1998.78 996.741C1998.78 1002.92 1993.77 1007.93 1987.6 1007.93 1981.42 1007.93 1976.41 1002.92 1976.41 996.741 1976.41 990.561 1981.42 985.552 1987.6 985.552 1993.77 985.552 1998.78 990.561 1998.78 996.741Z" stroke="#8C0028" stroke-width="6.45323" fill="none" transform="matrix(1.00002 0 0 1 -387.666 1268)"/><path d="M2025.31 996.741C2025.31 1002.92 2020.3 1007.93 2014.12 1007.93 2007.94 1007.93 2002.93 1002.92 2002.93 996.741 2002.93 990.561 2007.94 985.552 2014.12 985.552 2020.3 985.552 2025.31 990.561 2025.31 996.741Z" stroke="#8C0028" stroke-width="6.45323" fill="none" transform="matrix(1.00002 0 0 1 -387.666 1268)"/><path d="M2051.92 996.741C2051.92 1002.92 2046.91 1007.93 2040.73 1007.93 2034.55 1007.93 2029.54 1002.92 2029.54 996.741 2029.54 990.561 2034.55 985.552 2040.73 985.552 2046.91 985.552 2051.92 990.561 2051.92 996.741Z" stroke="#8C0028" stroke-width="6.45323" fill="none" transform="matrix(1.00002 0 0 1 -387.666 1268)"/><path d="M2078.44 996.741C2078.44 1002.92 2073.43 1007.93 2067.25 1007.93 2061.07 1007.93 2056.06 1002.92 2056.06 996.741 2056.06 990.561 2061.07 985.552 2067.25 985.552 2073.43 985.552 2078.44 990.561 2078.44 996.741Z" stroke="#8C0028" stroke-width="6.45323" fill="none" transform="matrix(1.00002 0 0 1 -387.666 1268)"/><path d="M2104.96 996.741C2104.96 1002.92 2099.95 1007.93 2093.78 1007.93 2087.6 1007.93 2082.59 1002.92 2082.59 996.741 2082.59 990.561 2087.6 985.552 2093.78 985.552 2099.95 985.552 2104.96 990.561 2104.96 996.741Z" stroke="#8C0028" stroke-width="6.45323" fill="none" transform="matrix(1.00002 0 0 1 -387.666 1268)"/><path d="M2131.58 996.741C2131.58 1002.92 2126.57 1007.93 2120.39 1007.93 2114.22 1007.93 2109.21 1002.92 2109.21 996.741 2109.21 990.561 2114.22 985.552 2120.39 985.552 2126.57 985.552 2131.58 990.561 2131.58 996.741Z" stroke="#8C0028" stroke-width="6.45323" fill="none" transform="matrix(1.00002 0 0 1 -387.666 1268)"/><path d="M2158.1 996.741C2158.1 1002.92 2153.09 1007.93 2146.91 1007.93 2140.73 1007.93 2135.72 1002.92 2135.72 996.741 2135.72 990.561 2140.73 985.552 2146.91 985.552 2153.09 985.552 2158.1 990.561 2158.1 996.741Z" stroke="#8C0028" stroke-width="6.45323" fill="none" transform="matrix(1.00002 0 0 1 -387.666 1268)"/><path d="M1945.64 971.734C1945.64 977.914 1940.63 982.923 1934.45 982.923 1928.27 982.923 1923.26 977.914 1923.26 971.734 1923.26 965.555 1928.27 960.546 1934.45 960.546 1940.63 960.546 1945.64 965.555 1945.64 971.734Z" stroke="#8C0028" stroke-width="6.45323" fill="none" transform="matrix(1.00002 0 0 1 -387.666 1268)"/><path d="M1972.26 971.734C1972.26 977.914 1967.25 982.923 1961.07 982.923 1954.89 982.923 1949.88 977.914 1949.88 971.734 1949.88 965.555 1954.89 960.546 1961.07 960.546 1967.25 960.546 1972.26 965.555 1972.26 971.734Z" stroke="#8C0028" stroke-width="6.45323" fill="none" transform="matrix(1.00002 0 0 1 -387.666 1268)"/><path d="M1998.78 971.734C1998.78 977.914 1993.77 982.923 1987.6 982.923 1981.42 982.923 1976.41 977.914 1976.41 971.734 1976.41 965.555 1981.42 960.546 1987.6 960.546 1993.77 960.546 1998.78 965.555 1998.78 971.734Z" stroke="#8C0028" stroke-width="6.45323" fill="none" transform="matrix(1.00002 0 0 1 -387.666 1268)"/><path d="M2025.31 971.734C2025.31 977.914 2020.3 982.923 2014.12 982.923 2007.94 982.923 2002.93 977.914 2002.93 971.734 2002.93 965.555 2007.94 960.546 2014.12 960.546 2020.3 960.546 2025.31 965.555 2025.31 971.734Z" stroke="#8C0028" stroke-width="6.45323" fill="none" transform="matrix(1.00002 0 0 1 -387.666 1268)"/><path d="M2051.92 971.734C2051.92 977.914 2046.91 982.923 2040.73 982.923 2034.55 982.923 2029.54 977.914 2029.54 971.734 2029.54 965.555 2034.55 960.546 2040.73 960.546 2046.91 960.546 2051.92 965.555 2051.92 971.734Z" stroke="#8C0028" stroke-width="6.45323" fill="none" transform="matrix(1.00002 0 0 1 -387.666 1268)"/><path d="M2078.44 971.734C2078.44 977.914 2073.43 982.923 2067.25 982.923 2061.07 982.923 2056.06 977.914 2056.06 971.734 2056.06 965.555 2061.07 960.546 2067.25 960.546 2073.43 960.546 2078.44 965.555 2078.44 971.734Z" stroke="#8C0028" stroke-width="6.45323" fill="none" transform="matrix(1.00002 0 0 1 -387.666 1268)"/><path d="M2104.96 971.734C2104.96 977.914 2099.95 982.923 2093.78 982.923 2087.6 982.923 2082.59 977.914 2082.59 971.734 2082.59 965.555 2087.6 960.546 2093.78 960.546 2099.95 960.546 2104.96 965.555 2104.96 971.734Z" stroke="#8C0028" stroke-width="6.45323" fill="none" transform="matrix(1.00002 0 0 1 -387.666 1268)"/><path d="M2131.58 971.734C2131.58 977.914 2126.57 982.923 2120.39 982.923 2114.22 982.923 2109.21 977.914 2109.21 971.734 2109.21 965.555 2114.22 960.546 2120.39 960.546 2126.57 960.546 2131.58 965.555 2131.58 971.734Z" stroke="#8C0028" stroke-width="6.45323" fill="none" transform="matrix(1.00002 0 0 1 -387.666 1268)"/><path d="M1919.13 946.825C1919.13 953.004 1914.12 958.014 1907.94 958.014 1901.76 958.014 1896.75 953.004 1896.75 946.825 1896.75 940.646 1901.76 935.637 1907.94 935.637 1914.12 935.637 1919.13 940.646 1919.13 946.825Z" stroke="#8C0028" stroke-width="6.45323" fill="none" transform="matrix(1.00002 0 0 1 -387.666 1268)"/><path d="M1945.64 946.825C1945.64 953.004 1940.63 958.014 1934.45 958.014 1928.27 958.014 1923.26 953.004 1923.26 946.825 1923.26 940.646 1928.27 935.637 1934.45 935.637 1940.63 935.637 1945.64 940.646 1945.64 946.825Z" stroke="#8C0028" stroke-width="6.45323" fill="none" transform="matrix(1.00002 0 0 1 -387.666 1268)"/><path d="M1972.26 946.825C1972.26 953.004 1967.25 958.014 1961.07 958.014 1954.89 958.014 1949.88 953.004 1949.88 946.825 1949.88 940.646 1954.89 935.637 1961.07 935.637 1967.25 935.637 1972.26 940.646 1972.26 946.825Z" stroke="#8C0028" stroke-width="6.45323" fill="none" transform="matrix(1.00002 0 0 1 -387.666 1268)"/><path d="M1998.78 946.825C1998.78 953.004 1993.77 958.014 1987.6 958.014 1981.42 958.014 1976.41 953.004 1976.41 946.825 1976.41 940.646 1981.42 935.637 1987.6 935.637 1993.77 935.637 1998.78 940.646 1998.78 946.825Z" stroke="#8C0028" stroke-width="6.45323" fill="none" transform="matrix(1.00002 0 0 1 -387.666 1268)"/><path d="M2025.31 946.825C2025.31 953.004 2020.3 958.014 2014.12 958.014 2007.94 958.014 2002.93 953.004 2002.93 946.825 2002.93 940.646 2007.94 935.637 2014.12 935.637 2020.3 935.637 2025.31 940.646 2025.31 946.825Z" stroke="#8C0028" stroke-width="6.45323" fill="none" transform="matrix(1.00002 0 0 1 -387.666 1268)"/><path d="M2051.92 946.825C2051.92 953.004 2046.91 958.014 2040.73 958.014 2034.55 958.014 2029.54 953.004 2029.54 946.825 2029.54 940.646 2034.55 935.637 2040.73 935.637 2046.91 935.637 2051.92 940.646 2051.92 946.825Z" stroke="#8C0028" stroke-width="6.45323" fill="none" transform="matrix(1.00002 0 0 1 -387.666 1268)"/><path d="M2078.44 946.825C2078.44 953.004 2073.43 958.014 2067.25 958.014 2061.07 958.014 2056.06 953.004 2056.06 946.825 2056.06 940.646 2061.07 935.637 2067.25 935.637 2073.43 935.637 2078.44 940.646 2078.44 946.825Z" stroke="#8C0028" stroke-width="6.45323" fill="none" transform="matrix(1.00002 0 0 1 -387.666 1268)"/><path d="M2104.96 946.825C2104.96 953.004 2099.95 958.014 2093.78 958.014 2087.6 958.014 2082.59 953.004 2082.59 946.825 2082.59 940.646 2087.6 935.637 2093.78 935.637 2099.95 935.637 2104.96 940.646 2104.96 946.825Z" stroke="#8C0028" stroke-width="6.45323" fill="none" transform="matrix(1.00002 0 0 1 -387.666 1268)"/><path d="M2131.58 946.825C2131.58 953.004 2126.57 958.014 2120.39 958.014 2114.22 958.014 2109.21 953.004 2109.21 946.825 2109.21 940.646 2114.22 935.637 2120.39 935.637 2126.57 935.637 2131.58 940.646 2131.58 946.825Z" stroke="#8C0028" stroke-width="6.45323" fill="none" transform="matrix(1.00002 0 0 1 -387.666 1268)"/><path d="M2158.1 946.825C2158.1 953.004 2153.09 958.014 2146.91 958.014 2140.73 958.014 2135.72 953.004 2135.72 946.825 2135.72 940.646 2140.73 935.637 2146.91 935.637 2153.09 935.637 2158.1 940.646 2158.1 946.825Z" stroke="#8C0028" stroke-width="6.45323" fill="none" transform="matrix(1.00002 0 0 1 -387.666 1268)"/><path d="M2012.09 921.819C2012.09 927.998 2007.08 933.007 2000.91 933.007 1994.73 933.007 1989.72 927.998 1989.72 921.819 1989.72 915.64 1994.73 910.63 2000.91 910.63 2007.08 910.63 2012.09 915.64 2012.09 921.819Z" stroke="#8C0028" stroke-width="6.45323" fill="none" transform="matrix(1.00002 0 0 1 -387.666 1268)"/><path d="M2038.62 921.819C2038.62 927.998 2033.61 933.007 2027.43 933.007 2021.25 933.007 2016.24 927.998 2016.24 921.819 2016.24 915.64 2021.25 910.63 2027.43 910.63 2033.61 910.63 2038.62 915.64 2038.62 921.819Z" stroke="#8C0028" stroke-width="6.45323" fill="none" transform="matrix(1.00002 0 0 1 -387.666 1268)"/><path d="M2065.13 921.819C2065.13 927.998 2060.12 933.007 2053.94 933.007 2047.76 933.007 2042.75 927.998 2042.75 921.819 2042.75 915.64 2047.76 910.63 2053.94 910.63 2060.12 910.63 2065.13 915.64 2065.13 921.819Z" stroke="#8C0028" stroke-width="6.45323" fill="none" transform="matrix(1.00002 0 0 1 -387.666 1268)"/><path d="M1985.47 896.812C1985.47 902.992 1980.46 908.001 1974.29 908.001 1968.11 908.001 1963.1 902.992 1963.1 896.812 1963.1 890.633 1968.11 885.624 1974.29 885.624 1980.46 885.624 1985.47 890.633 1985.47 896.812Z" stroke="#8C0028" stroke-width="6.45323" fill="none" transform="matrix(1.00002 0 0 1 -387.666 1268)"/><path d="M2012.09 896.812C2012.09 902.992 2007.08 908.001 2000.91 908.001 1994.73 908.001 1989.72 902.992 1989.72 896.812 1989.72 890.633 1994.73 885.624 2000.91 885.624 2007.08 885.624 2012.09 890.633 2012.09 896.812Z" stroke="#8C0028" stroke-width="6.45323" fill="none" transform="matrix(1.00002 0 0 1 -387.666 1268)"/><path d="M2038.62 896.812C2038.62 902.992 2033.61 908.001 2027.43 908.001 2021.25 908.001 2016.24 902.992 2016.24 896.812 2016.24 890.633 2021.25 885.624 2027.43 885.624 2033.61 885.624 2038.62 890.633 2038.62 896.812Z" stroke="#8C0028" stroke-width="6.45323" fill="none" transform="matrix(1.00002 0 0 1 -387.666 1268)"/><path d="M2065.13 896.812C2065.13 902.992 2060.12 908.001 2053.94 908.001 2047.76 908.001 2042.75 902.992 2042.75 896.812 2042.75 890.633 2047.76 885.624 2053.94 885.624 2060.12 885.624 2065.13 890.633 2065.13 896.812Z" stroke="#8C0028" stroke-width="6.45323" fill="none" transform="matrix(1.00002 0 0 1 -387.666 1268)"/><path d="M2091.75 896.812C2091.75 902.992 2086.74 908.001 2080.56 908.001 2074.38 908.001 2069.37 902.992 2069.37 896.812 2069.37 890.633 2074.38 885.624 2080.56 885.624 2086.74 885.624 2091.75 890.633 2091.75 896.812Z" stroke="#8C0028" stroke-width="6.45323" fill="none" transform="matrix(1.00002 0 0 1 -387.666 1268)"/><path d="M2025.31 871.903C2025.31 878.083 2020.3 883.092 2014.12 883.092 2007.94 883.092 2002.93 878.083 2002.93 871.903 2002.93 865.724 2007.94 860.715 2014.12 860.715 2020.3 860.715 2025.31 865.724 2025.31 871.903Z" stroke="#8C0028" stroke-width="6.45323" fill="none" transform="matrix(1.00002 0 0 1 -387.666 1268)"/><path d="M2051.92 871.903C2051.92 878.083 2046.91 883.092 2040.73 883.092 2034.55 883.092 2029.54 878.083 2029.54 871.903 2029.54 865.724 2034.55 860.715 2040.73 860.715 2046.91 860.715 2051.92 865.724 2051.92 871.903Z" stroke="#8C0028" stroke-width="6.45323" fill="none" transform="matrix(1.00002 0 0 1 -387.666 1268)"/><path d="M1998.78 821.891C1998.78 828.07 1993.77 833.079 1987.6 833.079 1981.42 833.079 1976.41 828.07 1976.41 821.891 1976.41 815.712 1981.42 810.702 1987.6 810.702 1993.77 810.702 1998.78 815.712 1998.78 821.891Z" stroke="#8C0028" stroke-width="6.45323" fill="none" transform="matrix(1.00002 0 0 1 -387.666 1268)"/><path d="M2025.31 821.891C2025.31 828.07 2020.3 833.079 2014.12 833.079 2007.94 833.079 2002.93 828.07 2002.93 821.891 2002.93 815.712 2007.94 810.702 2014.12 810.702 2020.3 810.702 2025.31 815.712 2025.31 821.891Z" stroke="#8C0028" stroke-width="6.45323" fill="none" transform="matrix(1.00002 0 0 1 -387.666 1268)"/><path d="M2051.92 821.891C2051.92 828.07 2046.91 833.079 2040.73 833.079 2034.55 833.079 2029.54 828.07 2029.54 821.891 2029.54 815.712 2034.55 810.702 2040.73 810.702 2046.91 810.702 2051.92 815.712 2051.92 821.891Z" stroke="#8C0028" stroke-width="6.45323" fill="none" transform="matrix(1.00002 0 0 1 -387.666 1268)"/><path d="M2078.44 821.891C2078.44 828.07 2073.43 833.079 2067.25 833.079 2061.07 833.079 2056.06 828.07 2056.06 821.891 2056.06 815.712 2061.07 810.702 2067.25 810.702 2073.43 810.702 2078.44 815.712 2078.44 821.891Z" stroke="#8C0028" stroke-width="6.45323" fill="none" transform="matrix(1.00002 0 0 1 -387.666 1268)"/><path d="M2025.31 796.989C2025.31 803.168 2020.3 808.178 2014.12 808.178 2007.94 808.178 2002.93 803.168 2002.93 796.989 2002.93 790.81 2007.94 785.801 2014.12 785.801 2020.3 785.801 2025.31 790.81 2025.31 796.989Z" stroke="#8C0028" stroke-width="6.45323" fill="none" transform="matrix(1.00002 0 0 1 -387.666 1268)"/><path d="M2051.92 796.989C2051.92 803.168 2046.91 808.178 2040.73 808.178 2034.55 808.178 2029.54 803.168 2029.54 796.989 2029.54 790.81 2034.55 785.801 2040.73 785.801 2046.91 785.801 2051.92 790.81 2051.92 796.989Z" stroke="#8C0028" stroke-width="6.45323" fill="none" transform="matrix(1.00002 0 0 1 -387.666 1268)"/><path d="M2038.62 771.983C2038.62 778.162 2033.61 783.171 2027.43 783.171 2021.25 783.171 2016.24 778.162 2016.24 771.983 2016.24 765.804 2021.25 760.794 2027.43 760.794 2033.61 760.794 2038.62 765.804 2038.62 771.983Z" stroke="#8C0028" stroke-width="6.45323" fill="none" transform="matrix(1.00002 0 0 1 -387.666 1268)"/><path d="M2038.62 722.067C2038.62 728.247 2033.61 733.256 2027.43 733.256 2021.25 733.256 2016.24 728.247 2016.24 722.067 2016.24 715.888 2021.25 710.879 2027.43 710.879 2033.61 710.879 2038.62 715.888 2038.62 722.067Z" stroke="#8C0028" stroke-width="6.45323" fill="none" transform="matrix(1.00002 0 0 1 -387.666 1268)"/><path d="M1067 1668.38 1067 75.3251" stroke="#000000" stroke-width="4.30216" fill="none" transform="matrix(1.00002 0 0 1 -387.666 1268)"/><path d="M1067 1620.99 1037.16 1620.99" stroke="#000000" stroke-width="4.30216" fill="none" transform="matrix(1.00002 0 0 1 -387.666 1268)"/><text font-family="Arial,Arial_MSFontService,sans-serif" font-weight="400" font-size="100.04" transform="matrix(0.746918 0 0 0.746902 593.032 2915)">8</text><path d="M1067 1371.33 1037.16 1371.33" stroke="#000000" stroke-width="4.30216" fill="none" transform="matrix(1.00002 0 0 1 -387.666 1268)"/><text font-family="Arial,Arial_MSFontService,sans-serif" font-weight="400" font-size="100.04" transform="matrix(0.746918 0 0 0.746902 593.032 2666)">9</text><path d="M1067 1121.57 1037.16 1121.57" stroke="#000000" stroke-width="4.30216" fill="none" transform="matrix(1.00002 0 0 1 -387.666 1268)"/><text font-family="Arial,Arial_MSFontService,sans-serif" font-weight="400" font-size="100.04" transform="matrix(0.746918 0 0 0.746902 551.476 2416)">10</text><path d="M1067 871.806 1037.16 871.806" stroke="#000000" stroke-width="4.30216" fill="none" transform="matrix(1.00002 0 0 1 -387.666 1268)"/><text font-family="Arial,Arial_MSFontService,sans-serif" font-weight="400" font-size="100.04" transform="matrix(0.746918 0 0 0.746902 557.021 2166)">11</text><path d="M1067 622.042 1037.16 622.042" stroke="#000000" stroke-width="4.30216" fill="none" transform="matrix(1.00002 0 0 1 -387.666 1268)"/><text font-family="Arial,Arial_MSFontService,sans-serif" font-weight="400" font-size="100.04" transform="matrix(0.746918 0 0 0.746902 551.476 1916)">12</text><path d="M1067 372.375 1037.16 372.375" stroke="#000000" stroke-width="4.30216" fill="none" transform="matrix(1.00002 0 0 1 -387.666 1268)"/><text font-family="Arial,Arial_MSFontService,sans-serif" font-weight="400" font-size="100.04" transform="matrix(0.746918 0 0 0.746902 551.476 1667)">13</text><path d="M1067 122.611 1037.16 122.611" stroke="#000000" stroke-width="4.30216" fill="none" transform="matrix(1.00002 0 0 1 -387.666 1268)"/><text font-family="Arial,Arial_MSFontService,sans-serif" font-weight="400" font-size="100.04" transform="matrix(0.746918 0 0 0.746902 551.476 1417)">14</text><text font-family="Arial,Arial_MSFontService,sans-serif" font-weight="400" font-size="100.04" transform="matrix(4.57356e-17 -0.746902 0.746918 4.57346e-17 495.759 2416)">Log value added</text><path d="M1067 1668.38 2410.39 1668.38" stroke="#000000" stroke-width="4.30216" fill="none" transform="matrix(1.00002 0 0 1 -387.666 1268)"/><path d="M1330.48 1668.38 1330.48 1698.24" stroke="#000000" stroke-width="4.30216" fill="none" transform="matrix(1.00002 0 0 1 -387.666 1268)"/><text font-family="Arial,Arial_MSFontService,sans-serif" font-weight="400" font-size="100.04" transform="matrix(0.746918 0 0 0.746902 820.325 3033)">country</text><path d="M2027.43 1668.38 2027.43 1698.24" stroke="#000000" stroke-width="4.30216" fill="none" transform="matrix(1.00002 0 0 1 -387.666 1268)"/><text font-family="Arial,Arial_MSFontService,sans-serif" font-weight="400" font-size="100.04" transform="matrix(0.746918 0 0 0.746902 1577.56 3033)">firm</text><text font-family="Arial,Arial_MSFontService,sans-serif" font-weight="400" font-size="100.04" transform="matrix(0.746918 0 0 0.746902 1270.12 3116)">Type</text><path d="M1225.31 1910.79 2252.07 1910.79 2252.07 2049.94 1225.31 2049.94Z" stroke="#EAF2F3" stroke-width="4.30216" fill="#FFFFFF" transform="matrix(1.00002 0 0 1 -387.666 1268)"/><path d="M1268.76 1969.18 1259.07 1985.96 1278.46 1985.96Z" stroke="#1A476F" stroke-width="6.45323" fill="#1A476F" transform="matrix(1.00002 0 0 1 -387.666 1268)"/><path d="M1780.68 1980.37C1780.68 1986.54 1775.67 1991.55 1769.49 1991.55 1763.31 1991.55 1758.3 1986.54 1758.3 1980.37 1758.3 1974.19 1763.31 1969.18 1769.49 1969.18 1775.67 1969.18 1780.68 1974.19 1780.68 1980.37Z" stroke="#8C0028" stroke-width="6.45323" fill="none" transform="matrix(1.00002 0 0 1 -387.666 1268)"/><text font-family="Arial,Arial_MSFontService,sans-serif" font-weight="400" font-size="100.04" transform="matrix(0.746918 0 0 0.746902 937.195 3275)">Countries</text><text font-family="Arial,Arial_MSFontService,sans-serif" font-weight="400" font-size="100.04" transform="matrix(0.746918 0 0 0.746902 1437.94 3275)">Companies</text></g></g></g><text font-family="Arial,Arial_MSFontService,sans-serif" font-weight="400" font-size="50" transform="matrix(1 0 0 1 376.74 2900)">100 million</text><text font-family="Arial,Arial_MSFontService,sans-serif" font-weight="400" font-size="50" transform="matrix(1 0 0 1 453.682 2651)">1 billion</text><text font-family="Arial,Arial_MSFontService,sans-serif" font-weight="400" font-size="50" transform="matrix(1 0 0 1 423.021 2401)">10 billion</text><text font-family="Arial,Arial_MSFontService,sans-serif" font-weight="400" font-size="50" transform="matrix(1 0 0 1 392.359 2152)">100 billion</text><text font-family="Arial,Arial_MSFontService,sans-serif" font-weight="400" font-size="50" transform="matrix(1 0 0 1 450.211 1902)">1 trillion</text><text font-family="Arial,Arial_MSFontService,sans-serif" font-weight="400" font-size="50" transform="matrix(1 0 0 1 419.55 1653)">10 trillion</text><text font-family="Arial,Arial_MSFontService,sans-serif" font-weight="400" font-size="50" transform="matrix(1 0 0 1 388.888 1403)">100 trillion</text><text font-family="Aptos,Aptos_MSFontService,sans-serif" font-weight="700" font-size="55" transform="matrix(1 0 0 1 778.556 3048)">~</text><text font-family="Aptos,Aptos_MSFontService,sans-serif" font-weight="700" font-size="55" transform="matrix(1 0 0 1 807.774 3048)">200 countries</text><text font-family="Aptos,Aptos_MSFontService,sans-serif" font-weight="700" font-size="55" transform="matrix(1 0 0 1 1423.28 3048)">~</text><text font-family="Aptos,Aptos_MSFontService,sans-serif" font-weight="700" font-size="55" transform="matrix(1 0 0 1 1452.5 3048)">100 U.S. companies</text><text font-family="Aptos,Aptos_MSFontService,sans-serif" font-weight="700" font-size="55" transform="matrix(-1.83697e-16 -1 1 -1.83697e-16 337.075 2512)">GDP  for countries  = VA</text><text font-family="Arial,Arial_MSFontService,sans-serif" font-weight="400" font-size="50" transform="matrix(1 0 0 1 1657.28 1949)">63 Amazon</text><text font-family="Arial,Arial_MSFontService,sans-serif" font-weight="400" font-size="50" transform="matrix(1 0 0 1 1329.63 2032)">75 Alphabet</text><text font-family="Arial,Arial_MSFontService,sans-serif" font-weight="400" font-size="50" transform="matrix(1 0 0 1 1314.11 2079)">81 Microsoft</text><text font-family="Arial,Arial_MSFontService,sans-serif" font-weight="400" font-size="50" transform="matrix(1 0 0 1 1719.2 2079)">82 Apple</text><text font-family="Arial,Arial_MSFontService,sans-serif" font-weight="400" font-size="50" transform="matrix(1 0 0 1 996.224 1488)">1 China</text><text font-family="Arial,Arial_MSFontService,sans-serif" font-weight="400" font-size="50" transform="matrix(1 0 0 1 996.224 1538)">2 USA</text><text font-family="Arial,Arial_MSFontService,sans-serif" font-weight="400" font-size="50" transform="matrix(1 0 0 1 996.224 1629)">3 India</text><text font-family="Arial,Arial_MSFontService,sans-serif" font-weight="400" font-size="50" transform="matrix(1 0 0 1 996.224 1700)">4 Germany</text><text fill="#7F7F7F" font-family="Arial,Arial_MSFontService,sans-serif" font-style="italic" font-weight="400" font-size="50" transform="matrix(1 0 0 1 1155.08 1565)">(EU)</text><text font-family="Aptos,Aptos_MSFontService,sans-serif" font-weight="700" font-size="55" transform="matrix(-1.83697e-16 -1 1 -1.83697e-16 2108.6 2722)">Contribution to GDP for companies =  VA</text><text font-family="Arial,Arial_MSFontService,sans-serif" font-weight="700" font-size="64" transform="matrix(1 0 0 1 597.193 1216)">SIZE COMPARISON OF COUNTRIES AND </text><text font-family="Arial,Arial_MSFontService,sans-serif" font-weight="700" font-size="64" transform="matrix(1 0 0 1 719.178 1293)">LARGE U.S. COMPANIES IN 2025</text><path d="M0 0 77.1527 474.92" stroke="#A41034" stroke-width="2.29167" stroke-miterlimit="8" fill="none" fill-rule="evenodd" transform="matrix(-1 0 0 1 1342.15 2383)"/><path d="M1936 2383 2013.15 2857.92" stroke="#A41034" stroke-width="2.29167" stroke-miterlimit="8" fill="none" fill-rule="evenodd"/><text fill="#A41034" font-family="Arial,Arial_MSFontService,sans-serif" font-style="italic" font-weight="400" font-size="41" transform="matrix(1 0 0 1 1494.16 2799)">and many more</text></g></svg>
